<?xml version="1.0" encoding="UTF-8"?>
<svg width="170px" height="170px" viewBox="0 0 170 170" version="1.1" xmlns="http://www.w3.org/2000/svg" xmlns:xlink="http://www.w3.org/1999/xlink">
    <!-- Generator: Sketch 52.2 (67145) - http://www.bohemiancoding.com/sketch -->
    <title>Btn/mosaic/Normal/01</title>
    <desc>Created with Sketch.</desc>
    <g id="Make" stroke="none" stroke-width="1" fill="none" fill-rule="evenodd">
        <g id="Btn/mosaic/Normal/01">
            <rect id="Rectangle" fill="#D8D8D8" opacity="0.01" x="0" y="0" width="170" height="170"></rect>
            <path d="M41,36 L61,36 C63.7614237,36 66,38.2385763 66,41 L66,61 C66,63.7614237 63.7614237,66 61,66 L41,66 C38.2385763,66 36,63.7614237 36,61 L36,41 C36,38.2385763 38.2385763,36 41,36 Z M75,36 L95,36 C97.7614237,36 100,38.2385763 100,41 L100,61 C100,63.7614237 97.7614237,66 95,66 L75,66 C72.2385763,66 70,63.7614237 70,61 L70,41 C70,38.2385763 72.2385763,36 75,36 Z M109,36 L129,36 C131.761424,36 134,38.2385763 134,41 L134,61 C134,63.7614237 131.761424,66 129,66 L109,66 C106.238576,66 104,63.7614237 104,61 L104,41 C104,38.2385763 106.238576,36 109,36 Z M41,70 L61,70 C63.7614237,70 66,72.2385763 66,75 L66,95 C66,97.7614237 63.7614237,100 61,100 L41,100 C38.2385763,100 36,97.7614237 36,95 L36,75 C36,72.2385763 38.2385763,70 41,70 Z M75,70 L95,70 C97.7614237,70 100,72.2385763 100,75 L100,95 C100,97.7614237 97.7614237,100 95,100 L75,100 C72.2385763,100 70,97.7614237 70,95 L70,75 C70,72.2385763 72.2385763,70 75,70 Z M109,70 L129,70 C131.761424,70 134,72.2385763 134,75 L134,95 C134,97.7614237 131.761424,100 129,100 L109,100 C106.238576,100 104,97.7614237 104,95 L104,75 C104,72.2385763 106.238576,70 109,70 Z M41,104 L61,104 C63.7614237,104 66,106.238576 66,109 L66,129 C66,131.761424 63.7614237,134 61,134 L41,134 C38.2385763,134 36,131.761424 36,129 L36,109 C36,106.238576 38.2385763,104 41,104 Z M75,104 L95,104 C97.7614237,104 100,106.238576 100,109 L100,129 C100,131.761424 97.7614237,134 95,134 L75,134 C72.2385763,134 70,131.761424 70,129 L70,109 C70,106.238576 72.2385763,104 75,104 Z M109,104 L129,104 C131.761424,104 134,106.238576 134,109 L134,129 C134,131.761424 131.761424,134 129,134 L109,134 C106.238576,134 104,131.761424 104,129 L104,109 C104,106.238576 106.238576,104 109,104 Z" id="Rectangle-4" fill="#1B1B1B"></path>
        </g>
    </g>
</svg>