<?xml version="1.0" encoding="UTF-8"?>
<svg width="170px" height="170px" viewBox="0 0 170 170" version="1.1" xmlns="http://www.w3.org/2000/svg" xmlns:xlink="http://www.w3.org/1999/xlink">
    <!-- Generator: Sketch 52.2 (67145) - http://www.bohemiancoding.com/sketch -->
    <title>Btn/xmoma/Pressed/01</title>
    <desc>Created with Sketch.</desc>
    <g id="Make" stroke="none" stroke-width="1" fill="none" fill-rule="evenodd">
        <g id="Btn/xmoma/Pressed/01">
            <rect id="Rectangle" fill="#D8D8D8" opacity="0.01" x="0" y="0" width="170" height="170"></rect>
            <path d="M75.5,56 C73.0147186,56 71,53.9852814 71,51.5 C71,49.0147186 73.0147186,47 75.5,47 C77.9852814,47 80,49.0147186 80,51.5 C80,53.9852814 77.9852814,56 75.5,56 Z M57,78 C54.2385763,78 52,75.7614237 52,73 C52,70.2385763 54.2385763,68 57,68 C59.7614237,68 62,70.2385763 62,73 C62,75.7614237 59.7614237,78 57,78 Z M91,91 C86.581722,91 83,87.418278 83,83 C83,78.581722 86.581722,75 91,75 C95.418278,75 99,78.581722 99,83 C99,87.418278 95.418278,91 91,91 Z M54.5,102 C50.9101491,102 48,99.0898509 48,95.5 C48,91.9101491 50.9101491,89 54.5,89 C58.0898509,89 61,91.9101491 61,95.5 C61,99.0898509 58.0898509,102 54.5,102 Z M66.5,114 C64.5670034,114 63,112.432997 63,110.5 C63,108.567003 64.5670034,107 66.5,107 C68.4329966,107 70,108.567003 70,110.5 C70,112.432997 68.4329966,114 66.5,114 Z M95.5,123 C93.0147186,123 91,120.985281 91,118.5 C91,116.014719 93.0147186,114 95.5,114 C97.9852814,114 100,116.014719 100,118.5 C100,120.985281 97.9852814,123 95.5,123 Z M106,110 C103.238576,110 101,107.761424 101,105 C101,102.238576 103.238576,100 106,100 C108.761424,100 111,102.238576 111,105 C111,107.761424 108.761424,110 106,110 Z M121,92 C119.895431,92 119,91.1045695 119,90 C119,88.8954305 119.895431,88 121,88 C122.104569,88 123,88.8954305 123,90 C123,91.1045695 122.104569,92 121,92 Z M104.5,65 C103.119288,65 102,63.8807119 102,62.5 C102,61.1192881 103.119288,60 104.5,60 C105.880712,60 107,61.1192881 107,62.5 C107,63.8807119 105.880712,65 104.5,65 Z M114.5,73 C113.671573,73 113,72.3284271 113,71.5 C113,70.6715729 113.671573,70 114.5,70 C115.328427,70 116,70.6715729 116,71.5 C116,72.3284271 115.328427,73 114.5,73 Z M54.5,86 C53.6715729,86 53,85.3284271 53,84.5 C53,83.6715729 53.6715729,83 54.5,83 C55.3284271,83 56,83.6715729 56,84.5 C56,85.3284271 55.3284271,86 54.5,86 Z" id="Oval-2" fill="#6A6A6A"></path>
        </g>
    </g>
</svg>