<?xml version="1.0" encoding="UTF-8"?>
<svg width="170px" height="170px" viewBox="0 0 170 170" version="1.1" xmlns="http://www.w3.org/2000/svg" xmlns:xlink="http://www.w3.org/1999/xlink">
    <!-- Generator: Sketch 52.2 (67145) - http://www.bohemiancoding.com/sketch -->
    <title>Btn/splash/Normal/01</title>
    <desc>Created with Sketch.</desc>
    <g id="Make" stroke="none" stroke-width="1" fill="none" fill-rule="evenodd">
        <g id="Btn/splash/Normal/01">
            <rect id="Rectangle" fill="#D8D8D8" opacity="0.01" x="0" y="0" width="170" height="170"></rect>
            <g id="Group-15" transform="translate(39.000000, 40.000000)" fill="#1B1B1B">
                <circle id="Oval" cx="79" cy="74" r="1"></circle>
                <ellipse id="Oval" cx="76" cy="72.5" rx="1" ry="1"></ellipse>
                <circle id="Oval" cx="1" cy="57" r="1"></circle>
                <path d="M29.05364,20.3682607 C29.5443227,20.3682607 28.6677454,17.7963283 29.6681426,16.9237867 C30.6685398,16.0512452 32.4276184,18.1827589 32.8381393,18.1827589 C33.2486603,18.1827589 35.4912753,17.5068007 35.4912753,16.4860626 C35.4912753,15.4653245 35.5324923,14.5991499 36.0542991,14.5991499 C36.5761058,14.5991499 40.6889407,14.1873925 41.3863317,14.5991499 C42.0837227,15.0109074 42.8814771,16.6562886 43.8609982,16.0656495 C44.8405194,15.4750104 43.7436124,15.1796327 44.1472868,15.1796327 C44.5509611,15.1796327 44.4046978,16.3096408 45.3101424,16.0656495 C46.2155869,15.8216582 45.2377684,15.4860466 45.7266777,14.889447 C46.2155869,14.2928474 48.8651314,14.7154602 48.2180859,12.99807 C47.5710404,11.2806799 49.6259375,12.0407755 50.0655372,13.3199627 C50.5051369,14.5991499 49.6916544,16.8371037 51.301461,17.1852488 C52.9112677,17.5333939 55.6653719,17.884435 56.0135171,17.1852488 C56.3616622,16.4860626 56.1162962,14.889447 57.7921629,14.889447 C59.4680296,14.889447 59.6079481,17.4540088 58.4738927,18.718424 C57.3398373,19.9828392 61.8281901,21.7924302 62.7494827,21.7924302 C63.6707753,21.7924302 66.4510427,20.408753 67.4491924,22.2365627 C68.4473422,24.0643725 65.909566,23.1891445 65.909566,24.1668073 C65.909566,25.1444701 68.2488049,27.7507845 70.6634109,27.7507845 C73.078017,27.7507845 74.4224055,28.448409 74.4224055,27.3974355 C74.4224055,26.3464621 75.7889395,25.2397286 76.2934646,26.3185821 C76.7979897,27.3974355 75.7015821,28.2982699 74.4224055,28.2982699 C73.1432289,28.2982699 71.3279299,28.5052016 71.6108605,29.7096185 C71.893791,30.9140353 73.4591162,32.2159693 74.6633265,32.5389645 C75.8675369,32.8619597 75.2944549,34.1212734 74.1188789,34.9451255 C72.9433029,35.7689775 77.1328312,39.2969878 77.1328312,40.4652549 C77.1328312,41.6335221 75.8241566,41.2967233 75.8241566,42.9813056 C75.8241566,44.6658879 78.5268198,44.5054759 78.5268198,46.0717506 C78.5268198,47.6380252 75.3051477,47.4443228 76.2934646,49.1125821 C77.2817815,50.7808414 79.5247651,49.7165357 79.5247651,51.1169127 C79.5247651,52.5172897 77.9721977,51.8731192 77.1328312,53.3221838 C76.2934646,54.7712483 75.3548485,57.2310626 75.8241566,57.9443739 C76.2934646,58.6576852 77.635756,57.6405837 77.635756,58.7643468 C77.635756,59.8881099 76.9849866,61.0738596 75.8241566,60.1315888 C74.6633265,59.189318 73.3054643,61.1579976 73.7121716,63.2240315 C74.1188789,65.2900655 72.5622195,62.5313662 71.8977607,64.0642173 C71.2333018,65.5970683 75.6144815,67.4465905 74.6633265,68.8973416 C73.7121716,70.3480928 72.7549477,67.886851 71.8977607,67.397545 C71.0405736,66.908239 72.0263836,68.7169485 70.6634109,69.4388794 C69.3004382,70.1608102 69.1898781,69.0104733 68.3195352,69.7459496 C67.7393067,70.2362672 67.8514317,70.6394851 68.6559102,70.9556034 C67.289042,71.075438 66.307378,71.4315503 65.7109183,72.0239402 C65.1144585,72.6163301 64.7864476,73.3890872 64.7268857,74.3422115 C63.7977958,73.8089879 63.1386615,73.8089879 62.7494827,74.3422115 C62.1657146,75.1420467 62.3393674,76.6604684 62.3393674,77.5262352 C62.3393674,78.3920019 65.6509253,80.0899037 65.0485514,81.3231218 C64.4461775,82.55634 63.159598,81.4936113 62.7494827,80.758542 C62.3393674,80.0234728 62.039013,78.3257375 61.7489811,77.9259863 C61.4589493,77.5262352 60.2956584,75.7612365 59.747395,77.9259863 C59.1991316,80.0907362 58.3669677,79.3128781 57.7921629,78.6194322 C57.2173582,77.9259863 56.2622169,76.7532054 55.2757097,78.1572459 C54.2892026,79.5612865 55.512177,81.3202915 53.406819,81.7949647 C51.301461,82.269638 52.6329568,79.5975821 51.5177826,79.5975821 C50.4026084,79.5975821 49.4136364,78.1152896 49.1339271,79.5975821 C48.9474543,80.5857772 48.8027714,81.1609571 48.6998783,81.3231218 C47.3404588,83.2380203 46.3493919,84.0681019 45.7266777,83.8133667 C44.7926064,83.4312639 45.4401,80.758542 44.9684236,80.758542 C44.4967472,80.758542 43.1401574,80.1939622 42.7602189,80.758542 C42.3802805,81.3231218 41.7594259,83.2168201 40.0735116,83.2168201 C38.3875974,83.2168201 39.0727186,80.851279 38.2916971,81.3231218 C37.5106756,81.7949647 37.3773142,82.333405 37.0544831,81.3231218 C36.731652,80.3128386 38.5369422,79.5975821 37.7957126,79.5975821 C37.0544831,79.5975821 35.8422446,79.4287576 35.4912753,79.8126919 C35.1403061,80.1966261 35.3183475,81.5267435 34.0782434,81.3231218 C32.8381393,81.1195002 33.8079049,78.3885056 32.8381393,78.1572459 C31.8683738,77.9259863 29.3313442,80.6409975 27.4071776,79.8126919 C25.483011,78.9843862 26.9181859,76.0762424 26.4583306,76.0762424 C26.1517603,76.0762424 25.4804026,76.1986152 24.4442574,76.4433608 L23.9765769,73.0886811 C22.0484699,73.7985084 20.8845686,73.7985084 20.484873,73.0886811 C19.8853295,72.0239402 21.0844165,71.9786682 20.484873,71.6628299 C19.8853295,71.3469915 18.1188324,73.3685925 17.3448036,72.0239402 C16.5707748,70.679288 20.0616463,69.3036155 18.9546303,67.9806573 C17.8476143,66.6576991 16.1030943,68.7015746 14.7201984,67.6796369 C13.3373025,66.6576991 14.6312908,65.4662709 15.4570991,64.9714519 C16.2829074,64.4766329 14.7220298,61.322911 12.6320356,61.322911 C10.5420414,61.322911 10.5873276,60.6018272 10.5646845,59.7911698 C10.5420414,58.9805125 13.0289564,59.1277616 12.6320356,57.9443739 C12.2351149,56.7609862 11.3891608,57.5400098 10.8080982,57.5400098 C10.2270355,57.5400098 10.0613743,55.5352603 8.55477371,55.5352603 C7.04817307,55.5352603 8.47835314,53.6940075 10.1511144,54.2292845 C11.8238756,54.7645614 12.7986957,48.3577729 11.4749051,48.1434437 C10.1511144,47.9291146 9.35658519,47.5878545 9.12434833,48.1434437 C8.89211147,48.6990329 5.6935811,50.7531892 5.06390228,49.1125821 C4.43422347,47.471975 8.65987462,46.9785398 8.89211147,47.4538272 C9.12434833,47.9291146 10.8080982,46.9688445 10.8080982,46.5202976 C10.8080982,46.0717506 12.5114942,44.5475148 12.1180698,43.5999997 C11.7246455,42.6524846 9.87556748,43.4616435 9.87556748,41.7492568 C9.87556748,40.0368701 12.4438456,41.1337299 13.1679785,39.9874215 C13.8921115,38.841113 13.7891662,35.4216673 12.6320356,34.7110726 C11.4749051,34.0004779 13.4804251,34.6173367 13.8921115,33.2672401 C14.3037979,31.9171434 13.7894992,30.3382708 14.7201984,30.0239446 C15.6508977,29.7096185 18.9546303,27.4752131 18.9546303,25.575402 C18.9546303,23.6755909 18.3559193,23.1220132 18.9546303,22.679288 C19.5533413,22.2365627 22.254367,24.4284764 23.5761598,24.1668073 C24.8979525,23.9051382 25.4295666,22.6656185 25.4295666,21.7924302 C25.4295666,20.9192418 24.7602623,19.4532656 25.9145625,18.9512874 C27.0688626,18.4493092 28.5629574,20.3682607 29.05364,20.3682607 Z" id="Path-2"></path>
                <circle id="Oval" cx="52.5" cy="15.5" r="1"></circle>
                <ellipse id="Oval" cx="33.5" cy="1" rx="1" ry="1"></ellipse>
                <circle id="Oval-Copy-13" cx="32.5" cy="2.5" r="1"></circle>
                <path d="M10.5773243,26 C10.5773243,27.0200515 11.6889878,29.2595906 12.7315606,29.2595906 C13.7741334,29.2595906 14.5203434,28.7681739 13.3756497,27.6297953 C12.230956,26.4914166 10.5773243,24.9799485 10.5773243,26 Z" id="Path-3"></path>
                <path d="M12.7240193,65.2047745 C12.2780521,65.3116937 9.34965959,66.4137668 9.60869373,67.5941997 C9.86772788,68.7746326 10.8522695,67.8003676 12.2924782,66.9394631 C13.7326868,66.0785586 14.4568613,66.1558132 13.9511885,65.4828542 C13.4455157,64.8098951 13.1699864,65.0978553 12.7240193,65.2047745 Z" id="Path-5"></path>
                <circle id="Oval" cx="9.5" cy="69.5" r="1"></circle>
                <circle id="Oval-Copy-16" cx="50.5" cy="83.5" r="1"></circle>
                <circle id="Oval-Copy-17" cx="66.5" cy="88.5" r="1"></circle>
                <circle id="Oval-Copy-18" cx="91.5" cy="60.5" r="1"></circle>
                <circle id="Oval-Copy-19" cx="82.5" cy="46.5" r="1"></circle>
                <circle id="Oval-Copy-15" cx="6" cy="80" r="1"></circle>
                <circle id="Oval-Copy-14" cx="8.5" cy="58.5" r="1"></circle>
                <path d="M6.01461331,63.6781682 C6.10524607,62.9370515 8.57262607,63.3826424 8.84870461,64.0113163 C9.12478315,64.6399902 5.92398055,64.4192849 6.01461331,63.6781682 Z" id="Path-7"></path>
                <path d="M11.2347716,64.2419692 C10.97934,63.7239504 13.0305476,62.8001393 13.2649606,63.2038238 C13.4993737,63.6075084 11.4902032,64.7599881 11.2347716,64.2419692 Z" id="Path-8"></path>
                <path d="M71.546168,82.057262 C71.3035742,82.485051 72.1569551,83.605102 72.5608509,83.2286696 C72.9647467,82.8522373 71.7887618,81.629473 71.546168,82.057262 Z" id="Path-9"></path>
                <path d="M84.671209,43.7675391 C84.671209,44.0388411 85.3013849,44.8302127 85.5157971,44.5919921 C85.7302093,44.3537714 84.671209,43.4962371 84.671209,43.7675391 Z" id="Path-10"></path>
            </g>
        </g>
    </g>
</svg>