<?xml version="1.0" encoding="UTF-8"?>
<svg width="170px" height="170px" viewBox="0 0 170 170" version="1.1" xmlns="http://www.w3.org/2000/svg" xmlns:xlink="http://www.w3.org/1999/xlink">
    <!-- Generator: Sketch 52.2 (67145) - http://www.bohemiancoding.com/sketch -->
    <title>Btn/Glitch/Pressed/01</title>
    <desc>Created with Sketch.</desc>
    <g id="Make" stroke="none" stroke-width="1" fill="none" fill-rule="evenodd">
        <g id="Btn/Glitch/Pressed/01">
            <rect id="Rectangle" fill="#D8D8D8" opacity="0.01" x="0" y="0" width="170" height="170"></rect>
            <g id="Group-25" transform="translate(34.000000, 37.000000)" fill="#6A6A6A">
                <path d="M76.9732895,89 L27.0267105,89 L76.9732895,89 Z M81.3295543,86 L22.6704457,86 L81.3295543,86 Z M19.1516453,83 C14.1265766,78.2819925 10.1178545,72.4941181 7.48910228,66 L96.5108977,66 C93.8821455,72.4941181 89.8734234,78.2819925 84.8483547,83 L19.1516453,83 Z M98.7336835,59 L5.26631648,59 L98.7336835,59 Z M99.4932514,55 L4.50674861,55 L99.4932514,55 Z M99.9897902,47 L4.01020981,47 L99.9897902,47 Z M99.9077735,45 L4.09222648,45 L99.9077735,45 Z M99.4932514,41 L4.50674861,41 L99.4932514,41 Z M5.51220991,35.9999997 C5.59837131,35.6652392 5.68805325,35.331892 5.78121392,35 L98.2187861,35 C98.3119467,35.331892 98.4016287,35.6652392 98.4877901,35.9999997 L5.51220781,36 Z M91.6919212,21 L12.3080788,21 L91.6919212,21 Z M85.8821493,14 L18.1178507,14 L85.8821493,14 Z M83.7498927,12 L20.2501073,12 L83.7498927,12 Z M78.542361,8 L25.457639,8 L78.542361,8 Z M28.7439597,5.99999847 C35.6334578,2.17702184 43.5624935,0 52,0 C60.4375065,0 68.3665422,2.17702184 75.2560403,5.99999847 L28.743957,6 Z" id="Oval-5"></path>
                <path d="M24.0267105,89 L73.9732895,89 C66.6977082,93.4410767 58.1476884,96 49,96 C39.8523116,96 31.3022918,93.4410767 24.0267105,89 Z" id="Oval-5"></path>
                <path d="M30.0267105,89 C28.5177929,88.0789439 27.0636923,87.0769315 25.6704457,86 L84.3295543,86 C82.9363077,87.0769315 81.4822071,88.0789439 79.9732895,89 L30.0267105,89 Z" id="Oval-5"></path>
                <path d="M15.6704457,86 C14.4494181,85.0561878 13.2751301,84.0548332 12.1516453,83 L77.8483547,83 C76.7248699,84.0548332 75.5505819,85.0561878 74.3295543,86 L15.6704457,86 Z" id="Oval-5"></path>
                <path d="M2.48910257,66.0000007 C1.5769631,63.7466346 0.830970738,61.4082373 0.266316478,59 L93.7336835,59 C93.1690293,61.4082373 92.4230369,63.7466346 91.5108974,66.0000007 L2.48909766,66 Z" id="Oval-5"></path>
                <path d="M17.2663165,59 C16.9583706,57.6866178 16.7043599,56.3524631 16.5067486,55 L111.493251,55 C111.29564,56.3524631 111.041629,57.6866178 110.733684,59 L17.2663165,59 Z" id="Oval-5"></path>
                <path d="M5.50674861,55 C5.17287754,52.7149671 5,50.3776724 5,48 C5,47.6658582 5.00341426,47.3325139 5.01020978,47 L100.98979,47 C100.996586,47.3325139 101,47.6658582 101,48 C101,50.3776724 100.827122,52.7149671 100.493251,55 L5.50674861,55 Z" id="Oval-5"></path>
                <path d="M2.01020978,47 C2.0239051,46.3298705 2.05133382,45.6631138 2.09222595,45 L97.907774,45 C97.9486662,45.6631138 97.9760949,46.3298705 97.9897902,47 L2.01020978,47 Z" id="Oval-5"></path>
                <path d="M7.09222595,45 C7.17542507,43.6508287 7.31435728,42.3167374 7.50674861,41 L102.493251,41 C102.685643,42.3167374 102.824575,43.6508287 102.907774,45 L7.09222595,45 Z" id="Oval-5"></path>
                <path d="M0.50674861,41 C0.754718188,39.3028818 1.09149486,37.6345922 1.51220982,36 L94.4877902,36 C94.9085051,37.6345922 95.2452818,39.3028818 95.4932514,41 L0.50674861,41 Z" id="Oval-5"></path>
                <path d="M4.78121392,35 C6.19962365,29.9468067 8.42444722,25.2309381 11.3080788,21 L90.6919212,21 C93.5755528,25.2309381 95.8003764,29.9468067 97.2187861,35 L4.78121392,35 Z" id="Oval-5"></path>
                <path d="M14.3080788,21 C16.0222119,18.48498 17.9691372,16.141312 20.1178507,14 L87.8821493,14 C90.0308628,16.141312 91.9777881,18.48498 93.6919212,21 L14.3080788,21 Z" id="Oval-5"></path>
                <path d="M25.1178507,14 C25.8081209,13.3121075 26.5192157,12.6450982 27.2501073,12 L90.7498927,12 C91.4807843,12.6450982 92.1918791,13.3121075 92.8821493,14 L25.1178507,14 Z" id="Oval-5"></path>
                <path d="M19.2501073,12 C20.890145,10.5524728 22.6298599,9.21526846 24.457639,8 L77.542361,8 C79.3701401,9.21526846 81.109855,10.5524728 82.7498927,12 L19.2501073,12 Z" id="Oval-5"></path>
                <path d="M19.457639,8 C20.5238794,7.29106951 21.6200881,6.62363389 22.7439597,5.99999847 L69.256043,6 C70.3799119,6.62363389 71.4761206,7.29106951 72.542361,8 L19.457639,8 Z" id="Oval-4"></path>
            </g>
        </g>
    </g>
</svg>