<?xml version="1.0" encoding="UTF-8"?>
<svg width="170px" height="170px" viewBox="0 0 170 170" version="1.1" xmlns="http://www.w3.org/2000/svg" xmlns:xlink="http://www.w3.org/1999/xlink">
    <!-- Generator: Sketch 52.2 (67145) - http://www.bohemiancoding.com/sketch -->
    <title>Btn/xmoma/Normal/02</title>
    <desc>Created with Sketch.</desc>
    <g id="Make" stroke="none" stroke-width="1" fill="none" fill-rule="evenodd">
        <g id="Btn/xmoma/Normal/02">
            <rect id="Rectangle" fill="#D8D8D8" opacity="0.01" x="0" y="0" width="170" height="170"></rect>
            <path d="M93.0672648,63.9437174 C92.7166024,63.9809209 92.3605293,64 92,64 C86.4771525,64 82,59.5228475 82,54 C82,48.4771525 86.4771525,44 92,44 C97.5228475,44 102,48.4771525 102,54 C102,56.7293563 100.906557,59.2033253 99.1338321,61.007745 C99.2552463,61.002599 99.3773196,61 99.5,61 C102.182256,61 104.574337,62.2423881 106.132175,64.1830975 C107.279219,62.8301705 108.81887,61.8206278 110.575166,61.3304325 C110.207909,60.6345566 110,59.8415582 110,59 C110,56.2385763 112.238576,54 115,54 C117.761424,54 120,56.2385763 120,59 C120,60.4876133 119.35034,61.8234904 118.319259,62.7393938 C120.551123,64.3772668 122,67.0194318 122,70 C122,74.9705627 117.970563,79 113,79 C111.416987,79 109.929431,78.5913023 108.637091,77.8736673 C108.362172,78.5533981 107.942134,79.1588973 107.415387,79.6517538 C107.788523,80.3518975 108,81.1512522 108,82 C108,84.6352853 105.961264,86.7943983 103.374979,86.9861508 C103.782099,88.4207517 104,89.934929 104,91.5 C104,92.795475 103.850703,94.0560799 103.568377,95.2655476 C104.760443,93.8784949 106.52763,93 108.5,93 C109.798663,93 111.008373,93.380851 112.023533,94.0369559 C112.255336,91.7692167 114.171057,90 116.5,90 C118.985281,90 121,92.0147186 121,94.5 C121,96.0645231 120.201588,97.442567 118.989984,98.2489104 C120.217246,99.2576212 121,100.7874 121,102.5 C121,105.537566 118.537566,108 115.5,108 C113.585107,108 111.898777,107.021407 110.913832,105.537044 C110.239835,105.806776 109.510139,105.966908 108.74678,105.995402 C108.912074,106.636026 109,107.307745 109,108 C109,111.35773 106.931397,114.232311 103.999078,115.418856 C103.999692,115.44583 104,115.472879 104,115.5 C104,117.432997 102.432997,119 100.5,119 C98.5670034,119 97,117.432997 97,115.5 C97,115.314285 97.0144644,115.131949 97.0423281,114.954056 C96.6033996,114.703715 96.1904695,114.413017 95.8085906,114.087013 C94.5545252,115.272855 92.8621795,116 91,116 C88.5064326,116 86.3173903,114.696173 85.0774233,112.733069 C83.8671858,115.022781 81.5783353,116.65438 78.8873997,116.951339 C80.7542315,118.093458 82,120.151246 82,122.5 C82,125.954697 79.3048544,128.779908 75.9024537,128.987744 C75.4439308,131.276088 73.423286,133 71,133 C68.2385763,133 66,130.761424 66,128 C66,125.926368 67.2623186,124.147567 69.0604413,123.390111 C69.0205895,123.099101 69,122.801955 69,122.5 C69,119.312286 71.2946754,116.660521 74.322314,116.106419 C71.7544856,114.774823 70,112.092303 70,109 C70,105.804854 71.8731268,103.047201 74.581179,101.76524 C73.9355636,100.953814 73.3647873,100.080182 72.8792922,99.1547863 C71.9624807,100.280778 70.565232,101 69,101 C67.8488081,101 66.7884828,100.610954 65.9433303,99.9571674 C65.4703378,103.924194 62.0943655,107 58,107 C55.4548742,107 53.1873407,105.811486 51.7221312,103.95919 C50.8747327,106.871628 48.1859203,109 45,109 C41.1340068,109 38,105.865993 38,102 C38,99.4124759 39.4039336,97.152858 41.4916116,95.9413356 C41.173031,95.019625 41,94.0300193 41,93 C41,88.0294373 45.0294373,84 50,84 C54.2967279,84 57.8902019,87.0109877 58.7855365,91.0380774 C61.0536118,91.2591225 63.0441663,92.4272936 64.3566048,94.141996 C65.0369334,92.4433085 66.6223858,91.2048368 68.5164626,91.0230805 C66.9367294,88.9299891 66,86.324387 66,83.5 C66,80.9222313 66.7802857,78.5267082 68.1175507,76.5367369 C66.2025427,74.7987452 65,72.289807 65,69.5 C65,66.9411921 66.0116436,64.6186662 67.6567886,62.9105646 C62.7691082,62.2543894 59,58.0673559 59,53 C59,47.4771525 63.4771525,43 69,43 C70.4261296,43 71.7825329,43.298534 73.0101263,43.8365185 C73.0034078,43.7252064 73,43.6130012 73,43.5 C73,40.4624339 75.4624339,38 78.5,38 C81.5375661,38 84,40.4624339 84,43.5 C84,46.5375661 81.5375661,49 78.5,49 C78.3869988,49 78.2747936,48.9965922 78.1634815,48.9898737 C78.701466,50.2174671 79,51.5738704 79,53 C79,55.7869433 77.8599286,58.3076087 76.02072,60.1210618 C80.5445339,60.848895 84,64.7709138 84,69.5 C84,70.4022258 83.8742284,71.2750761 83.6392614,72.1019745 C84.7276171,72.5934728 85.7329865,73.2362738 86.6285528,74.0035607 C87.9491556,73.3606735 89.4324579,73 91,73 C91.2573326,73 91.512395,73.00972 91.76484,73.0288128 C91.273699,71.9539723 91,70.7589491 91,69.5 C91,67.3758526 91.7791591,65.4336875 93.0672648,63.9437174 Z M101.630264,100.024462 C101.762508,100.034769 101.89385,100.048291 102.024211,100.06495 C102.008181,99.878766 102,99.6903384 102,99.5 C102,99.4594241 102.000372,99.4189351 102.001112,99.3785362 C101.882236,99.5968748 101.758573,99.8122305 101.630264,100.024462 Z M123.788767,85.2864136 C122.123458,84.3410782 121,82.551738 121,80.5 C121,77.4624339 123.462434,75 126.5,75 C129.537566,75 132,77.4624339 132,80.5 C132,82.551738 130.876542,84.3410782 129.211233,85.2864136 C129.704253,85.8895508 130,86.6602377 130,87.5 C130,89.4329966 128.432997,91 126.5,91 C124.567003,91 123,89.4329966 123,87.5 C123,86.6602377 123.295747,85.8895508 123.788767,85.2864136 Z M55.974028,63.3506589 C56.606911,63.123665 57.2890137,63 58,63 C61.3137085,63 64,65.6862915 64,69 C64,72.3137085 61.3137085,75 58,75 C55.3021765,75 53.0202203,73.2194605 52.2651659,70.7694162 C51.9906135,70.9427654 51.7047823,71.0998732 51.4090219,71.2393902 C52.4000866,72.3803014 53,73.870092 53,75.5 C53,79.0898509 50.0898509,82 46.5,82 C42.9101491,82 40,79.0898509 40,75.5 C40,73.2635567 41.1294791,71.2909174 42.8491299,70.1213895 C41.1069217,68.6538852 40,66.4562103 40,64 C40,59.581722 43.581722,56 48,56 C52.1996722,56 55.6435221,59.2360602 55.974028,63.3506589 Z M55,54 C53.3431458,54 52,52.6568542 52,51 C52,49.3431458 53.3431458,48 55,48 C56.6568542,48 58,49.3431458 58,51 C58,52.6568542 56.6568542,54 55,54 Z M57.5,122 C54.4624339,122 52,119.537566 52,116.5 C52,113.462434 54.4624339,111 57.5,111 C60.5375661,111 63,113.462434 63,116.5 C63,119.537566 60.5375661,122 57.5,122 Z M89,131 C86.2385763,131 84,128.761424 84,126 C84,123.238576 86.2385763,121 89,121 C91.7614237,121 94,123.238576 94,126 C94,128.761424 91.7614237,131 89,131 Z" id="Oval-6" fill="#1B1B1B"></path>
        </g>
    </g>
</svg>