<?xml version="1.0" encoding="UTF-8"?>
<svg width="170px" height="170px" viewBox="0 0 170 170" version="1.1" xmlns="http://www.w3.org/2000/svg" xmlns:xlink="http://www.w3.org/1999/xlink">
    <!-- Generator: Sketch 52.2 (67145) - http://www.bohemiancoding.com/sketch -->
    <title>Btn/Moma/Normal/02</title>
    <desc>Created with Sketch.</desc>
    <g id="Make" stroke="none" stroke-width="1" fill="none" fill-rule="evenodd">
        <g id="Btn/Moma/Normal/02">
            <rect id="Rectangle" fill="#D8D8D8" opacity="0.01" x="0" y="0" width="170" height="170"></rect>
            <path d="M77,126 L68,126 L68,101 L77,101 L77,82 L102,82 L102,126 L77,126 Z M131,79 L131,98 L105,98 L105,79 L77,79 L77,53 L131,53 L131,79 Z M74,50 L74,60 L49,60 L49,50 L49,44 L121,44 L121,50 L74,50 Z M39,63 L74,63 L74,98 L39,98 L39,63 Z" id="Rectangle-9" fill="#1B1B1B"></path>
        </g>
    </g>
</svg>