<?xml version="1.0" encoding="UTF-8"?>
<svg width="170px" height="170px" viewBox="0 0 170 170" version="1.1" xmlns="http://www.w3.org/2000/svg" xmlns:xlink="http://www.w3.org/1999/xlink">
    <!-- Generator: Sketch 52.2 (67145) - http://www.bohemiancoding.com/sketch -->
    <title>Btn/mosaic/Normal/02</title>
    <desc>Created with Sketch.</desc>
    <g id="Make" stroke="none" stroke-width="1" fill="none" fill-rule="evenodd">
        <g id="Btn/mosaic/Normal/02">
            <rect id="Rectangle" fill="#D8D8D8" opacity="0.01" x="0" y="0" width="170" height="170"></rect>
            <path d="M59,36 L71,36 C72.6568542,36 74,37.3431458 74,39 L74,51 C74,52.6568542 72.6568542,54 71,54 L59,54 C57.3431458,54 56,52.6568542 56,51 L56,39 C56,37.3431458 57.3431458,36 59,36 Z M79,36 L91,36 C92.6568542,36 94,37.3431458 94,39 L94,51 C94,52.6568542 92.6568542,54 91,54 L79,54 C77.3431458,54 76,52.6568542 76,51 L76,39 C76,37.3431458 77.3431458,36 79,36 Z M99,36 L111,36 C112.656854,36 114,37.3431458 114,39 L114,51 C114,52.6568542 112.656854,54 111,54 L99,54 C97.3431458,54 96,52.6568542 96,51 L96,39 C96,37.3431458 97.3431458,36 99,36 Z M39,56 L51,56 C52.6568542,56 54,57.3431458 54,59 L54,71 C54,72.6568542 52.6568542,74 51,74 L39,74 C37.3431458,74 36,72.6568542 36,71 L36,59 C36,57.3431458 37.3431458,56 39,56 Z M59,56 L71,56 C72.6568542,56 74,57.3431458 74,59 L74,71 C74,72.6568542 72.6568542,74 71,74 L59,74 C57.3431458,74 56,72.6568542 56,71 L56,59 C56,57.3431458 57.3431458,56 59,56 Z M79,56 L91,56 C92.6568542,56 94,57.3431458 94,59 L94,71 C94,72.6568542 92.6568542,74 91,74 L79,74 C77.3431458,74 76,72.6568542 76,71 L76,59 C76,57.3431458 77.3431458,56 79,56 Z M99,56 L111,56 C112.656854,56 114,57.3431458 114,59 L114,71 C114,72.6568542 112.656854,74 111,74 L99,74 C97.3431458,74 96,72.6568542 96,71 L96,59 C96,57.3431458 97.3431458,56 99,56 Z M119,56 L131,56 C132.656854,56 134,57.3431458 134,59 L134,71 C134,72.6568542 132.656854,74 131,74 L119,74 C117.343146,74 116,72.6568542 116,71 L116,59 C116,57.3431458 117.343146,56 119,56 Z M39,76 L51,76 C52.6568542,76 54,77.3431458 54,79 L54,91 C54,92.6568542 52.6568542,94 51,94 L39,94 C37.3431458,94 36,92.6568542 36,91 L36,79 C36,77.3431458 37.3431458,76 39,76 Z M59,76 L71,76 C72.6568542,76 74,77.3431458 74,79 L74,91 C74,92.6568542 72.6568542,94 71,94 L59,94 C57.3431458,94 56,92.6568542 56,91 L56,79 C56,77.3431458 57.3431458,76 59,76 Z M79,76 L91,76 C92.6568542,76 94,77.3431458 94,79 L94,91 C94,92.6568542 92.6568542,94 91,94 L79,94 C77.3431458,94 76,92.6568542 76,91 L76,79 C76,77.3431458 77.3431458,76 79,76 Z M99,76 L111,76 C112.656854,76 114,77.3431458 114,79 L114,91 C114,92.6568542 112.656854,94 111,94 L99,94 C97.3431458,94 96,92.6568542 96,91 L96,79 C96,77.3431458 97.3431458,76 99,76 Z M119,76 L131,76 C132.656854,76 134,77.3431458 134,79 L134,91 C134,92.6568542 132.656854,94 131,94 L119,94 C117.343146,94 116,92.6568542 116,91 L116,79 C116,77.3431458 117.343146,76 119,76 Z M39,96 L51,96 C52.6568542,96 54,97.3431458 54,99 L54,111 C54,112.656854 52.6568542,114 51,114 L39,114 C37.3431458,114 36,112.656854 36,111 L36,99 C36,97.3431458 37.3431458,96 39,96 Z M59,96 L71,96 C72.6568542,96 74,97.3431458 74,99 L74,111 C74,112.656854 72.6568542,114 71,114 L59,114 C57.3431458,114 56,112.656854 56,111 L56,99 C56,97.3431458 57.3431458,96 59,96 Z M79,96 L91,96 C92.6568542,96 94,97.3431458 94,99 L94,111 C94,112.656854 92.6568542,114 91,114 L79,114 C77.3431458,114 76,112.656854 76,111 L76,99 C76,97.3431458 77.3431458,96 79,96 Z M99,96 L111,96 C112.656854,96 114,97.3431458 114,99 L114,111 C114,112.656854 112.656854,114 111,114 L99,114 C97.3431458,114 96,112.656854 96,111 L96,99 C96,97.3431458 97.3431458,96 99,96 Z M59,116 L71,116 C72.6568542,116 74,117.343146 74,119 L74,131 C74,132.656854 72.6568542,134 71,134 L59,134 C57.3431458,134 56,132.656854 56,131 L56,119 C56,117.343146 57.3431458,116 59,116 Z M79,116 L91,116 C92.6568542,116 94,117.343146 94,119 L94,131 C94,132.656854 92.6568542,134 91,134 L79,134 C77.3431458,134 76,132.656854 76,131 L76,119 C76,117.343146 77.3431458,116 79,116 Z M99,116 L111,116 C112.656854,116 114,117.343146 114,119 L114,131 C114,132.656854 112.656854,134 111,134 L99,134 C97.3431458,134 96,132.656854 96,131 L96,119 C96,117.343146 97.3431458,116 99,116 Z M119,96 L131,96 C132.656854,96 134,97.3431458 134,99 L134,111 C134,112.656854 132.656854,114 131,114 L119,114 C117.343146,114 116,112.656854 116,111 L116,99 C116,97.3431458 117.343146,96 119,96 Z" id="Rectangle-5" fill="#1B1B1B"></path>
        </g>
    </g>
</svg>