<?xml version="1.0" encoding="UTF-8"?>
<svg width="170px" height="170px" viewBox="0 0 170 170" version="1.1" xmlns="http://www.w3.org/2000/svg" xmlns:xlink="http://www.w3.org/1999/xlink">
    <!-- Generator: Sketch 52.2 (67145) - http://www.bohemiancoding.com/sketch -->
    <title>Btn/layout/Pressed/02</title>
    <desc>Created with Sketch.</desc>
    <g id="Make" stroke="none" stroke-width="1" fill="none" fill-rule="evenodd">
        <g id="Btn/layout/Pressed/02">
            <rect id="Rectangle" fill="#D8D8D8" opacity="0.01" x="0" y="0" width="170" height="170"></rect>
            <path d="M80,80 C67.8497355,80 58,70.1502645 58,58 C58,45.8497355 67.8497355,36 80,36 C92.1502645,36 102,45.8497355 102,58 C102,70.1502645 92.1502645,80 80,80 Z M46.5,84 C40.7010101,84 36,79.2989899 36,73.5 C36,67.7010101 40.7010101,63 46.5,63 C52.2989899,63 57,67.7010101 57,73.5 C57,79.2989899 52.2989899,84 46.5,84 Z M63.5,101 C57.7010101,101 53,96.2989899 53,90.5 C53,84.7010101 57.7010101,80 63.5,80 C69.2989899,80 74,84.7010101 74,90.5 C74,96.2989899 69.2989899,101 63.5,101 Z M80.5,118 C74.7010101,118 70,113.29899 70,107.5 C70,101.70101 74.7010101,97 80.5,97 C86.2989899,97 91,101.70101 91,107.5 C91,113.29899 86.2989899,118 80.5,118 Z M97.5,135 C91.7010101,135 87,130.29899 87,124.5 C87,118.70101 91.7010101,114 97.5,114 C103.29899,114 108,118.70101 108,124.5 C108,130.29899 103.29899,135 97.5,135 Z M113,113 C100.849736,113 91,103.150264 91,91 C91,78.8497355 100.849736,69 113,69 C125.150264,69 135,78.8497355 135,91 C135,103.150264 125.150264,113 113,113 Z" id="Oval-8" fill="#6A6A6A"></path>
        </g>
    </g>
</svg>