<?xml version="1.0" encoding="UTF-8"?>
<svg width="170px" height="170px" viewBox="0 0 170 170" version="1.1" xmlns="http://www.w3.org/2000/svg" xmlns:xlink="http://www.w3.org/1999/xlink">
    <!-- Generator: Sketch 52.2 (67145) - http://www.bohemiancoding.com/sketch -->
    <title>Btn/Glitch/Pressed/02</title>
    <desc>Created with Sketch.</desc>
    <g id="Make" stroke="none" stroke-width="1" fill="none" fill-rule="evenodd">
        <g id="Btn/Glitch/Pressed/02">
            <rect id="Rectangle" fill="#D8D8D8" opacity="0.01" x="0" y="0" width="170" height="170"></rect>
            <g id="Group-25" transform="translate(0.000000, 37.000000)" fill="#6A6A6A">
                <path d="M39.4891023,66 L128.510898,66 L39.4891023,66 Z M116.848355,83 L51.1516453,83 L116.848355,83 Z M108.97329,89 L59.0267105,89 L108.97329,89 Z M113.329554,86 L54.6704457,86 L113.329554,86 Z M130.733684,59 L37.2663165,59 L130.733684,59 Z M131.493251,55 L36.5067486,55 L131.493251,55 Z M131.98979,47 L36.0102098,47 L131.98979,47 Z M131.907774,45 L36.0922265,45 L131.907774,45 Z M131.493251,41 L36.5067486,41 L131.493251,41 Z M37.5122099,35.9999997 C37.5983713,35.6652392 37.6880533,35.331892 37.7812139,35 L130.218786,35 C130.311947,35.331892 130.401629,35.6652392 130.48779,35.9999997 L37.5122078,36 Z M123.691921,21 L44.3080788,21 L123.691921,21 Z M117.882149,14 L50.1178507,14 L117.882149,14 Z M115.749893,12 L52.2501073,12 L115.749893,12 Z M110.542361,8 L57.457639,8 L110.542361,8 Z M60.7439597,5.99999847 C67.6334578,2.17702184 75.5624935,0 84,0 C92.4375065,0 100.366542,2.17702184 107.25604,5.99999847 L60.743957,6 Z" id="Oval-5"></path>
                <path d="M44.1516453,83 C39.1265767,78.2819927 35.1178548,72.4941185 32.4891026,66.0000007 L121.510902,66 C118.882145,72.4941185 114.873423,78.2819927 109.848355,83 L44.1516453,83 Z" id="Oval-5"></path>
                <path d="M60.0267105,89 L109.97329,89 C102.697708,93.4410767 94.1476884,96 85,96 C75.8523116,96 67.3022918,93.4410767 60.0267105,89 Z" id="Oval-5"></path>
                <path d="M29.0267105,89 C27.5177929,88.0789439 26.0636923,87.0769315 24.6704457,86 L83.3295543,86 C81.9363077,87.0769315 80.4822071,88.0789439 78.9732895,89 L29.0267105,89 Z" id="Oval-5"></path>
                <path d="M55.6704457,86 C54.4494181,85.0561878 53.2751301,84.0548332 52.1516453,83 L117.848355,83 C116.72487,84.0548332 115.550582,85.0561878 114.329554,86 L55.6704457,86 Z" id="Oval-5"></path>
                <path d="M41.4891026,66.0000007 C40.5769631,63.7466346 39.8309707,61.4082373 39.2663165,59 L132.733684,59 C132.169029,61.4082373 131.423037,63.7466346 130.510897,66.0000007 L41.4890977,66 Z" id="Oval-5"></path>
                <path d="M62.2663165,59 C61.9583706,57.6866178 61.7043599,56.3524631 61.5067486,55 L156.493251,55 C156.29564,56.3524631 156.041629,57.6866178 155.733684,59 L62.2663165,59 Z" id="Oval-5"></path>
                <path d="M37.5067486,55 C37.1728775,52.7149671 37,50.3776724 37,48 C37,47.6658582 37.0034143,47.3325139 37.0102098,47 L132.98979,47 C132.996586,47.3325139 133,47.6658582 133,48 C133,50.3776724 132.827122,52.7149671 132.493251,55 L37.5067486,55 Z" id="Oval-5"></path>
                <path d="M0.0102097844,47 C0.0239051042,46.3298705 0.0513338232,45.6631138 0.0922259523,45 L95.907774,45 C95.9486662,45.6631138 95.9760949,46.3298705 95.9897902,47 L0.0102097844,47 Z" id="Oval-5"></path>
                <path d="M38.092226,45 C38.1754251,43.6508287 38.3143573,42.3167374 38.5067486,41 L133.493251,41 C133.685643,42.3167374 133.824575,43.6508287 133.907774,45 L38.092226,45 Z" id="Oval-5"></path>
                <path d="M54.5067486,41 C54.7547182,39.3028818 55.0914949,37.6345922 55.5122098,36 L148.48779,36 C148.908505,37.6345922 149.245282,39.3028818 149.493251,41 L54.5067486,41 Z" id="Oval-5"></path>
                <path d="M26.7812139,35 C28.1996236,29.9468067 30.4244472,25.2309381 33.3080788,21 L112.691921,21 C115.575553,25.2309381 117.800376,29.9468067 119.218786,35 L26.7812139,35 Z" id="Oval-5"></path>
                <path d="M46.3080788,21 C48.0222119,18.48498 49.9691372,16.141312 52.1178507,14 L119.882149,14 C122.030863,16.141312 123.977788,18.48498 125.691921,21 L46.3080788,21 Z" id="Oval-5"></path>
                <path d="M69.1178507,14 C69.8081209,13.3121075 70.5192157,12.6450982 71.2501073,12 L134.749893,12 C135.480784,12.6450982 136.191879,13.3121075 136.882149,14 L69.1178507,14 Z" id="Oval-5"></path>
                <path d="M54.2501073,12 C55.890145,10.5524728 57.6298599,9.21526846 59.457639,8 L112.542361,8 C114.37014,9.21526846 116.109855,10.5524728 117.749893,12 L54.2501073,12 Z" id="Oval-5"></path>
                <path d="M30.457639,8 C31.5238794,7.29106951 32.6200881,6.62363389 33.7439597,5.99999847 L80.256043,6 C81.3799119,6.62363389 82.4761206,7.29106951 83.542361,8 L30.457639,8 Z" id="Oval-4"></path>
            </g>
        </g>
    </g>
</svg>