<?xml version="1.0" encoding="UTF-8"?>
<svg width="170px" height="170px" viewBox="0 0 170 170" version="1.1" xmlns="http://www.w3.org/2000/svg" xmlns:xlink="http://www.w3.org/1999/xlink">
    <!-- Generator: Sketch 52.2 (67145) - http://www.bohemiancoding.com/sketch -->
    <title>Btn/splash/Pressed/02</title>
    <desc>Created with Sketch.</desc>
    <g id="Make" stroke="none" stroke-width="1" fill="none" fill-rule="evenodd">
        <g id="Btn/splash/Pressed/02">
            <rect id="Rectangle" fill="#D8D8D8" opacity="0.01" x="0" y="0" width="170" height="170"></rect>
            <path d="M118.516264,63.0011963 C118.574215,62.9094859 118.635357,62.8125746 118.695428,62.7108541 C119.174873,61.8989774 118.86511,60.4237371 119.019992,60.4237371 C119.174873,60.4237371 120.729745,60 121.487037,60 C122.24433,60 126.152179,55.27052 127.420236,56 C128.688294,56.72948 126.687388,59.5540278 126.687388,60.4237371 C126.687388,61.2934464 126.703534,61.7979547 126.068758,61.8989774 C125.433982,62 124.839407,60.8331365 123.268321,61.5848215 C121.697234,62.3365066 120.77183,64.0282464 119.220022,64.0282464 C118.902139,64.0282464 118.672359,64.0070338 118.512047,63.9663205 C118.418824,64.5442584 118.178213,65.2284024 117.692276,65.6625421 C115.824127,67.3315629 112.202992,68.7190189 112.632379,70.304784 C113.256458,72.609568 115.803005,71.8923712 116.628235,72.6619384 C117.178388,73.1749833 117.294805,73.7470206 116.977485,74.3780504 C117.850045,75.6850814 118.564767,76.3385969 119.121653,76.3385969 C119.956981,76.3385969 117.24433,78.4333297 116.24433,76.7166648 C115.24433,75 113.300354,78.4087572 113.772342,79.0334322 C114.24433,79.6581071 119.214627,81.9639511 121.350361,80.0460484 C123.486095,78.1281458 122.658377,81.9520208 121.350361,82.3193925 C120.042345,82.6867643 115.689216,85.2302124 114.574759,84.9331623 C113.460302,84.6361122 111.541371,83.7693646 110.770836,84.2027384 C110.000302,84.6361122 106.913844,87.129782 106.913844,88.0081008 C106.913844,88.8864196 108.822079,91.2266147 109.392884,91.2266147 C109.963688,91.2266147 111.917588,90.8899887 111.917588,90.6361122 C111.917588,90.3822356 110.277218,89.2739495 111.097403,88.6410252 C111.917588,88.0081008 113.432591,86.6895942 114.83846,86.6895942 C116.24433,86.6895942 118.209806,88.0179742 118.209806,88.6410252 C118.209806,89.0563925 115.618826,91.8550137 110.436867,97.0368889 C112.75489,98.155961 114.024044,98.9295809 114.24433,99.3577486 C114.464616,99.7859162 114.464616,100.666667 114.24433,102 C117.38878,104.865683 119.359231,106.298524 120.155683,106.298524 C121.350361,106.298524 120.551029,108.204496 119.121653,107.741476 C117.692276,107.278456 114.716318,102.937401 114.24433,103.292073 C113.929671,103.528521 113.929671,104.290008 114.24433,105.576534 C116.542961,106.939458 117.692276,108.080613 117.692276,109 C117.692276,110.37908 117.337896,112.31502 115.588837,111 C113.839777,109.68498 108.304888,109.621741 107.609366,111 C106.913844,112.378259 109.690033,112.770275 110.06345,113.385137 C110.436867,114 109.563489,114.463803 108.238667,114.463803 C106.913844,114.463803 103.175744,116.242423 102.910809,118 C102.734185,119.171718 102.734185,120.243155 102.910809,121.214311 C98.5353963,123.478467 96.34769,124.610545 96.34769,124.610545 C96.34769,124.610545 95.6325684,121.336123 94.6210839,121.967669 C93.9467609,122.3887 93.4486356,123.066143 93.1267078,124 C91.4984241,121.349987 90.2584244,120.024981 89.4067089,120.024981 C88.5549934,120.024981 87.594465,121.118248 86.5251239,123.304784 C88.9347754,125.524534 89.8953037,126.856619 89.4067089,127.301039 C88.9181141,127.745459 87.7944008,127.745459 86.0355692,127.301039 C84.1428985,133.313786 83.3826488,136.741766 83.7548201,137.58498 C84.313077,138.8498 82.763875,137.528414 81.5041024,138.625181 C80.2443299,139.721948 80.9762964,140.238449 80.2443299,140.607672 C79.5123634,140.976895 77.9823938,139.033897 77.9823938,138.107034 C77.9823938,137.489126 77.9823938,134.453448 77.9823938,129 C75.7832623,128.799307 74.5437426,128.465974 74.2638347,128 C73.843973,127.301039 70.5159897,119.328908 68.1106279,119.676944 C65.7052661,120.024981 65.6044754,120.785689 64.3550823,121 C63.1056893,121.214311 53.3829496,119.049961 51.9395217,120.024981 C50.4960939,121 50.2080651,117.596219 47.7261975,118.5 C45.2443299,119.403781 46.5697887,124.078148 44.2443299,125 C41.9188711,125.921852 39.1010074,125.494212 38.4226687,125.494212 C37.7443299,125.494212 36.4351484,124.698348 36.4351484,122.599215 C36.4351484,120.500082 40.7443299,118.170144 40.7443299,116.819159 C40.7443299,115.468174 39.7435599,116 40.7443299,115 C41.7451,114 43.4805203,114 43.1124251,112 C42.7443299,110 40.7443299,110.280822 40.7443299,108.140411 C40.7443299,106 43.909993,107 44.2443299,106 C44.5786668,105 43.5773034,104.188971 43.7657894,103.646745 C43.9542755,103.104519 45.1422288,103.94965 44.8494943,102.564598 C44.5567598,101.179545 41.2337675,100.841862 40.7443299,100.841862 C40.2548924,100.841862 42.4590607,97.7224357 43.1124251,96.5673146 C43.7657894,95.4121935 38.9999613,84.991519 36.9254192,84.6361122 C34.8508772,84.2807053 39.0864729,84.4025716 40.6654014,83.1872376 C42.2443299,81.9719036 42.2443299,81.273477 42.2443299,80.7985572 C42.2443299,80.3236373 44.4555324,82.3505594 45.2443299,81.5745583 C46.0331274,80.7985572 47.3313878,76.51839 45.7878588,74.3780504 C44.2443299,72.2377108 46.4978064,74.1190329 47.7261975,71.6625421 C48.9545886,69.2060513 48.1514492,68.1316383 49.663,66.6554184 C51.1745508,65.1791986 47.0374997,67.4960969 47.0374997,64.2480485 C47.0374997,61 48.8256598,63.220046 49.2443299,62.610023 C49.663,62 48.864469,60.631977 50.4960939,60 C52.1277188,59.368023 54.4567462,60 55.7186761,59 C56.980606,58 58.458362,58 57.719484,57 C56.980606,56 52.9006477,57.3846246 52.9006477,53.4493184 C52.9006477,49.5140122 55.4559981,55.0261547 56.9849584,54.4511304 C58.5139187,53.8761062 58.2074609,52.6209197 59.2184898,52 C60.2295186,51.3790803 60.4424128,54.0153819 61.2443299,54.0153819 C62.046247,54.0153819 64.9252086,54.5814454 65.3612132,54.0153819 C65.7972178,53.4493184 64.6241273,49.6882838 65.3612132,49.3376134 C66.098299,48.9869429 66.8102948,54.6059026 68.1106279,56 C69.410961,57.3940974 72.8654589,56.8315032 73.4893832,55.1404108 C74.1133076,53.4493184 73.4484198,49.6752267 72.3861866,49.3376134 C71.3239535,49 77.2134717,49.9547624 77.2134717,48.4773812 C77.2134717,47 74.6873077,45 73.843973,45 C73.0006382,45 76.4681931,44.9977178 77.5834227,42 C78.3269091,40.0015214 78.3269091,37.8240713 77.5834227,35.4676496 C79.7473163,36.7554376 80.8292631,37.5931399 80.8292631,37.9807564 C80.8292631,38.5621812 78.813862,45.3926182 82.270152,47.3926182 C85.726442,49.3926182 88.0923365,48.1591465 89.0708506,47.3926182 C90.0493647,46.6260898 87.8777905,54.1404108 89.9712782,55.1404108 C92.0647658,56.1404108 92.6131638,53.5227965 93.6095994,53.087048 C94.606035,52.6512994 95.749939,54 95.749939,55 C95.749939,56 96.9402093,56.3391681 97.5922696,56 C98.2443299,55.6608319 98.8963902,54.3049422 98.2443299,53.4493184 C97.5922696,52.5936946 106.638533,53.428885 107.609366,52.4039826 C108.5802,51.3790803 109.56793,52.4658609 110.436867,50.7329304 C111.016159,49.5776435 111.236337,52 111.097403,58 C106.931251,60.6021273 105.978339,62.9193258 108.238667,64.9515955 C111.629159,68 114.94822,62.610023 116.24433,62.610023 C117.540439,62.610023 118.114952,61.7519515 118.515881,63 C118.516009,63.0003976 118.516136,63.0007964 118.516264,63.0011963 Z M34.0123902,61 C34.2443299,60 36.8817287,60.4251444 36.8817287,61.3339804 C36.8817287,62.2428164 33.7804504,62 34.0123902,61 Z M42.7443299,57 C42.5291688,56.6242644 44.8942243,56.6546692 45.2443299,57 C45.4777336,57.2302206 45.5469158,57.8968872 45.4518763,59 C44.4962158,59.1762867 43.8135412,59.104001 43.4038527,58.783143 C42.7893199,58.3018559 42.959491,57.3757356 42.7443299,57 Z M50.3569824,48 C50.3569824,47 51.9224618,46.7593208 51.9224618,48 C51.9224618,49.2406792 50.3569824,49 50.3569824,48 Z M61.9709277,52.2330683 C62.6978347,51.2692844 63.2654819,50.7873925 63.6738693,50.7873925 C64.0822567,50.7873925 64.44913,51.6136908 64.7744893,53.2662875 L61.9709277,52.2330683 Z M62.5757168,40.8788255 C63.4428365,40.4881866 66.8645635,48.4073261 64.7744893,48.4073261 C62.6844152,48.4073261 61.708597,41.2694645 62.5757168,40.8788255 Z M62.724269,28.2931691 C63.0693432,27.7840092 67.1027871,29.794043 65.1591624,30.7150776 C63.2155377,31.6361122 62.3791948,28.802329 62.724269,28.2931691 Z M79.7443299,29 C79.4681875,29 79.2443299,28.3284271 79.2443299,27.5 C79.2443299,26.6715729 79.4681875,26 79.7443299,26 C80.0204723,26 80.2443299,26.6715729 80.2443299,27.5 C80.2443299,28.3284271 80.0204723,29 79.7443299,29 Z M104.467331,40.473895 C103.372963,40.473895 101.838922,40.6224051 102.318554,39.1074974 C102.798186,37.5925896 105.446639,36.5573726 106.016991,37.8516038 C106.587343,39.1458351 106.387811,42 105.125279,42 C103.862747,42 105.561698,40.473895 104.467331,40.473895 Z M109.941376,45.4455405 C109.535966,46.1445394 111.962229,47.1446431 111.962229,46.5782756 C111.962229,46.011908 110.346785,44.7465416 109.941376,45.4455405 Z M107.24433,26 C106.692045,26 106.24433,25.5522847 106.24433,25 C106.24433,24.4477153 106.692045,24 107.24433,24 C107.796615,24 108.24433,24.4477153 108.24433,25 C108.24433,25.5522847 107.796615,26 107.24433,26 Z M131.74433,54 C130.915903,54 130.24433,53.5522847 130.24433,53 C130.24433,52.4477153 130.915903,52 131.74433,52 C132.572757,52 133.24433,52.4477153 133.24433,53 C133.24433,53.5522847 132.572757,54 131.74433,54 Z M119.341028,74.3637562 C119.341028,73.6436769 120.448768,71.0825428 121.670526,71.6625421 C122.892284,72.2425413 125.603502,73.7783943 123.516011,75 C121.428519,76.2216057 119.341028,75.0838354 119.341028,74.3637562 Z M119.464557,93.1663773 C118.397232,92.5779533 117.062769,95.9336813 118.045143,96.207226 C119.027517,96.4807707 120.531881,93.7548013 119.464557,93.1663773 Z M122.359744,91.640949 C122.475158,91.0446123 124.281667,90.7530642 124.806881,91.3620474 C125.332094,91.9710307 125.862989,92.6199055 124.806881,93 C123.750772,93.3800945 122.24433,92.2372858 122.359744,91.640949 Z M134.74433,92 C133.915903,92 133.24433,91.5522847 133.24433,91 C133.24433,90.4477153 133.915903,90 134.74433,90 C135.572757,90 136.24433,90.4477153 136.24433,91 C136.24433,91.5522847 135.572757,92 134.74433,92 Z M127.74433,109 C125.811333,109 124.24433,107.656854 124.24433,106 C124.24433,104.343146 125.811333,103 127.74433,103 C129.677327,103 131.24433,104.343146 131.24433,106 C131.24433,107.656854 129.677327,109 127.74433,109 Z M109.74433,141 C107.811333,141 106.24433,139.209139 106.24433,137 C106.24433,134.790861 107.811333,133 109.74433,133 C111.677327,133 113.24433,134.790861 113.24433,137 C113.24433,139.209139 111.677327,141 109.74433,141 Z M105.479167,135.741426 C105.300493,136.482852 103.179109,133.542957 102.228198,130.786822 C101.277287,128.030687 103.99182,127.476062 104.379217,127 C104.766614,126.523938 103.440057,124.474361 103.440057,123.304784 C103.440057,122.135207 106.24433,121.967669 106.320378,123 C106.371076,123.688221 107.423311,123.688221 109.477083,123 L109.477083,124.715992 C109.169097,124.583163 108.758179,124.677833 108.24433,125 C107.473556,125.483251 107.390934,130.442886 106.862243,130.442886 C106.333551,130.442886 104.627108,130.899321 104.379217,131.185129 C104.131326,131.470937 104.379217,131.622068 105.479167,131.898576 C106.579117,132.175084 105.657842,135 105.479167,135.741426 Z M109.477083,126.027347 C110.211695,125.655689 111.040077,126.192548 111.962229,127.637924 C111.38133,127.637924 110.920253,127.637924 110.579001,127.637924 C110.067121,127.637924 110.383871,128.520746 109.895692,128.520746 C109.407514,128.520746 108.375166,126.584834 109.477083,126.027347 Z M108.24433,129 C107.803728,129.858229 110.209668,132.503459 110.897002,131.641921 C111.584337,130.780383 108.684931,128.141771 108.24433,129 Z M119.006406,135.551304 C119.83146,135 121.6005,137.779106 121.00134,138.25593 C120.40218,138.732753 118.181353,136.102609 119.006406,135.551304 Z M106.790522,118 C107.544033,118 108.355492,121 107.573007,121 C106.790522,121 106.037012,118 106.790522,118 Z M91.3284444,125.443926 C91.3284444,124.974535 93.6326161,126.843635 93.6326161,127.542774 C93.6326161,128.241913 92.1830072,128.243344 91.9454895,128.243344 C91.7079718,128.243344 91.3284444,125.913318 91.3284444,125.443926 Z M82.0508125,139.492953 C81.7908298,140 82.2081705,142.515225 82.912969,142.150554 C83.6177676,141.785883 82.3107952,138.985907 82.0508125,139.492953 Z M76.7443299,134 C76.4681875,134 76.2443299,133.552285 76.2443299,133 C76.2443299,132.447715 76.4681875,132 76.7443299,132 C77.0204723,132 77.2443299,132.447715 77.2443299,133 C77.2443299,133.552285 77.0204723,134 76.7443299,134 Z M80.2443299,142.002319 C79.7398551,142.002319 79.5391358,145.241677 80.2443299,145.241677 C80.949524,145.241677 80.7488047,142.002319 80.2443299,142.002319 Z M68.1149711,122.149091 C68.3967542,121.967669 69.8970459,122.141771 69.8970459,123 C69.8970459,123.858229 70.1586162,124.620434 69.4972153,124.620434 C68.8358144,124.620434 67.833188,122.330513 68.1149711,122.149091 Z M53.2443299,123 C52.6920452,123 52.2443299,122.552285 52.2443299,122 C52.2443299,121.447715 52.6920452,121 53.2443299,121 C53.7966147,121 54.2443299,121.447715 54.2443299,122 C54.2443299,122.552285 53.7966147,123 53.2443299,123 Z M51.4764925,122.317209 C51.703737,122.790159 51.0725309,125.036914 50.3569824,124.170849 C49.6414339,123.304784 51.2492481,121.844258 51.4764925,122.317209 Z" id="Path-68" fill="#6A6A6A"></path>
        </g>
    </g>
</svg>