<?xml version="1.0" encoding="UTF-8"?>
<svg width="170px" height="170px" viewBox="0 0 170 170" version="1.1" xmlns="http://www.w3.org/2000/svg" xmlns:xlink="http://www.w3.org/1999/xlink">
    <!-- Generator: Sketch 52.2 (67145) - http://www.bohemiancoding.com/sketch -->
    <title>Btn/Glitch/Normal/03</title>
    <desc>Created with Sketch.</desc>
    <g id="Make" stroke="none" stroke-width="1" fill="none" fill-rule="evenodd">
        <g id="Btn/Glitch/Normal/03">
            <rect id="Rectangle" fill="#D8D8D8" opacity="0.01" x="0" y="0" width="170" height="170"></rect>
            <g id="Group-25" transform="translate(1.000000, 37.000000)" fill="#1B1B1B">
                <path d="M45.7439597,5.99999847 C52.6334578,2.17702184 60.5624935,0 69,0 C77.4375065,0 85.3665422,2.17702184 92.2560403,5.99999847 L45.743957,6 Z" id="Oval-5"></path>
                <path d="M71.5122098,36 C71.5983712,35.6652394 71.6880532,35.3318921 71.7812139,35 L164.218786,35 C164.311947,35.3318921 164.401629,35.6652394 164.48779,36 L71.5122098,36 Z" id="Oval-5"></path>
                <path d="M20.1516453,83 C15.1265767,78.2819927 11.1178548,72.4941185 8.48910257,66.0000007 L97.5109023,66 C94.8821452,72.4941185 90.8734233,78.2819927 85.8483547,83 L20.1516453,83 Z" id="Oval-5"></path>
                <path d="M39.0267105,89 L88.9732895,89 C81.6977082,93.4410767 73.1476884,96 64,96 C54.8523116,96 46.3022918,93.4410767 39.0267105,89 Z" id="Oval-5"></path>
                <path d="M72.0267105,89 C70.5177929,88.0789439 69.0636923,87.0769315 67.6704457,86 L126.329554,86 C124.936308,87.0769315 123.482207,88.0789439 121.97329,89 L72.0267105,89 Z" id="Oval-5"></path>
                <path d="M46.6704457,86 C45.4494181,85.0561878 44.2751301,84.0548332 43.1516453,83 L108.848355,83 C107.72487,84.0548332 106.550582,85.0561878 105.329554,86 L46.6704457,86 Z" id="Oval-5"></path>
                <path d="M74.4891026,66.0000007 C73.5769631,63.7466346 72.8309707,61.4082373 72.2663165,59 L165.733684,59 C165.169029,61.4082373 164.423037,63.7466346 163.510897,66.0000007 L74.4890977,66 Z" id="Oval-5"></path>
                <path d="M1.26631648,59 C0.958370556,57.6866178 0.704359894,56.3524631 0.50674861,55 L95.4932514,55 C95.2956401,56.3524631 95.0416294,57.6866178 94.7336835,59 L1.26631648,59 Z" id="Oval-5"></path>
                <path d="M34.5067486,55 C34.1728775,52.7149671 34,50.3776724 34,48 C34,47.6658582 34.0034143,47.3325139 34.0102098,47 L129.98979,47 C129.996586,47.3325139 130,47.6658582 130,48 C130,50.3776724 129.827122,52.7149671 129.493251,55 L34.5067486,55 Z" id="Oval-5"></path>
                <path d="M72.0102098,47 C72.0239051,46.3298705 72.0513338,45.6631138 72.092226,45 L167.907774,45 C167.948666,45.6631138 167.976095,46.3298705 167.98979,47 L72.0102098,47 Z" id="Oval-5"></path>
                <path d="M50.092226,45 C50.1754251,43.6508287 50.3143573,42.3167374 50.5067486,41 L145.493251,41 C145.685643,42.3167374 145.824575,43.6508287 145.907774,45 L50.092226,45 Z" id="Oval-5"></path>
                <path d="M19.5067486,41 C19.7547182,39.3028818 20.0914949,37.6345922 20.5122098,36 L113.48779,36 C113.908505,37.6345922 114.245282,39.3028818 114.493251,41 L19.5067486,41 Z" id="Oval-5"></path>
                <path d="M46.7812139,35 C48.1996236,29.9468067 50.4244472,25.2309381 53.3080788,21 L132.691921,21 C135.575553,25.2309381 137.800376,29.9468067 139.218786,35 L46.7812139,35 Z" id="Oval-5"></path>
                <path d="M13.3080788,21 C15.0222119,18.48498 16.9691372,16.141312 19.1178507,14 L86.8821493,14 C89.0308628,16.141312 90.9777881,18.48498 92.6919212,21 L13.3080788,21 Z" id="Oval-5"></path>
                <path d="M25.1178507,14 C25.8081209,13.3121075 26.5192157,12.6450982 27.2501073,12 L90.7498927,12 C91.4807843,12.6450982 92.1918791,13.3121075 92.8821493,14 L25.1178507,14 Z" id="Oval-5"></path>
                <path d="M50.2501073,12 C51.890145,10.5524728 53.6298599,9.21526846 55.457639,8 L108.542361,8 C110.37014,9.21526846 112.109855,10.5524728 113.749893,12 L50.2501073,12 Z" id="Oval-5"></path>
                <path d="M83.457639,8 C84.5238794,7.29106951 85.6200881,6.62363389 86.7439597,5.99999847 L133.256043,6 C134.379912,6.62363389 135.476121,7.29106951 136.542361,8 L83.457639,8 Z" id="Oval-4"></path>
            </g>
        </g>
    </g>
</svg>