<?xml version="1.0" encoding="UTF-8"?>
<svg width="170px" height="170px" viewBox="0 0 170 170" version="1.1" xmlns="http://www.w3.org/2000/svg" xmlns:xlink="http://www.w3.org/1999/xlink">
    <!-- Generator: Sketch 52.2 (67145) - http://www.bohemiancoding.com/sketch -->
    <title>Btn/Moma/Normal/03</title>
    <desc>Created with Sketch.</desc>
    <g id="Make" stroke="none" stroke-width="1" fill="none" fill-rule="evenodd">
        <g id="Btn/Moma/Normal/03">
            <rect id="Rectangle" fill="#D8D8D8" opacity="0.01" x="0" y="0" width="170" height="170"></rect>
            <path d="M102,74 L102,84 L87,84 L87,74 L68,74 L68,40 L102,40 L102,74 Z M46,74 L46,103 L39,103 L39,74 L39,68 L64,68 L64,74 L46,74 Z M131,93 L131,103 L125,103 L125,93 L106,93 L106,59 L131,59 L131,93 Z M87,125 L87,93 L87,87 L102,87 L102,93 L93,93 L93,125 L102,125 L102,131 L68,131 L68,125 L87,125 Z M49,78 L83,78 L83,122 L49,122 L49,78 Z M96,97 L121,97 L121,122 L96,122 L96,97 Z M49,49 L64,49 L64,65 L49,65 L49,49 Z M106,49 L121,49 L121,55 L106,55 L106,49 Z" id="Rectangle-10" fill="#1B1B1B"></path>
        </g>
    </g>
</svg>