<?xml version="1.0" encoding="UTF-8"?>
<svg width="170px" height="170px" viewBox="0 0 170 170" version="1.1" xmlns="http://www.w3.org/2000/svg" xmlns:xlink="http://www.w3.org/1999/xlink">
    <!-- Generator: Sketch 52.2 (67145) - http://www.bohemiancoding.com/sketch -->
    <title>Btn/splash/Normal/03</title>
    <desc>Created with Sketch.</desc>
    <g id="Make" stroke="none" stroke-width="1" fill="none" fill-rule="evenodd">
        <g id="Btn/splash/Normal/03">
            <rect id="Rectangle" fill="#D8D8D8" opacity="0.01" x="0" y="0" width="170" height="170"></rect>
            <path d="M49.1302205,89.1732936 C49.1221294,89.0677058 49.1113267,88.9616247 49.0977214,88.8550669 C48.3624965,83.0967439 39.5122617,80.4658224 37.0436252,79.0926632 C34.5749887,77.7195039 21.7049011,75.1484759 20.768672,75.9204564 C19.8324429,76.6924368 22.5484496,77.6133899 21.7049011,77.6133899 C20.8613526,77.6133899 17.2189603,75.9708052 17.4246872,73.275932 C17.630414,70.5810588 19.3890379,70.6696728 23.0216335,70.3777511 C26.6542292,70.0858294 39.2393966,74.5769448 39.5122617,73.8567626 C39.7851268,73.1365805 38.5001608,73.3794796 37.8605546,72.1341357 C37.2209484,70.8887918 43.1225759,68.9826318 41.0978695,67.9809088 C39.0731631,66.9791858 38.7907707,60.6133899 38.1773244,59.6133899 C37.5638781,58.6133899 35.1584451,53.6647382 35.485173,53.6133899 C35.8119008,53.5620416 38.1773244,55.7405154 39.5122617,54.2221743 C40.847199,52.7038332 36.8126846,46.6133899 36.1987524,45.6689609 C35.5848202,44.7245319 37.1837267,43.9392674 36.1987524,43.6133899 C35.213778,43.2875125 28.9228292,35.021321 29.8831313,34.1664659 C30.8434334,33.3116107 36.953053,41.6133899 38.1773244,42.0557914 C39.4015958,42.4981928 43.0985927,50.6133899 43.9033311,51.9054627 C44.7080696,53.1975355 49.0555742,52.9868412 49.4706313,52.2189192 C49.8856885,51.4509972 46.1794642,50.9914298 47.1085173,50.9914298 C48.0375705,50.9914298 48.2678429,49.6133899 47.8380731,48.4169955 C47.4083034,47.2206011 45.0368759,48.199681 45.5375091,46.8616447 C46.0381423,45.5236084 52.2977443,46.9631178 51.7114001,46.6133899 C51.125056,46.2636621 49.0541384,41.6094292 50.2058562,43.1114096 C51.3575739,44.6133899 66.1798444,59.1203949 69.1597775,58.1203949 C72.1397106,57.1203949 71.3820588,54.7006098 71.3820588,54.2221743 C71.3820588,53.7437388 68.8009509,50.6133899 70.2304699,49.1969937 C71.6599889,47.7805974 71.3820588,52.9868412 72.7888781,52.6133899 C74.1956975,52.2399386 72.7888781,47.6133899 72.7888781,43.6133899 C72.7888781,39.6133899 68.6961323,32.3284675 65.9477003,27.5471432 C63.1992683,22.7658189 66.5640719,17.8729805 67.4344515,17.1029086 C68.3048312,16.3328367 71.3820588,16.2341365 74.1354426,19.1523383 C76.8888265,22.07054 79.1512989,38.8646512 79.1512989,41.6133899 C79.1512989,43.4458824 80.1357143,44.686883 82.1045451,45.336392 C81.3751024,41.6720264 81.5234346,39.8398436 82.5495416,39.8398436 C84.0887021,39.8398436 83.4839056,45.4994073 83.4839056,47.0810097 C83.4839056,48.6626121 84.208954,51.9054627 85.1108436,51.9054627 C86.0127331,51.9054627 85.5963527,50.6133899 86.0513166,50.6133899 C86.5062805,50.6133899 84.5636008,43.1114096 86.0513166,42.6648054 C87.5390325,42.2182013 87.2683048,49.0722403 87.2683048,50.1046708 C87.2683048,51.1371012 87.468296,54.2221743 89.0290597,54.2221743 C90.0695689,54.2221743 92.9221543,52.6859129 97.5868162,49.6133899 C98.5445482,46.5759997 99.2014342,44.909333 99.5574743,44.6133899 C100.091534,44.1694752 103.370811,33.2495021 104.328968,34.1664659 C105.287126,35.0834296 102.170542,42.1101675 101.637125,43.1114096 C101.103708,44.1126517 101.637125,47.6133899 101.637125,47.6133899 C101.637125,47.6133899 105.137293,40.6954388 108.096327,42.6648054 C111.05536,44.6341721 106.929583,48.6133899 106.929583,50.1046708 C106.929583,51.098858 108.57707,52.2855471 111.872045,53.6647382 L111.484923,59.6133899 C112.046956,59.9378303 112.620779,60.2711637 113.206391,60.6133899 C113.792003,60.9556162 113.499197,62.728019 112.327973,65.9305984 C113.71505,65.9305984 114.75584,65.9305984 115.450344,65.9305984 C116.492098,65.9305984 119.981012,63.6133899 121.273238,63.034648 C122.565464,62.4559061 135.809576,62.1224695 138.028771,58.6133899 C140.247965,55.1043103 146.622283,53.6133899 147.048631,53.6647382 C147.474978,53.7160865 138.15899,62.6133899 137.105339,63.6133899 C136.402904,64.2800566 135.825331,65.5009039 135.372617,67.275932 C133.679659,66.379043 132.469958,66.1581956 131.743517,66.6133899 C130.653854,67.2961814 123.620723,74.8524556 122.067737,76.6133899 C120.514751,78.3743243 120.832422,81.9268049 122.604048,83.6675015 C124.375674,85.408198 129.224335,84.2671401 131.181162,84.2671401 C133.137989,84.2671401 132.48432,85.3284675 131.743517,86.2495021 C131.707701,86.2940319 131.671223,86.3397814 131.634305,86.3867448 C133.676228,86.7053443 139.642492,86.8981673 139.885746,87.6133899 C140.16178,88.4249963 136.37705,89.7020575 135.652863,89.5291333 C134.928675,89.3562091 136.368591,88.1811447 135.825653,87.8972673 C135.488157,87.7208068 133.82574,87.6266132 130.838401,87.6146867 C130.547146,88.2130776 130.358781,88.9123588 130.451318,89.707858 C131.390778,89.4639046 133.316356,88.7462362 133.541912,89.0525177 C133.764633,89.354949 131.748197,90.5066965 131.036793,91.1882007 C132.261018,92.5940614 135.372617,93.1292109 135.372617,93.6133899 C135.372617,94.1670875 134.036342,94.6133899 134.742742,97.6133899 C135.449141,100.61339 143.833981,103.61339 142.718275,106.664738 C141.602568,109.716087 133.505497,108.61339 130.640993,110.61339 C127.776489,112.61339 130.026229,115.61339 128.089658,115.753801 C126.153088,115.894212 123.105955,111.986841 122.067737,111.99247 C121.375592,111.996223 120.96382,112.536529 120.832422,113.61339 C119.389184,111.683069 118.365328,111.366852 117.760853,112.664738 C116.85414,114.611568 120.822133,117.197858 119.981012,117.197858 C119.139892,117.197858 114.702788,113.702132 112.327973,114.154583 C109.953158,114.607035 106.706999,117.61339 108.838416,117.61339 C110.969833,117.61339 113.960377,126.193603 113.960377,129.61339 C113.960377,133.033177 117.765676,137.802417 118.976876,139.799584 C120.188077,141.796751 119.555629,145.511402 116.48406,145.511402 C114.682259,145.511402 112.634063,142.19778 110.267292,139.799584 C108.599379,138.109524 106.175832,137.363248 106.175832,136.417132 C106.175832,134.651702 103.112344,127.783219 101.241428,124.288319 C100.530481,125.184698 99.1492491,125.764678 98.7122369,125.61339 C98.0699806,125.391049 98.3255842,124.216611 99.0375021,123.978623 C99.5853668,123.795477 99.6930694,122.730952 99.7136144,122.05499 C98.8131603,121.440932 98.0456467,121.99647 97.5868162,121.99647 C97.079551,121.99647 97.1153863,122.911664 96.5227105,124.61339 C95.9300346,126.315116 91.8762862,126.649172 91.5848591,129.581059 C91.2934319,132.512945 93.8684233,133.173297 93.6410284,135.091598 C93.4136334,137.0099 90.5807265,139.799584 90.2570943,139.799584 C89.9334621,139.799584 91.8845997,136.417132 89.0290597,136.417132 C87.1371232,136.417132 84.0936744,143.747034 81.4815285,148.203782 C80.1511072,150.473699 78.3042043,151.5479 78.0710726,151.455353 C77.3802107,151.1811 74.2763923,151.623009 75.4169216,147.149948 C75.8447957,145.471862 75.5489353,142.584753 74.9501802,139.630229 C74.6077323,141.373724 73.5800765,145.200294 73.1461509,144.795839 C72.600214,144.28698 74.2281362,140.441732 74.8489819,139.143601 C74.7029061,138.458409 74.5418214,137.772961 74.3709559,137.101438 C73.9505074,137.053511 73.621005,137.279736 73.3824489,137.78011 C72.826209,138.946831 67.3590083,141.61339 66.7061194,140.701784 C66.2708601,140.094047 68.0931636,138.146265 72.1730299,134.858436 C72.9793092,135.361739 73.3824489,135.61339 73.3824489,135.61339 C73.3824489,135.61339 73.5784102,135.61339 73.970333,135.61339 C73.0203977,132.271638 71.9124247,129.59567 71.3820588,129.581059 C70.2084706,129.548728 67.9370404,130.61339 66.9511648,129.581059 C65.9652892,128.548728 71.7637681,123.144431 68.2407961,121.378911 C64.7178241,119.61339 41.0978695,133.696193 40.3551693,135.61339 C39.6124691,137.530586 34.7722072,142.486678 31.9036988,143.470006 C29.0351904,144.453334 24.3751519,154.367154 19.978739,156.61339 C15.5823261,158.859626 12.8561662,155.751773 14.1635242,152.61339 C15.4708823,149.475006 36.1987524,130.61339 43.0087503,124.918174 C49.8187482,119.222958 54.4123089,110.205893 53.3533614,107.61339 C52.2944138,105.020887 50.2058562,104.02554 47.8380731,103.61339 C45.4702901,103.201239 38.610504,103.61339 36.1987524,104.02554 C34.590918,104.300308 33.5241097,105.34556 32.9983274,107.161298 C29.353478,106.830258 26.7138764,106.980955 25.0795226,107.61339 C22.6279919,108.562042 12.7626004,109.753801 12.046103,108.051172 C11.3296055,106.348543 19.1437937,104.717909 23.0216335,102.61339 C26.8994734,100.508871 39.8118939,99.6133899 41.0978695,99.2967122 C42.2970171,99.0014163 48.855129,95.184591 49.1391299,90.0016065 C46.1031608,90.5787805 37.5935133,90.5736752 38.0253114,90.1094715 C38.4525568,89.6501622 46.2430166,88.8928 49.1302205,89.1732936 Z M71.424,150.61339 C71.424,149.987617 71.7290066,160.246851 71.424,160.945004 C71.1189935,161.643157 70.126435,160.822941 69.6736199,159.980917 C69.2208048,159.138893 71.424,151.239163 71.424,150.61339 Z M125.637754,121.365567 C125.637754,120.649157 133.947086,127.096123 133.526466,127.524823 C133.105845,127.953523 130.040801,125.637345 129.315856,125.61339 C128.59091,125.589435 125.637754,122.081976 125.637754,121.365567 Z M151.06007,88.9777306 C151.06007,88.4104286 158.004908,88.4010904 158.004908,89.6064609 C158.004908,90.8118313 151.06007,89.5450326 151.06007,88.9777306 Z M153.968301,73.6133899 C153.139873,73.6133899 152.468301,73.1656747 152.468301,72.6133899 C152.468301,72.0611052 153.139873,71.6133899 153.968301,71.6133899 C154.796728,71.6133899 155.468301,72.0611052 155.468301,72.6133899 C155.468301,73.1656747 154.796728,73.6133899 153.968301,73.6133899 Z M150.122756,49.6133899 C150.122756,48.8216038 151.321319,49.6133899 152.034615,49.6133899 C152.747911,49.6133899 152.678094,50.6133899 152.468301,51.4329614 C152.258507,52.2525329 151.467445,51.7179086 151.06007,50.8315519 C150.652695,49.9451952 150.122756,50.4051761 150.122756,49.6133899 Z M110.386555,8.15232925 C110.798629,6.89216361 110.983476,13.8248704 110.983476,15.1911833 C110.983476,16.5574962 110.386555,18.6447705 109.253532,20.6371396 C108.120508,22.6295086 109.253532,25.8727052 108.481103,27.4489299 C107.708673,29.0251546 106.66065,27.4601835 105.749826,25.249207 C104.839001,23.0382304 108.579033,17.2509981 109.253532,16.6415448 C109.92803,16.0320916 109.820043,14.275932 109.253532,13.1474985 C108.68702,12.0190649 109.974481,9.41249489 110.386555,8.15232925 Z M107.277769,14.6453712 C107.597493,14.6453712 107.805062,16.9677216 107.277769,16.8046332 C106.750476,16.6415448 106.958045,14.6453712 107.277769,14.6453712 Z M78.7386562,19.4185756 C79.2585179,19.0107628 82.9110108,31.8199746 80.6552433,32.3284675 C78.3994758,32.8369604 78.2187945,19.8263883 78.7386562,19.4185756 Z M59.4091671,24.2747891 C58.9161044,24.6308431 59.6554473,26.614925 60.3048005,26.614925 C60.9541536,26.614925 59.9022299,23.918735 59.4091671,24.2747891 Z M42.0600822,32.9613174 C42.6081407,33.400682 45.3316081,31.9036305 44.5347102,31.085988 C43.7378123,30.2683455 41.5120237,32.5219529 42.0600822,32.9613174 Z M32.1540705,47.6133899 C32.8135906,46.6133899 36.558774,47.303831 36.1431693,48.6133899 C35.7275647,49.9229489 34.2108117,50.8942001 33.1824411,50.3464929 C32.1540705,49.7987857 31.4945503,48.6133899 32.1540705,47.6133899 Z M37.5293505,108.61339 C37.7763698,109.126496 39.0985215,109.725312 39.4254451,109.425904 C39.7523687,109.126496 37.2823312,108.100284 37.5293505,108.61339 Z" id="Path-87" fill="#1B1B1B"></path>
        </g>
    </g>
</svg>