<?xml version="1.0" encoding="UTF-8"?>
<svg width="170px" height="170px" viewBox="0 0 170 170" version="1.1" xmlns="http://www.w3.org/2000/svg" xmlns:xlink="http://www.w3.org/1999/xlink">
    <!-- Generator: Sketch 52.2 (67145) - http://www.bohemiancoding.com/sketch -->
    <title>Btn/xmoma/Normal/03</title>
    <desc>Created with Sketch.</desc>
    <g id="Make" stroke="none" stroke-width="1" fill="none" fill-rule="evenodd">
        <g id="Btn/xmoma/Normal/03">
            <rect id="Rectangle" fill="#D8D8D8" opacity="0.01" x="0" y="0" width="170" height="170"></rect>
            <path d="M102.196913,45.1510242 C104.485301,42.6028166 107.805471,41 111.5,41 C116.563744,41 120.924234,44.0109898 122.888751,48.3402511 C126.42029,49.3723898 129,52.6349331 129,56.5 C129,58.2769363 128.454744,59.9265212 127.522417,61.290569 C132.381838,62.4307104 136,66.7928217 136,72 C136,73.1843236 135.812835,74.3249326 135.466471,75.3938619 C137.661177,77.7945819 139,80.9909415 139,84.5 C139,88.2787839 137.447448,91.6949498 134.945429,94.1454135 C135.619388,95.4498693 136,96.9304863 136,98.5 C136,103.509828 132.122089,107.613922 127.204256,107.974291 C128.339641,109.705072 129,111.775418 129,114 C129,120.075132 124.075132,125 118,125 C116.478974,125 115.030052,124.691286 113.712474,124.133098 C112.778958,127.515818 109.679585,130 106,130 C105.22688,130 104.479374,129.890332 103.772191,129.685704 C102.766475,134.435644 98.5494873,138 93.5,138 C90.7387026,138 88.2263574,136.934109 86.3519652,135.191327 C84.9774029,136.903751 82.8667228,138 80.5,138 C78.0462732,138 75.8677602,136.82167 74.4994507,135 C70.5287602,134.999749 67.1940747,132.276867 66.2604927,128.596452 C64.5366308,129.493186 62.5775018,130 60.5,130 C55.1494234,130 50.5840284,126.638238 48.8007833,121.911683 C48.3755086,121.969915 47.9412677,122 47.5,122 C42.2532949,122 38,117.746705 38,112.5 C38,110.740955 38.478086,109.093573 39.3114087,107.680703 C39.1252788,107.375617 38.9567971,107.058585 38.8073823,106.731027 C34.8965386,105.75203 32,102.214276 32,98 C32,96.4637694 32.3848984,95.0174367 33.0635206,93.7521763 C31.7669888,92.0055547 31,89.8423473 31,87.5 C31,83.6537666 33.0680344,80.2905485 36.1528247,78.4616242 C36.0526868,77.9902123 36,77.501259 36,77 C36,75.063779 36.7861177,73.3111657 38.0565956,72.0439175 C36.7748579,70.5555749 36,68.6182763 36,66.5 C36,61.8055796 39.8055796,58 44.5,58 C44.8816582,58 45.2574414,58.0251539 45.6257822,58.0738945 C46.7333043,57.0689091 48.1237491,56.3701094 49.6634626,56.1111495 C49.2330697,54.8190336 49,53.436735 49,52 C49,44.8202983 54.8202983,39 62,39 C64.2522128,39 66.370657,39.5727318 68.2176334,40.5804963 C69.0878294,36.8105729 72.4656925,34 76.5,34 C79.1968741,34 81.6004013,35.2559669 83.157571,37.2148899 C84.6321929,34.6936087 87.3683147,33 90.5,33 C95.1944204,33 99,36.8055796 99,41.5 C99,42.1509768 98.9268208,42.7848617 98.7882399,43.3938771 C100.043792,43.7576756 101.197584,44.3609589 102.196913,45.1510242 Z M56.6314166,69.6821787 C56.1316294,70.1775288 55.5668397,70.6074026 54.950979,70.9578687 C55.6144777,71.9768384 56,73.1933974 56,74.5 C56,78.0084136 53.2203891,80.8676144 49.7432363,80.9955331 C50.4235609,81.856545 50.9718654,82.8266838 51.3575959,83.875396 C52.4500813,83.3157497 53.688167,83 55,83 C55.3966418,83 55.7865417,83.0288657 56.1677134,83.0846111 C56.0578441,82.5737968 56,82.0436535 56,81.5 C56,77.8619213 58.5903514,74.8288517 62.0273084,74.1445369 C62.0092264,73.9320933 62,73.7171241 62,73.5 C62,73.3319783 62.0055252,73.165247 62.0164037,72.9999781 C62.0109375,72.9999927 62.0054696,73 62,73 C59.6503566,73 57.616164,71.6493947 56.6314166,69.6821787 Z M67.1596545,63.9358324 C67.5578333,64.6048704 67.8295829,65.357927 67.9419519,66.1620507 C68.3917116,66.0670261 68.8563389,66.0123062 69.3318775,66.0018472 C69.7779784,64.3608023 70.6529174,62.8963843 71.8289018,61.7363859 C71.5187155,61.6595548 71.2148761,61.5666361 70.9183203,61.4585661 C69.8266113,62.4882959 68.5566676,63.3311065 67.1596545,63.9358324 Z M82.367868,49.6800582 C83.4937332,49.2409682 84.718726,49 86,49 C86.1749308,49 86.3488126,49.0044917 86.5215362,49.013366 C85.4814602,48.4614819 84.5696486,47.699954 83.842429,46.7851101 C83.3640276,47.6030719 82.7528529,48.3339209 82.0384729,48.9480892 C82.158734,49.1862024 82.2687264,49.4303861 82.367868,49.6800582 Z M72.9841621,118.134769 C73.1386725,118.106955 73.2946336,118.083317 73.4519241,118.063976 C74.4072242,116.763714 75.7717456,115.782784 77.3556447,115.31103 C75.1833742,114.306513 73.5729741,112.293365 73.1252865,109.872431 C72.563327,110.368881 71.9352005,110.792151 71.2558235,111.127324 C72.3638076,112.993359 73,115.172384 73,117.5 C73,117.712874 72.9946788,117.924506 72.9841621,118.134769 Z M57.3546387,105.399064 C56.8265174,105.188585 56.3244682,104.926675 55.8546781,104.619523 C55.76504,105.112821 55.635192,105.592106 55.4686531,106.053857 C56.0737053,105.787511 56.7038802,105.567734 57.3546387,105.399064 Z M73.0829949,90.0305324 C71.7363635,88.5362116 70.7599993,86.7016685 70.2984395,84.6714405 C69.1035914,87.2283886 66.5086867,89 63.5,89 C63.2427781,89 62.9885807,88.9870512 62.7380238,88.9617698 C62.7692456,89.0806223 62.7978016,89.2005552 62.8236242,89.3215006 C64.8357795,89.8920688 66.5441837,91.1851838 67.6506869,92.9026956 C68.578039,91.1749015 70.401813,90 72.5,90 C72.6969201,90 72.8914232,90.0103489 73.0829949,90.0305324 Z M75.3402205,100.210854 C75.646905,100.941014 75.8545663,101.723027 75.9463987,102.540088 C76.9463429,101.774934 78.144475,101.255736 79.4504321,101.072858 C78.624549,100.211645 77.8940517,99.2582444 77.2759199,98.2296358 C76.8098624,99.0433199 76.1418506,99.7265045 75.3402205,100.210854 Z M106.489814,85.9763132 C106.822819,87.2619213 107,88.6102692 107,90 C107,94.3153809 105.291582,98.2317395 102.514197,101.109625 C102.998978,101.037416 103.49512,101 104,101 C104.722574,101 105.427248,101.076637 106.106337,101.222227 C106.03645,100.82534 106,100.416927 106,100 C106,96.1340068 109.134007,93 113,93 C113.825804,93 114.618209,93.1429986 115.353803,93.4055845 C113.265952,91.0287706 112,87.9122248 112,84.5 C112,82.1278944 112.611801,79.8986825 113.686218,77.961549 C112.96882,77.8934084 112.277409,77.7361013 111.623191,77.5008333 C111.277636,77.9427015 110.87616,78.3387243 110.429409,78.6782559 C110.793817,79.3720412 111,80.1619422 111,81 C111,83.5961571 109.021356,85.730177 106.489814,85.9763132 Z M89.24371,72.4321087 C89.413666,72.1441445 89.5992014,71.8664702 89.7991566,71.6002453 C89.106636,71.079978 88.4722374,70.4865241 87.9074445,69.8313673 C87.8337159,70.3570944 87.7169581,70.8690203 87.560846,71.3634702 C88.1525833,71.6734701 88.7152568,72.0314017 89.24371,72.4321087 Z" id="Oval-7" fill="#1B1B1B"></path>
        </g>
    </g>
</svg>