<?xml version="1.0" encoding="UTF-8"?>
<svg width="170px" height="170px" viewBox="0 0 170 170" version="1.1" xmlns="http://www.w3.org/2000/svg" xmlns:xlink="http://www.w3.org/1999/xlink">
    <!-- Generator: Sketch 52.2 (67145) - http://www.bohemiancoding.com/sketch -->
    <title>Btn/layout/Pressed/03</title>
    <desc>Created with Sketch.</desc>
    <g id="Make" stroke="none" stroke-width="1" fill="none" fill-rule="evenodd">
        <g id="Btn/layout/Pressed/03">
            <rect id="Rectangle" fill="#D8D8D8" opacity="0.01" x="0" y="0" width="170" height="170"></rect>
            <path d="M84.5,117 C72.0735931,117 62,106.926407 62,94.5 C62,82.0735931 72.0735931,72 84.5,72 C96.9264069,72 107,82.0735931 107,94.5 C107,106.926407 96.9264069,117 84.5,117 Z M102,36 C95.9248678,36 91,31.0751322 91,25 C91,18.9248678 95.9248678,14 102,14 C108.075132,14 113,18.9248678 113,25 C113,31.0751322 108.075132,36 102,36 Z M84,54 C77.9248678,54 73,49.0751322 73,43 C73,36.9248678 77.9248678,32 84,32 C90.0751322,32 95,36.9248678 95,43 C95,49.0751322 90.0751322,54 84,54 Z M67,71 C60.9248678,71 56,66.0751322 56,60 C56,53.9248678 60.9248678,49 67,49 C73.0751322,49 78,53.9248678 78,60 C78,66.0751322 73.0751322,71 67,71 Z M137,105 C130.924868,105 126,100.075132 126,94 C126,87.9248678 130.924868,83 137,83 C143.075132,83 148,87.9248678 148,94 C148,100.075132 143.075132,105 137,105 Z M119,123 C112.924868,123 108,118.075132 108,112 C108,105.924868 112.924868,101 119,101 C125.075132,101 130,105.924868 130,112 C130,118.075132 125.075132,123 119,123 Z M102,140 C95.9248678,140 91,135.075132 91,129 C91,122.924868 95.9248678,118 102,118 C108.075132,118 113,122.924868 113,129 C113,135.075132 108.075132,140 102,140 Z M67,140 C60.9248678,140 56,135.075132 56,129 C56,122.924868 60.9248678,118 67,118 C73.0751322,118 78,122.924868 78,129 C78,135.075132 73.0751322,140 67,140 Z M50,157 C43.9248678,157 39,152.075132 39,146 C39,139.924868 43.9248678,135 50,135 C56.0751322,135 61,139.924868 61,146 C61,152.075132 56.0751322,157 50,157 Z M50,88 C43.9248678,88 39,83.0751322 39,77 C39,70.9248678 43.9248678,66 50,66 C56.0751322,66 61,70.9248678 61,77 C61,83.0751322 56.0751322,88 50,88 Z M33,71 C26.9248678,71 22,66.0751322 22,60 C22,53.9248678 26.9248678,49 33,49 C39.0751322,49 44,53.9248678 44,60 C44,66.0751322 39.0751322,71 33,71 Z" id="Oval-9" fill="#6A6A6A"></path>
        </g>
    </g>
</svg>