<?xml version="1.0" encoding="UTF-8"?>
<svg width="170px" height="170px" viewBox="0 0 170 170" version="1.1" xmlns="http://www.w3.org/2000/svg" xmlns:xlink="http://www.w3.org/1999/xlink">
    <!-- Generator: Sketch 52.2 (67145) - http://www.bohemiancoding.com/sketch -->
    <title>Btn/mosaic/Pressed/03</title>
    <desc>Created with Sketch.</desc>
    <g id="Make" stroke="none" stroke-width="1" fill="none" fill-rule="evenodd">
        <g id="Btn/mosaic/Pressed/03">
            <rect id="Rectangle" fill="#D8D8D8" opacity="0.01" x="0" y="0" width="170" height="170"></rect>
            <path d="M67,36 L73,36 C73.5522847,36 74,36.4477153 74,37 L74,43 C74,43.5522847 73.5522847,44 73,44 L67,44 C66.4477153,44 66,43.5522847 66,43 L66,37 C66,36.4477153 66.4477153,36 67,36 Z M77,36 L83,36 C83.5522847,36 84,36.4477153 84,37 L84,43 C84,43.5522847 83.5522847,44 83,44 L77,44 C76.4477153,44 76,43.5522847 76,43 L76,37 C76,36.4477153 76.4477153,36 77,36 Z M87,36 L93,36 C93.5522847,36 94,36.4477153 94,37 L94,43 C94,43.5522847 93.5522847,44 93,44 L87,44 C86.4477153,44 86,43.5522847 86,43 L86,37 C86,36.4477153 86.4477153,36 87,36 Z M97,36 L103,36 C103.552285,36 104,36.4477153 104,37 L104,43 C104,43.5522847 103.552285,44 103,44 L97,44 C96.4477153,44 96,43.5522847 96,43 L96,37 C96,36.4477153 96.4477153,36 97,36 Z M47,46 L53,46 C53.5522847,46 54,46.4477153 54,47 L54,53 C54,53.5522847 53.5522847,54 53,54 L47,54 C46.4477153,54 46,53.5522847 46,53 L46,47 C46,46.4477153 46.4477153,46 47,46 Z M57,46 L63,46 C63.5522847,46 64,46.4477153 64,47 L64,53 C64,53.5522847 63.5522847,54 63,54 L57,54 C56.4477153,54 56,53.5522847 56,53 L56,47 C56,46.4477153 56.4477153,46 57,46 Z M67,46 L73,46 C73.5522847,46 74,46.4477153 74,47 L74,53 C74,53.5522847 73.5522847,54 73,54 L67,54 C66.4477153,54 66,53.5522847 66,53 L66,47 C66,46.4477153 66.4477153,46 67,46 Z M77,46 L83,46 C83.5522847,46 84,46.4477153 84,47 L84,53 C84,53.5522847 83.5522847,54 83,54 L77,54 C76.4477153,54 76,53.5522847 76,53 L76,47 C76,46.4477153 76.4477153,46 77,46 Z M87,46 L93,46 C93.5522847,46 94,46.4477153 94,47 L94,53 C94,53.5522847 93.5522847,54 93,54 L87,54 C86.4477153,54 86,53.5522847 86,53 L86,47 C86,46.4477153 86.4477153,46 87,46 Z M97,46 L103,46 C103.552285,46 104,46.4477153 104,47 L104,53 C104,53.5522847 103.552285,54 103,54 L97,54 C96.4477153,54 96,53.5522847 96,53 L96,47 C96,46.4477153 96.4477153,46 97,46 Z M107,46 L113,46 C113.552285,46 114,46.4477153 114,47 L114,53 C114,53.5522847 113.552285,54 113,54 L107,54 C106.447715,54 106,53.5522847 106,53 L106,47 C106,46.4477153 106.447715,46 107,46 Z M117,46 L123,46 C123.552285,46 124,46.4477153 124,47 L124,53 C124,53.5522847 123.552285,54 123,54 L117,54 C116.447715,54 116,53.5522847 116,53 L116,47 C116,46.4477153 116.447715,46 117,46 Z M47,56 L53,56 C53.5522847,56 54,56.4477153 54,57 L54,63 C54,63.5522847 53.5522847,64 53,64 L47,64 C46.4477153,64 46,63.5522847 46,63 L46,57 C46,56.4477153 46.4477153,56 47,56 Z M57,56 L63,56 C63.5522847,56 64,56.4477153 64,57 L64,63 C64,63.5522847 63.5522847,64 63,64 L57,64 C56.4477153,64 56,63.5522847 56,63 L56,57 C56,56.4477153 56.4477153,56 57,56 Z M67,56 L73,56 C73.5522847,56 74,56.4477153 74,57 L74,63 C74,63.5522847 73.5522847,64 73,64 L67,64 C66.4477153,64 66,63.5522847 66,63 L66,57 C66,56.4477153 66.4477153,56 67,56 Z M77,56 L83,56 C83.5522847,56 84,56.4477153 84,57 L84,63 C84,63.5522847 83.5522847,64 83,64 L77,64 C76.4477153,64 76,63.5522847 76,63 L76,57 C76,56.4477153 76.4477153,56 77,56 Z M87,56 L93,56 C93.5522847,56 94,56.4477153 94,57 L94,63 C94,63.5522847 93.5522847,64 93,64 L87,64 C86.4477153,64 86,63.5522847 86,63 L86,57 C86,56.4477153 86.4477153,56 87,56 Z M97,56 L103,56 C103.552285,56 104,56.4477153 104,57 L104,63 C104,63.5522847 103.552285,64 103,64 L97,64 C96.4477153,64 96,63.5522847 96,63 L96,57 C96,56.4477153 96.4477153,56 97,56 Z M107,56 L113,56 C113.552285,56 114,56.4477153 114,57 L114,63 C114,63.5522847 113.552285,64 113,64 L107,64 C106.447715,64 106,63.5522847 106,63 L106,57 C106,56.4477153 106.447715,56 107,56 Z M117,56 L123,56 C123.552285,56 124,56.4477153 124,57 L124,63 C124,63.5522847 123.552285,64 123,64 L117,64 C116.447715,64 116,63.5522847 116,63 L116,57 C116,56.4477153 116.447715,56 117,56 Z M47,66 L53,66 C53.5522847,66 54,66.4477153 54,67 L54,73 C54,73.5522847 53.5522847,74 53,74 L47,74 C46.4477153,74 46,73.5522847 46,73 L46,67 C46,66.4477153 46.4477153,66 47,66 Z M57,66 L63,66 C63.5522847,66 64,66.4477153 64,67 L64,73 C64,73.5522847 63.5522847,74 63,74 L57,74 C56.4477153,74 56,73.5522847 56,73 L56,67 C56,66.4477153 56.4477153,66 57,66 Z M67,66 L73,66 C73.5522847,66 74,66.4477153 74,67 L74,73 C74,73.5522847 73.5522847,74 73,74 L67,74 C66.4477153,74 66,73.5522847 66,73 L66,67 C66,66.4477153 66.4477153,66 67,66 Z M77,66 L83,66 C83.5522847,66 84,66.4477153 84,67 L84,73 C84,73.5522847 83.5522847,74 83,74 L77,74 C76.4477153,74 76,73.5522847 76,73 L76,67 C76,66.4477153 76.4477153,66 77,66 Z M87,66 L93,66 C93.5522847,66 94,66.4477153 94,67 L94,73 C94,73.5522847 93.5522847,74 93,74 L87,74 C86.4477153,74 86,73.5522847 86,73 L86,67 C86,66.4477153 86.4477153,66 87,66 Z M97,66 L103,66 C103.552285,66 104,66.4477153 104,67 L104,73 C104,73.5522847 103.552285,74 103,74 L97,74 C96.4477153,74 96,73.5522847 96,73 L96,67 C96,66.4477153 96.4477153,66 97,66 Z M107,66 L113,66 C113.552285,66 114,66.4477153 114,67 L114,73 C114,73.5522847 113.552285,74 113,74 L107,74 C106.447715,74 106,73.5522847 106,73 L106,67 C106,66.4477153 106.447715,66 107,66 Z M117,66 L123,66 C123.552285,66 124,66.4477153 124,67 L124,73 C124,73.5522847 123.552285,74 123,74 L117,74 C116.447715,74 116,73.5522847 116,73 L116,67 C116,66.4477153 116.447715,66 117,66 Z M47,76 L53,76 C53.5522847,76 54,76.4477153 54,77 L54,83 C54,83.5522847 53.5522847,84 53,84 L47,84 C46.4477153,84 46,83.5522847 46,83 L46,77 C46,76.4477153 46.4477153,76 47,76 Z M57,76 L63,76 C63.5522847,76 64,76.4477153 64,77 L64,83 C64,83.5522847 63.5522847,84 63,84 L57,84 C56.4477153,84 56,83.5522847 56,83 L56,77 C56,76.4477153 56.4477153,76 57,76 Z M67,76 L73,76 C73.5522847,76 74,76.4477153 74,77 L74,83 C74,83.5522847 73.5522847,84 73,84 L67,84 C66.4477153,84 66,83.5522847 66,83 L66,77 C66,76.4477153 66.4477153,76 67,76 Z M77,76 L83,76 C83.5522847,76 84,76.4477153 84,77 L84,83 C84,83.5522847 83.5522847,84 83,84 L77,84 C76.4477153,84 76,83.5522847 76,83 L76,77 C76,76.4477153 76.4477153,76 77,76 Z M87,76 L93,76 C93.5522847,76 94,76.4477153 94,77 L94,83 C94,83.5522847 93.5522847,84 93,84 L87,84 C86.4477153,84 86,83.5522847 86,83 L86,77 C86,76.4477153 86.4477153,76 87,76 Z M97,76 L103,76 C103.552285,76 104,76.4477153 104,77 L104,83 C104,83.5522847 103.552285,84 103,84 L97,84 C96.4477153,84 96,83.5522847 96,83 L96,77 C96,76.4477153 96.4477153,76 97,76 Z M107,76 L113,76 C113.552285,76 114,76.4477153 114,77 L114,83 C114,83.5522847 113.552285,84 113,84 L107,84 C106.447715,84 106,83.5522847 106,83 L106,77 C106,76.4477153 106.447715,76 107,76 Z M117,76 L123,76 C123.552285,76 124,76.4477153 124,77 L124,83 C124,83.5522847 123.552285,84 123,84 L117,84 C116.447715,84 116,83.5522847 116,83 L116,77 C116,76.4477153 116.447715,76 117,76 Z M47,86 L53,86 C53.5522847,86 54,86.4477153 54,87 L54,93 C54,93.5522847 53.5522847,94 53,94 L47,94 C46.4477153,94 46,93.5522847 46,93 L46,87 C46,86.4477153 46.4477153,86 47,86 Z M57,86 L63,86 C63.5522847,86 64,86.4477153 64,87 L64,93 C64,93.5522847 63.5522847,94 63,94 L57,94 C56.4477153,94 56,93.5522847 56,93 L56,87 C56,86.4477153 56.4477153,86 57,86 Z M67,86 L73,86 C73.5522847,86 74,86.4477153 74,87 L74,93 C74,93.5522847 73.5522847,94 73,94 L67,94 C66.4477153,94 66,93.5522847 66,93 L66,87 C66,86.4477153 66.4477153,86 67,86 Z M77,86 L83,86 C83.5522847,86 84,86.4477153 84,87 L84,93 C84,93.5522847 83.5522847,94 83,94 L77,94 C76.4477153,94 76,93.5522847 76,93 L76,87 C76,86.4477153 76.4477153,86 77,86 Z M87,86 L93,86 C93.5522847,86 94,86.4477153 94,87 L94,93 C94,93.5522847 93.5522847,94 93,94 L87,94 C86.4477153,94 86,93.5522847 86,93 L86,87 C86,86.4477153 86.4477153,86 87,86 Z M97,86 L103,86 C103.552285,86 104,86.4477153 104,87 L104,93 C104,93.5522847 103.552285,94 103,94 L97,94 C96.4477153,94 96,93.5522847 96,93 L96,87 C96,86.4477153 96.4477153,86 97,86 Z M107,86 L113,86 C113.552285,86 114,86.4477153 114,87 L114,93 C114,93.5522847 113.552285,94 113,94 L107,94 C106.447715,94 106,93.5522847 106,93 L106,87 C106,86.4477153 106.447715,86 107,86 Z M117,86 L123,86 C123.552285,86 124,86.4477153 124,87 L124,93 C124,93.5522847 123.552285,94 123,94 L117,94 C116.447715,94 116,93.5522847 116,93 L116,87 C116,86.4477153 116.447715,86 117,86 Z M47,96 L53,96 C53.5522847,96 54,96.4477153 54,97 L54,103 C54,103.552285 53.5522847,104 53,104 L47,104 C46.4477153,104 46,103.552285 46,103 L46,97 C46,96.4477153 46.4477153,96 47,96 Z M37,66 L43,66 C43.5522847,66 44,66.4477153 44,67 L44,73 C44,73.5522847 43.5522847,74 43,74 L37,74 C36.4477153,74 36,73.5522847 36,73 L36,67 C36,66.4477153 36.4477153,66 37,66 Z M37,76 L43,76 C43.5522847,76 44,76.4477153 44,77 L44,83 C44,83.5522847 43.5522847,84 43,84 L37,84 C36.4477153,84 36,83.5522847 36,83 L36,77 C36,76.4477153 36.4477153,76 37,76 Z M37,86 L43,86 C43.5522847,86 44,86.4477153 44,87 L44,93 C44,93.5522847 43.5522847,94 43,94 L37,94 C36.4477153,94 36,93.5522847 36,93 L36,87 C36,86.4477153 36.4477153,86 37,86 Z M37,96 L43,96 C43.5522847,96 44,96.4477153 44,97 L44,103 C44,103.552285 43.5522847,104 43,104 L37,104 C36.4477153,104 36,103.552285 36,103 L36,97 C36,96.4477153 36.4477153,96 37,96 Z M57,96 L63,96 C63.5522847,96 64,96.4477153 64,97 L64,103 C64,103.552285 63.5522847,104 63,104 L57,104 C56.4477153,104 56,103.552285 56,103 L56,97 C56,96.4477153 56.4477153,96 57,96 Z M67,96 L73,96 C73.5522847,96 74,96.4477153 74,97 L74,103 C74,103.552285 73.5522847,104 73,104 L67,104 C66.4477153,104 66,103.552285 66,103 L66,97 C66,96.4477153 66.4477153,96 67,96 Z M77,96 L83,96 C83.5522847,96 84,96.4477153 84,97 L84,103 C84,103.552285 83.5522847,104 83,104 L77,104 C76.4477153,104 76,103.552285 76,103 L76,97 C76,96.4477153 76.4477153,96 77,96 Z M87,96 L93,96 C93.5522847,96 94,96.4477153 94,97 L94,103 C94,103.552285 93.5522847,104 93,104 L87,104 C86.4477153,104 86,103.552285 86,103 L86,97 C86,96.4477153 86.4477153,96 87,96 Z M97,96 L103,96 C103.552285,96 104,96.4477153 104,97 L104,103 C104,103.552285 103.552285,104 103,104 L97,104 C96.4477153,104 96,103.552285 96,103 L96,97 C96,96.4477153 96.4477153,96 97,96 Z M107,96 L113,96 C113.552285,96 114,96.4477153 114,97 L114,103 C114,103.552285 113.552285,104 113,104 L107,104 C106.447715,104 106,103.552285 106,103 L106,97 C106,96.4477153 106.447715,96 107,96 Z M117,96 L123,96 C123.552285,96 124,96.4477153 124,97 L124,103 C124,103.552285 123.552285,104 123,104 L117,104 C116.447715,104 116,103.552285 116,103 L116,97 C116,96.4477153 116.447715,96 117,96 Z M127,66 L133,66 C133.552285,66 134,66.4477153 134,67 L134,73 C134,73.5522847 133.552285,74 133,74 L127,74 C126.447715,74 126,73.5522847 126,73 L126,67 C126,66.4477153 126.447715,66 127,66 Z M127,76 L133,76 C133.552285,76 134,76.4477153 134,77 L134,83 C134,83.5522847 133.552285,84 133,84 L127,84 C126.447715,84 126,83.5522847 126,83 L126,77 C126,76.4477153 126.447715,76 127,76 Z M127,86 L133,86 C133.552285,86 134,86.4477153 134,87 L134,93 C134,93.5522847 133.552285,94 133,94 L127,94 C126.447715,94 126,93.5522847 126,93 L126,87 C126,86.4477153 126.447715,86 127,86 Z M127,96 L133,96 C133.552285,96 134,96.4477153 134,97 L134,103 C134,103.552285 133.552285,104 133,104 L127,104 C126.447715,104 126,103.552285 126,103 L126,97 C126,96.4477153 126.447715,96 127,96 Z M47,106 L53,106 C53.5522847,106 54,106.447715 54,107 L54,113 C54,113.552285 53.5522847,114 53,114 L47,114 C46.4477153,114 46,113.552285 46,113 L46,107 C46,106.447715 46.4477153,106 47,106 Z M57,106 L63,106 C63.5522847,106 64,106.447715 64,107 L64,113 C64,113.552285 63.5522847,114 63,114 L57,114 C56.4477153,114 56,113.552285 56,113 L56,107 C56,106.447715 56.4477153,106 57,106 Z M67,106 L73,106 C73.5522847,106 74,106.447715 74,107 L74,113 C74,113.552285 73.5522847,114 73,114 L67,114 C66.4477153,114 66,113.552285 66,113 L66,107 C66,106.447715 66.4477153,106 67,106 Z M77,106 L83,106 C83.5522847,106 84,106.447715 84,107 L84,113 C84,113.552285 83.5522847,114 83,114 L77,114 C76.4477153,114 76,113.552285 76,113 L76,107 C76,106.447715 76.4477153,106 77,106 Z M87,106 L93,106 C93.5522847,106 94,106.447715 94,107 L94,113 C94,113.552285 93.5522847,114 93,114 L87,114 C86.4477153,114 86,113.552285 86,113 L86,107 C86,106.447715 86.4477153,106 87,106 Z M97,106 L103,106 C103.552285,106 104,106.447715 104,107 L104,113 C104,113.552285 103.552285,114 103,114 L97,114 C96.4477153,114 96,113.552285 96,113 L96,107 C96,106.447715 96.4477153,106 97,106 Z M107,106 L113,106 C113.552285,106 114,106.447715 114,107 L114,113 C114,113.552285 113.552285,114 113,114 L107,114 C106.447715,114 106,113.552285 106,113 L106,107 C106,106.447715 106.447715,106 107,106 Z M117,106 L123,106 C123.552285,106 124,106.447715 124,107 L124,113 C124,113.552285 123.552285,114 123,114 L117,114 C116.447715,114 116,113.552285 116,113 L116,107 C116,106.447715 116.447715,106 117,106 Z M47,116 L53,116 C53.5522847,116 54,116.447715 54,117 L54,123 C54,123.552285 53.5522847,124 53,124 L47,124 C46.4477153,124 46,123.552285 46,123 L46,117 C46,116.447715 46.4477153,116 47,116 Z M57,116 L63,116 C63.5522847,116 64,116.447715 64,117 L64,123 C64,123.552285 63.5522847,124 63,124 L57,124 C56.4477153,124 56,123.552285 56,123 L56,117 C56,116.447715 56.4477153,116 57,116 Z M67,116 L73,116 C73.5522847,116 74,116.447715 74,117 L74,123 C74,123.552285 73.5522847,124 73,124 L67,124 C66.4477153,124 66,123.552285 66,123 L66,117 C66,116.447715 66.4477153,116 67,116 Z M77,116 L83,116 C83.5522847,116 84,116.447715 84,117 L84,123 C84,123.552285 83.5522847,124 83,124 L77,124 C76.4477153,124 76,123.552285 76,123 L76,117 C76,116.447715 76.4477153,116 77,116 Z M87,116 L93,116 C93.5522847,116 94,116.447715 94,117 L94,123 C94,123.552285 93.5522847,124 93,124 L87,124 C86.4477153,124 86,123.552285 86,123 L86,117 C86,116.447715 86.4477153,116 87,116 Z M97,116 L103,116 C103.552285,116 104,116.447715 104,117 L104,123 C104,123.552285 103.552285,124 103,124 L97,124 C96.4477153,124 96,123.552285 96,123 L96,117 C96,116.447715 96.4477153,116 97,116 Z M67,126 L73,126 C73.5522847,126 74,126.447715 74,127 L74,133 C74,133.552285 73.5522847,134 73,134 L67,134 C66.4477153,134 66,133.552285 66,133 L66,127 C66,126.447715 66.4477153,126 67,126 Z M77,126 L83,126 C83.5522847,126 84,126.447715 84,127 L84,133 C84,133.552285 83.5522847,134 83,134 L77,134 C76.4477153,134 76,133.552285 76,133 L76,127 C76,126.447715 76.4477153,126 77,126 Z M87,126 L93,126 C93.5522847,126 94,126.447715 94,127 L94,133 C94,133.552285 93.5522847,134 93,134 L87,134 C86.4477153,134 86,133.552285 86,133 L86,127 C86,126.447715 86.4477153,126 87,126 Z M97,126 L103,126 C103.552285,126 104,126.447715 104,127 L104,133 C104,133.552285 103.552285,134 103,134 L97,134 C96.4477153,134 96,133.552285 96,133 L96,127 C96,126.447715 96.4477153,126 97,126 Z M107,116 L113,116 C113.552285,116 114,116.447715 114,117 L114,123 C114,123.552285 113.552285,124 113,124 L107,124 C106.447715,124 106,123.552285 106,123 L106,117 C106,116.447715 106.447715,116 107,116 Z M117,116 L123,116 C123.552285,116 124,116.447715 124,117 L124,123 C124,123.552285 123.552285,124 123,124 L117,124 C116.447715,124 116,123.552285 116,123 L116,117 C116,116.447715 116.447715,116 117,116 Z" id="Rectangle-8" fill="#6A6A6A"></path>
        </g>
    </g>
</svg>