<?xml version="1.0" encoding="UTF-8"?>
<svg width="60px" height="60px" viewBox="0 0 60 60" version="1.1" xmlns="http://www.w3.org/2000/svg" xmlns:xlink="http://www.w3.org/1999/xlink">
    <!-- Generator: Sketch 52.2 (67145) - http://www.bohemiancoding.com/sketch -->
    <title>Icon/Warning/Actions</title>
    <desc>Created with Sketch.</desc>
    <g id="Make" stroke="none" stroke-width="1" fill="none" fill-rule="evenodd">
        <g id="C-25&gt;Authorization-Confirmation" transform="translate(-42.000000, -368.000000)">
            <g id="Icon/Warning/Actions" transform="translate(42.000000, 368.000000)">
                <circle id="Oval" stroke="#FF0000" stroke-width="4" cx="30" cy="30" r="28"></circle>
                <path d="M28.2,31.8 L21.6,31.8 L21.6,35.4 L15.6,30.0272789 L21.6,24.6 L21.6,28.2 L28.2,28.2 L28.2,21.6 L24.6,21.6 L29.9727211,15.6 L35.4,21.6 L31.8,21.6 L31.8,28.2 L38.4,28.2 L38.4,24.6 L44.4,30.0272789 L38.4,35.4 L38.4,31.8 L31.8,31.8 L31.8,38.4 L35.4,38.4 L29.9727211,44.4 L24.6,38.4 L28.2,38.4 L28.2,31.8 Z" id="Rectangle-6" fill="#1B1B1B"></path>
                <polygon id="Rectangle" fill="#FF0000" transform="translate(30.000000, 29.400000) rotate(-315.000000) translate(-30.000000, -29.400000) " points="27.6 1.2 32.4 1.2 32.4 57.6 27.6 57.6"></polygon>
            </g>
        </g>
    </g>
</svg>