<?xml version="1.0" encoding="UTF-8"?>
<svg width="40px" height="40px" viewBox="0 0 40 40" version="1.1" xmlns="http://www.w3.org/2000/svg" xmlns:xlink="http://www.w3.org/1999/xlink">
    <!-- Generator: Sketch 54.1 (76490) - https://sketchapp.com -->
    <title>Btn Icon/AddToCart</title>
    <desc>Created with Sketch.</desc>
    <g id="Make" stroke="none" stroke-width="1" fill="none" fill-rule="evenodd">
        <g id="Btn-Icon/AddToCart">
            <g>
                <rect id="Rectangle" fill="#D8D8D8" opacity="0.01" x="0" y="0" width="40" height="40"></rect>
                <path d="M3.46368092,10 L6.23871914,10 L7.89500096,13 L27.8226163,13 L23.1327937,23.1363761 L9.81937924,23.1363761 L3.46368092,10 Z M12,30 C10.8954305,30 10,29.1045695 10,28 C10,26.8954305 10.8954305,26 12,26 C13.1045695,26 14,26.8954305 14,28 C14,29.1045695 13.1045695,30 12,30 Z M21,30 C19.8954305,30 19,29.1045695 19,28 C19,26.8954305 19.8954305,26 21,26 C22.1045695,26 23,26.8954305 23,28 C23,29.1045695 22.1045695,30 21,30 Z M31.5,21 L31.5,17.5 L34.5,17.5 L34.5,21 L38,21 L38,24 L34.5,24 L34.5,27.5 L31.5,27.5 L31.5,24 L28,24 L28,21 L31.5,21 Z" id="Path-107" fill="#FFFFFF"></path>
            </g>
        </g>
    </g>
</svg>