<?xml version="1.0" encoding="UTF-8"?>
<svg width="18px" height="18px" viewBox="0 0 18 18" version="1.1" xmlns="http://www.w3.org/2000/svg" xmlns:xlink="http://www.w3.org/1999/xlink">
    <!-- Generator: Sketch 52.2 (67145) - http://www.bohemiancoding.com/sketch -->
    <title>Icon/Attention</title>
    <desc>Created with Sketch.</desc>
    <defs>
        <path d="M13.095,8.285 C13.095,8.826 12.657,9.264 12.116,9.264 L11.885,9.264 C11.345,9.264 10.907,8.826 10.907,8.285 L10.907,8.054 C10.907,7.514 11.345,7.075 11.885,7.075 L12.116,7.075 C12.657,7.075 13.095,7.514 13.095,8.054 L13.095,8.285 Z M10.907,17.198 L13.095,17.198 L13.095,10.632 L10.907,10.632 L10.907,17.198 Z M12,3 C7.038,3 3,7.037 3,12 C3,16.963 7.038,21 12,21 C16.963,21 21,16.963 21,12 C21,7.037 16.963,3 12,3 Z" id="path-1"></path>
    </defs>
    <g id="Make" stroke="none" stroke-width="1" fill="none" fill-rule="evenodd">
        <g id="C-23&gt;Stamp-Group-Selection" transform="translate(-19.000000, -151.000000)">
            <g id="Icon/Attention" transform="translate(16.000000, 148.000000)">
                <rect id="Rectangle-Copy-2" x="0" y="0" width="24" height="24"></rect>
                <g id="Element/Icon/Info">
                    <mask id="mask-2" fill="white">
                        <use xlink:href="#path-1"></use>
                    </mask>
                    <use id="Mask" fill="#1A1A1A" fill-rule="evenodd" xlink:href="#path-1"></use>
                    <g id="Element/Style/Color/UQ/Black" mask="url(#mask-2)" fill="#1B1B1B" fill-rule="evenodd">
                        <rect id="Rectangle" x="0" y="0" width="24" height="24"></rect>
                    </g>
                </g>
            </g>
        </g>
    </g>
</svg>