<svg xmlns="http://www.w3.org/2000/svg" width="72" height="72" viewBox="0 0 72 72">
    <g fill="none" fill-rule="evenodd">
        <circle cx="36" cy="36" r="35.5" fill="#FFF" stroke="#DADADA"/>
        <path fill="#1B1B1B" d="M36.33 45.15a7.679 7.679 0 1 1 0-15.356 7.679 7.679 0 0 1 0 15.357zm5.972-27.642a3.754 3.754 0 1 1 0-7.508 3.754 3.754 0 0 1 0 7.508zm-6.143 6.143a3.754 3.754 0 1 1 0-7.508 3.754 3.754 0 0 1 0 7.508zm-5.802 5.801a3.754 3.754 0 1 1 0-7.508 3.754 3.754 0 0 1 0 7.508zm23.889 11.604a3.754 3.754 0 1 1 0-7.508 3.754 3.754 0 0 1 0 7.508zm-6.143 6.142a3.754 3.754 0 1 1 0-7.508 3.754 3.754 0 0 1 0 7.508zM42.302 53a3.754 3.754 0 1 1 0-7.508 3.754 3.754 0 0 1 0 7.508zm-11.945 0a3.754 3.754 0 1 1 0-7.508 3.754 3.754 0 0 1 0 7.508zm-6-6a3.754 3.754 0 1 1 0-7.508 3.754 3.754 0 0 1 0 7.508zm.199 11.802a3.754 3.754 0 1 1 0-7.508 3.754 3.754 0 0 1 0 7.508zm0-23.548a3.754 3.754 0 1 1 0-7.508 3.754 3.754 0 0 1 0 7.508zm-5.802-5.802a3.754 3.754 0 1 1 0-7.508 3.754 3.754 0 0 1 0 7.508z"/>
    </g>
</svg>
