<?xml version="1.0" encoding="UTF-8"?>
<svg width="24px" height="24px" viewBox="0 0 24 24" version="1.1" xmlns="http://www.w3.org/2000/svg" xmlns:xlink="http://www.w3.org/1999/xlink">
    <!-- Generator: Sketch 54.1 (76490) - https://sketchapp.com -->
    <title>brush-style-pressed</title>
    <desc>Created with Sketch.</desc>
    <g id="页面1" stroke="none" stroke-width="1" fill="none" fill-rule="evenodd">
        <g id="BrushStyle_Pressed" transform="translate(-13.000000, -13.000000)">
            <g id="brush-style-pressed" transform="translate(13.000000, 13.000000)">
                <rect id="Rectangle" fill="#D8D8D8" fill-rule="nonzero" opacity="0.01" x="0" y="0" width="24" height="24"></rect>
                <g id="Group-39" stroke-linecap="round" transform="translate(2.000000, 2.000000)" stroke="#6A6A6A" stroke-width="2">
                    <path d="M10,12 C11.1045695,12 12,11.1045695 12,10 C12,8.8954305 11.1045695,8 10,8 C8.8954305,8 8,8.8954305 8,10" id="Shape"></path>
                    <path d="M6.42494198,5.18092657 C4.95342862,6.27436994 4,8.02584238 4,10 C4,10.1984268 4.0096322,10.394604 4.02845452,10.5880893 M5.48881395,13.956027 C6.32345162,14.9070302 7.45401362,15.5918859 8.73667104,15.8667653 M12.526426,15.4437511 C13.5832168,14.952468 14.4730464,14.1625138 15.0874663,13.1823367 M15.9714298,10.5892774 C15.9903283,10.395407 16,10.198833 16,10 C16,9.39680797 15.9109906,8.81440518 15.7453899,8.26520971 M13.2186576,4.93548278 C12.4620792,4.45364957 11.5902575,4.1366913 10.6537949,4.0352103 C10.4390588,4.01194014 10.2209238,4 10,4" id="Shape"></path>
                    <path d="M4.19413281,1.85705738 C3.10496463,2.6350192 2.17844158,3.62605937 1.47545235,4.76928922 M0.0478419876,9.01556612 C0.0161962002,9.33943018 0,9.66782368 0,10 C0,11.7647441 0.45712949,13.4227198 1.25943575,14.8619745 M3.98338672,17.9882267 C4.91478479,18.6908495 5.9729652,19.2343488 7.11751054,19.5783073 M10.9341544,19.9569434 C13.4750544,19.7215549 15.7403247,18.5355608 17.370965,16.7579613 M19.3719246,13.4958967 C19.7780132,12.4077022 20,11.229775 20,10 M18.9581886,5.55083981 C18.1095042,3.84534274 16.788111,2.41646432 15.1655,1.43569563 M10.7001768,0.0241313863 C10.468861,0.0081323433 10.2353802,-1.13631327e-13 10,-1.13631327e-13 C9.26927247,-1.13631327e-13 8.5568508,0.0783766541 7.87068293,0.227181999" id="Shape"></path>
                </g>
            </g>
        </g>
    </g>
</svg>