<svg xmlns="http://www.w3.org/2000/svg" width="24" height="24" viewBox="0 0 24 24">
    <g fill="none" fill-rule="evenodd">
        <path fill="#D8D8D8" d="M0 0h24v24H0z" opacity=".01"/>
        <g stroke="#1B1B1B" stroke-linecap="round" stroke-width="2">
            <path d="M12 14a2 2 0 1 0-2-2M8.425 7.18a5.991 5.991 0 0 0-2.397 5.408m1.46 3.368a5.995 5.995 0 0 0 3.249 1.91m3.79-.422a6.025 6.025 0 0 0 2.56-2.262m.884-2.593a6.073 6.073 0 0 0-.226-2.324m-2.526-3.33A5.963 5.963 0 0 0 12 6M6.194 3.857A10.053 10.053 0 0 0 3.475 6.77m-1.427 4.247a9.955 9.955 0 0 0 1.212 5.846m2.723 3.126a9.967 9.967 0 0 0 3.135 1.59m3.816.379a9.975 9.975 0 0 0 6.437-3.199m2-3.262A9.979 9.979 0 0 0 22 12m-1.042-4.45a10.045 10.045 0 0 0-3.792-4.114M12.7 2.024a10.146 10.146 0 0 0-2.83.203"/>
        </g>
    </g>
</svg>
