<?xml version="1.0" encoding="UTF-8"?>
<svg width="24px" height="24px" viewBox="0 0 24 24" version="1.1" xmlns="http://www.w3.org/2000/svg" xmlns:xlink="http://www.w3.org/1999/xlink">
    <!-- Generator: Sketch 52.2 (67145) - http://www.bohemiancoding.com/sketch -->
    <title>Ic_Camera</title>
    <desc>Created with Sketch.</desc>
    <g id="Page-1" stroke="none" stroke-width="1" fill="none" fill-rule="evenodd">
        <g id="Make-picture-popup" transform="translate(-15.000000, -489.000000)">
            <g id="Popup">
                <g id="List_1" transform="translate(0.000000, 473.000000)">
                    <g id="Ic_Camera" transform="translate(15.000000, 16.000000)">
                        <rect id="Rectangle" fill="#D8D8D8" opacity="0.01" x="0" y="0" width="24" height="24"></rect>
                        <path d="M5,5 C5,3.8954305 5.8954305,3 7,3 L11,3 C12.1045695,3 13,3.8954305 13,5 L22,5 C22.5522847,5 23,5.44771525 23,6 L23,21 C23,21.5522847 22.5522847,22 22,22 L2,22 C1.44771525,22 1,21.5522847 1,21 L1,6 C1,5.44771525 1.44771525,5 2,5 L5,5 Z M11.5,19 C14.5375661,19 17,16.5375661 17,13.5 C17,10.4624339 14.5375661,8 11.5,8 C8.46243388,8 6,10.4624339 6,13.5 C6,16.5375661 8.46243388,19 11.5,19 Z M18,7 L18,10 L21,10 L21,7 L18,7 Z" id="Rectangle-7" fill="#1B1B1B"></path>
                    </g>
                </g>
            </g>
        </g>
    </g>
</svg>