<?xml version="1.0" encoding="UTF-8"?>
<svg width="72px" height="72px" viewBox="0 0 72 72" version="1.1" xmlns="http://www.w3.org/2000/svg" xmlns:xlink="http://www.w3.org/1999/xlink">
    <!-- Generator: Sketch 52.2 (67145) - http://www.bohemiancoding.com/sketch -->
    <title>Icon/Cannot produce</title>
    <desc>Created with Sketch.</desc>
    <g id="Make" stroke="none" stroke-width="1" fill="none" fill-rule="evenodd">
        <g id="Icon/Cannot-produce">
            <circle id="Oval" stroke="#CECECE" fill="#FFFFFF" cx="36" cy="36" r="35.5"></circle>
            <g id="Group-49" transform="translate(22.000000, 22.000000)">
                <path d="M2.24894387,14.6418236 C3.48043448,14.8110162 4.38787987,14.8110162 4.97128004,14.6418236 C5.5546802,14.472631 6.01366899,14.1214422 6.3482464,13.5882572 L6.3482464,21.4599698 L20.7337888,21.4599698 L20.7337888,13.5882572 C21.1650347,14.1722822 21.6157292,14.5234709 22.0858726,14.6418236 C22.5560159,14.7601762 23.3296522,14.7601762 24.4067814,14.6418236 L24.4067814,21.4599698 L27,27 L0,27 L2.24894387,21.4599698 L2.24894387,14.6418236 Z M2.72739234,0 L24.3785308,0 C26.1261769,5.63033067 27,8.85798934 27,9.68297603 C27,10.920456 25.7967685,12.7171781 23.6592261,12.7171781 C21.5216837,12.7171781 20.7638837,11.26374 20.3714452,10.5777421 C20.0896816,11.4620439 18.5324587,12.7171781 16.8293654,12.7171781 C15.126272,12.7171781 14.2140583,11.6046783 13.4586628,10.5777421 C12.8784693,11.6046783 11.8665166,12.7171781 9.95627631,12.7171781 C8.68278282,12.7171781 7.58497728,12.0040328 6.6628597,10.5777421 C5.73520105,12.3352374 4.4233786,13.0483827 2.72739234,12.7171781 C1.03140609,12.3859735 0.208709312,11.3797652 0.259302013,9.69855304 L2.72739234,0 Z" id="Path-15" fill="#1B1B1B"></path>
                <circle id="Oval" stroke="#1B1B1B" stroke-width="3" fill="#FFFFFF" cx="24" cy="24" r="7"></circle>
                <rect id="Rectangle" fill="#1B1B1B" transform="translate(24.000000, 24.000000) rotate(-315.000000) translate(-24.000000, -24.000000) " x="22.5" y="17" width="3" height="14"></rect>
            </g>
        </g>
    </g>
</svg>