<?xml version="1.0" encoding="UTF-8"?>
<svg width="50px" height="70px" viewBox="0 0 50 70" version="1.1" xmlns="http://www.w3.org/2000/svg" xmlns:xlink="http://www.w3.org/1999/xlink">
    <!-- Generator: Sketch 54.1 (76490) - https://sketchapp.com -->
    <title>Delete</title>
    <desc>Created with Sketch.</desc>
    <g id="Page-1" stroke="none" stroke-width="1" fill="none" fill-rule="evenodd">
        <g id="Delete-Stamp_Left_ZoomIn" transform="translate(-7.000000, -172.000000)" fill-rule="nonzero">
            <g id="Delete" transform="translate(7.000000, 172.000000)">
                <path d="M49.5,50.0188679 L49.5,0.5 L0.5,0.5 L0.5,50.0188679 L10.0480273,50.0188679 L25.0121734,69.2026664 L40.9417483,50.0188679 L49.5,50.0188679 Z" id="bg" stroke="#DADADA" fill="#FFFFFF"></path>
                <g transform="translate(10.000000, 10.000000)">
                    <rect id="mask" fill="#D8D8D8" opacity="0.01" x="0" y="0" width="30" height="30"></rect>
                    <path d="M21,8 L23,8 L25,10 L23,10 L23,28 L21,28 L8,28 L6,28 L6,10 L4,10 L6,8 L8,8 L8,5 L10,3 L19,3 L21,5 L21,8 Z M19,8 L19,5 L10,5 L10,8 L19,8 Z M21,26 L21,10 L8,10 L8,26 L21,26 Z M10,12 L12,12 L12,24 L10,24 L10,12 Z M13.5,12 L15.5,12 L15.5,24 L13.5,24 L13.5,12 Z M17,12 L19,12 L19,24 L17,24 L17,12 Z" id="Shape" fill="#1B1B1B"></path>
                </g>
            </g>
        </g>
    </g>
</svg>