<?xml version="1.0" encoding="UTF-8"?>
<svg width="24px" height="24px" viewBox="0 0 24 24" version="1.1" xmlns="http://www.w3.org/2000/svg" xmlns:xlink="http://www.w3.org/1999/xlink">
    <!-- Generator: Sketch 54.1 (76490) - https://sketchapp.com -->
    <title>dotted-style-pressed</title>
    <desc>Created with Sketch.</desc>
    <g id="页面1" stroke="none" stroke-width="1" fill="none" fill-rule="evenodd">
        <g id="DottedStyle_Pressed" transform="translate(-13.000000, -13.000000)">
            <g id="dotted-style-pressed" transform="translate(13.000000, 13.000000)">
                <rect id="Rectangle" x="0" y="0" width="24" height="24"></rect>
                <path d="M16.7228227,16.0164367 C17.4455763,16.1240693 18,16.7472884 18,17.5 C18,18.3284271 17.3284271,19 16.5,19 C15.6715729,19 15,18.3284271 15,17.5 C15,17.3240037 15.0303104,17.1550867 15.0859959,16.9981845 C15.057481,16.9993908 15.0288116,17 15,17 C13.8954305,17 13,16.1045695 13,15 C13,13.8954305 13.8954305,13 15,13 C16.1045695,13 17,13.8954305 17,15 C17,15.3710924 16.8989329,15.7185793 16.7228227,16.0164367 Z M8.33306288,18.7475895 C8.09476685,18.9070251 7.80824115,19 7.5,19 C6.67157288,19 6,18.3284271 6,17.5 C6,16.6715729 6.67157288,16 7.5,16 C7.80824115,16 8.09476685,16.0929749 8.33306288,16.2524105 C8.76498051,15.5038297 9.57365239,15 10.5,15 C11.8807119,15 13,16.1192881 13,17.5 C13,18.8807119 11.8807119,20 10.5,20 C9.57365239,20 8.76498051,19.4961703 8.33306288,18.7475895 Z M3.00370345,6.08666734 C3.00125138,6.0581043 3,6.02919829 3,6 C3,5.44771525 3.44771525,5 4,5 C4.55228475,5 5,5.44771525 5,6 C5,6.55228475 4.55228475,7 4,7 C3.97080171,7 3.9418957,6.99874862 3.91333266,6.99629655 C3.96944589,7.15373142 4,7.32329756 4,7.5 C4,8.32842712 3.32842712,9 2.5,9 C1.67157288,9 1,8.32842712 1,7.5 C1,6.67157288 1.67157288,6 2.5,6 C2.67670244,6 2.84626858,6.03055411 3.00370345,6.08666734 Z M11.9140041,7.99818449 C11.9696896,8.15508672 12,8.32400367 12,8.5 C12,9.32842712 11.3284271,10 10.5,10 C9.67157288,10 9,9.32842712 9,8.5 C9,7.74728836 9.55442371,7.12406931 10.2771773,7.01643668 C10.1010671,6.71857935 10,6.37109242 10,6 C10,4.8954305 10.8954305,4 12,4 C13.1045695,4 14,4.8954305 14,6 C14,7.1045695 13.1045695,8 12,8 C11.9711884,8 11.942519,7.99939077 11.9140041,7.99818449 Z M8,4 C6.8954305,4 6,3.1045695 6,2 C6,0.8954305 6.8954305,0 8,0 C9.1045695,0 10,0.8954305 10,2 C10,3.1045695 9.1045695,4 8,4 Z M8.5,15 C7.11928813,15 6,13.8807119 6,12.5 C6,11.1192881 7.11928813,10 8.5,10 C9.88071187,10 11,11.1192881 11,12.5 C11,13.8807119 9.88071187,15 8.5,15 Z M6.5,9 C5.67157288,9 5,8.32842712 5,7.5 C5,6.67157288 5.67157288,6 6.5,6 C7.32842712,6 8,6.67157288 8,7.5 C8,8.32842712 7.32842712,9 6.5,9 Z M16.5,3 C15.6715729,3 15,2.32842712 15,1.5 C15,0.671572875 15.6715729,0 16.5,0 C17.3284271,0 18,0.671572875 18,1.5 C18,2.32842712 17.3284271,3 16.5,3 Z M22.5,9 C21.6715729,9 21,8.32842712 21,7.5 C21,6.67157288 21.6715729,6 22.5,6 C23.3284271,6 24,6.67157288 24,7.5 C24,8.32842712 23.3284271,9 22.5,9 Z M12,2 C11.4477153,2 11,1.55228475 11,1 C11,0.44771525 11.4477153,0 12,0 C12.5522847,0 13,0.44771525 13,1 C13,1.55228475 12.5522847,2 12,2 Z M20,6 C19.4477153,6 19,5.55228475 19,5 C19,4.44771525 19.4477153,4 20,4 C20.5522847,4 21,4.44771525 21,5 C21,5.55228475 20.5522847,6 20,6 Z M23,13 C22.4477153,13 22,12.5522847 22,12 C22,11.4477153 22.4477153,11 23,11 C23.5522847,11 24,11.4477153 24,12 C24,12.5522847 23.5522847,13 23,13 Z M18.5,14 C17.6715729,14 17,13.3284271 17,12.5 C17,11.6715729 17.6715729,11 18.5,11 C19.3284271,11 20,11.6715729 20,12.5 C20,13.3284271 19.3284271,14 18.5,14 Z M16,6 C15.4477153,6 15,5.55228475 15,5 C15,4.44771525 15.4477153,4 16,4 C16.5522847,4 17,4.44771525 17,5 C17,5.55228475 16.5522847,6 16,6 Z M18.5,10 C18.2238576,10 18,9.77614237 18,9.5 C18,9.22385763 18.2238576,9 18.5,9 C18.7761424,9 19,9.22385763 19,9.5 C19,9.77614237 18.7761424,10 18.5,10 Z M16,9 C15.4477153,9 15,8.55228475 15,8 C15,7.44771525 15.4477153,7 16,7 C16.5522847,7 17,7.44771525 17,8 C17,8.55228475 16.5522847,9 16,9 Z M13,24 C11.8954305,24 11,23.1045695 11,22 C11,20.8954305 11.8954305,20 13,20 C14.1045695,20 15,20.8954305 15,22 C15,23.1045695 14.1045695,24 13,24 Z M5,20 C4.44771525,20 4,19.5522847 4,19 C4,18.4477153 4.44771525,18 5,18 C5.55228475,18 6,18.4477153 6,19 C6,19.5522847 5.55228475,20 5,20 Z M18,22 C17.4477153,22 17,21.5522847 17,21 C17,20.4477153 17.4477153,20 18,20 C18.5522847,20 19,20.4477153 19,21 C19,21.5522847 18.5522847,22 18,22 Z M20.5,19 C19.6715729,19 19,18.3284271 19,17.5 C19,16.6715729 19.6715729,16 20.5,16 C21.3284271,16 22,16.6715729 22,17.5 C22,18.3284271 21.3284271,19 20.5,19 Z M23,16 C22.4477153,16 22,15.5522847 22,15 C22,14.4477153 22.4477153,14 23,14 C23.5522847,14 24,14.4477153 24,15 C24,15.5522847 23.5522847,16 23,16 Z M13.5,13 C12.6715729,13 12,12.3284271 12,11.5 C12,10.6715729 12.6715729,10 13.5,10 C14.3284271,10 15,10.6715729 15,11.5 C15,12.3284271 14.3284271,13 13.5,13 Z M1.5,13 C0.671572875,13 0,12.3284271 0,11.5 C0,10.6715729 0.671572875,10 1.5,10 C2.32842712,10 3,10.6715729 3,11.5 C3,12.3284271 2.32842712,13 1.5,13 Z M5,13 C4.44771525,13 4,12.5522847 4,12 C4,11.4477153 4.44771525,11 5,11 C5.55228475,11 6,11.4477153 6,12 C6,12.5522847 5.55228475,13 5,13 Z M3,17 C2.44771525,17 2,16.5522847 2,16 C2,15.4477153 2.44771525,15 3,15 C3.55228475,15 4,15.4477153 4,16 C4,16.5522847 3.55228475,17 3,17 Z M8.5,23 C7.67157288,23 7,22.3284271 7,21.5 C7,20.6715729 7.67157288,20 8.5,20 C9.32842712,20 10,20.6715729 10,21.5 C10,22.3284271 9.32842712,23 8.5,23 Z" id="形状" fill="#6A6A6A" fill-rule="nonzero"></path>
            </g>
        </g>
    </g>
</svg>