<svg xmlns="http://www.w3.org/2000/svg" width="24" height="24" viewBox="0 0 24 24">
    <path fill="#1B1B1B" fill-rule="evenodd" d="M16.723 16.016a1.5 1.5 0 1 1-1.637.982 2 2 0 1 1 1.637-.982zm-8.39 2.732a1.5 1.5 0 1 1 0-2.495A2.499 2.499 0 0 1 13 17.5a2.5 2.5 0 0 1-4.667 1.248zM3.003 6.087a1 1 0 1 1 .91.91 1.5 1.5 0 1 1-.91-.91zm8.911 1.911a1.5 1.5 0 1 1-1.637-.982 2 2 0 1 1 1.637.982zM8 4a2 2 0 1 1 0-4 2 2 0 0 1 0 4zm.5 11a2.5 2.5 0 1 1 0-5 2.5 2.5 0 0 1 0 5zm-2-6a1.5 1.5 0 1 1 0-3 1.5 1.5 0 0 1 0 3zm10-6a1.5 1.5 0 1 1 0-3 1.5 1.5 0 0 1 0 3zm6 6a1.5 1.5 0 1 1 0-3 1.5 1.5 0 0 1 0 3zM12 2a1 1 0 1 1 0-2 1 1 0 0 1 0 2zm8 4a1 1 0 1 1 0-2 1 1 0 0 1 0 2zm3 7a1 1 0 1 1 0-2 1 1 0 0 1 0 2zm-4.5 1a1.5 1.5 0 1 1 0-3 1.5 1.5 0 0 1 0 3zM16 6a1 1 0 1 1 0-2 1 1 0 0 1 0 2zm2.5 4a.5.5 0 1 1 0-1 .5.5 0 0 1 0 1zM16 9a1 1 0 1 1 0-2 1 1 0 0 1 0 2zm-3 15a2 2 0 1 1 0-4 2 2 0 0 1 0 4zm-8-4a1 1 0 1 1 0-2 1 1 0 0 1 0 2zm13 2a1 1 0 1 1 0-2 1 1 0 0 1 0 2zm2.5-3a1.5 1.5 0 1 1 0-3 1.5 1.5 0 0 1 0 3zm2.5-3a1 1 0 1 1 0-2 1 1 0 0 1 0 2zm-9.5-3a1.5 1.5 0 1 1 0-3 1.5 1.5 0 0 1 0 3zm-12 0a1.5 1.5 0 1 1 0-3 1.5 1.5 0 0 1 0 3zM5 13a1 1 0 1 1 0-2 1 1 0 0 1 0 2zm-2 4a1 1 0 1 1 0-2 1 1 0 0 1 0 2zm5.5 6a1.5 1.5 0 1 1 0-3 1.5 1.5 0 0 1 0 3z"/>
</svg>
