<?xml version="1.0" encoding="UTF-8"?>
<svg width="364px" height="409px" viewBox="0 0 364 409" version="1.1" xmlns="http://www.w3.org/2000/svg" xmlns:xlink="http://www.w3.org/1999/xlink">
    <!-- Generator: Sketch 54.1 (76490) - https://sketchapp.com -->
    <title>editArea</title>
    <desc>Created with Sketch.</desc>
    <defs>
        <path d="M0,0 L360,0 L360,405 L0,405 L0,0 Z M2,2 L2,134 L119,134 L119,2 L2,2 Z M121,2 L121,134 L238,134 L238,2 L121,2 Z M2,136 L2,268 L119,268 L119,136 L2,136 Z M2,270 L2,403 L119,403 L119,270 L2,270 Z M121,136 L121,268 L238,268 L238,136 L121,136 Z M121,270 L121,403 L238,403 L238,270 L121,270 Z M240,270 L240,403 L358,403 L358,270 L240,270 Z M240,136 L240,268 L358,268 L358,136 L240,136 Z M240,2 L240,134 L358,134 L358,2 L240,2 Z" id="path-1"></path>
        <filter x="-0.8%" y="-0.7%" width="101.7%" height="101.5%" filterUnits="objectBoundingBox" id="filter-2">
            <feOffset dx="0" dy="0" in="SourceAlpha" result="shadowOffsetOuter1"></feOffset>
            <feGaussianBlur stdDeviation="1" in="shadowOffsetOuter1" result="shadowBlurOuter1"></feGaussianBlur>
            <feComposite in="shadowBlurOuter1" in2="SourceAlpha" operator="out" result="shadowBlurOuter1"></feComposite>
            <feColorMatrix values="0 0 0 0 0   0 0 0 0 0   0 0 0 0 0  0 0 0 0.3 0" type="matrix" in="shadowBlurOuter1"></feColorMatrix>
        </filter>
    </defs>
    <g id="页面1" stroke="none" stroke-width="1" fill="none" fill-rule="evenodd">
        <g id="editArea-14" transform="translate(2.000000, 2.000000)">
            <g id="editArea">
                <g id="path-1">
                    <use fill="black" fill-opacity="1" filter="url(#filter-2)" xlink:href="#path-1"></use>
                    <use fill-opacity="0.6" fill="#FFFFFF" fill-rule="evenodd" xlink:href="#path-1"></use>
                </g>
            </g>
        </g>
    </g>
</svg>