<?xml version="1.0" encoding="UTF-8"?>
<svg width="60px" height="60px" viewBox="0 0 60 60" version="1.1" xmlns="http://www.w3.org/2000/svg" xmlns:xlink="http://www.w3.org/1999/xlink">
    <!-- Generator: Sketch 52.2 (67145) - http://www.bohemiancoding.com/sketch -->
    <title>Icon/Warning/Effects</title>
    <desc>Created with Sketch.</desc>
    <g id="Make" stroke="none" stroke-width="1" fill="none" fill-rule="evenodd">
        <g id="Icon/Warning/Effects">
            <circle id="Oval" stroke="#FF0000" stroke-width="4" cx="30" cy="30" r="28"></circle>
            <path d="M28.2673108,16.7724053 C28.3881668,15.4643625 28.2864655,13.3571495 28.4572479,13.158799 C28.6550791,12.9290333 28.7169752,16.9530415 28.5580003,18.4219939 C28.7043361,18.9857971 28.9207591,19.4908338 29.2964528,19.9074396 C30.6268922,21.3827603 29.4999971,17.4312559 30.4932917,17.9316874 C31.4865863,18.4321189 30.32608,20.7497517 30.8086978,21.6788456 C31.2913156,22.6079396 32.0992371,22.9382403 33.7412452,20.4349638 C35.3832532,17.9316874 34.4417196,16.6014175 34.9664192,16.6014175 C35.4911188,16.6014175 34.4417196,17.9568562 36.2218019,18.9781175 C38.0018842,19.9993788 34.6054304,22.244347 38.0777106,24.0824512 C41.5499909,25.9205553 46.545345,20.944087 46.545345,22.1919491 C46.545345,23.4398111 39.6797851,27.1570771 39.6797851,28.9221628 C39.6797851,30.6872484 44.2150341,29.6446342 43.2582085,30.2965751 C42.3013828,30.948516 42.3278138,31.9849216 42.7446478,33.10876 C43.1614818,34.2325983 46.1258644,34.7161143 45.8559392,35.7418262 C45.586014,36.767538 43.7123188,36.0355492 42.2260992,36.0355492 C40.7398796,36.0355492 42.6842748,40.5009385 41.6471777,38.5455231 C40.6100805,36.5901078 37.1425265,36.954659 37.1425265,38.5455231 C37.1425265,40.1363872 40.2860866,45.4341325 39.3466392,46.1343801 C38.4071918,46.8346278 38.4639316,44.7127517 36.6080229,43.6687067 C34.7521141,42.6246617 35.1328229,42.2011944 34.7159889,40.7480117 C34.2991549,39.294829 32.3397755,40.5399436 32.1634178,41.6485058 C31.9870601,42.757068 32.7485415,43.1965117 32.462083,44.1156913 C32.1756244,45.0348709 31.8551278,44.1156913 30.4932917,44.1156913 C29.1314556,44.1156913 29.8535476,48.5594758 28.3489165,47.9735517 C26.8442853,47.3876275 28.3489165,44.7326231 27.9660135,44.1156913 C27.5831105,43.4987595 25.3732706,46.0465239 25.3732706,44.7326231 C25.3732706,43.4187224 27.6244502,42.1602474 27.3365721,41.6485058 C27.0486941,41.1367641 25.3732706,42.3269176 25.3732706,41.6485058 C25.3732706,40.9700939 26.2838785,41.365555 26.1265182,39.686535 C25.9691579,38.007515 19.409962,41.4916945 20.019601,40.1953231 C20.62924,38.8989517 22.9134815,37.1273138 21.4841563,35.0098374 C20.0548312,32.892361 9.81681345,39.2002203 11.1131849,36.0355492 C12.4095563,32.8708781 20.8409585,35.9340651 20.9656078,32.5628704 C20.976161,32.2774525 20.9805575,32.0356581 20.9791899,31.8307163 C19.7525726,31.8749757 17.9768551,31.8245746 17.9768551,31.5823662 C17.9768551,31.2391576 18.4033355,31.2391576 18.8914135,31.2571709 C19.1474944,31.266622 20.1488894,31.3556757 20.9684319,31.4599578 C20.8766341,29.8625283 20.221131,31.5705288 19.409962,29.5500539 C18.4639553,27.1937223 12.756918,29.0757838 12.4095563,27.2316088 C12.0621946,25.3874338 15.6612935,26.629682 16.8208064,26.629682 C17.9803193,26.629682 18.1966901,25.920911 18.5440518,25.4485245 C18.8892292,24.9791086 17.7512274,24.643113 17.5978351,21.7343747 C17.0565962,21.1528684 16.2986706,20.6035714 16.2986706,20.0891585 C16.2986706,19.3295013 17.3909341,20.7632846 17.3909341,19.7358704 C17.3909341,18.7084562 15.9935269,17.7007446 15.8672823,16.8564896 C15.7410376,16.0122346 18.2496111,18.1590321 18.4315108,19.4533802 C18.4767033,19.7749573 18.4904345,20.1859665 18.4829861,20.6082688 C19.5100945,20.8777471 21.0473858,22.3664164 20.9656078,21.6788456 C20.8409585,20.630824 20.1877849,19.4533802 22.0586612,19.9074396 C23.305912,20.2101459 24.7904522,21.30655 26.5122817,23.1966521 L26.669642,21.6788456 L27.3365721,21.6788456 C27.7561997,20.5273112 27.7561997,19.445069 27.3365721,18.4321189 C26.7071308,16.9126939 25.3732706,13.7843317 25.3732706,12.0166884 C25.3732706,10.2490452 26.0402007,11.0960228 27.3365721,13.4719178 C27.9362429,14.5709507 28.1158126,15.7145788 28.2673108,16.7724053 Z M19.409962,26.7471353 C18.417157,27.3160124 20.3987354,28.2013929 21.4841563,28.2013929 C22.5695772,28.2013929 22.5961524,26.8983484 22,26.5383033 C21.4038476,26.1782582 20.4027671,26.1782582 19.409962,26.7471353 Z M20.9656078,23.3229415 C21.090257,24.0576834 21.9638389,25.5123016 22.7011522,25.3033052 C23.4384656,25.0943089 22.5710304,23.911976 22.2570469,23.5375267 C21.9430633,23.1630775 20.8409585,22.5881996 20.9656078,23.3229415 Z M21.6025756,20.6189968 C21.6025756,19.9870969 24.3196084,22.2453183 23.621783,22.5599005 C22.9239576,22.8744827 21.6025756,21.2508967 21.6025756,20.6189968 Z M29.4827496,40.5223635 C29.6690464,39.5530325 29.28643,43.7783077 29.0901104,43.547037 C28.8937907,43.3157664 29.2964528,41.4916945 29.4827496,40.5223635 Z M26.669642,47.9735517 C27.2485586,47.0417595 27.0231793,47.890667 27.0231793,48.9181171 C27.0231793,49.9455672 26.4252358,49.7384179 26.0738819,50.1349267 C25.7225281,50.5314355 26.0907255,48.9053439 26.669642,47.9735517 Z M38.4670439,38.0912578 C37.9792443,37.8490581 38.9668863,37.5029977 39.7209179,37.7971278 C40.4749495,38.0912578 40.6492526,39.2041873 40.06604,38.6779769 C39.4828275,38.1517666 38.9548435,38.3334575 38.4670439,38.0912578 Z M43.6553848,31.9871505 C43.161273,31.3173444 44.1494966,31.1980934 44.9035282,31.4922235 C45.6575598,31.7863535 45.9693277,32.5133609 45.3861152,31.9871505 C44.8029026,31.4609401 44.1494966,32.6569567 43.6553848,31.9871505 Z M47.5444991,31.9871505 C48.0386108,31.9871505 49.5466741,31.7863535 48.7926425,31.4922235 C48.0386108,31.1980934 47.0503873,31.9871505 47.5444991,31.9871505 Z M41.0597868,40.6840007 C40.5719872,40.441801 41.5596291,40.0957406 42.3136608,40.3898706 C43.0676924,40.6840007 43.0170792,42.0179049 42.4338667,41.4916945 C41.8506541,40.9654842 41.5475864,40.9262004 41.0597868,40.6840007 Z M36.8495024,9 C37.3128125,9 36.5368989,13.2256388 36.5368989,13.6996257 C36.5368989,14.1736126 36.2021206,15.1212784 35.8068749,14.6895879 C35.4116292,14.2578975 36.3861922,9 36.8495024,9 Z" id="Path-68" fill="#1B1B1B"></path>
            <polygon id="Rectangle" fill="#FF0000" transform="translate(30.000000, 29.400000) rotate(-315.000000) translate(-30.000000, -29.400000) " points="27.6 1.2 32.4 1.2 32.4 57.6 27.6 57.6"></polygon>
        </g>
    </g>
</svg>