<svg xmlns="http://www.w3.org/2000/svg" width="50" height="50" viewBox="0 0 50 50">
    <g fill="none" fill-rule="evenodd">
        <circle cx="25" cy="25" r="24.5" fill="#FFF" stroke="#DADADA"/>
        <path fill="#1B1B1B" d="M25.722 33.896h-3.223l-1.282-4.065h-5.86l-1.208 4.065H11L16.713 16h3.137l5.872 17.896zm-5.457-7.08h-4.004l1.99-6.641 2.014 6.64zm14.03 5.193c-1.558 1.376-2.957 2.064-4.197 2.064-.729 0-1.335-.239-1.818-.718-.483-.478-.725-1.077-.725-1.797 0-.976.42-1.853 1.258-2.632.839-.78 2.666-1.816 5.483-3.11V24.53c0-.966-.053-1.574-.158-1.825-.105-.25-.303-.47-.594-.656a1.786 1.786 0 0 0-.985-.28c-.592 0-1.08.132-1.463.396-.237.164-.355.356-.355.574 0 .192.127.429.383.711.346.392.52.77.52 1.135 0 .447-.167.827-.5 1.142-.333.314-.768.471-1.306.471-.574 0-1.055-.173-1.442-.52-.387-.346-.581-.751-.581-1.216 0-.656.26-1.283.78-1.88.519-.597 1.243-1.055 2.173-1.374a8.868 8.868 0 0 1 2.899-.479c1.212 0 2.171.258 2.878.773.706.515 1.164 1.073 1.374 1.675.127.383.191 1.262.191 2.638v4.963c0 .584.023.95.068 1.1a.66.66 0 0 0 .205.336.49.49 0 0 0 .315.11c.237 0 .478-.17.724-.507l.41.329c-.455.674-.927 1.164-1.414 1.47a3.064 3.064 0 0 1-1.662.457c-.729 0-1.298-.17-1.709-.512-.41-.342-.66-.86-.751-1.552zm0-.998v-4.28c-1.102.648-1.923 1.34-2.46 2.079-.356.492-.534.989-.534 1.49 0 .42.15.788.452 1.107.227.246.546.37.957.37.455 0 .984-.256 1.586-.766z"/>
    </g>
</svg>
