<svg xmlns="http://www.w3.org/2000/svg" width="72" height="72" viewBox="0 0 72 72">
    <g fill="none" fill-rule="evenodd">
        <circle cx="36" cy="36" r="35.5" fill="#FFF" stroke="#DADADA"/>
        <g fill="#1B1B1B">
            <path d="M28.337 22.2a16.72 16.72 0 0 1 8.306-2.2c3.013 0 5.845.798 8.306 2.2H28.337zM26.54 34.534c.03-.68.063-1.359.096-2.034H59.65c.033.675.065 1.353.096 2.034H26.54zM22.197 48.671a17.257 17.257 0 0 1-4.165-6.1h31.793a17.257 17.257 0 0 1-4.165 6.1H22.197zM27.938 50.786h17.838a17.063 17.063 0 0 1-8.919 2.5c-3.267 0-6.32-.914-8.919-2.5z"/>
            <path d="M22.724 50.814a17.175 17.175 0 0 1-1.556-1.1h20.95c-.498.395-1.017.763-1.556 1.1H22.724z"/>
            <path d="M21.668 49.743a17.364 17.364 0 0 1-1.257-1.1h23.463c-.4.387-.82.754-1.256 1.1h-20.95zM26.452 43.071c-.11-.469-.2-.945-.271-1.428h33.924c-.07.483-.162.96-.272 1.428h-33.38z"/>
            <path d="M25.324 41.686a17.802 17.802 0 0 1-.177-2.9h34.278a18.007 18.007 0 0 1-.177 2.9H25.324z"/>
            <path d="M19.89 39.071c.03-1.156.08-2.3.148-3.428h33.924c.069 1.128.118 2.272.148 3.428H19.89z"/>
            <path d="M6.967 35.677c.088-.618.209-1.225.359-1.82H40.53c.15.595.27 1.202.36 1.82H6.966zM16.708 32.6a17.567 17.567 0 0 1 2.33-5.1H47.39a17.567 17.567 0 0 1 2.331 5.1H16.708z"/>
            <path d="M22.753 27.6a17.78 17.78 0 0 1 2.075-2.6h24.201a17.78 17.78 0 0 1 2.075 2.6H22.753z"/>
            <path d="M24.97 25.32c.247-.356.501-.7.762-1.034h22.679c.26.333.515.678.761 1.034H24.971z"/>
            <path d="M24.946 24.357a17.338 17.338 0 0 1 1.86-1.5h18.96c.652.456 1.273.957 1.859 1.5H24.946z"/>
            <path d="M21.806 23.177c.381-.366.773-.712 1.174-1.034h16.611c.402.322.793.668 1.174 1.034H21.806z"/>
        </g>
    </g>
</svg>
