<svg xmlns="http://www.w3.org/2000/svg" width="24" height="24" viewBox="0 0 24 24">
    <g fill="none" fill-rule="evenodd">
        <path fill="#D8D8D8" d="M0 0h24v24H0z" opacity=".01"/>
        <path fill="#1B1B1B" d="M0 15.645c2.56 0 7.168-4.357 8.231-5.344 1.064-.986 3.846.778 5.245 0 1.398-.778 4.395-5.393 5.247-6.504.852-1.111 3.488-3.786 4.878-2.415 1.39 1.372-1.24 4.282-1.944 5.02-.704.736-5.85 4.2-6.288 5.92-.438 1.72.124 3.945-.23 4.74-.355.793-6.321 5.366-7.642 6.11-1.004-.31-2.866-2.028-5.583-5.151l.538-.96H.985c-.33-.454-.658-.927-.985-1.416zm6.148-1.703l4.697 5.087 2.93-2.316-4.607-5.259-3.02 2.488z"/>
    </g>
</svg>
