<?xml version="1.0" encoding="UTF-8"?>
<svg width="22px" height="20px" viewBox="0 0 22 20" version="1.1" xmlns="http://www.w3.org/2000/svg" xmlns:xlink="http://www.w3.org/1999/xlink">
    <!-- Generator: Sketch 54.1 (76490) - https://sketchapp.com -->
    <title>keyboard_pressed_black</title>
    <desc>Created with Sketch.</desc>
    <g id="Make" stroke="none" stroke-width="1" fill="none" fill-rule="evenodd">
        <g id="C-13&gt;Text-Resize-Instruction" transform="translate(-332.000000, -87.000000)" fill="#6A6A6A">
            <g id="Content" transform="translate(0.000000, 22.000000)">
                <g id="01_Top-Btn" transform="translate(12.000000, 0.000000)">
                    <g id="05_Btn/EjectKeyboard" transform="translate(311.000000, 56.000000)">
                        <g id="Btn/EjectKeyboard_Normal">
                            <g id="keyboard_pressed_black">
                                <g transform="translate(9.000000, 9.000000)">
                                    <g id="keyboard_normal_black">
                                        <g>
                                            <path d="M2,6 L20,6 C21.1045695,6 22,6.8954305 22,8 L22,18 C22,19.1045695 21.1045695,20 20,20 L2,20 C0.8954305,20 1.3527075e-16,19.1045695 0,18 L0,8 C-1.3527075e-16,6.8954305 0.8954305,6 2,6 Z M3,9 L3,10.5 L4.5,10.5 L4.5,9 L3,9 Z M5.5,9 L5.5,10.5 L7,10.5 L7,9 L5.5,9 Z M8,9 L8,10.5 L9.5,10.5 L9.5,9 L8,9 Z M10.5,9 L10.5,10.5 L12,10.5 L12,9 L10.5,9 Z M13,9 L13,10.5 L14.5,10.5 L14.5,9 L13,9 Z M18,9 L18,10.5 L19.5,10.5 L19.5,9 L18,9 Z M15.5,9 L15.5,10.5 L17,10.5 L17,9 L15.5,9 Z M4,12.5 L4,14 L5.5,14 L5.5,12.5 L4,12.5 Z M6.5,12.5 L6.5,14 L8,14 L8,12.5 L6.5,12.5 Z M9,12.5 L9,14 L10.5,14 L10.5,12.5 L9,12.5 Z M11.5,12.5 L11.5,14 L13,14 L13,12.5 L11.5,12.5 Z M14,12.5 L14,14 L15.5,14 L15.5,12.5 L14,12.5 Z M16.5,12.5 L16.5,14 L18,14 L18,12.5 L16.5,12.5 Z M5,16 L5,17.5 L17,17.5 L17,16 L5,16 Z" id="矩形-2"></path>
                                            <polygon id="矩形" transform="translate(11.000000, 1.500000) scale(1, -1) translate(-11.000000, -1.500000) " points="7.5 0 14.5 0 10.9477807 3"></polygon>
                                        </g>
                                    </g>
                                </g>
                            </g>
                        </g>
                    </g>
                </g>
            </g>
        </g>
    </g>
</svg>