<?xml version="1.0" encoding="UTF-8"?>
<svg width="22px" height="20px" viewBox="0 0 22 20" version="1.1" xmlns="http://www.w3.org/2000/svg" xmlns:xlink="http://www.w3.org/1999/xlink">
    <!-- Generator: Sketch 54.1 (76490) - https://sketchapp.com -->
    <title>keyboard_noprmal_white</title>
    <desc>Created with Sketch.</desc>
    <g id="Make" stroke="none" stroke-width="1" fill="none" fill-rule="evenodd">
        <g id="C-12&gt;Text-Input" transform="translate(-332.000000, -33.000000)" fill="#FFFFFF">
            <g id="Content" transform="translate(0.000000, 22.000000)">
                <g id="01_Top-Btn" transform="translate(12.000000, 0.000000)">
                    <g id="04_Btn/RetractKeyboard" transform="translate(311.000000, 0.000000)">
                        <g id="Btn/RetractKeyboard_Normal">
                            <g id="keyboard_noprmal_white">
                                <g transform="translate(9.000000, 11.000000)">
                                    <g>
                                        <path d="M2,0 L20,0 C21.1045695,-2.02906125e-16 22,0.8954305 22,2 L22,12 C22,13.1045695 21.1045695,14 20,14 L2,14 C0.8954305,14 1.3527075e-16,13.1045695 0,12 L0,2 C-1.3527075e-16,0.8954305 0.8954305,2.02906125e-16 2,0 Z M3,3 L3,4.5 L4.5,4.5 L4.5,3 L3,3 Z M5.5,3 L5.5,4.5 L7,4.5 L7,3 L5.5,3 Z M8,3 L8,4.5 L9.5,4.5 L9.5,3 L8,3 Z M10.5,3 L10.5,4.5 L12,4.5 L12,3 L10.5,3 Z M13,3 L13,4.5 L14.5,4.5 L14.5,3 L13,3 Z M18,3 L18,4.5 L19.5,4.5 L19.5,3 L18,3 Z M15.5,3 L15.5,4.5 L17,4.5 L17,3 L15.5,3 Z M4,6.5 L4,8 L5.5,8 L5.5,6.5 L4,6.5 Z M6.5,6.5 L6.5,8 L8,8 L8,6.5 L6.5,6.5 Z M9,6.5 L9,8 L10.5,8 L10.5,6.5 L9,6.5 Z M11.5,6.5 L11.5,8 L13,8 L13,6.5 L11.5,6.5 Z M14,6.5 L14,8 L15.5,8 L15.5,6.5 L14,6.5 Z M16.5,6.5 L16.5,8 L18,8 L18,6.5 L16.5,6.5 Z M5,10 L5,11.5 L17,11.5 L17,10 L5,10 Z" id="矩形-2"></path>
                                        <polygon id="矩形" points="7.5 17 14.5 17 10.9477807 20"></polygon>
                                    </g>
                                </g>
                            </g>
                        </g>
                    </g>
                </g>
            </g>
        </g>
    </g>
</svg>