<?xml version="1.0" encoding="UTF-8"?>
<svg width="50px" height="50px" viewBox="0 0 50 50" version="1.1" xmlns="http://www.w3.org/2000/svg" xmlns:xlink="http://www.w3.org/1999/xlink">
    <!-- Generator: Sketch 54.1 (76490) - https://sketchapp.com -->
    <title>Btn/Icon/LineStyle_Normal</title>
    <desc>Created with Sketch.</desc>
    <g id="Make" stroke="none" stroke-width="1" fill="none" fill-rule="evenodd">
        <g id="C-39&gt;MoMa-Early-Morden-Selection" transform="translate(-151.000000, -601.000000)">
            <g id="Content">
                <g id="01_Popup">
                    <g id="Btn/Icon/LineStyle" transform="translate(151.000000, 601.000000)">
                        <g id="Btn/Icon/LineStyle_Normal">
                            <g>
                                <circle id="Oval" stroke="#DADADA" fill="#FFFFFF" cx="25" cy="25" r="24.5"></circle>
                                <g id="Icon/LineStyle" transform="translate(13.000000, 13.000000)">
                                    <rect id="Rectangle" fill="#D8D8D8" opacity="0.01" x="0" y="0" width="24" height="24"></rect>
                                    <g id="Group-37" transform="translate(2.000000, 2.000000)" stroke="#1B1B1B" stroke-linecap="round">
                                        <path d="M10,8 C8.8954305,8 8,8.8954305 8,10 C8,11.1045695 8.8954305,12 10,12 L10,12 C11.1045695,12 12,11.1045695 12,10" id="Path"></path>
                                        <path d="M6.06540327,9.2757374 C6.02244296,9.5106327 6,9.75269543 6,10 C6,12.209139 7.790861,14 10,14 L10,14 C12.209139,14 14,12.209139 14,10 C14,7.790861 12.209139,6 10,6 C9.83202798,6 9.66647417,6.01035356 9.50394193,6.03045731" id="Path"></path>
                                        <path d="M3.84813473,4.88552792 C2.69410895,6.27210604 2,8.0549941 2,10 C2,12.6815642 3.31935659,15.0549761 5.3443444,16.5065104 M10,18 C14.418278,18 18,14.418278 18,10 M17.7129717,7.86870573 C16.7800598,4.48506552 13.680239,2 10,2 C9.26437474,2 8.55193955,2.09928853 7.87536452,2.2851955" id="Shape"></path>
                                        <path d="M12.2717538,4.44499342 C11.5710404,4.1581331 10.8039872,4 10,4 C6.6862915,4 4,6.6862915 4,10 C4,10.3181752 4.02476607,10.6305659 4.07247563,10.9353496 M6.58237298,14.932168 C7.55215337,15.6054211 8.72999727,16 10,16 C13.3137085,16 16,13.3137085 16,10 C16,9.24310501 15.8598491,8.51894401 15.6040828,7.85205245" id="Shape"></path>
                                        <path d="M0.0192241872,10.6251694 C0.301571728,15.2025133 3.66318803,18.9466542 8.05804836,19.8115672 M12.6655423,19.6408218 C16.8943655,18.4742048 20,14.5997823 20,10 C20,6.65183534 18.3545321,3.68799028 15.8281535,1.87302189 M11.4339765,0.102044441 C10.9656796,0.0347985989 10.4869036,0 10,0 C5.98638534,0 2.52503919,2.36454255 0.932994044,5.77659514" id="Shape"></path>
                                    </g>
                                </g>
                            </g>
                        </g>
                    </g>
                </g>
            </g>
        </g>
    </g>
</svg>