<svg xmlns="http://www.w3.org/2000/svg" width="24" height="24" viewBox="0 0 24 24">
    <g fill="none" fill-rule="evenodd">
        <path fill="#D8D8D8" d="M0 0h24v24H0z" opacity=".01"/>
        <g stroke="#1B1B1B" stroke-linecap="round">
            <path d="M12 10a2 2 0 1 0 0 4 2 2 0 0 0 2-2"/>
            <path d="M8.065 11.276A4 4 0 0 0 12 16a4 4 0 1 0-.496-7.97M5.848 6.886A7.968 7.968 0 0 0 4 12a7.99 7.99 0 0 0 3.344 6.507M12 20a8 8 0 0 0 8-8m-.287-2.131a8.003 8.003 0 0 0-9.838-5.584"/>
            <path d="M14.272 6.445a6 6 0 0 0-8.2 6.49m2.51 3.997a6 6 0 0 0 9.022-7.08"/>
            <path d="M2.02 12.625c.282 4.578 3.643 8.322 8.038 9.187m4.608-.171C18.894 20.474 22 16.6 22 12a9.987 9.987 0 0 0-4.172-8.127m-4.394-1.771A10.001 10.001 0 0 0 2.933 7.777"/>
        </g>
    </g>
</svg>
