<svg xmlns="http://www.w3.org/2000/svg" width="24" height="24" viewBox="0 0 24 24">
    <g fill="none" fill-rule="evenodd">
        <path d="M0 0h24v24H0z"/>
        <path fill="#ABABAB" fill-rule="nonzero" d="M4.434 11.138l3.372 3.371a4.766 4.766 0 0 0 6.741 0c.293-.292.523-.622.724-.961l-1.567-1.567c-.074-.075-.166-.118-.254-.169-.108.37-.297.72-.588 1.012-.93.93-2.442.928-3.37 0L6.12 9.453a2.385 2.385 0 0 1 0-3.371c.93-.93 2.441-.93 3.371 0l1.199 1.2a5.98 5.98 0 0 1 3.04-.332l-2.554-2.554a4.768 4.768 0 0 0-6.742 6.742zm8.914 5.543l1.2 1.2c.929.929 2.44.929 3.37 0 .93-.93.93-2.442 0-3.372l-3.37-3.37a2.385 2.385 0 0 0-3.372 0c-.29.29-.48.64-.588 1.01-.089-.052-.18-.094-.254-.168l-1.567-1.566c.2-.341.43-.67.724-.962a4.767 4.767 0 0 1 6.742 0l3.37 3.37a4.768 4.768 0 0 1-6.741 6.743l-2.555-2.555c1.02.15 2.069.048 3.04-.33z"/>
    </g>
</svg>
