<?xml version="1.0" encoding="UTF-8"?>
<svg width="40px" height="40px" viewBox="0 0 40 40" version="1.1" xmlns="http://www.w3.org/2000/svg" xmlns:xlink="http://www.w3.org/1999/xlink">
    <!-- Generator: Sketch 54.1 (76490) - https://sketchapp.com -->
    <title>Btn/MoMAEarlyMordenStyle_Normal</title>
    <desc>Created with Sketch.</desc>
    <g id="Symbols" stroke="none" stroke-width="1" fill="none" fill-rule="evenodd">
        <g id="Btn/MoMAEarlyMordenStyle_Normal">
            <g>
                <circle id="Oval" stroke="#DADADA" fill="#FFFFFF" cx="20" cy="20" r="19.5"></circle>
                <path d="M20.5872859,18.3550604 C20.8509862,16.1521566 22.7260643,14.4444444 25,14.4444444 C27.4545989,14.4444444 29.4444444,16.43429 29.4444444,18.8888889 C29.4444444,21.3434878 27.4545989,23.3333333 25,23.3333333 C23.3416989,23.3333333 21.895521,22.4251259 21.1317336,21.0789781 C21.0356136,21.1000218 20.9357685,21.1111111 20.8333333,21.1111111 C20.0662712,21.1111111 19.4444444,20.4892844 19.4444444,19.7222222 C19.4444444,19.0391245 19.9375887,18.4712067 20.5872859,18.3550604 Z M9.4631114,12.8793383 C9.5439715,12.5037334 9.87799941,12.2222222 10.2777778,12.2222222 C10.7380151,12.2222222 11.1111111,12.5953183 11.1111111,13.0555556 C11.1111111,13.4553339 10.8296,13.7893618 10.453995,13.8702219 C10.5196935,14.0492363 10.5555556,14.2426524 10.5555556,14.4444444 C10.5555556,15.364919 9.80936347,16.1111111 8.88888889,16.1111111 C7.96841431,16.1111111 7.22222222,15.364919 7.22222222,14.4444444 C7.22222222,13.5239699 7.96841431,12.7777778 8.88888889,12.7777778 C9.09068098,12.7777778 9.28409704,12.8136398 9.4631114,12.8793383 Z M24.9261105,26.6815263 C25.5965132,26.7801499 26.1111111,27.3577573 26.1111111,28.0555556 C26.1111111,28.8226177 25.4892844,29.4444444 24.7222222,29.4444444 C24.024424,29.4444444 23.4468165,28.9298465 23.3481929,28.2594438 C23.166162,28.3076492 22.9749693,28.3333333 22.7777778,28.3333333 C21.5504783,28.3333333 20.5555556,27.3384106 20.5555556,26.1111111 C20.5555556,24.8838117 21.5504783,23.8888889 22.7777778,23.8888889 C24.0050772,23.8888889 25,24.8838117 25,26.1111111 C25,26.3083026 24.9743159,26.4994953 24.9261105,26.6815263 Z M17.6484797,15.0078434 C17.3793484,14.6090454 17.2222222,14.1284277 17.2222222,13.6111111 C17.2222222,12.2303992 18.3415103,11.1111111 19.7222222,11.1111111 C21.1029341,11.1111111 22.2222222,12.2303992 22.2222222,13.6111111 C22.2222222,14.991823 21.1029341,16.1111111 19.7222222,16.1111111 C19.4023113,16.1111111 19.0964349,16.0510223 18.8152638,15.9415154 C18.8629974,16.0818931 18.8888889,16.2323673 18.8888889,16.3888889 C18.8888889,17.155951 18.2670622,17.7777778 17.5,17.7777778 C16.7329378,17.7777778 16.1111111,17.155951 16.1111111,16.3888889 C16.1111111,15.6218267 16.7329378,15 17.5,15 C17.5501587,15 17.5996963,15.0026589 17.6484797,15.0078434 Z M14.7222222,11.1111111 C13.6483352,11.1111111 12.7777778,10.2405537 12.7777778,9.16666667 C12.7777778,8.09277965 13.6483352,7.22222222 14.7222222,7.22222222 C15.7961092,7.22222222 16.6666667,8.09277965 16.6666667,9.16666667 C16.6666667,10.2405537 15.7961092,11.1111111 14.7222222,11.1111111 Z M13.6111111,16.1111111 C12.844049,16.1111111 12.2222222,15.4892844 12.2222222,14.7222222 C12.2222222,13.9551601 12.844049,13.3333333 13.6111111,13.3333333 C14.3781733,13.3333333 15,13.9551601 15,14.7222222 C15,15.4892844 14.3781733,16.1111111 13.6111111,16.1111111 Z M15.8333333,23.3333333 C14.4526215,23.3333333 13.3333333,22.2140452 13.3333333,20.8333333 C13.3333333,19.4526215 14.4526215,18.3333333 15.8333333,18.3333333 C17.2140452,18.3333333 18.3333333,19.4526215 18.3333333,20.8333333 C18.3333333,22.2140452 17.2140452,23.3333333 15.8333333,23.3333333 Z M17.5,29.4444444 C16.1192881,29.4444444 15,28.3251563 15,26.9444444 C15,25.5637326 16.1192881,24.4444444 17.5,24.4444444 C18.8807119,24.4444444 20,25.5637326 20,26.9444444 C20,28.3251563 18.8807119,29.4444444 17.5,29.4444444 Z M7.5,21.1111111 C6.73293785,21.1111111 6.11111111,20.4892844 6.11111111,19.7222222 C6.11111111,18.9551601 6.73293785,18.3333333 7.5,18.3333333 C8.26706215,18.3333333 8.88888889,18.9551601 8.88888889,19.7222222 C8.88888889,20.4892844 8.26706215,21.1111111 7.5,21.1111111 Z M13.6111111,27.7777778 C12.844049,27.7777778 12.2222222,27.155951 12.2222222,26.3888889 C12.2222222,25.6218267 12.844049,25 13.6111111,25 C14.3781733,25 15,25.6218267 15,26.3888889 C15,27.155951 14.3781733,27.7777778 13.6111111,27.7777778 Z M15.2777778,32.7777778 C14.5107156,32.7777778 13.8888889,32.155951 13.8888889,31.3888889 C13.8888889,30.6218267 14.5107156,30 15.2777778,30 C16.0448399,30 16.6666667,30.6218267 16.6666667,31.3888889 C16.6666667,32.155951 16.0448399,32.7777778 15.2777778,32.7777778 Z M20.8333333,33.8888889 C20.0662712,33.8888889 19.4444444,33.2670622 19.4444444,32.5 C19.4444444,31.7329378 20.0662712,31.1111111 20.8333333,31.1111111 C21.6003955,31.1111111 22.2222222,31.7329378 22.2222222,32.5 C22.2222222,33.2670622 21.6003955,33.8888889 20.8333333,33.8888889 Z M26.6666667,31.6666667 C26.3598418,31.6666667 26.1111111,31.417936 26.1111111,31.1111111 C26.1111111,30.8042863 26.3598418,30.5555556 26.6666667,30.5555556 C26.9734915,30.5555556 27.2222222,30.8042863 27.2222222,31.1111111 C27.2222222,31.417936 26.9734915,31.6666667 26.6666667,31.6666667 Z M32.2222222,23.8888889 C31.9153974,23.8888889 31.6666667,23.6401582 31.6666667,23.3333333 C31.6666667,23.0265085 31.9153974,22.7777778 32.2222222,22.7777778 C32.5290471,22.7777778 32.7777778,23.0265085 32.7777778,23.3333333 C32.7777778,23.6401582 32.5290471,23.8888889 32.2222222,23.8888889 Z M20,8.33333333 C19.6931751,8.33333333 19.4444444,8.08460264 19.4444444,7.77777778 C19.4444444,7.47095292 19.6931751,7.22222222 20,7.22222222 C20.3068249,7.22222222 20.5555556,7.47095292 20.5555556,7.77777778 C20.5555556,8.08460264 20.3068249,8.33333333 20,8.33333333 Z M8.88888889,25 C8.58206403,25 8.33333333,24.7512693 8.33333333,24.4444444 C8.33333333,24.1376196 8.58206403,23.8888889 8.88888889,23.8888889 C9.19571375,23.8888889 9.44444444,24.1376196 9.44444444,24.4444444 C9.44444444,24.7512693 9.19571375,25 8.88888889,25 Z M11.9444444,21.1111111 C11.4842072,21.1111111 11.1111111,20.7380151 11.1111111,20.2777778 C11.1111111,19.8175405 11.4842072,19.4444444 11.9444444,19.4444444 C12.4046817,19.4444444 12.7777778,19.8175405 12.7777778,20.2777778 C12.7777778,20.7380151 12.4046817,21.1111111 11.9444444,21.1111111 Z M11.3888889,29.4444444 C10.9286516,29.4444444 10.5555556,29.0713484 10.5555556,28.6111111 C10.5555556,28.1508738 10.9286516,27.7777778 11.3888889,27.7777778 C11.8491262,27.7777778 12.2222222,28.1508738 12.2222222,28.6111111 C12.2222222,29.0713484 11.8491262,29.4444444 11.3888889,29.4444444 Z M24.7222222,9.44444444 C23.9551601,9.44444444 23.3333333,8.82261771 23.3333333,8.05555556 C23.3333333,7.2884934 23.9551601,6.66666667 24.7222222,6.66666667 C25.4892844,6.66666667 26.1111111,7.2884934 26.1111111,8.05555556 C26.1111111,8.82261771 25.4892844,9.44444444 24.7222222,9.44444444 Z M24.1666667,13.3333333 C23.3996045,13.3333333 22.7777778,12.7115066 22.7777778,11.9444444 C22.7777778,11.1773823 23.3996045,10.5555556 24.1666667,10.5555556 C24.9337288,10.5555556 25.5555556,11.1773823 25.5555556,11.9444444 C25.5555556,12.7115066 24.9337288,13.3333333 24.1666667,13.3333333 Z M31.9444444,17.2222222 C30.8705574,17.2222222 30,16.3516648 30,15.2777778 C30,14.2038908 30.8705574,13.3333333 31.9444444,13.3333333 C33.0183315,13.3333333 33.8888889,14.2038908 33.8888889,15.2777778 C33.8888889,16.3516648 33.0183315,17.2222222 31.9444444,17.2222222 Z M31.9444444,21.6666667 C31.1773823,21.6666667 30.5555556,21.0448399 30.5555556,20.2777778 C30.5555556,19.5107156 31.1773823,18.8888889 31.9444444,18.8888889 C32.7115066,18.8888889 33.3333333,19.5107156 33.3333333,20.2777778 C33.3333333,21.0448399 32.7115066,21.6666667 31.9444444,21.6666667 Z M29.7222222,28.8888889 C28.9551601,28.8888889 28.3333333,28.2670622 28.3333333,27.5 C28.3333333,26.7329378 28.9551601,26.1111111 29.7222222,26.1111111 C30.4892844,26.1111111 31.1111111,26.7329378 31.1111111,27.5 C31.1111111,28.2670622 30.4892844,28.8888889 29.7222222,28.8888889 Z M29.1666667,13.3333333 C28.3996045,13.3333333 27.7777778,12.7115066 27.7777778,11.9444444 C27.7777778,11.1773823 28.3996045,10.5555556 29.1666667,10.5555556 C29.9337288,10.5555556 30.5555556,11.1773823 30.5555556,11.9444444 C30.5555556,12.7115066 29.9337288,13.3333333 29.1666667,13.3333333 Z" id="Oval-15" fill="#1B1B1B"></path>
            </g>
        </g>
    </g>
</svg>