<?xml version="1.0" encoding="UTF-8"?>
<svg width="40px" height="40px" viewBox="0 0 40 40" version="1.1" xmlns="http://www.w3.org/2000/svg" xmlns:xlink="http://www.w3.org/1999/xlink">
    <!-- Generator: Sketch 54.1 (76490) - https://sketchapp.com -->
    <title>Btn/AUTODESIGNER_Normal</title>
    <desc>Created with Sketch.</desc>
    <g id="Symbols" stroke="none" stroke-width="1" fill="none" fill-rule="evenodd">
        <g id="Btn/AUTODESIGNER_Normal">
            <g>
                <circle id="Oval" stroke="#DADADA" fill="#FFFFFF" cx="20" cy="20" r="19.5"></circle>
                <path d="M20.1829806,25.0837743 C17.827004,25.0837743 15.9171076,23.1738778 15.9171076,20.8179012 C15.9171076,18.4619246 17.827004,16.5520282 20.1829806,16.5520282 C22.5389572,16.5520282 24.4488536,18.4619246 24.4488536,20.8179012 C24.4488536,23.1738778 22.5389572,25.0837743 20.1829806,25.0837743 Z M23.5008818,9.72663139 C22.349071,9.72663139 21.4153439,8.79290426 21.4153439,7.64109347 C21.4153439,6.48928269 22.349071,5.55555556 23.5008818,5.55555556 C24.6526926,5.55555556 25.5864198,6.48928269 25.5864198,7.64109347 C25.5864198,8.79290426 24.6526926,9.72663139 23.5008818,9.72663139 Z M20.0881834,13.1393298 C18.9363726,13.1393298 18.0026455,12.2056027 18.0026455,11.0537919 C18.0026455,9.9019811 18.9363726,8.96825397 20.0881834,8.96825397 C21.2399942,8.96825397 22.1737213,9.9019811 22.1737213,11.0537919 C22.1737213,12.2056027 21.2399942,13.1393298 20.0881834,13.1393298 Z M16.8650794,16.3624339 C15.7132686,16.3624339 14.7795414,15.4287067 14.7795414,14.2768959 C14.7795414,13.1250852 15.7132686,12.191358 16.8650794,12.191358 C18.0168902,12.191358 18.9506173,13.1250852 18.9506173,14.2768959 C18.9506173,15.4287067 18.0168902,16.3624339 16.8650794,16.3624339 Z M30.1366843,22.808642 C28.9848735,22.808642 28.0511464,21.8749148 28.0511464,20.7231041 C28.0511464,19.5712933 28.9848735,18.6375661 30.1366843,18.6375661 C31.2884951,18.6375661 32.2222222,19.5712933 32.2222222,20.7231041 C32.2222222,21.8749148 31.2884951,22.808642 30.1366843,22.808642 Z M26.7239859,26.2213404 C25.5721751,26.2213404 24.638448,25.2876133 24.638448,24.1358025 C24.638448,22.9839917 25.5721751,22.0502646 26.7239859,22.0502646 C27.8757967,22.0502646 28.8095238,22.9839917 28.8095238,24.1358025 C28.8095238,25.2876133 27.8757967,26.2213404 26.7239859,26.2213404 Z M23.5008818,29.4444444 C22.349071,29.4444444 21.4153439,28.5107173 21.4153439,27.3589065 C21.4153439,26.2070957 22.349071,25.2733686 23.5008818,25.2733686 C24.6526926,25.2733686 25.5864198,26.2070957 25.5864198,27.3589065 C25.5864198,28.5107173 24.6526926,29.4444444 23.5008818,29.4444444 Z M16.8650794,29.4444444 C15.7132686,29.4444444 14.7795414,28.5107173 14.7795414,27.3589065 C14.7795414,26.2070957 15.7132686,25.2733686 16.8650794,25.2733686 C18.0168902,25.2733686 18.9506173,26.2070957 18.9506173,27.3589065 C18.9506173,28.5107173 18.0168902,29.4444444 16.8650794,29.4444444 Z M13.531746,26.1111111 C12.3799352,26.1111111 11.4462081,25.177384 11.4462081,24.0255732 C11.4462081,22.8737624 12.3799352,21.9400353 13.531746,21.9400353 C14.6835568,21.9400353 15.617284,22.8737624 15.617284,24.0255732 C15.617284,25.177384 14.6835568,26.1111111 13.531746,26.1111111 Z M13.6419753,32.6675485 C12.4901645,32.6675485 11.5564374,31.7338214 11.5564374,30.5820106 C11.5564374,29.4301998 12.4901645,28.4964727 13.6419753,28.4964727 C14.7937861,28.4964727 15.7275132,29.4301998 15.7275132,30.5820106 C15.7275132,31.7338214 14.7937861,32.6675485 13.6419753,32.6675485 Z M13.6419753,19.5855379 C12.4901645,19.5855379 11.5564374,18.6518108 11.5564374,17.5 C11.5564374,16.3481892 12.4901645,15.4144621 13.6419753,15.4144621 C14.7937861,15.4144621 15.7275132,16.3481892 15.7275132,17.5 C15.7275132,18.6518108 14.7937861,19.5855379 13.6419753,19.5855379 Z M10.4188713,16.3624339 C9.26706046,16.3624339 8.33333333,15.4287067 8.33333333,14.2768959 C8.33333333,13.1250852 9.26706046,12.191358 10.4188713,12.191358 C11.570682,12.191358 12.5044092,13.1250852 12.5044092,14.2768959 C12.5044092,15.4287067 11.570682,16.3624339 10.4188713,16.3624339 Z" id="Oval-9-Copy" fill="#1B1B1B"></path>
            </g>
        </g>
    </g>
</svg>