<?xml version="1.0" encoding="UTF-8"?>
<svg width="40px" height="40px" viewBox="0 0 40 40" version="1.1" xmlns="http://www.w3.org/2000/svg" xmlns:xlink="http://www.w3.org/1999/xlink">
    <!-- Generator: Sketch 54.1 (76490) - https://sketchapp.com -->
    <title>Btn/GLITCH_Normal</title>
    <desc>Created with Sketch.</desc>
    <g id="Symbols" stroke="none" stroke-width="1" fill="none" fill-rule="evenodd">
        <g id="Btn/GLITCH_Normal">
            <g>
                <circle id="Oval" stroke="#DADADA" fill="#FFFFFF" cx="20" cy="20" r="19.5"></circle>
                <g id="Group-25-Copy" transform="translate(3.333333, 11.111111)" fill="#1B1B1B">
                    <path d="M12.4095153,1.22222222 C13.7764793,0.44346753 15.3497009,0 17.0238095,0 C18.6979182,0 20.2711398,0.44346753 21.6381038,1.22222222 L12.4095153,1.22222222 Z" id="Oval-5"></path>
                    <path d="M11.4111527,8.07471278 C11.4282483,7.69634346 11.4460423,7.31957159 11.4645266,6.94444444 L29.8053147,6.94444444 C29.823799,7.31957159 29.841593,7.69634346 29.8586885,8.07471278 L11.4111527,8.07471278 Z" id="Oval-5"></path>
                    <path d="M8.99834233,15.9285714 C8.00130487,14.9880536 7.20592351,13.8342616 6.68434569,12.5396825 L24.3474003,12.5396825 C23.8258225,13.8342616 23.0304412,14.9880536 22.0334037,15.9285714 L8.99834233,15.9285714 Z" id="Oval-5"></path>
                    <path d="M12.1878394,17.1031746 L22.0978749,17.1031746 C20.6543072,17.9843406 18.9578747,18.4920635 17.1428571,18.4920635 C15.3278396,18.4920635 13.6314071,17.9843406 12.1878394,17.1031746 Z" id="Oval-5"></path>
                    <path d="M9.29101398,17.5079365 C8.99162558,17.2009178 8.70311355,16.8669137 8.42667574,16.5079365 L20.0653877,16.5079365 C19.7889499,16.8669137 19.5004379,17.2009178 19.2010495,17.5079365 L9.29101398,17.5079365 Z" id="Oval-5"></path>
                    <path d="M8.70445352,16.9126984 C8.46218613,16.5980943 8.22919247,16.2643095 8.00627884,15.9126984 L21.0413402,15.9126984 C20.8184266,16.2643095 20.5854329,16.5980943 20.3431655,16.9126984 L8.70445352,16.9126984 Z" id="Oval-5"></path>
                    <path d="M11.3623644,13.0238095 C11.301264,12.695464 11.2508651,12.3619253 11.2116565,12.0238095 L30.0581848,12.0238095 C30.0189762,12.3619253 29.9685773,12.695464 29.9074769,13.0238095 L11.3623644,13.0238095 Z" id="Oval-5"></path>
                    <path d="M10.735466,12.047619 C10.6692217,11.5874388 10.6349206,11.1167336 10.6349206,10.6378968 C10.6349206,10.5706044 10.6355981,10.5034725 10.6369464,10.4365079 L29.6805139,10.4365079 C29.6818623,10.5034725 29.6825397,10.5706044 29.6825397,10.6378968 C29.6825397,11.1167336 29.6482386,11.5874388 29.5819943,12.047619 L10.735466,12.047619 Z" id="Oval-5"></path>
                    <path d="M7.7167115,10.5952379 C7.73321926,9.95277543 7.76078517,9.31749393 7.79895806,8.69047619 L26.6454864,8.69047619 C26.6836593,9.31749393 26.7112252,9.95277543 26.7277329,10.5952379 L7.7167115,10.5952379 Z" id="Oval-5"></path>
                    <path d="M0.537053296,8.70952381 C0.586253609,8.3663288 0.653074377,8.02896357 0.736549568,7.6984127 L19.1840854,7.6984127 C19.2675605,8.02896357 19.3343813,8.3663288 19.3835816,8.70952381 L0.537053296,8.70952381 Z" id="Oval-5"></path>
                    <path d="M5.94865355,7 C6.23008406,5.97732992 6.67151731,5.02292794 7.24366643,4.16666667 L22.9944288,4.16666667 C23.5665779,5.02292794 24.0080112,5.97732992 24.2894417,7 L5.94865355,7 Z" id="Oval-5"></path>
                    <path d="M9.30715849,4.22222222 C9.64726427,3.70324985 10.033559,3.21963581 10.459891,2.77777778 L23.9051884,2.77777778 C24.3315204,3.21963581 24.7178151,3.70324985 25.0579209,4.22222222 L9.30715849,4.22222222 Z" id="Oval-5"></path>
                    <path d="M10.5392561,3.38095238 C10.6762145,3.03700613 10.8173047,2.70350148 10.9623229,2.38095238 L23.5614867,2.38095238 C23.7065048,2.70350148 23.8475951,3.03700613 23.9845534,3.38095238 L10.5392561,3.38095238 Z" id="Oval-5"></path>
                    <path d="M10.5258149,2.58730159 C10.8512193,2.22541978 11.1964008,1.8911187 11.5590554,1.58730159 L22.0917383,1.58730159 C22.4543929,1.8911187 22.7995744,2.22541978 23.1249787,2.58730159 L10.5258149,2.58730159 Z" id="Oval-5"></path>
                    <path d="M8.78127714,2.19047662 C8.99283274,1.83601167 9.21033443,1.50229412 9.43332479,1.19047665 L18.6619133,1.19047665 C18.8849035,1.50229391 19.1024051,1.83601123 19.3139605,2.19047592 L8.78127714,2.19047662 Z" id="Oval-4"></path>
                </g>
            </g>
        </g>
    </g>
</svg>