<?xml version="1.0" encoding="UTF-8"?>
<svg width="40px" height="40px" viewBox="0 0 40 40" version="1.1" xmlns="http://www.w3.org/2000/svg" xmlns:xlink="http://www.w3.org/1999/xlink">
    <!-- Generator: Sketch 54.1 (76490) - https://sketchapp.com -->
    <title>Btn/MoMACollage_Normal</title>
    <desc>Created with Sketch.</desc>
    <g id="Symbols" stroke="none" stroke-width="1" fill="none" fill-rule="evenodd">
        <g id="Btn/MoMACollage_Normal">
            <g>
                <circle id="Oval" stroke="#DADADA" fill="#FFFFFF" cx="20" cy="20" r="19.5"></circle>
                <path d="M15.5555556,24.4444444 L19.4444444,24.4444444 L19.4444444,27.2222222 L15.5555556,27.2222222 L12.7777778,27.2222222 L12.7777778,12.2222222 L15.5555556,12.2222222 L15.5555556,24.4444444 Z M24.4444444,14.4444444 L24.4444444,12.7777778 L27.2222222,12.7777778 L27.2222222,14.4444444 L27.2222222,17.2222222 L20.5555556,17.2222222 L20.5555556,14.4444444 L24.4444444,14.4444444 Z M16.6666667,9.44444444 L23.3333333,9.44444444 L23.3333333,13.3333333 L16.6666667,13.3333333 L16.6666667,9.44444444 Z M20.5555556,18.3333333 L27.2222222,18.3333333 L27.2222222,27.2222222 L20.5555556,27.2222222 L20.5555556,18.3333333 Z M16.6666667,14.4444444 L19.4444444,14.4444444 L19.4444444,23.3333333 L16.6666667,23.3333333 L16.6666667,14.4444444 Z M10,16.6666667 L11.6666667,16.6666667 L11.6666667,23.3333333 L10,23.3333333 L10,16.6666667 Z M28.3333333,16.6666667 L30,16.6666667 L30,23.3333333 L28.3333333,23.3333333 L28.3333333,16.6666667 Z M16.6666667,28.3333333 L23.3333333,28.3333333 L23.3333333,30 L16.6666667,30 L16.6666667,28.3333333 Z" id="Rectangle-14" fill="#1B1B1B"></path>
            </g>
        </g>
    </g>
</svg>