<?xml version="1.0" encoding="UTF-8"?>
<svg width="40px" height="40px" viewBox="0 0 40 40" version="1.1" xmlns="http://www.w3.org/2000/svg" xmlns:xlink="http://www.w3.org/1999/xlink">
    <!-- Generator: Sketch 54.1 (76490) - https://sketchapp.com -->
    <title>Btn/SPLASH_Normal</title>
    <desc>Created with Sketch.</desc>
    <g id="Symbols" stroke="none" stroke-width="1" fill="none" fill-rule="evenodd">
        <g id="Btn/SPLASH_Normal">
            <g>
                <circle id="Oval" stroke="#DADADA" fill="#FFFFFF" cx="20" cy="20" r="19.5"></circle>
                <path d="M13.731472,19.8893707 C13.7299325,19.8692804 13.7278771,19.8490962 13.7252884,19.8288214 C13.5853964,18.7331793 11.9014531,18.2325912 11.4317431,17.9713188 C10.962033,17.7100463 8.5132282,17.2208542 8.33509093,17.3677397 C8.15695366,17.5146252 8.67373105,17.6898559 8.5132282,17.6898559 C8.35272536,17.6898559 7.65968363,17.3773196 7.69882748,16.8645633 C7.73797134,16.351807 8.07258653,16.3686677 8.76376424,16.3131235 C9.45494195,16.2575792 11.8495347,17.1121084 11.9014531,16.9750786 C11.9533714,16.8380488 11.7088796,16.8842654 11.587181,16.6473126 C11.4654825,16.4103597 12.5883913,16.0476727 12.2031483,15.8570738 C11.8179053,15.6664749 11.7641742,14.4552484 11.6474532,14.2649773 C11.5307321,14.0747063 11.0730479,13.1331213 11.1352147,13.1233512 C11.1973816,13.1135811 11.6474532,13.5280815 11.9014531,13.2391852 C12.155453,12.9502889 11.3878017,11.7914539 11.2709882,11.6117565 C11.1541747,11.432059 11.4584003,11.2826459 11.2709882,11.2206409 C11.0835761,11.1586358 9.88659082,9.58581905 10.0693085,9.42316488 C10.2520262,9.2605107 11.4145098,10.8400988 11.6474532,10.924275 C11.8803965,11.0084511 12.5838279,12.5525381 12.7369464,12.7983821 C12.8900648,13.0442261 13.717269,13.0041371 13.7962423,12.8580238 C13.8752157,12.7119105 13.1700285,12.6244681 13.3468005,12.6244681 C13.5235724,12.6244681 13.5673865,12.362267 13.4856138,12.1346278 C13.403841,11.9069886 12.9526271,12.0932792 13.0478831,11.8386896 C13.1431391,11.5841001 14.33416,11.857997 14.2225957,11.7914539 C14.1110314,11.7249109 13.7169958,10.8393452 13.9361343,11.1251285 C14.1552728,11.4109119 16.9755215,14.1711747 17.5425165,13.9809037 C18.1095114,13.7906326 17.9653522,13.3302176 17.9653522,13.2391852 C17.9653522,13.1481528 17.4742421,12.5525381 17.7462382,12.2830389 C18.0182343,12.0135397 17.9653522,13.0041371 18.2330292,12.9330801 C18.5007061,12.8620232 18.2330292,11.981725 18.2330292,11.2206409 C18.2330292,10.4595567 17.4542982,9.07344703 16.9313512,8.16369953 C16.4084042,7.25395202 17.0486289,6.32298662 17.2142369,6.17646424 C17.3798449,6.02994187 17.9653522,6.01116209 18.4892414,6.56641134 C19.0131306,7.12166059 19.4436135,10.3170935 19.4436135,10.8400988 C19.4436135,11.188769 19.6309193,11.4248955 20.0055307,11.5484782 C19.8667389,10.8512556 19.8949622,10.5026443 20.0902007,10.5026443 C20.3830583,10.5026443 20.2679831,11.5794953 20.2679831,11.8804284 C20.2679831,12.1813616 20.4059388,12.7983821 20.5775422,12.7983821 C20.7491457,12.7983821 20.6699206,12.5525381 20.756487,12.5525381 C20.8430535,12.5525381 20.4734178,11.1251285 20.756487,11.0401527 C21.0395562,10.9551769 20.9880446,12.259302 20.9880446,12.4557436 C20.9880446,12.6521852 21.0260971,13.2391852 21.3230653,13.2391852 C21.521044,13.2391852 22.0638084,12.9468791 22.9513584,12.362267 C23.1335871,11.7843397 23.2585734,11.4672213 23.3263176,11.4109119 C23.4279337,11.3264478 24.0518851,9.24869323 24.2341946,9.42316488 C24.4165042,9.59763652 23.8235087,10.9346212 23.7220149,11.1251285 C23.6205211,11.3156359 23.7220149,11.981725 23.7220149,11.981725 C23.7220149,11.981725 24.3879954,10.6654393 24.9510138,11.0401527 C25.5140322,11.4148661 24.7290163,12.171996 24.7290163,12.4557436 C24.7290163,12.6449086 25.0424854,12.8707011 25.6694235,13.1331213 L25.5957656,14.2649773 C25.7027042,14.326709 25.811886,14.3901326 25.923311,14.4552484 C26.034736,14.5203641 25.9790235,14.857601 25.7561735,15.4669591 C26.0200941,15.4669591 26.2181263,15.4669591 26.3502702,15.4669591 C26.5484859,15.4669591 27.2123252,15.0260615 27.4581984,14.9159437 C27.7040715,14.8058258 30.2240423,14.7423825 30.6462907,14.0747063 C31.0685392,13.4070301 32.2813872,13.1233512 32.3625088,13.1331213 C32.4436304,13.1428914 30.6710677,14.8357904 30.4705884,15.0260615 C30.3369355,15.1529088 30.22704,15.3852007 30.1409018,15.7229371 C29.8187808,15.5522851 29.5886099,15.5102643 29.450389,15.5968746 C29.2430578,15.72679 27.9048568,17.1645301 27.6093685,17.4995849 C27.3138802,17.8346397 27.3743237,18.5105738 27.7114129,18.8417779 C28.048502,19.1729821 28.9710617,18.9558718 29.3433892,18.9558718 C29.7157167,18.9558718 29.5913425,19.1578117 29.450389,19.3330579 C29.4435743,19.3415306 29.4366335,19.3502354 29.4296092,19.3591712 C29.818128,19.4197914 30.9533353,19.4564801 30.9996193,19.5925662 C31.0521406,19.7469914 30.3320161,19.9899791 30.1942243,19.9570767 C30.0564325,19.9241742 30.3304068,19.7005935 30.2271012,19.6465799 C30.1628856,19.6130045 29.8465758,19.5950822 29.2781718,19.5928129 C29.2227543,19.7066694 29.1869139,19.8397224 29.2045211,19.9910828 C29.383273,19.9446656 29.7496548,19.808114 29.7925716,19.8663905 C29.834949,19.9239344 29.4512796,20.1430786 29.31592,20.2727491 C29.5488545,20.5402437 30.1409018,20.6420672 30.1409018,20.7341924 C30.1409018,20.839545 29.8866472,20.9244634 30.0210546,21.4952765 C30.155462,22.0660896 31.7508542,22.6369027 31.5385675,23.2174859 C31.3262809,23.7980691 29.7856428,23.5882579 29.2406107,23.9687999 C28.6955786,24.349342 29.1236389,24.9201551 28.7551656,24.9468712 C28.3866923,24.9735873 27.8069113,24.2301279 27.6093685,24.231199 C27.4776733,24.231913 27.399325,24.3347177 27.3743237,24.539613 C27.0997174,24.1723289 26.9049072,24.1121619 26.7898931,24.3591121 C26.617372,24.7295374 27.372366,25.2216334 27.2123252,25.2216334 C27.0522843,25.2216334 26.208032,24.5564981 25.7561735,24.6425865 C25.304315,24.7286748 24.6866649,25.3006971 25.0922119,25.3006971 C25.4977589,25.3006971 26.0667727,26.9332631 26.0667727,27.5839495 C26.0667727,28.2346359 26.7908108,29.1420841 27.0212672,29.5220871 C27.2517236,29.9020901 27.1313871,30.6088806 26.5469565,30.6088806 C26.2041259,30.6088806 25.8144136,29.9783944 25.3640856,29.5220871 C25.04673,29.2005177 24.5855994,29.0585231 24.5855994,28.8785045 C24.5855994,28.5425944 24.0027063,27.2357209 23.6467251,26.5707428 C23.5114526,26.7412977 23.2486441,26.8516511 23.1654934,26.8228654 C23.0432906,26.7805604 23.0919246,26.5570988 23.2273819,26.5118166 C23.3316247,26.4769691 23.3521174,26.2744209 23.3560265,26.145805 C23.1846962,26.0289675 23.0386606,26.1346703 22.9513584,26.1346703 C22.8548405,26.1346703 22.861659,26.3088052 22.7488899,26.6325944 C22.6361209,26.9563835 21.86481,27.0199447 21.8093598,27.5777978 C21.7539097,28.1356509 22.243856,28.2612967 22.2005893,28.6262939 C22.1573226,28.991291 21.6183025,29.5220871 21.5567247,29.5220871 C21.4951468,29.5220871 21.8663918,28.8785045 21.3230653,28.8785045 C20.9630846,28.8785045 20.3840044,30.2731725 19.8869887,31.1211626 C19.6338481,31.553062 19.282436,31.7574514 19.2380778,31.7398424 C19.1066268,31.68766 18.51606,31.7717424 18.7330697,30.9206485 C18.8144817,30.6013573 18.7581881,30.0520242 18.6442624,29.4898638 C18.5791044,29.8216003 18.3835713,30.5496858 18.3010078,30.4727297 C18.1971318,30.3759086 18.5068783,29.6442694 18.6250072,29.3972725 C18.5972132,29.2669005 18.5665635,29.1364795 18.5340527,29.0087081 C18.4540536,28.9995891 18.3913588,29.042633 18.3459685,29.1378398 C18.2401322,29.3598329 17.1998822,29.8672019 17.0756564,29.6937498 C16.9928392,29.578115 17.3395707,29.2075084 18.1158511,28.5819299 C18.2692627,28.6776937 18.3459685,28.7255757 18.3459685,28.7255757 C18.3459685,28.7255757 18.3832543,28.7255757 18.4578258,28.7255757 C18.2770806,28.0897371 18.0662655,27.5805779 17.9653522,27.5777978 C17.7420524,27.5716461 17.309865,27.7742205 17.1222814,27.5777978 C16.9346979,27.3813751 18.0379804,26.353094 17.3676609,26.0171666 C16.6973414,25.6812392 12.2031483,28.3607887 12.061834,28.7255757 C11.9205196,29.0903626 10.999558,30.0333633 10.453764,30.2204621 C9.9079699,30.407561 9.02129958,32.2938737 8.18478957,32.7212673 C7.34827956,33.148661 6.82957029,32.5573267 7.07832265,31.9601832 C7.32707502,31.3630398 11.2709882,27.7742205 12.5667335,26.6905859 C13.8624789,25.6069513 14.7365004,23.891265 14.5350134,23.3979868 C14.3335263,22.9047086 13.9361343,22.715323 13.4856138,22.6369027 C13.0350933,22.5584824 11.7298747,22.6369027 11.2709882,22.715323 C10.9650639,22.7676032 10.7620812,22.9664845 10.6620401,23.3119668 C9.96853081,23.2489795 9.46629109,23.2776529 9.15532091,23.3979868 C8.68886564,23.5784878 6.81176743,23.805245 6.67543872,23.4812841 C6.53911002,23.1573232 8.02592365,22.8470606 8.76376424,22.4466317 C9.50160483,22.0462027 11.9584644,21.8758186 12.2031483,21.815564 C12.4313113,21.7593777 13.6791301,21.0331464 13.7331672,20.0469746 C13.1555102,20.1567941 11.5363708,20.1558227 11.6185295,20.0674982 C11.6998219,19.980105 13.1821207,19.8360009 13.731472,19.8893707 Z M17.9733324,31.5796412 C17.9733324,31.5381956 18.2035611,31.545062 18.2102815,31.8414295 C18.2228678,32.3964776 18.0111654,33.4588491 17.9733324,33.545448 C17.9152985,33.6782863 17.7264434,33.5222229 17.6402858,33.3620102 C17.5541282,33.2017974 17.9733324,31.6987076 17.9733324,31.5796412 Z M28.2886392,26.0146277 C28.2886392,25.8783156 29.8696644,27.1049866 29.7896326,27.1865557 C29.7096007,27.2681249 29.1264116,26.8274233 28.9884755,26.8228654 C28.8505393,26.8183074 28.2886392,26.1509397 28.2886392,26.0146277 Z M33.1257695,19.8521607 C33.1257695,19.9601019 34.4471711,20.201137 34.4471711,19.9717899 C34.4471711,19.7424428 33.1257695,19.7442196 33.1257695,19.8521607 Z M33.6791216,16.9287718 C33.5214959,16.9287718 33.393715,16.8435845 33.393715,16.7385007 C33.393715,16.633417 33.5214959,16.5482297 33.6791216,16.5482297 C33.8367472,16.5482297 33.9645281,16.633417 33.9645281,16.7385007 C33.9645281,16.8435845 33.8367472,16.9287718 33.6791216,16.9287718 Z M32.9474259,12.362267 C32.9474259,12.2116131 33.1754777,12.362267 33.3111973,12.362267 C33.4469168,12.362267 33.4336327,12.5525381 33.393715,12.7084788 C33.3537973,12.8644195 33.2032812,12.762696 33.1257695,12.594048 C33.0482578,12.4254 32.9474259,12.512921 32.9474259,12.362267 Z M25.386778,4.47342829 C25.4651837,4.23365527 25.5003547,5.55274854 25.5003547,5.81271831 C25.5003547,6.07268807 25.386778,6.46983591 25.1711964,6.84892602 C24.9556148,7.22801613 25.1711964,7.84510249 25.0242255,8.14501238 C24.8772546,8.44492227 24.6778462,8.14715362 24.5045427,7.72646883 C24.3312391,7.30578405 25.0428588,6.2046414 25.1711964,6.08868009 C25.2995339,5.97271879 25.2789872,5.6385725 25.1711964,5.42386428 C25.0634056,5.20915607 25.3083722,4.7132013 25.386778,4.47342829 Z M24.795266,5.70886607 C24.8561002,5.70886607 24.8955946,6.15074208 24.795266,6.11971109 C24.6949374,6.08868009 24.7344318,5.70886607 24.795266,5.70886607 Z M19.3650996,6.61706859 C19.4640142,6.53947364 20.1589778,8.97669556 19.7297706,9.07344703 C19.3005634,9.17019851 19.266185,6.69466354 19.3650996,6.61706859 Z M15.6872578,7.54106534 C15.5934422,7.60881211 15.7341178,7.98632542 15.8576708,7.98632542 C15.9812239,7.98632542 15.7810733,7.47331856 15.6872578,7.54106534 Z M12.3862295,9.19386004 C12.4905091,9.27745839 13.0087061,8.99261286 12.8570795,8.83703918 C12.7054529,8.6814655 12.2819498,9.1102617 12.3862295,9.19386004 Z M10.5014024,11.981725 C10.62689,11.7914539 11.3394899,11.9228249 11.2604124,12.171996 C11.1813349,12.4211671 10.8927407,12.6059681 10.6970716,12.5017553 C10.5014024,12.3975425 10.3759149,12.171996 10.5014024,11.981725 Z M11.5241625,23.5882579 C11.5711631,23.6858871 11.8227303,23.7998244 11.8849344,23.7428557 C11.9471385,23.6858871 11.4771619,23.4906287 11.5241625,23.5882579 Z M13.7849928,14.0901651 C13.7150716,14.2428791 13.8332034,14.7939533 14.1226881,15.1467291 C14.3411775,15.4129876 14.7063969,15.5712905 15.2183463,15.6216378 C15.1808849,15.0304624 15.0077141,14.5947221 14.6988338,14.3144169 C14.3430506,13.9915479 13.8497472,13.948736 13.7849928,14.0901651 Z M12.7803143,16.5879815 C12.7103932,16.7406955 12.780012,17.0878752 13.3895419,17.2149392 C13.6826012,17.276031 14.2263658,17.153549 15.0208358,16.8474933 C14.9382487,16.3999077 14.5145759,16.1580944 13.7498173,16.1220534 C13.0791068,16.0904447 12.8450687,16.4465524 12.7803143,16.5879815 Z M14.1784685,12.2844373 C14.1085473,12.4371512 14.3829402,12.6479615 14.672425,13.0007373 C14.8909144,13.2669959 15.1920557,13.435438 15.5758489,13.5060637 C15.5439913,13.2355121 15.3736223,12.9600838 15.064742,12.6797786 C14.7089588,12.3569096 14.2432228,12.1430081 14.1784685,12.2844373 Z" id="Path-87-Copy" fill="#1B1B1B"></path>
            </g>
        </g>
    </g>
</svg>