<?xml version="1.0" encoding="UTF-8"?>
<svg width="40px" height="40px" viewBox="0 0 40 40" version="1.1" xmlns="http://www.w3.org/2000/svg" xmlns:xlink="http://www.w3.org/1999/xlink">
    <!-- Generator: Sketch 54.1 (76490) - https://sketchapp.com -->
    <title>Btn/MOSAIC_Normal</title>
    <desc>Created with Sketch.</desc>
    <g id="Symbols" stroke="none" stroke-width="1" fill="none" fill-rule="evenodd">
        <g id="Btn/MOSAIC_Normal">
            <g>
                <circle id="Oval" stroke="#DADADA" fill="#FFFFFF" cx="20" cy="20" r="19.5"></circle>
                <path d="M17.5,10.5555556 C18.573887,10.5555556 19.4444444,11.426113 19.4444444,12.5 C19.4444444,13.573887 18.573887,14.4444444 17.5,14.4444444 C16.426113,14.4444444 15.5555556,13.573887 15.5555556,12.5 C15.5555556,11.426113 16.426113,10.5555556 17.5,10.5555556 Z M22.5,10.5555556 C23.573887,10.5555556 24.4444444,11.426113 24.4444444,12.5 C24.4444444,13.573887 23.573887,14.4444444 22.5,14.4444444 C21.426113,14.4444444 20.5555556,13.573887 20.5555556,12.5 C20.5555556,11.426113 21.426113,10.5555556 22.5,10.5555556 Z M17.5,15.5555556 C18.573887,15.5555556 19.4444444,16.426113 19.4444444,17.5 C19.4444444,18.573887 18.573887,19.4444444 17.5,19.4444444 C16.426113,19.4444444 15.5555556,18.573887 15.5555556,17.5 C15.5555556,16.426113 16.426113,15.5555556 17.5,15.5555556 Z M22.5,15.5555556 C23.573887,15.5555556 24.4444444,16.426113 24.4444444,17.5 C24.4444444,18.573887 23.573887,19.4444444 22.5,19.4444444 C21.426113,19.4444444 20.5555556,18.573887 20.5555556,17.5 C20.5555556,16.426113 21.426113,15.5555556 22.5,15.5555556 Z M17.5,20.5555556 C18.573887,20.5555556 19.4444444,21.426113 19.4444444,22.5 C19.4444444,23.573887 18.573887,24.4444444 17.5,24.4444444 C16.426113,24.4444444 15.5555556,23.573887 15.5555556,22.5 C15.5555556,21.426113 16.426113,20.5555556 17.5,20.5555556 Z M12.5,15.5555556 C13.573887,15.5555556 14.4444444,16.426113 14.4444444,17.5 C14.4444444,18.573887 13.573887,19.4444444 12.5,19.4444444 C11.426113,19.4444444 10.5555556,18.573887 10.5555556,17.5 C10.5555556,16.426113 11.426113,15.5555556 12.5,15.5555556 Z M12.5,20.5555556 C13.573887,20.5555556 14.4444444,21.426113 14.4444444,22.5 C14.4444444,23.573887 13.573887,24.4444444 12.5,24.4444444 C11.426113,24.4444444 10.5555556,23.573887 10.5555556,22.5 C10.5555556,21.426113 11.426113,20.5555556 12.5,20.5555556 Z M22.5,20.5555556 C23.573887,20.5555556 24.4444444,21.426113 24.4444444,22.5 C24.4444444,23.573887 23.573887,24.4444444 22.5,24.4444444 C21.426113,24.4444444 20.5555556,23.573887 20.5555556,22.5 C20.5555556,21.426113 21.426113,20.5555556 22.5,20.5555556 Z M27.5,15.5555556 C28.573887,15.5555556 29.4444444,16.426113 29.4444444,17.5 C29.4444444,18.573887 28.573887,19.4444444 27.5,19.4444444 C26.426113,19.4444444 25.5555556,18.573887 25.5555556,17.5 C25.5555556,16.426113 26.426113,15.5555556 27.5,15.5555556 Z M27.5,20.5555556 C28.573887,20.5555556 29.4444444,21.426113 29.4444444,22.5 C29.4444444,23.573887 28.573887,24.4444444 27.5,24.4444444 C26.426113,24.4444444 25.5555556,23.573887 25.5555556,22.5 C25.5555556,21.426113 26.426113,20.5555556 27.5,20.5555556 Z M17.5,25.5555556 C18.573887,25.5555556 19.4444444,26.426113 19.4444444,27.5 C19.4444444,28.573887 18.573887,29.4444444 17.5,29.4444444 C16.426113,29.4444444 15.5555556,28.573887 15.5555556,27.5 C15.5555556,26.426113 16.426113,25.5555556 17.5,25.5555556 Z M22.5,25.5555556 C23.573887,25.5555556 24.4444444,26.426113 24.4444444,27.5 C24.4444444,28.573887 23.573887,29.4444444 22.5,29.4444444 C21.426113,29.4444444 20.5555556,28.573887 20.5555556,27.5 C20.5555556,26.426113 21.426113,25.5555556 22.5,25.5555556 Z" id="Rectangle-15" fill="#1B1B1B"></path>
            </g>
        </g>
    </g>
</svg>