<svg xmlns="http://www.w3.org/2000/svg" width="72" height="72" viewBox="0 0 72 72">
    <g fill="none" fill-rule="evenodd">
        <circle cx="36" cy="36" r="35.5" fill="#FFF" stroke="#DADADA"/>
        <path fill="#1B1B1B" d="M37.057 33.04A8.001 8.001 0 0 1 53 34a8 8 0 0 1-14.963 3.942 2.5 2.5 0 0 1-.98-4.903zm-20.023-9.857a1.5 1.5 0 1 1 1.783 1.783 3 3 0 1 1-1.784-1.784zm27.833 24.844a2.5 2.5 0 1 1-2.84 2.84 4 4 0 1 1 2.84-2.84zm-13.1-21.013a4.5 4.5 0 1 1 2.1 1.68 2.5 2.5 0 1 1-2.1-1.68zM26.5 20a3.5 3.5 0 1 1 0-7 3.5 3.5 0 0 1 0 7zm-2 9a2.5 2.5 0 1 1 0-5 2.5 2.5 0 0 1 0 5zm4 13a4.5 4.5 0 1 1 0-9 4.5 4.5 0 0 1 0 9zm3 11a4.5 4.5 0 1 1 0-9 4.5 4.5 0 0 1 0 9zm-18-15a2.5 2.5 0 1 1 0-5 2.5 2.5 0 0 1 0 5zm11 12a2.5 2.5 0 1 1 0-5 2.5 2.5 0 0 1 0 5zm3 9a2.5 2.5 0 1 1 0-5 2.5 2.5 0 0 1 0 5zm10 2a2.5 2.5 0 1 1 0-5 2.5 2.5 0 0 1 0 5zM48 57a1 1 0 1 1 0-2 1 1 0 0 1 0 2zm10-14a1 1 0 1 1 0-2 1 1 0 0 1 0 2zM36 15a1 1 0 1 1 0-2 1 1 0 0 1 0 2zM16 45a1 1 0 1 1 0-2 1 1 0 0 1 0 2zm5.5-7a1.5 1.5 0 1 1 0-3 1.5 1.5 0 0 1 0 3zm-1 15a1.5 1.5 0 1 1 0-3 1.5 1.5 0 0 1 0 3zm24-36a2.5 2.5 0 1 1 0-5 2.5 2.5 0 0 1 0 5zm-1 7a2.5 2.5 0 1 1 0-5 2.5 2.5 0 0 1 0 5zm14 7a3.5 3.5 0 1 1 0-7 3.5 3.5 0 0 1 0 7zm0 8a2.5 2.5 0 1 1 0-5 2.5 2.5 0 0 1 0 5zm-4 13a2.5 2.5 0 1 1 0-5 2.5 2.5 0 0 1 0 5zm-1-28a2.5 2.5 0 1 1 0-5 2.5 2.5 0 0 1 0 5z"/>
    </g>
</svg>
