<?xml version="1.0" encoding="UTF-8"?>
<svg width="44px" height="44px" viewBox="0 0 44 44" version="1.1" xmlns="http://www.w3.org/2000/svg" xmlns:xlink="http://www.w3.org/1999/xlink">
    <!-- Generator: Sketch 52.2 (67145) - http://www.bohemiancoding.com/sketch -->
    <title>Icon/More</title>
    <desc>Created with Sketch.</desc>
    <g id="Make" stroke="none" stroke-width="1" fill="none" fill-rule="evenodd">
        <g id="C-23&gt;Stamp-Group-Selection" transform="translate(-256.000000, -500.000000)">
            <g id="Icon/More" transform="translate(256.000000, 500.000000)">
                <rect id="Rectangle-Copy-5" fill="#D8D8D8" opacity="0.01" x="0" y="0" width="44" height="44"></rect>
                <circle id="Oval" fill="#DDDBDE" cx="22" cy="22" r="22"></circle>
                <path d="M13,25 C11.3431458,25 10,23.6568542 10,22 C10,20.3431458 11.3431458,19 13,19 C14.6568542,19 16,20.3431458 16,22 C16,23.6568542 14.6568542,25 13,25 Z M22,25 C20.3431458,25 19,23.6568542 19,22 C19,20.3431458 20.3431458,19 22,19 C23.6568542,19 25,20.3431458 25,22 C25,23.6568542 23.6568542,25 22,25 Z M31,25 C29.3431458,25 28,23.6568542 28,22 C28,20.3431458 29.3431458,19 31,19 C32.6568542,19 34,20.3431458 34,22 C34,23.6568542 32.6568542,25 31,25 Z" id="Oval-18" fill="#1B1B1B"></path>
            </g>
        </g>
    </g>
</svg>