<svg xmlns="http://www.w3.org/2000/svg" width="50" height="50" viewBox="0 0 50 50">
    <g fill="none" fill-rule="evenodd">
        <circle cx="25" cy="25" r="24.5" fill="#FFF" stroke="#DADADA"/>
        <path fill="#1B1B1B" d="M17 15h5a2 2 0 0 1 2 2v5a2 2 0 0 1-2 2h-5a2 2 0 0 1-2-2v-5a2 2 0 0 1 2-2zm11 0h5a2 2 0 0 1 2 2v5a2 2 0 0 1-2 2h-5a2 2 0 0 1-2-2v-5a2 2 0 0 1 2-2zM17 26h5a2 2 0 0 1 2 2v5a2 2 0 0 1-2 2h-5a2 2 0 0 1-2-2v-5a2 2 0 0 1 2-2zm11 0h5a2 2 0 0 1 2 2v5a2 2 0 0 1-2 2h-5a2 2 0 0 1-2-2v-5a2 2 0 0 1 2-2z"/>
    </g>
</svg>
