<?xml version="1.0" encoding="UTF-8"?>
<svg width="86px" height="86px" viewBox="0 0 86 86" version="1.1" xmlns="http://www.w3.org/2000/svg" xmlns:xlink="http://www.w3.org/1999/xlink">
    <!-- Generator: Sketch 52.2 (67145) - http://www.bohemiancoding.com/sketch -->
    <title>Icon/NOAUTODESIGNER</title>
    <desc>Created with Sketch.</desc>
    <g id="Make" stroke="none" stroke-width="1" fill="none" fill-rule="evenodd">
        <g id="Icon/NOAUTODESIGNER">
            <path d="M43.3293651,51.1507937 C39.0886072,51.1507937 35.6507937,47.7129801 35.6507937,43.4722222 C35.6507937,39.2314643 39.0886072,35.7936508 43.3293651,35.7936508 C47.570123,35.7936508 51.0079365,39.2314643 51.0079365,43.4722222 C51.0079365,47.7129801 47.570123,51.1507937 43.3293651,51.1507937 Z M49.3015873,23.5079365 C47.2283279,23.5079365 45.547619,21.8272277 45.547619,19.7539683 C45.547619,17.6807088 47.2283279,16 49.3015873,16 C51.3748467,16 53.0555556,17.6807088 53.0555556,19.7539683 C53.0555556,21.8272277 51.3748467,23.5079365 49.3015873,23.5079365 Z M43.1587302,29.6507937 C41.0854707,29.6507937 39.4047619,27.9700848 39.4047619,25.8968254 C39.4047619,23.823566 41.0854707,22.1428571 43.1587302,22.1428571 C45.2319896,22.1428571 46.9126984,23.823566 46.9126984,25.8968254 C46.9126984,27.9700848 45.2319896,29.6507937 43.1587302,29.6507937 Z M37.3571429,35.452381 C35.2838834,35.452381 33.6031746,33.7716721 33.6031746,31.6984127 C33.6031746,29.6251533 35.2838834,27.9444444 37.3571429,27.9444444 C39.4304023,27.9444444 41.1111111,29.6251533 41.1111111,31.6984127 C41.1111111,33.7716721 39.4304023,35.452381 37.3571429,35.452381 Z M61.2460317,47.0555556 C59.1727723,47.0555556 57.4920635,45.3748467 57.4920635,43.3015873 C57.4920635,41.2283279 59.1727723,39.547619 61.2460317,39.547619 C63.3192912,39.547619 65,41.2283279 65,43.3015873 C65,45.3748467 63.3192912,47.0555556 61.2460317,47.0555556 Z M55.1031746,53.1984127 C53.0299152,53.1984127 51.3492063,51.5177039 51.3492063,49.4444444 C51.3492063,47.371185 53.0299152,45.6904762 55.1031746,45.6904762 C57.176434,45.6904762 58.8571429,47.371185 58.8571429,49.4444444 C58.8571429,51.5177039 57.176434,53.1984127 55.1031746,53.1984127 Z M49.3015873,59 C47.2283279,59 45.547619,57.3192912 45.547619,55.2460317 C45.547619,53.1727723 47.2283279,51.4920635 49.3015873,51.4920635 C51.3748467,51.4920635 53.0555556,53.1727723 53.0555556,55.2460317 C53.0555556,57.3192912 51.3748467,59 49.3015873,59 Z M37.3571429,59 C35.2838834,59 33.6031746,57.3192912 33.6031746,55.2460317 C33.6031746,53.1727723 35.2838834,51.4920635 37.3571429,51.4920635 C39.4304023,51.4920635 41.1111111,53.1727723 41.1111111,55.2460317 C41.1111111,57.3192912 39.4304023,59 37.3571429,59 Z M31.3571429,53 C29.2838834,53 27.6031746,51.3192912 27.6031746,49.2460317 C27.6031746,47.1727723 29.2838834,45.4920635 31.3571429,45.4920635 C33.4304023,45.4920635 35.1111111,47.1727723 35.1111111,49.2460317 C35.1111111,51.3192912 33.4304023,53 31.3571429,53 Z M31.5555556,64.8015873 C29.4822961,64.8015873 27.8015873,63.1208785 27.8015873,61.047619 C27.8015873,58.9743596 29.4822961,57.2936508 31.5555556,57.2936508 C33.628815,57.2936508 35.3095238,58.9743596 35.3095238,61.047619 C35.3095238,63.1208785 33.628815,64.8015873 31.5555556,64.8015873 Z M31.5555556,41.2539683 C29.4822961,41.2539683 27.8015873,39.5732594 27.8015873,37.5 C27.8015873,35.4267406 29.4822961,33.7460317 31.5555556,33.7460317 C33.628815,33.7460317 35.3095238,35.4267406 35.3095238,37.5 C35.3095238,39.5732594 33.628815,41.2539683 31.5555556,41.2539683 Z M25.7539683,35.452381 C23.6807088,35.452381 22,33.7716721 22,31.6984127 C22,29.6251533 23.6807088,27.9444444 25.7539683,27.9444444 C27.8272277,27.9444444 29.5079365,29.6251533 29.5079365,31.6984127 C29.5079365,33.7716721 27.8272277,35.452381 25.7539683,35.452381 Z" id="Oval-9-Copy" fill="#666666"></path>
            <path d="M21.2408711,70.4159831 C27.2149039,75.1637143 34.7762269,78 43,78 C62.3299662,78 78,62.3299662 78,43 C78,34.7762269 75.1637143,27.2149039 70.4159831,21.2408711 L21.2408711,70.4159831 Z M15.5840169,64.7591289 L64.7591289,15.5840169 C58.7850961,10.8362857 51.2237731,8 43,8 C23.6700338,8 8,23.6700338 8,43 C8,51.2237731 10.8362857,58.7850961 15.5840169,64.7591289 Z M43,86 C19.2517558,86 0,66.7482442 0,43 C0,19.2517558 19.2517558,0 43,0 C66.7482442,0 86,19.2517558 86,43 C86,66.7482442 66.7482442,86 43,86 Z" id="Oval-16" fill="#FF0000"></path>
        </g>
    </g>
</svg>