<?xml version="1.0" encoding="UTF-8"?>
<svg width="86px" height="86px" viewBox="0 0 86 86" version="1.1" xmlns="http://www.w3.org/2000/svg" xmlns:xlink="http://www.w3.org/1999/xlink">
    <!-- Generator: Sketch 52.2 (67145) - http://www.bohemiancoding.com/sketch -->
    <title>Icon/NODuplicateSameSticker</title>
    <desc>Created with Sketch.</desc>
    <g id="Make" stroke="none" stroke-width="1" fill="none" fill-rule="evenodd">
        <g id="Icon/NODuplicateSameSticker">
            <path d="M31,43 C26.0294373,43 22,38.9705627 22,34 C22,29.0294373 26.0294373,25 31,25 C35.9705627,25 40,29.0294373 40,34 C40,38.9705627 35.9705627,43 31,43 Z M43,63 C38.0294373,63 34,58.9705627 34,54 C34,49.0294373 38.0294373,45 43,45 C47.9705627,45 52,49.0294373 52,54 C52,58.9705627 47.9705627,63 43,63 Z M55,43 C50.0294373,43 46,38.9705627 46,34 C46,29.0294373 50.0294373,25 55,25 C59.9705627,25 64,29.0294373 64,34 C64,38.9705627 59.9705627,43 55,43 Z" id="Oval-17" fill="#666666"></path>
            <path d="M21.2408711,70.4159831 C27.2149039,75.1637143 34.7762269,78 43,78 C62.3299662,78 78,62.3299662 78,43 C78,34.7762269 75.1637143,27.2149039 70.4159831,21.2408711 L21.2408711,70.4159831 Z M15.5840169,64.7591289 L64.7591289,15.5840169 C58.7850961,10.8362857 51.2237731,8 43,8 C23.6700338,8 8,23.6700338 8,43 C8,51.2237731 10.8362857,58.7850961 15.5840169,64.7591289 Z M43,86 C19.2517558,86 0,66.7482442 0,43 C0,19.2517558 19.2517558,0 43,0 C66.7482442,0 86,19.2517558 86,43 C86,66.7482442 66.7482442,86 43,86 Z" id="Oval-16" fill="#FF0000"></path>
        </g>
    </g>
</svg>