<?xml version="1.0" encoding="UTF-8"?>
<svg width="86px" height="86px" viewBox="0 0 86 86" version="1.1" xmlns="http://www.w3.org/2000/svg" xmlns:xlink="http://www.w3.org/1999/xlink">
    <!-- Generator: Sketch 52.2 (67145) - http://www.bohemiancoding.com/sketch -->
    <title>Icon/NOGLITCH</title>
    <desc>Created with Sketch.</desc>
    <g id="Make" stroke="none" stroke-width="1" fill="none" fill-rule="evenodd">
        <g id="Icon/NOGLITCH">
            <g id="Group-25-Copy" transform="translate(9.000000, 23.500000)" fill="#666666">
                <path d="M25.9922938,2.56 C28.8554621,0.928862899 32.1506462,0 35.6571429,0 C39.1636395,0 42.4588236,0.928862899 45.3219919,2.56 L25.9922938,2.56 Z" id="Oval-5"></path>
                <path d="M23.9011781,16.9128529 C23.9369855,16.1203412 23.9742559,15.3311754 24.012972,14.5454545 L62.4285864,14.5454545 C62.4673026,15.3311754 62.504573,16.1203412 62.5403803,16.9128529 L23.9011781,16.9128529 Z" id="Oval-5"></path>
                <path d="M18.847437,33.3631169 C16.7590968,31.3931595 15.0931343,28.9764898 14.0006659,26.2649351 L50.9967367,26.2649351 C49.9042683,28.9764898 48.2383058,31.3931595 46.1499656,33.3631169 L18.847437,33.3631169 Z" id="Oval-5"></path>
                <path d="M25.5279836,35.8233766 L46.2850034,35.8233766 C43.2613852,37.6690189 39.7081302,38.7324675 35.9064935,38.7324675 C32.1048568,38.7324675 28.5516018,37.6690189 25.5279836,35.8233766 Z" id="Oval-5"></path>
                <path d="M19.4604511,35.8566234 C18.8333685,35.4636394 18.2290669,35.0361142 17.6500554,34.5766234 L42.0278667,34.5766234 C41.4488552,35.0361142 40.8445536,35.4636394 40.217471,35.8566234 L19.4604511,35.8566234 Z" id="Oval-5"></path>
                <path d="M18.2318736,34.6098701 C17.7244335,34.2071769 17.2364177,33.7799323 16.7695149,33.3298701 L44.0720435,33.3298701 C43.6051408,33.7799323 43.1171249,34.2071769 42.6096849,34.6098701 L18.2318736,34.6098701 Z" id="Oval-5"></path>
                <path d="M23.7989887,26.8467532 C23.6710111,26.3009321 23.5654483,25.7464782 23.4833241,25.1844156 L62.9582343,25.1844156 C62.8761102,25.7464782 62.7705473,26.3009321 62.6425698,26.8467532 L23.7989887,26.8467532 Z" id="Oval-5"></path>
                <path d="M22.4859215,25.2342857 C22.3471699,24.2704173 22.2753247,23.2845039 22.2753247,22.2815584 C22.2753247,22.1406114 22.2767436,22.0000007 22.2795677,21.8597403 L62.1671855,21.8597403 C62.1700097,22.0000007 62.1714286,22.1406114 62.1714286,22.2815584 C62.1714286,23.2845039 62.0995834,24.2704173 61.9608317,25.2342857 L22.4859215,25.2342857 Z" id="Oval-5"></path>
                <path d="M16.163003,22.1922073 C16.1975793,20.8465405 16.2553173,19.5159146 16.3352721,18.2025974 L55.8101824,18.2025974 C55.8901372,19.5159146 55.9478753,20.8465405 55.9824516,22.1922073 L16.163003,22.1922073 Z" id="Oval-5"></path>
                <path d="M1.12488254,18.2424935 C1.22793483,17.523656 1.36789397,16.8170292 1.54273655,16.1246753 L40.1819388,16.1246753 C40.3567814,16.8170292 40.4967405,17.523656 40.5997928,18.2424935 L1.12488254,18.2424935 Z" id="Oval-5"></path>
                <path d="M12.4597253,14.6618182 C13.0491942,12.5197892 13.9737962,10.5207509 15.1721886,8.72727273 L48.1628763,8.72727273 C49.3612687,10.5207509 50.2858707,12.5197892 50.8753397,14.6618182 L12.4597253,14.6618182 Z" id="Oval-5"></path>
                <path d="M19.4942665,8.84363636 C20.2066335,7.75662513 21.0157453,6.74367356 21.9087172,5.81818182 L50.0705036,5.81818182 C50.9634755,6.74367356 51.7725873,7.75662513 52.4849543,8.84363636 L19.4942665,8.84363636 Z" id="Oval-5"></path>
                <path d="M22.0749509,6.19077474 C22.3618165,5.7767454 22.6573364,5.37528526 22.9610835,4.98701299 L49.3506048,4.98701299 C49.6543519,5.37528526 49.9498718,5.7767454 50.2367374,6.19077474 L22.0749509,6.19077474 Z" id="Oval-5"></path>
                <path d="M22.0467978,5.07012987 C22.728372,4.43848163 23.4513704,3.85497429 24.2109669,3.32467532 L46.27215,3.32467532 C47.0317465,3.85497429 47.7547449,4.43848163 48.4363191,5.07012987 L22.0467978,5.07012987 Z" id="Oval-5"></path>
                <path d="M18.392785,3.69726761 C18.8358976,3.27057659 19.2914644,2.86886046 19.7585276,2.49350678 L39.0882257,2.49350678 C39.5552888,2.86886046 40.0108557,3.27057659 40.4539682,3.69726761 L18.392785,3.69726761 Z" id="Oval-4"></path>
            </g>
            <path d="M21.2408711,70.4159831 C27.2149039,75.1637143 34.7762269,78 43,78 C62.3299662,78 78,62.3299662 78,43 C78,34.7762269 75.1637143,27.2149039 70.4159831,21.2408711 L21.2408711,70.4159831 Z M15.5840169,64.7591289 L64.7591289,15.5840169 C58.7850961,10.8362857 51.2237731,8 43,8 C23.6700338,8 8,23.6700338 8,43 C8,51.2237731 10.8362857,58.7850961 15.5840169,64.7591289 Z M43,86 C19.2517558,86 0,66.7482442 0,43 C0,19.2517558 19.2517558,0 43,0 C66.7482442,0 86,19.2517558 86,43 C86,66.7482442 66.7482442,86 43,86 Z" id="Oval-16" fill="#FF0000"></path>
        </g>
    </g>
</svg>