<?xml version="1.0" encoding="UTF-8"?>
<svg width="86px" height="86px" viewBox="0 0 86 86" version="1.1" xmlns="http://www.w3.org/2000/svg" xmlns:xlink="http://www.w3.org/1999/xlink">
    <!-- Generator: Sketch 52.2 (67145) - http://www.bohemiancoding.com/sketch -->
    <title>Icon/NOMOSAIC</title>
    <desc>Created with Sketch.</desc>
    <g id="Make" stroke="none" stroke-width="1" fill="none" fill-rule="evenodd">
        <g id="Icon/NOMOSAIC">
            <path d="M35.5882353,23.6 L39.8235294,23.6 C40.9280989,23.6 41.8235294,24.4954305 41.8235294,25.6 L41.8235294,29.8352941 C41.8235294,30.9398636 40.9280989,31.8352941 39.8235294,31.8352941 L35.5882353,31.8352941 C34.4836658,31.8352941 33.5882353,30.9398636 33.5882353,29.8352941 L33.5882353,25.6 C33.5882353,24.4954305 34.4836658,23.6 35.5882353,23.6 Z M46.1764706,23.6 L50.4117647,23.6 C51.5163342,23.6 52.4117647,24.4954305 52.4117647,25.6 L52.4117647,29.8352941 C52.4117647,30.9398636 51.5163342,31.8352941 50.4117647,31.8352941 L46.1764706,31.8352941 C45.0719011,31.8352941 44.1764706,30.9398636 44.1764706,29.8352941 L44.1764706,25.6 C44.1764706,24.4954305 45.0719011,23.6 46.1764706,23.6 Z M35.5882353,34.1882353 L39.8235294,34.1882353 C40.9280989,34.1882353 41.8235294,35.0836658 41.8235294,36.1882353 L41.8235294,40.4235294 C41.8235294,41.5280989 40.9280989,42.4235294 39.8235294,42.4235294 L35.5882353,42.4235294 C34.4836658,42.4235294 33.5882353,41.5280989 33.5882353,40.4235294 L33.5882353,36.1882353 C33.5882353,35.0836658 34.4836658,34.1882353 35.5882353,34.1882353 Z M46.1764706,34.1882353 L50.4117647,34.1882353 C51.5163342,34.1882353 52.4117647,35.0836658 52.4117647,36.1882353 L52.4117647,40.4235294 C52.4117647,41.5280989 51.5163342,42.4235294 50.4117647,42.4235294 L46.1764706,42.4235294 C45.0719011,42.4235294 44.1764706,41.5280989 44.1764706,40.4235294 L44.1764706,36.1882353 C44.1764706,35.0836658 45.0719011,34.1882353 46.1764706,34.1882353 Z M35.5882353,44.7764706 L39.8235294,44.7764706 C40.9280989,44.7764706 41.8235294,45.6719011 41.8235294,46.7764706 L41.8235294,51.0117647 C41.8235294,52.1163342 40.9280989,53.0117647 39.8235294,53.0117647 L35.5882353,53.0117647 C34.4836658,53.0117647 33.5882353,52.1163342 33.5882353,51.0117647 L33.5882353,46.7764706 C33.5882353,45.6719011 34.4836658,44.7764706 35.5882353,44.7764706 Z M25,34.1882353 L29.2352941,34.1882353 C30.3398636,34.1882353 31.2352941,35.0836658 31.2352941,36.1882353 L31.2352941,40.4235294 C31.2352941,41.5280989 30.3398636,42.4235294 29.2352941,42.4235294 L25,42.4235294 C23.8954305,42.4235294 23,41.5280989 23,40.4235294 L23,36.1882353 C23,35.0836658 23.8954305,34.1882353 25,34.1882353 Z M25,44.7764706 L29.2352941,44.7764706 C30.3398636,44.7764706 31.2352941,45.6719011 31.2352941,46.7764706 L31.2352941,51.0117647 C31.2352941,52.1163342 30.3398636,53.0117647 29.2352941,53.0117647 L25,53.0117647 C23.8954305,53.0117647 23,52.1163342 23,51.0117647 L23,46.7764706 C23,45.6719011 23.8954305,44.7764706 25,44.7764706 Z M46.1764706,44.7764706 L50.4117647,44.7764706 C51.5163342,44.7764706 52.4117647,45.6719011 52.4117647,46.7764706 L52.4117647,51.0117647 C52.4117647,52.1163342 51.5163342,53.0117647 50.4117647,53.0117647 L46.1764706,53.0117647 C45.0719011,53.0117647 44.1764706,52.1163342 44.1764706,51.0117647 L44.1764706,46.7764706 C44.1764706,45.6719011 45.0719011,44.7764706 46.1764706,44.7764706 Z M56.7647059,34.1882353 L61,34.1882353 C62.1045695,34.1882353 63,35.0836658 63,36.1882353 L63,40.4235294 C63,41.5280989 62.1045695,42.4235294 61,42.4235294 L56.7647059,42.4235294 C55.6601364,42.4235294 54.7647059,41.5280989 54.7647059,40.4235294 L54.7647059,36.1882353 C54.7647059,35.0836658 55.6601364,34.1882353 56.7647059,34.1882353 Z M56.7647059,44.7764706 L61,44.7764706 C62.1045695,44.7764706 63,45.6719011 63,46.7764706 L63,51.0117647 C63,52.1163342 62.1045695,53.0117647 61,53.0117647 L56.7647059,53.0117647 C55.6601364,53.0117647 54.7647059,52.1163342 54.7647059,51.0117647 L54.7647059,46.7764706 C54.7647059,45.6719011 55.6601364,44.7764706 56.7647059,44.7764706 Z M35.5882353,55.3647059 L39.8235294,55.3647059 C40.9280989,55.3647059 41.8235294,56.2601364 41.8235294,57.3647059 L41.8235294,61.6 C41.8235294,62.7045695 40.9280989,63.6 39.8235294,63.6 L35.5882353,63.6 C34.4836658,63.6 33.5882353,62.7045695 33.5882353,61.6 L33.5882353,57.3647059 C33.5882353,56.2601364 34.4836658,55.3647059 35.5882353,55.3647059 Z M46.1764706,55.3647059 L50.4117647,55.3647059 C51.5163342,55.3647059 52.4117647,56.2601364 52.4117647,57.3647059 L52.4117647,61.6 C52.4117647,62.7045695 51.5163342,63.6 50.4117647,63.6 L46.1764706,63.6 C45.0719011,63.6 44.1764706,62.7045695 44.1764706,61.6 L44.1764706,57.3647059 C44.1764706,56.2601364 45.0719011,55.3647059 46.1764706,55.3647059 Z" id="Rectangle-15" fill="#666666"></path>
            <path d="M21.2408711,70.4159831 C27.2149039,75.1637143 34.7762269,78 43,78 C62.3299662,78 78,62.3299662 78,43 C78,34.7762269 75.1637143,27.2149039 70.4159831,21.2408711 L21.2408711,70.4159831 Z M15.5840169,64.7591289 L64.7591289,15.5840169 C58.7850961,10.8362857 51.2237731,8 43,8 C23.6700338,8 8,23.6700338 8,43 C8,51.2237731 10.8362857,58.7850961 15.5840169,64.7591289 Z M43,86 C19.2517558,86 0,66.7482442 0,43 C0,19.2517558 19.2517558,0 43,0 C66.7482442,0 86,19.2517558 86,43 C86,66.7482442 66.7482442,86 43,86 Z" id="Oval-16" fill="#FF0000"></path>
        </g>
    </g>
</svg>