<?xml version="1.0" encoding="UTF-8"?>
<svg width="86px" height="86px" viewBox="0 0 86 86" version="1.1" xmlns="http://www.w3.org/2000/svg" xmlns:xlink="http://www.w3.org/1999/xlink">
    <!-- Generator: Sketch 52.2 (67145) - http://www.bohemiancoding.com/sketch -->
    <title>Icon/NOMoMACollage</title>
    <desc>Created with Sketch.</desc>
    <g id="Make" stroke="none" stroke-width="1" fill="none" fill-rule="evenodd">
        <g id="Icon/NOMoMACollage">
            <path d="M35.5,51 L42.5,51 L42.5,56 L35.5,56 L30.5,56 L30.5,29 L35.5,29 L35.5,51 Z M51.5,33 L51.5,30 L56.5,30 L56.5,33 L56.5,38 L44.5,38 L44.5,33 L51.5,33 Z M37.5,24 L49.5,24 L49.5,31 L37.5,31 L37.5,24 Z M44.5,40 L56.5,40 L56.5,56 L44.5,56 L44.5,40 Z M37.5,33 L42.5,33 L42.5,49 L37.5,49 L37.5,33 Z M25.5,37 L28.5,37 L28.5,49 L25.5,49 L25.5,37 Z M58.5,37 L61.5,37 L61.5,49 L58.5,49 L58.5,37 Z M37.5,58 L49.5,58 L49.5,61 L37.5,61 L37.5,58 Z" id="Rectangle-14" fill="#666666"></path>
            <path d="M21.2408711,70.4159831 C27.2149039,75.1637143 34.7762269,78 43,78 C62.3299662,78 78,62.3299662 78,43 C78,34.7762269 75.1637143,27.2149039 70.4159831,21.2408711 L21.2408711,70.4159831 Z M15.5840169,64.7591289 L64.7591289,15.5840169 C58.7850961,10.8362857 51.2237731,8 43,8 C23.6700338,8 8,23.6700338 8,43 C8,51.2237731 10.8362857,58.7850961 15.5840169,64.7591289 Z M43,86 C19.2517558,86 0,66.7482442 0,43 C0,19.2517558 19.2517558,0 43,0 C66.7482442,0 86,19.2517558 86,43 C86,66.7482442 66.7482442,86 43,86 Z" id="Oval-16" fill="#FF0000"></path>
        </g>
    </g>
</svg>