<?xml version="1.0" encoding="UTF-8"?>
<svg width="86px" height="86px" viewBox="0 0 86 86" version="1.1" xmlns="http://www.w3.org/2000/svg" xmlns:xlink="http://www.w3.org/1999/xlink">
    <!-- Generator: Sketch 52.2 (67145) - http://www.bohemiancoding.com/sketch -->
    <title>Icon/NOMoMAEarlyMordenStyle</title>
    <desc>Created with Sketch.</desc>
    <g id="Make" stroke="none" stroke-width="1" fill="none" fill-rule="evenodd">
        <g id="Icon/NOMoMAEarlyMordenStyle">
            <path d="M44.0571146,40.0391088 C44.5317751,36.0738818 47.9069158,33 52,33 C56.418278,33 60,36.581722 60,41 C60,45.418278 56.418278,49 52,49 C49.015058,49 46.4119379,47.3652265 45.0371204,44.9421605 C44.8641044,44.9800392 44.6843833,45 44.5,45 C43.1192881,45 42,43.8807119 42,42.5 C42,41.270424 42.8876597,40.2481721 44.0571146,40.0391088 Z M24.0336005,30.182809 C24.1791487,29.5067201 24.7803989,29 25.5,29 C26.3284271,29 27,29.6715729 27,30.5 C27,31.2196011 26.4932799,31.8208513 25.817191,31.9663995 C25.9354483,32.2886253 26,32.6367742 26,33 C26,34.6568542 24.6568542,36 23,36 C21.3431458,36 20,34.6568542 20,33 C20,31.3431458 21.3431458,30 23,30 C23.3632258,30 23.7113747,30.0645517 24.0336005,30.182809 Z M51.8669989,55.0267473 C53.0737238,55.2042698 54,56.2439632 54,57.5 C54,58.8807119 52.8807119,60 51.5,60 C50.2439632,60 49.2042698,59.0737238 49.0267473,57.8669989 C48.6990916,57.9537686 48.3549447,58 48,58 C45.790861,58 44,56.209139 44,54 C44,51.790861 45.790861,50 48,50 C50.209139,50 52,51.790861 52,54 C52,54.3549447 51.9537686,54.6990916 51.8669989,55.0267473 Z M38.7672635,34.0141181 C38.2828271,33.2962818 38,32.4311698 38,31.5 C38,29.0147186 40.0147186,27 42.5,27 C44.9852814,27 47,29.0147186 47,31.5 C47,33.9852814 44.9852814,36 42.5,36 C41.9241604,36 41.3735828,35.8918401 40.8674748,35.6947276 C40.9533954,35.9474075 41,36.2182612 41,36.5 C41,37.8807119 39.8807119,39 38.5,39 C37.1192881,39 36,37.8807119 36,36.5 C36,35.1192881 37.1192881,34 38.5,34 C38.5902856,34 38.6794534,34.004786 38.7672635,34.0141181 Z M33.5,27 C31.5670034,27 30,25.4329966 30,23.5 C30,21.5670034 31.5670034,20 33.5,20 C35.4329966,20 37,21.5670034 37,23.5 C37,25.4329966 35.4329966,27 33.5,27 Z M31.5,36 C30.1192881,36 29,34.8807119 29,33.5 C29,32.1192881 30.1192881,31 31.5,31 C32.8807119,31 34,32.1192881 34,33.5 C34,34.8807119 32.8807119,36 31.5,36 Z M35.5,49 C33.0147186,49 31,46.9852814 31,44.5 C31,42.0147186 33.0147186,40 35.5,40 C37.9852814,40 40,42.0147186 40,44.5 C40,46.9852814 37.9852814,49 35.5,49 Z M38.5,60 C36.0147186,60 34,57.9852814 34,55.5 C34,53.0147186 36.0147186,51 38.5,51 C40.9852814,51 43,53.0147186 43,55.5 C43,57.9852814 40.9852814,60 38.5,60 Z M20.5,45 C19.1192881,45 18,43.8807119 18,42.5 C18,41.1192881 19.1192881,40 20.5,40 C21.8807119,40 23,41.1192881 23,42.5 C23,43.8807119 21.8807119,45 20.5,45 Z M31.5,57 C30.1192881,57 29,55.8807119 29,54.5 C29,53.1192881 30.1192881,52 31.5,52 C32.8807119,52 34,53.1192881 34,54.5 C34,55.8807119 32.8807119,57 31.5,57 Z M34.5,66 C33.1192881,66 32,64.8807119 32,63.5 C32,62.1192881 33.1192881,61 34.5,61 C35.8807119,61 37,62.1192881 37,63.5 C37,64.8807119 35.8807119,66 34.5,66 Z M44.5,68 C43.1192881,68 42,66.8807119 42,65.5 C42,64.1192881 43.1192881,63 44.5,63 C45.8807119,63 47,64.1192881 47,65.5 C47,66.8807119 45.8807119,68 44.5,68 Z M55,64 C54.4477153,64 54,63.5522847 54,63 C54,62.4477153 54.4477153,62 55,62 C55.5522847,62 56,62.4477153 56,63 C56,63.5522847 55.5522847,64 55,64 Z M65,50 C64.4477153,50 64,49.5522847 64,49 C64,48.4477153 64.4477153,48 65,48 C65.5522847,48 66,48.4477153 66,49 C66,49.5522847 65.5522847,50 65,50 Z M43,22 C42.4477153,22 42,21.5522847 42,21 C42,20.4477153 42.4477153,20 43,20 C43.5522847,20 44,20.4477153 44,21 C44,21.5522847 43.5522847,22 43,22 Z M23,52 C22.4477153,52 22,51.5522847 22,51 C22,50.4477153 22.4477153,50 23,50 C23.5522847,50 24,50.4477153 24,51 C24,51.5522847 23.5522847,52 23,52 Z M28.5,45 C27.6715729,45 27,44.3284271 27,43.5 C27,42.6715729 27.6715729,42 28.5,42 C29.3284271,42 30,42.6715729 30,43.5 C30,44.3284271 29.3284271,45 28.5,45 Z M27.5,60 C26.6715729,60 26,59.3284271 26,58.5 C26,57.6715729 26.6715729,57 27.5,57 C28.3284271,57 29,57.6715729 29,58.5 C29,59.3284271 28.3284271,60 27.5,60 Z M51.5,24 C50.1192881,24 49,22.8807119 49,21.5 C49,20.1192881 50.1192881,19 51.5,19 C52.8807119,19 54,20.1192881 54,21.5 C54,22.8807119 52.8807119,24 51.5,24 Z M50.5,31 C49.1192881,31 48,29.8807119 48,28.5 C48,27.1192881 49.1192881,26 50.5,26 C51.8807119,26 53,27.1192881 53,28.5 C53,29.8807119 51.8807119,31 50.5,31 Z M64.5,38 C62.5670034,38 61,36.4329966 61,34.5 C61,32.5670034 62.5670034,31 64.5,31 C66.4329966,31 68,32.5670034 68,34.5 C68,36.4329966 66.4329966,38 64.5,38 Z M64.5,46 C63.1192881,46 62,44.8807119 62,43.5 C62,42.1192881 63.1192881,41 64.5,41 C65.8807119,41 67,42.1192881 67,43.5 C67,44.8807119 65.8807119,46 64.5,46 Z M60.5,59 C59.1192881,59 58,57.8807119 58,56.5 C58,55.1192881 59.1192881,54 60.5,54 C61.8807119,54 63,55.1192881 63,56.5 C63,57.8807119 61.8807119,59 60.5,59 Z M59.5,31 C58.1192881,31 57,29.8807119 57,28.5 C57,27.1192881 58.1192881,26 59.5,26 C60.8807119,26 62,27.1192881 62,28.5 C62,29.8807119 60.8807119,31 59.5,31 Z" id="Oval-15" fill="#666666"></path>
            <path d="M21.2408711,70.4159831 C27.2149039,75.1637143 34.7762269,78 43,78 C62.3299662,78 78,62.3299662 78,43 C78,34.7762269 75.1637143,27.2149039 70.4159831,21.2408711 L21.2408711,70.4159831 Z M15.5840169,64.7591289 L64.7591289,15.5840169 C58.7850961,10.8362857 51.2237731,8 43,8 C23.6700338,8 8,23.6700338 8,43 C8,51.2237731 10.8362857,58.7850961 15.5840169,64.7591289 Z M43,86 C19.2517558,86 0,66.7482442 0,43 C0,19.2517558 19.2517558,0 43,0 C66.7482442,0 86,19.2517558 86,43 C86,66.7482442 66.7482442,86 43,86 Z" id="Oval-16" fill="#FF0000"></path>
        </g>
    </g>
</svg>