<?xml version="1.0" encoding="UTF-8"?>
<svg width="86px" height="86px" viewBox="0 0 86 86" version="1.1" xmlns="http://www.w3.org/2000/svg" xmlns:xlink="http://www.w3.org/1999/xlink">
    <!-- Generator: Sketch 52.2 (67145) - http://www.bohemiancoding.com/sketch -->
    <title>Icon/NOPAINT</title>
    <desc>Created with Sketch.</desc>
    <g id="Make" stroke="none" stroke-width="1" fill="none" fill-rule="evenodd">
        <g id="Icon/NOPAINT">
            <path d="M27.1054161,18.2391735 C28.8516421,16.650989 31.5693692,16.938117 32.6968656,17.2228401 C33.824362,17.5075632 35.2667485,18.2383765 36.1696146,19.902804 C37.0724808,21.5672316 36.3319851,24.4271729 36.3319851,25.5997271 C36.3319851,26.7722813 35.2608619,27.6753687 35.2608619,28.1333193 C35.2608619,28.5912698 37.6093906,28.5387801 38.2109207,29.0798732 C38.8124508,29.6209663 38.2109207,31.5850506 39.4062172,31.3276777 C40.6015138,31.0703049 52.4763534,24.0562054 56.3769193,22.4113221 C60.2774853,20.7664387 60.9473733,24.5207186 60.2813423,26.5117552 C59.6153114,28.5027918 52.1062485,36.1914632 52.4763534,37.1122317 C52.8464584,38.0330002 52.0206913,37.3477124 55.4969778,36.4225378 C58.9732642,35.4973631 58.3217673,39.4133573 57.8941567,40.509997 C57.4665461,41.6066367 52.2797336,44.8357818 52.4763534,45.6214001 C52.6729733,46.4070184 55.7646946,45.168699 58.6746907,45.327915 C61.5846868,45.4871309 61.5846868,47.9299786 61.2900344,49.8176716 C60.9953821,51.7053646 58.6746907,53.0878935 58.6746907,53.7464033 C58.6746907,54.4049131 60.3437188,53.8823765 61.2900344,54.0420574 C62.2363501,54.2017383 64.086813,55.1194229 64.086813,56.796028 C64.086813,58.4726332 64.0290274,60.3096469 62.5058021,62.3542532 C60.9825767,64.3988594 58.7599021,63.340916 58.2456554,62.1450467 C57.7314088,60.9491775 58.1518802,60.6674793 57.5575383,59.9013218 C56.9631964,59.1351642 51.5638935,60.6674793 48.8811986,60.6674793 C46.1985037,60.6674793 46.4855975,57.3495087 47.1490163,56.3514 C47.8124351,55.3532913 52.649221,51.6543458 52.1062485,51.6543458 C51.563276,51.6543458 40.10339,56.0261501 37.3348362,56.3514 C34.5662824,56.6766499 33.3675356,54.057565 34.1482449,52.1935405 C34.9289541,50.329516 37.3442383,49.615342 37.9906509,48.882671 C38.6370634,48.15 38.4150112,47.9999321 38.5931542,46.5659556 C38.7712972,45.1319791 50.6867266,32.0053234 50.0592216,31.3276777 C49.4317166,30.6500321 26.8458643,45.9133156 22.8524476,49.363901 C20.2016799,51.6543458 17.8258239,48.3832986 19.6318506,46.1418519 C21.4378773,43.9004052 28.5221346,37.5975285 28.3303317,37.3191084 C28.1385288,37.0406883 27.8030531,37.1122317 26.01312,36.9155083 C24.2231869,36.7187849 24.2360086,34.4006381 24.8353384,33.4319751 C25.4346681,32.4633121 30.7016102,24.7423317 30.5382752,24.2885089 C30.3749402,23.8346861 29.5580614,24.4519006 27.4467685,23.6097527 C25.3354756,22.7676047 25.3591901,19.827358 27.1054161,18.2391735 Z M60.247071,70.8627896 C58.808734,70.8627896 57.6427316,69.6967871 57.6427316,68.2584501 C57.6427316,66.8201132 58.808734,65.6541107 60.247071,65.6541107 C61.6854079,65.6541107 62.8514104,66.8201132 62.8514104,68.2584501 C62.8514104,69.6967871 61.6854079,70.8627896 60.247071,70.8627896 Z" id="Path-100" fill="#666666"></path>
            <path d="M21.2408711,70.4159831 C27.2149039,75.1637143 34.7762269,78 43,78 C62.3299662,78 78,62.3299662 78,43 C78,34.7762269 75.1637143,27.2149039 70.4159831,21.2408711 L21.2408711,70.4159831 Z M15.5840169,64.7591289 L64.7591289,15.5840169 C58.7850961,10.8362857 51.2237731,8 43,8 C23.6700338,8 8,23.6700338 8,43 C8,51.2237731 10.8362857,58.7850961 15.5840169,64.7591289 Z M43,86 C19.2517558,86 0,66.7482442 0,43 C0,19.2517558 19.2517558,0 43,0 C66.7482442,0 86,19.2517558 86,43 C86,66.7482442 66.7482442,86 43,86 Z" id="Oval-16" fill="#FF0000"></path>
        </g>
    </g>
</svg>