<?xml version="1.0" encoding="UTF-8"?>
<svg width="34px" height="34px" viewBox="0 0 34 34" version="1.1" xmlns="http://www.w3.org/2000/svg" xmlns:xlink="http://www.w3.org/1999/xlink">
    <!-- Generator: Sketch 55.2 (78181) - https://sketchapp.com -->
    <title>Btn Icon/prohibit</title>
    <desc>Created with Sketch.</desc>
    <g id="Make" stroke="none" stroke-width="1" fill="none" fill-rule="evenodd">
        <g id="C-44&gt;Design-Complete-4&gt;JP" transform="translate(-62.000000, -542.000000)">
            <g id="Content" transform="translate(15.000000, 22.000000)">
                <g id="05_Bottom-Btn" transform="translate(0.000000, 355.000000)">
                    <g id="Btn/Publish" transform="translate(0.000000, 156.000000)">
                        <g id="Btn-Icon/prohibit" transform="translate(47.000000, 9.000000)">
                            <g>
                                <g>
                                    <g>
                                        <g>
                                            <rect id="Rectangle" fill="#D8D8D8" opacity="0.01" x="0" y="0" width="34" height="34"></rect>
                                            <path d="M11.7834455,24.3348732 C13.254997,25.3833239 15.0554823,26 17,26 C21.9705627,26 26,21.9705627 26,17 C26,15.0554823 25.3833239,13.254997 24.3348732,11.7834455 L11.7834455,24.3348732 Z M9.66262982,22.2130482 L22.2130482,9.66262982 C20.7421434,8.61569702 18.9429735,8 17,8 C12.0294373,8 8,12.0294373 8,17 C8,18.9429735 8.61569702,20.7421434 9.66262982,22.2130482 Z M17,29 C10.372583,29 5,23.627417 5,17 C5,10.372583 10.372583,5 17,5 C23.627417,5 29,10.372583 29,17 C29,23.627417 23.627417,29 17,29 Z" id="Oval" fill="#ABABAB" fill-rule="nonzero"></path>
                                        </g>
                                    </g>
                                </g>
                            </g>
                        </g>
                    </g>
                </g>
            </g>
        </g>
    </g>
</svg>