<?xml version="1.0" encoding="UTF-8"?>
<svg width="86px" height="86px" viewBox="0 0 86 86" version="1.1" xmlns="http://www.w3.org/2000/svg" xmlns:xlink="http://www.w3.org/1999/xlink">
    <!-- Generator: Sketch 52.2 (67145) - http://www.bohemiancoding.com/sketch -->
    <title>Icon/NORotate</title>
    <desc>Created with Sketch.</desc>
    <g id="Make" stroke="none" stroke-width="1" fill="none" fill-rule="evenodd">
        <g id="Icon/NORotate">
            <path d="M28.4528567,35.9822685 L22,29.5294118 L38.4705882,29.5294118 L38.4705882,46 L33.004529,40.5339408 C32.7331401,41.5255219 32.5882353,42.5693682 32.5882353,43.6470588 C32.5882353,50.1445265 37.8554735,55.4117647 44.3529412,55.4117647 C50.8504088,55.4117647 56.1176471,50.1445265 56.1176471,43.6470588 C56.1176471,37.1495912 50.8504088,31.8823529 44.3529412,31.8823529 L44.3529412,26 C54.0991426,26 62,33.9008574 62,43.6470588 C62,53.3932603 54.0991426,61.2941176 44.3529412,61.2941176 C34.6067397,61.2941176 26.7058824,53.3932603 26.7058824,43.6470588 C26.7058824,40.9003874 27.3333869,38.3002776 28.4528567,35.9822685 Z" id="Oval" fill="#666666" fill-rule="nonzero"></path>
            <path d="M21.2408711,70.4159831 C27.2149039,75.1637143 34.7762269,78 43,78 C62.3299662,78 78,62.3299662 78,43 C78,34.7762269 75.1637143,27.2149039 70.4159831,21.2408711 L21.2408711,70.4159831 Z M15.5840169,64.7591289 L64.7591289,15.5840169 C58.7850961,10.8362857 51.2237731,8 43,8 C23.6700338,8 8,23.6700338 8,43 C8,51.2237731 10.8362857,58.7850961 15.5840169,64.7591289 Z M43,86 C19.2517558,86 0,66.7482442 0,43 C0,19.2517558 19.2517558,0 43,0 C66.7482442,0 86,19.2517558 86,43 C86,66.7482442 66.7482442,86 43,86 Z" id="Oval-16" fill="#FF0000"></path>
        </g>
    </g>
</svg>