<?xml version="1.0" encoding="UTF-8"?>
<svg width="86px" height="86px" viewBox="0 0 86 86" version="1.1" xmlns="http://www.w3.org/2000/svg" xmlns:xlink="http://www.w3.org/1999/xlink">
    <!-- Generator: Sketch 52.2 (67145) - http://www.bohemiancoding.com/sketch -->
    <title>Icon/NOSPLASH</title>
    <desc>Created with Sketch.</desc>
    <g id="Make" stroke="none" stroke-width="1" fill="none" fill-rule="evenodd">
        <g id="Icon/NOSPLASH">
            <path d="M29.7511138,42.2485694 C29.7478994,42.2066215 29.7436077,42.1644775 29.7382026,42.1221442 C29.446112,39.8344745 25.930086,38.7892606 24.9493448,38.2437312 C23.9686036,37.6982017 18.8555683,36.6767824 18.4836227,36.9834752 C18.1116771,37.290168 19.1906937,37.6560447 18.8555683,37.6560447 C18.5204429,37.6560447 17.0733914,37.0034778 17.1551226,35.9328571 C17.2368539,34.8622364 17.9355209,34.8974411 19.3786805,34.7814663 C20.82184,34.6654915 25.821682,36.4497242 25.930086,36.1636098 C26.03849,35.8774955 25.527998,35.9739946 25.2738949,35.4792437 C25.0197919,34.9844928 27.3643936,34.2272125 26.5600171,33.8292475 C25.7556407,33.4312824 25.6434517,30.9022756 25.3997414,30.5049951 C25.1560311,30.1077146 24.2003994,28.1417116 24.3302021,28.1213119 C24.4600047,28.1009122 25.3997414,28.9663774 25.930086,28.3631701 C26.4604306,27.7599627 24.8575966,25.3403482 24.6136933,24.9651449 C24.3697899,24.5899417 25.0050044,24.2779713 24.6136933,24.1485066 C24.2223821,24.0190418 21.7231106,20.7350448 22.1046199,20.3954275 C22.4861293,20.0558102 24.9133622,23.3539455 25.3997414,23.529703 C25.8861206,23.7054605 27.3548655,26.9294703 27.6745724,27.4427857 C27.9942794,27.956101 29.7214583,27.8723963 29.8863524,27.5673158 C30.0512466,27.2622354 28.5788358,27.0796582 28.9479305,27.0796582 C29.3170253,27.0796582 29.408508,26.5321898 29.2377688,26.0568856 C29.0670297,25.5815814 28.1249077,25.9705507 28.3237995,25.438975 C28.5226913,24.9073992 31.0095094,25.4792882 30.7765662,25.3403482 C30.5436231,25.2014081 29.7208879,23.352372 30.1784429,23.9490795 C30.635998,24.5457871 36.5245975,30.3091378 37.7084669,29.9118573 C38.8923363,29.5145767 38.591336,28.5532432 38.591336,28.3631701 C38.591336,28.173097 37.5659121,26.9294703 38.1338322,26.3667636 C38.7017523,25.804057 38.591336,27.8723963 39.150238,27.7240314 C39.7091399,27.5756664 39.150238,25.7376287 39.150238,24.1485066 C39.150238,22.5593844 37.5242697,19.6652266 36.4323712,17.7656995 C35.3404726,15.8661724 36.6772436,13.922343 37.0230285,13.6164084 C37.3688134,13.3104738 38.591336,13.2712622 39.6852018,14.4306069 C40.7790676,15.5899516 41.6779039,22.2619251 41.6779039,23.3539455 C41.6779039,24.0819591 42.068993,24.5749845 42.8511711,24.8330217 C42.5613777,23.3772406 42.6203072,22.6493501 43.0279595,22.6493501 C43.6394381,22.6493501 43.3991642,24.8977846 43.3991642,25.5261244 C43.3991642,26.1544642 43.6872118,27.4427857 44.045515,27.4427857 C44.4038181,27.4427857 44.2383983,26.9294703 44.4191466,26.9294703 C44.5998949,26.9294703 43.8281061,23.9490795 44.4191466,23.7716524 C45.0101871,23.5942253 44.9026323,26.3172016 44.9026323,26.7273661 C44.9026323,27.1375306 44.9820849,28.3631701 45.602146,28.3631701 C46.01552,28.3631701 47.1487967,27.7528433 49.001976,26.5321898 C49.3824643,25.3254938 49.6434323,24.6633595 49.7848801,24.5457871 C49.9970518,24.3694284 51.2998447,20.0311357 51.6805018,20.3954275 C52.061159,20.7597194 50.8230013,23.5513056 50.6110851,23.9490795 C50.3991689,24.3468535 50.6110851,25.7376287 50.6110851,25.7376287 C50.6110851,25.7376287 52.0016334,22.9892614 53.1771999,23.7716524 C54.3527664,24.5540435 52.7136754,26.1349092 52.7136754,26.7273661 C52.7136754,27.1223373 53.36819,27.5937858 54.6772192,28.1417116 L54.5234235,30.5049951 C54.7467083,30.633889 54.9746768,30.7663158 55.207329,30.9022756 C55.4399812,31.0382355 55.3236551,31.7423766 54.8583507,33.0146991 C55.4094095,33.0146991 55.8228951,33.0146991 56.0988077,33.0146991 C56.5126766,33.0146991 57.8987542,32.0941172 58.4121304,31.8641943 C58.9255067,31.6342714 64.1871343,31.5018036 65.0687772,30.1077146 C65.9504202,28.7136256 68.4828124,28.1213119 68.6521921,28.1417116 C68.8215717,28.1621113 65.1205109,31.6968367 64.7019157,32.0941172 C64.4228522,32.3589709 64.1933934,32.8439898 64.0135393,33.5491739 C63.3409598,33.1928574 62.8603694,33.105119 62.5717683,33.2859588 C62.1388665,33.5572186 59.3447406,36.5591792 58.7277693,37.2587642 C58.1107981,37.9583491 58.2370026,39.3696805 58.9408352,40.0612254 C59.6446678,40.7527702 61.5709464,40.2994502 62.3483557,40.2994502 C63.125765,40.2994502 62.866075,40.7210949 62.5717683,41.087004 C62.5575393,41.1046948 62.5430472,41.1228702 62.5283805,41.1415278 C63.3395968,41.2681012 65.7098775,41.344706 65.8065173,41.6288501 C65.9161803,41.9512855 64.4125807,42.458637 64.1248753,42.3899376 C63.8371698,42.3212382 64.4092204,41.854408 64.1935213,41.741629 C64.059441,41.6715247 63.3989951,41.6341034 62.2121836,41.6293652 C62.0964733,41.8670943 62.0216396,42.1449051 62.058403,42.4609414 C62.4316319,42.3640235 63.1966266,42.0789078 63.2862358,42.2005875 C63.3747185,42.3207376 62.5736277,42.7783044 62.2910007,43.0490528 C62.7773613,43.6075739 64.0135393,43.8201784 64.0135393,44.0125333 C64.0135393,44.2325065 63.482663,44.4098138 63.7633019,45.6016554 C64.0439408,46.793497 67.3750744,47.9853386 66.9318259,49.1975799 C66.4885775,50.4098212 63.2717687,49.9717413 62.133757,50.7663023 C60.9957453,51.5608634 61.8895233,52.752705 61.1201615,52.8084875 C60.3507996,52.86427 59.1402331,51.3119478 58.7277693,51.3141841 C58.4527935,51.315675 58.2892046,51.5303282 58.2370026,51.9581439 C57.6636324,51.191265 57.2568742,51.0656381 57.016728,51.5812631 C56.6565088,52.3547006 58.232915,53.3821832 57.8987542,53.3821832 C57.5645934,53.3821832 55.8018185,51.9933994 54.8583507,52.1731496 C53.9148829,52.3528997 52.625247,53.5472661 53.4720176,53.5472661 C54.3187883,53.5472661 55.506873,56.9560177 55.506873,58.3146325 C55.506873,59.6732472 57.0186441,61.5679734 57.4998306,62.361409 C57.981017,63.1548446 57.7297577,64.6306032 56.5094832,64.6306032 C55.7936625,64.6306032 54.9799543,63.3141658 54.0396823,62.361409 C53.3770528,61.6899812 52.414225,61.3935004 52.414225,61.0176268 C52.414225,60.3162558 51.1971608,57.5875411 50.4538821,56.1990854 C50.1714368,56.5551993 49.6227002,56.785614 49.4490838,56.7255103 C49.1939279,56.6371788 49.2954742,56.1705973 49.5783053,56.0760493 C49.7959613,56.0032887 49.8387494,55.5803739 49.8469115,55.3118273 C49.4891787,55.0678739 49.1842605,55.2885784 49.001976,55.2885784 C48.8004494,55.2885784 48.8146861,55.6521672 48.5792275,56.3282298 C48.343769,57.0042924 46.7332936,57.1370064 46.6175153,58.3017879 C46.501737,59.4665694 47.5247309,59.7289143 47.4343913,60.4910181 C47.3440518,61.2531218 46.218593,62.361409 46.0900202,62.361409 C45.9614474,62.361409 46.7365964,61.0176268 45.602146,61.0176268 C44.8505164,61.0176268 43.6414135,63.929654 42.6036588,65.7002335 C42.0751083,66.6020272 41.3413697,67.0287865 41.248751,66.9920194 C40.974285,66.8830639 39.7411984,67.0586256 40.1943085,65.2815656 C40.3642945,64.6148946 40.2467549,63.4679026 40.0088812,62.2941277 C39.8728333,62.9867841 39.4645657,64.507006 39.2921755,64.3463239 C39.0752854,64.1441642 39.7220272,62.6165222 39.9686771,62.1007997 C39.910644,61.8285865 39.8466482,61.5562712 39.7787667,61.289488 C39.6117307,61.2704479 39.4808258,61.3603224 39.3860521,61.5591115 C39.1650688,62.0226268 36.9930564,63.0819989 36.7336763,62.7198358 C36.5607563,62.4783937 37.284722,61.7045775 38.9055734,60.3983872 C39.2258925,60.5983395 39.3860521,60.6983157 39.3860521,60.6983157 C39.3860521,60.6983157 39.4639037,60.6983157 39.619607,60.6983157 C39.2422162,59.3707027 38.8020401,58.3075926 38.591336,58.3017879 C38.1250923,58.2889434 37.2226973,58.711913 36.8310281,58.3017879 C36.4393589,57.8916629 38.7429817,55.7446411 37.3433735,55.0432341 C35.9437653,54.3418271 26.5600171,59.9366509 26.2649568,60.6983157 C25.9698965,61.4599805 24.0469546,63.4289392 22.9073521,63.8195963 C21.7677495,64.2102534 19.916407,68.148821 18.1697977,69.0412069 C16.4231884,69.9335927 15.3401382,68.6989034 15.8595261,67.4520848 C16.378914,66.2052661 24.6136933,58.711913 27.3191729,56.4493146 C30.0246525,54.1867161 31.8495847,50.6044117 31.4288855,49.5744607 C31.0081862,48.5445098 30.1784429,48.149078 29.2377688,47.9853386 C28.2970947,47.8215992 25.5718352,47.9853386 24.6136933,48.149078 C23.974932,48.2582376 23.5511098,48.673496 23.3422267,49.3948533 C21.894199,49.2633377 20.8455367,49.3232068 20.1962397,49.5744607 C19.2222943,49.9513416 15.3029663,50.4248043 15.0183158,49.748383 C14.7336653,49.0719618 17.8380902,48.4241424 19.3786805,47.5880581 C20.9192708,46.7519738 26.0491241,46.3962165 26.5600171,46.2704066 C27.0364151,46.1530912 29.6418253,44.6367409 29.7546534,42.577642 C28.5485219,42.806942 25.1678046,42.8049138 25.3393496,42.6204947 C25.5090859,42.43802 28.6040839,42.1371348 29.7511138,42.2485694 Z M38.6079985,66.6575237 C38.6079985,66.5709865 39.0887094,66.5853235 39.1027415,67.2041304 C39.1290213,68.3630552 38.6869927,70.5812568 38.6079985,70.7620729 C38.4868253,71.0394355 38.0925011,70.7135795 37.9126065,70.3790598 C37.7327119,70.04454 38.6079985,66.9061311 38.6079985,66.6575237 Z M60.1460675,55.0379328 C60.1460675,54.7533171 63.4472035,57.3145714 63.2800992,57.4848855 C63.1129949,57.6551996 61.8953126,56.7350272 61.6073058,56.7255103 C61.3192989,56.7159935 60.1460675,55.3225485 60.1460675,55.0379328 Z M70.2458587,42.1708761 C70.2458587,42.3962541 73.004908,42.8995286 73.004908,42.4206584 C73.004908,41.9417881 70.2458587,41.945498 70.2458587,42.1708761 Z M71.4012422,36.0669226 C71.0721243,36.0669226 70.8053214,35.889054 70.8053214,35.669642 C70.8053214,35.4502301 71.0721243,35.2723615 71.4012422,35.2723615 C71.7303602,35.2723615 71.997163,35.4502301 71.997163,35.669642 C71.997163,35.889054 71.7303602,36.0669226 71.4012422,36.0669226 Z M69.8734824,26.5321898 C69.8734824,26.2176285 70.3496482,26.5321898 70.6330267,26.5321898 C70.9164053,26.5321898 70.8886684,26.9294703 70.8053214,27.2550701 C70.7219745,27.5806699 70.4077009,27.3682741 70.2458587,27.0161418 C70.0840165,26.6640096 69.8734824,26.846751 69.8734824,26.5321898 Z M54.0870632,10.0605174 C54.2507722,9.55987817 54.3242082,12.3141076 54.3242082,12.8569172 C54.3242082,13.3997267 54.0870632,14.2289601 53.636935,15.0204896 C53.1868067,15.812019 53.636935,17.1004779 53.3300639,17.7266812 C53.0231929,18.3528846 52.6068337,17.7311521 52.2449808,16.8527742 C51.8831279,15.9743962 53.3689698,13.6752415 53.636935,13.4331176 C53.9049002,13.1909936 53.8619991,12.4933056 53.636935,12.0450009 C53.4118708,11.5966963 53.9233543,10.5611567 54.0870632,10.0605174 Z M52.8520029,12.6400766 C52.979023,12.6400766 53.0614862,13.5627012 52.8520029,13.4979094 C52.6425197,13.4331176 52.7249829,12.6400766 52.8520029,12.6400766 Z M41.513969,14.5363778 C41.7204999,14.3743617 43.1715642,19.4632122 42.2753917,19.6652266 C41.3792192,19.8672409 41.307438,14.6983939 41.513969,14.5363778 Z M33.8347392,16.4656569 C33.638855,16.6071102 33.9325816,17.3953474 34.1905569,17.3953474 C34.4485323,17.3953474 34.0306235,16.3242035 33.8347392,16.4656569 Z M26.9422855,19.9166455 C27.1600185,20.0911965 28.2419991,19.4964471 27.925407,19.1716136 C27.608815,18.8467802 26.7245525,19.7420945 26.9422855,19.9166455 Z M23.0068199,25.7376287 C23.2688344,25.3403482 24.7567228,25.6146469 24.5916112,26.1349092 C24.4264996,26.6551715 23.8239231,27.0410307 23.4153715,26.8234373 C23.0068199,26.6058439 22.7448054,26.1349092 23.0068199,25.7376287 Z M25.142314,49.9717413 C25.2404499,50.1755883 25.7657151,50.4134862 25.8955955,50.2945372 C26.0254759,50.1755883 25.044178,49.7678942 25.142314,49.9717413 Z M29.8628638,30.1399922 C29.7168704,30.4588546 29.963526,31.6094819 30.567962,32.3460678 C31.0241617,32.9020082 31.7867295,33.2325401 32.8556653,33.3376638 C32.7774471,32.1033062 32.4158713,31.1934928 31.7709378,30.6082234 C31.0280726,29.9340821 29.998069,29.8446921 29.8628638,30.1399922 Z M27.7651235,35.3553621 C27.6191301,35.6742245 27.7644923,36.3991259 29.0371734,36.664432 C29.6490729,36.79199 30.7844381,36.5362511 32.4432691,35.8972155 C32.2708295,34.9626694 31.3862126,34.4577701 29.7894183,34.3825175 C28.3889937,34.3165192 27.9003287,35.060062 27.7651235,35.3553621 Z M30.6844299,26.3696834 C30.5384364,26.6885459 31.1113611,27.1287118 31.715797,27.8652977 C32.1719968,28.421238 32.8007714,28.7729404 33.6021207,28.9204048 C33.5356029,28.3555009 33.1798773,27.7804142 32.5349438,27.1951448 C31.7920786,26.5210035 30.8196351,26.0743834 30.6844299,26.3696834 Z" id="Path-87-Copy" fill="#666666"></path>
            <path d="M21.2408711,70.4159831 C27.2149039,75.1637143 34.7762269,78 43,78 C62.3299662,78 78,62.3299662 78,43 C78,34.7762269 75.1637143,27.2149039 70.4159831,21.2408711 L21.2408711,70.4159831 Z M15.5840169,64.7591289 L64.7591289,15.5840169 C58.7850961,10.8362857 51.2237731,8 43,8 C23.6700338,8 8,23.6700338 8,43 C8,51.2237731 10.8362857,58.7850961 15.5840169,64.7591289 Z M43,86 C19.2517558,86 0,66.7482442 0,43 C0,19.2517558 19.2517558,0 43,0 C66.7482442,0 86,19.2517558 86,43 C86,66.7482442 66.7482442,86 43,86 Z" id="Oval-16" fill="#FF0000"></path>
        </g>
    </g>
</svg>