<?xml version="1.0" encoding="UTF-8"?>
<svg width="86px" height="86px" viewBox="0 0 86 86" version="1.1" xmlns="http://www.w3.org/2000/svg" xmlns:xlink="http://www.w3.org/1999/xlink">
    <!-- Generator: Sketch 52.2 (67145) - http://www.bohemiancoding.com/sketch -->
    <title>Icon/NOSTAMP</title>
    <desc>Created with Sketch.</desc>
    <g id="Make" stroke="none" stroke-width="1" fill="none" fill-rule="evenodd">
        <g id="Icon/NOSTAMP">
            <g id="Group-27" transform="translate(43.181323, 43.181323) rotate(18.000000) translate(-43.181323, -43.181323) translate(21.681323, 21.681323)" fill="#666666">
                <path d="M21.2057166,42.4114332 C9.49412271,42.4114332 0,32.9173105 0,21.2057166 C0,9.49412271 9.49412271,0 21.2057166,0 C32.9173105,0 42.4114332,9.49412271 42.4114332,21.2057166 C42.4114332,32.9173105 32.9173105,42.4114332 21.2057166,42.4114332 Z M21.2057166,39.3820451 C31.2442256,39.3820451 39.3820451,31.2442256 39.3820451,21.2057166 C39.3820451,11.1672075 31.2442256,3.02938808 21.2057166,3.02938808 C11.1672075,3.02938808 3.02938808,11.1672075 3.02938808,21.2057166 C3.02938808,31.2442256 11.1672075,39.3820451 21.2057166,39.3820451 Z" id="Oval-10"></path>
                <circle id="Oval" cx="13.9351852" cy="19.0851449" r="2.42351047"></circle>
                <circle id="Oval-Copy-105" cx="25.4468599" cy="15.1469404" r="2.42351047"></circle>
                <path d="M11.8023797,28.9952762 C11.1631477,28.4556599 11.0823933,27.5000146 11.6220096,26.8607827 C12.1616259,26.2215507 13.1172712,26.1407963 13.7565032,26.6804126 C17.164237,29.5570972 20.9526903,30.1560002 24.2954091,28.7399405 C27.3850825,27.4310773 29.6470715,24.538092 30.0850566,21.3052995 C30.1973669,20.4763305 30.9604246,19.8953639 31.7893936,20.0076742 C32.6183626,20.1199846 33.1993292,20.8830423 33.0870189,21.7120113 C32.5036694,26.0177465 29.5399393,29.8082281 25.4770767,31.5293587 C21.0759876,33.3937706 16.0766266,32.6034396 11.8023797,28.9952762 Z" id="Path-88" fill-rule="nonzero"></path>
            </g>
            <path d="M21.2408711,70.4159831 C27.2149039,75.1637143 34.7762269,78 43,78 C62.3299662,78 78,62.3299662 78,43 C78,34.7762269 75.1637143,27.2149039 70.4159831,21.2408711 L21.2408711,70.4159831 Z M15.5840169,64.7591289 L64.7591289,15.5840169 C58.7850961,10.8362857 51.2237731,8 43,8 C23.6700338,8 8,23.6700338 8,43 C8,51.2237731 10.8362857,58.7850961 15.5840169,64.7591289 Z M43,86 C19.2517558,86 0,66.7482442 0,43 C0,19.2517558 19.2517558,0 43,0 C66.7482442,0 86,19.2517558 86,43 C86,66.7482442 66.7482442,86 43,86 Z" id="Oval-16" fill="#FF0000"></path>
        </g>
    </g>
</svg>