<?xml version="1.0" encoding="UTF-8"?>
<svg width="86px" height="86px" viewBox="0 0 86 86" version="1.1" xmlns="http://www.w3.org/2000/svg" xmlns:xlink="http://www.w3.org/1999/xlink">
    <!-- Generator: Sketch 54.1 (76490) - https://sketchapp.com -->
    <title>graphic/asset/no_text</title>
    <desc>Created with Sketch.</desc>
    <g id="Icon" stroke="none" stroke-width="1" fill="none" fill-rule="evenodd">
        <g id="Asset" transform="translate(-176.000000, -574.000000)">
            <g id="86pt" transform="translate(60.000000, 423.000000)">
                <g id="graphic/asset/no_text" transform="translate(116.000000, 151.000000)">
                    <g id="asset/no_text">
                        <g>
                            <path d="M24.025,36.29 L21.575,44.27 L26.44,44.27 L24.025,36.29 Z M19.965,49.135 L18.32,54 L13.455,54 L21.575,29.64 L26.44,29.64 L34.56,54 L29.695,54 L28.085,49.135 L19.965,49.135 Z M41.035,49.135 L45.095,49.135 C46.46,49.135 47.545,47.98 47.545,46.72 C47.545,45.355 46.6,44.27 45.095,44.27 L41.035,44.27 L41.035,49.135 Z M45.095,39.37 C46.46,39.37 47.51,38.46 47.51,36.955 C47.51,35.45 46.46,34.505 45.095,34.505 L41.035,34.505 L41.035,39.37 L45.095,39.37 Z M45.095,29.64 C49.19,29.64 52.41,32.93 52.41,36.92 C52.41,38.74 51.78,40.455 50.555,41.82 C51.815,43.22 52.41,44.9 52.41,46.72 C52.41,50.955 48.875,54 45.06,54 L36.17,54 L36.17,29.64 L45.095,29.64 Z M65.57,37.515 C65.57,35.66 64.1,34.26 62.315,34.26 C60.46,34.26 59.06,35.87 59.06,37.515 L59.06,46.125 C59.06,47.91 60.53,49.38 62.315,49.38 C64.135,49.38 65.465,48.085 65.57,46.125 L70.435,46.125 C70.435,50.57 66.83,54.245 62.315,54.245 C57.87,54.245 54.195,50.57 54.195,46.125 L54.195,37.515 C54.195,33 57.87,29.395 62.315,29.395 C66.83,29.395 70.435,33 70.435,37.515 L65.57,37.515 Z" id="ABC" fill="#666666" fill-rule="nonzero"></path>
                            <path d="M21.2408711,70.4159831 C27.2149039,75.1637143 34.7762269,78 43,78 C62.3299662,78 78,62.3299662 78,43 C78,34.7762269 75.1637143,27.2149039 70.4159831,21.2408711 L21.2408711,70.4159831 Z M15.5840169,64.7591289 L64.7591289,15.5840169 C58.7850961,10.8362857 51.2237731,8 43,8 C23.6700338,8 8,23.6700338 8,43 C8,51.2237731 10.8362857,58.7850961 15.5840169,64.7591289 Z M43,86 C19.2517558,86 0,66.7482442 0,43 C0,19.2517558 19.2517558,0 43,0 C66.7482442,0 86,19.2517558 86,43 C86,66.7482442 66.7482442,86 43,86 Z" id="Oval-16" fill="#FF0000"></path>
                        </g>
                    </g>
                </g>
            </g>
        </g>
    </g>
</svg>
