<svg xmlns="http://www.w3.org/2000/svg" width="40" height="40" viewBox="0 0 40 40">
    <g fill="none" fill-rule="evenodd">
        <circle cx="20" cy="20" r="19.5" fill="#FFF" stroke="#DADADA"/>
        <path fill="#F00" d="M12.256 7.793c.82-.745 2.095-.61 2.624-.477.53.134 1.206.477 1.63 1.258.423.78.076 2.123.076 2.673 0 .55-.503.975-.503 1.19 0 .214 1.102.19 1.385.444.282.254 0 1.175.56 1.055.562-.121 6.135-3.413 7.965-4.185 1.83-.772 2.145.99 1.832 1.924-.312.935-3.836 4.543-3.662 4.975.173.432-.214.11 1.417-.323 1.632-.435 1.326 1.403 1.125 1.918-.2.514-2.635 2.03-2.542 2.399.092.368 1.543-.213 2.908-.138 1.366.075 1.366 1.221 1.228 2.107-.138.886-1.228 1.535-1.228 1.844 0 .309.784.064 1.228.138.444.075 1.312.506 1.312 1.293 0 .787-.027 1.649-.742 2.608a1.146 1.146 0 0 1-1.999-.098c-.241-.561-.044-.693-.323-1.053s-2.813.36-4.072.36-1.124-1.557-.813-2.026c.312-.468 2.582-2.204 2.327-2.204-.255 0-5.633 2.052-6.932 2.204-1.3.153-1.862-1.076-1.496-1.951.366-.875 1.5-1.21 1.803-1.554.304-.344.2-.414.283-1.087.084-.673 5.676-6.833 5.381-7.151-.294-.318-10.894 6.845-12.768 8.464-1.244 1.075-2.359-.46-1.511-1.512.847-1.052 4.172-4.01 4.082-4.14-.09-.131-.248-.098-1.088-.19-.84-.092-.834-1.18-.552-1.635.28-.455 2.753-4.078 2.676-4.291-.077-.213-.46.077-1.45-.319-.992-.395-.98-1.775-.161-2.52zM27.809 32.49a1.222 1.222 0 1 1 0-2.444 1.222 1.222 0 0 1 0 2.444z"/>
    </g>
</svg>
