<svg xmlns="http://www.w3.org/2000/svg" width="72" height="72" viewBox="0 0 72 72">
    <g fill="none" fill-rule="evenodd">
        <circle cx="36" cy="36" r="35.5" fill="#FFF" stroke="#DADADA"/>
        <path fill="#F00" d="M22.06 14.028c1.476-1.342 3.772-1.1 4.724-.859.952.24 2.17.858 2.934 2.264.762 1.406.137 3.822.137 4.812 0 .99-.905 1.754-.905 2.14 0 .387 1.984.343 2.492.8s0 2.116 1.01 1.899c1.01-.217 11.04-6.143 14.336-7.532 3.295-1.39 3.86 1.782 3.298 3.464-.563 1.682-6.906 8.177-6.593 8.954.312.778-.385.2 2.551-.582 2.937-.782 2.386 2.526 2.025 3.453-.361.926-4.743 3.654-4.576 4.318.166.663 2.777-.383 5.236-.248 2.458.134 2.458 2.198 2.209 3.792-.249 1.595-2.21 2.763-2.21 3.32 0 .555 1.41.114 2.21.249s2.362.91 2.362 2.326c0 1.417-.048 2.968-1.335 4.695-1.287 1.728-3.164.834-3.599-.176-.434-1.01-.08-1.248-.581-1.896-.502-.647-5.063.648-7.33.648-2.266 0-2.023-2.803-1.463-3.646.56-.844 4.647-3.968 4.188-3.968-.459 0-10.14 3.693-12.478 3.968-2.339.274-3.352-1.938-2.692-3.513.66-1.574 2.7-2.178 3.246-2.797.546-.618.358-.745.509-1.957.15-1.21 10.216-12.3 9.686-12.872-.53-.572-19.61 12.321-22.983 15.236-2.24 1.935-4.246-.828-2.72-2.722 1.525-1.893 7.51-7.218 7.347-7.453-.162-.235-.445-.175-1.957-.34-1.512-.167-1.501-2.125-.995-2.943.506-.819 4.955-7.341 4.817-7.724-.137-.384-.828.138-2.611-.574-1.784-.711-1.764-3.195-.288-4.536zM50.058 58.48a2.2 2.2 0 1 1 0-4.4 2.2 2.2 0 0 1 0 4.4z"/>
    </g>
</svg>
