<?xml version="1.0" encoding="UTF-8"?>
<svg width="170px" height="55px" viewBox="0 0 170 55" version="1.1" xmlns="http://www.w3.org/2000/svg" xmlns:xlink="http://www.w3.org/1999/xlink">
    <!-- Generator: Sketch 55.2 (78181) - https://sketchapp.com -->
    <title>Paint_Text_Pressed</title>
    <desc>Created with Sketch.</desc>
    <g id="Make" stroke="none" stroke-width="1" fill="none" fill-rule="evenodd">
        <g id="C-01&gt;Make-Graphic&gt;JP复制备份" transform="translate(-12.000000, -541.000000)">
            <g id="Content" transform="translate(12.000000, 64.000000)">
                <g id="03_PAINT" transform="translate(0.000000, 283.000000)">
                    <g id="Paint_Text_Normal" transform="translate(0.000000, 170.000000)">
                        <g id="Paint_Text_Pressed" transform="translate(0.000000, 24.000000)">
                            <g>
                                <rect id="矩形" fill-opacity="0.01" fill="#FFFFFF" x="0" y="0" width="170" height="55"></rect>
                                <path d="M27.643,31.512 L28.282,31.512 C28.921,32.439 29.902,33.447 30.784,34.023 C30.658,34.185 30.487,34.419 30.379,34.617 C29.515,33.978 28.543,32.97 27.994,32.16 C27.499,32.979 26.59,34.005 25.627,34.707 C25.546,34.536 25.375,34.293 25.24,34.149 C26.203,33.483 27.175,32.385 27.643,31.512 Z M26.428,34.86 L26.428,34.275 L29.713,34.275 L29.713,34.86 L26.428,34.86 Z M22.846,36.57 L23.422,36.678 C23.296,37.524 23.08,38.388 22.783,38.964 C22.675,38.883 22.405,38.757 22.261,38.712 C22.558,38.163 22.747,37.362 22.846,36.57 Z M25.114,35.913 L24.403,35.958 L24.403,39.702 L23.809,39.702 L23.809,35.994 C23.296,36.021 22.81,36.048 22.396,36.075 L22.342,35.481 L22.936,35.454 C23.125,35.211 23.332,34.923 23.53,34.626 C23.251,34.221 22.783,33.717 22.369,33.348 L22.711,32.916 C22.801,32.988 22.882,33.069 22.972,33.15 C23.278,32.646 23.593,31.971 23.782,31.476 L24.367,31.71 C24.061,32.304 23.683,33.015 23.35,33.519 C23.548,33.717 23.728,33.924 23.872,34.104 C24.223,33.546 24.547,32.97 24.781,32.493 L25.348,32.745 C24.835,33.6 24.151,34.653 23.557,35.427 L24.889,35.373 C24.763,35.094 24.619,34.806 24.466,34.563 L24.934,34.374 C25.303,34.95 25.663,35.724 25.78,36.21 L25.276,36.435 C25.24,36.282 25.186,36.102 25.114,35.913 Z M24.7,36.669 L25.186,36.507 C25.429,37.02 25.672,37.704 25.762,38.145 L25.249,38.316 C25.159,37.866 24.934,37.191 24.7,36.669 Z M28.633,37.389 L29.155,37.119 C29.749,37.83 30.388,38.784 30.685,39.414 L30.118,39.729 C30.037,39.54 29.92,39.324 29.785,39.09 C28.255,39.207 26.662,39.342 25.537,39.432 L25.429,38.811 L26.374,38.757 C26.662,38.127 26.986,37.191 27.175,36.462 L25.843,36.462 L25.843,35.868 L30.505,35.868 L30.505,36.462 L27.922,36.462 C27.661,37.2 27.346,38.073 27.067,38.712 C27.805,38.658 28.633,38.604 29.461,38.541 C29.2,38.145 28.912,37.731 28.633,37.389 Z M33.439,37.74 C33.835,37.74 34.33,37.146 34.789,35.643 C35.014,34.905 35.185,34.059 35.284,33.24 C33.574,33.456 32.53,34.923 32.53,36.12 C32.53,37.245 33.052,37.74 33.439,37.74 Z M35.788,39.234 L35.374,38.559 C35.653,38.541 35.923,38.496 36.139,38.451 C37.282,38.199 38.398,37.353 38.398,35.814 C38.398,34.464 37.543,33.357 36.031,33.231 C35.914,34.059 35.743,34.959 35.5,35.796 C34.951,37.623 34.24,38.568 33.412,38.568 C32.62,38.568 31.819,37.65 31.819,36.183 C31.819,34.248 33.547,32.556 35.725,32.556 C37.813,32.556 39.145,34.032 39.145,35.832 C39.145,37.704 37.912,38.955 35.788,39.234 Z M42.484,33.735 L42.484,34.581 L46.579,34.581 L46.579,33.735 L42.484,33.735 Z M42.484,35.094 L42.484,35.958 L46.579,35.958 L46.579,35.094 L42.484,35.094 Z M42.484,32.376 L42.484,33.222 L46.579,33.222 L46.579,32.376 L42.484,32.376 Z M41.827,31.845 L47.263,31.845 L47.263,36.489 L41.827,36.489 L41.827,31.845 Z M40.54,37.101 L48.469,37.101 L48.469,37.722 L40.54,37.722 L40.54,37.101 Z M45.247,38.46 L45.724,38.01 C46.759,38.379 47.875,38.856 48.568,39.225 L47.929,39.684 C47.308,39.315 46.264,38.829 45.247,38.46 Z M43.177,37.965 L43.789,38.397 C43.024,38.883 41.872,39.378 40.954,39.675 C40.846,39.54 40.648,39.306 40.495,39.162 C41.413,38.883 42.574,38.388 43.177,37.965 Z M55.588,34.329 C55.795,34.626 56.137,35.184 56.326,35.58 L55.867,35.796 C55.66,35.364 55.399,34.896 55.129,34.527 L55.588,34.329 Z M56.569,33.951 C56.785,34.248 57.136,34.797 57.352,35.193 L56.884,35.409 C56.668,34.977 56.407,34.536 56.119,34.158 L56.569,33.951 Z M49.747,33.078 C50.089,33.069 50.368,33.051 50.539,33.033 C51.124,32.979 52.807,32.817 54.445,32.673 C55.417,32.592 56.254,32.547 56.848,32.52 L56.848,33.24 C56.335,33.24 55.561,33.249 55.102,33.384 C53.833,33.789 53.068,35.148 53.068,36.201 C53.068,37.938 54.688,38.487 56.137,38.541 L55.876,39.297 C54.229,39.225 52.348,38.343 52.348,36.354 C52.348,34.968 53.185,33.834 54.004,33.348 C53.221,33.438 50.791,33.672 49.828,33.87 L49.747,33.078 Z M60.16,38.568 L64.957,38.568 L64.957,37.236 L60.16,37.236 L60.16,38.568 Z M64.957,35.301 L60.16,35.301 L60.16,36.606 L64.957,36.606 L64.957,35.301 Z M64.957,33.33 L60.16,33.33 L60.16,34.671 L64.957,34.671 L64.957,33.33 Z M62.419,32.691 L65.65,32.691 L65.65,39.657 L64.957,39.657 L64.957,39.198 L60.16,39.198 L60.16,39.702 L59.494,39.702 L59.494,32.691 L61.753,32.691 C61.888,32.295 62.032,31.809 62.104,31.458 L62.869,31.557 C62.734,31.944 62.572,32.349 62.419,32.691 Z M71.806,38.478 L74.281,38.478 L74.281,36.48 L71.806,36.48 L71.806,38.478 Z M68.719,36.48 L68.719,38.478 L71.14,38.478 L71.14,36.48 L68.719,36.48 Z M71.14,33.879 L68.719,33.879 L68.719,35.823 L71.14,35.823 L71.14,33.879 Z M74.281,33.879 L71.806,33.879 L71.806,35.823 L74.281,35.823 L74.281,33.879 Z M71.806,33.213 L74.956,33.213 L74.956,39.648 L74.281,39.648 L74.281,39.135 L68.719,39.135 L68.719,39.693 L68.053,39.693 L68.053,33.213 L71.14,33.213 L71.14,31.485 L71.806,31.485 L71.806,33.213 Z M77.611,32.187 L78.421,32.25 C78.367,32.403 78.286,32.691 78.25,32.853 C78.079,33.672 77.818,35.265 77.818,36.264 C77.818,36.696 77.836,37.056 77.89,37.488 C78.043,37.083 78.241,36.561 78.385,36.21 L78.772,36.498 C78.547,37.128 78.223,38.073 78.142,38.496 C78.115,38.622 78.097,38.793 78.097,38.892 L78.124,39.207 L77.476,39.252 C77.296,38.622 77.152,37.596 77.152,36.39 C77.152,35.076 77.44,33.546 77.548,32.817 C77.575,32.61 77.611,32.376 77.611,32.187 Z M79.807,36.507 L80.455,36.57 C80.374,36.894 80.338,37.146 80.338,37.389 C80.338,37.794 80.608,38.19 81.832,38.19 C82.633,38.19 83.317,38.118 84.037,37.956 L84.046,38.712 C83.497,38.82 82.75,38.892 81.823,38.892 C80.329,38.892 79.663,38.397 79.663,37.56 C79.663,37.236 79.726,36.885 79.807,36.507 Z M80.113,33.672 L80.104,32.934 C81.076,33.096 82.876,33.06 83.767,32.934 L83.767,33.672 C82.813,33.771 81.085,33.771 80.113,33.672 Z M91.336,33.6 C91.336,33.96 91.633,34.257 92.002,34.257 C92.362,34.257 92.659,33.96 92.659,33.6 C92.659,33.231 92.362,32.943 92.002,32.943 C91.633,32.943 91.336,33.231 91.336,33.6 Z M90.904,33.6 C90.904,32.997 91.39,32.502 92.002,32.502 C92.605,32.502 93.091,32.997 93.091,33.6 C93.091,34.203 92.605,34.689 92.002,34.689 C91.39,34.689 90.904,34.203 90.904,33.6 Z M85.486,36.633 C85.711,36.435 85.882,36.273 86.116,36.039 C86.548,35.598 87.331,34.599 87.898,33.933 C88.375,33.366 88.744,33.303 89.392,33.843 C89.941,34.293 90.679,35.085 91.255,35.706 C91.858,36.354 92.776,37.335 93.433,38.109 L92.848,38.748 C92.218,37.938 91.399,37.011 90.823,36.354 C90.202,35.661 89.455,34.851 89.068,34.527 C88.69,34.212 88.564,34.221 88.258,34.599 C87.826,35.121 87.07,36.111 86.665,36.606 C86.476,36.84 86.278,37.119 86.143,37.299 L85.486,36.633 Z M101.155,31.971 L101.749,32.511 C101.128,33.141 100.264,33.879 99.337,34.464 L99.337,38.316 C99.337,38.658 99.355,39.099 99.391,39.279 L98.509,39.279 C98.536,39.108 98.563,38.658 98.563,38.316 L98.563,34.914 C97.6,35.445 96.358,35.967 95.179,36.318 L94.765,35.616 C96.268,35.265 97.798,34.581 98.788,33.96 C99.706,33.393 100.651,32.61 101.155,31.971 Z M105.043,32.403 C105.682,32.826 106.834,33.762 107.338,34.266 L106.771,34.833 C106.321,34.365 105.196,33.402 104.53,32.952 L105.043,32.403 Z M104.269,38.433 C105.844,38.199 107.014,37.65 107.869,37.119 C109.255,36.246 110.353,34.914 110.875,33.807 L111.307,34.572 C110.686,35.697 109.642,36.921 108.283,37.767 C107.383,38.343 106.249,38.892 104.746,39.171 L104.269,38.433 Z M119.623,35.922 L119.317,36.687 C118.336,36.156 116.779,35.553 115.78,35.238 L115.789,38.208 C115.789,38.496 115.807,38.973 115.843,39.27 L114.979,39.27 C115.015,38.982 115.033,38.541 115.033,38.208 L115.033,32.97 C115.033,32.718 115.015,32.313 114.961,32.034 L115.843,32.034 C115.816,32.313 115.78,32.7 115.78,32.97 L115.78,34.437 C116.968,34.797 118.669,35.445 119.623,35.922 Z M123.169,32.007 L124.078,32.016 C124.033,32.304 124.006,32.619 123.988,32.907 C123.952,33.915 123.88,36.021 123.88,37.353 C123.88,38.334 124.51,38.676 125.338,38.676 C126.976,38.676 127.903,37.758 128.542,36.831 L129.037,37.452 C128.434,38.298 127.282,39.414 125.32,39.414 C124.042,39.414 123.16,38.874 123.16,37.425 C123.16,36.102 123.25,33.852 123.25,32.907 C123.25,32.583 123.223,32.268 123.169,32.007 Z M134.509,37.956 C134.509,37.803 134.5,37.596 134.5,37.353 C134.221,37.299 133.933,37.272 133.636,37.272 C132.79,37.272 132.331,37.596 132.331,38.001 C132.331,38.415 132.682,38.721 133.564,38.721 C134.077,38.721 134.509,38.568 134.509,37.956 Z M137.758,38.262 L137.353,38.892 C136.831,38.415 136.093,37.875 135.202,37.551 C135.211,37.776 135.22,37.974 135.22,38.109 C135.22,38.721 134.806,39.36 133.645,39.36 C132.367,39.36 131.656,38.901 131.656,38.037 C131.656,37.227 132.439,36.678 133.726,36.678 C133.987,36.678 134.23,36.696 134.473,36.732 C134.455,36.336 134.437,35.913 134.428,35.544 L133.933,35.544 C133.321,35.544 132.331,35.49 131.692,35.418 L131.692,34.734 C132.295,34.842 133.348,34.905 133.933,34.905 L134.41,34.905 L134.41,33.627 L133.969,33.627 C133.348,33.627 132.403,33.555 131.872,33.492 L131.872,32.826 C132.412,32.925 133.366,32.997 133.96,32.997 L134.419,32.997 L134.419,32.412 C134.419,32.268 134.41,32.007 134.392,31.881 L135.157,31.881 C135.13,32.043 135.121,32.214 135.112,32.475 C135.103,32.583 135.103,32.754 135.103,32.97 C135.877,32.943 136.606,32.871 137.389,32.754 L137.398,33.411 C136.696,33.483 135.931,33.555 135.094,33.6 L135.094,34.878 C135.949,34.842 136.768,34.761 137.569,34.644 L137.578,35.319 C136.741,35.427 135.949,35.49 135.103,35.526 C135.121,35.985 135.148,36.453 135.166,36.876 C136.345,37.2 137.254,37.857 137.758,38.262 Z M143.32,36.894 C143.842,36.894 144.184,36.471 144.103,35.625 C143.959,35.238 143.662,35.076 143.311,35.076 C142.852,35.076 142.411,35.436 142.411,36.012 C142.411,36.57 142.825,36.894 143.32,36.894 Z M144.697,33.672 L144.58,33.672 C144.58,34.176 144.589,34.725 144.598,35.13 C144.787,35.436 144.886,35.832 144.886,36.273 C144.886,37.479 144.301,38.82 142.231,39.441 L141.61,38.838 C142.78,38.568 143.608,38.082 143.977,37.29 C143.761,37.443 143.509,37.515 143.212,37.515 C142.456,37.515 141.736,36.984 141.736,36.021 C141.736,35.139 142.465,34.464 143.311,34.464 C143.527,34.464 143.725,34.5 143.905,34.563 C143.905,34.302 143.905,33.987 143.896,33.681 C142.546,33.69 141.034,33.753 139.918,33.834 L139.9,33.132 C140.89,33.114 142.564,33.06 143.887,33.042 C143.887,32.79 143.878,32.583 143.869,32.457 C143.86,32.268 143.833,32.007 143.815,31.899 L144.634,31.899 L144.589,32.457 C144.589,32.592 144.58,32.799 144.58,33.033 L144.715,33.033 C145.795,33.033 146.893,33.042 147.325,33.042 L147.316,33.717 C146.812,33.69 146.002,33.672 144.697,33.672 Z" id="絵の具で自由にペイントします" fill="#6A6A6A" fill-rule="nonzero"></path>
                                <path d="M65.2026367,12.6171875 L65.2026367,17 L62.7788086,17 L62.7788086,4.9140625 L67.4023438,4.9140625 C68.7913481,4.9140625 69.8842734,5.26822562 70.6811523,5.9765625 C71.4780313,6.68489938 71.8764648,7.61734448 71.8764648,8.77392578 C71.8764648,9.93050708 71.4780313,10.8601853 70.6811523,11.5629883 C69.8842734,12.2657913 68.7913481,12.6171875 67.4023438,12.6171875 L65.2026367,12.6171875 Z M65.2026367,10.7495117 L67.4023438,10.7495117 C68.0774773,10.7495117 68.5893537,10.5655129 68.9379883,10.1975098 C69.2866228,9.82950662 69.4609375,9.36051717 69.4609375,8.79052734 C69.4609375,8.20946975 69.2880063,7.7294127 68.9421387,7.3503418 C68.5962711,6.97127089 68.0830112,6.78173828 67.4023438,6.78173828 L65.2026367,6.78173828 L65.2026367,10.7495117 Z M78.434082,14.3935547 L74.5161133,14.3935547 L73.7026367,17 L71.1708984,17 L75.246582,4.9140625 L77.7285156,4.9140625 L81.7875977,17 L79.2558594,17 L78.434082,14.3935547 Z M75.1137695,12.4926758 L77.8447266,12.4926758 L76.5083008,8.234375 L76.4584961,8.234375 L75.1137695,12.4926758 Z M85.5395508,17 L83.1157227,17 L83.1157227,4.9140625 L85.5395508,4.9140625 L85.5395508,17 Z M97.7084961,17 L95.284668,17 L90.4121094,8.84863281 L90.3623047,8.85693359 L90.3623047,17 L87.9384766,17 L87.9384766,4.9140625 L90.3623047,4.9140625 L95.2348633,13.0571289 L95.284668,13.0488281 L95.284668,4.9140625 L97.7084961,4.9140625 L97.7084961,17 Z M108.117676,6.78173828 L104.664551,6.78173828 L104.664551,17 L102.240723,17 L102.240723,6.78173828 L98.8374023,6.78173828 L98.8374023,4.9140625 L108.117676,4.9140625 L108.117676,6.78173828 Z" id="PAINT" fill="#6A6A6A" fill-rule="nonzero"></path>
                            </g>
                        </g>
                    </g>
                </g>
            </g>
        </g>
    </g>
</svg>