<?xml version="1.0" encoding="UTF-8"?>
<svg width="170px" height="55px" viewBox="0 0 170 55" version="1.1" xmlns="http://www.w3.org/2000/svg" xmlns:xlink="http://www.w3.org/1999/xlink">
    <!-- Generator: Sketch 55.2 (78181) - https://sketchapp.com -->
    <title>Paint_Text_Normal</title>
    <desc>Created with Sketch.</desc>
    <g id="Make" stroke="none" stroke-width="1" fill="none" fill-rule="evenodd">
        <g id="C-01&gt;Make-Graphic&gt;Forbid&gt;EN备份" transform="translate(-12.000000, -541.000000)">
            <g id="Content" transform="translate(12.000000, 64.000000)">
                <g id="03_PAINT" transform="translate(0.000000, 283.000000)">
                    <g id="Paint_Text_Normal" transform="translate(0.000000, 194.000000)">
                        <g>
                            <rect id="矩形" fill-opacity="0.01" fill="#FFFFFF" x="0" y="0" width="170" height="55"></rect>
                            <path d="M14.0527344,36.1484375 L14.0527344,39 L13.0908203,39 L13.0908203,31.890625 L15.8105469,31.890625 C16.5690142,31.890625 17.1590148,32.0859355 17.5805664,32.4765625 C18.002118,32.8671895 18.2128906,33.3815072 18.2128906,34.0195312 C18.2128906,34.6640657 18.002118,35.1800111 17.5805664,35.5673828 C17.1590148,35.9547545 16.5690142,36.1484375 15.8105469,36.1484375 L14.0527344,36.1484375 Z M14.0527344,35.3964844 L15.8105469,35.3964844 C16.2923201,35.3964844 16.652017,35.2670911 16.8896484,35.0083008 C17.1272798,34.7495104 17.2460938,34.4231791 17.2460938,34.0292969 C17.2460938,33.6354147 17.126466,33.3066419 16.887207,33.0429688 C16.647948,32.7792956 16.2890649,32.6474609 15.8105469,32.6474609 L14.0527344,32.6474609 L14.0527344,35.3964844 Z M22.5097656,39 C22.4772134,38.840494 22.4519858,38.6997076 22.434082,38.5776367 C22.4161783,38.4555658 22.405599,38.3326829 22.4023438,38.2089844 C22.2233064,38.4628919 21.9897475,38.6752921 21.7016602,38.8461914 C21.4135728,39.0170907 21.1035173,39.1025391 20.7714844,39.1025391 C20.2213514,39.1025391 19.8022475,38.9617527 19.5141602,38.6801758 C19.2260728,38.3985989 19.0820312,38.0104191 19.0820312,37.515625 C19.0820312,37.0110652 19.2862935,36.6163751 19.6948242,36.331543 C20.1033549,36.0467108 20.6575486,35.9042969 21.3574219,35.9042969 L22.4023438,35.9042969 L22.4023438,35.3818359 C22.4023438,35.0725896 22.3079437,34.8276376 22.1191406,34.6469727 C21.9303376,34.4663077 21.6634132,34.3759766 21.3183594,34.3759766 C21.0058578,34.3759766 20.7535817,34.4541008 20.5615234,34.6103516 C20.3694652,34.7666023 20.2734375,34.953775 20.2734375,35.171875 L19.3603516,35.1816406 L19.3505859,35.1523438 C19.3277994,34.7682272 19.5076478,34.4166683 19.8901367,34.0976562 C20.2726256,33.7786442 20.7665985,33.6191406 21.3720703,33.6191406 C21.9710316,33.6191406 22.4527977,33.7713201 22.8173828,34.0756836 C23.181968,34.3800471 23.3642578,34.818682 23.3642578,35.3916016 L23.3642578,37.9355469 C23.3642578,38.1243499 23.3740233,38.3066397 23.3935547,38.4824219 C23.413086,38.658204 23.448893,38.8307283 23.5009766,39 L22.5097656,39 Z M20.9130859,38.296875 C21.261395,38.296875 21.5755194,38.2073577 21.8554688,38.0283203 C22.1354181,37.849283 22.3177079,37.6442069 22.4023438,37.4130859 L22.4023438,36.5537109 L21.3232422,36.5537109 C20.9358705,36.5537109 20.625815,36.6513662 20.3930664,36.8466797 C20.1603178,37.0419932 20.0439453,37.2714831 20.0439453,37.5351562 C20.0439453,37.7695324 20.1171868,37.9550774 20.2636719,38.0917969 C20.410157,38.2285163 20.6266262,38.296875 20.9130859,38.296875 Z M25.8007812,39 L24.8388672,39 L24.8388672,33.7167969 L25.8007812,33.7167969 L25.8007812,39 Z M25.8007812,32.3642578 L24.8388672,32.3642578 L24.8388672,31.3828125 L25.8007812,31.3828125 L25.8007812,32.3642578 Z M28.1396484,33.7167969 L28.2080078,34.5029297 C28.3837899,34.2229804 28.6043281,34.0056974 28.8696289,33.8510742 C29.1349297,33.696451 29.4368473,33.6191406 29.7753906,33.6191406 C30.3450549,33.6191406 30.7861313,33.7859684 31.0986328,34.1196289 C31.4111344,34.4532894 31.5673828,34.968421 31.5673828,35.6650391 L31.5673828,39 L30.6054688,39 L30.6054688,35.6845703 C30.6054688,35.2190732 30.51351,34.8886729 30.3295898,34.6933594 C30.1456697,34.4980459 29.8649107,34.4003906 29.4873047,34.4003906 C29.1910792,34.4003906 28.9396169,34.4597976 28.7329102,34.5786133 C28.5262034,34.697429 28.3626308,34.8642567 28.2421875,35.0791016 L28.2421875,39 L27.2802734,39 L27.2802734,33.7167969 L28.1396484,33.7167969 Z M34.3017578,32.4423828 L34.3017578,33.7167969 L35.3027344,33.7167969 L35.3027344,34.4296875 L34.3017578,34.4296875 L34.3017578,37.6376953 C34.3017578,37.8850924 34.3530268,38.0592443 34.4555664,38.1601562 C34.558106,38.2610682 34.6940096,38.3115234 34.8632812,38.3115234 C34.9186201,38.3115234 34.9804684,38.3041993 35.0488281,38.2895508 C35.1171878,38.2749023 35.1741534,38.2594402 35.2197266,38.2431641 L35.3515625,38.9023438 C35.2799476,38.9609378 35.1741543,39.0089516 35.0341797,39.0463867 C34.894205,39.0838218 34.7558601,39.1025391 34.6191406,39.1025391 C34.2285137,39.1025391 33.9176444,38.9845389 33.6865234,38.7485352 C33.4554025,38.5125314 33.3398438,38.1422551 33.3398438,37.6376953 L33.3398438,34.4296875 L32.5,34.4296875 L32.5,33.7167969 L33.3398438,33.7167969 L33.3398438,32.4423828 L34.3017578,32.4423828 Z M40.1708984,37.0761719 L40.2929688,37.7548828 L40.3222656,37.7548828 L40.4492188,37.0761719 L41.5039062,33.7167969 L42.2753906,33.7167969 L43.3349609,37.0761719 L43.4716797,37.8330078 L43.5009766,37.8330078 L43.6572266,37.0761719 L44.4384766,33.7167969 L45.4443359,33.7167969 L43.9111328,39 L43.1347656,39 L42.0898438,35.7822266 L41.8896484,34.9423828 L41.8603516,34.9423828 L41.6748047,35.7822266 L40.6494141,39 L39.8730469,39 L38.3398438,33.7167969 L39.3408203,33.7167969 L40.1708984,37.0761719 Z M47.4267578,39 L46.4648438,39 L46.4648438,33.7167969 L47.4267578,33.7167969 L47.4267578,39 Z M47.4267578,32.3642578 L46.4648438,32.3642578 L46.4648438,31.3828125 L47.4267578,31.3828125 L47.4267578,32.3642578 Z M50.2441406,32.4423828 L50.2441406,33.7167969 L51.2451172,33.7167969 L51.2451172,34.4296875 L50.2441406,34.4296875 L50.2441406,37.6376953 C50.2441406,37.8850924 50.2954096,38.0592443 50.3979492,38.1601562 C50.5004888,38.2610682 50.6363924,38.3115234 50.8056641,38.3115234 C50.8610029,38.3115234 50.9228512,38.3041993 50.9912109,38.2895508 C51.0595707,38.2749023 51.1165362,38.2594402 51.1621094,38.2431641 L51.2939453,38.9023438 C51.2223304,38.9609378 51.1165372,39.0089516 50.9765625,39.0463867 C50.8365878,39.0838218 50.6982429,39.1025391 50.5615234,39.1025391 C50.1708965,39.1025391 49.8600272,38.9845389 49.6289062,38.7485352 C49.3977853,38.5125314 49.2822266,38.1422551 49.2822266,37.6376953 L49.2822266,34.4296875 L48.4423828,34.4296875 L48.4423828,33.7167969 L49.2822266,33.7167969 L49.2822266,32.4423828 L50.2441406,32.4423828 Z M53.2373047,34.4248047 C53.4195973,34.1708972 53.6433906,33.9731452 53.9086914,33.831543 C54.1739922,33.6899407 54.4677718,33.6191406 54.7900391,33.6191406 C55.3531929,33.6191406 55.7918279,33.7884098 56.105957,34.1269531 C56.4200862,34.4654965 56.5771484,34.9863246 56.5771484,35.6894531 L56.5771484,39 L55.6152344,39 L55.6152344,35.6796875 C55.6152344,35.2434874 55.5216481,34.921225 55.3344727,34.7128906 C55.1472972,34.5045563 54.8681659,34.4003906 54.4970703,34.4003906 C54.2106105,34.4003906 53.9615896,34.4565424 53.75,34.5688477 C53.5384104,34.6811529 53.3675137,34.8382151 53.2373047,35.0400391 L53.2373047,39 L52.2753906,39 L52.2753906,31.3828125 L53.2373047,31.3828125 L53.2373047,34.4248047 Z M62.0605469,37.0419922 L62.2314453,37.7060547 L62.2607422,37.7060547 L63.5595703,33.7167969 L64.6289062,33.7167969 L62.4072266,39.8105469 C62.2737624,40.1653664 62.0825208,40.4746081 61.8334961,40.7382812 C61.5844714,41.0019544 61.2483745,41.1337891 60.8251953,41.1337891 C60.7470699,41.1337891 60.6477871,41.1248373 60.5273438,41.1069336 C60.4069004,41.0890299 60.3141279,41.0719402 60.2490234,41.0556641 L60.3466797,40.2988281 C60.3271483,40.2955729 60.3849277,40.2988281 60.5200195,40.3085938 C60.6551114,40.3183594 60.7405597,40.3232422 60.7763672,40.3232422 C60.9814463,40.3232422 61.1490879,40.2320973 61.2792969,40.0498047 C61.4095059,39.8675121 61.5185542,39.6656912 61.6064453,39.4443359 L61.8359375,38.8925781 L59.8730469,33.7167969 L60.9472656,33.7167969 L62.0605469,37.0419922 Z M65.1757812,36.3095703 C65.1757812,35.5283164 65.3873677,34.8846054 65.8105469,34.378418 C66.2337261,33.8722305 66.8082646,33.6191406 67.5341797,33.6191406 C68.2666052,33.6191406 68.8452127,33.8714167 69.2700195,34.3759766 C69.6948263,34.8805364 69.9072266,35.5250612 69.9072266,36.3095703 L69.9072266,36.4169922 C69.9072266,37.2047565 69.6956401,37.8492813 69.2724609,38.3505859 C68.8492817,38.8518905 68.2731156,39.1025391 67.5439453,39.1025391 C66.814775,39.1025391 66.2377951,38.8510767 65.8129883,38.3481445 C65.3881815,37.8452123 65.1757812,37.2015013 65.1757812,36.4169922 L65.1757812,36.3095703 Z M66.1376953,36.4169922 C66.1376953,36.9768908 66.2556954,37.4391258 66.4916992,37.8037109 C66.727703,38.1682961 67.0784482,38.3505859 67.5439453,38.3505859 C68.002932,38.3505859 68.3512358,38.1682961 68.5888672,37.8037109 C68.8264986,37.4391258 68.9453125,36.9768908 68.9453125,36.4169922 L68.9453125,36.3095703 C68.9453125,35.7561821 68.8256848,35.2955748 68.5864258,34.9277344 C68.3471668,34.559894 67.9964216,34.3759766 67.5341797,34.3759766 C67.075193,34.3759766 66.727703,34.559894 66.4916992,34.9277344 C66.2556954,35.2955748 66.1376953,35.7561821 66.1376953,36.3095703 L66.1376953,36.4169922 Z M74.4384766,38.21875 C74.2724601,38.5019545 74.0592461,38.7200513 73.7988281,38.8730469 C73.5384102,39.0260424 73.2373064,39.1025391 72.8955078,39.1025391 C72.3193331,39.1025391 71.8701188,38.9186216 71.5478516,38.5507812 C71.2255843,38.1829409 71.0644531,37.6100299 71.0644531,36.8320312 L71.0644531,33.7167969 L72.0263672,33.7167969 L72.0263672,36.8417969 C72.0263672,37.4049507 72.1093742,37.7923167 72.2753906,38.0039062 C72.4414071,38.2154958 72.7001936,38.3212891 73.0517578,38.3212891 C73.3935564,38.3212891 73.6759429,38.2521166 73.8989258,38.1137695 C74.1219087,37.9754225 74.290364,37.7792981 74.4042969,37.5253906 L74.4042969,33.7167969 L75.3662109,33.7167969 L75.3662109,39 L74.5019531,39 L74.4384766,38.21875 Z M79.2675781,34.5664062 L78.7744141,34.5371094 C78.5205065,34.5371094 78.3064787,34.5973301 78.1323242,34.7177734 C77.9581697,34.8382167 77.8238937,35.0074859 77.7294922,35.2255859 L77.7294922,39 L76.7675781,39 L76.7675781,33.7167969 L77.6269531,33.7167969 L77.7197266,34.4882812 C77.8694669,34.2148424 78.0541981,34.0016284 78.2739258,33.8486328 C78.4936534,33.6956373 78.7467434,33.6191406 79.0332031,33.6191406 C79.1048181,33.6191406 79.1731768,33.6248372 79.2382812,33.6362305 C79.3033857,33.6476238 79.3570961,33.6598307 79.3994141,33.6728516 L79.2675781,34.5664062 Z M83.1542969,39 L83.1542969,34.4296875 L82.3291016,34.4296875 L82.3291016,33.7167969 L83.1542969,33.7167969 L83.1542969,33.0478516 C83.1542969,32.4846977 83.3015936,32.0493179 83.5961914,31.7416992 C83.8907892,31.4340805 84.3017552,31.2802734 84.8291016,31.2802734 C84.9397792,31.2802734 85.051269,31.2892252 85.1635742,31.3071289 C85.2758795,31.3250326 85.4003899,31.3502603 85.5371094,31.3828125 L85.4199219,32.1152344 C85.3613278,32.1022135 85.2905278,32.0908204 85.2075195,32.0810547 C85.1245113,32.071289 85.0374354,32.0664062 84.9462891,32.0664062 C84.6663397,32.0664062 84.4580085,32.150227 84.3212891,32.3178711 C84.1845696,32.4855152 84.1162109,32.7288396 84.1162109,33.0478516 L84.1162109,33.7167969 L85.0732422,33.7167969 L85.0732422,34.4296875 L84.1162109,34.4296875 L84.1162109,39 L83.1542969,39 Z M89.2919922,39 C89.2594399,38.840494 89.2342123,38.6997076 89.2163086,38.5776367 C89.1984049,38.4555658 89.1878255,38.3326829 89.1845703,38.2089844 C89.005533,38.4628919 88.7719741,38.6752921 88.4838867,38.8461914 C88.1957993,39.0170907 87.8857438,39.1025391 87.5537109,39.1025391 C87.003578,39.1025391 86.5844741,38.9617527 86.2963867,38.6801758 C86.0082993,38.3985989 85.8642578,38.0104191 85.8642578,37.515625 C85.8642578,37.0110652 86.0685201,36.6163751 86.4770508,36.331543 C86.8855815,36.0467108 87.4397751,35.9042969 88.1396484,35.9042969 L89.1845703,35.9042969 L89.1845703,35.3818359 C89.1845703,35.0725896 89.0901702,34.8276376 88.9013672,34.6469727 C88.7125642,34.4663077 88.4456397,34.3759766 88.1005859,34.3759766 C87.7880844,34.3759766 87.5358083,34.4541008 87.34375,34.6103516 C87.1516917,34.7666023 87.0556641,34.953775 87.0556641,35.171875 L86.1425781,35.1816406 L86.1328125,35.1523438 C86.1100259,34.7682272 86.2898744,34.4166683 86.6723633,34.0976562 C87.0548522,33.7786442 87.5488251,33.6191406 88.1542969,33.6191406 C88.7532582,33.6191406 89.2350242,33.7713201 89.5996094,34.0756836 C89.9641945,34.3800471 90.1464844,34.818682 90.1464844,35.3916016 L90.1464844,37.9355469 C90.1464844,38.1243499 90.1562499,38.3066397 90.1757812,38.4824219 C90.1953126,38.658204 90.2311195,38.8307283 90.2832031,39 L89.2919922,39 Z M87.6953125,38.296875 C88.0436215,38.296875 88.357746,38.2073577 88.6376953,38.0283203 C88.9176446,37.849283 89.0999345,37.6442069 89.1845703,37.4130859 L89.1845703,36.5537109 L88.1054688,36.5537109 C87.718097,36.5537109 87.4080415,36.6513662 87.175293,36.8466797 C86.9425444,37.0419932 86.8261719,37.2714831 86.8261719,37.5351562 C86.8261719,37.7695324 86.8994133,37.9550774 87.0458984,38.0917969 C87.1923835,38.2285163 87.4088527,38.296875 87.6953125,38.296875 Z M93.2324219,37.4423828 L93.3154297,37.8134766 L93.3447266,37.8134766 L93.4375,37.4423828 L94.6533203,33.7167969 L95.6347656,33.7167969 L93.6914062,39 L92.9638672,39 L90.9960938,33.7167969 L91.9824219,33.7167969 L93.2324219,37.4423828 Z M96.2011719,36.3095703 C96.2011719,35.5283164 96.4127583,34.8846054 96.8359375,34.378418 C97.2591167,33.8722305 97.8336552,33.6191406 98.5595703,33.6191406 C99.2919958,33.6191406 99.8706033,33.8714167 100.29541,34.3759766 C100.720217,34.8805364 100.932617,35.5250612 100.932617,36.3095703 L100.932617,36.4169922 C100.932617,37.2047565 100.721031,37.8492813 100.297852,38.3505859 C99.8746724,38.8518905 99.2985063,39.1025391 98.5693359,39.1025391 C97.8401656,39.1025391 97.2631857,38.8510767 96.8383789,38.3481445 C96.4135721,37.8452123 96.2011719,37.2015013 96.2011719,36.4169922 L96.2011719,36.3095703 Z M97.1630859,36.4169922 C97.1630859,36.9768908 97.2810861,37.4391258 97.5170898,37.8037109 C97.7530936,38.1682961 98.1038388,38.3505859 98.5693359,38.3505859 C99.0283226,38.3505859 99.3766264,38.1682961 99.6142578,37.8037109 C99.8518892,37.4391258 99.9707031,36.9768908 99.9707031,36.4169922 L99.9707031,36.3095703 C99.9707031,35.7561821 99.8510754,35.2955748 99.6118164,34.9277344 C99.3725574,34.559894 99.0218122,34.3759766 98.5595703,34.3759766 C98.1005836,34.3759766 97.7530936,34.559894 97.5170898,34.9277344 C97.2810861,35.2955748 97.1630859,35.7561821 97.1630859,36.3095703 L97.1630859,36.4169922 Z M105.463867,38.21875 C105.297851,38.5019545 105.084637,38.7200513 104.824219,38.8730469 C104.563801,39.0260424 104.262697,39.1025391 103.920898,39.1025391 C103.344724,39.1025391 102.895509,38.9186216 102.573242,38.5507812 C102.250975,38.1829409 102.089844,37.6100299 102.089844,36.8320312 L102.089844,33.7167969 L103.051758,33.7167969 L103.051758,36.8417969 C103.051758,37.4049507 103.134765,37.7923167 103.300781,38.0039062 C103.466798,38.2154958 103.725584,38.3212891 104.077148,38.3212891 C104.418947,38.3212891 104.701334,38.2521166 104.924316,38.1137695 C105.147299,37.9754225 105.315755,37.7792981 105.429688,37.5253906 L105.429688,33.7167969 L106.391602,33.7167969 L106.391602,39 L105.527344,39 L105.463867,38.21875 Z M110.292969,34.5664062 L109.799805,34.5371094 C109.545897,34.5371094 109.331869,34.5973301 109.157715,34.7177734 C108.98356,34.8382167 108.849284,35.0074859 108.754883,35.2255859 L108.754883,39 L107.792969,39 L107.792969,33.7167969 L108.652344,33.7167969 L108.745117,34.4882812 C108.894858,34.2148424 109.079589,34.0016284 109.299316,33.8486328 C109.519044,33.6956373 109.772134,33.6191406 110.058594,33.6191406 C110.130209,33.6191406 110.198567,33.6248372 110.263672,33.6362305 C110.328776,33.6476238 110.382487,33.6598307 110.424805,33.6728516 L110.292969,34.5664062 Z M112.333984,39 L111.37207,39 L111.37207,33.7167969 L112.333984,33.7167969 L112.333984,39 Z M112.333984,32.3642578 L111.37207,32.3642578 L111.37207,31.3828125 L112.333984,31.3828125 L112.333984,32.3642578 Z M115.151367,32.4423828 L115.151367,33.7167969 L116.152344,33.7167969 L116.152344,34.4296875 L115.151367,34.4296875 L115.151367,37.6376953 C115.151367,37.8850924 115.202636,38.0592443 115.305176,38.1601562 C115.407715,38.2610682 115.543619,38.3115234 115.712891,38.3115234 C115.768229,38.3115234 115.830078,38.3041993 115.898438,38.2895508 C115.966797,38.2749023 116.023763,38.2594402 116.069336,38.2431641 L116.201172,38.9023438 C116.129557,38.9609378 116.023764,39.0089516 115.883789,39.0463867 C115.743814,39.0838218 115.605469,39.1025391 115.46875,39.1025391 C115.078123,39.1025391 114.767254,38.9845389 114.536133,38.7485352 C114.305012,38.5125314 114.189453,38.1422551 114.189453,37.6376953 L114.189453,34.4296875 L113.349609,34.4296875 L113.349609,33.7167969 L114.189453,33.7167969 L114.189453,32.4423828 L115.151367,32.4423828 Z M119.370117,39.1025391 C118.61165,39.1025391 118.020022,38.8600285 117.595215,38.375 C117.170408,37.8899715 116.958008,37.2519571 116.958008,36.4609375 L116.958008,36.2460938 C116.958008,35.4876264 117.176918,34.8601913 117.614746,34.3637695 C118.052574,33.8673478 118.587236,33.6191406 119.21875,33.6191406 C119.925134,33.6191406 120.454914,33.838865 120.808105,34.2783203 C121.161297,34.7177756 121.337891,35.3020797 121.337891,36.03125 L121.337891,36.5390625 L117.958984,36.5390625 L117.944336,36.5634766 C117.944336,37.0940782 118.061522,37.5245752 118.295898,37.8549805 C118.530275,38.1853858 118.888344,38.3505859 119.370117,38.3505859 C119.69564,38.3505859 119.981281,38.3041997 120.227051,38.2114258 C120.47282,38.1186519 120.683593,37.9908862 120.859375,37.828125 L121.235352,38.453125 C121.046549,38.6354176 120.797528,38.7892246 120.488281,38.9145508 C120.179035,39.0398769 119.806317,39.1025391 119.370117,39.1025391 Z M119.21875,34.3759766 C118.883462,34.3759766 118.605958,34.5053698 118.38623,34.7641602 C118.166503,35.0229505 118.032227,35.3541646 117.983398,35.7578125 L117.993164,35.7822266 L120.375977,35.7822266 L120.375977,35.7041016 C120.375977,35.3199851 120.281576,35.0026054 120.092773,34.7519531 C119.90397,34.5013008 119.612632,34.3759766 119.21875,34.3759766 Z M127.001953,38.3505859 C127.298179,38.3505859 127.556965,38.2521169 127.77832,38.0551758 C127.999676,37.8582347 128.110352,37.6165379 128.110352,37.3300781 L128.979492,37.3300781 L128.994141,37.359375 C129.007162,37.8151064 128.811851,38.219562 128.408203,38.5727539 C128.004555,38.9259458 127.53581,39.1025391 127.001953,39.1025391 C126.259762,39.1025391 125.686851,38.8502629 125.283203,38.3457031 C124.879555,37.8411433 124.677734,37.2128944 124.677734,36.4609375 L124.677734,36.2558594 C124.677734,35.5104129 124.880369,34.8846054 125.285645,34.378418 C125.69092,33.8722305 126.263017,33.6191406 127.001953,33.6191406 C127.591149,33.6191406 128.073729,33.8014305 128.449707,34.1660156 C128.825685,34.5306008 129.007162,34.9781875 128.994141,35.5087891 L128.984375,35.5380859 L128.110352,35.5380859 C128.110352,35.2158187 128.005372,34.9415701 127.79541,34.715332 C127.585448,34.4890939 127.320965,34.3759766 127.001953,34.3759766 C126.529946,34.3759766 126.185711,34.5590802 125.969238,34.925293 C125.752766,35.2915057 125.644531,35.7350234 125.644531,36.2558594 L125.644531,36.4609375 C125.644531,36.9915391 125.751138,37.4391258 125.964355,37.8037109 C126.177573,38.1682961 126.523435,38.3505859 127.001953,38.3505859 Z M129.912109,36.3095703 C129.912109,35.5283164 130.123696,34.8846054 130.546875,34.378418 C130.970054,33.8722305 131.544593,33.6191406 132.270508,33.6191406 C133.002933,33.6191406 133.581541,33.8714167 134.006348,34.3759766 C134.431154,34.8805364 134.643555,35.5250612 134.643555,36.3095703 L134.643555,36.4169922 C134.643555,37.2047565 134.431968,37.8492813 134.008789,38.3505859 C133.58561,38.8518905 133.009444,39.1025391 132.280273,39.1025391 C131.551103,39.1025391 130.974123,38.8510767 130.549316,38.3481445 C130.12451,37.8452123 129.912109,37.2015013 129.912109,36.4169922 L129.912109,36.3095703 Z M130.874023,36.4169922 C130.874023,36.9768908 130.992024,37.4391258 131.228027,37.8037109 C131.464031,38.1682961 131.814776,38.3505859 132.280273,38.3505859 C132.73926,38.3505859 133.087564,38.1682961 133.325195,37.8037109 C133.562827,37.4391258 133.681641,36.9768908 133.681641,36.4169922 L133.681641,36.3095703 C133.681641,35.7561821 133.562013,35.2955748 133.322754,34.9277344 C133.083495,34.559894 132.73275,34.3759766 132.270508,34.3759766 C131.811521,34.3759766 131.464031,34.559894 131.228027,34.9277344 C130.992024,35.2955748 130.874023,35.7561821 130.874023,36.3095703 L130.874023,36.4169922 Z M136.860352,39 L135.898438,39 L135.898438,31.3828125 L136.860352,31.3828125 L136.860352,39 Z M138.115234,36.3095703 C138.115234,35.5283164 138.326821,34.8846054 138.75,34.378418 C139.173179,33.8722305 139.747718,33.6191406 140.473633,33.6191406 C141.206058,33.6191406 141.784666,33.8714167 142.209473,34.3759766 C142.634279,34.8805364 142.84668,35.5250612 142.84668,36.3095703 L142.84668,36.4169922 C142.84668,37.2047565 142.635093,37.8492813 142.211914,38.3505859 C141.788735,38.8518905 141.212569,39.1025391 140.483398,39.1025391 C139.754228,39.1025391 139.177248,38.8510767 138.752441,38.3481445 C138.327635,37.8452123 138.115234,37.2015013 138.115234,36.4169922 L138.115234,36.3095703 Z M139.077148,36.4169922 C139.077148,36.9768908 139.195149,37.4391258 139.431152,37.8037109 C139.667156,38.1682961 140.017901,38.3505859 140.483398,38.3505859 C140.942385,38.3505859 141.290689,38.1682961 141.52832,37.8037109 C141.765952,37.4391258 141.884766,36.9768908 141.884766,36.4169922 L141.884766,36.3095703 C141.884766,35.7561821 141.765138,35.2955748 141.525879,34.9277344 C141.28662,34.559894 140.935875,34.3759766 140.473633,34.3759766 C140.014646,34.3759766 139.667156,34.559894 139.431152,34.9277344 C139.195149,35.2955748 139.077148,35.7561821 139.077148,36.3095703 L139.077148,36.4169922 Z M147.37793,38.21875 C147.211913,38.5019545 146.998699,38.7200513 146.738281,38.8730469 C146.477863,39.0260424 146.17676,39.1025391 145.834961,39.1025391 C145.258786,39.1025391 144.809572,38.9186216 144.487305,38.5507812 C144.165037,38.1829409 144.003906,37.6100299 144.003906,36.8320312 L144.003906,33.7167969 L144.96582,33.7167969 L144.96582,36.8417969 C144.96582,37.4049507 145.048827,37.7923167 145.214844,38.0039062 C145.38086,38.2154958 145.639647,38.3212891 145.991211,38.3212891 C146.33301,38.3212891 146.615396,38.2521166 146.838379,38.1137695 C147.061362,37.9754225 147.229817,37.7792981 147.34375,37.5253906 L147.34375,33.7167969 L148.305664,33.7167969 L148.305664,39 L147.441406,39 L147.37793,38.21875 Z M152.207031,34.5664062 L151.713867,34.5371094 C151.45996,34.5371094 151.245932,34.5973301 151.071777,34.7177734 C150.897623,34.8382167 150.763347,35.0074859 150.668945,35.2255859 L150.668945,39 L149.707031,39 L149.707031,33.7167969 L150.566406,33.7167969 L150.65918,34.4882812 C150.80892,34.2148424 150.993651,34.0016284 151.213379,33.8486328 C151.433107,33.6956373 151.686196,33.6191406 151.972656,33.6191406 C152.044271,33.6191406 152.11263,33.6248372 152.177734,33.6362305 C152.242839,33.6476238 152.296549,33.6598307 152.338867,33.6728516 L152.207031,34.5664062 Z M156.279297,37.5791016 C156.279297,37.367512 156.198731,37.1949876 156.037598,37.0615234 C155.876464,36.9280592 155.571291,36.8108729 155.12207,36.7099609 C154.500322,36.5764967 154.022625,36.3893241 153.688965,36.1484375 C153.355304,35.9075509 153.188477,35.5852885 153.188477,35.1816406 C153.188477,34.751951 153.37158,34.3841161 153.737793,34.078125 C154.104006,33.7721339 154.578448,33.6191406 155.161133,33.6191406 C155.760094,33.6191406 156.245115,33.7818994 156.616211,34.1074219 C156.987307,34.4329443 157.164714,34.8121723 157.148438,35.2451172 L157.138672,35.2744141 L156.220703,35.2744141 C156.220703,35.0465483 156.120606,34.8398447 155.92041,34.6542969 C155.720214,34.4687491 155.467124,34.3759766 155.161133,34.3759766 C154.822589,34.3759766 154.5695,34.4524732 154.401855,34.6054688 C154.234211,34.7584643 154.150391,34.9407542 154.150391,35.1523438 C154.150391,35.3606781 154.222818,35.5218093 154.367676,35.6357422 C154.512533,35.749675 154.811196,35.8538407 155.263672,35.9482422 C155.911462,36.0849616 156.402993,36.2786446 156.738281,36.5292969 C157.073569,36.7799492 157.241211,37.1070943 157.241211,37.5107422 C157.241211,37.9794945 157.051597,38.3619777 156.672363,38.6582031 C156.29313,38.9544286 155.797529,39.1025391 155.185547,39.1025391 C154.511715,39.1025391 153.981122,38.9316423 153.59375,38.5898438 C153.206378,38.2480452 153.022461,37.8492861 153.041992,37.3935547 L153.051758,37.3642578 L153.969727,37.3642578 C153.986003,37.7060564 154.112955,37.9558911 154.350586,38.1137695 C154.588217,38.2716479 154.866535,38.3505859 155.185547,38.3505859 C155.527345,38.3505859 155.795084,38.2781583 155.98877,38.1333008 C156.182455,37.9884433 156.279297,37.8037121 156.279297,37.5791016 Z" id="Paintwithyourfavouritecolours" fill="#1B1B1B" fill-rule="nonzero"></path>
                            <path d="M65.2026367,12.6171875 L65.2026367,17 L62.7788086,17 L62.7788086,4.9140625 L67.4023438,4.9140625 C68.7913481,4.9140625 69.8842734,5.26822562 70.6811523,5.9765625 C71.4780313,6.68489938 71.8764648,7.61734448 71.8764648,8.77392578 C71.8764648,9.93050708 71.4780313,10.8601853 70.6811523,11.5629883 C69.8842734,12.2657913 68.7913481,12.6171875 67.4023438,12.6171875 L65.2026367,12.6171875 Z M65.2026367,10.7495117 L67.4023438,10.7495117 C68.0774773,10.7495117 68.5893537,10.5655129 68.9379883,10.1975098 C69.2866228,9.82950662 69.4609375,9.36051717 69.4609375,8.79052734 C69.4609375,8.20946975 69.2880063,7.7294127 68.9421387,7.3503418 C68.5962711,6.97127089 68.0830112,6.78173828 67.4023438,6.78173828 L65.2026367,6.78173828 L65.2026367,10.7495117 Z M78.434082,14.3935547 L74.5161133,14.3935547 L73.7026367,17 L71.1708984,17 L75.246582,4.9140625 L77.7285156,4.9140625 L81.7875977,17 L79.2558594,17 L78.434082,14.3935547 Z M75.1137695,12.4926758 L77.8447266,12.4926758 L76.5083008,8.234375 L76.4584961,8.234375 L75.1137695,12.4926758 Z M85.5395508,17 L83.1157227,17 L83.1157227,4.9140625 L85.5395508,4.9140625 L85.5395508,17 Z M97.7084961,17 L95.284668,17 L90.4121094,8.84863281 L90.3623047,8.85693359 L90.3623047,17 L87.9384766,17 L87.9384766,4.9140625 L90.3623047,4.9140625 L95.2348633,13.0571289 L95.284668,13.0488281 L95.284668,4.9140625 L97.7084961,4.9140625 L97.7084961,17 Z M108.117676,6.78173828 L104.664551,6.78173828 L104.664551,17 L102.240723,17 L102.240723,6.78173828 L98.8374023,6.78173828 L98.8374023,4.9140625 L108.117676,4.9140625 L108.117676,6.78173828 Z" id="PAINT" fill="#1B1B1B" fill-rule="nonzero"></path>
                        </g>
                    </g>
                </g>
            </g>
        </g>
    </g>
</svg>