<?xml version="1.0" encoding="UTF-8"?>
<svg width="170px" height="55px" viewBox="0 0 170 55" version="1.1" xmlns="http://www.w3.org/2000/svg" xmlns:xlink="http://www.w3.org/1999/xlink">
    <!-- Generator: Sketch 54.1 (76490) - https://sketchapp.com -->
    <title>Paint_Text_Normal_EN_IOS</title>
    <desc>Created with Sketch.</desc>
    <g id="页面1" stroke="none" stroke-width="1" fill="none" fill-rule="evenodd">
        <g id="C-01&gt;Make-Graphic&gt;EN" transform="translate(-12.000000, -541.000000)">
            <g id="Content" transform="translate(12.000000, 64.000000)">
                <g id="03_PAINT" transform="translate(0.000000, 283.000000)">
                    <g id="Paint_Text_Normal_EN_IOS" transform="translate(0.000000, 194.000000)">
                        <g>
                            <rect id="矩形" fill-opacity="0.01" fill="#FFFFFF" x="0" y="0" width="170" height="55"></rect>
                            <g id="Paint_Text_Normal" transform="translate(18.000000, 4.000000)" fill="#1B1B1B" fill-rule="nonzero">
                                <path d="M2.16,31.28 L4.02,31.28 C4.5600027,31.2866667 4.95499875,31.1766678 5.205,30.95 C5.45500125,30.7233322 5.58,30.3966688 5.58,29.97 C5.58,29.5433312 5.45500125,29.2183345 5.205,28.995 C4.95499875,28.7716656 4.5600027,28.66 4.02,28.66 L2.16,28.66 L2.16,31.28 Z M1.21,27.86 L4.34,27.86 C5.0600036,27.86 5.60499815,28.0449981 5.975,28.415 C6.34500185,28.7850019 6.53,29.30333 6.53,29.97 C6.53,30.63667 6.34500185,31.1566648 5.975,31.53 C5.60499815,31.9033352 5.0600036,32.0866667 4.34,32.08 L2.16,32.08 L2.16,35 L1.21,35 L1.21,27.86 Z M12.13,34.98 C11.9833326,35.0666671 11.7800013,35.11 11.52,35.11 C11.2999989,35.11 11.1250006,35.0483339 10.995,34.925 C10.8649993,34.8016661 10.8,34.6000014 10.8,34.32 C10.5666655,34.6000014 10.2950015,34.8016661 9.985,34.925 C9.67499845,35.0483339 9.3400018,35.11 8.98,35.11 C8.7466655,35.11 8.52500105,35.0833336 8.315,35.03 C8.10499895,34.9766664 7.9233341,34.8933339 7.77,34.78 C7.6166659,34.6666661 7.49500045,34.5183342 7.405,34.335 C7.31499955,34.1516657 7.27,33.9300013 7.27,33.67 C7.27,33.3766652 7.3199995,33.1366676 7.42,32.95 C7.5200005,32.7633324 7.65166585,32.6116672 7.815,32.495 C7.97833415,32.3783327 8.16499895,32.2900003 8.375,32.23 C8.58500105,32.1699997 8.7999989,32.1200002 9.02,32.08 C9.2533345,32.0333331 9.47499895,31.9983335 9.685,31.975 C9.89500105,31.9516665 10.0799992,31.9183335 10.24,31.875 C10.4000008,31.8316665 10.5266662,31.7683338 10.62,31.685 C10.7133338,31.6016663 10.76,31.4800008 10.76,31.32 C10.76,31.1333324 10.7250003,30.9833339 10.655,30.87 C10.5849996,30.7566661 10.4950005,30.6700003 10.385,30.61 C10.2749994,30.5499997 10.1516673,30.5100001 10.015,30.49 C9.87833265,30.4699999 9.743334,30.46 9.61,30.46 C9.2499982,30.46 8.9500012,30.5283326 8.71,30.665 C8.4699988,30.8016674 8.3400001,31.0599981 8.32,31.44 L7.47,31.44 C7.4833334,31.1199984 7.5499994,30.8500011 7.67,30.63 C7.7900006,30.4099989 7.949999,30.2316674 8.15,30.095 C8.350001,29.9583326 8.57833205,29.8600003 8.835,29.8 C9.09166795,29.7399997 9.3666652,29.71 9.66,29.71 C9.8933345,29.71 10.1249988,29.7266665 10.355,29.76 C10.5850011,29.7933335 10.7933324,29.8616661 10.98,29.965 C11.1666676,30.0683339 11.3166661,30.2133324 11.43,30.4 C11.5433339,30.5866676 11.6,30.8299985 11.6,31.13 L11.6,33.79 C11.6,33.990001 11.6116665,34.1366662 11.635,34.23 C11.6583334,34.3233338 11.736666,34.37 11.87,34.37 C11.9433337,34.37 12.0299995,34.3533335 12.13,34.32 L12.13,34.98 Z M10.75,32.33 C10.6433328,32.4100004 10.5033342,32.4683331 10.33,32.505 C10.1566658,32.5416668 9.97500095,32.5716666 9.785,32.595 C9.59499905,32.6183335 9.4033343,32.6449998 9.21,32.675 C9.0166657,32.7050002 8.8433341,32.753333 8.69,32.82 C8.5366659,32.886667 8.41166715,32.9816661 8.315,33.105 C8.21833285,33.2283339 8.17,33.3966656 8.17,33.61 C8.17,33.7500007 8.19833305,33.8683329 8.255,33.965 C8.31166695,34.0616671 8.38499955,34.1399997 8.475,34.2 C8.56500045,34.2600003 8.6699994,34.3033332 8.79,34.33 C8.9100006,34.3566668 9.036666,34.37 9.17,34.37 C9.4500014,34.37 9.689999,34.3316671 9.89,34.255 C10.090001,34.1783329 10.2533327,34.0816672 10.38,33.965 C10.5066673,33.8483327 10.5999997,33.7216674 10.66,33.585 C10.7200003,33.4483326 10.75,33.3200006 10.75,33.2 L10.75,32.33 Z M13.82,28.9 L12.97,28.9 L12.97,27.86 L13.82,27.86 L13.82,28.9 Z M12.97,29.83 L13.82,29.83 L13.82,35 L12.97,35 L12.97,29.83 Z M15.14,29.83 L15.94,29.83 L15.94,30.65 L15.96,30.65 C16.3133351,30.0233302 16.8733295,29.71 17.64,29.71 C17.9800017,29.71 18.2633322,29.7566662 18.49,29.85 C18.7166678,29.9433338 18.8999993,30.0733325 19.04,30.24 C19.1800007,30.4066675 19.278333,30.6049989 19.335,30.835 C19.3916669,31.0650012 19.42,31.3199986 19.42,31.6 L19.42,35 L18.57,35 L18.57,31.5 C18.57,31.1799984 18.4766676,30.9266676 18.29,30.74 C18.1033324,30.5533324 17.8466683,30.46 17.52,30.46 C17.2599987,30.46 17.0350009,30.4999996 16.845,30.58 C16.654999,30.6600004 16.4966673,30.7733326 16.37,30.92 C16.2433327,31.0666674 16.1483336,31.2383324 16.085,31.435 C16.0216663,31.6316677 15.99,31.8466655 15.99,32.08 L15.99,35 L15.14,35 L15.14,29.83 Z M21.88,29.83 L22.91,29.83 L22.91,30.58 L21.88,30.58 L21.88,33.79 C21.88,33.8900005 21.8883332,33.9699997 21.905,34.03 C21.9216667,34.0900003 21.9533331,34.1366665 22,34.17 C22.0466669,34.2033335 22.1116662,34.2249999 22.195,34.235 C22.2783337,34.2450001 22.386666,34.25 22.52,34.25 L22.91,34.25 L22.91,35 L22.26,35 C22.0399989,35 21.8516674,34.9850002 21.695,34.955 C21.5383325,34.9249998 21.4116671,34.8700004 21.315,34.79 C21.2183328,34.7099996 21.1466669,34.5966674 21.1,34.45 C21.0533331,34.3033326 21.03,34.1100012 21.03,33.87 L21.03,30.58 L20.15,30.58 L20.15,29.83 L21.03,29.83 L21.03,28.28 L21.88,28.28 L21.88,29.83 Z M31.75,35 L30.85,35 L29.8,30.89 L29.78,30.89 L28.74,35 L27.82,35 L26.16,29.83 L27.1,29.83 L28.27,34.06 L28.29,34.06 L29.33,29.83 L30.26,29.83 L31.34,34.06 L31.36,34.06 L32.52,29.83 L33.4,29.83 L31.75,35 Z M35.11,28.9 L34.26,28.9 L34.26,27.86 L35.11,27.86 L35.11,28.9 Z M34.26,29.83 L35.11,29.83 L35.11,35 L34.26,35 L34.26,29.83 Z M37.61,29.83 L38.64,29.83 L38.64,30.58 L37.61,30.58 L37.61,33.79 C37.61,33.8900005 37.6183332,33.9699997 37.635,34.03 C37.6516667,34.0900003 37.6833331,34.1366665 37.73,34.17 C37.7766669,34.2033335 37.8416662,34.2249999 37.925,34.235 C38.0083337,34.2450001 38.116666,34.25 38.25,34.25 L38.64,34.25 L38.64,35 L37.99,35 C37.7699989,35 37.5816674,34.9850002 37.425,34.955 C37.2683325,34.9249998 37.1416671,34.8700004 37.045,34.79 C36.9483328,34.7099996 36.8766669,34.5966674 36.83,34.45 C36.7833331,34.3033326 36.76,34.1100012 36.76,33.87 L36.76,30.58 L35.88,30.58 L35.88,29.83 L36.76,29.83 L36.76,28.28 L37.61,28.28 L37.61,29.83 Z M39.58,27.86 L40.43,27.86 L40.43,30.59 L40.45,30.59 C40.516667,30.4299992 40.6099994,30.2950005 40.73,30.185 C40.8500006,30.0749994 40.9849992,29.9850003 41.135,29.915 C41.2850007,29.8449996 41.4416658,29.7933335 41.605,29.76 C41.7683341,29.7266665 41.9266659,29.71 42.08,29.71 C42.4200017,29.71 42.7033322,29.7566662 42.93,29.85 C43.1566678,29.9433338 43.3399993,30.0733325 43.48,30.24 C43.6200007,30.4066675 43.718333,30.6049989 43.775,30.835 C43.8316669,31.0650012 43.86,31.3199986 43.86,31.6 L43.86,35 L43.01,35 L43.01,31.5 C43.01,31.1799984 42.9166676,30.9266676 42.73,30.74 C42.5433324,30.5533324 42.2866683,30.46 41.96,30.46 C41.6999987,30.46 41.4750009,30.4999996 41.285,30.58 C41.094999,30.6600004 40.9366673,30.7733326 40.81,30.92 C40.6833327,31.0666674 40.5883336,31.2383324 40.525,31.435 C40.4616663,31.6316677 40.43,31.8466655 40.43,32.08 L40.43,35 L39.58,35 L39.58,27.86 Z M49.95,35.69 C49.8499995,35.9433346 49.7516671,36.1566658 49.655,36.33 C49.5583328,36.5033342 49.4516672,36.6449995 49.335,36.755 C49.2183327,36.8650005 49.088334,36.9449998 48.945,36.995 C48.8016659,37.0450003 48.6366676,37.07 48.45,37.07 C48.3499995,37.07 48.2500005,37.0633334 48.15,37.05 C48.0499995,37.0366666 47.9533338,37.0133335 47.86,36.98 L47.86,36.2 C47.9333337,36.2333335 48.0183328,36.2616666 48.115,36.285 C48.2116671,36.3083334 48.293333,36.32 48.36,36.32 C48.5333342,36.32 48.6783327,36.2783338 48.795,36.195 C48.9116672,36.1116662 48.9999997,35.9933341 49.06,35.84 L49.41,34.97 L47.36,29.83 L48.32,29.83 L49.83,34.06 L49.85,34.06 L51.3,29.83 L52.2,29.83 L49.95,35.69 Z M53.54,32.42 C53.54,32.7333349 53.5816662,33.0116655 53.665,33.255 C53.7483337,33.4983345 53.8633326,33.7016658 54.01,33.865 C54.1566674,34.0283341 54.3283323,34.1533329 54.525,34.24 C54.7216676,34.3266671 54.9299989,34.37 55.15,34.37 C55.3700011,34.37 55.5783323,34.3266671 55.775,34.24 C55.9716676,34.1533329 56.1433326,34.0283341 56.29,33.865 C56.4366674,33.7016658 56.5516662,33.4983345 56.635,33.255 C56.7183337,33.0116655 56.76,32.7333349 56.76,32.42 C56.76,32.1066651 56.7183337,31.8283346 56.635,31.585 C56.5516662,31.3416655 56.4366674,31.1366675 56.29,30.97 C56.1433326,30.8033325 55.9716676,30.6766671 55.775,30.59 C55.5783323,30.5033329 55.3700011,30.46 55.15,30.46 C54.9299989,30.46 54.7216676,30.5033329 54.525,30.59 C54.3283323,30.6766671 54.1566674,30.8033325 54.01,30.97 C53.8633326,31.1366675 53.7483337,31.3416655 53.665,31.585 C53.5816662,31.8283346 53.54,32.1066651 53.54,32.42 Z M52.64,32.42 C52.64,32.0399981 52.6933328,31.6850017 52.8,31.355 C52.9066672,31.0249984 53.0666656,30.7383345 53.28,30.495 C53.4933344,30.2516654 53.7566651,30.0600007 54.07,29.92 C54.3833349,29.7799993 54.7433313,29.71 55.15,29.71 C55.5633354,29.71 55.9249984,29.7799993 56.235,29.92 C56.5450015,30.0600007 56.8066656,30.2516654 57.02,30.495 C57.2333344,30.7383345 57.3933328,31.0249984 57.5,31.355 C57.6066672,31.6850017 57.66,32.0399981 57.66,32.42 C57.66,32.8000019 57.6066672,33.1533317 57.5,33.48 C57.3933328,33.8066683 57.2333344,34.0916655 57.02,34.335 C56.8066656,34.5783346 56.5450015,34.7683326 56.235,34.905 C55.9249984,35.0416673 55.5633354,35.11 55.15,35.11 C54.7433313,35.11 54.3833349,35.0416673 54.07,34.905 C53.7566651,34.7683326 53.4933344,34.5783346 53.28,34.335 C53.0666656,34.0916655 52.9066672,33.8066683 52.8,33.48 C52.6933328,33.1533317 52.64,32.8000019 52.64,32.42 Z M62.94,35 L62.14,35 L62.14,34.18 L62.12,34.18 C61.9399991,34.5000016 61.7100014,34.7349993 61.43,34.885 C61.1499986,35.0350008 60.8200019,35.11 60.44,35.11 C60.0999983,35.11 59.8166678,35.0650004 59.59,34.975 C59.3633322,34.8849996 59.1800007,34.7566675 59.04,34.59 C58.8999993,34.4233325 58.8016669,34.2250011 58.745,33.995 C58.688333,33.7649988 58.66,33.5100014 58.66,33.23 L58.66,29.83 L59.51,29.83 L59.51,33.33 C59.51,33.6500016 59.6033324,33.9033324 59.79,34.09 C59.9766676,34.2766676 60.2333317,34.37 60.56,34.37 C60.8200013,34.37 61.044999,34.3300004 61.235,34.25 C61.4250009,34.1699996 61.5833327,34.0566674 61.71,33.91 C61.8366673,33.7633326 61.9316663,33.5916676 61.995,33.395 C62.0583336,33.1983324 62.09,32.9833345 62.09,32.75 L62.09,29.83 L62.94,29.83 L62.94,35 Z M64.19,29.83 L64.99,29.83 L64.99,30.92 L65.01,30.92 C65.2166677,30.4999979 65.4699985,30.190001 65.77,29.99 C66.0700015,29.789999 66.4499977,29.6966666 66.91,29.71 L66.91,30.61 C66.5699983,30.61 66.2800012,30.6566662 66.04,30.75 C65.7999988,30.8433338 65.6066674,30.9799991 65.46,31.16 C65.3133326,31.3400009 65.206667,31.5583321 65.14,31.815 C65.073333,32.0716679 65.04,32.366665 65.04,32.7 L65.04,35 L64.19,35 L64.19,29.83 Z M70.68,30.58 L69.81,30.58 L69.81,29.83 L70.68,29.83 L70.68,29.06 C70.68,28.6399979 70.8016654,28.3216677 71.045,28.105 C71.2883345,27.8883323 71.643331,27.78 72.11,27.78 C72.1900004,27.78 72.2816661,27.7866666 72.385,27.8 C72.4883338,27.8133334 72.5799996,27.8333332 72.66,27.86 L72.66,28.6 C72.5866663,28.5733332 72.5066671,28.555 72.42,28.545 C72.3333329,28.5349999 72.2533337,28.53 72.18,28.53 C71.9733323,28.53 71.8133339,28.5699996 71.7,28.65 C71.5866661,28.7300004 71.53,28.8833322 71.53,29.11 L71.53,29.83 L72.53,29.83 L72.53,30.58 L71.53,30.58 L71.53,35 L70.68,35 L70.68,30.58 Z M77.87,34.98 C77.7233326,35.0666671 77.5200013,35.11 77.26,35.11 C77.0399989,35.11 76.8650006,35.0483339 76.735,34.925 C76.6049993,34.8016661 76.54,34.6000014 76.54,34.32 C76.3066655,34.6000014 76.0350015,34.8016661 75.725,34.925 C75.4149984,35.0483339 75.0800018,35.11 74.72,35.11 C74.4866655,35.11 74.265001,35.0833336 74.055,35.03 C73.8449989,34.9766664 73.6633341,34.8933339 73.51,34.78 C73.3566659,34.6666661 73.2350004,34.5183342 73.145,34.335 C73.0549995,34.1516657 73.01,33.9300013 73.01,33.67 C73.01,33.3766652 73.0599995,33.1366676 73.16,32.95 C73.2600005,32.7633324 73.3916658,32.6116672 73.555,32.495 C73.7183341,32.3783327 73.9049989,32.2900003 74.115,32.23 C74.325001,32.1699997 74.5399989,32.1200002 74.76,32.08 C74.9933345,32.0333331 75.2149989,31.9983335 75.425,31.975 C75.635001,31.9516665 75.8199992,31.9183335 75.98,31.875 C76.1400008,31.8316665 76.2666662,31.7683338 76.36,31.685 C76.4533338,31.6016663 76.5,31.4800008 76.5,31.32 C76.5,31.1333324 76.4650003,30.9833339 76.395,30.87 C76.3249996,30.7566661 76.2350005,30.6700003 76.125,30.61 C76.0149994,30.5499997 75.8916673,30.5100001 75.755,30.49 C75.6183326,30.4699999 75.483334,30.46 75.35,30.46 C74.9899982,30.46 74.6900012,30.5283326 74.45,30.665 C74.2099988,30.8016674 74.0800001,31.0599981 74.06,31.44 L73.21,31.44 C73.2233334,31.1199984 73.2899994,30.8500011 73.41,30.63 C73.5300006,30.4099989 73.689999,30.2316674 73.89,30.095 C74.090001,29.9583326 74.318332,29.8600003 74.575,29.8 C74.8316679,29.7399997 75.1066652,29.71 75.4,29.71 C75.6333345,29.71 75.8649988,29.7266665 76.095,29.76 C76.3250011,29.7933335 76.5333324,29.8616661 76.72,29.965 C76.9066676,30.0683339 77.0566661,30.2133324 77.17,30.4 C77.2833339,30.5866676 77.34,30.8299985 77.34,31.13 L77.34,33.79 C77.34,33.990001 77.3516665,34.1366662 77.375,34.23 C77.3983334,34.3233338 77.476666,34.37 77.61,34.37 C77.6833337,34.37 77.7699995,34.3533335 77.87,34.32 L77.87,34.98 Z M76.49,32.33 C76.3833328,32.4100004 76.2433342,32.4683331 76.07,32.505 C75.8966658,32.5416668 75.7150009,32.5716666 75.525,32.595 C75.334999,32.6183335 75.1433343,32.6449998 74.95,32.675 C74.7566657,32.7050002 74.5833341,32.753333 74.43,32.82 C74.2766659,32.886667 74.1516671,32.9816661 74.055,33.105 C73.9583328,33.2283339 73.91,33.3966656 73.91,33.61 C73.91,33.7500007 73.938333,33.8683329 73.995,33.965 C74.0516669,34.0616671 74.1249995,34.1399997 74.215,34.2 C74.3050004,34.2600003 74.4099994,34.3033332 74.53,34.33 C74.6500006,34.3566668 74.776666,34.37 74.91,34.37 C75.1900014,34.37 75.429999,34.3316671 75.63,34.255 C75.830001,34.1783329 75.9933327,34.0816672 76.12,33.965 C76.2466673,33.8483327 76.3399997,33.7216674 76.4,33.585 C76.4600003,33.4483326 76.49,33.3200006 76.49,33.2 L76.49,32.33 Z M80.99,35 L80.08,35 L78.16,29.83 L79.11,29.83 L80.56,34.14 L80.58,34.14 L81.99,29.83 L82.88,29.83 L80.99,35 Z M84.28,32.42 C84.28,32.7333349 84.3216662,33.0116655 84.405,33.255 C84.4883337,33.4983345 84.6033326,33.7016658 84.75,33.865 C84.8966674,34.0283341 85.0683323,34.1533329 85.265,34.24 C85.4616676,34.3266671 85.6699989,34.37 85.89,34.37 C86.1100011,34.37 86.3183323,34.3266671 86.515,34.24 C86.7116676,34.1533329 86.8833326,34.0283341 87.03,33.865 C87.1766674,33.7016658 87.2916662,33.4983345 87.375,33.255 C87.4583337,33.0116655 87.5,32.7333349 87.5,32.42 C87.5,32.1066651 87.4583337,31.8283346 87.375,31.585 C87.2916662,31.3416655 87.1766674,31.1366675 87.03,30.97 C86.8833326,30.8033325 86.7116676,30.6766671 86.515,30.59 C86.3183323,30.5033329 86.1100011,30.46 85.89,30.46 C85.6699989,30.46 85.4616676,30.5033329 85.265,30.59 C85.0683323,30.6766671 84.8966674,30.8033325 84.75,30.97 C84.6033326,31.1366675 84.4883337,31.3416655 84.405,31.585 C84.3216662,31.8283346 84.28,32.1066651 84.28,32.42 Z M83.38,32.42 C83.38,32.0399981 83.4333328,31.6850017 83.54,31.355 C83.6466672,31.0249984 83.8066656,30.7383345 84.02,30.495 C84.2333344,30.2516654 84.4966651,30.0600007 84.81,29.92 C85.1233349,29.7799993 85.4833313,29.71 85.89,29.71 C86.3033354,29.71 86.6649984,29.7799993 86.975,29.92 C87.2850015,30.0600007 87.5466656,30.2516654 87.76,30.495 C87.9733344,30.7383345 88.1333328,31.0249984 88.24,31.355 C88.3466672,31.6850017 88.4,32.0399981 88.4,32.42 C88.4,32.8000019 88.3466672,33.1533317 88.24,33.48 C88.1333328,33.8066683 87.9733344,34.0916655 87.76,34.335 C87.5466656,34.5783346 87.2850015,34.7683326 86.975,34.905 C86.6649984,35.0416673 86.3033354,35.11 85.89,35.11 C85.4833313,35.11 85.1233349,35.0416673 84.81,34.905 C84.4966651,34.7683326 84.2333344,34.5783346 84.02,34.335 C83.8066656,34.0916655 83.6466672,33.8066683 83.54,33.48 C83.4333328,33.1533317 83.38,32.8000019 83.38,32.42 Z M93.68,35 L92.88,35 L92.88,34.18 L92.86,34.18 C92.6799991,34.5000016 92.4500014,34.7349993 92.17,34.885 C91.8899986,35.0350008 91.5600019,35.11 91.18,35.11 C90.8399983,35.11 90.5566678,35.0650004 90.33,34.975 C90.1033322,34.8849996 89.9200007,34.7566675 89.78,34.59 C89.6399993,34.4233325 89.5416669,34.2250011 89.485,33.995 C89.428333,33.7649988 89.4,33.5100014 89.4,33.23 L89.4,29.83 L90.25,29.83 L90.25,33.33 C90.25,33.6500016 90.3433324,33.9033324 90.53,34.09 C90.7166676,34.2766676 90.9733317,34.37 91.3,34.37 C91.5600013,34.37 91.784999,34.3300004 91.975,34.25 C92.1650009,34.1699996 92.3233327,34.0566674 92.45,33.91 C92.5766673,33.7633326 92.6716663,33.5916676 92.735,33.395 C92.7983336,33.1983324 92.83,32.9833345 92.83,32.75 L92.83,29.83 L93.68,29.83 L93.68,35 Z M94.93,29.83 L95.73,29.83 L95.73,30.92 L95.75,30.92 C95.9566677,30.4999979 96.2099985,30.190001 96.51,29.99 C96.8100015,29.789999 97.1899977,29.6966666 97.65,29.71 L97.65,30.61 C97.3099983,30.61 97.0200012,30.6566662 96.78,30.75 C96.5399988,30.8433338 96.3466674,30.9799991 96.2,31.16 C96.0533326,31.3400009 95.946667,31.5583321 95.88,31.815 C95.813333,32.0716679 95.78,32.366665 95.78,32.7 L95.78,35 L94.93,35 L94.93,29.83 Z M99.19,28.9 L98.34,28.9 L98.34,27.86 L99.19,27.86 L99.19,28.9 Z M98.34,29.83 L99.19,29.83 L99.19,35 L98.34,35 L98.34,29.83 Z M101.69,29.83 L102.72,29.83 L102.72,30.58 L101.69,30.58 L101.69,33.79 C101.69,33.8900005 101.698333,33.9699997 101.715,34.03 C101.731667,34.0900003 101.763333,34.1366665 101.81,34.17 C101.856667,34.2033335 101.921666,34.2249999 102.005,34.235 C102.088334,34.2450001 102.196666,34.25 102.33,34.25 L102.72,34.25 L102.72,35 L102.07,35 C101.849999,35 101.661667,34.9850002 101.505,34.955 C101.348333,34.9249998 101.221667,34.8700004 101.125,34.79 C101.028333,34.7099996 100.956667,34.5966674 100.91,34.45 C100.863333,34.3033326 100.84,34.1100012 100.84,33.87 L100.84,30.58 L99.96,30.58 L99.96,29.83 L100.84,29.83 L100.84,28.28 L101.69,28.28 L101.69,29.83 Z M107.25,31.92 C107.236667,31.719999 107.191667,31.5300009 107.115,31.35 C107.038333,31.1699991 106.935001,31.0150006 106.805,30.885 C106.674999,30.7549993 106.521668,30.6516671 106.345,30.575 C106.168332,30.4983329 105.973334,30.46 105.76,30.46 C105.539999,30.46 105.341668,30.4983329 105.165,30.575 C104.988332,30.6516671 104.836667,30.756666 104.71,30.89 C104.583333,31.023334 104.483334,31.1783324 104.41,31.355 C104.336666,31.5316676 104.293333,31.719999 104.28,31.92 L107.25,31.92 Z M108.07,33.36 C107.956666,33.9400029 107.706669,34.3766652 107.32,34.67 C106.933331,34.9633348 106.44667,35.11 105.86,35.11 C105.446665,35.11 105.088335,35.043334 104.785,34.91 C104.481665,34.776666 104.226668,34.5900012 104.02,34.35 C103.813332,34.1099988 103.658334,33.823335 103.555,33.49 C103.451666,33.156665 103.393333,32.7933353 103.38,32.4 C103.38,32.0066647 103.439999,31.6466683 103.56,31.32 C103.680001,30.9933317 103.848332,30.7100012 104.065,30.47 C104.281668,30.2299988 104.538332,30.043334 104.835,29.91 C105.131668,29.776666 105.456665,29.71 105.81,29.71 C106.270002,29.71 106.651665,29.804999 106.955,29.995 C107.258335,30.185001 107.501666,30.4266652 107.685,30.72 C107.868334,31.0133348 107.995,31.3333316 108.065,31.68 C108.135,32.0266684 108.163333,32.3566651 108.15,32.67 L104.28,32.67 C104.273333,32.8966678 104.3,33.1116656 104.36,33.315 C104.42,33.5183344 104.516666,33.6983326 104.65,33.855 C104.783334,34.0116675 104.953332,34.1366662 105.16,34.23 C105.366668,34.3233338 105.609999,34.37 105.89,34.37 C106.250002,34.37 106.544999,34.2866675 106.775,34.12 C107.005001,33.9533325 107.156666,33.7000017 107.23,33.36 L108.07,33.36 Z M115.32,31.49 C115.253333,31.1633317 115.113334,30.9100009 114.9,30.73 C114.686666,30.5499991 114.400002,30.46 114.04,30.46 C113.733332,30.46 113.476668,30.5166661 113.27,30.63 C113.063332,30.7433339 112.898334,30.8933324 112.775,31.08 C112.651666,31.2666676 112.563334,31.4816655 112.51,31.725 C112.456666,31.9683346 112.43,32.2199987 112.43,32.48 C112.43,32.7200012 112.458333,32.9533322 112.515,33.18 C112.571667,33.4066678 112.659999,33.6083324 112.78,33.785 C112.900001,33.9616676 113.056666,34.1033328 113.25,34.21 C113.443334,34.3166672 113.673332,34.37 113.94,34.37 C114.360002,34.37 114.688332,34.2600011 114.925,34.04 C115.161668,33.8199989 115.306666,33.510002 115.36,33.11 L116.23,33.11 C116.136666,33.7500032 115.898335,34.2433316 115.515,34.59 C115.131665,34.9366684 114.610003,35.11 113.95,35.11 C113.556665,35.11 113.208335,35.0466673 112.905,34.92 C112.601665,34.7933327 112.348334,34.6133345 112.145,34.38 C111.941666,34.1466655 111.788334,33.868335 111.685,33.545 C111.581666,33.221665 111.53,32.8666686 111.53,32.48 C111.53,32.0933314 111.579999,31.7316683 111.68,31.395 C111.78,31.0583316 111.931666,30.7650012 112.135,30.515 C112.338334,30.2649988 112.593332,30.0683341 112.9,29.925 C113.206668,29.781666 113.563331,29.71 113.97,29.71 C114.263335,29.71 114.538332,29.7449997 114.795,29.815 C115.051668,29.8850003 115.278332,29.9933326 115.475,30.14 C115.671668,30.2866674 115.833333,30.4716656 115.96,30.695 C116.086667,30.9183344 116.166667,31.1833318 116.2,31.49 L115.32,31.49 Z M117.8,32.42 C117.8,32.7333349 117.841666,33.0116655 117.925,33.255 C118.008334,33.4983345 118.123333,33.7016658 118.27,33.865 C118.416667,34.0283341 118.588332,34.1533329 118.785,34.24 C118.981668,34.3266671 119.189999,34.37 119.41,34.37 C119.630001,34.37 119.838332,34.3266671 120.035,34.24 C120.231668,34.1533329 120.403333,34.0283341 120.55,33.865 C120.696667,33.7016658 120.811666,33.4983345 120.895,33.255 C120.978334,33.0116655 121.02,32.7333349 121.02,32.42 C121.02,32.1066651 120.978334,31.8283346 120.895,31.585 C120.811666,31.3416655 120.696667,31.1366675 120.55,30.97 C120.403333,30.8033325 120.231668,30.6766671 120.035,30.59 C119.838332,30.5033329 119.630001,30.46 119.41,30.46 C119.189999,30.46 118.981668,30.5033329 118.785,30.59 C118.588332,30.6766671 118.416667,30.8033325 118.27,30.97 C118.123333,31.1366675 118.008334,31.3416655 117.925,31.585 C117.841666,31.8283346 117.8,32.1066651 117.8,32.42 Z M116.9,32.42 C116.9,32.0399981 116.953333,31.6850017 117.06,31.355 C117.166667,31.0249984 117.326666,30.7383345 117.54,30.495 C117.753334,30.2516654 118.016665,30.0600007 118.33,29.92 C118.643335,29.7799993 119.003331,29.71 119.41,29.71 C119.823335,29.71 120.184998,29.7799993 120.495,29.92 C120.805002,30.0600007 121.066666,30.2516654 121.28,30.495 C121.493334,30.7383345 121.653333,31.0249984 121.76,31.355 C121.866667,31.6850017 121.92,32.0399981 121.92,32.42 C121.92,32.8000019 121.866667,33.1533317 121.76,33.48 C121.653333,33.8066683 121.493334,34.0916655 121.28,34.335 C121.066666,34.5783346 120.805002,34.7683326 120.495,34.905 C120.184998,35.0416673 119.823335,35.11 119.41,35.11 C119.003331,35.11 118.643335,35.0416673 118.33,34.905 C118.016665,34.7683326 117.753334,34.5783346 117.54,34.335 C117.326666,34.0916655 117.166667,33.8066683 117.06,33.48 C116.953333,33.1533317 116.9,32.8000019 116.9,32.42 Z M122.97,27.86 L123.82,27.86 L123.82,35 L122.97,35 L122.97,27.86 Z M125.76,32.42 C125.76,32.7333349 125.801666,33.0116655 125.885,33.255 C125.968334,33.4983345 126.083333,33.7016658 126.23,33.865 C126.376667,34.0283341 126.548332,34.1533329 126.745,34.24 C126.941668,34.3266671 127.149999,34.37 127.37,34.37 C127.590001,34.37 127.798332,34.3266671 127.995,34.24 C128.191668,34.1533329 128.363333,34.0283341 128.51,33.865 C128.656667,33.7016658 128.771666,33.4983345 128.855,33.255 C128.938334,33.0116655 128.98,32.7333349 128.98,32.42 C128.98,32.1066651 128.938334,31.8283346 128.855,31.585 C128.771666,31.3416655 128.656667,31.1366675 128.51,30.97 C128.363333,30.8033325 128.191668,30.6766671 127.995,30.59 C127.798332,30.5033329 127.590001,30.46 127.37,30.46 C127.149999,30.46 126.941668,30.5033329 126.745,30.59 C126.548332,30.6766671 126.376667,30.8033325 126.23,30.97 C126.083333,31.1366675 125.968334,31.3416655 125.885,31.585 C125.801666,31.8283346 125.76,32.1066651 125.76,32.42 Z M124.86,32.42 C124.86,32.0399981 124.913333,31.6850017 125.02,31.355 C125.126667,31.0249984 125.286666,30.7383345 125.5,30.495 C125.713334,30.2516654 125.976665,30.0600007 126.29,29.92 C126.603335,29.7799993 126.963331,29.71 127.37,29.71 C127.783335,29.71 128.144998,29.7799993 128.455,29.92 C128.765002,30.0600007 129.026666,30.2516654 129.24,30.495 C129.453334,30.7383345 129.613333,31.0249984 129.72,31.355 C129.826667,31.6850017 129.88,32.0399981 129.88,32.42 C129.88,32.8000019 129.826667,33.1533317 129.72,33.48 C129.613333,33.8066683 129.453334,34.0916655 129.24,34.335 C129.026666,34.5783346 128.765002,34.7683326 128.455,34.905 C128.144998,35.0416673 127.783335,35.11 127.37,35.11 C126.963331,35.11 126.603335,35.0416673 126.29,34.905 C125.976665,34.7683326 125.713334,34.5783346 125.5,34.335 C125.286666,34.0916655 125.126667,33.8066683 125.02,33.48 C124.913333,33.1533317 124.86,32.8000019 124.86,32.42 Z M130.85,29.83 L131.65,29.83 L131.65,30.92 L131.67,30.92 C131.876668,30.4999979 132.129998,30.190001 132.43,29.99 C132.730001,29.789999 133.109998,29.6966666 133.57,29.71 L133.57,30.61 C133.229998,30.61 132.940001,30.6566662 132.7,30.75 C132.459999,30.8433338 132.266667,30.9799991 132.12,31.16 C131.973333,31.3400009 131.866667,31.5583321 131.8,31.815 C131.733333,32.0716679 131.7,32.366665 131.7,32.7 L131.7,35 L130.85,35 L130.85,29.83 Z" id="Paintwithyourfavouritecolor"></path>
                                <path d="M45.9795,6.574 L48.0535,6.574 C48.3595015,6.574 48.6541653,6.55133356 48.9375,6.506 C49.2208348,6.46066644 49.4701656,6.37283398 49.6855,6.2425 C49.9008344,6.11216601 50.073666,5.92800119 50.204,5.69 C50.334334,5.45199881 50.3995,5.14033526 50.3995,4.755 C50.3995,4.36966474 50.334334,4.05800119 50.204,3.82 C50.073666,3.58199881 49.9008344,3.39783398 49.6855,3.2675 C49.4701656,3.13716601 49.2208348,3.04933356 48.9375,3.004 C48.6541653,2.95866644 48.3595015,2.936 48.0535,2.936 L45.9795,2.936 L45.9795,6.574 Z M43.3105,0.862 L48.7845,0.862 C49.5438371,0.862 50.1898307,0.972498895 50.7225,1.1935 C51.2551693,1.4145011 51.688665,1.70633152 52.023,2.069 C52.357335,2.43166848 52.6009992,2.84533101 52.754,3.31 C52.9070008,3.77466899 52.9835,4.25633084 52.9835,4.755 C52.9835,5.24233577 52.9070008,5.72116431 52.754,6.1915 C52.6009992,6.66183568 52.357335,7.07833152 52.023,7.441 C51.688665,7.80366848 51.2551693,8.09549889 50.7225,8.3165 C50.1898307,8.5375011 49.5438371,8.648 48.7845,8.648 L45.9795,8.648 L45.9795,13 L43.3105,13 L43.3105,0.862 Z M56.4515,8.308 L59.5965,8.308 L58.0665,3.854 L58.0325,3.854 L56.4515,8.308 Z M56.7065,0.862 L59.4435,0.862 L63.9825,13 L61.2115,13 L60.2935,10.297 L55.7545,10.297 L54.8025,13 L52.1165,13 L56.7065,0.862 Z M65.0365,0.862 L67.7055,0.862 L67.7055,13 L65.0365,13 L65.0365,0.862 Z M70.0515,0.862 L72.7035,0.862 L77.7695,9.005 L77.8035,9.005 L77.8035,0.862 L80.3025,0.862 L80.3025,13 L77.6335,13 L72.5845,4.874 L72.5505,4.874 L72.5505,13 L70.0515,13 L70.0515,0.862 Z M85.3345,3.106 L81.6965,3.106 L81.6965,0.862 L91.6415,0.862 L91.6415,3.106 L88.0035,3.106 L88.0035,13 L85.3345,13 L85.3345,3.106 Z" id="PAINT"></path>
                            </g>
                        </g>
                    </g>
                </g>
            </g>
        </g>
    </g>
</svg>