<?xml version="1.0" encoding="UTF-8"?>
<svg width="170px" height="100px" viewBox="0 0 170 100" version="1.1" xmlns="http://www.w3.org/2000/svg" xmlns:xlink="http://www.w3.org/1999/xlink">
    <!-- Generator: Sketch 54.1 (76490) - https://sketchapp.com -->
    <title>Paint_Text_Normal</title>
    <desc>Created with Sketch.</desc>
    <g id="页面1" stroke="none" stroke-width="1" fill="none" fill-rule="evenodd">
        <g id="C-01&gt;Make-Graphic&gt;EN" transform="translate(-12.000000, -517.000000)">
            <g id="Content" transform="translate(12.000000, 64.000000)">
                <g id="03_PAINT" transform="translate(0.000000, 283.000000)">
                    <g id="Paint_Text_Normal" transform="translate(0.000000, 170.000000)">
                        <rect id="bg" fill="#F3F3F3" x="0" y="0" width="170" height="100"></rect>
                        <path d="M14.88,59.28 L16.74,59.28 C17.2800027,59.2866667 17.6749987,59.1766678 17.925,58.95 C18.1750012,58.7233322 18.3,58.3966688 18.3,57.97 C18.3,57.5433312 18.1750012,57.2183345 17.925,56.995 C17.6749987,56.7716656 17.2800027,56.66 16.74,56.66 L14.88,56.66 L14.88,59.28 Z M13.93,55.86 L17.06,55.86 C17.7800036,55.86 18.3249981,56.0449981 18.695,56.415 C19.0650018,56.7850019 19.25,57.30333 19.25,57.97 C19.25,58.63667 19.0650018,59.1566648 18.695,59.53 C18.3249981,59.9033352 17.7800036,60.0866667 17.06,60.08 L14.88,60.08 L14.88,63 L13.93,63 L13.93,55.86 Z M24.85,62.98 C24.7033326,63.0666671 24.5000013,63.11 24.24,63.11 C24.0199989,63.11 23.8450006,63.0483339 23.715,62.925 C23.5849993,62.8016661 23.52,62.6000014 23.52,62.32 C23.2866655,62.6000014 23.0150015,62.8016661 22.705,62.925 C22.3949984,63.0483339 22.0600018,63.11 21.7,63.11 C21.4666655,63.11 21.245001,63.0833336 21.035,63.03 C20.8249989,62.9766664 20.6433341,62.8933339 20.49,62.78 C20.3366659,62.6666661 20.2150004,62.5183342 20.125,62.335 C20.0349995,62.1516657 19.99,61.9300013 19.99,61.67 C19.99,61.3766652 20.0399995,61.1366676 20.14,60.95 C20.2400005,60.7633324 20.3716658,60.6116672 20.535,60.495 C20.6983341,60.3783327 20.8849989,60.2900003 21.095,60.23 C21.305001,60.1699997 21.5199989,60.1200002 21.74,60.08 C21.9733345,60.0333331 22.1949989,59.9983334 22.405,59.975 C22.615001,59.9516665 22.7999992,59.9183335 22.96,59.875 C23.1200008,59.8316665 23.2466662,59.7683337 23.34,59.685 C23.4333338,59.6016663 23.48,59.4800008 23.48,59.32 C23.48,59.1333324 23.4450003,58.9833339 23.375,58.87 C23.3049996,58.7566661 23.2150005,58.6700003 23.105,58.61 C22.9949994,58.5499997 22.8716673,58.5100001 22.735,58.49 C22.5983326,58.4699999 22.463334,58.46 22.33,58.46 C21.9699982,58.46 21.6700012,58.5283326 21.43,58.665 C21.1899988,58.8016674 21.0600001,59.0599981 21.04,59.44 L20.19,59.44 C20.2033334,59.1199984 20.2699994,58.8500011 20.39,58.63 C20.5100006,58.4099989 20.669999,58.2316674 20.87,58.095 C21.070001,57.9583327 21.298332,57.8600003 21.555,57.8 C21.8116679,57.7399997 22.0866652,57.71 22.38,57.71 C22.6133345,57.71 22.8449988,57.7266665 23.075,57.76 C23.3050011,57.7933335 23.5133324,57.8616661 23.7,57.965 C23.8866676,58.0683339 24.0366661,58.2133324 24.15,58.4 C24.2633339,58.5866676 24.32,58.8299985 24.32,59.13 L24.32,61.79 C24.32,61.990001 24.3316665,62.1366662 24.355,62.23 C24.3783334,62.3233338 24.456666,62.37 24.59,62.37 C24.6633337,62.37 24.7499995,62.3533335 24.85,62.32 L24.85,62.98 Z M23.47,60.33 C23.3633328,60.4100004 23.2233342,60.4683331 23.05,60.505 C22.8766658,60.5416668 22.6950009,60.5716666 22.505,60.595 C22.314999,60.6183335 22.1233343,60.6449998 21.93,60.675 C21.7366657,60.7050002 21.5633341,60.753333 21.41,60.82 C21.2566659,60.886667 21.1316671,60.9816661 21.035,61.105 C20.9383328,61.2283339 20.89,61.3966656 20.89,61.61 C20.89,61.7500007 20.918333,61.8683329 20.975,61.965 C21.0316669,62.0616671 21.1049995,62.1399997 21.195,62.2 C21.2850004,62.2600003 21.3899994,62.3033332 21.51,62.33 C21.6300006,62.3566668 21.756666,62.37 21.89,62.37 C22.1700014,62.37 22.409999,62.3316671 22.61,62.255 C22.810001,62.1783329 22.9733327,62.0816672 23.1,61.965 C23.2266673,61.8483327 23.3199997,61.7216674 23.38,61.585 C23.4400003,61.4483326 23.47,61.3200006 23.47,61.2 L23.47,60.33 Z M26.54,56.9 L25.69,56.9 L25.69,55.86 L26.54,55.86 L26.54,56.9 Z M25.69,57.83 L26.54,57.83 L26.54,63 L25.69,63 L25.69,57.83 Z M27.86,57.83 L28.66,57.83 L28.66,58.65 L28.68,58.65 C29.0333351,58.0233302 29.5933295,57.71 30.36,57.71 C30.7000017,57.71 30.9833322,57.7566662 31.21,57.85 C31.4366678,57.9433338 31.6199993,58.0733325 31.76,58.24 C31.9000007,58.4066675 31.998333,58.6049989 32.055,58.835 C32.1116669,59.0650012 32.14,59.3199986 32.14,59.6 L32.14,63 L31.29,63 L31.29,59.5 C31.29,59.1799984 31.1966676,58.9266676 31.01,58.74 C30.8233324,58.5533324 30.5666683,58.46 30.24,58.46 C29.9799987,58.46 29.7550009,58.4999996 29.565,58.58 C29.374999,58.6600004 29.2166673,58.7733326 29.09,58.92 C28.9633327,59.0666674 28.8683336,59.2383324 28.805,59.435 C28.7416663,59.6316676 28.71,59.8466655 28.71,60.08 L28.71,63 L27.86,63 L27.86,57.83 Z M34.6,57.83 L35.63,57.83 L35.63,58.58 L34.6,58.58 L34.6,61.79 C34.6,61.8900005 34.6083332,61.9699997 34.625,62.03 C34.6416667,62.0900003 34.6733331,62.1366665 34.72,62.17 C34.7666669,62.2033335 34.8316662,62.2249999 34.915,62.235 C34.9983337,62.2450001 35.106666,62.25 35.24,62.25 L35.63,62.25 L35.63,63 L34.98,63 C34.7599989,63 34.5716674,62.9850002 34.415,62.955 C34.2583325,62.9249998 34.1316671,62.8700004 34.035,62.79 C33.9383328,62.7099996 33.8666669,62.5966674 33.82,62.45 C33.7733331,62.3033326 33.75,62.1100012 33.75,61.87 L33.75,58.58 L32.87,58.58 L32.87,57.83 L33.75,57.83 L33.75,56.28 L34.6,56.28 L34.6,57.83 Z M44.47,63 L43.57,63 L42.52,58.89 L42.5,58.89 L41.46,63 L40.54,63 L38.88,57.83 L39.82,57.83 L40.99,62.06 L41.01,62.06 L42.05,57.83 L42.98,57.83 L44.06,62.06 L44.08,62.06 L45.24,57.83 L46.12,57.83 L44.47,63 Z M47.83,56.9 L46.98,56.9 L46.98,55.86 L47.83,55.86 L47.83,56.9 Z M46.98,57.83 L47.83,57.83 L47.83,63 L46.98,63 L46.98,57.83 Z M50.33,57.83 L51.36,57.83 L51.36,58.58 L50.33,58.58 L50.33,61.79 C50.33,61.8900005 50.3383332,61.9699997 50.355,62.03 C50.3716667,62.0900003 50.4033331,62.1366665 50.45,62.17 C50.4966669,62.2033335 50.5616662,62.2249999 50.645,62.235 C50.7283337,62.2450001 50.836666,62.25 50.97,62.25 L51.36,62.25 L51.36,63 L50.71,63 C50.4899989,63 50.3016674,62.9850002 50.145,62.955 C49.9883325,62.9249998 49.8616671,62.8700004 49.765,62.79 C49.6683328,62.7099996 49.5966669,62.5966674 49.55,62.45 C49.5033331,62.3033326 49.48,62.1100012 49.48,61.87 L49.48,58.58 L48.6,58.58 L48.6,57.83 L49.48,57.83 L49.48,56.28 L50.33,56.28 L50.33,57.83 Z M52.3,55.86 L53.15,55.86 L53.15,58.59 L53.17,58.59 C53.236667,58.4299992 53.3299994,58.2950005 53.45,58.185 C53.5700006,58.0749994 53.7049992,57.9850003 53.855,57.915 C54.0050007,57.8449996 54.1616658,57.7933335 54.325,57.76 C54.4883341,57.7266665 54.6466659,57.71 54.8,57.71 C55.1400017,57.71 55.4233322,57.7566662 55.65,57.85 C55.8766678,57.9433338 56.0599993,58.0733325 56.2,58.24 C56.3400007,58.4066675 56.438333,58.6049989 56.495,58.835 C56.5516669,59.0650012 56.58,59.3199986 56.58,59.6 L56.58,63 L55.73,63 L55.73,59.5 C55.73,59.1799984 55.6366676,58.9266676 55.45,58.74 C55.2633324,58.5533324 55.0066683,58.46 54.68,58.46 C54.4199987,58.46 54.1950009,58.4999996 54.005,58.58 C53.814999,58.6600004 53.6566673,58.7733326 53.53,58.92 C53.4033327,59.0666674 53.3083336,59.2383324 53.245,59.435 C53.1816663,59.6316676 53.15,59.8466655 53.15,60.08 L53.15,63 L52.3,63 L52.3,55.86 Z M62.67,63.69 C62.5699995,63.9433346 62.4716671,64.1566658 62.375,64.33 C62.2783328,64.5033342 62.1716672,64.6449995 62.055,64.755 C61.9383327,64.8650006 61.808334,64.9449997 61.665,64.995 C61.5216659,65.0450003 61.3566676,65.07 61.17,65.07 C61.0699995,65.07 60.9700005,65.0633334 60.87,65.05 C60.7699995,65.0366666 60.6733338,65.0133335 60.58,64.98 L60.58,64.2 C60.6533337,64.2333335 60.7383328,64.2616666 60.835,64.285 C60.9316671,64.3083334 61.013333,64.32 61.08,64.32 C61.2533342,64.32 61.3983327,64.2783338 61.515,64.195 C61.6316672,64.1116662 61.7199997,63.9933341 61.78,63.84 L62.13,62.97 L60.08,57.83 L61.04,57.83 L62.55,62.06 L62.57,62.06 L64.02,57.83 L64.92,57.83 L62.67,63.69 Z M66.26,60.42 C66.26,60.7333349 66.3016662,61.0116655 66.385,61.255 C66.4683337,61.4983345 66.5833326,61.7016658 66.73,61.865 C66.8766674,62.0283341 67.0483323,62.1533329 67.245,62.24 C67.4416676,62.3266671 67.6499989,62.37 67.87,62.37 C68.0900011,62.37 68.2983323,62.3266671 68.495,62.24 C68.6916676,62.1533329 68.8633326,62.0283341 69.01,61.865 C69.1566674,61.7016658 69.2716662,61.4983345 69.355,61.255 C69.4383337,61.0116655 69.48,60.7333349 69.48,60.42 C69.48,60.1066651 69.4383337,59.8283346 69.355,59.585 C69.2716662,59.3416655 69.1566674,59.1366675 69.01,58.97 C68.8633326,58.8033325 68.6916676,58.6766671 68.495,58.59 C68.2983323,58.5033329 68.0900011,58.46 67.87,58.46 C67.6499989,58.46 67.4416676,58.5033329 67.245,58.59 C67.0483323,58.6766671 66.8766674,58.8033325 66.73,58.97 C66.5833326,59.1366675 66.4683337,59.3416655 66.385,59.585 C66.3016662,59.8283346 66.26,60.1066651 66.26,60.42 Z M65.36,60.42 C65.36,60.0399981 65.4133328,59.6850017 65.52,59.355 C65.6266672,59.0249983 65.7866656,58.7383345 66,58.495 C66.2133344,58.2516654 66.4766651,58.0600007 66.79,57.92 C67.1033349,57.7799993 67.4633313,57.71 67.87,57.71 C68.2833354,57.71 68.6449985,57.7799993 68.955,57.92 C69.2650015,58.0600007 69.5266656,58.2516654 69.74,58.495 C69.9533344,58.7383345 70.1133328,59.0249983 70.22,59.355 C70.3266672,59.6850017 70.38,60.0399981 70.38,60.42 C70.38,60.8000019 70.3266672,61.1533317 70.22,61.48 C70.1133328,61.8066683 69.9533344,62.0916655 69.74,62.335 C69.5266656,62.5783346 69.2650015,62.7683326 68.955,62.905 C68.6449985,63.0416673 68.2833354,63.11 67.87,63.11 C67.4633313,63.11 67.1033349,63.0416673 66.79,62.905 C66.4766651,62.7683326 66.2133344,62.5783346 66,62.335 C65.7866656,62.0916655 65.6266672,61.8066683 65.52,61.48 C65.4133328,61.1533317 65.36,60.8000019 65.36,60.42 Z M75.66,63 L74.86,63 L74.86,62.18 L74.84,62.18 C74.6599991,62.5000016 74.4300014,62.7349993 74.15,62.885 C73.8699986,63.0350008 73.5400019,63.11 73.16,63.11 C72.8199983,63.11 72.5366678,63.0650004 72.31,62.975 C72.0833322,62.8849996 71.9000007,62.7566675 71.76,62.59 C71.6199993,62.4233325 71.5216669,62.2250011 71.465,61.995 C71.408333,61.7649988 71.38,61.5100014 71.38,61.23 L71.38,57.83 L72.23,57.83 L72.23,61.33 C72.23,61.6500016 72.3233324,61.9033324 72.51,62.09 C72.6966676,62.2766676 72.9533317,62.37 73.28,62.37 C73.5400013,62.37 73.7649991,62.3300004 73.955,62.25 C74.1450009,62.1699996 74.3033327,62.0566674 74.43,61.91 C74.5566673,61.7633326 74.6516663,61.5916676 74.715,61.395 C74.7783336,61.1983324 74.81,60.9833345 74.81,60.75 L74.81,57.83 L75.66,57.83 L75.66,63 Z M76.91,57.83 L77.71,57.83 L77.71,58.92 L77.73,58.92 C77.9366677,58.4999979 78.1899985,58.190001 78.49,57.99 C78.7900015,57.789999 79.1699977,57.6966666 79.63,57.71 L79.63,58.61 C79.2899983,58.61 79.0000012,58.6566662 78.76,58.75 C78.5199988,58.8433338 78.3266674,58.9799991 78.18,59.16 C78.0333326,59.3400009 77.926667,59.558332 77.86,59.815 C77.793333,60.0716679 77.76,60.366665 77.76,60.7 L77.76,63 L76.91,63 L76.91,57.83 Z M83.4,58.58 L82.53,58.58 L82.53,57.83 L83.4,57.83 L83.4,57.06 C83.4,56.6399979 83.5216655,56.3216678 83.765,56.105 C84.0083346,55.8883323 84.363331,55.78 84.83,55.78 C84.9100004,55.78 85.0016662,55.7866666 85.105,55.8 C85.2083338,55.8133334 85.2999996,55.8333332 85.38,55.86 L85.38,56.6 C85.3066663,56.5733332 85.2266671,56.555 85.14,56.545 C85.0533329,56.5349999 84.9733337,56.53 84.9,56.53 C84.6933323,56.53 84.5333339,56.5699996 84.42,56.65 C84.3066661,56.7300004 84.25,56.8833322 84.25,57.11 L84.25,57.83 L85.25,57.83 L85.25,58.58 L84.25,58.58 L84.25,63 L83.4,63 L83.4,58.58 Z M90.59,62.98 C90.4433326,63.0666671 90.2400013,63.11 89.98,63.11 C89.7599989,63.11 89.5850006,63.0483339 89.455,62.925 C89.3249993,62.8016661 89.26,62.6000014 89.26,62.32 C89.0266655,62.6000014 88.7550015,62.8016661 88.445,62.925 C88.1349984,63.0483339 87.8000018,63.11 87.44,63.11 C87.2066655,63.11 86.985001,63.0833336 86.775,63.03 C86.5649989,62.9766664 86.3833341,62.8933339 86.23,62.78 C86.0766659,62.6666661 85.9550004,62.5183342 85.865,62.335 C85.7749995,62.1516657 85.73,61.9300013 85.73,61.67 C85.73,61.3766652 85.7799995,61.1366676 85.88,60.95 C85.9800005,60.7633324 86.1116658,60.6116672 86.275,60.495 C86.4383341,60.3783327 86.6249989,60.2900003 86.835,60.23 C87.045001,60.1699997 87.2599989,60.1200002 87.48,60.08 C87.7133345,60.0333331 87.9349989,59.9983334 88.145,59.975 C88.355001,59.9516665 88.5399992,59.9183335 88.7,59.875 C88.8600008,59.8316665 88.9866662,59.7683337 89.08,59.685 C89.1733338,59.6016663 89.22,59.4800008 89.22,59.32 C89.22,59.1333324 89.1850003,58.9833339 89.115,58.87 C89.0449996,58.7566661 88.9550005,58.6700003 88.845,58.61 C88.7349994,58.5499997 88.6116673,58.5100001 88.475,58.49 C88.3383326,58.4699999 88.203334,58.46 88.07,58.46 C87.7099982,58.46 87.4100012,58.5283326 87.17,58.665 C86.9299988,58.8016674 86.8000001,59.0599981 86.78,59.44 L85.93,59.44 C85.9433334,59.1199984 86.0099994,58.8500011 86.13,58.63 C86.2500006,58.4099989 86.409999,58.2316674 86.61,58.095 C86.810001,57.9583327 87.038332,57.8600003 87.295,57.8 C87.5516679,57.7399997 87.8266652,57.71 88.12,57.71 C88.3533345,57.71 88.5849988,57.7266665 88.815,57.76 C89.0450011,57.7933335 89.2533324,57.8616661 89.44,57.965 C89.6266676,58.0683339 89.7766661,58.2133324 89.89,58.4 C90.0033339,58.5866676 90.06,58.8299985 90.06,59.13 L90.06,61.79 C90.06,61.990001 90.0716665,62.1366662 90.095,62.23 C90.1183334,62.3233338 90.196666,62.37 90.33,62.37 C90.4033337,62.37 90.4899995,62.3533335 90.59,62.32 L90.59,62.98 Z M89.21,60.33 C89.1033328,60.4100004 88.9633342,60.4683331 88.79,60.505 C88.6166658,60.5416668 88.435001,60.5716666 88.245,60.595 C88.0549991,60.6183335 87.8633343,60.6449998 87.67,60.675 C87.4766657,60.7050002 87.3033341,60.753333 87.15,60.82 C86.9966659,60.886667 86.8716671,60.9816661 86.775,61.105 C86.6783329,61.2283339 86.63,61.3966656 86.63,61.61 C86.63,61.7500007 86.6583331,61.8683329 86.715,61.965 C86.771667,62.0616671 86.8449996,62.1399997 86.935,62.2 C87.0250005,62.2600003 87.1299994,62.3033332 87.25,62.33 C87.3700006,62.3566668 87.496666,62.37 87.63,62.37 C87.9100014,62.37 88.149999,62.3316671 88.35,62.255 C88.550001,62.1783329 88.7133327,62.0816672 88.84,61.965 C88.9666673,61.8483327 89.0599997,61.7216674 89.12,61.585 C89.1800003,61.4483326 89.21,61.3200006 89.21,61.2 L89.21,60.33 Z M93.71,63 L92.8,63 L90.88,57.83 L91.83,57.83 L93.28,62.14 L93.3,62.14 L94.71,57.83 L95.6,57.83 L93.71,63 Z M97,60.42 C97,60.7333349 97.0416662,61.0116655 97.125,61.255 C97.2083338,61.4983345 97.3233326,61.7016658 97.47,61.865 C97.6166674,62.0283341 97.7883323,62.1533329 97.985,62.24 C98.1816677,62.3266671 98.3899989,62.37 98.61,62.37 C98.8300011,62.37 99.0383323,62.3266671 99.235,62.24 C99.4316677,62.1533329 99.6033326,62.0283341 99.75,61.865 C99.8966674,61.7016658 100.011666,61.4983345 100.095,61.255 C100.178334,61.0116655 100.22,60.7333349 100.22,60.42 C100.22,60.1066651 100.178334,59.8283346 100.095,59.585 C100.011666,59.3416655 99.8966674,59.1366675 99.75,58.97 C99.6033326,58.8033325 99.4316677,58.6766671 99.235,58.59 C99.0383323,58.5033329 98.8300011,58.46 98.61,58.46 C98.3899989,58.46 98.1816677,58.5033329 97.985,58.59 C97.7883323,58.6766671 97.6166674,58.8033325 97.47,58.97 C97.3233326,59.1366675 97.2083338,59.3416655 97.125,59.585 C97.0416662,59.8283346 97,60.1066651 97,60.42 Z M96.1,60.42 C96.1,60.0399981 96.1533328,59.6850017 96.26,59.355 C96.3666672,59.0249983 96.5266656,58.7383345 96.74,58.495 C96.9533344,58.2516654 97.2166651,58.0600007 97.53,57.92 C97.8433349,57.7799993 98.2033313,57.71 98.61,57.71 C99.0233354,57.71 99.3849984,57.7799993 99.695,57.92 C100.005002,58.0600007 100.266666,58.2516654 100.48,58.495 C100.693334,58.7383345 100.853333,59.0249983 100.96,59.355 C101.066667,59.6850017 101.12,60.0399981 101.12,60.42 C101.12,60.8000019 101.066667,61.1533317 100.96,61.48 C100.853333,61.8066683 100.693334,62.0916655 100.48,62.335 C100.266666,62.5783346 100.005002,62.7683326 99.695,62.905 C99.3849984,63.0416673 99.0233354,63.11 98.61,63.11 C98.2033313,63.11 97.8433349,63.0416673 97.53,62.905 C97.2166651,62.7683326 96.9533344,62.5783346 96.74,62.335 C96.5266656,62.0916655 96.3666672,61.8066683 96.26,61.48 C96.1533328,61.1533317 96.1,60.8000019 96.1,60.42 Z M106.4,63 L105.6,63 L105.6,62.18 L105.58,62.18 C105.399999,62.5000016 105.170001,62.7349993 104.89,62.885 C104.609999,63.0350008 104.280002,63.11 103.9,63.11 C103.559998,63.11 103.276668,63.0650004 103.05,62.975 C102.823332,62.8849996 102.640001,62.7566675 102.5,62.59 C102.359999,62.4233325 102.261667,62.2250011 102.205,61.995 C102.148333,61.7649988 102.12,61.5100014 102.12,61.23 L102.12,57.83 L102.97,57.83 L102.97,61.33 C102.97,61.6500016 103.063332,61.9033324 103.25,62.09 C103.436668,62.2766676 103.693332,62.37 104.02,62.37 C104.280001,62.37 104.504999,62.3300004 104.695,62.25 C104.885001,62.1699996 105.043333,62.0566674 105.17,61.91 C105.296667,61.7633326 105.391666,61.5916676 105.455,61.395 C105.518334,61.1983324 105.55,60.9833345 105.55,60.75 L105.55,57.83 L106.4,57.83 L106.4,63 Z M107.65,57.83 L108.45,57.83 L108.45,58.92 L108.47,58.92 C108.676668,58.4999979 108.929998,58.190001 109.23,57.99 C109.530001,57.789999 109.909998,57.6966666 110.37,57.71 L110.37,58.61 C110.029998,58.61 109.740001,58.6566662 109.5,58.75 C109.259999,58.8433338 109.066667,58.9799991 108.92,59.16 C108.773333,59.3400009 108.666667,59.558332 108.6,59.815 C108.533333,60.0716679 108.5,60.366665 108.5,60.7 L108.5,63 L107.65,63 L107.65,57.83 Z M111.91,56.9 L111.06,56.9 L111.06,55.86 L111.91,55.86 L111.91,56.9 Z M111.06,57.83 L111.91,57.83 L111.91,63 L111.06,63 L111.06,57.83 Z M114.41,57.83 L115.44,57.83 L115.44,58.58 L114.41,58.58 L114.41,61.79 C114.41,61.8900005 114.418333,61.9699997 114.435,62.03 C114.451667,62.0900003 114.483333,62.1366665 114.53,62.17 C114.576667,62.2033335 114.641666,62.2249999 114.725,62.235 C114.808334,62.2450001 114.916666,62.25 115.05,62.25 L115.44,62.25 L115.44,63 L114.79,63 C114.569999,63 114.381667,62.9850002 114.225,62.955 C114.068333,62.9249998 113.941667,62.8700004 113.845,62.79 C113.748333,62.7099996 113.676667,62.5966674 113.63,62.45 C113.583333,62.3033326 113.56,62.1100012 113.56,61.87 L113.56,58.58 L112.68,58.58 L112.68,57.83 L113.56,57.83 L113.56,56.28 L114.41,56.28 L114.41,57.83 Z M119.97,59.92 C119.956667,59.719999 119.911667,59.5300009 119.835,59.35 C119.758333,59.1699991 119.655001,59.0150006 119.525,58.885 C119.394999,58.7549993 119.241668,58.6516671 119.065,58.575 C118.888332,58.4983329 118.693334,58.46 118.48,58.46 C118.259999,58.46 118.061668,58.4983329 117.885,58.575 C117.708332,58.6516671 117.556667,58.756666 117.43,58.89 C117.303333,59.023334 117.203334,59.1783324 117.13,59.355 C117.056666,59.5316676 117.013333,59.719999 117,59.92 L119.97,59.92 Z M120.79,61.36 C120.676666,61.9400029 120.426669,62.3766652 120.04,62.67 C119.653331,62.9633348 119.16667,63.11 118.58,63.11 C118.166665,63.11 117.808335,63.043334 117.505,62.91 C117.201665,62.776666 116.946668,62.5900012 116.74,62.35 C116.533332,62.1099988 116.378334,61.823335 116.275,61.49 C116.171666,61.156665 116.113333,60.7933353 116.1,60.4 C116.1,60.0066647 116.159999,59.6466683 116.28,59.32 C116.400001,58.9933317 116.568332,58.7100012 116.785,58.47 C117.001668,58.2299988 117.258332,58.043334 117.555,57.91 C117.851668,57.776666 118.176665,57.71 118.53,57.71 C118.990002,57.71 119.371665,57.804999 119.675,57.995 C119.978335,58.185001 120.221666,58.4266652 120.405,58.72 C120.588334,59.0133348 120.715,59.3333316 120.785,59.68 C120.855,60.0266684 120.883333,60.3566651 120.87,60.67 L117,60.67 C116.993333,60.8966678 117.02,61.1116656 117.08,61.315 C117.14,61.5183344 117.236666,61.6983326 117.37,61.855 C117.503334,62.0116675 117.673332,62.1366662 117.88,62.23 C118.086668,62.3233338 118.329999,62.37 118.61,62.37 C118.970002,62.37 119.264999,62.2866675 119.495,62.12 C119.725001,61.9533325 119.876666,61.7000017 119.95,61.36 L120.79,61.36 Z M128.04,59.49 C127.973333,59.1633317 127.833334,58.9100009 127.62,58.73 C127.406666,58.5499991 127.120002,58.46 126.76,58.46 C126.453332,58.46 126.196668,58.5166661 125.99,58.63 C125.783332,58.7433339 125.618334,58.8933324 125.495,59.08 C125.371666,59.2666676 125.283334,59.4816655 125.23,59.725 C125.176666,59.9683346 125.15,60.2199987 125.15,60.48 C125.15,60.7200012 125.178333,60.9533322 125.235,61.18 C125.291667,61.4066678 125.379999,61.6083324 125.5,61.785 C125.620001,61.9616676 125.776666,62.1033328 125.97,62.21 C126.163334,62.3166672 126.393332,62.37 126.66,62.37 C127.080002,62.37 127.408332,62.2600011 127.645,62.04 C127.881668,61.8199989 128.026666,61.510002 128.08,61.11 L128.95,61.11 C128.856666,61.7500032 128.618335,62.2433316 128.235,62.59 C127.851665,62.9366684 127.330003,63.11 126.67,63.11 C126.276665,63.11 125.928335,63.0466673 125.625,62.92 C125.321665,62.7933327 125.068334,62.6133345 124.865,62.38 C124.661666,62.1466655 124.508334,61.868335 124.405,61.545 C124.301666,61.221665 124.25,60.8666686 124.25,60.48 C124.25,60.0933314 124.299999,59.7316683 124.4,59.395 C124.5,59.0583316 124.651666,58.7650012 124.855,58.515 C125.058334,58.2649988 125.313332,58.068334 125.62,57.925 C125.926668,57.7816659 126.283331,57.71 126.69,57.71 C126.983335,57.71 127.258332,57.7449996 127.515,57.815 C127.771668,57.8850003 127.998332,57.9933326 128.195,58.14 C128.391668,58.2866674 128.553333,58.4716655 128.68,58.695 C128.806667,58.9183345 128.886666,59.1833318 128.92,59.49 L128.04,59.49 Z M130.52,60.42 C130.52,60.7333349 130.561666,61.0116655 130.645,61.255 C130.728334,61.4983345 130.843333,61.7016658 130.99,61.865 C131.136667,62.0283341 131.308332,62.1533329 131.505,62.24 C131.701668,62.3266671 131.909999,62.37 132.13,62.37 C132.350001,62.37 132.558332,62.3266671 132.755,62.24 C132.951668,62.1533329 133.123333,62.0283341 133.27,61.865 C133.416667,61.7016658 133.531666,61.4983345 133.615,61.255 C133.698334,61.0116655 133.74,60.7333349 133.74,60.42 C133.74,60.1066651 133.698334,59.8283346 133.615,59.585 C133.531666,59.3416655 133.416667,59.1366675 133.27,58.97 C133.123333,58.8033325 132.951668,58.6766671 132.755,58.59 C132.558332,58.5033329 132.350001,58.46 132.13,58.46 C131.909999,58.46 131.701668,58.5033329 131.505,58.59 C131.308332,58.6766671 131.136667,58.8033325 130.99,58.97 C130.843333,59.1366675 130.728334,59.3416655 130.645,59.585 C130.561666,59.8283346 130.52,60.1066651 130.52,60.42 Z M129.62,60.42 C129.62,60.0399981 129.673333,59.6850017 129.78,59.355 C129.886667,59.0249983 130.046666,58.7383345 130.26,58.495 C130.473334,58.2516654 130.736665,58.0600007 131.05,57.92 C131.363335,57.7799993 131.723331,57.71 132.13,57.71 C132.543335,57.71 132.904998,57.7799993 133.215,57.92 C133.525002,58.0600007 133.786666,58.2516654 134,58.495 C134.213334,58.7383345 134.373333,59.0249983 134.48,59.355 C134.586667,59.6850017 134.64,60.0399981 134.64,60.42 C134.64,60.8000019 134.586667,61.1533317 134.48,61.48 C134.373333,61.8066683 134.213334,62.0916655 134,62.335 C133.786666,62.5783346 133.525002,62.7683326 133.215,62.905 C132.904998,63.0416673 132.543335,63.11 132.13,63.11 C131.723331,63.11 131.363335,63.0416673 131.05,62.905 C130.736665,62.7683326 130.473334,62.5783346 130.26,62.335 C130.046666,62.0916655 129.886667,61.8066683 129.78,61.48 C129.673333,61.1533317 129.62,60.8000019 129.62,60.42 Z M135.69,55.86 L136.54,55.86 L136.54,63 L135.69,63 L135.69,55.86 Z M138.48,60.42 C138.48,60.7333349 138.521666,61.0116655 138.605,61.255 C138.688334,61.4983345 138.803333,61.7016658 138.95,61.865 C139.096667,62.0283341 139.268332,62.1533329 139.465,62.24 C139.661668,62.3266671 139.869999,62.37 140.09,62.37 C140.310001,62.37 140.518332,62.3266671 140.715,62.24 C140.911668,62.1533329 141.083333,62.0283341 141.23,61.865 C141.376667,61.7016658 141.491666,61.4983345 141.575,61.255 C141.658334,61.0116655 141.7,60.7333349 141.7,60.42 C141.7,60.1066651 141.658334,59.8283346 141.575,59.585 C141.491666,59.3416655 141.376667,59.1366675 141.23,58.97 C141.083333,58.8033325 140.911668,58.6766671 140.715,58.59 C140.518332,58.5033329 140.310001,58.46 140.09,58.46 C139.869999,58.46 139.661668,58.5033329 139.465,58.59 C139.268332,58.6766671 139.096667,58.8033325 138.95,58.97 C138.803333,59.1366675 138.688334,59.3416655 138.605,59.585 C138.521666,59.8283346 138.48,60.1066651 138.48,60.42 Z M137.58,60.42 C137.58,60.0399981 137.633333,59.6850017 137.74,59.355 C137.846667,59.0249983 138.006666,58.7383345 138.22,58.495 C138.433334,58.2516654 138.696665,58.0600007 139.01,57.92 C139.323335,57.7799993 139.683331,57.71 140.09,57.71 C140.503335,57.71 140.864998,57.7799993 141.175,57.92 C141.485002,58.0600007 141.746666,58.2516654 141.96,58.495 C142.173334,58.7383345 142.333333,59.0249983 142.44,59.355 C142.546667,59.6850017 142.6,60.0399981 142.6,60.42 C142.6,60.8000019 142.546667,61.1533317 142.44,61.48 C142.333333,61.8066683 142.173334,62.0916655 141.96,62.335 C141.746666,62.5783346 141.485002,62.7683326 141.175,62.905 C140.864998,63.0416673 140.503335,63.11 140.09,63.11 C139.683331,63.11 139.323335,63.0416673 139.01,62.905 C138.696665,62.7683326 138.433334,62.5783346 138.22,62.335 C138.006666,62.0916655 137.846667,61.8066683 137.74,61.48 C137.633333,61.1533317 137.58,60.8000019 137.58,60.42 Z M147.88,63 L147.08,63 L147.08,62.18 L147.06,62.18 C146.879999,62.5000016 146.650001,62.7349993 146.37,62.885 C146.089999,63.0350008 145.760002,63.11 145.38,63.11 C145.039998,63.11 144.756668,63.0650004 144.53,62.975 C144.303332,62.8849996 144.120001,62.7566675 143.98,62.59 C143.839999,62.4233325 143.741667,62.2250011 143.685,61.995 C143.628333,61.7649988 143.6,61.5100014 143.6,61.23 L143.6,57.83 L144.45,57.83 L144.45,61.33 C144.45,61.6500016 144.543332,61.9033324 144.73,62.09 C144.916668,62.2766676 145.173332,62.37 145.5,62.37 C145.760001,62.37 145.984999,62.3300004 146.175,62.25 C146.365001,62.1699996 146.523333,62.0566674 146.65,61.91 C146.776667,61.7633326 146.871666,61.5916676 146.935,61.395 C146.998334,61.1983324 147.03,60.9833345 147.03,60.75 L147.03,57.83 L147.88,57.83 L147.88,63 Z M149.13,57.83 L149.93,57.83 L149.93,58.92 L149.95,58.92 C150.156668,58.4999979 150.409998,58.190001 150.71,57.99 C151.010001,57.789999 151.389998,57.6966666 151.85,57.71 L151.85,58.61 C151.509998,58.61 151.220001,58.6566662 150.98,58.75 C150.739999,58.8433338 150.546667,58.9799991 150.4,59.16 C150.253333,59.3400009 150.146667,59.558332 150.08,59.815 C150.013333,60.0716679 149.98,60.366665 149.98,60.7 L149.98,63 L149.13,63 L149.13,57.83 Z M153.01,61.37 C153.016667,61.5566676 153.06,61.7149993 153.14,61.845 C153.22,61.9750006 153.324999,62.078333 153.455,62.155 C153.585001,62.231667 153.731666,62.2866665 153.895,62.32 C154.058334,62.3533335 154.226666,62.37 154.4,62.37 C154.533334,62.37 154.673333,62.3600001 154.82,62.34 C154.966667,62.3199999 155.101666,62.2833336 155.225,62.23 C155.348334,62.1766664 155.45,62.0983339 155.53,61.995 C155.61,61.8916661 155.65,61.7600008 155.65,61.6 C155.65,61.3799989 155.566667,61.2133339 155.4,61.1 C155.233332,60.9866661 155.025001,60.8950003 154.775,60.825 C154.524999,60.7549997 154.253335,60.6916669 153.96,60.635 C153.666665,60.578333 153.395001,60.4983339 153.145,60.395 C152.894999,60.2916661 152.686667,60.1466676 152.52,59.96 C152.353332,59.7733324 152.27,59.513335 152.27,59.18 C152.27,58.9199987 152.328333,58.6966676 152.445,58.51 C152.561667,58.3233324 152.711666,58.1716672 152.895,58.055 C153.078334,57.9383328 153.284999,57.851667 153.515,57.795 C153.745001,57.7383331 153.973332,57.71 154.2,57.71 C154.493335,57.71 154.763332,57.7349998 155.01,57.785 C155.256668,57.8350003 155.474999,57.921666 155.665,58.045 C155.855001,58.1683339 156.006666,58.3349989 156.12,58.545 C156.233334,58.755001 156.3,59.0166651 156.32,59.33 L155.47,59.33 C155.456667,59.1633325 155.413334,59.0250006 155.34,58.915 C155.266666,58.8049994 155.173334,58.716667 155.06,58.65 C154.946666,58.583333 154.821667,58.5350002 154.685,58.505 C154.548333,58.4749999 154.410001,58.46 154.27,58.46 C154.143333,58.46 154.015001,58.4699999 153.885,58.49 C153.754999,58.5100001 153.636667,58.5449998 153.53,58.595 C153.423333,58.6450002 153.336667,58.7116663 153.27,58.795 C153.203333,58.8783337 153.17,58.986666 153.17,59.12 C153.17,59.2666674 153.221666,59.3883328 153.325,59.485 C153.428334,59.5816672 153.559999,59.6616663 153.72,59.725 C153.880001,59.7883336 154.059999,59.8416664 154.26,59.885 C154.460001,59.9283335 154.659999,59.9733331 154.86,60.02 C155.073334,60.0666669 155.281666,60.123333 155.485,60.19 C155.688334,60.256667 155.868333,60.3449995 156.025,60.455 C156.181667,60.5650006 156.308333,60.7033325 156.405,60.87 C156.501667,61.0366675 156.55,61.2433321 156.55,61.49 C156.55,61.8033349 156.485001,62.0633323 156.355,62.27 C156.224999,62.4766677 156.055001,62.6433327 155.845,62.77 C155.634999,62.8966673 155.398335,62.9849998 155.135,63.035 C154.871665,63.0850003 154.610001,63.11 154.35,63.11 C154.063332,63.11 153.790001,63.0800003 153.53,63.02 C153.269999,62.9599997 153.040001,62.8616674 152.84,62.725 C152.639999,62.5883326 152.480001,62.4083344 152.36,62.185 C152.239999,61.9616655 152.173333,61.6900016 152.16,61.37 L153.01,61.37 Z" id="Paintwithyourfavouritecolours" fill="#6A6A6A" fill-rule="nonzero"></path>
                        <path d="M63.9795,34.574 L66.0535,34.574 C66.3595015,34.574 66.6541653,34.5513336 66.9375,34.506 C67.2208347,34.4606664 67.4701656,34.372834 67.6855,34.2425 C67.9008344,34.112166 68.073666,33.9280012 68.204,33.69 C68.334334,33.4519988 68.3995,33.1403353 68.3995,32.755 C68.3995,32.3696647 68.334334,32.0580012 68.204,31.82 C68.073666,31.5819988 67.9008344,31.397834 67.6855,31.2675 C67.4701656,31.137166 67.2208347,31.0493336 66.9375,31.004 C66.6541653,30.9586664 66.3595015,30.936 66.0535,30.936 L63.9795,30.936 L63.9795,34.574 Z M61.3105,28.862 L66.7845,28.862 C67.5438371,28.862 68.1898307,28.9724989 68.7225,29.1935 C69.2551693,29.4145011 69.688665,29.7063315 70.023,30.069 C70.357335,30.4316685 70.6009992,30.845331 70.754,31.31 C70.9070008,31.774669 70.9835,32.2563308 70.9835,32.755 C70.9835,33.2423358 70.9070008,33.7211643 70.754,34.1915 C70.6009992,34.6618357 70.357335,35.0783315 70.023,35.441 C69.688665,35.8036685 69.2551693,36.0954989 68.7225,36.3165 C68.1898307,36.5375011 67.5438371,36.648 66.7845,36.648 L63.9795,36.648 L63.9795,41 L61.3105,41 L61.3105,28.862 Z M74.4515,36.308 L77.5965,36.308 L76.0665,31.854 L76.0325,31.854 L74.4515,36.308 Z M74.7065,28.862 L77.4435,28.862 L81.9825,41 L79.2115,41 L78.2935,38.297 L73.7545,38.297 L72.8025,41 L70.1165,41 L74.7065,28.862 Z M83.0365,28.862 L85.7055,28.862 L85.7055,41 L83.0365,41 L83.0365,28.862 Z M88.0515,28.862 L90.7035,28.862 L95.7695,37.005 L95.8035,37.005 L95.8035,28.862 L98.3025,28.862 L98.3025,41 L95.6335,41 L90.5845,32.874 L90.5505,32.874 L90.5505,41 L88.0515,41 L88.0515,28.862 Z M103.3345,31.106 L99.6965,31.106 L99.6965,28.862 L109.6415,28.862 L109.6415,31.106 L106.0035,31.106 L106.0035,41 L103.3345,41 L103.3345,31.106 Z" id="PAINT" fill="#6A6A6A" fill-rule="nonzero"></path>
                    </g>
                </g>
            </g>
        </g>
    </g>
</svg>