<?xml version="1.0" encoding="UTF-8"?>
<svg width="170px" height="110px" viewBox="0 0 170 110" version="1.1" xmlns="http://www.w3.org/2000/svg" xmlns:xlink="http://www.w3.org/1999/xlink">
    <!-- Generator: Sketch 54.1 (76490) - https://sketchapp.com -->
    <title>Paint_Text_Normal</title>
    <desc>Created with Sketch.</desc>
    <g id="Make" stroke="none" stroke-width="1" fill="none" fill-rule="evenodd">
        <g id="iPhone-XS&gt;JP" transform="translate(-12.000000, -618.000000)">
            <g id="Content" transform="translate(12.000000, 88.000000)">
                <g id="03_PAINT" transform="translate(0.000000, 326.000000)">
                    <g id="Paint_Text_Normal" transform="translate(0.000000, 204.000000)">
                        <rect id="bg" fill="#FFFFFF" x="0" y="0" width="170" height="110"></rect>
                        <g transform="translate(22.000000, 26.000000)" fill="#1B1B1B" fill-rule="nonzero">
                            <path d="M5.643,31.512 L6.282,31.512 C6.921,32.439 7.902,33.447 8.784,34.023 C8.658,34.185 8.487,34.419 8.379,34.617 C7.515,33.978 6.543,32.97 5.994,32.16 C5.499,32.979 4.59,34.005 3.627,34.707 C3.546,34.536 3.375,34.293 3.24,34.149 C4.203,33.483 5.175,32.385 5.643,31.512 Z M4.428,34.86 L4.428,34.275 L7.713,34.275 L7.713,34.86 L4.428,34.86 Z M0.846,36.57 L1.422,36.678 C1.296,37.524 1.08,38.388 0.783,38.964 C0.675,38.883 0.405,38.757 0.261,38.712 C0.558,38.163 0.747,37.362 0.846,36.57 Z M3.114,35.913 L2.403,35.958 L2.403,39.702 L1.809,39.702 L1.809,35.994 C1.296,36.021 0.81,36.048 0.396,36.075 L0.342,35.481 L0.936,35.454 C1.125,35.211 1.332,34.923 1.53,34.626 C1.251,34.221 0.783,33.717 0.369,33.348 L0.711,32.916 C0.801,32.988 0.882,33.069 0.972,33.15 C1.278,32.646 1.593,31.971 1.782,31.476 L2.367,31.71 C2.061,32.304 1.683,33.015 1.35,33.519 C1.548,33.717 1.728,33.924 1.872,34.104 C2.223,33.546 2.547,32.97 2.781,32.493 L3.348,32.745 C2.835,33.6 2.151,34.653 1.557,35.427 L2.889,35.373 C2.763,35.094 2.619,34.806 2.466,34.563 L2.934,34.374 C3.303,34.95 3.663,35.724 3.78,36.21 L3.276,36.435 C3.24,36.282 3.186,36.102 3.114,35.913 Z M2.7,36.669 L3.186,36.507 C3.429,37.02 3.672,37.704 3.762,38.145 L3.249,38.316 C3.159,37.866 2.934,37.191 2.7,36.669 Z M6.633,37.389 L7.155,37.119 C7.749,37.83 8.388,38.784 8.685,39.414 L8.118,39.729 C8.037,39.54 7.92,39.324 7.785,39.09 C6.255,39.207 4.662,39.342 3.537,39.432 L3.429,38.811 L4.374,38.757 C4.662,38.127 4.986,37.191 5.175,36.462 L3.843,36.462 L3.843,35.868 L8.505,35.868 L8.505,36.462 L5.922,36.462 C5.661,37.2 5.346,38.073 5.067,38.712 C5.805,38.658 6.633,38.604 7.461,38.541 C7.2,38.145 6.912,37.731 6.633,37.389 Z M11.439,37.74 C11.835,37.74 12.33,37.146 12.789,35.643 C13.014,34.905 13.185,34.059 13.284,33.24 C11.574,33.456 10.53,34.923 10.53,36.12 C10.53,37.245 11.052,37.74 11.439,37.74 Z M13.788,39.234 L13.374,38.559 C13.653,38.541 13.923,38.496 14.139,38.451 C15.282,38.199 16.398,37.353 16.398,35.814 C16.398,34.464 15.543,33.357 14.031,33.231 C13.914,34.059 13.743,34.959 13.5,35.796 C12.951,37.623 12.24,38.568 11.412,38.568 C10.62,38.568 9.819,37.65 9.819,36.183 C9.819,34.248 11.547,32.556 13.725,32.556 C15.813,32.556 17.145,34.032 17.145,35.832 C17.145,37.704 15.912,38.955 13.788,39.234 Z M20.484,33.735 L20.484,34.581 L24.579,34.581 L24.579,33.735 L20.484,33.735 Z M20.484,35.094 L20.484,35.958 L24.579,35.958 L24.579,35.094 L20.484,35.094 Z M20.484,32.376 L20.484,33.222 L24.579,33.222 L24.579,32.376 L20.484,32.376 Z M19.827,31.845 L25.263,31.845 L25.263,36.489 L19.827,36.489 L19.827,31.845 Z M18.54,37.101 L26.469,37.101 L26.469,37.722 L18.54,37.722 L18.54,37.101 Z M23.247,38.46 L23.724,38.01 C24.759,38.379 25.875,38.856 26.568,39.225 L25.929,39.684 C25.308,39.315 24.264,38.829 23.247,38.46 Z M21.177,37.965 L21.789,38.397 C21.024,38.883 19.872,39.378 18.954,39.675 C18.846,39.54 18.648,39.306 18.495,39.162 C19.413,38.883 20.574,38.388 21.177,37.965 Z M33.588,34.329 C33.795,34.626 34.137,35.184 34.326,35.58 L33.867,35.796 C33.66,35.364 33.399,34.896 33.129,34.527 L33.588,34.329 Z M34.569,33.951 C34.785,34.248 35.136,34.797 35.352,35.193 L34.884,35.409 C34.668,34.977 34.407,34.536 34.119,34.158 L34.569,33.951 Z M27.747,33.078 C28.089,33.069 28.368,33.051 28.539,33.033 C29.124,32.979 30.807,32.817 32.445,32.673 C33.417,32.592 34.254,32.547 34.848,32.52 L34.848,33.24 C34.335,33.24 33.561,33.249 33.102,33.384 C31.833,33.789 31.068,35.148 31.068,36.201 C31.068,37.938 32.688,38.487 34.137,38.541 L33.876,39.297 C32.229,39.225 30.348,38.343 30.348,36.354 C30.348,34.968 31.185,33.834 32.004,33.348 C31.221,33.438 28.791,33.672 27.828,33.87 L27.747,33.078 Z M38.16,38.568 L42.957,38.568 L42.957,37.236 L38.16,37.236 L38.16,38.568 Z M42.957,35.301 L38.16,35.301 L38.16,36.606 L42.957,36.606 L42.957,35.301 Z M42.957,33.33 L38.16,33.33 L38.16,34.671 L42.957,34.671 L42.957,33.33 Z M40.419,32.691 L43.65,32.691 L43.65,39.657 L42.957,39.657 L42.957,39.198 L38.16,39.198 L38.16,39.702 L37.494,39.702 L37.494,32.691 L39.753,32.691 C39.888,32.295 40.032,31.809 40.104,31.458 L40.869,31.557 C40.734,31.944 40.572,32.349 40.419,32.691 Z M49.806,38.478 L52.281,38.478 L52.281,36.48 L49.806,36.48 L49.806,38.478 Z M46.719,36.48 L46.719,38.478 L49.14,38.478 L49.14,36.48 L46.719,36.48 Z M49.14,33.879 L46.719,33.879 L46.719,35.823 L49.14,35.823 L49.14,33.879 Z M52.281,33.879 L49.806,33.879 L49.806,35.823 L52.281,35.823 L52.281,33.879 Z M49.806,33.213 L52.956,33.213 L52.956,39.648 L52.281,39.648 L52.281,39.135 L46.719,39.135 L46.719,39.693 L46.053,39.693 L46.053,33.213 L49.14,33.213 L49.14,31.485 L49.806,31.485 L49.806,33.213 Z M55.611,32.187 L56.421,32.25 C56.367,32.403 56.286,32.691 56.25,32.853 C56.079,33.672 55.818,35.265 55.818,36.264 C55.818,36.696 55.836,37.056 55.89,37.488 C56.043,37.083 56.241,36.561 56.385,36.21 L56.772,36.498 C56.547,37.128 56.223,38.073 56.142,38.496 C56.115,38.622 56.097,38.793 56.097,38.892 L56.124,39.207 L55.476,39.252 C55.296,38.622 55.152,37.596 55.152,36.39 C55.152,35.076 55.44,33.546 55.548,32.817 C55.575,32.61 55.611,32.376 55.611,32.187 Z M57.807,36.507 L58.455,36.57 C58.374,36.894 58.338,37.146 58.338,37.389 C58.338,37.794 58.608,38.19 59.832,38.19 C60.633,38.19 61.317,38.118 62.037,37.956 L62.046,38.712 C61.497,38.82 60.75,38.892 59.823,38.892 C58.329,38.892 57.663,38.397 57.663,37.56 C57.663,37.236 57.726,36.885 57.807,36.507 Z M58.113,33.672 L58.104,32.934 C59.076,33.096 60.876,33.06 61.767,32.934 L61.767,33.672 C60.813,33.771 59.085,33.771 58.113,33.672 Z M69.336,33.6 C69.336,33.96 69.633,34.257 70.002,34.257 C70.362,34.257 70.659,33.96 70.659,33.6 C70.659,33.231 70.362,32.943 70.002,32.943 C69.633,32.943 69.336,33.231 69.336,33.6 Z M68.904,33.6 C68.904,32.997 69.39,32.502 70.002,32.502 C70.605,32.502 71.091,32.997 71.091,33.6 C71.091,34.203 70.605,34.689 70.002,34.689 C69.39,34.689 68.904,34.203 68.904,33.6 Z M63.486,36.633 C63.711,36.435 63.882,36.273 64.116,36.039 C64.548,35.598 65.331,34.599 65.898,33.933 C66.375,33.366 66.744,33.303 67.392,33.843 C67.941,34.293 68.679,35.085 69.255,35.706 C69.858,36.354 70.776,37.335 71.433,38.109 L70.848,38.748 C70.218,37.938 69.399,37.011 68.823,36.354 C68.202,35.661 67.455,34.851 67.068,34.527 C66.69,34.212 66.564,34.221 66.258,34.599 C65.826,35.121 65.07,36.111 64.665,36.606 C64.476,36.84 64.278,37.119 64.143,37.299 L63.486,36.633 Z M79.155,31.971 L79.749,32.511 C79.128,33.141 78.264,33.879 77.337,34.464 L77.337,38.316 C77.337,38.658 77.355,39.099 77.391,39.279 L76.509,39.279 C76.536,39.108 76.563,38.658 76.563,38.316 L76.563,34.914 C75.6,35.445 74.358,35.967 73.179,36.318 L72.765,35.616 C74.268,35.265 75.798,34.581 76.788,33.96 C77.706,33.393 78.651,32.61 79.155,31.971 Z M83.043,32.403 C83.682,32.826 84.834,33.762 85.338,34.266 L84.771,34.833 C84.321,34.365 83.196,33.402 82.53,32.952 L83.043,32.403 Z M82.269,38.433 C83.844,38.199 85.014,37.65 85.869,37.119 C87.255,36.246 88.353,34.914 88.875,33.807 L89.307,34.572 C88.686,35.697 87.642,36.921 86.283,37.767 C85.383,38.343 84.249,38.892 82.746,39.171 L82.269,38.433 Z M97.623,35.922 L97.317,36.687 C96.336,36.156 94.779,35.553 93.78,35.238 L93.789,38.208 C93.789,38.496 93.807,38.973 93.843,39.27 L92.979,39.27 C93.015,38.982 93.033,38.541 93.033,38.208 L93.033,32.97 C93.033,32.718 93.015,32.313 92.961,32.034 L93.843,32.034 C93.816,32.313 93.78,32.7 93.78,32.97 L93.78,34.437 C94.968,34.797 96.669,35.445 97.623,35.922 Z M101.169,32.007 L102.078,32.016 C102.033,32.304 102.006,32.619 101.988,32.907 C101.952,33.915 101.88,36.021 101.88,37.353 C101.88,38.334 102.51,38.676 103.338,38.676 C104.976,38.676 105.903,37.758 106.542,36.831 L107.037,37.452 C106.434,38.298 105.282,39.414 103.32,39.414 C102.042,39.414 101.16,38.874 101.16,37.425 C101.16,36.102 101.25,33.852 101.25,32.907 C101.25,32.583 101.223,32.268 101.169,32.007 Z M112.509,37.956 C112.509,37.803 112.5,37.596 112.5,37.353 C112.221,37.299 111.933,37.272 111.636,37.272 C110.79,37.272 110.331,37.596 110.331,38.001 C110.331,38.415 110.682,38.721 111.564,38.721 C112.077,38.721 112.509,38.568 112.509,37.956 Z M115.758,38.262 L115.353,38.892 C114.831,38.415 114.093,37.875 113.202,37.551 C113.211,37.776 113.22,37.974 113.22,38.109 C113.22,38.721 112.806,39.36 111.645,39.36 C110.367,39.36 109.656,38.901 109.656,38.037 C109.656,37.227 110.439,36.678 111.726,36.678 C111.987,36.678 112.23,36.696 112.473,36.732 C112.455,36.336 112.437,35.913 112.428,35.544 L111.933,35.544 C111.321,35.544 110.331,35.49 109.692,35.418 L109.692,34.734 C110.295,34.842 111.348,34.905 111.933,34.905 L112.41,34.905 L112.41,33.627 L111.969,33.627 C111.348,33.627 110.403,33.555 109.872,33.492 L109.872,32.826 C110.412,32.925 111.366,32.997 111.96,32.997 L112.419,32.997 L112.419,32.412 C112.419,32.268 112.41,32.007 112.392,31.881 L113.157,31.881 C113.13,32.043 113.121,32.214 113.112,32.475 C113.103,32.583 113.103,32.754 113.103,32.97 C113.877,32.943 114.606,32.871 115.389,32.754 L115.398,33.411 C114.696,33.483 113.931,33.555 113.094,33.6 L113.094,34.878 C113.949,34.842 114.768,34.761 115.569,34.644 L115.578,35.319 C114.741,35.427 113.949,35.49 113.103,35.526 C113.121,35.985 113.148,36.453 113.166,36.876 C114.345,37.2 115.254,37.857 115.758,38.262 Z M121.32,36.894 C121.842,36.894 122.184,36.471 122.103,35.625 C121.959,35.238 121.662,35.076 121.311,35.076 C120.852,35.076 120.411,35.436 120.411,36.012 C120.411,36.57 120.825,36.894 121.32,36.894 Z M122.697,33.672 L122.58,33.672 C122.58,34.176 122.589,34.725 122.598,35.13 C122.787,35.436 122.886,35.832 122.886,36.273 C122.886,37.479 122.301,38.82 120.231,39.441 L119.61,38.838 C120.78,38.568 121.608,38.082 121.977,37.29 C121.761,37.443 121.509,37.515 121.212,37.515 C120.456,37.515 119.736,36.984 119.736,36.021 C119.736,35.139 120.465,34.464 121.311,34.464 C121.527,34.464 121.725,34.5 121.905,34.563 C121.905,34.302 121.905,33.987 121.896,33.681 C120.546,33.69 119.034,33.753 117.918,33.834 L117.9,33.132 C118.89,33.114 120.564,33.06 121.887,33.042 C121.887,32.79 121.878,32.583 121.869,32.457 C121.86,32.268 121.833,32.007 121.815,31.899 L122.634,31.899 L122.589,32.457 C122.589,32.592 122.58,32.799 122.58,33.033 L122.715,33.033 C123.795,33.033 124.893,33.042 125.325,33.042 L125.316,33.717 C124.812,33.69 124.002,33.672 122.697,33.672 Z" id="絵の具で自由にペイントします"></path>
                            <path d="M41.9795,10.574 L44.0535,10.574 C44.3595015,10.574 44.6541652,10.5513336 44.9375,10.506 C45.2208348,10.4606664 45.4701656,10.372834 45.6855,10.2425 C45.9008344,10.112166 46.073666,9.92800119 46.204,9.69 C46.334334,9.45199881 46.3995,9.14033526 46.3995,8.755 C46.3995,8.36966474 46.334334,8.05800119 46.204,7.82 C46.073666,7.58199881 45.9008344,7.39783399 45.6855,7.2675 C45.4701656,7.13716602 45.2208348,7.04933356 44.9375,7.004 C44.6541652,6.95866644 44.3595015,6.936 44.0535,6.936 L41.9795,6.936 L41.9795,10.574 Z M39.3105,4.862 L44.7845,4.862 C45.5438371,4.862 46.1898307,4.97249889 46.7225,5.1935 C47.2551693,5.4145011 47.688665,5.70633152 48.023,6.069 C48.357335,6.43166848 48.6009992,6.84533101 48.754,7.31 C48.9070008,7.77466899 48.9835,8.25633084 48.9835,8.755 C48.9835,9.24233577 48.9070008,9.72116431 48.754,10.1915 C48.6009992,10.6618357 48.357335,11.0783315 48.023,11.441 C47.688665,11.8036685 47.2551693,12.0954989 46.7225,12.3165 C46.1898307,12.5375011 45.5438371,12.648 44.7845,12.648 L41.9795,12.648 L41.9795,17 L39.3105,17 L39.3105,4.862 Z M52.4515,12.308 L55.5965,12.308 L54.0665,7.854 L54.0325,7.854 L52.4515,12.308 Z M52.7065,4.862 L55.4435,4.862 L59.9825,17 L57.2115,17 L56.2935,14.297 L51.7545,14.297 L50.8025,17 L48.1165,17 L52.7065,4.862 Z M61.0365,4.862 L63.7055,4.862 L63.7055,17 L61.0365,17 L61.0365,4.862 Z M66.0515,4.862 L68.7035,4.862 L73.7695,13.005 L73.8035,13.005 L73.8035,4.862 L76.3025,4.862 L76.3025,17 L73.6335,17 L68.5845,8.874 L68.5505,8.874 L68.5505,17 L66.0515,17 L66.0515,4.862 Z M81.3345,7.106 L77.6965,7.106 L77.6965,4.862 L87.6415,4.862 L87.6415,7.106 L84.0035,7.106 L84.0035,17 L81.3345,17 L81.3345,7.106 Z" id="PAINT"></path>
                        </g>
                    </g>
                </g>
            </g>
        </g>
    </g>
</svg>