<?xml version="1.0" encoding="UTF-8"?>
<svg width="170px" height="110px" viewBox="0 0 170 110" version="1.1" xmlns="http://www.w3.org/2000/svg" xmlns:xlink="http://www.w3.org/1999/xlink">
    <!-- Generator: Sketch 54.1 (76490) - https://sketchapp.com -->
    <title>Paint_Text_Normal</title>
    <desc>Created with Sketch.</desc>
    <g id="页面1" stroke="none" stroke-width="1" fill="none" fill-rule="evenodd">
        <g id="iPhone-XS&gt;EN" transform="translate(-12.000000, -618.000000)">
            <g id="Content" transform="translate(12.000000, 88.000000)">
                <g id="03_PAINT" transform="translate(0.000000, 326.000000)">
                    <g id="Paint_Text_Normal" transform="translate(0.000000, 204.000000)">
                        <rect id="bg" fill="#F3F3F3" x="0" y="0" width="170" height="110"></rect>
                        <g transform="translate(13.000000, 26.000000)" fill="#6A6A6A" fill-rule="nonzero">
                            <path d="M1.88,35.28 L3.74,35.28 C4.2800027,35.2866667 4.67499875,35.1766678 4.925,34.95 C5.17500125,34.7233322 5.3,34.3966688 5.3,33.97 C5.3,33.5433312 5.17500125,33.2183345 4.925,32.995 C4.67499875,32.7716656 4.2800027,32.66 3.74,32.66 L1.88,32.66 L1.88,35.28 Z M0.93,31.86 L4.06,31.86 C4.7800036,31.86 5.32499815,32.0449981 5.695,32.415 C6.06500185,32.7850019 6.25,33.30333 6.25,33.97 C6.25,34.63667 6.06500185,35.1566648 5.695,35.53 C5.32499815,35.9033352 4.7800036,36.0866667 4.06,36.08 L1.88,36.08 L1.88,39 L0.93,39 L0.93,31.86 Z M11.85,38.98 C11.7033326,39.0666671 11.5000013,39.11 11.24,39.11 C11.0199989,39.11 10.8450006,39.0483339 10.715,38.925 C10.5849993,38.8016661 10.52,38.6000014 10.52,38.32 C10.2866655,38.6000014 10.0150015,38.8016661 9.705,38.925 C9.39499845,39.0483339 9.0600018,39.11 8.7,39.11 C8.4666655,39.11 8.24500105,39.0833336 8.035,39.03 C7.82499895,38.9766664 7.6433341,38.8933339 7.49,38.78 C7.3366659,38.6666661 7.21500045,38.5183342 7.125,38.335 C7.03499955,38.1516657 6.99,37.9300013 6.99,37.67 C6.99,37.3766652 7.0399995,37.1366676 7.14,36.95 C7.2400005,36.7633324 7.37166585,36.6116672 7.535,36.495 C7.69833415,36.3783327 7.88499895,36.2900003 8.095,36.23 C8.30500105,36.1699997 8.5199989,36.1200002 8.74,36.08 C8.9733345,36.0333331 9.19499895,35.9983334 9.405,35.975 C9.61500105,35.9516665 9.7999992,35.9183335 9.96,35.875 C10.1200008,35.8316665 10.2466662,35.7683337 10.34,35.685 C10.4333338,35.6016663 10.48,35.4800008 10.48,35.32 C10.48,35.1333324 10.4450003,34.9833339 10.375,34.87 C10.3049996,34.7566661 10.2150005,34.6700003 10.105,34.61 C9.99499945,34.5499997 9.87166735,34.5100001 9.735,34.49 C9.59833265,34.4699999 9.463334,34.46 9.33,34.46 C8.9699982,34.46 8.6700012,34.5283326 8.43,34.665 C8.1899988,34.8016674 8.0600001,35.0599981 8.04,35.44 L7.19,35.44 C7.2033334,35.1199984 7.2699994,34.8500011 7.39,34.63 C7.5100006,34.4099989 7.669999,34.2316674 7.87,34.095 C8.070001,33.9583327 8.29833205,33.8600003 8.555,33.8 C8.81166795,33.7399997 9.0866652,33.71 9.38,33.71 C9.6133345,33.71 9.84499885,33.7266665 10.075,33.76 C10.3050011,33.7933335 10.5133324,33.8616661 10.7,33.965 C10.8866676,34.0683339 11.0366661,34.2133324 11.15,34.4 C11.2633339,34.5866676 11.32,34.8299985 11.32,35.13 L11.32,37.79 C11.32,37.990001 11.3316665,38.1366662 11.355,38.23 C11.3783334,38.3233338 11.456666,38.37 11.59,38.37 C11.6633337,38.37 11.7499995,38.3533335 11.85,38.32 L11.85,38.98 Z M10.47,36.33 C10.3633328,36.4100004 10.2233342,36.4683331 10.05,36.505 C9.8766658,36.5416668 9.69500095,36.5716666 9.505,36.595 C9.31499905,36.6183335 9.1233343,36.6449998 8.93,36.675 C8.7366657,36.7050002 8.5633341,36.753333 8.41,36.82 C8.2566659,36.886667 8.13166715,36.9816661 8.035,37.105 C7.93833285,37.2283339 7.89,37.3966656 7.89,37.61 C7.89,37.7500007 7.91833305,37.8683329 7.975,37.965 C8.03166695,38.0616671 8.10499955,38.1399997 8.195,38.2 C8.28500045,38.2600003 8.3899994,38.3033332 8.51,38.33 C8.6300006,38.3566668 8.756666,38.37 8.89,38.37 C9.1700014,38.37 9.409999,38.3316671 9.61,38.255 C9.810001,38.1783329 9.9733327,38.0816672 10.1,37.965 C10.2266673,37.8483327 10.3199997,37.7216674 10.38,37.585 C10.4400003,37.4483326 10.47,37.3200006 10.47,37.2 L10.47,36.33 Z M13.54,32.9 L12.69,32.9 L12.69,31.86 L13.54,31.86 L13.54,32.9 Z M12.69,33.83 L13.54,33.83 L13.54,39 L12.69,39 L12.69,33.83 Z M14.86,33.83 L15.66,33.83 L15.66,34.65 L15.68,34.65 C16.0333351,34.0233302 16.5933295,33.71 17.36,33.71 C17.7000017,33.71 17.9833322,33.7566662 18.21,33.85 C18.4366678,33.9433338 18.6199993,34.0733325 18.76,34.24 C18.9000007,34.4066675 18.998333,34.6049989 19.055,34.835 C19.1116669,35.0650012 19.14,35.3199986 19.14,35.6 L19.14,39 L18.29,39 L18.29,35.5 C18.29,35.1799984 18.1966676,34.9266676 18.01,34.74 C17.8233324,34.5533324 17.5666683,34.46 17.24,34.46 C16.9799987,34.46 16.7550009,34.4999996 16.565,34.58 C16.374999,34.6600004 16.2166673,34.7733326 16.09,34.92 C15.9633327,35.0666674 15.8683336,35.2383324 15.805,35.435 C15.7416663,35.6316676 15.71,35.8466655 15.71,36.08 L15.71,39 L14.86,39 L14.86,33.83 Z M21.6,33.83 L22.63,33.83 L22.63,34.58 L21.6,34.58 L21.6,37.79 C21.6,37.8900005 21.6083332,37.9699997 21.625,38.03 C21.6416667,38.0900003 21.6733331,38.1366665 21.72,38.17 C21.7666669,38.2033335 21.8316662,38.2249999 21.915,38.235 C21.9983337,38.2450001 22.106666,38.25 22.24,38.25 L22.63,38.25 L22.63,39 L21.98,39 C21.7599989,39 21.5716674,38.9850002 21.415,38.955 C21.2583325,38.9249998 21.1316671,38.8700004 21.035,38.79 C20.9383328,38.7099996 20.8666669,38.5966674 20.82,38.45 C20.7733331,38.3033326 20.75,38.1100012 20.75,37.87 L20.75,34.58 L19.87,34.58 L19.87,33.83 L20.75,33.83 L20.75,32.28 L21.6,32.28 L21.6,33.83 Z M31.47,39 L30.57,39 L29.52,34.89 L29.5,34.89 L28.46,39 L27.54,39 L25.88,33.83 L26.82,33.83 L27.99,38.06 L28.01,38.06 L29.05,33.83 L29.98,33.83 L31.06,38.06 L31.08,38.06 L32.24,33.83 L33.12,33.83 L31.47,39 Z M34.83,32.9 L33.98,32.9 L33.98,31.86 L34.83,31.86 L34.83,32.9 Z M33.98,33.83 L34.83,33.83 L34.83,39 L33.98,39 L33.98,33.83 Z M37.33,33.83 L38.36,33.83 L38.36,34.58 L37.33,34.58 L37.33,37.79 C37.33,37.8900005 37.3383332,37.9699997 37.355,38.03 C37.3716667,38.0900003 37.4033331,38.1366665 37.45,38.17 C37.4966669,38.2033335 37.5616662,38.2249999 37.645,38.235 C37.7283337,38.2450001 37.836666,38.25 37.97,38.25 L38.36,38.25 L38.36,39 L37.71,39 C37.4899989,39 37.3016674,38.9850002 37.145,38.955 C36.9883325,38.9249998 36.8616671,38.8700004 36.765,38.79 C36.6683328,38.7099996 36.5966669,38.5966674 36.55,38.45 C36.5033331,38.3033326 36.48,38.1100012 36.48,37.87 L36.48,34.58 L35.6,34.58 L35.6,33.83 L36.48,33.83 L36.48,32.28 L37.33,32.28 L37.33,33.83 Z M39.3,31.86 L40.15,31.86 L40.15,34.59 L40.17,34.59 C40.236667,34.4299992 40.3299994,34.2950005 40.45,34.185 C40.5700006,34.0749994 40.7049992,33.9850003 40.855,33.915 C41.0050007,33.8449996 41.1616658,33.7933335 41.325,33.76 C41.4883341,33.7266665 41.6466659,33.71 41.8,33.71 C42.1400017,33.71 42.4233322,33.7566662 42.65,33.85 C42.8766678,33.9433338 43.0599993,34.0733325 43.2,34.24 C43.3400007,34.4066675 43.438333,34.6049989 43.495,34.835 C43.5516669,35.0650012 43.58,35.3199986 43.58,35.6 L43.58,39 L42.73,39 L42.73,35.5 C42.73,35.1799984 42.6366676,34.9266676 42.45,34.74 C42.2633324,34.5533324 42.0066683,34.46 41.68,34.46 C41.4199987,34.46 41.1950009,34.4999996 41.005,34.58 C40.814999,34.6600004 40.6566673,34.7733326 40.53,34.92 C40.4033327,35.0666674 40.3083336,35.2383324 40.245,35.435 C40.1816663,35.6316676 40.15,35.8466655 40.15,36.08 L40.15,39 L39.3,39 L39.3,31.86 Z M49.67,39.69 C49.5699995,39.9433346 49.4716671,40.1566658 49.375,40.33 C49.2783328,40.5033342 49.1716672,40.6449995 49.055,40.755 C48.9383327,40.8650005 48.808334,40.9449998 48.665,40.995 C48.5216659,41.0450003 48.3566676,41.07 48.17,41.07 C48.0699995,41.07 47.9700005,41.0633334 47.87,41.05 C47.7699995,41.0366666 47.6733338,41.0133335 47.58,40.98 L47.58,40.2 C47.6533337,40.2333335 47.7383328,40.2616666 47.835,40.285 C47.9316671,40.3083334 48.013333,40.32 48.08,40.32 C48.2533342,40.32 48.3983327,40.2783338 48.515,40.195 C48.6316672,40.1116662 48.7199997,39.9933341 48.78,39.84 L49.13,38.97 L47.08,33.83 L48.04,33.83 L49.55,38.06 L49.57,38.06 L51.02,33.83 L51.92,33.83 L49.67,39.69 Z M53.26,36.42 C53.26,36.7333349 53.3016662,37.0116655 53.385,37.255 C53.4683337,37.4983345 53.5833326,37.7016658 53.73,37.865 C53.8766674,38.0283341 54.0483323,38.1533329 54.245,38.24 C54.4416676,38.3266671 54.6499989,38.37 54.87,38.37 C55.0900011,38.37 55.2983323,38.3266671 55.495,38.24 C55.6916676,38.1533329 55.8633326,38.0283341 56.01,37.865 C56.1566674,37.7016658 56.2716662,37.4983345 56.355,37.255 C56.4383337,37.0116655 56.48,36.7333349 56.48,36.42 C56.48,36.1066651 56.4383337,35.8283346 56.355,35.585 C56.2716662,35.3416655 56.1566674,35.1366675 56.01,34.97 C55.8633326,34.8033325 55.6916676,34.6766671 55.495,34.59 C55.2983323,34.5033329 55.0900011,34.46 54.87,34.46 C54.6499989,34.46 54.4416676,34.5033329 54.245,34.59 C54.0483323,34.6766671 53.8766674,34.8033325 53.73,34.97 C53.5833326,35.1366675 53.4683337,35.3416655 53.385,35.585 C53.3016662,35.8283346 53.26,36.1066651 53.26,36.42 Z M52.36,36.42 C52.36,36.0399981 52.4133328,35.6850017 52.52,35.355 C52.6266672,35.0249983 52.7866656,34.7383345 53,34.495 C53.2133344,34.2516654 53.4766651,34.0600007 53.79,33.92 C54.1033349,33.7799993 54.4633313,33.71 54.87,33.71 C55.2833354,33.71 55.6449984,33.7799993 55.955,33.92 C56.2650015,34.0600007 56.5266656,34.2516654 56.74,34.495 C56.9533344,34.7383345 57.1133328,35.0249983 57.22,35.355 C57.3266672,35.6850017 57.38,36.0399981 57.38,36.42 C57.38,36.8000019 57.3266672,37.1533317 57.22,37.48 C57.1133328,37.8066683 56.9533344,38.0916655 56.74,38.335 C56.5266656,38.5783346 56.2650015,38.7683326 55.955,38.905 C55.6449984,39.0416673 55.2833354,39.11 54.87,39.11 C54.4633313,39.11 54.1033349,39.0416673 53.79,38.905 C53.4766651,38.7683326 53.2133344,38.5783346 53,38.335 C52.7866656,38.0916655 52.6266672,37.8066683 52.52,37.48 C52.4133328,37.1533317 52.36,36.8000019 52.36,36.42 Z M62.66,39 L61.86,39 L61.86,38.18 L61.84,38.18 C61.6599991,38.5000016 61.4300014,38.7349993 61.15,38.885 C60.8699986,39.0350008 60.5400019,39.11 60.16,39.11 C59.8199983,39.11 59.5366678,39.0650004 59.31,38.975 C59.0833322,38.8849996 58.9000007,38.7566675 58.76,38.59 C58.6199993,38.4233325 58.5216669,38.2250011 58.465,37.995 C58.408333,37.7649988 58.38,37.5100014 58.38,37.23 L58.38,33.83 L59.23,33.83 L59.23,37.33 C59.23,37.6500016 59.3233324,37.9033324 59.51,38.09 C59.6966676,38.2766676 59.9533317,38.37 60.28,38.37 C60.5400013,38.37 60.7649991,38.3300004 60.955,38.25 C61.1450009,38.1699996 61.3033327,38.0566674 61.43,37.91 C61.5566673,37.7633326 61.6516663,37.5916676 61.715,37.395 C61.7783336,37.1983324 61.81,36.9833345 61.81,36.75 L61.81,33.83 L62.66,33.83 L62.66,39 Z M63.91,33.83 L64.71,33.83 L64.71,34.92 L64.73,34.92 C64.9366677,34.4999979 65.1899985,34.190001 65.49,33.99 C65.7900015,33.789999 66.1699977,33.6966666 66.63,33.71 L66.63,34.61 C66.2899983,34.61 66.0000012,34.6566662 65.76,34.75 C65.5199988,34.8433338 65.3266674,34.9799991 65.18,35.16 C65.0333326,35.3400009 64.926667,35.558332 64.86,35.815 C64.793333,36.0716679 64.76,36.366665 64.76,36.7 L64.76,39 L63.91,39 L63.91,33.83 Z M70.4,34.58 L69.53,34.58 L69.53,33.83 L70.4,33.83 L70.4,33.06 C70.4,32.6399979 70.5216655,32.3216678 70.765,32.105 C71.0083346,31.8883323 71.363331,31.78 71.83,31.78 C71.9100004,31.78 72.0016662,31.7866666 72.105,31.8 C72.2083338,31.8133334 72.2999996,31.8333332 72.38,31.86 L72.38,32.6 C72.3066663,32.5733332 72.2266671,32.555 72.14,32.545 C72.0533329,32.5349999 71.9733337,32.53 71.9,32.53 C71.6933323,32.53 71.5333339,32.5699996 71.42,32.65 C71.3066661,32.7300004 71.25,32.8833322 71.25,33.11 L71.25,33.83 L72.25,33.83 L72.25,34.58 L71.25,34.58 L71.25,39 L70.4,39 L70.4,34.58 Z M77.59,38.98 C77.4433326,39.0666671 77.2400013,39.11 76.98,39.11 C76.7599989,39.11 76.5850006,39.0483339 76.455,38.925 C76.3249993,38.8016661 76.26,38.6000014 76.26,38.32 C76.0266655,38.6000014 75.7550015,38.8016661 75.445,38.925 C75.1349984,39.0483339 74.8000018,39.11 74.44,39.11 C74.2066655,39.11 73.985001,39.0833336 73.775,39.03 C73.5649989,38.9766664 73.3833341,38.8933339 73.23,38.78 C73.0766659,38.6666661 72.9550004,38.5183342 72.865,38.335 C72.7749995,38.1516657 72.73,37.9300013 72.73,37.67 C72.73,37.3766652 72.7799995,37.1366676 72.88,36.95 C72.9800005,36.7633324 73.1116658,36.6116672 73.275,36.495 C73.4383341,36.3783327 73.6249989,36.2900003 73.835,36.23 C74.045001,36.1699997 74.2599989,36.1200002 74.48,36.08 C74.7133345,36.0333331 74.9349989,35.9983334 75.145,35.975 C75.355001,35.9516665 75.5399992,35.9183335 75.7,35.875 C75.8600008,35.8316665 75.9866662,35.7683337 76.08,35.685 C76.1733338,35.6016663 76.22,35.4800008 76.22,35.32 C76.22,35.1333324 76.1850003,34.9833339 76.115,34.87 C76.0449996,34.7566661 75.9550005,34.6700003 75.845,34.61 C75.7349994,34.5499997 75.6116673,34.5100001 75.475,34.49 C75.3383326,34.4699999 75.203334,34.46 75.07,34.46 C74.7099982,34.46 74.4100012,34.5283326 74.17,34.665 C73.9299988,34.8016674 73.8000001,35.0599981 73.78,35.44 L72.93,35.44 C72.9433334,35.1199984 73.0099994,34.8500011 73.13,34.63 C73.2500006,34.4099989 73.409999,34.2316674 73.61,34.095 C73.810001,33.9583327 74.038332,33.8600003 74.295,33.8 C74.5516679,33.7399997 74.8266652,33.71 75.12,33.71 C75.3533345,33.71 75.5849988,33.7266665 75.815,33.76 C76.0450011,33.7933335 76.2533324,33.8616661 76.44,33.965 C76.6266676,34.0683339 76.7766661,34.2133324 76.89,34.4 C77.0033339,34.5866676 77.06,34.8299985 77.06,35.13 L77.06,37.79 C77.06,37.990001 77.0716665,38.1366662 77.095,38.23 C77.1183334,38.3233338 77.196666,38.37 77.33,38.37 C77.4033337,38.37 77.4899995,38.3533335 77.59,38.32 L77.59,38.98 Z M76.21,36.33 C76.1033328,36.4100004 75.9633342,36.4683331 75.79,36.505 C75.6166658,36.5416668 75.435001,36.5716666 75.245,36.595 C75.0549991,36.6183335 74.8633343,36.6449998 74.67,36.675 C74.4766657,36.7050002 74.3033341,36.753333 74.15,36.82 C73.9966659,36.886667 73.8716671,36.9816661 73.775,37.105 C73.6783329,37.2283339 73.63,37.3966656 73.63,37.61 C73.63,37.7500007 73.6583331,37.8683329 73.715,37.965 C73.771667,38.0616671 73.8449996,38.1399997 73.935,38.2 C74.0250005,38.2600003 74.1299994,38.3033332 74.25,38.33 C74.3700006,38.3566668 74.496666,38.37 74.63,38.37 C74.9100014,38.37 75.149999,38.3316671 75.35,38.255 C75.550001,38.1783329 75.7133327,38.0816672 75.84,37.965 C75.9666673,37.8483327 76.0599997,37.7216674 76.12,37.585 C76.1800003,37.4483326 76.21,37.3200006 76.21,37.2 L76.21,36.33 Z M80.71,39 L79.8,39 L77.88,33.83 L78.83,33.83 L80.28,38.14 L80.3,38.14 L81.71,33.83 L82.6,33.83 L80.71,39 Z M84,36.42 C84,36.7333349 84.0416662,37.0116655 84.125,37.255 C84.2083338,37.4983345 84.3233326,37.7016658 84.47,37.865 C84.6166674,38.0283341 84.7883323,38.1533329 84.985,38.24 C85.1816677,38.3266671 85.3899989,38.37 85.61,38.37 C85.8300011,38.37 86.0383323,38.3266671 86.235,38.24 C86.4316677,38.1533329 86.6033326,38.0283341 86.75,37.865 C86.8966674,37.7016658 87.0116662,37.4983345 87.095,37.255 C87.1783338,37.0116655 87.22,36.7333349 87.22,36.42 C87.22,36.1066651 87.1783338,35.8283346 87.095,35.585 C87.0116662,35.3416655 86.8966674,35.1366675 86.75,34.97 C86.6033326,34.8033325 86.4316677,34.6766671 86.235,34.59 C86.0383323,34.5033329 85.8300011,34.46 85.61,34.46 C85.3899989,34.46 85.1816677,34.5033329 84.985,34.59 C84.7883323,34.6766671 84.6166674,34.8033325 84.47,34.97 C84.3233326,35.1366675 84.2083338,35.3416655 84.125,35.585 C84.0416662,35.8283346 84,36.1066651 84,36.42 Z M83.1,36.42 C83.1,36.0399981 83.1533328,35.6850017 83.26,35.355 C83.3666672,35.0249983 83.5266656,34.7383345 83.74,34.495 C83.9533344,34.2516654 84.2166651,34.0600007 84.53,33.92 C84.8433349,33.7799993 85.2033313,33.71 85.61,33.71 C86.0233354,33.71 86.3849984,33.7799993 86.695,33.92 C87.0050016,34.0600007 87.2666656,34.2516654 87.48,34.495 C87.6933344,34.7383345 87.8533328,35.0249983 87.96,35.355 C88.0666672,35.6850017 88.12,36.0399981 88.12,36.42 C88.12,36.8000019 88.0666672,37.1533317 87.96,37.48 C87.8533328,37.8066683 87.6933344,38.0916655 87.48,38.335 C87.2666656,38.5783346 87.0050016,38.7683326 86.695,38.905 C86.3849984,39.0416673 86.0233354,39.11 85.61,39.11 C85.2033313,39.11 84.8433349,39.0416673 84.53,38.905 C84.2166651,38.7683326 83.9533344,38.5783346 83.74,38.335 C83.5266656,38.0916655 83.3666672,37.8066683 83.26,37.48 C83.1533328,37.1533317 83.1,36.8000019 83.1,36.42 Z M93.4,39 L92.6,39 L92.6,38.18 L92.58,38.18 C92.3999991,38.5000016 92.1700014,38.7349993 91.89,38.885 C91.6099986,39.0350008 91.2800019,39.11 90.9,39.11 C90.5599983,39.11 90.2766678,39.0650004 90.05,38.975 C89.8233322,38.8849996 89.6400007,38.7566675 89.5,38.59 C89.3599993,38.4233325 89.2616669,38.2250011 89.205,37.995 C89.148333,37.7649988 89.12,37.5100014 89.12,37.23 L89.12,33.83 L89.97,33.83 L89.97,37.33 C89.97,37.6500016 90.0633324,37.9033324 90.25,38.09 C90.4366676,38.2766676 90.6933317,38.37 91.02,38.37 C91.2800013,38.37 91.504999,38.3300004 91.695,38.25 C91.8850009,38.1699996 92.0433327,38.0566674 92.17,37.91 C92.2966673,37.7633326 92.3916663,37.5916676 92.455,37.395 C92.5183336,37.1983324 92.55,36.9833345 92.55,36.75 L92.55,33.83 L93.4,33.83 L93.4,39 Z M94.65,33.83 L95.45,33.83 L95.45,34.92 L95.47,34.92 C95.6766677,34.4999979 95.9299985,34.190001 96.23,33.99 C96.5300015,33.789999 96.9099977,33.6966666 97.37,33.71 L97.37,34.61 C97.0299983,34.61 96.7400012,34.6566662 96.5,34.75 C96.2599988,34.8433338 96.0666674,34.9799991 95.92,35.16 C95.7733326,35.3400009 95.666667,35.558332 95.6,35.815 C95.533333,36.0716679 95.5,36.366665 95.5,36.7 L95.5,39 L94.65,39 L94.65,33.83 Z M98.91,32.9 L98.06,32.9 L98.06,31.86 L98.91,31.86 L98.91,32.9 Z M98.06,33.83 L98.91,33.83 L98.91,39 L98.06,39 L98.06,33.83 Z M101.41,33.83 L102.44,33.83 L102.44,34.58 L101.41,34.58 L101.41,37.79 C101.41,37.8900005 101.418333,37.9699997 101.435,38.03 C101.451667,38.0900003 101.483333,38.1366665 101.53,38.17 C101.576667,38.2033335 101.641666,38.2249999 101.725,38.235 C101.808334,38.2450001 101.916666,38.25 102.05,38.25 L102.44,38.25 L102.44,39 L101.79,39 C101.569999,39 101.381667,38.9850002 101.225,38.955 C101.068333,38.9249998 100.941667,38.8700004 100.845,38.79 C100.748333,38.7099996 100.676667,38.5966674 100.63,38.45 C100.583333,38.3033326 100.56,38.1100012 100.56,37.87 L100.56,34.58 L99.68,34.58 L99.68,33.83 L100.56,33.83 L100.56,32.28 L101.41,32.28 L101.41,33.83 Z M106.97,35.92 C106.956667,35.719999 106.911667,35.5300009 106.835,35.35 C106.758333,35.1699991 106.655001,35.0150006 106.525,34.885 C106.394999,34.7549993 106.241668,34.6516671 106.065,34.575 C105.888332,34.4983329 105.693334,34.46 105.48,34.46 C105.259999,34.46 105.061668,34.4983329 104.885,34.575 C104.708332,34.6516671 104.556667,34.756666 104.43,34.89 C104.303333,35.023334 104.203334,35.1783324 104.13,35.355 C104.056666,35.5316676 104.013333,35.719999 104,35.92 L106.97,35.92 Z M107.79,37.36 C107.676666,37.9400029 107.426669,38.3766652 107.04,38.67 C106.653331,38.9633348 106.16667,39.11 105.58,39.11 C105.166665,39.11 104.808335,39.043334 104.505,38.91 C104.201665,38.776666 103.946668,38.5900012 103.74,38.35 C103.533332,38.1099988 103.378334,37.823335 103.275,37.49 C103.171666,37.156665 103.113333,36.7933353 103.1,36.4 C103.1,36.0066647 103.159999,35.6466683 103.28,35.32 C103.400001,34.9933317 103.568332,34.7100012 103.785,34.47 C104.001668,34.2299988 104.258332,34.043334 104.555,33.91 C104.851668,33.776666 105.176665,33.71 105.53,33.71 C105.990002,33.71 106.371665,33.804999 106.675,33.995 C106.978335,34.185001 107.221666,34.4266652 107.405,34.72 C107.588334,35.0133348 107.715,35.3333316 107.785,35.68 C107.855,36.0266684 107.883333,36.3566651 107.87,36.67 L104,36.67 C103.993333,36.8966678 104.02,37.1116656 104.08,37.315 C104.14,37.5183344 104.236666,37.6983326 104.37,37.855 C104.503334,38.0116675 104.673332,38.1366662 104.88,38.23 C105.086668,38.3233338 105.329999,38.37 105.61,38.37 C105.970002,38.37 106.264999,38.2866675 106.495,38.12 C106.725001,37.9533325 106.876666,37.7000017 106.95,37.36 L107.79,37.36 Z M115.04,35.49 C114.973333,35.1633317 114.833334,34.9100009 114.62,34.73 C114.406666,34.5499991 114.120002,34.46 113.76,34.46 C113.453332,34.46 113.196668,34.5166661 112.99,34.63 C112.783332,34.7433339 112.618334,34.8933324 112.495,35.08 C112.371666,35.2666676 112.283334,35.4816655 112.23,35.725 C112.176666,35.9683346 112.15,36.2199987 112.15,36.48 C112.15,36.7200012 112.178333,36.9533322 112.235,37.18 C112.291667,37.4066678 112.379999,37.6083324 112.5,37.785 C112.620001,37.9616676 112.776666,38.1033328 112.97,38.21 C113.163334,38.3166672 113.393332,38.37 113.66,38.37 C114.080002,38.37 114.408332,38.2600011 114.645,38.04 C114.881668,37.8199989 115.026666,37.510002 115.08,37.11 L115.95,37.11 C115.856666,37.7500032 115.618335,38.2433316 115.235,38.59 C114.851665,38.9366684 114.330003,39.11 113.67,39.11 C113.276665,39.11 112.928335,39.0466673 112.625,38.92 C112.321665,38.7933327 112.068334,38.6133345 111.865,38.38 C111.661666,38.1466655 111.508334,37.868335 111.405,37.545 C111.301666,37.221665 111.25,36.8666686 111.25,36.48 C111.25,36.0933314 111.299999,35.7316683 111.4,35.395 C111.5,35.0583316 111.651666,34.7650012 111.855,34.515 C112.058334,34.2649988 112.313332,34.068334 112.62,33.925 C112.926668,33.7816659 113.283331,33.71 113.69,33.71 C113.983335,33.71 114.258332,33.7449996 114.515,33.815 C114.771668,33.8850003 114.998332,33.9933326 115.195,34.14 C115.391668,34.2866674 115.553333,34.4716655 115.68,34.695 C115.806667,34.9183345 115.886666,35.1833318 115.92,35.49 L115.04,35.49 Z M117.52,36.42 C117.52,36.7333349 117.561666,37.0116655 117.645,37.255 C117.728334,37.4983345 117.843333,37.7016658 117.99,37.865 C118.136667,38.0283341 118.308332,38.1533329 118.505,38.24 C118.701668,38.3266671 118.909999,38.37 119.13,38.37 C119.350001,38.37 119.558332,38.3266671 119.755,38.24 C119.951668,38.1533329 120.123333,38.0283341 120.27,37.865 C120.416667,37.7016658 120.531666,37.4983345 120.615,37.255 C120.698334,37.0116655 120.74,36.7333349 120.74,36.42 C120.74,36.1066651 120.698334,35.8283346 120.615,35.585 C120.531666,35.3416655 120.416667,35.1366675 120.27,34.97 C120.123333,34.8033325 119.951668,34.6766671 119.755,34.59 C119.558332,34.5033329 119.350001,34.46 119.13,34.46 C118.909999,34.46 118.701668,34.5033329 118.505,34.59 C118.308332,34.6766671 118.136667,34.8033325 117.99,34.97 C117.843333,35.1366675 117.728334,35.3416655 117.645,35.585 C117.561666,35.8283346 117.52,36.1066651 117.52,36.42 Z M116.62,36.42 C116.62,36.0399981 116.673333,35.6850017 116.78,35.355 C116.886667,35.0249983 117.046666,34.7383345 117.26,34.495 C117.473334,34.2516654 117.736665,34.0600007 118.05,33.92 C118.363335,33.7799993 118.723331,33.71 119.13,33.71 C119.543335,33.71 119.904998,33.7799993 120.215,33.92 C120.525002,34.0600007 120.786666,34.2516654 121,34.495 C121.213334,34.7383345 121.373333,35.0249983 121.48,35.355 C121.586667,35.6850017 121.64,36.0399981 121.64,36.42 C121.64,36.8000019 121.586667,37.1533317 121.48,37.48 C121.373333,37.8066683 121.213334,38.0916655 121,38.335 C120.786666,38.5783346 120.525002,38.7683326 120.215,38.905 C119.904998,39.0416673 119.543335,39.11 119.13,39.11 C118.723331,39.11 118.363335,39.0416673 118.05,38.905 C117.736665,38.7683326 117.473334,38.5783346 117.26,38.335 C117.046666,38.0916655 116.886667,37.8066683 116.78,37.48 C116.673333,37.1533317 116.62,36.8000019 116.62,36.42 Z M122.69,31.86 L123.54,31.86 L123.54,39 L122.69,39 L122.69,31.86 Z M125.48,36.42 C125.48,36.7333349 125.521666,37.0116655 125.605,37.255 C125.688334,37.4983345 125.803333,37.7016658 125.95,37.865 C126.096667,38.0283341 126.268332,38.1533329 126.465,38.24 C126.661668,38.3266671 126.869999,38.37 127.09,38.37 C127.310001,38.37 127.518332,38.3266671 127.715,38.24 C127.911668,38.1533329 128.083333,38.0283341 128.23,37.865 C128.376667,37.7016658 128.491666,37.4983345 128.575,37.255 C128.658334,37.0116655 128.7,36.7333349 128.7,36.42 C128.7,36.1066651 128.658334,35.8283346 128.575,35.585 C128.491666,35.3416655 128.376667,35.1366675 128.23,34.97 C128.083333,34.8033325 127.911668,34.6766671 127.715,34.59 C127.518332,34.5033329 127.310001,34.46 127.09,34.46 C126.869999,34.46 126.661668,34.5033329 126.465,34.59 C126.268332,34.6766671 126.096667,34.8033325 125.95,34.97 C125.803333,35.1366675 125.688334,35.3416655 125.605,35.585 C125.521666,35.8283346 125.48,36.1066651 125.48,36.42 Z M124.58,36.42 C124.58,36.0399981 124.633333,35.6850017 124.74,35.355 C124.846667,35.0249983 125.006666,34.7383345 125.22,34.495 C125.433334,34.2516654 125.696665,34.0600007 126.01,33.92 C126.323335,33.7799993 126.683331,33.71 127.09,33.71 C127.503335,33.71 127.864998,33.7799993 128.175,33.92 C128.485002,34.0600007 128.746666,34.2516654 128.96,34.495 C129.173334,34.7383345 129.333333,35.0249983 129.44,35.355 C129.546667,35.6850017 129.6,36.0399981 129.6,36.42 C129.6,36.8000019 129.546667,37.1533317 129.44,37.48 C129.333333,37.8066683 129.173334,38.0916655 128.96,38.335 C128.746666,38.5783346 128.485002,38.7683326 128.175,38.905 C127.864998,39.0416673 127.503335,39.11 127.09,39.11 C126.683331,39.11 126.323335,39.0416673 126.01,38.905 C125.696665,38.7683326 125.433334,38.5783346 125.22,38.335 C125.006666,38.0916655 124.846667,37.8066683 124.74,37.48 C124.633333,37.1533317 124.58,36.8000019 124.58,36.42 Z M134.88,39 L134.08,39 L134.08,38.18 L134.06,38.18 C133.879999,38.5000016 133.650001,38.7349993 133.37,38.885 C133.089999,39.0350008 132.760002,39.11 132.38,39.11 C132.039998,39.11 131.756668,39.0650004 131.53,38.975 C131.303332,38.8849996 131.120001,38.7566675 130.98,38.59 C130.839999,38.4233325 130.741667,38.2250011 130.685,37.995 C130.628333,37.7649988 130.6,37.5100014 130.6,37.23 L130.6,33.83 L131.45,33.83 L131.45,37.33 C131.45,37.6500016 131.543332,37.9033324 131.73,38.09 C131.916668,38.2766676 132.173332,38.37 132.5,38.37 C132.760001,38.37 132.984999,38.3300004 133.175,38.25 C133.365001,38.1699996 133.523333,38.0566674 133.65,37.91 C133.776667,37.7633326 133.871666,37.5916676 133.935,37.395 C133.998334,37.1983324 134.03,36.9833345 134.03,36.75 L134.03,33.83 L134.88,33.83 L134.88,39 Z M136.13,33.83 L136.93,33.83 L136.93,34.92 L136.95,34.92 C137.156668,34.4999979 137.409998,34.190001 137.71,33.99 C138.010001,33.789999 138.389998,33.6966666 138.85,33.71 L138.85,34.61 C138.509998,34.61 138.220001,34.6566662 137.98,34.75 C137.739999,34.8433338 137.546667,34.9799991 137.4,35.16 C137.253333,35.3400009 137.146667,35.558332 137.08,35.815 C137.013333,36.0716679 136.98,36.366665 136.98,36.7 L136.98,39 L136.13,39 L136.13,33.83 Z M140.01,37.37 C140.016667,37.5566676 140.06,37.7149993 140.14,37.845 C140.22,37.9750006 140.324999,38.078333 140.455,38.155 C140.585001,38.231667 140.731666,38.2866665 140.895,38.32 C141.058334,38.3533335 141.226666,38.37 141.4,38.37 C141.533334,38.37 141.673333,38.3600001 141.82,38.34 C141.966667,38.3199999 142.101666,38.2833336 142.225,38.23 C142.348334,38.1766664 142.45,38.0983339 142.53,37.995 C142.61,37.8916661 142.65,37.7600008 142.65,37.6 C142.65,37.3799989 142.566667,37.2133339 142.4,37.1 C142.233332,36.9866661 142.025001,36.8950003 141.775,36.825 C141.524999,36.7549997 141.253335,36.6916669 140.96,36.635 C140.666665,36.578333 140.395001,36.4983339 140.145,36.395 C139.894999,36.2916661 139.686667,36.1466676 139.52,35.96 C139.353332,35.7733324 139.27,35.513335 139.27,35.18 C139.27,34.9199987 139.328333,34.6966676 139.445,34.51 C139.561667,34.3233324 139.711666,34.1716672 139.895,34.055 C140.078334,33.9383328 140.284999,33.851667 140.515,33.795 C140.745001,33.7383331 140.973332,33.71 141.2,33.71 C141.493335,33.71 141.763332,33.7349998 142.01,33.785 C142.256668,33.8350003 142.474999,33.921666 142.665,34.045 C142.855001,34.1683339 143.006666,34.3349989 143.12,34.545 C143.233334,34.755001 143.3,35.0166651 143.32,35.33 L142.47,35.33 C142.456667,35.1633325 142.413334,35.0250006 142.34,34.915 C142.266666,34.8049994 142.173334,34.716667 142.06,34.65 C141.946666,34.583333 141.821667,34.5350002 141.685,34.505 C141.548333,34.4749999 141.410001,34.46 141.27,34.46 C141.143333,34.46 141.015001,34.4699999 140.885,34.49 C140.754999,34.5100001 140.636667,34.5449998 140.53,34.595 C140.423333,34.6450002 140.336667,34.7116663 140.27,34.795 C140.203333,34.8783337 140.17,34.986666 140.17,35.12 C140.17,35.2666674 140.221666,35.3883328 140.325,35.485 C140.428334,35.5816672 140.559999,35.6616663 140.72,35.725 C140.880001,35.7883336 141.059999,35.8416664 141.26,35.885 C141.460001,35.9283335 141.659999,35.9733331 141.86,36.02 C142.073334,36.0666669 142.281666,36.123333 142.485,36.19 C142.688334,36.256667 142.868333,36.3449995 143.025,36.455 C143.181667,36.5650006 143.308333,36.7033325 143.405,36.87 C143.501667,37.0366675 143.55,37.2433321 143.55,37.49 C143.55,37.8033349 143.485001,38.0633323 143.355,38.27 C143.224999,38.4766677 143.055001,38.6433327 142.845,38.77 C142.634999,38.8966673 142.398335,38.9849998 142.135,39.035 C141.871665,39.0850003 141.610001,39.11 141.35,39.11 C141.063332,39.11 140.790001,39.0800003 140.53,39.02 C140.269999,38.9599997 140.040001,38.8616674 139.84,38.725 C139.639999,38.5883326 139.480001,38.4083344 139.36,38.185 C139.239999,37.9616655 139.173333,37.6900016 139.16,37.37 L140.01,37.37 Z" id="Paintwithyourfavouritecolours"></path>
                            <path d="M50.9795,10.574 L53.0535,10.574 C53.3595015,10.574 53.6541652,10.5513336 53.9375,10.506 C54.2208348,10.4606664 54.4701656,10.372834 54.6855,10.2425 C54.9008344,10.112166 55.073666,9.92800119 55.204,9.69 C55.334334,9.45199881 55.3995,9.14033526 55.3995,8.755 C55.3995,8.36966474 55.334334,8.05800119 55.204,7.82 C55.073666,7.58199881 54.9008344,7.39783399 54.6855,7.2675 C54.4701656,7.13716602 54.2208348,7.04933356 53.9375,7.004 C53.6541652,6.95866644 53.3595015,6.936 53.0535,6.936 L50.9795,6.936 L50.9795,10.574 Z M48.3105,4.862 L53.7845,4.862 C54.5438371,4.862 55.1898307,4.97249889 55.7225,5.1935 C56.2551693,5.4145011 56.688665,5.70633152 57.023,6.069 C57.357335,6.43166848 57.6009992,6.84533101 57.754,7.31 C57.9070008,7.77466899 57.9835,8.25633084 57.9835,8.755 C57.9835,9.24233577 57.9070008,9.72116431 57.754,10.1915 C57.6009992,10.6618357 57.357335,11.0783315 57.023,11.441 C56.688665,11.8036685 56.2551693,12.0954989 55.7225,12.3165 C55.1898307,12.5375011 54.5438371,12.648 53.7845,12.648 L50.9795,12.648 L50.9795,17 L48.3105,17 L48.3105,4.862 Z M61.4515,12.308 L64.5965,12.308 L63.0665,7.854 L63.0325,7.854 L61.4515,12.308 Z M61.7065,4.862 L64.4435,4.862 L68.9825,17 L66.2115,17 L65.2935,14.297 L60.7545,14.297 L59.8025,17 L57.1165,17 L61.7065,4.862 Z M70.0365,4.862 L72.7055,4.862 L72.7055,17 L70.0365,17 L70.0365,4.862 Z M75.0515,4.862 L77.7035,4.862 L82.7695,13.005 L82.8035,13.005 L82.8035,4.862 L85.3025,4.862 L85.3025,17 L82.6335,17 L77.5845,8.874 L77.5505,8.874 L77.5505,17 L75.0515,17 L75.0515,4.862 Z M90.3345,7.106 L86.6965,7.106 L86.6965,4.862 L96.6415,4.862 L96.6415,7.106 L93.0035,7.106 L93.0035,17 L90.3345,17 L90.3345,7.106 Z" id="PAINT"></path>
                        </g>
                    </g>
                </g>
            </g>
        </g>
    </g>
</svg>