<?xml version="1.0" encoding="UTF-8"?>
<svg width="170px" height="55px" viewBox="0 0 170 55" version="1.1" xmlns="http://www.w3.org/2000/svg" xmlns:xlink="http://www.w3.org/1999/xlink">
    <!-- Generator: Sketch 54.1 (76490) - https://sketchapp.com -->
    <title>Pic_Text_Press_EN_IOS</title>
    <desc>Created with Sketch.</desc>
    <g id="页面1" stroke="none" stroke-width="1" fill="none" fill-rule="evenodd">
        <g id="C-01&gt;Make-Graphic&gt;EN" transform="translate(-12.000000, -258.000000)">
            <g id="Content" transform="translate(12.000000, 64.000000)">
                <g id="01_PICTURE">
                    <g id="Pic_Text_Press_EN_IOS" transform="translate(0.000000, 194.000000)">
                        <g>
                            <rect id="矩形" fill-opacity="0.01" fill="#FFFFFF" x="0" y="0" width="170" height="55"></rect>
                            <path d="M51.2295,10.574 L53.3035,10.574 C53.6095015,10.574 53.9041653,10.5513336 54.1875,10.506 C54.4708348,10.4606664 54.7201656,10.372834 54.9355,10.2425 C55.1508344,10.112166 55.323666,9.92800119 55.454,9.69 C55.584334,9.45199881 55.6495,9.14033526 55.6495,8.755 C55.6495,8.36966474 55.584334,8.05800119 55.454,7.82 C55.323666,7.58199881 55.1508344,7.39783398 54.9355,7.2675 C54.7201656,7.13716601 54.4708348,7.04933356 54.1875,7.004 C53.9041653,6.95866644 53.6095015,6.936 53.3035,6.936 L51.2295,6.936 L51.2295,10.574 Z M48.5605,4.862 L54.0345,4.862 C54.7938371,4.862 55.4398307,4.97249889 55.9725,5.1935 C56.5051693,5.4145011 56.938665,5.70633152 57.273,6.069 C57.607335,6.43166848 57.8509992,6.84533101 58.004,7.31 C58.1570008,7.77466899 58.2335,8.25633084 58.2335,8.755 C58.2335,9.24233577 58.1570008,9.72116431 58.004,10.1915 C57.8509992,10.6618357 57.607335,11.0783315 57.273,11.441 C56.938665,11.8036685 56.5051693,12.0954989 55.9725,12.3165 C55.4398307,12.5375011 54.7938371,12.648 54.0345,12.648 L51.2295,12.648 L51.2295,17 L48.5605,17 L48.5605,4.862 Z M59.8995,4.862 L62.5685,4.862 L62.5685,17 L59.8995,17 L59.8995,4.862 Z M73.0065,8.942 C72.9611664,8.63599847 72.8591675,8.35550127 72.7005,8.1005 C72.5418325,7.84549872 72.3435012,7.62166763 72.1055,7.429 C71.8674988,7.23633237 71.5983348,7.0861672 71.298,6.9785 C70.9976652,6.87083279 70.6831683,6.817 70.3545,6.817 C69.7538303,6.817 69.2438354,6.9331655 68.8245,7.1655 C68.4051646,7.39783449 68.065168,7.70949804 67.8045,8.1005 C67.543832,8.49150195 67.3540006,8.93633084 67.235,9.435 C67.1159994,9.93366916 67.0565,10.4493307 67.0565,10.982 C67.0565,11.4920025 67.1159994,11.9878309 67.235,12.4695 C67.3540006,12.9511691 67.543832,13.3846647 67.8045,13.77 C68.065168,14.1553353 68.4051646,14.4641655 68.8245,14.6965 C69.2438354,14.9288345 69.7538303,15.045 70.3545,15.045 C71.1705041,15.045 71.8079977,14.7956692 72.267,14.297 C72.7260023,13.7983308 73.0064995,13.1410041 73.1085,12.325 L75.6925,12.325 C75.6244997,13.0843371 75.4488348,13.7699969 75.1655,14.382 C74.8821653,14.9940031 74.508169,15.5153312 74.0435,15.946 C73.578831,16.3766688 73.0348365,16.7053322 72.4115,16.932 C71.7881636,17.1586678 71.1025037,17.272 70.3545,17.272 C69.425162,17.272 68.589337,17.1105016 67.847,16.7875 C67.104663,16.4644984 66.4785026,16.0196695 65.9685,15.453 C65.4584975,14.8863305 65.0675014,14.2205038 64.7955,13.4555 C64.5234986,12.6904962 64.3875,11.8660044 64.3875,10.982 C64.3875,10.0753288 64.5234986,9.23383721 64.7955,8.4575 C65.0675014,7.68116278 65.4584975,7.00400289 65.9685,6.426 C66.4785026,5.84799711 67.104663,5.39466831 67.847,5.066 C68.589337,4.73733169 69.425162,4.573 70.3545,4.573 C71.02317,4.573 71.654997,4.66933237 72.25,4.862 C72.845003,5.05466763 73.3776643,5.33516482 73.848,5.7035 C74.3183357,6.07183517 74.7064985,6.52799728 75.0125,7.072 C75.3185015,7.61600272 75.5111663,8.23932982 75.5905,8.942 L73.0065,8.942 Z M80.1975,7.106 L76.5595,7.106 L76.5595,4.862 L86.5045,4.862 L86.5045,7.106 L82.8665,7.106 L82.8665,17 L80.1975,17 L80.1975,7.106 Z M98.2005,12.41 C98.2005,14.0533415 97.7415046,15.274496 96.8235,16.0735 C95.9054954,16.872504 94.6361748,17.272 93.0155,17.272 C91.3721585,17.272 90.1000045,16.8753373 89.199,16.082 C88.2979955,15.2886627 87.8475,14.0646749 87.8475,12.41 L87.8475,4.862 L90.5165,4.862 L90.5165,12.41 C90.5165,12.7386683 90.5448331,13.0616651 90.6015,13.379 C90.658167,13.6963349 90.7771658,13.9768321 90.9585,14.2205 C91.1398342,14.4641679 91.3919984,14.6624992 91.715,14.8155 C92.0380016,14.9685008 92.4714973,15.045 93.0155,15.045 C93.9675048,15.045 94.6248315,14.8325021 94.9875,14.4075 C95.3501685,13.9824979 95.5315,13.3166712 95.5315,12.41 L95.5315,4.862 L98.2005,4.862 L98.2005,12.41 Z M103.1645,10.353 L106.0885,10.353 C106.700503,10.353 107.159498,10.2170014 107.4655,9.945 C107.771502,9.67299864 107.9245,9.23100306 107.9245,8.619 C107.9245,8.02966372 107.771502,7.60183466 107.4655,7.3355 C107.159498,7.06916533 106.700503,6.936 106.0885,6.936 L103.1645,6.936 L103.1645,10.353 Z M100.4955,4.862 L107.0405,4.862 C107.584503,4.862 108.074664,4.94983245 108.511,5.1255 C108.947336,5.30116754 109.321332,5.54199847 109.633,5.848 C109.944668,6.15400153 110.182666,6.50816465 110.347,6.9105 C110.511334,7.31283534 110.5935,7.74633101 110.5935,8.211 C110.5935,8.92500357 110.443335,9.54266406 110.143,10.064 C109.842665,10.5853359 109.352503,10.9819986 108.6725,11.254 L108.6725,11.288 C109.001168,11.3786671 109.273166,11.5174991 109.4885,11.7045 C109.703834,11.8915009 109.879499,12.1124987 110.0155,12.3675 C110.151501,12.6225013 110.250666,12.9029985 110.313,13.209 C110.375334,13.5150015 110.417833,13.8209985 110.4405,14.127 C110.451833,14.3196676 110.463167,14.546332 110.4745,14.807 C110.485833,15.067668 110.505667,15.3339986 110.534,15.606 C110.562333,15.8780014 110.607666,16.1358321 110.67,16.3795 C110.732334,16.6231679 110.825833,16.8299991 110.9505,17 L108.2815,17 C108.134166,16.6146647 108.0435,16.1556693 108.0095,15.623 C107.9755,15.0903307 107.9245,14.5803358 107.8565,14.093 C107.765833,13.4583302 107.573168,12.9936681 107.2785,12.699 C106.983832,12.4043319 106.50217,12.257 105.8335,12.257 L103.1645,12.257 L103.1645,17 L100.4955,17 L100.4955,4.862 Z M112.7695,4.862 L121.8475,4.862 L121.8475,7.106 L115.4385,7.106 L115.4385,9.707 L121.3205,9.707 L121.3205,11.781 L115.4385,11.781 L115.4385,14.756 L121.9835,14.756 L121.9835,17 L112.7695,17 L112.7695,4.862 Z" id="PICTURE" fill="#6A6A6A" fill-rule="nonzero"></path>
                            <path d="M45.645,36.42 C45.645,37.3333379 45.4016691,38.0183311 44.915,38.475 C44.4283309,38.931669 43.7350045,39.16 42.835,39.16 C41.9149954,39.16 41.1966692,38.9416689 40.68,38.505 C40.1633307,38.0683312 39.905,37.3733381 39.905,36.42 L39.905,31.86 L40.855,31.86 L40.855,36.42 C40.855,37.0600032 41.0249983,37.5449984 41.365,37.875 C41.7050017,38.2050017 42.1949968,38.37 42.835,38.37 C43.4416697,38.37 43.9033317,38.2050017 44.22,37.875 C44.5366682,37.5449984 44.695,37.0600032 44.695,36.42 L44.695,31.86 L45.645,31.86 L45.645,36.42 Z M47.545,37.37 C47.5516667,37.5566676 47.5949996,37.7149994 47.675,37.845 C47.7550004,37.9750007 47.8599993,38.078333 47.99,38.155 C48.1200006,38.2316671 48.2666658,38.2866665 48.43,38.32 C48.5933341,38.3533335 48.7616658,38.37 48.935,38.37 C49.068334,38.37 49.2083326,38.3600001 49.355,38.34 C49.5016674,38.3199999 49.636666,38.2833336 49.76,38.23 C49.8833339,38.1766664 49.9849996,38.0983339 50.065,37.995 C50.1450004,37.8916662 50.185,37.7600008 50.185,37.6 C50.185,37.3799989 50.1016675,37.2133339 49.935,37.1 C49.7683325,36.9866661 49.5600012,36.8950004 49.31,36.825 C49.0599987,36.7549997 48.7883348,36.691667 48.495,36.635 C48.2016652,36.5783331 47.9300012,36.4983339 47.68,36.395 C47.4299987,36.2916662 47.2216675,36.1466676 47.055,35.96 C46.8883325,35.7733324 46.805,35.513335 46.805,35.18 C46.805,34.9199987 46.8633327,34.6966676 46.98,34.51 C47.0966672,34.3233324 47.2466657,34.1716673 47.43,34.055 C47.6133342,33.9383328 47.8199988,33.851667 48.05,33.795 C48.2800011,33.7383331 48.5083322,33.71 48.735,33.71 C49.0283348,33.71 49.2983321,33.7349998 49.545,33.785 C49.7916679,33.8350003 50.009999,33.9216661 50.2,34.045 C50.3900009,34.168334 50.5416661,34.334999 50.655,34.545 C50.7683339,34.7550011 50.8349999,35.0166651 50.855,35.33 L50.005,35.33 C49.9916666,35.1633325 49.9483337,35.0250006 49.875,34.915 C49.8016663,34.8049995 49.7083339,34.716667 49.595,34.65 C49.4816661,34.583333 49.3566673,34.5350002 49.22,34.505 C49.0833326,34.4749999 48.9450007,34.46 48.805,34.46 C48.6783327,34.46 48.5500006,34.4699999 48.42,34.49 C48.2899993,34.5100001 48.1716672,34.5449998 48.065,34.595 C47.9583328,34.6450003 47.871667,34.7116663 47.805,34.795 C47.738333,34.8783338 47.705,34.986666 47.705,35.12 C47.705,35.2666674 47.7566661,35.3883329 47.86,35.485 C47.9633338,35.5816672 48.0949992,35.6616664 48.255,35.725 C48.4150008,35.7883337 48.594999,35.8416665 48.795,35.885 C48.995001,35.9283336 49.194999,35.9733331 49.395,36.02 C49.6083344,36.0666669 49.8166656,36.123333 50.02,36.19 C50.2233343,36.256667 50.4033325,36.3449995 50.56,36.455 C50.7166674,36.5650006 50.8433328,36.7033325 50.94,36.87 C51.0366671,37.0366675 51.085,37.2433321 51.085,37.49 C51.085,37.8033349 51.0200006,38.0633323 50.89,38.27 C50.7599993,38.4766677 50.590001,38.6433327 50.38,38.77 C50.1699989,38.8966673 49.9333346,38.9849998 49.67,39.035 C49.4066653,39.0850003 49.1450013,39.11 48.885,39.11 C48.5983319,39.11 48.3250013,39.0800003 48.065,39.02 C47.8049987,38.9599997 47.575001,38.8616674 47.375,38.725 C47.174999,38.5883327 47.0150006,38.4083345 46.895,38.185 C46.7749994,37.9616656 46.7083334,37.6900016 46.695,37.37 L47.545,37.37 Z M55.615,35.92 C55.6016666,35.719999 55.556667,35.5300009 55.48,35.35 C55.4033329,35.1699991 55.3000006,35.0150007 55.17,34.885 C55.0399993,34.7549994 54.8866675,34.6516671 54.71,34.575 C54.5333324,34.498333 54.3383344,34.46 54.125,34.46 C53.9049989,34.46 53.7066675,34.498333 53.53,34.575 C53.3533324,34.6516671 53.2016673,34.756666 53.075,34.89 C52.9483327,35.023334 52.8483337,35.1783325 52.775,35.355 C52.7016663,35.5316676 52.6583334,35.719999 52.645,35.92 L55.615,35.92 Z M56.435,37.36 C56.3216661,37.9400029 56.0716686,38.3766652 55.685,38.67 C55.2983314,38.9633348 54.8116696,39.11 54.225,39.11 C53.8116646,39.11 53.4533348,39.043334 53.15,38.91 C52.8466651,38.776666 52.5916677,38.5900012 52.385,38.35 C52.1783323,38.1099988 52.0233338,37.823335 51.92,37.49 C51.8166661,37.156665 51.7583334,36.7933353 51.745,36.4 C51.745,36.0066647 51.8049994,35.6466683 51.925,35.32 C52.0450006,34.9933317 52.2133322,34.7100012 52.43,34.47 C52.6466677,34.2299988 52.9033318,34.043334 53.2,33.91 C53.4966681,33.776666 53.8216649,33.71 54.175,33.71 C54.6350023,33.71 55.0166651,33.8049991 55.32,33.995 C55.6233348,34.185001 55.8666657,34.4266652 56.05,34.72 C56.2333342,35.0133348 56.3599996,35.3333316 56.43,35.68 C56.5000003,36.0266684 56.5283334,36.3566651 56.515,36.67 L52.645,36.67 C52.6383333,36.8966678 52.6649997,37.1116657 52.725,37.315 C52.7850003,37.5183344 52.881666,37.6983326 53.015,37.855 C53.148334,38.0116675 53.3183323,38.1366662 53.525,38.23 C53.7316677,38.3233338 53.9749986,38.37 54.255,38.37 C54.6150018,38.37 54.9099988,38.2866675 55.14,38.12 C55.3700011,37.9533325 55.5216663,37.7000017 55.595,37.36 L56.435,37.36 Z M62.205,39.69 C62.1049995,39.9433346 62.0066671,40.1566658 61.91,40.33 C61.8133328,40.5033342 61.7066672,40.6449995 61.59,40.755 C61.4733327,40.8650006 61.343334,40.9449998 61.2,40.995 C61.0566659,41.0450003 60.8916676,41.07 60.705,41.07 C60.6049995,41.07 60.5050005,41.0633334 60.405,41.05 C60.3049995,41.0366666 60.2083338,41.0133335 60.115,40.98 L60.115,40.2 C60.1883337,40.2333335 60.2733328,40.2616666 60.37,40.285 C60.4666671,40.3083335 60.548333,40.32 60.615,40.32 C60.7883342,40.32 60.9333327,40.2783338 61.05,40.195 C61.1666672,40.1116663 61.2549997,39.9933341 61.315,39.84 L61.665,38.97 L59.615,33.83 L60.575,33.83 L62.085,38.06 L62.105,38.06 L63.555,33.83 L64.455,33.83 L62.205,39.69 Z M65.795,36.42 C65.795,36.7333349 65.8366662,37.0116655 65.92,37.255 C66.0033337,37.4983346 66.1183326,37.7016659 66.265,37.865 C66.4116674,38.0283342 66.5833323,38.1533329 66.78,38.24 C66.9766676,38.3266671 67.1849989,38.37 67.405,38.37 C67.6250011,38.37 67.8333323,38.3266671 68.03,38.24 C68.2266676,38.1533329 68.3983326,38.0283342 68.545,37.865 C68.6916674,37.7016659 68.8066662,37.4983346 68.89,37.255 C68.9733337,37.0116655 69.015,36.7333349 69.015,36.42 C69.015,36.1066651 68.9733337,35.8283346 68.89,35.585 C68.8066662,35.3416655 68.6916674,35.1366675 68.545,34.97 C68.3983326,34.8033325 68.2266676,34.6766671 68.03,34.59 C67.8333323,34.5033329 67.6250011,34.46 67.405,34.46 C67.1849989,34.46 66.9766676,34.5033329 66.78,34.59 C66.5833323,34.6766671 66.4116674,34.8033325 66.265,34.97 C66.1183326,35.1366675 66.0033337,35.3416655 65.92,35.585 C65.8366662,35.8283346 65.795,36.1066651 65.795,36.42 Z M64.895,36.42 C64.895,36.0399981 64.9483328,35.6850017 65.055,35.355 C65.1616672,35.0249984 65.3216656,34.7383346 65.535,34.495 C65.7483344,34.2516655 66.0116651,34.0600007 66.325,33.92 C66.6383349,33.7799993 66.9983313,33.71 67.405,33.71 C67.8183354,33.71 68.1799984,33.7799993 68.49,33.92 C68.8000015,34.0600007 69.0616656,34.2516655 69.275,34.495 C69.4883344,34.7383346 69.6483328,35.0249984 69.755,35.355 C69.8616672,35.6850017 69.915,36.0399981 69.915,36.42 C69.915,36.8000019 69.8616672,37.1533317 69.755,37.48 C69.6483328,37.8066683 69.4883344,38.0916655 69.275,38.335 C69.0616656,38.5783346 68.8000015,38.7683327 68.49,38.905 C68.1799984,39.0416674 67.8183354,39.11 67.405,39.11 C66.9983313,39.11 66.6383349,39.0416674 66.325,38.905 C66.0116651,38.7683327 65.7483344,38.5783346 65.535,38.335 C65.3216656,38.0916655 65.1616672,37.8066683 65.055,37.48 C64.9483328,37.1533317 64.895,36.8000019 64.895,36.42 Z M75.195,39 L74.395,39 L74.395,38.18 L74.375,38.18 C74.1949991,38.5000016 73.9650014,38.7349993 73.685,38.885 C73.4049986,39.0350008 73.0750019,39.11 72.695,39.11 C72.3549983,39.11 72.0716678,39.0650005 71.845,38.975 C71.6183322,38.8849996 71.4350007,38.7566675 71.295,38.59 C71.1549993,38.4233325 71.0566669,38.2250012 71,37.995 C70.943333,37.7649989 70.915,37.5100014 70.915,37.23 L70.915,33.83 L71.765,33.83 L71.765,37.33 C71.765,37.6500016 71.8583324,37.9033324 72.045,38.09 C72.2316676,38.2766676 72.4883317,38.37 72.815,38.37 C73.0750013,38.37 73.299999,38.3300004 73.49,38.25 C73.6800009,38.1699996 73.8383327,38.0566674 73.965,37.91 C74.0916673,37.7633326 74.1866663,37.5916677 74.25,37.395 C74.3133336,37.1983324 74.345,36.9833345 74.345,36.75 L74.345,33.83 L75.195,33.83 L75.195,39 Z M76.445,33.83 L77.245,33.83 L77.245,34.92 L77.265,34.92 C77.4716677,34.4999979 77.7249985,34.190001 78.025,33.99 C78.3250015,33.789999 78.7049977,33.6966666 79.165,33.71 L79.165,34.61 C78.8249983,34.61 78.5350012,34.6566662 78.295,34.75 C78.0549988,34.8433338 77.8616674,34.9799991 77.715,35.16 C77.5683326,35.3400009 77.461667,35.5583321 77.395,35.815 C77.328333,36.071668 77.295,36.366665 77.295,36.7 L77.295,39 L76.445,39 L76.445,33.83 Z M83.205,36.42 C83.205,36.7333349 83.2466662,37.0116655 83.33,37.255 C83.4133337,37.4983346 83.5283326,37.7016659 83.675,37.865 C83.8216674,38.0283342 83.9933323,38.1533329 84.19,38.24 C84.3866676,38.3266671 84.5949989,38.37 84.815,38.37 C85.0350011,38.37 85.2433323,38.3266671 85.44,38.24 C85.6366676,38.1533329 85.8083326,38.0283342 85.955,37.865 C86.1016674,37.7016659 86.2166662,37.4983346 86.3,37.255 C86.3833337,37.0116655 86.425,36.7333349 86.425,36.42 C86.425,36.1066651 86.3833337,35.8283346 86.3,35.585 C86.2166662,35.3416655 86.1016674,35.1366675 85.955,34.97 C85.8083326,34.8033325 85.6366676,34.6766671 85.44,34.59 C85.2433323,34.5033329 85.0350011,34.46 84.815,34.46 C84.5949989,34.46 84.3866676,34.5033329 84.19,34.59 C83.9933323,34.6766671 83.8216674,34.8033325 83.675,34.97 C83.5283326,35.1366675 83.4133337,35.3416655 83.33,35.585 C83.2466662,35.8283346 83.205,36.1066651 83.205,36.42 Z M82.305,36.42 C82.305,36.0399981 82.3583328,35.6850017 82.465,35.355 C82.5716672,35.0249984 82.7316656,34.7383346 82.945,34.495 C83.1583344,34.2516655 83.4216651,34.0600007 83.735,33.92 C84.0483349,33.7799993 84.4083313,33.71 84.815,33.71 C85.2283354,33.71 85.5899984,33.7799993 85.9,33.92 C86.2100015,34.0600007 86.4716656,34.2516655 86.685,34.495 C86.8983344,34.7383346 87.0583328,35.0249984 87.165,35.355 C87.2716672,35.6850017 87.325,36.0399981 87.325,36.42 C87.325,36.8000019 87.2716672,37.1533317 87.165,37.48 C87.0583328,37.8066683 86.8983344,38.0916655 86.685,38.335 C86.4716656,38.5783346 86.2100015,38.7683327 85.9,38.905 C85.5899984,39.0416674 85.2283354,39.11 84.815,39.11 C84.4083313,39.11 84.0483349,39.0416674 83.735,38.905 C83.4216651,38.7683327 83.1583344,38.5783346 82.945,38.335 C82.7316656,38.0916655 82.5716672,37.8066683 82.465,37.48 C82.3583328,37.1533317 82.305,36.8000019 82.305,36.42 Z M93.445,39 L92.545,39 L91.495,34.89 L91.475,34.89 L90.435,39 L89.515,39 L87.855,33.83 L88.795,33.83 L89.965,38.06 L89.985,38.06 L91.025,33.83 L91.955,33.83 L93.035,38.06 L93.055,38.06 L94.215,33.83 L95.095,33.83 L93.445,39 Z M95.905,33.83 L96.705,33.83 L96.705,34.65 L96.725,34.65 C97.0783351,34.0233302 97.6383295,33.71 98.405,33.71 C98.7450017,33.71 99.0283322,33.7566662 99.255,33.85 C99.4816678,33.9433338 99.6649993,34.0733325 99.805,34.24 C99.9450007,34.4066675 100.043333,34.6049989 100.1,34.835 C100.156667,35.0650012 100.185,35.3199986 100.185,35.6 L100.185,39 L99.335,39 L99.335,35.5 C99.335,35.1799984 99.2416676,34.9266676 99.055,34.74 C98.8683324,34.5533324 98.6116683,34.46 98.285,34.46 C98.0249987,34.46 97.8000009,34.4999996 97.61,34.58 C97.419999,34.6600004 97.2616673,34.7733326 97.135,34.92 C97.0083327,35.0666674 96.9133336,35.2383324 96.85,35.435 C96.7866663,35.6316677 96.755,35.8466655 96.755,36.08 L96.755,39 L95.905,39 L95.905,33.83 Z M105.145,32.9 L104.295,32.9 L104.295,31.86 L105.145,31.86 L105.145,32.9 Z M104.295,33.83 L105.145,33.83 L105.145,39 L104.295,39 L104.295,33.83 Z M106.465,33.83 L107.265,33.83 L107.265,34.59 L107.285,34.59 C107.671669,34.0033304 108.22833,33.71 108.955,33.71 C109.275002,33.71 109.564999,33.776666 109.825,33.91 C110.085001,34.043334 110.268333,34.2699984 110.375,34.59 C110.548334,34.3099986 110.776665,34.0933341 111.06,33.94 C111.343335,33.7866659 111.654998,33.71 111.995,33.71 C112.255001,33.71 112.489999,33.7383331 112.7,33.795 C112.910001,33.851667 113.089999,33.9399994 113.24,34.06 C113.390001,34.1800006 113.506666,34.3349991 113.59,34.525 C113.673334,34.715001 113.715,34.943332 113.715,35.21 L113.715,39 L112.865,39 L112.865,35.61 C112.865,35.4499992 112.851667,35.3000007 112.825,35.16 C112.798333,35.0199993 112.748334,34.8983339 112.675,34.795 C112.601666,34.6916662 112.500001,34.6100003 112.37,34.55 C112.239999,34.4899997 112.071668,34.46 111.865,34.46 C111.444998,34.46 111.115001,34.5799988 110.875,34.82 C110.634999,35.0600012 110.515,35.379998 110.515,35.78 L110.515,39 L109.665,39 L109.665,35.61 C109.665,35.4433325 109.65,35.2900007 109.62,35.15 C109.59,35.0099993 109.538334,34.8883339 109.465,34.785 C109.391666,34.6816662 109.293334,34.601667 109.17,34.545 C109.046666,34.4883331 108.888334,34.46 108.695,34.46 C108.448332,34.46 108.236668,34.5099995 108.06,34.61 C107.883332,34.7100005 107.740001,34.8299993 107.63,34.97 C107.519999,35.1100007 107.44,35.2549993 107.39,35.405 C107.34,35.5550008 107.315,35.6799995 107.315,35.78 L107.315,39 L106.465,39 L106.465,33.83 Z M119.575,38.98 C119.428333,39.0666671 119.225001,39.11 118.965,39.11 C118.744999,39.11 118.570001,39.048334 118.44,38.925 C118.309999,38.8016661 118.245,38.6000014 118.245,38.32 C118.011665,38.6000014 117.740002,38.8016661 117.43,38.925 C117.119998,39.048334 116.785002,39.11 116.425,39.11 C116.191665,39.11 115.970001,39.0833336 115.76,39.03 C115.549999,38.9766664 115.368334,38.8933339 115.215,38.78 C115.061666,38.6666661 114.94,38.5183343 114.85,38.335 C114.76,38.1516658 114.715,37.9300013 114.715,37.67 C114.715,37.3766652 114.764999,37.1366676 114.865,36.95 C114.965,36.7633324 115.096666,36.6116673 115.26,36.495 C115.423334,36.3783328 115.609999,36.2900003 115.82,36.23 C116.030001,36.1699997 116.244999,36.1200002 116.465,36.08 C116.698334,36.0333331 116.919999,35.9983335 117.13,35.975 C117.340001,35.9516666 117.524999,35.9183336 117.685,35.875 C117.845001,35.8316665 117.971666,35.7683338 118.065,35.685 C118.158334,35.6016663 118.205,35.4800008 118.205,35.32 C118.205,35.1333324 118.17,34.9833339 118.1,34.87 C118.03,34.7566661 117.940001,34.6700003 117.83,34.61 C117.719999,34.5499997 117.596667,34.5100001 117.46,34.49 C117.323333,34.4699999 117.188334,34.46 117.055,34.46 C116.694998,34.46 116.395001,34.5283327 116.155,34.665 C115.914999,34.8016674 115.785,35.0599981 115.765,35.44 L114.915,35.44 C114.928333,35.1199984 114.994999,34.8500011 115.115,34.63 C115.235001,34.4099989 115.394999,34.2316674 115.595,34.095 C115.795001,33.9583327 116.023332,33.8600003 116.28,33.8 C116.536668,33.7399997 116.811665,33.71 117.105,33.71 C117.338334,33.71 117.569999,33.7266665 117.8,33.76 C118.030001,33.7933335 118.238332,33.8616662 118.425,33.965 C118.611668,34.0683339 118.761666,34.2133324 118.875,34.4 C118.988334,34.5866676 119.045,34.8299985 119.045,35.13 L119.045,37.79 C119.045,37.990001 119.056667,38.1366662 119.08,38.23 C119.103333,38.3233338 119.181666,38.37 119.315,38.37 C119.388334,38.37 119.474999,38.3533335 119.575,38.32 L119.575,38.98 Z M118.195,36.33 C118.088333,36.4100004 117.948334,36.4683332 117.775,36.505 C117.601666,36.5416669 117.420001,36.5716666 117.23,36.595 C117.039999,36.6183335 116.848334,36.6449999 116.655,36.675 C116.461666,36.7050002 116.288334,36.753333 116.135,36.82 C115.981666,36.886667 115.856667,36.9816661 115.76,37.105 C115.663333,37.228334 115.615,37.3966656 115.615,37.61 C115.615,37.7500007 115.643333,37.8683329 115.7,37.965 C115.756667,38.0616672 115.83,38.1399997 115.92,38.2 C116.01,38.2600003 116.114999,38.3033332 116.235,38.33 C116.355001,38.3566668 116.481666,38.37 116.615,38.37 C116.895001,38.37 117.134999,38.3316671 117.335,38.255 C117.535001,38.178333 117.698333,38.0816673 117.825,37.965 C117.951667,37.8483328 118.045,37.7216674 118.105,37.585 C118.165,37.4483327 118.195,37.3200006 118.195,37.2 L118.195,36.33 Z M124.825,38.56 C124.825,39.4066709 124.631669,40.0399979 124.245,40.46 C123.858331,40.8800021 123.251671,41.09 122.425,41.09 C122.184999,41.09 121.940001,41.0633336 121.69,41.01 C121.439999,40.9566664 121.213334,40.8700006 121.01,40.75 C120.806666,40.6299994 120.638334,40.4733343 120.505,40.28 C120.371666,40.0866657 120.298333,39.8500014 120.285,39.57 L121.135,39.57 C121.141667,39.7233341 121.19,39.8533328 121.28,39.96 C121.37,40.0666672 121.479999,40.153333 121.61,40.22 C121.740001,40.286667 121.881666,40.3349999 122.035,40.365 C122.188334,40.3950002 122.334999,40.41 122.475,40.41 C122.755001,40.41 122.991666,40.3616672 123.185,40.265 C123.378334,40.1683329 123.538333,40.0350009 123.665,39.865 C123.791667,39.6949992 123.883333,39.4900012 123.94,39.25 C123.996667,39.0099988 124.025,38.7466681 124.025,38.46 L124.025,38.12 L124.005,38.12 C123.858333,38.4400016 123.636668,38.6749993 123.34,38.825 C123.043332,38.9750008 122.728335,39.05 122.395,39.05 C122.008331,39.05 121.671668,38.9800007 121.385,38.84 C121.098332,38.6999993 120.858334,38.5116679 120.665,38.275 C120.471666,38.0383322 120.326667,37.7616683 120.23,37.445 C120.133333,37.1283318 120.085,36.7933351 120.085,36.44 C120.085,36.1333318 120.125,35.818335 120.205,35.495 C120.285,35.1716651 120.418332,34.8783347 120.605,34.615 C120.791668,34.3516654 121.038332,34.1350009 121.345,33.965 C121.651668,33.7949992 122.028331,33.71 122.475,33.71 C122.801668,33.71 123.101665,33.781666 123.375,33.925 C123.648335,34.0683341 123.861666,34.2833319 124.015,34.57 L124.025,34.57 L124.025,33.83 L124.825,33.83 L124.825,38.56 Z M122.445,38.31 C122.725001,38.31 122.963332,38.2516673 123.16,38.135 C123.356668,38.0183328 123.514999,37.865001 123.635,37.675 C123.755001,37.4849991 123.843333,37.2700012 123.9,37.03 C123.956667,36.7899988 123.985,36.5500012 123.985,36.31 C123.985,36.0833322 123.958334,35.8600011 123.905,35.64 C123.851666,35.4199989 123.766667,35.2216676 123.65,35.045 C123.533333,34.8683325 123.381668,34.7266672 123.195,34.62 C123.008332,34.5133328 122.781668,34.46 122.515,34.46 C122.241665,34.46 122.008334,34.5116662 121.815,34.615 C121.621666,34.7183339 121.463334,34.8566658 121.34,35.03 C121.216666,35.2033342 121.126667,35.4033322 121.07,35.63 C121.013333,35.8566678 120.985,36.0933321 120.985,36.34 C120.985,36.5733345 121.008333,36.8066655 121.055,37.04 C121.101667,37.2733345 121.181666,37.4849991 121.295,37.675 C121.408334,37.865001 121.558332,38.0183328 121.745,38.135 C121.931668,38.2516673 122.164999,38.31 122.445,38.31 Z M129.695,35.92 C129.681667,35.719999 129.636667,35.5300009 129.56,35.35 C129.483333,35.1699991 129.380001,35.0150007 129.25,34.885 C129.119999,34.7549994 128.966668,34.6516671 128.79,34.575 C128.613332,34.498333 128.418334,34.46 128.205,34.46 C127.984999,34.46 127.786668,34.498333 127.61,34.575 C127.433332,34.6516671 127.281667,34.756666 127.155,34.89 C127.028333,35.023334 126.928334,35.1783325 126.855,35.355 C126.781666,35.5316676 126.738333,35.719999 126.725,35.92 L129.695,35.92 Z M130.515,37.36 C130.401666,37.9400029 130.151669,38.3766652 129.765,38.67 C129.378331,38.9633348 128.89167,39.11 128.305,39.11 C127.891665,39.11 127.533335,39.043334 127.23,38.91 C126.926665,38.776666 126.671668,38.5900012 126.465,38.35 C126.258332,38.1099988 126.103334,37.823335 126,37.49 C125.896666,37.156665 125.838333,36.7933353 125.825,36.4 C125.825,36.0066647 125.884999,35.6466683 126.005,35.32 C126.125001,34.9933317 126.293332,34.7100012 126.51,34.47 C126.726668,34.2299988 126.983332,34.043334 127.28,33.91 C127.576668,33.776666 127.901665,33.71 128.255,33.71 C128.715002,33.71 129.096665,33.8049991 129.4,33.995 C129.703335,34.185001 129.946666,34.4266652 130.13,34.72 C130.313334,35.0133348 130.44,35.3333316 130.51,35.68 C130.58,36.0266684 130.608333,36.3566651 130.595,36.67 L126.725,36.67 C126.718333,36.8966678 126.745,37.1116657 126.805,37.315 C126.865,37.5183344 126.961666,37.6983326 127.095,37.855 C127.228334,38.0116675 127.398332,38.1366662 127.605,38.23 C127.811668,38.3233338 128.054999,38.37 128.335,38.37 C128.695002,38.37 128.989999,38.2866675 129.22,38.12 C129.450001,37.9533325 129.601666,37.7000017 129.675,37.36 L130.515,37.36 Z" id="Useyourownimage" fill="#6A6A6A" fill-rule="nonzero"></path>
                        </g>
                    </g>
                </g>
            </g>
        </g>
    </g>
</svg>