<?xml version="1.0" encoding="UTF-8"?>
<svg width="170px" height="55px" viewBox="0 0 170 55" version="1.1" xmlns="http://www.w3.org/2000/svg" xmlns:xlink="http://www.w3.org/1999/xlink">
    <!-- Generator: Sketch 54.1 (76490) - https://sketchapp.com -->
    <title>Pic_Text_Pressed_JP_IOS</title>
    <desc>Created with Sketch.</desc>
    <g id="Make" stroke="none" stroke-width="1" fill="none" fill-rule="evenodd">
        <g id="C-01&gt;Make-Graphic&gt;JP" transform="translate(-12.000000, -258.000000)">
            <g id="Content" transform="translate(12.000000, 64.000000)">
                <g id="01_PICTURE">
                    <g id="Pic_Text_Normal" transform="translate(0.000000, 170.000000)">
                        <g id="Pic_Text_Pressed_JP_IOS" transform="translate(0.000000, 24.000000)">
                            <g>
                                <rect id="矩形" fill-opacity="0.01" fill="#FFFFFF" x="0" y="0" width="170" height="55"></rect>
                                <g id="Pic_Text_Normal" transform="translate(13.000000, 0.000000)" fill="#6A6A6A" fill-rule="nonzero">
                                    <path d="M38.2295,10.574 L40.3035,10.574 C40.6095015,10.574 40.9041652,10.5513336 41.1875,10.506 C41.4708347,10.4606664 41.7201656,10.372834 41.9355,10.2425 C42.1508344,10.112166 42.323666,9.92800119 42.454,9.69 C42.584334,9.45199881 42.6495,9.14033526 42.6495,8.755 C42.6495,8.36966474 42.584334,8.05800119 42.454,7.82 C42.323666,7.58199881 42.1508344,7.39783399 41.9355,7.2675 C41.7201656,7.13716602 41.4708347,7.04933356 41.1875,7.004 C40.9041652,6.95866644 40.6095015,6.936 40.3035,6.936 L38.2295,6.936 L38.2295,10.574 Z M35.5605,4.862 L41.0345,4.862 C41.7938371,4.862 42.4398307,4.97249889 42.9725,5.1935 C43.5051693,5.4145011 43.938665,5.70633152 44.273,6.069 C44.607335,6.43166848 44.8509992,6.84533101 45.004,7.31 C45.1570008,7.77466899 45.2335,8.25633084 45.2335,8.755 C45.2335,9.24233577 45.1570008,9.72116431 45.004,10.1915 C44.8509992,10.6618357 44.607335,11.0783315 44.273,11.441 C43.938665,11.8036685 43.5051693,12.0954989 42.9725,12.3165 C42.4398307,12.5375011 41.7938371,12.648 41.0345,12.648 L38.2295,12.648 L38.2295,17 L35.5605,17 L35.5605,4.862 Z M46.8995,4.862 L49.5685,4.862 L49.5685,17 L46.8995,17 L46.8995,4.862 Z M60.0065,8.942 C59.9611664,8.63599847 59.8591675,8.35550127 59.7005,8.1005 C59.5418325,7.84549872 59.3435012,7.62166763 59.1055,7.429 C58.8674988,7.23633237 58.5983348,7.0861672 58.298,6.9785 C57.9976652,6.87083279 57.6831683,6.817 57.3545,6.817 C56.7538303,6.817 56.2438354,6.9331655 55.8245,7.1655 C55.4051646,7.39783449 55.065168,7.70949804 54.8045,8.1005 C54.543832,8.49150196 54.3540006,8.93633084 54.235,9.435 C54.1159994,9.93366916 54.0565,10.4493307 54.0565,10.982 C54.0565,11.4920026 54.1159994,11.9878309 54.235,12.4695 C54.3540006,12.9511691 54.543832,13.3846647 54.8045,13.77 C55.065168,14.1553353 55.4051646,14.4641655 55.8245,14.6965 C56.2438354,14.9288345 56.7538303,15.045 57.3545,15.045 C58.1705041,15.045 58.8079977,14.7956692 59.267,14.297 C59.7260023,13.7983308 60.0064995,13.1410041 60.1085,12.325 L62.6925,12.325 C62.6244997,13.0843371 62.4488348,13.7699969 62.1655,14.382 C61.8821652,14.9940031 61.508169,15.5153312 61.0435,15.946 C60.578831,16.3766688 60.0348365,16.7053322 59.4115,16.932 C58.7881635,17.1586678 58.1025037,17.272 57.3545,17.272 C56.425162,17.272 55.589337,17.1105016 54.847,16.7875 C54.104663,16.4644984 53.4785026,16.0196695 52.9685,15.453 C52.4584974,14.8863305 52.0675014,14.2205038 51.7955,13.4555 C51.5234986,12.6904962 51.3875,11.8660044 51.3875,10.982 C51.3875,10.0753288 51.5234986,9.23383722 51.7955,8.4575 C52.0675014,7.68116278 52.4584974,7.00400289 52.9685,6.426 C53.4785026,5.84799711 54.104663,5.39466831 54.847,5.066 C55.589337,4.73733169 56.425162,4.573 57.3545,4.573 C58.02317,4.573 58.654997,4.66933237 59.25,4.862 C59.845003,5.05466763 60.3776643,5.33516482 60.848,5.7035 C61.3183357,6.07183517 61.7064985,6.52799728 62.0125,7.072 C62.3185015,7.61600272 62.5111663,8.23932982 62.5905,8.942 L60.0065,8.942 Z M67.1975,7.106 L63.5595,7.106 L63.5595,4.862 L73.5045,4.862 L73.5045,7.106 L69.8665,7.106 L69.8665,17 L67.1975,17 L67.1975,7.106 Z M85.2005,12.41 C85.2005,14.0533416 84.7415046,15.274496 83.8235,16.0735 C82.9054954,16.872504 81.6361748,17.272 80.0155,17.272 C78.3721585,17.272 77.1000045,16.8753373 76.199,16.082 C75.2979955,15.2886627 74.8475,14.0646749 74.8475,12.41 L74.8475,4.862 L77.5165,4.862 L77.5165,12.41 C77.5165,12.7386683 77.544833,13.0616651 77.6015,13.379 C77.6581669,13.6963349 77.7771658,13.9768321 77.9585,14.2205 C78.1398342,14.4641679 78.3919984,14.6624992 78.715,14.8155 C79.0380016,14.9685008 79.4714973,15.045 80.0155,15.045 C80.9675048,15.045 81.6248315,14.8325021 81.9875,14.4075 C82.3501685,13.9824979 82.5315,13.3166712 82.5315,12.41 L82.5315,4.862 L85.2005,4.862 L85.2005,12.41 Z M90.1645,10.353 L93.0885,10.353 C93.7005031,10.353 94.1594985,10.2170014 94.4655,9.945 C94.7715015,9.67299864 94.9245,9.23100306 94.9245,8.619 C94.9245,8.02966372 94.7715015,7.60183467 94.4655,7.3355 C94.1594985,7.06916534 93.7005031,6.936 93.0885,6.936 L90.1645,6.936 L90.1645,10.353 Z M87.4955,4.862 L94.0405,4.862 C94.5845027,4.862 95.0746645,4.94983245 95.511,5.1255 C95.9473355,5.30116754 96.3213318,5.54199847 96.633,5.848 C96.9446682,6.15400153 97.1826658,6.50816465 97.347,6.9105 C97.5113342,7.31283534 97.5935,7.74633101 97.5935,8.211 C97.5935,8.92500357 97.4433348,9.54266406 97.143,10.064 C96.8426652,10.5853359 96.3525034,10.9819986 95.6725,11.254 L95.6725,11.288 C96.0011683,11.3786671 96.2731656,11.5174991 96.4885,11.7045 C96.7038344,11.8915009 96.8794993,12.1124987 97.0155,12.3675 C97.1515007,12.6225013 97.2506664,12.9029985 97.313,13.209 C97.3753336,13.5150015 97.4178332,13.8209985 97.4405,14.127 C97.4518334,14.3196676 97.4631666,14.546332 97.4745,14.807 C97.4858334,15.067668 97.5056665,15.3339986 97.534,15.606 C97.5623335,15.8780014 97.6076664,16.1358321 97.67,16.3795 C97.7323336,16.6231679 97.8258327,16.8299991 97.9505,17 L95.2815,17 C95.1341659,16.6146647 95.0435002,16.1556693 95.0095,15.623 C94.9754998,15.0903307 94.9245003,14.5803358 94.8565,14.093 C94.7658329,13.4583302 94.5731681,12.9936681 94.2785,12.699 C93.9838319,12.4043319 93.50217,12.257 92.8335,12.257 L90.1645,12.257 L90.1645,17 L87.4955,17 L87.4955,4.862 Z M99.7695,4.862 L108.8475,4.862 L108.8475,7.106 L102.4385,7.106 L102.4385,9.707 L108.3205,9.707 L108.3205,11.781 L102.4385,11.781 L102.4385,14.756 L108.9835,14.756 L108.9835,17 L99.7695,17 L99.7695,4.862 Z" id="PICTURE"></path>
                                    <path d="M5.499,35.04 L5.355,35.04 C4.779,35.04 4.266,35.166 3.843,35.319 L3.843,35.67 C3.843,36.237 3.906,36.777 3.996,37.29 C4.581,36.741 5.112,36.021 5.499,35.04 Z M3.213,35.751 L3.213,35.598 C2.349,36.093 1.692,36.975 1.692,37.695 C1.692,38.055 1.863,38.235 2.196,38.235 C2.538,38.235 2.97,38.082 3.42,37.767 C3.294,37.128 3.213,36.417 3.213,35.751 Z M6.345,34.545 L6.336,34.581 C7.452,34.878 8.118,35.706 8.118,36.687 C8.118,37.965 7.272,39.081 5.202,39.405 L4.815,38.802 C6.417,38.631 7.407,37.803 7.407,36.651 C7.407,35.976 6.966,35.364 6.129,35.139 C5.634,36.399 4.914,37.38 4.158,38.019 C4.23,38.271 4.302,38.514 4.374,38.739 L3.717,38.937 C3.672,38.784 3.618,38.622 3.573,38.442 C3.087,38.739 2.556,38.928 2.079,38.928 C1.476,38.928 1.017,38.568 1.017,37.803 C1.017,36.66 2.016,35.481 3.24,34.923 C3.258,34.473 3.303,34.023 3.339,33.609 C3.15,33.618 2.97,33.618 2.799,33.618 C2.412,33.618 1.719,33.582 1.359,33.564 L1.341,32.889 C1.647,32.934 2.43,32.997 2.808,32.997 C3.006,32.997 3.204,32.997 3.402,32.988 C3.429,32.727 3.456,32.493 3.474,32.304 C3.492,32.16 3.501,31.989 3.501,31.881 L4.257,31.899 C4.212,32.016 4.176,32.178 4.149,32.295 C4.113,32.484 4.077,32.709 4.041,32.97 C5.166,32.916 6.246,32.799 7.164,32.592 L7.173,33.267 C6.237,33.42 5.049,33.537 3.96,33.591 C3.924,33.933 3.897,34.311 3.87,34.689 C4.365,34.536 4.914,34.455 5.364,34.455 C5.472,34.455 5.58,34.455 5.688,34.464 L5.715,34.383 C5.751,34.248 5.796,34.014 5.805,33.87 L6.525,34.05 C6.471,34.167 6.399,34.41 6.345,34.545 Z M17.352,34.284 L16.947,34.878 C16.47,34.473 15.507,33.924 14.913,33.654 L15.264,33.096 C15.912,33.384 16.929,33.96 17.352,34.284 Z M14.112,32.934 L14.13,33.6 C13.662,33.735 13.104,33.852 12.519,33.924 C12.078,35.184 11.286,36.732 10.575,37.695 L9.873,37.335 C10.62,36.471 11.376,35.049 11.781,34.005 C11.52,34.023 11.259,34.032 10.998,34.032 C10.665,34.032 10.296,34.023 9.963,34.005 L9.909,33.33 C10.242,33.375 10.62,33.393 11.007,33.393 C11.322,33.393 11.655,33.375 11.997,33.348 C12.132,32.853 12.258,32.286 12.276,31.809 L13.077,31.881 C12.987,32.205 12.87,32.745 12.726,33.258 C13.194,33.186 13.662,33.078 14.112,32.934 Z M14.58,37.911 C14.58,37.794 14.58,37.65 14.571,37.488 C14.292,37.407 13.986,37.362 13.671,37.362 C13.014,37.362 12.582,37.659 12.582,38.064 C12.582,38.478 12.915,38.757 13.608,38.757 C14.337,38.757 14.58,38.352 14.58,37.911 Z M14.454,34.635 L15.174,34.635 C15.147,35.004 15.156,35.265 15.165,35.598 C15.174,35.922 15.21,36.507 15.228,37.047 C15.993,37.326 16.614,37.767 17.073,38.163 L16.686,38.775 C16.308,38.433 15.831,38.037 15.255,37.758 C15.264,37.893 15.264,38.019 15.264,38.118 C15.264,38.829 14.796,39.414 13.698,39.414 C12.717,39.414 11.916,39.009 11.916,38.127 C11.916,37.308 12.69,36.777 13.698,36.777 C13.995,36.777 14.283,36.804 14.544,36.858 C14.517,36.129 14.472,35.256 14.454,34.635 Z M22.833,35.328 L22.833,34.653 C23.301,34.608 23.886,34.581 24.462,34.581 C24.975,34.581 25.524,34.599 26.001,34.653 L25.983,35.337 C25.533,35.283 25.002,35.229 24.48,35.229 C23.922,35.229 23.382,35.265 22.833,35.328 Z M23.409,32.988 L23.409,33.699 C22.824,33.834 22.185,33.933 21.564,34.005 C21.483,34.392 21.384,34.806 21.285,35.184 C20.961,36.462 20.358,38.298 19.89,39.27 L19.098,39.009 C19.629,38.091 20.259,36.282 20.592,35.022 C20.673,34.725 20.745,34.401 20.817,34.077 C20.529,34.095 20.259,34.104 20.007,34.104 C19.611,34.104 19.287,34.086 18.972,34.068 L18.945,33.366 C19.368,33.42 19.692,33.429 20.016,33.429 C20.313,33.429 20.628,33.411 20.97,33.393 C21.033,33.069 21.078,32.79 21.105,32.61 C21.132,32.358 21.15,32.061 21.132,31.872 L22.005,31.944 C21.942,32.142 21.879,32.475 21.843,32.655 L21.708,33.312 C22.284,33.24 22.869,33.132 23.409,32.988 Z M22.383,36.759 L23.058,36.822 C22.977,37.119 22.932,37.398 22.932,37.623 C22.932,38.046 23.13,38.451 24.399,38.451 C24.975,38.451 25.596,38.379 26.136,38.28 L26.109,39.009 C25.632,39.072 25.038,39.126 24.39,39.126 C22.986,39.126 22.248,38.694 22.248,37.812 C22.248,37.47 22.302,37.137 22.383,36.759 Z M29.439,37.74 C29.835,37.74 30.33,37.146 30.789,35.643 C31.014,34.905 31.185,34.059 31.284,33.24 C29.574,33.456 28.53,34.923 28.53,36.12 C28.53,37.245 29.052,37.74 29.439,37.74 Z M31.788,39.234 L31.374,38.559 C31.653,38.541 31.923,38.496 32.139,38.451 C33.282,38.199 34.398,37.353 34.398,35.814 C34.398,34.464 33.543,33.357 32.031,33.231 C31.914,34.059 31.743,34.959 31.5,35.796 C30.951,37.623 30.24,38.568 29.412,38.568 C28.62,38.568 27.819,37.65 27.819,36.183 C27.819,34.248 29.547,32.556 31.725,32.556 C33.813,32.556 35.145,34.032 35.145,35.832 C35.145,37.704 33.912,38.955 31.788,39.234 Z M38.583,31.503 L39.222,31.71 C38.979,32.358 38.655,33.015 38.304,33.636 L38.304,39.675 L37.638,39.675 L37.638,34.671 C37.359,35.067 37.053,35.427 36.747,35.742 C36.684,35.589 36.486,35.22 36.36,35.076 C37.251,34.212 38.079,32.871 38.583,31.503 Z M44.622,33.609 L41.85,33.609 L41.85,34.896 L44.415,34.896 L44.415,35.517 L41.85,35.517 L41.85,36.876 L44.541,36.876 L44.541,37.506 L41.85,37.506 L41.85,39.684 L41.175,39.684 L41.175,33.609 L40.554,33.609 C40.167,34.329 39.726,34.977 39.276,35.481 C39.168,35.364 38.907,35.139 38.754,35.031 C39.564,34.194 40.293,32.898 40.734,31.584 L41.373,31.755 C41.229,32.169 41.058,32.574 40.878,32.97 L44.622,32.97 L44.622,33.609 Z M46.476,35.391 C46.737,35.346 47.034,35.265 47.304,35.175 C47.943,34.977 49.401,34.446 50.454,34.446 C51.714,34.446 52.632,35.202 52.632,36.417 C52.632,38.136 50.976,39.018 48.573,39.162 L48.285,38.469 C50.211,38.406 51.903,37.866 51.903,36.408 C51.903,35.652 51.309,35.103 50.4,35.103 C49.293,35.103 47.349,35.913 46.773,36.138 L46.476,35.391 Z M58.833,35.328 L58.833,34.653 C59.301,34.608 59.886,34.581 60.462,34.581 C60.975,34.581 61.524,34.599 62.001,34.653 L61.983,35.337 C61.533,35.283 61.002,35.229 60.48,35.229 C59.922,35.229 59.382,35.265 58.833,35.328 Z M59.409,32.988 L59.409,33.699 C58.824,33.834 58.185,33.933 57.564,34.005 C57.483,34.392 57.384,34.806 57.285,35.184 C56.961,36.462 56.358,38.298 55.89,39.27 L55.098,39.009 C55.629,38.091 56.259,36.282 56.592,35.022 C56.673,34.725 56.745,34.401 56.817,34.077 C56.529,34.095 56.259,34.104 56.007,34.104 C55.611,34.104 55.287,34.086 54.972,34.068 L54.945,33.366 C55.368,33.42 55.692,33.429 56.016,33.429 C56.313,33.429 56.628,33.411 56.97,33.393 C57.033,33.069 57.078,32.79 57.105,32.61 C57.132,32.358 57.15,32.061 57.132,31.872 L58.005,31.944 C57.942,32.142 57.879,32.475 57.843,32.655 L57.708,33.312 C58.284,33.24 58.869,33.132 59.409,32.988 Z M58.383,36.759 L59.058,36.822 C58.977,37.119 58.932,37.398 58.932,37.623 C58.932,38.046 59.13,38.451 60.399,38.451 C60.975,38.451 61.596,38.379 62.136,38.28 L62.109,39.009 C61.632,39.072 61.038,39.126 60.39,39.126 C58.986,39.126 58.248,38.694 58.248,37.812 C58.248,37.47 58.302,37.137 58.383,36.759 Z M70.551,38.487 L70.551,33.582 L71.199,33.582 L71.199,39.657 L70.551,39.657 L70.551,39.126 L64.476,39.126 L64.476,39.684 L63.828,39.684 L63.828,33.582 L64.476,33.582 L64.476,38.487 L70.551,38.487 Z M69.048,35.418 L69.048,34.248 L67.761,34.248 L67.761,35.418 L69.048,35.418 Z M69.048,37.137 L69.048,35.958 L67.761,35.958 L67.761,37.137 L69.048,37.137 Z M65.898,35.958 L65.898,37.137 L67.176,37.137 L67.176,35.958 L65.898,35.958 Z M65.898,34.248 L65.898,35.418 L67.176,35.418 L67.176,34.248 L65.898,34.248 Z M63.549,32.061 L71.451,32.061 L71.451,32.682 L67.797,32.682 L67.797,33.681 L69.633,33.681 L69.633,37.704 L65.331,37.704 L65.331,33.681 L67.131,33.681 L67.131,32.682 L63.549,32.682 L63.549,32.061 Z M74.115,31.521 L74.736,31.692 C74.538,32.286 74.304,32.88 74.034,33.447 L74.034,39.684 L73.395,39.684 L73.395,34.644 C73.125,35.094 72.846,35.499 72.549,35.85 C72.486,35.688 72.306,35.337 72.198,35.175 C72.972,34.275 73.683,32.907 74.115,31.521 Z M75.654,33.726 L75.654,34.743 L77.301,34.743 L77.301,33.726 L75.654,33.726 Z M78.021,32.556 L76.275,32.556 C76.104,32.781 75.924,33.006 75.717,33.231 L77.526,33.231 C77.706,33.042 77.877,32.79 78.021,32.556 Z M79.632,34.743 L79.632,33.726 L77.913,33.726 L77.913,34.743 L79.632,34.743 Z M80.064,35.499 L80.532,35.895 C80.1,36.282 79.515,36.696 79.056,36.975 C79.47,37.758 80.01,38.397 80.676,38.766 C80.532,38.892 80.325,39.135 80.235,39.297 C79.029,38.541 78.246,37.011 77.823,35.22 L77.607,35.22 C77.436,35.364 77.247,35.499 77.04,35.625 C78.534,36.876 78.552,38.865 77.823,39.414 C77.562,39.63 77.319,39.684 76.959,39.693 C76.77,39.693 76.518,39.684 76.266,39.666 C76.257,39.513 76.212,39.261 76.104,39.099 C76.392,39.126 76.662,39.135 76.833,39.135 C77.058,39.135 77.22,39.117 77.382,38.982 C77.634,38.802 77.76,38.334 77.67,37.776 C76.887,38.433 75.735,39.099 74.781,39.459 C74.691,39.297 74.538,39.09 74.403,38.964 C75.465,38.64 76.797,37.902 77.517,37.2 C77.454,37.02 77.364,36.84 77.247,36.66 C76.608,37.155 75.672,37.65 74.916,37.929 C74.844,37.794 74.7,37.587 74.574,37.47 C75.357,37.236 76.365,36.759 76.977,36.282 C76.86,36.147 76.734,36.021 76.581,35.895 C76.032,36.201 75.429,36.471 74.889,36.669 C74.799,36.543 74.61,36.318 74.493,36.201 C75.258,35.976 76.104,35.625 76.752,35.22 L75.042,35.22 L75.042,33.879 C74.961,33.951 74.871,34.023 74.781,34.095 C74.664,33.96 74.448,33.789 74.286,33.717 C75.213,33.06 75.879,32.178 76.248,31.485 L76.887,31.602 C76.806,31.746 76.716,31.899 76.617,32.052 L78.381,32.052 L78.498,32.016 L78.912,32.295 C78.732,32.61 78.498,32.943 78.264,33.231 L80.262,33.231 L80.262,35.22 L78.399,35.22 C78.516,35.67 78.66,36.102 78.831,36.498 C79.263,36.21 79.749,35.805 80.064,35.499 Z M86.328,37.785 L85.635,37.785 C85.662,37.443 85.671,36.867 85.671,36.399 C84.843,36.849 84.267,37.308 84.267,37.893 C84.267,38.595 84.96,38.694 85.878,38.694 C86.571,38.694 87.525,38.613 88.308,38.478 L88.29,39.207 C87.615,39.288 86.625,39.351 85.851,39.351 C84.573,39.351 83.547,39.081 83.547,37.992 C83.547,36.939 84.609,36.273 85.644,35.733 C85.554,35.364 85.23,35.184 84.843,35.184 C84.258,35.184 83.718,35.472 83.304,35.841 C83.052,36.084 82.8,36.417 82.494,36.777 L81.882,36.318 C83.016,35.22 83.601,34.302 83.934,33.6 L83.565,33.6 C83.187,33.6 82.584,33.582 82.098,33.546 L82.098,32.871 C82.575,32.925 83.196,32.961 83.601,32.961 C83.79,32.961 83.979,32.961 84.186,32.952 C84.312,32.556 84.393,32.151 84.411,31.845 L85.149,31.908 C85.086,32.16 85.005,32.529 84.879,32.934 C85.788,32.889 86.76,32.808 87.606,32.664 L87.597,33.33 C86.715,33.465 85.617,33.546 84.645,33.582 C84.447,34.041 84.168,34.536 83.844,34.95 C84.168,34.743 84.681,34.617 85.077,34.617 C85.653,34.617 86.121,34.896 86.256,35.427 C86.868,35.139 87.408,34.923 87.876,34.707 C88.146,34.59 88.362,34.482 88.614,34.356 L88.902,35.031 C88.677,35.094 88.353,35.22 88.119,35.31 C87.615,35.508 86.976,35.769 86.301,36.084 C86.31,36.597 86.319,37.353 86.328,37.785 Z M96.732,32.988 L97.119,33.645 C96.921,33.771 96.696,33.888 96.435,34.023 C95.841,34.329 94.599,34.914 93.726,35.49 C92.898,36.03 92.403,36.615 92.403,37.29 C92.403,38.028 93.105,38.487 94.509,38.487 C95.481,38.487 96.669,38.361 97.362,38.181 L97.362,38.991 C96.687,39.108 95.661,39.207 94.545,39.207 C92.871,39.207 91.656,38.703 91.656,37.371 C91.656,36.453 92.241,35.724 93.195,35.058 C92.781,34.329 92.313,33.285 91.899,32.313 L92.61,32.025 C92.97,32.997 93.42,33.96 93.807,34.662 C94.644,34.158 95.607,33.69 96.093,33.411 C96.354,33.267 96.543,33.15 96.732,32.988 Z M101.277,31.899 L102.069,31.926 C101.88,32.583 101.709,33.78 101.655,34.401 C102.006,33.483 102.942,32.376 104.067,32.376 C105.255,32.376 106.11,33.564 106.11,35.436 C106.11,37.911 104.553,39 102.339,39.405 L101.916,38.757 C103.851,38.46 105.363,37.686 105.363,35.445 C105.363,34.041 104.895,33.033 103.95,33.033 C102.843,33.033 101.817,34.644 101.709,35.814 C101.664,36.156 101.664,36.462 101.727,36.903 L101.025,36.957 C100.98,36.624 100.935,36.12 100.935,35.544 C100.935,34.698 101.097,33.384 101.205,32.664 C101.241,32.385 101.268,32.115 101.277,31.899 Z M110.133,33.429 L110.133,32.691 C110.781,32.772 111.6,32.808 112.491,32.808 C113.346,32.808 114.255,32.745 114.894,32.682 L114.894,33.42 C114.291,33.465 113.31,33.528 112.491,33.528 C111.6,33.528 110.844,33.492 110.133,33.429 Z M109.764,36.219 L110.502,36.291 C110.394,36.651 110.322,36.975 110.322,37.308 C110.322,37.974 111.006,38.442 112.428,38.442 C113.661,38.442 114.804,38.307 115.479,38.1 L115.488,38.874 C114.849,39.045 113.715,39.18 112.446,39.18 C110.637,39.18 109.584,38.586 109.584,37.47 C109.584,37.002 109.683,36.588 109.764,36.219 Z M119.394,37.578 C119.709,37.173 120.042,36.363 120.348,35.67 C119.07,35.778 118.341,36.543 118.341,37.299 C118.341,37.677 118.593,37.893 118.854,37.893 C119.061,37.893 119.205,37.821 119.394,37.578 Z M125.496,36.786 L125.172,37.542 C124.902,37.308 124.587,37.065 124.245,36.84 C123.876,38.001 123.192,38.847 121.896,39.495 L121.302,39 C122.715,38.406 123.345,37.452 123.633,36.48 C122.886,36.075 122.022,35.76 121.095,35.679 C120.753,36.462 120.312,37.506 119.97,38.001 C119.655,38.451 119.304,38.622 118.845,38.622 C118.188,38.622 117.684,38.145 117.684,37.398 C117.684,36.084 118.899,35.076 120.645,35.031 C120.969,34.329 121.293,33.564 121.572,33.006 C121.221,33.033 120.141,33.078 119.727,33.105 C119.529,33.114 119.277,33.132 119.07,33.168 L119.034,32.412 C119.259,32.439 119.52,32.448 119.709,32.448 C120.177,32.448 121.347,32.385 121.725,32.358 C121.887,32.34 122.04,32.304 122.157,32.259 L122.616,32.628 C122.526,32.727 122.445,32.808 122.382,32.925 C122.13,33.321 121.752,34.23 121.374,35.067 C122.265,35.157 123.084,35.436 123.795,35.778 C123.831,35.553 123.849,35.328 123.867,35.112 C123.885,34.869 123.894,34.581 123.876,34.293 L124.614,34.374 C124.578,35.013 124.524,35.58 124.425,36.102 C124.848,36.336 125.208,36.579 125.496,36.786 Z M130.509,37.956 C130.509,37.803 130.5,37.596 130.5,37.353 C130.221,37.299 129.933,37.272 129.636,37.272 C128.79,37.272 128.331,37.596 128.331,38.001 C128.331,38.415 128.682,38.721 129.564,38.721 C130.077,38.721 130.509,38.568 130.509,37.956 Z M133.758,38.262 L133.353,38.892 C132.831,38.415 132.093,37.875 131.202,37.551 C131.211,37.776 131.22,37.974 131.22,38.109 C131.22,38.721 130.806,39.36 129.645,39.36 C128.367,39.36 127.656,38.901 127.656,38.037 C127.656,37.227 128.439,36.678 129.726,36.678 C129.987,36.678 130.23,36.696 130.473,36.732 C130.455,36.336 130.437,35.913 130.428,35.544 L129.933,35.544 C129.321,35.544 128.331,35.49 127.692,35.418 L127.692,34.734 C128.295,34.842 129.348,34.905 129.933,34.905 L130.41,34.905 L130.41,33.627 L129.969,33.627 C129.348,33.627 128.403,33.555 127.872,33.492 L127.872,32.826 C128.412,32.925 129.366,32.997 129.96,32.997 L130.419,32.997 L130.419,32.412 C130.419,32.268 130.41,32.007 130.392,31.881 L131.157,31.881 C131.13,32.043 131.121,32.214 131.112,32.475 C131.103,32.583 131.103,32.754 131.103,32.97 C131.877,32.943 132.606,32.871 133.389,32.754 L133.398,33.411 C132.696,33.483 131.931,33.555 131.094,33.6 L131.094,34.878 C131.949,34.842 132.768,34.761 133.569,34.644 L133.578,35.319 C132.741,35.427 131.949,35.49 131.103,35.526 C131.121,35.985 131.148,36.453 131.166,36.876 C132.345,37.2 133.254,37.857 133.758,38.262 Z M139.32,36.894 C139.842,36.894 140.184,36.471 140.103,35.625 C139.959,35.238 139.662,35.076 139.311,35.076 C138.852,35.076 138.411,35.436 138.411,36.012 C138.411,36.57 138.825,36.894 139.32,36.894 Z M140.697,33.672 L140.58,33.672 C140.58,34.176 140.589,34.725 140.598,35.13 C140.787,35.436 140.886,35.832 140.886,36.273 C140.886,37.479 140.301,38.82 138.231,39.441 L137.61,38.838 C138.78,38.568 139.608,38.082 139.977,37.29 C139.761,37.443 139.509,37.515 139.212,37.515 C138.456,37.515 137.736,36.984 137.736,36.021 C137.736,35.139 138.465,34.464 139.311,34.464 C139.527,34.464 139.725,34.5 139.905,34.563 C139.905,34.302 139.905,33.987 139.896,33.681 C138.546,33.69 137.034,33.753 135.918,33.834 L135.9,33.132 C136.89,33.114 138.564,33.06 139.887,33.042 C139.887,32.79 139.878,32.583 139.869,32.457 C139.86,32.268 139.833,32.007 139.815,31.899 L140.634,31.899 L140.589,32.457 C140.589,32.592 140.58,32.799 140.58,33.033 L140.715,33.033 C141.795,33.033 142.893,33.042 143.325,33.042 L143.316,33.717 C142.812,33.69 142.002,33.672 140.697,33.672 Z" id="あなたの作った画像をとりこみます"></path>
                                </g>
                            </g>
                        </g>
                    </g>
                </g>
            </g>
        </g>
    </g>
</svg>