<?xml version="1.0" encoding="UTF-8"?>
<svg width="170px" height="55px" viewBox="0 0 170 55" version="1.1" xmlns="http://www.w3.org/2000/svg" xmlns:xlink="http://www.w3.org/1999/xlink">
    <!-- Generator: Sketch 55.2 (78181) - https://sketchapp.com -->
    <title>Pic_Text_Pressed</title>
    <desc>Created with Sketch.</desc>
    <g id="Make" stroke="none" stroke-width="1" fill="none" fill-rule="evenodd">
        <g id="C-01&gt;Make-Graphic&gt;Forbid&gt;EN备份" transform="translate(-12.000000, -258.000000)">
            <g id="Content" transform="translate(12.000000, 64.000000)">
                <g id="01_PICTURE">
                    <g id="Pic_Text_Pressed" transform="translate(0.000000, 194.000000)">
                        <g>
                            <rect id="矩形" fill-opacity="0.01" fill="#FFFFFF" x="0" y="0" width="170" height="55"></rect>
                            <path d="M54.9780273,12.6171875 L54.9780273,17 L52.5541992,17 L52.5541992,4.9140625 L57.1777344,4.9140625 C58.5667387,4.9140625 59.659664,5.26822562 60.456543,5.9765625 C61.253422,6.68489938 61.6518555,7.61734448 61.6518555,8.77392578 C61.6518555,9.93050708 61.253422,10.8601853 60.456543,11.5629883 C59.659664,12.2657913 58.5667387,12.6171875 57.1777344,12.6171875 L54.9780273,12.6171875 Z M54.9780273,10.7495117 L57.1777344,10.7495117 C57.852868,10.7495117 58.3647444,10.5655129 58.7133789,10.1975098 C59.0620135,9.82950662 59.2363281,9.36051717 59.2363281,8.79052734 C59.2363281,8.20946975 59.0633969,7.7294127 58.7175293,7.3503418 C58.3716617,6.97127089 57.8584018,6.78173828 57.1777344,6.78173828 L54.9780273,6.78173828 L54.9780273,10.7495117 Z M65.9765625,17 L63.5527344,17 L63.5527344,4.9140625 L65.9765625,4.9140625 L65.9765625,17 Z M77.4399414,12.9990234 L77.456543,13.0488281 C77.4786785,14.3382226 77.0857788,15.3481409 76.277832,16.0786133 C75.4698853,16.8090857 74.3548248,17.1743164 72.9326172,17.1743164 C71.4827401,17.1743164 70.3123417,16.7080939 69.4213867,15.7756348 C68.5304317,14.8431757 68.0849609,13.638191 68.0849609,12.1606445 L68.0849609,9.76171875 C68.0849609,8.28970618 68.5193641,7.08472149 69.3881836,6.14672852 C70.257003,5.20873554 71.3969656,4.73974609 72.8081055,4.73974609 C74.280118,4.73974609 75.4311482,5.09944302 76.2612305,5.81884766 C77.0913127,6.53825229 77.4952801,7.55093748 77.4731445,8.85693359 L77.456543,8.90673828 L75.0991211,8.90673828 C75.0991211,8.13199482 74.9123554,7.5550963 74.5388184,7.17602539 C74.1652813,6.79695448 73.5883828,6.60742188 72.8081055,6.60742188 C72.0831669,6.60742188 71.517336,6.89932976 71.1105957,7.4831543 C70.7038554,8.06697883 70.5004883,8.82095892 70.5004883,9.74511719 L70.5004883,12.1606445 C70.5004883,13.0903367 70.714923,13.8484671 71.1437988,14.4350586 C71.5726747,15.0216501 72.1689415,15.3149414 72.9326172,15.3149414 C73.6575557,15.3149414 74.1984845,15.1254088 74.5554199,14.7463379 C74.9123553,14.367267 75.0908203,13.7848347 75.0908203,12.9990234 L77.4399414,12.9990234 Z M87.3759766,6.78173828 L83.9228516,6.78173828 L83.9228516,17 L81.4990234,17 L81.4990234,6.78173828 L78.0957031,6.78173828 L78.0957031,4.9140625 L87.3759766,4.9140625 L87.3759766,6.78173828 Z M98.2832031,4.9140625 L98.2832031,12.824707 C98.2832031,14.186042 97.8321985,15.2512982 96.9301758,16.0205078 C96.028153,16.7897174 94.8577546,17.1743164 93.4189453,17.1743164 C91.9856699,17.1743164 90.8221887,16.7897174 89.9284668,16.0205078 C89.0347449,15.2512982 88.5878906,14.186042 88.5878906,12.824707 L88.5878906,4.9140625 L91.0200195,4.9140625 L91.0200195,12.824707 C91.0200195,13.6326538 91.2358377,14.2496723 91.6674805,14.6757812 C92.0991233,15.1018902 92.682939,15.3149414 93.4189453,15.3149414 C94.1660194,15.3149414 94.7581358,15.1018902 95.1953125,14.6757812 C95.6324892,14.2496723 95.8510742,13.6326538 95.8510742,12.824707 L95.8510742,4.9140625 L98.2832031,4.9140625 Z M102.807129,12.1689453 L102.807129,17 L100.383301,17 L100.383301,4.9140625 L104.566895,4.9140625 C105.944831,4.9140625 107.022538,5.22810558 107.800049,5.85620117 C108.577559,6.48429676 108.966309,7.36002042 108.966309,8.48339844 C108.966309,9.1031932 108.801678,9.63858824 108.472412,10.0895996 C108.143146,10.540611 107.663089,10.9044583 107.032227,11.1811523 C107.746097,11.3914399 108.259357,11.7428361 108.572021,12.2353516 C108.884686,12.727867 109.041016,13.3365849 109.041016,14.0615234 L109.041016,14.949707 C109.041016,15.2872738 109.086669,15.6400535 109.177979,16.0080566 C109.269288,16.3760598 109.425617,16.6485994 109.646973,16.8256836 L109.646973,17 L107.148438,17 C106.927082,16.8229158 106.784587,16.5296244 106.720947,16.1201172 C106.657308,15.7106099 106.625488,15.3149433 106.625488,14.9331055 L106.625488,14.078125 C106.625488,13.4749319 106.460858,13.0059424 106.131592,12.6711426 C105.802326,12.3363427 105.336103,12.1689453 104.73291,12.1689453 L102.807129,12.1689453 Z M102.807129,10.3012695 L104.525391,10.3012695 C105.206058,10.3012695 105.712401,10.1573908 106.044434,9.86962891 C106.376467,9.58186705 106.54248,9.15576454 106.54248,8.59130859 C106.54248,8.03792041 106.375083,7.5979834 106.040283,7.27148438 C105.705483,6.94498535 105.214359,6.78173828 104.566895,6.78173828 L102.807129,6.78173828 L102.807129,10.3012695 Z M118.12207,11.6875 L113.639648,11.6875 L113.639648,15.140625 L118.96875,15.140625 L118.96875,17 L111.21582,17 L111.21582,4.9140625 L118.952148,4.9140625 L118.952148,6.78173828 L113.639648,6.78173828 L113.639648,9.81982422 L118.12207,9.81982422 L118.12207,11.6875 Z" id="PICTURE" fill="#6A6A6A" fill-rule="nonzero"></path>
                            <path d="M45.5126953,31.890625 L45.5126953,36.6123047 C45.5126953,37.3935586 45.2587916,38.0039041 44.7509766,38.4433594 C44.2431615,38.8828147 43.5888712,39.1025391 42.7880859,39.1025391 C42.0165977,39.1025391 41.3850936,38.8820009 40.8935547,38.440918 C40.4020158,37.999835 40.15625,37.3903034 40.15625,36.6123047 L40.15625,31.890625 L41.1181641,31.890625 L41.1181641,36.6123047 C41.1181641,37.1559272 41.2735987,37.5815414 41.5844727,37.8891602 C41.8953466,38.1967789 42.296547,38.3505859 42.7880859,38.3505859 C43.3089219,38.3505859 43.7329085,38.1967789 44.0600586,37.8891602 C44.3872087,37.5815414 44.5507812,37.1559272 44.5507812,36.6123047 L44.5507812,31.890625 L45.5126953,31.890625 Z M49.9755859,37.5791016 C49.9755859,37.367512 49.8950203,37.1949876 49.7338867,37.0615234 C49.5727531,36.9280592 49.2675804,36.8108729 48.8183594,36.7099609 C48.1966115,36.5764967 47.7189144,36.3893241 47.3852539,36.1484375 C47.0515934,35.9075509 46.8847656,35.5852885 46.8847656,35.1816406 C46.8847656,34.751951 47.0678693,34.3841161 47.434082,34.078125 C47.8002948,33.7721339 48.2747367,33.6191406 48.8574219,33.6191406 C49.4563832,33.6191406 49.9414044,33.7818994 50.3125,34.1074219 C50.6835956,34.4329443 50.8610027,34.8121723 50.8447266,35.2451172 L50.8349609,35.2744141 L49.9169922,35.2744141 C49.9169922,35.0465483 49.8168955,34.8398447 49.6166992,34.6542969 C49.4165029,34.4687491 49.163413,34.3759766 48.8574219,34.3759766 C48.5188785,34.3759766 48.2657886,34.4524732 48.0981445,34.6054688 C47.9305005,34.7584643 47.8466797,34.9407542 47.8466797,35.1523438 C47.8466797,35.3606781 47.9191073,35.5218093 48.0639648,35.6357422 C48.2088223,35.749675 48.5074847,35.8538407 48.9599609,35.9482422 C49.6077506,36.0849616 50.0992822,36.2786446 50.4345703,36.5292969 C50.7698584,36.7799492 50.9375,37.1070943 50.9375,37.5107422 C50.9375,37.9794945 50.747886,38.3619777 50.3686523,38.6582031 C49.9894187,38.9544286 49.4938182,39.1025391 48.8818359,39.1025391 C48.2080044,39.1025391 47.6774108,38.9316423 47.2900391,38.5898438 C46.9026673,38.2480452 46.7187499,37.8492861 46.7382812,37.3935547 L46.7480469,37.3642578 L47.6660156,37.3642578 C47.6822917,37.7060564 47.8092436,37.9558911 48.046875,38.1137695 C48.2845064,38.2716479 48.5628239,38.3505859 48.8818359,38.3505859 C49.2236345,38.3505859 49.4913727,38.2781583 49.6850586,38.1333008 C49.8787445,37.9884433 49.9755859,37.8037121 49.9755859,37.5791016 Z M54.3212891,39.1025391 C53.5628217,39.1025391 52.9711935,38.8600285 52.5463867,38.375 C52.1215799,37.8899715 51.9091797,37.2519571 51.9091797,36.4609375 L51.9091797,36.2460938 C51.9091797,35.4876264 52.1280903,34.8601913 52.565918,34.3637695 C53.0037457,33.8673478 53.5384083,33.6191406 54.1699219,33.6191406 C54.8763056,33.6191406 55.4060855,33.838865 55.7592773,34.2783203 C56.1124692,34.7177756 56.2890625,35.3020797 56.2890625,36.03125 L56.2890625,36.5390625 L52.9101562,36.5390625 L52.8955078,36.5634766 C52.8955078,37.0940782 53.0126941,37.5245752 53.2470703,37.8549805 C53.4814465,38.1853858 53.8395158,38.3505859 54.3212891,38.3505859 C54.6468115,38.3505859 54.9324532,38.3041997 55.1782227,38.2114258 C55.4239921,38.1186519 55.6347647,37.9908862 55.8105469,37.828125 L56.1865234,38.453125 C55.9977204,38.6354176 55.7486995,38.7892246 55.4394531,38.9145508 C55.1302068,39.0398769 54.7574892,39.1025391 54.3212891,39.1025391 Z M54.1699219,34.3759766 C53.8346337,34.3759766 53.55713,34.5053698 53.3374023,34.7641602 C53.1176747,35.0229505 52.9833987,35.3541646 52.9345703,35.7578125 L52.9443359,35.7822266 L55.3271484,35.7822266 L55.3271484,35.7041016 C55.3271484,35.3199851 55.2327483,35.0026054 55.0439453,34.7519531 C54.8551423,34.5013008 54.5638041,34.3759766 54.1699219,34.3759766 Z M61.4697266,37.0419922 L61.640625,37.7060547 L61.6699219,37.7060547 L62.96875,33.7167969 L64.0380859,33.7167969 L61.8164062,39.8105469 C61.682942,40.1653664 61.4917005,40.4746081 61.2426758,40.7382812 C60.9936511,41.0019544 60.6575542,41.1337891 60.234375,41.1337891 C60.1562496,41.1337891 60.0569667,41.1248373 59.9365234,41.1069336 C59.8160801,41.0890299 59.7233076,41.0719402 59.6582031,41.0556641 L59.7558594,40.2988281 C59.736328,40.2955729 59.7941074,40.2988281 59.9291992,40.3085938 C60.064291,40.3183594 60.1497394,40.3232422 60.1855469,40.3232422 C60.390626,40.3232422 60.5582676,40.2320973 60.6884766,40.0498047 C60.8186855,39.8675121 60.9277339,39.6656912 61.015625,39.4443359 L61.2451172,38.8925781 L59.2822266,33.7167969 L60.3564453,33.7167969 L61.4697266,37.0419922 Z M64.5849609,36.3095703 C64.5849609,35.5283164 64.7965474,34.8846054 65.2197266,34.378418 C65.6429058,33.8722305 66.2174443,33.6191406 66.9433594,33.6191406 C67.6757849,33.6191406 68.2543924,33.8714167 68.6791992,34.3759766 C69.104006,34.8805364 69.3164062,35.5250612 69.3164062,36.3095703 L69.3164062,36.4169922 C69.3164062,37.2047565 69.1048198,37.8492813 68.6816406,38.3505859 C68.2584614,38.8518905 67.6822953,39.1025391 66.953125,39.1025391 C66.2239547,39.1025391 65.6469748,38.8510767 65.222168,38.3481445 C64.7973612,37.8452123 64.5849609,37.2015013 64.5849609,36.4169922 L64.5849609,36.3095703 Z M65.546875,36.4169922 C65.546875,36.9768908 65.6648751,37.4391258 65.9008789,37.8037109 C66.1368827,38.1682961 66.4876279,38.3505859 66.953125,38.3505859 C67.4121117,38.3505859 67.7604155,38.1682961 67.9980469,37.8037109 C68.2356783,37.4391258 68.3544922,36.9768908 68.3544922,36.4169922 L68.3544922,36.3095703 C68.3544922,35.7561821 68.2348645,35.2955748 67.9956055,34.9277344 C67.7563465,34.559894 67.4056013,34.3759766 66.9433594,34.3759766 C66.4843727,34.3759766 66.1368827,34.559894 65.9008789,34.9277344 C65.6648751,35.2955748 65.546875,35.7561821 65.546875,36.3095703 L65.546875,36.4169922 Z M73.8476562,38.21875 C73.6816398,38.5019545 73.4684258,38.7200513 73.2080078,38.8730469 C72.9475898,39.0260424 72.6464861,39.1025391 72.3046875,39.1025391 C71.7285127,39.1025391 71.2792985,38.9186216 70.9570312,38.5507812 C70.634764,38.1829409 70.4736328,37.6100299 70.4736328,36.8320312 L70.4736328,33.7167969 L71.4355469,33.7167969 L71.4355469,36.8417969 C71.4355469,37.4049507 71.5185539,37.7923167 71.6845703,38.0039062 C71.8505868,38.2154958 72.1093732,38.3212891 72.4609375,38.3212891 C72.8027361,38.3212891 73.0851226,38.2521166 73.3081055,38.1137695 C73.5310884,37.9754225 73.6995437,37.7792981 73.8134766,37.5253906 L73.8134766,33.7167969 L74.7753906,33.7167969 L74.7753906,39 L73.9111328,39 L73.8476562,38.21875 Z M78.6767578,34.5664062 L78.1835938,34.5371094 C77.9296862,34.5371094 77.7156584,34.5973301 77.5415039,34.7177734 C77.3673494,34.8382167 77.2330734,35.0074859 77.1386719,35.2255859 L77.1386719,39 L76.1767578,39 L76.1767578,33.7167969 L77.0361328,33.7167969 L77.1289062,34.4882812 C77.2786466,34.2148424 77.4633778,34.0016284 77.6831055,33.8486328 C77.9028331,33.6956373 78.155923,33.6191406 78.4423828,33.6191406 C78.5139978,33.6191406 78.5823564,33.6248372 78.6474609,33.6362305 C78.7125654,33.6476238 78.7662758,33.6598307 78.8085938,33.6728516 L78.6767578,34.5664062 Z M81.9384766,36.3095703 C81.9384766,35.5283164 82.150063,34.8846054 82.5732422,34.378418 C82.9964214,33.8722305 83.5709599,33.6191406 84.296875,33.6191406 C85.0293005,33.6191406 85.607908,33.8714167 86.0327148,34.3759766 C86.4575217,34.8805364 86.6699219,35.5250612 86.6699219,36.3095703 L86.6699219,36.4169922 C86.6699219,37.2047565 86.4583354,37.8492813 86.0351562,38.3505859 C85.6119771,38.8518905 85.0358109,39.1025391 84.3066406,39.1025391 C83.5774703,39.1025391 83.0004904,38.8510767 82.5756836,38.3481445 C82.1508768,37.8452123 81.9384766,37.2015013 81.9384766,36.4169922 L81.9384766,36.3095703 Z M82.9003906,36.4169922 C82.9003906,36.9768908 83.0183907,37.4391258 83.2543945,37.8037109 C83.4903983,38.1682961 83.8411435,38.3505859 84.3066406,38.3505859 C84.7656273,38.3505859 85.1139311,38.1682961 85.3515625,37.8037109 C85.5891939,37.4391258 85.7080078,36.9768908 85.7080078,36.4169922 L85.7080078,36.3095703 C85.7080078,35.7561821 85.5883801,35.2955748 85.3491211,34.9277344 C85.1098621,34.559894 84.7591169,34.3759766 84.296875,34.3759766 C83.8378883,34.3759766 83.4903983,34.559894 83.2543945,34.9277344 C83.0183907,35.2955748 82.9003906,35.7561821 82.9003906,36.3095703 L82.9003906,36.4169922 Z M89.1992188,37.0761719 L89.3212891,37.7548828 L89.3505859,37.7548828 L89.4775391,37.0761719 L90.5322266,33.7167969 L91.3037109,33.7167969 L92.3632812,37.0761719 L92.5,37.8330078 L92.5292969,37.8330078 L92.6855469,37.0761719 L93.4667969,33.7167969 L94.4726562,33.7167969 L92.9394531,39 L92.1630859,39 L91.1181641,35.7822266 L90.9179688,34.9423828 L90.8886719,34.9423828 L90.703125,35.7822266 L89.6777344,39 L88.9013672,39 L87.3681641,33.7167969 L88.3691406,33.7167969 L89.1992188,37.0761719 Z M96.2744141,33.7167969 L96.3427734,34.5029297 C96.5185556,34.2229804 96.7390937,34.0056974 97.0043945,33.8510742 C97.2696953,33.696451 97.5716129,33.6191406 97.9101562,33.6191406 C98.4798206,33.6191406 98.9208969,33.7859684 99.2333984,34.1196289 C99.5459,34.4532894 99.7021484,34.968421 99.7021484,35.6650391 L99.7021484,39 L98.7402344,39 L98.7402344,35.6845703 C98.7402344,35.2190732 98.6482757,34.8886729 98.4643555,34.6933594 C98.2804353,34.4980459 97.9996764,34.4003906 97.6220703,34.4003906 C97.3258449,34.4003906 97.0743825,34.4597976 96.8676758,34.5786133 C96.660969,34.697429 96.4973964,34.8642567 96.3769531,35.0791016 L96.3769531,39 L95.4150391,39 L95.4150391,33.7167969 L96.2744141,33.7167969 Z M104.624023,39 L103.662109,39 L103.662109,33.7167969 L104.624023,33.7167969 L104.624023,39 Z M104.624023,32.3642578 L103.662109,32.3642578 L103.662109,31.3828125 L104.624023,31.3828125 L104.624023,32.3642578 Z M106.962891,33.7167969 L107.03125,34.4101562 C107.203777,34.159504 107.422687,33.9650072 107.687988,33.8266602 C107.953289,33.6883131 108.261717,33.6191406 108.613281,33.6191406 C108.964846,33.6191406 109.266763,33.70052 109.519043,33.8632812 C109.771323,34.0260425 109.960937,34.2701807 110.087891,34.5957031 C110.257162,34.2929672 110.4777,34.0545256 110.749512,33.8803711 C111.021323,33.7062166 111.339516,33.6191406 111.704102,33.6191406 C112.241214,33.6191406 112.666014,33.8038719 112.978516,34.1733398 C113.291017,34.5428078 113.447266,35.0986291 113.447266,35.8408203 L113.447266,39 L112.485352,39 L112.485352,35.8310547 C112.485352,35.3102187 112.395834,34.9415701 112.216797,34.7250977 C112.03776,34.5086252 111.770835,34.4003906 111.416016,34.4003906 C111.087238,34.4003906 110.821127,34.5143218 110.617676,34.7421875 C110.414224,34.9700532 110.294597,35.2581363 110.258789,35.6064453 L110.258789,39 L109.291992,39 L109.291992,35.8310547 C109.291992,35.3362605 109.200033,34.9741222 109.016113,34.7446289 C108.832193,34.5151356 108.56771,34.4003906 108.222656,34.4003906 C107.929686,34.4003906 107.688803,34.4606114 107.5,34.5810547 C107.311197,34.701498 107.166342,34.8707671 107.06543,35.0888672 L107.06543,39 L106.103516,39 L106.103516,33.7167969 L106.962891,33.7167969 Z M118.09082,39 C118.058268,38.840494 118.03304,38.6997076 118.015137,38.5776367 C117.997233,38.4555658 117.986654,38.3326829 117.983398,38.2089844 C117.804361,38.4628919 117.570802,38.6752921 117.282715,38.8461914 C116.994627,39.0170907 116.684572,39.1025391 116.352539,39.1025391 C115.802406,39.1025391 115.383302,38.9617527 115.095215,38.6801758 C114.807127,38.3985989 114.663086,38.0104191 114.663086,37.515625 C114.663086,37.0110652 114.867348,36.6163751 115.275879,36.331543 C115.68441,36.0467108 116.238603,35.9042969 116.938477,35.9042969 L117.983398,35.9042969 L117.983398,35.3818359 C117.983398,35.0725896 117.888998,34.8276376 117.700195,34.6469727 C117.511392,34.4663077 117.244468,34.3759766 116.899414,34.3759766 C116.586912,34.3759766 116.334636,34.4541008 116.142578,34.6103516 C115.95052,34.7666023 115.854492,34.953775 115.854492,35.171875 L114.941406,35.1816406 L114.931641,35.1523438 C114.908854,34.7682272 115.088703,34.4166683 115.471191,34.0976562 C115.85368,33.7786442 116.347653,33.6191406 116.953125,33.6191406 C117.552086,33.6191406 118.033852,33.7713201 118.398438,34.0756836 C118.763023,34.3800471 118.945312,34.818682 118.945312,35.3916016 L118.945312,37.9355469 C118.945312,38.1243499 118.955078,38.3066397 118.974609,38.4824219 C118.994141,38.658204 119.029948,38.8307283 119.082031,39 L118.09082,39 Z M116.494141,38.296875 C116.84245,38.296875 117.156574,38.2073577 117.436523,38.0283203 C117.716473,37.849283 117.898763,37.6442069 117.983398,37.4130859 L117.983398,36.5537109 L116.904297,36.5537109 C116.516925,36.5537109 116.20687,36.6513662 115.974121,36.8466797 C115.741373,37.0419932 115.625,37.2714831 115.625,37.5351562 C115.625,37.7695324 115.698241,37.9550774 115.844727,38.0917969 C115.991212,38.2285163 116.207681,38.296875 116.494141,38.296875 Z M120.170898,36.4560547 C120.170898,35.6064411 120.352374,34.9212266 120.715332,34.4003906 C121.07829,33.8795547 121.585283,33.6191406 122.236328,33.6191406 C122.571616,33.6191406 122.86621,33.6866855 123.120117,33.8217773 C123.374025,33.9568692 123.587239,34.1513659 123.759766,34.4052734 L123.876953,33.7167969 L124.643555,33.7167969 L124.643555,39.0292969 C124.643555,39.7063836 124.446617,40.2263979 124.052734,40.5893555 C123.658852,40.952313 123.090824,41.1337891 122.348633,41.1337891 C122.094725,41.1337891 121.820477,41.0987959 121.525879,41.0288086 C121.231281,40.9588213 120.971681,40.8636074 120.74707,40.7431641 L120.893555,39.9960938 C121.079102,40.0937505 121.302896,40.1726885 121.564941,40.2329102 C121.826987,40.2931318 122.08496,40.3232422 122.338867,40.3232422 C122.80762,40.3232422 123.148599,40.2166352 123.361816,40.003418 C123.575034,39.7902008 123.681641,39.465497 123.681641,39.0292969 L123.681641,38.4287109 C123.509114,38.6500662 123.30241,38.8177078 123.061523,38.9316406 C122.820637,39.0455735 122.542319,39.1025391 122.226562,39.1025391 C121.582028,39.1025391 121.07829,38.8689802 120.715332,38.4018555 C120.352374,37.9347307 120.170898,37.3203163 120.170898,36.5585938 L120.170898,36.4560547 Z M121.132812,36.5585938 C121.132812,37.0891954 121.241861,37.5156234 121.459961,37.8378906 C121.678061,38.1601579 122.014972,38.3212891 122.470703,38.3212891 C122.760418,38.3212891 123.002929,38.2553718 123.198242,38.1235352 C123.393556,37.9916986 123.554687,37.8053397 123.681641,37.5644531 L123.681641,35.1328125 C123.557942,34.908202 123.396811,34.7299811 123.198242,34.5981445 C122.999673,34.4663079 122.760418,34.4003906 122.480469,34.4003906 C122.021482,34.4003906 121.68213,34.5908184 121.462402,34.9716797 C121.242675,35.352541 121.132812,35.8473277 121.132812,36.4560547 L121.132812,36.5585938 Z M128.212891,39.1025391 C127.454423,39.1025391 126.862795,38.8600285 126.437988,38.375 C126.013181,37.8899715 125.800781,37.2519571 125.800781,36.4609375 L125.800781,36.2460938 C125.800781,35.4876264 126.019692,34.8601913 126.45752,34.3637695 C126.895347,33.8673478 127.43001,33.6191406 128.061523,33.6191406 C128.767907,33.6191406 129.297687,33.838865 129.650879,34.2783203 C130.004071,34.7177756 130.180664,35.3020797 130.180664,36.03125 L130.180664,36.5390625 L126.801758,36.5390625 L126.787109,36.5634766 C126.787109,37.0940782 126.904296,37.5245752 127.138672,37.8549805 C127.373048,38.1853858 127.731117,38.3505859 128.212891,38.3505859 C128.538413,38.3505859 128.824055,38.3041997 129.069824,38.2114258 C129.315594,38.1186519 129.526366,37.9908862 129.702148,37.828125 L130.078125,38.453125 C129.889322,38.6354176 129.640301,38.7892246 129.331055,38.9145508 C129.021808,39.0398769 128.649091,39.1025391 128.212891,39.1025391 Z M128.061523,34.3759766 C127.726235,34.3759766 127.448732,34.5053698 127.229004,34.7641602 C127.009276,35.0229505 126.875,35.3541646 126.826172,35.7578125 L126.835938,35.7822266 L129.21875,35.7822266 L129.21875,35.7041016 C129.21875,35.3199851 129.12435,35.0026054 128.935547,34.7519531 C128.746744,34.5013008 128.455406,34.3759766 128.061523,34.3759766 Z" id="Useyourownimage" fill="#6A6A6A" fill-rule="nonzero"></path>
                        </g>
                    </g>
                </g>
            </g>
        </g>
    </g>
</svg>