<?xml version="1.0" encoding="UTF-8"?>
<svg width="170px" height="55px" viewBox="0 0 170 55" version="1.1" xmlns="http://www.w3.org/2000/svg" xmlns:xlink="http://www.w3.org/1999/xlink">
    <!-- Generator: Sketch 55.2 (78181) - https://sketchapp.com -->
    <title>Pic_Text_Pressed</title>
    <desc>Created with Sketch.</desc>
    <g id="Make" stroke="none" stroke-width="1" fill="none" fill-rule="evenodd">
        <g id="C-01&gt;Make-Graphic&gt;JP复制备份" transform="translate(-12.000000, -258.000000)">
            <g id="Content" transform="translate(12.000000, 64.000000)">
                <g id="01_PICTURE">
                    <g id="Pic_Text_Normal" transform="translate(0.000000, 170.000000)">
                        <g id="Pic_Text_Pressed" transform="translate(0.000000, 24.000000)">
                            <g>
                                <rect id="矩形" fill-opacity="0.01" fill="#FFFFFF" x="0" y="0" width="170" height="55"></rect>
                                <path d="M54.4780273,12.6171875 L54.4780273,17 L52.0541992,17 L52.0541992,4.9140625 L56.6777344,4.9140625 C58.0667387,4.9140625 59.159664,5.26822562 59.956543,5.9765625 C60.753422,6.68489938 61.1518555,7.61734448 61.1518555,8.77392578 C61.1518555,9.93050708 60.753422,10.8601853 59.956543,11.5629883 C59.159664,12.2657913 58.0667387,12.6171875 56.6777344,12.6171875 L54.4780273,12.6171875 Z M54.4780273,10.7495117 L56.6777344,10.7495117 C57.352868,10.7495117 57.8647444,10.5655129 58.2133789,10.1975098 C58.5620135,9.82950662 58.7363281,9.36051717 58.7363281,8.79052734 C58.7363281,8.20946975 58.5633969,7.7294127 58.2175293,7.3503418 C57.8716617,6.97127089 57.3584018,6.78173828 56.6777344,6.78173828 L54.4780273,6.78173828 L54.4780273,10.7495117 Z M65.4765625,17 L63.0527344,17 L63.0527344,4.9140625 L65.4765625,4.9140625 L65.4765625,17 Z M76.9399414,12.9990234 L76.956543,13.0488281 C76.9786785,14.3382226 76.5857788,15.3481409 75.777832,16.0786133 C74.9698853,16.8090857 73.8548248,17.1743164 72.4326172,17.1743164 C70.9827401,17.1743164 69.8123417,16.7080939 68.9213867,15.7756348 C68.0304317,14.8431757 67.5849609,13.638191 67.5849609,12.1606445 L67.5849609,9.76171875 C67.5849609,8.28970618 68.0193641,7.08472149 68.8881836,6.14672852 C69.757003,5.20873554 70.8969656,4.73974609 72.3081055,4.73974609 C73.780118,4.73974609 74.9311482,5.09944302 75.7612305,5.81884766 C76.5913127,6.53825229 76.9952801,7.55093748 76.9731445,8.85693359 L76.956543,8.90673828 L74.5991211,8.90673828 C74.5991211,8.13199482 74.4123554,7.5550963 74.0388184,7.17602539 C73.6652813,6.79695448 73.0883828,6.60742188 72.3081055,6.60742188 C71.5831669,6.60742188 71.017336,6.89932976 70.6105957,7.4831543 C70.2038554,8.06697883 70.0004883,8.82095892 70.0004883,9.74511719 L70.0004883,12.1606445 C70.0004883,13.0903367 70.214923,13.8484671 70.6437988,14.4350586 C71.0726747,15.0216501 71.6689415,15.3149414 72.4326172,15.3149414 C73.1575557,15.3149414 73.6984845,15.1254088 74.0554199,14.7463379 C74.4123553,14.367267 74.5908203,13.7848347 74.5908203,12.9990234 L76.9399414,12.9990234 Z M86.8759766,6.78173828 L83.4228516,6.78173828 L83.4228516,17 L80.9990234,17 L80.9990234,6.78173828 L77.5957031,6.78173828 L77.5957031,4.9140625 L86.8759766,4.9140625 L86.8759766,6.78173828 Z M97.7832031,4.9140625 L97.7832031,12.824707 C97.7832031,14.186042 97.3321985,15.2512982 96.4301758,16.0205078 C95.528153,16.7897174 94.3577546,17.1743164 92.9189453,17.1743164 C91.4856699,17.1743164 90.3221887,16.7897174 89.4284668,16.0205078 C88.5347449,15.2512982 88.0878906,14.186042 88.0878906,12.824707 L88.0878906,4.9140625 L90.5200195,4.9140625 L90.5200195,12.824707 C90.5200195,13.6326538 90.7358377,14.2496723 91.1674805,14.6757812 C91.5991233,15.1018902 92.182939,15.3149414 92.9189453,15.3149414 C93.6660194,15.3149414 94.2581358,15.1018902 94.6953125,14.6757812 C95.1324892,14.2496723 95.3510742,13.6326538 95.3510742,12.824707 L95.3510742,4.9140625 L97.7832031,4.9140625 Z M102.307129,12.1689453 L102.307129,17 L99.8833008,17 L99.8833008,4.9140625 L104.066895,4.9140625 C105.444831,4.9140625 106.522538,5.22810558 107.300049,5.85620117 C108.077559,6.48429676 108.466309,7.36002042 108.466309,8.48339844 C108.466309,9.1031932 108.301678,9.63858824 107.972412,10.0895996 C107.643146,10.540611 107.163089,10.9044583 106.532227,11.1811523 C107.246097,11.3914399 107.759357,11.7428361 108.072021,12.2353516 C108.384686,12.727867 108.541016,13.3365849 108.541016,14.0615234 L108.541016,14.949707 C108.541016,15.2872738 108.586669,15.6400535 108.677979,16.0080566 C108.769288,16.3760598 108.925617,16.6485994 109.146973,16.8256836 L109.146973,17 L106.648438,17 C106.427082,16.8229158 106.284587,16.5296244 106.220947,16.1201172 C106.157308,15.7106099 106.125488,15.3149433 106.125488,14.9331055 L106.125488,14.078125 C106.125488,13.4749319 105.960858,13.0059424 105.631592,12.6711426 C105.302326,12.3363427 104.836103,12.1689453 104.23291,12.1689453 L102.307129,12.1689453 Z M102.307129,10.3012695 L104.025391,10.3012695 C104.706058,10.3012695 105.212401,10.1573908 105.544434,9.86962891 C105.876467,9.58186705 106.04248,9.15576454 106.04248,8.59130859 C106.04248,8.03792041 105.875083,7.5979834 105.540283,7.27148438 C105.205483,6.94498535 104.714359,6.78173828 104.066895,6.78173828 L102.307129,6.78173828 L102.307129,10.3012695 Z M117.62207,11.6875 L113.139648,11.6875 L113.139648,15.140625 L118.46875,15.140625 L118.46875,17 L110.71582,17 L110.71582,4.9140625 L118.452148,4.9140625 L118.452148,6.78173828 L113.139648,6.78173828 L113.139648,9.81982422 L117.62207,9.81982422 L117.62207,11.6875 Z" id="PICTURE" fill="#6A6A6A" fill-rule="nonzero"></path>
                                <path d="M18.499,35.04 L18.355,35.04 C17.779,35.04 17.266,35.166 16.843,35.319 L16.843,35.67 C16.843,36.237 16.906,36.777 16.996,37.29 C17.581,36.741 18.112,36.021 18.499,35.04 Z M16.213,35.751 L16.213,35.598 C15.349,36.093 14.692,36.975 14.692,37.695 C14.692,38.055 14.863,38.235 15.196,38.235 C15.538,38.235 15.97,38.082 16.42,37.767 C16.294,37.128 16.213,36.417 16.213,35.751 Z M19.345,34.545 L19.336,34.581 C20.452,34.878 21.118,35.706 21.118,36.687 C21.118,37.965 20.272,39.081 18.202,39.405 L17.815,38.802 C19.417,38.631 20.407,37.803 20.407,36.651 C20.407,35.976 19.966,35.364 19.129,35.139 C18.634,36.399 17.914,37.38 17.158,38.019 C17.23,38.271 17.302,38.514 17.374,38.739 L16.717,38.937 C16.672,38.784 16.618,38.622 16.573,38.442 C16.087,38.739 15.556,38.928 15.079,38.928 C14.476,38.928 14.017,38.568 14.017,37.803 C14.017,36.66 15.016,35.481 16.24,34.923 C16.258,34.473 16.303,34.023 16.339,33.609 C16.15,33.618 15.97,33.618 15.799,33.618 C15.412,33.618 14.719,33.582 14.359,33.564 L14.341,32.889 C14.647,32.934 15.43,32.997 15.808,32.997 C16.006,32.997 16.204,32.997 16.402,32.988 C16.429,32.727 16.456,32.493 16.474,32.304 C16.492,32.16 16.501,31.989 16.501,31.881 L17.257,31.899 C17.212,32.016 17.176,32.178 17.149,32.295 C17.113,32.484 17.077,32.709 17.041,32.97 C18.166,32.916 19.246,32.799 20.164,32.592 L20.173,33.267 C19.237,33.42 18.049,33.537 16.96,33.591 C16.924,33.933 16.897,34.311 16.87,34.689 C17.365,34.536 17.914,34.455 18.364,34.455 C18.472,34.455 18.58,34.455 18.688,34.464 L18.715,34.383 C18.751,34.248 18.796,34.014 18.805,33.87 L19.525,34.05 C19.471,34.167 19.399,34.41 19.345,34.545 Z M30.352,34.284 L29.947,34.878 C29.47,34.473 28.507,33.924 27.913,33.654 L28.264,33.096 C28.912,33.384 29.929,33.96 30.352,34.284 Z M27.112,32.934 L27.13,33.6 C26.662,33.735 26.104,33.852 25.519,33.924 C25.078,35.184 24.286,36.732 23.575,37.695 L22.873,37.335 C23.62,36.471 24.376,35.049 24.781,34.005 C24.52,34.023 24.259,34.032 23.998,34.032 C23.665,34.032 23.296,34.023 22.963,34.005 L22.909,33.33 C23.242,33.375 23.62,33.393 24.007,33.393 C24.322,33.393 24.655,33.375 24.997,33.348 C25.132,32.853 25.258,32.286 25.276,31.809 L26.077,31.881 C25.987,32.205 25.87,32.745 25.726,33.258 C26.194,33.186 26.662,33.078 27.112,32.934 Z M27.58,37.911 C27.58,37.794 27.58,37.65 27.571,37.488 C27.292,37.407 26.986,37.362 26.671,37.362 C26.014,37.362 25.582,37.659 25.582,38.064 C25.582,38.478 25.915,38.757 26.608,38.757 C27.337,38.757 27.58,38.352 27.58,37.911 Z M27.454,34.635 L28.174,34.635 C28.147,35.004 28.156,35.265 28.165,35.598 C28.174,35.922 28.21,36.507 28.228,37.047 C28.993,37.326 29.614,37.767 30.073,38.163 L29.686,38.775 C29.308,38.433 28.831,38.037 28.255,37.758 C28.264,37.893 28.264,38.019 28.264,38.118 C28.264,38.829 27.796,39.414 26.698,39.414 C25.717,39.414 24.916,39.009 24.916,38.127 C24.916,37.308 25.69,36.777 26.698,36.777 C26.995,36.777 27.283,36.804 27.544,36.858 C27.517,36.129 27.472,35.256 27.454,34.635 Z M35.833,35.328 L35.833,34.653 C36.301,34.608 36.886,34.581 37.462,34.581 C37.975,34.581 38.524,34.599 39.001,34.653 L38.983,35.337 C38.533,35.283 38.002,35.229 37.48,35.229 C36.922,35.229 36.382,35.265 35.833,35.328 Z M36.409,32.988 L36.409,33.699 C35.824,33.834 35.185,33.933 34.564,34.005 C34.483,34.392 34.384,34.806 34.285,35.184 C33.961,36.462 33.358,38.298 32.89,39.27 L32.098,39.009 C32.629,38.091 33.259,36.282 33.592,35.022 C33.673,34.725 33.745,34.401 33.817,34.077 C33.529,34.095 33.259,34.104 33.007,34.104 C32.611,34.104 32.287,34.086 31.972,34.068 L31.945,33.366 C32.368,33.42 32.692,33.429 33.016,33.429 C33.313,33.429 33.628,33.411 33.97,33.393 C34.033,33.069 34.078,32.79 34.105,32.61 C34.132,32.358 34.15,32.061 34.132,31.872 L35.005,31.944 C34.942,32.142 34.879,32.475 34.843,32.655 L34.708,33.312 C35.284,33.24 35.869,33.132 36.409,32.988 Z M35.383,36.759 L36.058,36.822 C35.977,37.119 35.932,37.398 35.932,37.623 C35.932,38.046 36.13,38.451 37.399,38.451 C37.975,38.451 38.596,38.379 39.136,38.28 L39.109,39.009 C38.632,39.072 38.038,39.126 37.39,39.126 C35.986,39.126 35.248,38.694 35.248,37.812 C35.248,37.47 35.302,37.137 35.383,36.759 Z M42.439,37.74 C42.835,37.74 43.33,37.146 43.789,35.643 C44.014,34.905 44.185,34.059 44.284,33.24 C42.574,33.456 41.53,34.923 41.53,36.12 C41.53,37.245 42.052,37.74 42.439,37.74 Z M44.788,39.234 L44.374,38.559 C44.653,38.541 44.923,38.496 45.139,38.451 C46.282,38.199 47.398,37.353 47.398,35.814 C47.398,34.464 46.543,33.357 45.031,33.231 C44.914,34.059 44.743,34.959 44.5,35.796 C43.951,37.623 43.24,38.568 42.412,38.568 C41.62,38.568 40.819,37.65 40.819,36.183 C40.819,34.248 42.547,32.556 44.725,32.556 C46.813,32.556 48.145,34.032 48.145,35.832 C48.145,37.704 46.912,38.955 44.788,39.234 Z M51.583,31.503 L52.222,31.71 C51.979,32.358 51.655,33.015 51.304,33.636 L51.304,39.675 L50.638,39.675 L50.638,34.671 C50.359,35.067 50.053,35.427 49.747,35.742 C49.684,35.589 49.486,35.22 49.36,35.076 C50.251,34.212 51.079,32.871 51.583,31.503 Z M57.622,33.609 L54.85,33.609 L54.85,34.896 L57.415,34.896 L57.415,35.517 L54.85,35.517 L54.85,36.876 L57.541,36.876 L57.541,37.506 L54.85,37.506 L54.85,39.684 L54.175,39.684 L54.175,33.609 L53.554,33.609 C53.167,34.329 52.726,34.977 52.276,35.481 C52.168,35.364 51.907,35.139 51.754,35.031 C52.564,34.194 53.293,32.898 53.734,31.584 L54.373,31.755 C54.229,32.169 54.058,32.574 53.878,32.97 L57.622,32.97 L57.622,33.609 Z M59.476,35.391 C59.737,35.346 60.034,35.265 60.304,35.175 C60.943,34.977 62.401,34.446 63.454,34.446 C64.714,34.446 65.632,35.202 65.632,36.417 C65.632,38.136 63.976,39.018 61.573,39.162 L61.285,38.469 C63.211,38.406 64.903,37.866 64.903,36.408 C64.903,35.652 64.309,35.103 63.4,35.103 C62.293,35.103 60.349,35.913 59.773,36.138 L59.476,35.391 Z M71.833,35.328 L71.833,34.653 C72.301,34.608 72.886,34.581 73.462,34.581 C73.975,34.581 74.524,34.599 75.001,34.653 L74.983,35.337 C74.533,35.283 74.002,35.229 73.48,35.229 C72.922,35.229 72.382,35.265 71.833,35.328 Z M72.409,32.988 L72.409,33.699 C71.824,33.834 71.185,33.933 70.564,34.005 C70.483,34.392 70.384,34.806 70.285,35.184 C69.961,36.462 69.358,38.298 68.89,39.27 L68.098,39.009 C68.629,38.091 69.259,36.282 69.592,35.022 C69.673,34.725 69.745,34.401 69.817,34.077 C69.529,34.095 69.259,34.104 69.007,34.104 C68.611,34.104 68.287,34.086 67.972,34.068 L67.945,33.366 C68.368,33.42 68.692,33.429 69.016,33.429 C69.313,33.429 69.628,33.411 69.97,33.393 C70.033,33.069 70.078,32.79 70.105,32.61 C70.132,32.358 70.15,32.061 70.132,31.872 L71.005,31.944 C70.942,32.142 70.879,32.475 70.843,32.655 L70.708,33.312 C71.284,33.24 71.869,33.132 72.409,32.988 Z M71.383,36.759 L72.058,36.822 C71.977,37.119 71.932,37.398 71.932,37.623 C71.932,38.046 72.13,38.451 73.399,38.451 C73.975,38.451 74.596,38.379 75.136,38.28 L75.109,39.009 C74.632,39.072 74.038,39.126 73.39,39.126 C71.986,39.126 71.248,38.694 71.248,37.812 C71.248,37.47 71.302,37.137 71.383,36.759 Z M83.551,38.487 L83.551,33.582 L84.199,33.582 L84.199,39.657 L83.551,39.657 L83.551,39.126 L77.476,39.126 L77.476,39.684 L76.828,39.684 L76.828,33.582 L77.476,33.582 L77.476,38.487 L83.551,38.487 Z M82.048,35.418 L82.048,34.248 L80.761,34.248 L80.761,35.418 L82.048,35.418 Z M82.048,37.137 L82.048,35.958 L80.761,35.958 L80.761,37.137 L82.048,37.137 Z M78.898,35.958 L78.898,37.137 L80.176,37.137 L80.176,35.958 L78.898,35.958 Z M78.898,34.248 L78.898,35.418 L80.176,35.418 L80.176,34.248 L78.898,34.248 Z M76.549,32.061 L84.451,32.061 L84.451,32.682 L80.797,32.682 L80.797,33.681 L82.633,33.681 L82.633,37.704 L78.331,37.704 L78.331,33.681 L80.131,33.681 L80.131,32.682 L76.549,32.682 L76.549,32.061 Z M87.115,31.521 L87.736,31.692 C87.538,32.286 87.304,32.88 87.034,33.447 L87.034,39.684 L86.395,39.684 L86.395,34.644 C86.125,35.094 85.846,35.499 85.549,35.85 C85.486,35.688 85.306,35.337 85.198,35.175 C85.972,34.275 86.683,32.907 87.115,31.521 Z M88.654,33.726 L88.654,34.743 L90.301,34.743 L90.301,33.726 L88.654,33.726 Z M91.021,32.556 L89.275,32.556 C89.104,32.781 88.924,33.006 88.717,33.231 L90.526,33.231 C90.706,33.042 90.877,32.79 91.021,32.556 Z M92.632,34.743 L92.632,33.726 L90.913,33.726 L90.913,34.743 L92.632,34.743 Z M93.064,35.499 L93.532,35.895 C93.1,36.282 92.515,36.696 92.056,36.975 C92.47,37.758 93.01,38.397 93.676,38.766 C93.532,38.892 93.325,39.135 93.235,39.297 C92.029,38.541 91.246,37.011 90.823,35.22 L90.607,35.22 C90.436,35.364 90.247,35.499 90.04,35.625 C91.534,36.876 91.552,38.865 90.823,39.414 C90.562,39.63 90.319,39.684 89.959,39.693 C89.77,39.693 89.518,39.684 89.266,39.666 C89.257,39.513 89.212,39.261 89.104,39.099 C89.392,39.126 89.662,39.135 89.833,39.135 C90.058,39.135 90.22,39.117 90.382,38.982 C90.634,38.802 90.76,38.334 90.67,37.776 C89.887,38.433 88.735,39.099 87.781,39.459 C87.691,39.297 87.538,39.09 87.403,38.964 C88.465,38.64 89.797,37.902 90.517,37.2 C90.454,37.02 90.364,36.84 90.247,36.66 C89.608,37.155 88.672,37.65 87.916,37.929 C87.844,37.794 87.7,37.587 87.574,37.47 C88.357,37.236 89.365,36.759 89.977,36.282 C89.86,36.147 89.734,36.021 89.581,35.895 C89.032,36.201 88.429,36.471 87.889,36.669 C87.799,36.543 87.61,36.318 87.493,36.201 C88.258,35.976 89.104,35.625 89.752,35.22 L88.042,35.22 L88.042,33.879 C87.961,33.951 87.871,34.023 87.781,34.095 C87.664,33.96 87.448,33.789 87.286,33.717 C88.213,33.06 88.879,32.178 89.248,31.485 L89.887,31.602 C89.806,31.746 89.716,31.899 89.617,32.052 L91.381,32.052 L91.498,32.016 L91.912,32.295 C91.732,32.61 91.498,32.943 91.264,33.231 L93.262,33.231 L93.262,35.22 L91.399,35.22 C91.516,35.67 91.66,36.102 91.831,36.498 C92.263,36.21 92.749,35.805 93.064,35.499 Z M99.328,37.785 L98.635,37.785 C98.662,37.443 98.671,36.867 98.671,36.399 C97.843,36.849 97.267,37.308 97.267,37.893 C97.267,38.595 97.96,38.694 98.878,38.694 C99.571,38.694 100.525,38.613 101.308,38.478 L101.29,39.207 C100.615,39.288 99.625,39.351 98.851,39.351 C97.573,39.351 96.547,39.081 96.547,37.992 C96.547,36.939 97.609,36.273 98.644,35.733 C98.554,35.364 98.23,35.184 97.843,35.184 C97.258,35.184 96.718,35.472 96.304,35.841 C96.052,36.084 95.8,36.417 95.494,36.777 L94.882,36.318 C96.016,35.22 96.601,34.302 96.934,33.6 L96.565,33.6 C96.187,33.6 95.584,33.582 95.098,33.546 L95.098,32.871 C95.575,32.925 96.196,32.961 96.601,32.961 C96.79,32.961 96.979,32.961 97.186,32.952 C97.312,32.556 97.393,32.151 97.411,31.845 L98.149,31.908 C98.086,32.16 98.005,32.529 97.879,32.934 C98.788,32.889 99.76,32.808 100.606,32.664 L100.597,33.33 C99.715,33.465 98.617,33.546 97.645,33.582 C97.447,34.041 97.168,34.536 96.844,34.95 C97.168,34.743 97.681,34.617 98.077,34.617 C98.653,34.617 99.121,34.896 99.256,35.427 C99.868,35.139 100.408,34.923 100.876,34.707 C101.146,34.59 101.362,34.482 101.614,34.356 L101.902,35.031 C101.677,35.094 101.353,35.22 101.119,35.31 C100.615,35.508 99.976,35.769 99.301,36.084 C99.31,36.597 99.319,37.353 99.328,37.785 Z M109.732,32.988 L110.119,33.645 C109.921,33.771 109.696,33.888 109.435,34.023 C108.841,34.329 107.599,34.914 106.726,35.49 C105.898,36.03 105.403,36.615 105.403,37.29 C105.403,38.028 106.105,38.487 107.509,38.487 C108.481,38.487 109.669,38.361 110.362,38.181 L110.362,38.991 C109.687,39.108 108.661,39.207 107.545,39.207 C105.871,39.207 104.656,38.703 104.656,37.371 C104.656,36.453 105.241,35.724 106.195,35.058 C105.781,34.329 105.313,33.285 104.899,32.313 L105.61,32.025 C105.97,32.997 106.42,33.96 106.807,34.662 C107.644,34.158 108.607,33.69 109.093,33.411 C109.354,33.267 109.543,33.15 109.732,32.988 Z M114.277,31.899 L115.069,31.926 C114.88,32.583 114.709,33.78 114.655,34.401 C115.006,33.483 115.942,32.376 117.067,32.376 C118.255,32.376 119.11,33.564 119.11,35.436 C119.11,37.911 117.553,39 115.339,39.405 L114.916,38.757 C116.851,38.46 118.363,37.686 118.363,35.445 C118.363,34.041 117.895,33.033 116.95,33.033 C115.843,33.033 114.817,34.644 114.709,35.814 C114.664,36.156 114.664,36.462 114.727,36.903 L114.025,36.957 C113.98,36.624 113.935,36.12 113.935,35.544 C113.935,34.698 114.097,33.384 114.205,32.664 C114.241,32.385 114.268,32.115 114.277,31.899 Z M123.133,33.429 L123.133,32.691 C123.781,32.772 124.6,32.808 125.491,32.808 C126.346,32.808 127.255,32.745 127.894,32.682 L127.894,33.42 C127.291,33.465 126.31,33.528 125.491,33.528 C124.6,33.528 123.844,33.492 123.133,33.429 Z M122.764,36.219 L123.502,36.291 C123.394,36.651 123.322,36.975 123.322,37.308 C123.322,37.974 124.006,38.442 125.428,38.442 C126.661,38.442 127.804,38.307 128.479,38.1 L128.488,38.874 C127.849,39.045 126.715,39.18 125.446,39.18 C123.637,39.18 122.584,38.586 122.584,37.47 C122.584,37.002 122.683,36.588 122.764,36.219 Z M132.394,37.578 C132.709,37.173 133.042,36.363 133.348,35.67 C132.07,35.778 131.341,36.543 131.341,37.299 C131.341,37.677 131.593,37.893 131.854,37.893 C132.061,37.893 132.205,37.821 132.394,37.578 Z M138.496,36.786 L138.172,37.542 C137.902,37.308 137.587,37.065 137.245,36.84 C136.876,38.001 136.192,38.847 134.896,39.495 L134.302,39 C135.715,38.406 136.345,37.452 136.633,36.48 C135.886,36.075 135.022,35.76 134.095,35.679 C133.753,36.462 133.312,37.506 132.97,38.001 C132.655,38.451 132.304,38.622 131.845,38.622 C131.188,38.622 130.684,38.145 130.684,37.398 C130.684,36.084 131.899,35.076 133.645,35.031 C133.969,34.329 134.293,33.564 134.572,33.006 C134.221,33.033 133.141,33.078 132.727,33.105 C132.529,33.114 132.277,33.132 132.07,33.168 L132.034,32.412 C132.259,32.439 132.52,32.448 132.709,32.448 C133.177,32.448 134.347,32.385 134.725,32.358 C134.887,32.34 135.04,32.304 135.157,32.259 L135.616,32.628 C135.526,32.727 135.445,32.808 135.382,32.925 C135.13,33.321 134.752,34.23 134.374,35.067 C135.265,35.157 136.084,35.436 136.795,35.778 C136.831,35.553 136.849,35.328 136.867,35.112 C136.885,34.869 136.894,34.581 136.876,34.293 L137.614,34.374 C137.578,35.013 137.524,35.58 137.425,36.102 C137.848,36.336 138.208,36.579 138.496,36.786 Z M143.509,37.956 C143.509,37.803 143.5,37.596 143.5,37.353 C143.221,37.299 142.933,37.272 142.636,37.272 C141.79,37.272 141.331,37.596 141.331,38.001 C141.331,38.415 141.682,38.721 142.564,38.721 C143.077,38.721 143.509,38.568 143.509,37.956 Z M146.758,38.262 L146.353,38.892 C145.831,38.415 145.093,37.875 144.202,37.551 C144.211,37.776 144.22,37.974 144.22,38.109 C144.22,38.721 143.806,39.36 142.645,39.36 C141.367,39.36 140.656,38.901 140.656,38.037 C140.656,37.227 141.439,36.678 142.726,36.678 C142.987,36.678 143.23,36.696 143.473,36.732 C143.455,36.336 143.437,35.913 143.428,35.544 L142.933,35.544 C142.321,35.544 141.331,35.49 140.692,35.418 L140.692,34.734 C141.295,34.842 142.348,34.905 142.933,34.905 L143.41,34.905 L143.41,33.627 L142.969,33.627 C142.348,33.627 141.403,33.555 140.872,33.492 L140.872,32.826 C141.412,32.925 142.366,32.997 142.96,32.997 L143.419,32.997 L143.419,32.412 C143.419,32.268 143.41,32.007 143.392,31.881 L144.157,31.881 C144.13,32.043 144.121,32.214 144.112,32.475 C144.103,32.583 144.103,32.754 144.103,32.97 C144.877,32.943 145.606,32.871 146.389,32.754 L146.398,33.411 C145.696,33.483 144.931,33.555 144.094,33.6 L144.094,34.878 C144.949,34.842 145.768,34.761 146.569,34.644 L146.578,35.319 C145.741,35.427 144.949,35.49 144.103,35.526 C144.121,35.985 144.148,36.453 144.166,36.876 C145.345,37.2 146.254,37.857 146.758,38.262 Z M152.32,36.894 C152.842,36.894 153.184,36.471 153.103,35.625 C152.959,35.238 152.662,35.076 152.311,35.076 C151.852,35.076 151.411,35.436 151.411,36.012 C151.411,36.57 151.825,36.894 152.32,36.894 Z M153.697,33.672 L153.58,33.672 C153.58,34.176 153.589,34.725 153.598,35.13 C153.787,35.436 153.886,35.832 153.886,36.273 C153.886,37.479 153.301,38.82 151.231,39.441 L150.61,38.838 C151.78,38.568 152.608,38.082 152.977,37.29 C152.761,37.443 152.509,37.515 152.212,37.515 C151.456,37.515 150.736,36.984 150.736,36.021 C150.736,35.139 151.465,34.464 152.311,34.464 C152.527,34.464 152.725,34.5 152.905,34.563 C152.905,34.302 152.905,33.987 152.896,33.681 C151.546,33.69 150.034,33.753 148.918,33.834 L148.9,33.132 C149.89,33.114 151.564,33.06 152.887,33.042 C152.887,32.79 152.878,32.583 152.869,32.457 C152.86,32.268 152.833,32.007 152.815,31.899 L153.634,31.899 L153.589,32.457 C153.589,32.592 153.58,32.799 153.58,33.033 L153.715,33.033 C154.795,33.033 155.893,33.042 156.325,33.042 L156.316,33.717 C155.812,33.69 155.002,33.672 153.697,33.672 Z" id="あなたの作った画像をとりこみます" fill="#6A6A6A" fill-rule="nonzero"></path>
                            </g>
                        </g>
                    </g>
                </g>
            </g>
        </g>
    </g>
</svg>