<?xml version="1.0" encoding="UTF-8"?>
<svg width="170px" height="100px" viewBox="0 0 170 100" version="1.1" xmlns="http://www.w3.org/2000/svg" xmlns:xlink="http://www.w3.org/1999/xlink">
    <!-- Generator: Sketch 54.1 (76490) - https://sketchapp.com -->
    <title>Pic_Text_Normal</title>
    <desc>Created with Sketch.</desc>
    <g id="Make" stroke="none" stroke-width="1" fill="none" fill-rule="evenodd">
        <g id="C-01&gt;Make-Graphic&gt;JP" transform="translate(-12.000000, -234.000000)">
            <g id="Content" transform="translate(12.000000, 64.000000)">
                <g id="01_PICTURE">
                    <g id="Pic_Text_Normal" transform="translate(0.000000, 170.000000)">
                        <rect id="bg" fill="#FFFFFF" x="0" y="0" width="170" height="100"></rect>
                        <g transform="translate(14.000000, 28.000000)" fill="#1B1B1B" fill-rule="nonzero">
                            <path d="M37.2295,6.574 L39.3035,6.574 C39.6095015,6.574 39.9041652,6.55133356 40.1875,6.506 C40.4708347,6.46066644 40.7201656,6.37283398 40.9355,6.2425 C41.1508344,6.11216601 41.323666,5.92800119 41.454,5.69 C41.584334,5.45199881 41.6495,5.14033526 41.6495,4.755 C41.6495,4.36966474 41.584334,4.05800119 41.454,3.82 C41.323666,3.58199881 41.1508344,3.39783398 40.9355,3.2675 C40.7201656,3.13716601 40.4708347,3.04933356 40.1875,3.004 C39.9041652,2.95866644 39.6095015,2.936 39.3035,2.936 L37.2295,2.936 L37.2295,6.574 Z M34.5605,0.862 L40.0345,0.862 C40.7938371,0.862 41.4398307,0.972498895 41.9725,1.1935 C42.5051693,1.4145011 42.938665,1.70633152 43.273,2.069 C43.607335,2.43166848 43.8509992,2.84533101 44.004,3.31 C44.1570008,3.77466899 44.2335,4.25633084 44.2335,4.755 C44.2335,5.24233577 44.1570008,5.72116431 44.004,6.1915 C43.8509992,6.66183568 43.607335,7.07833152 43.273,7.441 C42.938665,7.80366848 42.5051693,8.09549889 41.9725,8.3165 C41.4398307,8.5375011 40.7938371,8.648 40.0345,8.648 L37.2295,8.648 L37.2295,13 L34.5605,13 L34.5605,0.862 Z M45.8995,0.862 L48.5685,0.862 L48.5685,13 L45.8995,13 L45.8995,0.862 Z M59.0065,4.942 C58.9611664,4.63599847 58.8591675,4.35550127 58.7005,4.1005 C58.5418325,3.84549872 58.3435012,3.62166763 58.1055,3.429 C57.8674988,3.23633237 57.5983348,3.0861672 57.298,2.9785 C56.9976652,2.87083279 56.6831683,2.817 56.3545,2.817 C55.7538303,2.817 55.2438354,2.9331655 54.8245,3.1655 C54.4051646,3.39783449 54.065168,3.70949804 53.8045,4.1005 C53.543832,4.49150195 53.3540006,4.93633084 53.235,5.435 C53.1159994,5.93366916 53.0565,6.44933067 53.0565,6.982 C53.0565,7.49200255 53.1159994,7.98783092 53.235,8.4695 C53.3540006,8.95116907 53.543832,9.38466474 53.8045,9.77 C54.065168,10.1553353 54.4051646,10.4641655 54.8245,10.6965 C55.2438354,10.9288345 55.7538303,11.045 56.3545,11.045 C57.1705041,11.045 57.8079977,10.7956692 58.267,10.297 C58.7260023,9.79833084 59.0064995,9.14100408 59.1085,8.325 L61.6925,8.325 C61.6244997,9.08433713 61.4488347,9.76999694 61.1655,10.382 C60.8821652,10.9940031 60.508169,11.5153312 60.0435,11.946 C59.578831,12.3766688 59.0348364,12.7053322 58.4115,12.932 C57.7881635,13.1586678 57.1025037,13.272 56.3545,13.272 C55.425162,13.272 54.589337,13.1105016 53.847,12.7875 C53.104663,12.4644984 52.4785025,12.0196695 51.9685,11.453 C51.4584974,10.8863305 51.0675014,10.2205038 50.7955,9.4555 C50.5234986,8.69049617 50.3875,7.86600442 50.3875,6.982 C50.3875,6.0753288 50.5234986,5.23383721 50.7955,4.4575 C51.0675014,3.68116278 51.4584974,3.00400289 51.9685,2.426 C52.4785025,1.84799711 53.104663,1.39466831 53.847,1.066 C54.589337,0.73733169 55.425162,0.573 56.3545,0.573 C57.02317,0.573 57.654997,0.66933237 58.25,0.862 C58.845003,1.05466763 59.3776643,1.33516482 59.848,1.7035 C60.3183357,2.07183517 60.7064985,2.52799728 61.0125,3.072 C61.3185015,3.61600272 61.5111663,4.23932982 61.5905,4.942 L59.0065,4.942 Z M66.1975,3.106 L62.5595,3.106 L62.5595,0.862 L72.5045,0.862 L72.5045,3.106 L68.8665,3.106 L68.8665,13 L66.1975,13 L66.1975,3.106 Z M84.2005,8.41 C84.2005,10.0533415 83.7415046,11.274496 82.8235,12.0735 C81.9054954,12.872504 80.6361748,13.272 79.0155,13.272 C77.3721584,13.272 76.1000045,12.8753373 75.199,12.082 C74.2979955,11.2886627 73.8475,10.0646749 73.8475,8.41 L73.8475,0.862 L76.5165,0.862 L76.5165,8.41 C76.5165,8.73866831 76.544833,9.06166508 76.6015,9.379 C76.6581669,9.69633492 76.7771658,9.97683211 76.9585,10.2205 C77.1398342,10.4641679 77.3919984,10.6624992 77.715,10.8155 C78.0380016,10.9685008 78.4714973,11.045 79.0155,11.045 C79.9675048,11.045 80.6248315,10.8325021 80.9875,10.4075 C81.3501685,9.98249787 81.5315,9.3166712 81.5315,8.41 L81.5315,0.862 L84.2005,0.862 L84.2005,8.41 Z M89.1645,6.353 L92.0885,6.353 C92.7005031,6.353 93.1594985,6.21700136 93.4655,5.945 C93.7715015,5.67299864 93.9245,5.23100306 93.9245,4.619 C93.9245,4.02966372 93.7715015,3.60183466 93.4655,3.3355 C93.1594985,3.06916533 92.7005031,2.936 92.0885,2.936 L89.1645,2.936 L89.1645,6.353 Z M86.4955,0.862 L93.0405,0.862 C93.5845027,0.862 94.0746645,0.949832455 94.511,1.1255 C94.9473355,1.30116754 95.3213318,1.54199847 95.633,1.848 C95.9446682,2.15400153 96.1826658,2.50816465 96.347,2.9105 C96.5113342,3.31283534 96.5935,3.74633101 96.5935,4.211 C96.5935,4.92500357 96.4433348,5.54266406 96.143,6.064 C95.8426652,6.58533594 95.3525034,6.98199864 94.6725,7.254 L94.6725,7.288 C95.0011683,7.37866712 95.2731656,7.51749906 95.4885,7.7045 C95.7038344,7.89150093 95.8794993,8.11249872 96.0155,8.3675 C96.1515007,8.62250127 96.2506664,8.90299847 96.313,9.209 C96.3753336,9.51500153 96.4178332,9.82099847 96.4405,10.127 C96.4518334,10.3196676 96.4631666,10.546332 96.4745,10.807 C96.4858334,11.067668 96.5056665,11.3339986 96.534,11.606 C96.5623335,11.8780014 96.6076664,12.1358321 96.67,12.3795 C96.7323336,12.6231679 96.8258327,12.8299991 96.9505,13 L94.2815,13 C94.1341659,12.6146647 94.0435002,12.1556693 94.0095,11.623 C93.9754998,11.0903307 93.9245003,10.5803358 93.8565,10.093 C93.7658329,9.45833016 93.5731681,8.99366814 93.2785,8.699 C92.9838319,8.40433186 92.50217,8.257 91.8335,8.257 L89.1645,8.257 L89.1645,13 L86.4955,13 L86.4955,0.862 Z M98.7695,0.862 L107.8475,0.862 L107.8475,3.106 L101.4385,3.106 L101.4385,5.707 L107.3205,5.707 L107.3205,7.781 L101.4385,7.781 L101.4385,10.756 L107.9835,10.756 L107.9835,13 L98.7695,13 L98.7695,0.862 Z" id="PICTURE"></path>
                            <path d="M4.499,31.04 L4.355,31.04 C3.779,31.04 3.266,31.166 2.843,31.319 L2.843,31.67 C2.843,32.237 2.906,32.777 2.996,33.29 C3.581,32.741 4.112,32.021 4.499,31.04 Z M2.213,31.751 L2.213,31.598 C1.349,32.093 0.692,32.975 0.692,33.695 C0.692,34.055 0.863,34.235 1.196,34.235 C1.538,34.235 1.97,34.082 2.42,33.767 C2.294,33.128 2.213,32.417 2.213,31.751 Z M5.345,30.545 L5.336,30.581 C6.452,30.878 7.118,31.706 7.118,32.687 C7.118,33.965 6.272,35.081 4.202,35.405 L3.815,34.802 C5.417,34.631 6.407,33.803 6.407,32.651 C6.407,31.976 5.966,31.364 5.129,31.139 C4.634,32.399 3.914,33.38 3.158,34.019 C3.23,34.271 3.302,34.514 3.374,34.739 L2.717,34.937 C2.672,34.784 2.618,34.622 2.573,34.442 C2.087,34.739 1.556,34.928 1.079,34.928 C0.476,34.928 0.017,34.568 0.017,33.803 C0.017,32.66 1.016,31.481 2.24,30.923 C2.258,30.473 2.303,30.023 2.339,29.609 C2.15,29.618 1.97,29.618 1.799,29.618 C1.412,29.618 0.719,29.582 0.359,29.564 L0.341,28.889 C0.647,28.934 1.43,28.997 1.808,28.997 C2.006,28.997 2.204,28.997 2.402,28.988 C2.429,28.727 2.456,28.493 2.474,28.304 C2.492,28.16 2.501,27.989 2.501,27.881 L3.257,27.899 C3.212,28.016 3.176,28.178 3.149,28.295 C3.113,28.484 3.077,28.709 3.041,28.97 C4.166,28.916 5.246,28.799 6.164,28.592 L6.173,29.267 C5.237,29.42 4.049,29.537 2.96,29.591 C2.924,29.933 2.897,30.311 2.87,30.689 C3.365,30.536 3.914,30.455 4.364,30.455 C4.472,30.455 4.58,30.455 4.688,30.464 L4.715,30.383 C4.751,30.248 4.796,30.014 4.805,29.87 L5.525,30.05 C5.471,30.167 5.399,30.41 5.345,30.545 Z M16.352,30.284 L15.947,30.878 C15.47,30.473 14.507,29.924 13.913,29.654 L14.264,29.096 C14.912,29.384 15.929,29.96 16.352,30.284 Z M13.112,28.934 L13.13,29.6 C12.662,29.735 12.104,29.852 11.519,29.924 C11.078,31.184 10.286,32.732 9.575,33.695 L8.873,33.335 C9.62,32.471 10.376,31.049 10.781,30.005 C10.52,30.023 10.259,30.032 9.998,30.032 C9.665,30.032 9.296,30.023 8.963,30.005 L8.909,29.33 C9.242,29.375 9.62,29.393 10.007,29.393 C10.322,29.393 10.655,29.375 10.997,29.348 C11.132,28.853 11.258,28.286 11.276,27.809 L12.077,27.881 C11.987,28.205 11.87,28.745 11.726,29.258 C12.194,29.186 12.662,29.078 13.112,28.934 Z M13.58,33.911 C13.58,33.794 13.58,33.65 13.571,33.488 C13.292,33.407 12.986,33.362 12.671,33.362 C12.014,33.362 11.582,33.659 11.582,34.064 C11.582,34.478 11.915,34.757 12.608,34.757 C13.337,34.757 13.58,34.352 13.58,33.911 Z M13.454,30.635 L14.174,30.635 C14.147,31.004 14.156,31.265 14.165,31.598 C14.174,31.922 14.21,32.507 14.228,33.047 C14.993,33.326 15.614,33.767 16.073,34.163 L15.686,34.775 C15.308,34.433 14.831,34.037 14.255,33.758 C14.264,33.893 14.264,34.019 14.264,34.118 C14.264,34.829 13.796,35.414 12.698,35.414 C11.717,35.414 10.916,35.009 10.916,34.127 C10.916,33.308 11.69,32.777 12.698,32.777 C12.995,32.777 13.283,32.804 13.544,32.858 C13.517,32.129 13.472,31.256 13.454,30.635 Z M21.833,31.328 L21.833,30.653 C22.301,30.608 22.886,30.581 23.462,30.581 C23.975,30.581 24.524,30.599 25.001,30.653 L24.983,31.337 C24.533,31.283 24.002,31.229 23.48,31.229 C22.922,31.229 22.382,31.265 21.833,31.328 Z M22.409,28.988 L22.409,29.699 C21.824,29.834 21.185,29.933 20.564,30.005 C20.483,30.392 20.384,30.806 20.285,31.184 C19.961,32.462 19.358,34.298 18.89,35.27 L18.098,35.009 C18.629,34.091 19.259,32.282 19.592,31.022 C19.673,30.725 19.745,30.401 19.817,30.077 C19.529,30.095 19.259,30.104 19.007,30.104 C18.611,30.104 18.287,30.086 17.972,30.068 L17.945,29.366 C18.368,29.42 18.692,29.429 19.016,29.429 C19.313,29.429 19.628,29.411 19.97,29.393 C20.033,29.069 20.078,28.79 20.105,28.61 C20.132,28.358 20.15,28.061 20.132,27.872 L21.005,27.944 C20.942,28.142 20.879,28.475 20.843,28.655 L20.708,29.312 C21.284,29.24 21.869,29.132 22.409,28.988 Z M21.383,32.759 L22.058,32.822 C21.977,33.119 21.932,33.398 21.932,33.623 C21.932,34.046 22.13,34.451 23.399,34.451 C23.975,34.451 24.596,34.379 25.136,34.28 L25.109,35.009 C24.632,35.072 24.038,35.126 23.39,35.126 C21.986,35.126 21.248,34.694 21.248,33.812 C21.248,33.47 21.302,33.137 21.383,32.759 Z M28.439,33.74 C28.835,33.74 29.33,33.146 29.789,31.643 C30.014,30.905 30.185,30.059 30.284,29.24 C28.574,29.456 27.53,30.923 27.53,32.12 C27.53,33.245 28.052,33.74 28.439,33.74 Z M30.788,35.234 L30.374,34.559 C30.653,34.541 30.923,34.496 31.139,34.451 C32.282,34.199 33.398,33.353 33.398,31.814 C33.398,30.464 32.543,29.357 31.031,29.231 C30.914,30.059 30.743,30.959 30.5,31.796 C29.951,33.623 29.24,34.568 28.412,34.568 C27.62,34.568 26.819,33.65 26.819,32.183 C26.819,30.248 28.547,28.556 30.725,28.556 C32.813,28.556 34.145,30.032 34.145,31.832 C34.145,33.704 32.912,34.955 30.788,35.234 Z M37.583,27.503 L38.222,27.71 C37.979,28.358 37.655,29.015 37.304,29.636 L37.304,35.675 L36.638,35.675 L36.638,30.671 C36.359,31.067 36.053,31.427 35.747,31.742 C35.684,31.589 35.486,31.22 35.36,31.076 C36.251,30.212 37.079,28.871 37.583,27.503 Z M43.622,29.609 L40.85,29.609 L40.85,30.896 L43.415,30.896 L43.415,31.517 L40.85,31.517 L40.85,32.876 L43.541,32.876 L43.541,33.506 L40.85,33.506 L40.85,35.684 L40.175,35.684 L40.175,29.609 L39.554,29.609 C39.167,30.329 38.726,30.977 38.276,31.481 C38.168,31.364 37.907,31.139 37.754,31.031 C38.564,30.194 39.293,28.898 39.734,27.584 L40.373,27.755 C40.229,28.169 40.058,28.574 39.878,28.97 L43.622,28.97 L43.622,29.609 Z M45.476,31.391 C45.737,31.346 46.034,31.265 46.304,31.175 C46.943,30.977 48.401,30.446 49.454,30.446 C50.714,30.446 51.632,31.202 51.632,32.417 C51.632,34.136 49.976,35.018 47.573,35.162 L47.285,34.469 C49.211,34.406 50.903,33.866 50.903,32.408 C50.903,31.652 50.309,31.103 49.4,31.103 C48.293,31.103 46.349,31.913 45.773,32.138 L45.476,31.391 Z M57.833,31.328 L57.833,30.653 C58.301,30.608 58.886,30.581 59.462,30.581 C59.975,30.581 60.524,30.599 61.001,30.653 L60.983,31.337 C60.533,31.283 60.002,31.229 59.48,31.229 C58.922,31.229 58.382,31.265 57.833,31.328 Z M58.409,28.988 L58.409,29.699 C57.824,29.834 57.185,29.933 56.564,30.005 C56.483,30.392 56.384,30.806 56.285,31.184 C55.961,32.462 55.358,34.298 54.89,35.27 L54.098,35.009 C54.629,34.091 55.259,32.282 55.592,31.022 C55.673,30.725 55.745,30.401 55.817,30.077 C55.529,30.095 55.259,30.104 55.007,30.104 C54.611,30.104 54.287,30.086 53.972,30.068 L53.945,29.366 C54.368,29.42 54.692,29.429 55.016,29.429 C55.313,29.429 55.628,29.411 55.97,29.393 C56.033,29.069 56.078,28.79 56.105,28.61 C56.132,28.358 56.15,28.061 56.132,27.872 L57.005,27.944 C56.942,28.142 56.879,28.475 56.843,28.655 L56.708,29.312 C57.284,29.24 57.869,29.132 58.409,28.988 Z M57.383,32.759 L58.058,32.822 C57.977,33.119 57.932,33.398 57.932,33.623 C57.932,34.046 58.13,34.451 59.399,34.451 C59.975,34.451 60.596,34.379 61.136,34.28 L61.109,35.009 C60.632,35.072 60.038,35.126 59.39,35.126 C57.986,35.126 57.248,34.694 57.248,33.812 C57.248,33.47 57.302,33.137 57.383,32.759 Z M69.551,34.487 L69.551,29.582 L70.199,29.582 L70.199,35.657 L69.551,35.657 L69.551,35.126 L63.476,35.126 L63.476,35.684 L62.828,35.684 L62.828,29.582 L63.476,29.582 L63.476,34.487 L69.551,34.487 Z M68.048,31.418 L68.048,30.248 L66.761,30.248 L66.761,31.418 L68.048,31.418 Z M68.048,33.137 L68.048,31.958 L66.761,31.958 L66.761,33.137 L68.048,33.137 Z M64.898,31.958 L64.898,33.137 L66.176,33.137 L66.176,31.958 L64.898,31.958 Z M64.898,30.248 L64.898,31.418 L66.176,31.418 L66.176,30.248 L64.898,30.248 Z M62.549,28.061 L70.451,28.061 L70.451,28.682 L66.797,28.682 L66.797,29.681 L68.633,29.681 L68.633,33.704 L64.331,33.704 L64.331,29.681 L66.131,29.681 L66.131,28.682 L62.549,28.682 L62.549,28.061 Z M73.115,27.521 L73.736,27.692 C73.538,28.286 73.304,28.88 73.034,29.447 L73.034,35.684 L72.395,35.684 L72.395,30.644 C72.125,31.094 71.846,31.499 71.549,31.85 C71.486,31.688 71.306,31.337 71.198,31.175 C71.972,30.275 72.683,28.907 73.115,27.521 Z M74.654,29.726 L74.654,30.743 L76.301,30.743 L76.301,29.726 L74.654,29.726 Z M77.021,28.556 L75.275,28.556 C75.104,28.781 74.924,29.006 74.717,29.231 L76.526,29.231 C76.706,29.042 76.877,28.79 77.021,28.556 Z M78.632,30.743 L78.632,29.726 L76.913,29.726 L76.913,30.743 L78.632,30.743 Z M79.064,31.499 L79.532,31.895 C79.1,32.282 78.515,32.696 78.056,32.975 C78.47,33.758 79.01,34.397 79.676,34.766 C79.532,34.892 79.325,35.135 79.235,35.297 C78.029,34.541 77.246,33.011 76.823,31.22 L76.607,31.22 C76.436,31.364 76.247,31.499 76.04,31.625 C77.534,32.876 77.552,34.865 76.823,35.414 C76.562,35.63 76.319,35.684 75.959,35.693 C75.77,35.693 75.518,35.684 75.266,35.666 C75.257,35.513 75.212,35.261 75.104,35.099 C75.392,35.126 75.662,35.135 75.833,35.135 C76.058,35.135 76.22,35.117 76.382,34.982 C76.634,34.802 76.76,34.334 76.67,33.776 C75.887,34.433 74.735,35.099 73.781,35.459 C73.691,35.297 73.538,35.09 73.403,34.964 C74.465,34.64 75.797,33.902 76.517,33.2 C76.454,33.02 76.364,32.84 76.247,32.66 C75.608,33.155 74.672,33.65 73.916,33.929 C73.844,33.794 73.7,33.587 73.574,33.47 C74.357,33.236 75.365,32.759 75.977,32.282 C75.86,32.147 75.734,32.021 75.581,31.895 C75.032,32.201 74.429,32.471 73.889,32.669 C73.799,32.543 73.61,32.318 73.493,32.201 C74.258,31.976 75.104,31.625 75.752,31.22 L74.042,31.22 L74.042,29.879 C73.961,29.951 73.871,30.023 73.781,30.095 C73.664,29.96 73.448,29.789 73.286,29.717 C74.213,29.06 74.879,28.178 75.248,27.485 L75.887,27.602 C75.806,27.746 75.716,27.899 75.617,28.052 L77.381,28.052 L77.498,28.016 L77.912,28.295 C77.732,28.61 77.498,28.943 77.264,29.231 L79.262,29.231 L79.262,31.22 L77.399,31.22 C77.516,31.67 77.66,32.102 77.831,32.498 C78.263,32.21 78.749,31.805 79.064,31.499 Z M85.328,33.785 L84.635,33.785 C84.662,33.443 84.671,32.867 84.671,32.399 C83.843,32.849 83.267,33.308 83.267,33.893 C83.267,34.595 83.96,34.694 84.878,34.694 C85.571,34.694 86.525,34.613 87.308,34.478 L87.29,35.207 C86.615,35.288 85.625,35.351 84.851,35.351 C83.573,35.351 82.547,35.081 82.547,33.992 C82.547,32.939 83.609,32.273 84.644,31.733 C84.554,31.364 84.23,31.184 83.843,31.184 C83.258,31.184 82.718,31.472 82.304,31.841 C82.052,32.084 81.8,32.417 81.494,32.777 L80.882,32.318 C82.016,31.22 82.601,30.302 82.934,29.6 L82.565,29.6 C82.187,29.6 81.584,29.582 81.098,29.546 L81.098,28.871 C81.575,28.925 82.196,28.961 82.601,28.961 C82.79,28.961 82.979,28.961 83.186,28.952 C83.312,28.556 83.393,28.151 83.411,27.845 L84.149,27.908 C84.086,28.16 84.005,28.529 83.879,28.934 C84.788,28.889 85.76,28.808 86.606,28.664 L86.597,29.33 C85.715,29.465 84.617,29.546 83.645,29.582 C83.447,30.041 83.168,30.536 82.844,30.95 C83.168,30.743 83.681,30.617 84.077,30.617 C84.653,30.617 85.121,30.896 85.256,31.427 C85.868,31.139 86.408,30.923 86.876,30.707 C87.146,30.59 87.362,30.482 87.614,30.356 L87.902,31.031 C87.677,31.094 87.353,31.22 87.119,31.31 C86.615,31.508 85.976,31.769 85.301,32.084 C85.31,32.597 85.319,33.353 85.328,33.785 Z M95.732,28.988 L96.119,29.645 C95.921,29.771 95.696,29.888 95.435,30.023 C94.841,30.329 93.599,30.914 92.726,31.49 C91.898,32.03 91.403,32.615 91.403,33.29 C91.403,34.028 92.105,34.487 93.509,34.487 C94.481,34.487 95.669,34.361 96.362,34.181 L96.362,34.991 C95.687,35.108 94.661,35.207 93.545,35.207 C91.871,35.207 90.656,34.703 90.656,33.371 C90.656,32.453 91.241,31.724 92.195,31.058 C91.781,30.329 91.313,29.285 90.899,28.313 L91.61,28.025 C91.97,28.997 92.42,29.96 92.807,30.662 C93.644,30.158 94.607,29.69 95.093,29.411 C95.354,29.267 95.543,29.15 95.732,28.988 Z M100.277,27.899 L101.069,27.926 C100.88,28.583 100.709,29.78 100.655,30.401 C101.006,29.483 101.942,28.376 103.067,28.376 C104.255,28.376 105.11,29.564 105.11,31.436 C105.11,33.911 103.553,35 101.339,35.405 L100.916,34.757 C102.851,34.46 104.363,33.686 104.363,31.445 C104.363,30.041 103.895,29.033 102.95,29.033 C101.843,29.033 100.817,30.644 100.709,31.814 C100.664,32.156 100.664,32.462 100.727,32.903 L100.025,32.957 C99.98,32.624 99.935,32.12 99.935,31.544 C99.935,30.698 100.097,29.384 100.205,28.664 C100.241,28.385 100.268,28.115 100.277,27.899 Z M109.133,29.429 L109.133,28.691 C109.781,28.772 110.6,28.808 111.491,28.808 C112.346,28.808 113.255,28.745 113.894,28.682 L113.894,29.42 C113.291,29.465 112.31,29.528 111.491,29.528 C110.6,29.528 109.844,29.492 109.133,29.429 Z M108.764,32.219 L109.502,32.291 C109.394,32.651 109.322,32.975 109.322,33.308 C109.322,33.974 110.006,34.442 111.428,34.442 C112.661,34.442 113.804,34.307 114.479,34.1 L114.488,34.874 C113.849,35.045 112.715,35.18 111.446,35.18 C109.637,35.18 108.584,34.586 108.584,33.47 C108.584,33.002 108.683,32.588 108.764,32.219 Z M118.394,33.578 C118.709,33.173 119.042,32.363 119.348,31.67 C118.07,31.778 117.341,32.543 117.341,33.299 C117.341,33.677 117.593,33.893 117.854,33.893 C118.061,33.893 118.205,33.821 118.394,33.578 Z M124.496,32.786 L124.172,33.542 C123.902,33.308 123.587,33.065 123.245,32.84 C122.876,34.001 122.192,34.847 120.896,35.495 L120.302,35 C121.715,34.406 122.345,33.452 122.633,32.48 C121.886,32.075 121.022,31.76 120.095,31.679 C119.753,32.462 119.312,33.506 118.97,34.001 C118.655,34.451 118.304,34.622 117.845,34.622 C117.188,34.622 116.684,34.145 116.684,33.398 C116.684,32.084 117.899,31.076 119.645,31.031 C119.969,30.329 120.293,29.564 120.572,29.006 C120.221,29.033 119.141,29.078 118.727,29.105 C118.529,29.114 118.277,29.132 118.07,29.168 L118.034,28.412 C118.259,28.439 118.52,28.448 118.709,28.448 C119.177,28.448 120.347,28.385 120.725,28.358 C120.887,28.34 121.04,28.304 121.157,28.259 L121.616,28.628 C121.526,28.727 121.445,28.808 121.382,28.925 C121.13,29.321 120.752,30.23 120.374,31.067 C121.265,31.157 122.084,31.436 122.795,31.778 C122.831,31.553 122.849,31.328 122.867,31.112 C122.885,30.869 122.894,30.581 122.876,30.293 L123.614,30.374 C123.578,31.013 123.524,31.58 123.425,32.102 C123.848,32.336 124.208,32.579 124.496,32.786 Z M129.509,33.956 C129.509,33.803 129.5,33.596 129.5,33.353 C129.221,33.299 128.933,33.272 128.636,33.272 C127.79,33.272 127.331,33.596 127.331,34.001 C127.331,34.415 127.682,34.721 128.564,34.721 C129.077,34.721 129.509,34.568 129.509,33.956 Z M132.758,34.262 L132.353,34.892 C131.831,34.415 131.093,33.875 130.202,33.551 C130.211,33.776 130.22,33.974 130.22,34.109 C130.22,34.721 129.806,35.36 128.645,35.36 C127.367,35.36 126.656,34.901 126.656,34.037 C126.656,33.227 127.439,32.678 128.726,32.678 C128.987,32.678 129.23,32.696 129.473,32.732 C129.455,32.336 129.437,31.913 129.428,31.544 L128.933,31.544 C128.321,31.544 127.331,31.49 126.692,31.418 L126.692,30.734 C127.295,30.842 128.348,30.905 128.933,30.905 L129.41,30.905 L129.41,29.627 L128.969,29.627 C128.348,29.627 127.403,29.555 126.872,29.492 L126.872,28.826 C127.412,28.925 128.366,28.997 128.96,28.997 L129.419,28.997 L129.419,28.412 C129.419,28.268 129.41,28.007 129.392,27.881 L130.157,27.881 C130.13,28.043 130.121,28.214 130.112,28.475 C130.103,28.583 130.103,28.754 130.103,28.97 C130.877,28.943 131.606,28.871 132.389,28.754 L132.398,29.411 C131.696,29.483 130.931,29.555 130.094,29.6 L130.094,30.878 C130.949,30.842 131.768,30.761 132.569,30.644 L132.578,31.319 C131.741,31.427 130.949,31.49 130.103,31.526 C130.121,31.985 130.148,32.453 130.166,32.876 C131.345,33.2 132.254,33.857 132.758,34.262 Z M138.32,32.894 C138.842,32.894 139.184,32.471 139.103,31.625 C138.959,31.238 138.662,31.076 138.311,31.076 C137.852,31.076 137.411,31.436 137.411,32.012 C137.411,32.57 137.825,32.894 138.32,32.894 Z M139.697,29.672 L139.58,29.672 C139.58,30.176 139.589,30.725 139.598,31.13 C139.787,31.436 139.886,31.832 139.886,32.273 C139.886,33.479 139.301,34.82 137.231,35.441 L136.61,34.838 C137.78,34.568 138.608,34.082 138.977,33.29 C138.761,33.443 138.509,33.515 138.212,33.515 C137.456,33.515 136.736,32.984 136.736,32.021 C136.736,31.139 137.465,30.464 138.311,30.464 C138.527,30.464 138.725,30.5 138.905,30.563 C138.905,30.302 138.905,29.987 138.896,29.681 C137.546,29.69 136.034,29.753 134.918,29.834 L134.9,29.132 C135.89,29.114 137.564,29.06 138.887,29.042 C138.887,28.79 138.878,28.583 138.869,28.457 C138.86,28.268 138.833,28.007 138.815,27.899 L139.634,27.899 L139.589,28.457 C139.589,28.592 139.58,28.799 139.58,29.033 L139.715,29.033 C140.795,29.033 141.893,29.042 142.325,29.042 L142.316,29.717 C141.812,29.69 141.002,29.672 139.697,29.672 Z" id="あなたの作った画像をとりこみます"></path>
                        </g>
                    </g>
                </g>
            </g>
        </g>
    </g>
</svg>