<?xml version="1.0" encoding="UTF-8"?>
<svg width="170px" height="110px" viewBox="0 0 170 110" version="1.1" xmlns="http://www.w3.org/2000/svg" xmlns:xlink="http://www.w3.org/1999/xlink">
    <!-- Generator: Sketch 54.1 (76490) - https://sketchapp.com -->
    <title>Pic_Text_Normal</title>
    <desc>Created with Sketch.</desc>
    <g id="页面1" stroke="none" stroke-width="1" fill="none" fill-rule="evenodd">
        <g id="iPhone-XS&gt;EN" transform="translate(-12.000000, -292.000000)">
            <g id="Content" transform="translate(12.000000, 88.000000)">
                <g id="01_PICTURE">
                    <g id="Pic_Text_Normal" transform="translate(0.000000, 204.000000)">
                        <rect id="bg" fill="#FFFFFF" x="0" y="0" width="170" height="110"></rect>
                        <g transform="translate(39.000000, 26.000000)" fill="#1B1B1B" fill-rule="nonzero">
                            <path d="M12.2295,10.574 L14.3035,10.574 C14.6095015,10.574 14.9041652,10.5513336 15.1875,10.506 C15.4708347,10.4606664 15.7201656,10.372834 15.9355,10.2425 C16.1508344,10.112166 16.323666,9.92800119 16.454,9.69 C16.584334,9.45199881 16.6495,9.14033526 16.6495,8.755 C16.6495,8.36966474 16.584334,8.05800119 16.454,7.82 C16.323666,7.58199881 16.1508344,7.39783399 15.9355,7.2675 C15.7201656,7.13716602 15.4708347,7.04933356 15.1875,7.004 C14.9041652,6.95866644 14.6095015,6.936 14.3035,6.936 L12.2295,6.936 L12.2295,10.574 Z M9.5605,4.862 L15.0345,4.862 C15.7938371,4.862 16.4398307,4.97249889 16.9725,5.1935 C17.5051693,5.4145011 17.938665,5.70633152 18.273,6.069 C18.607335,6.43166848 18.8509992,6.84533101 19.004,7.31 C19.1570008,7.77466899 19.2335,8.25633084 19.2335,8.755 C19.2335,9.24233577 19.1570008,9.72116431 19.004,10.1915 C18.8509992,10.6618357 18.607335,11.0783315 18.273,11.441 C17.938665,11.8036685 17.5051693,12.0954989 16.9725,12.3165 C16.4398307,12.5375011 15.7938371,12.648 15.0345,12.648 L12.2295,12.648 L12.2295,17 L9.5605,17 L9.5605,4.862 Z M20.8995,4.862 L23.5685,4.862 L23.5685,17 L20.8995,17 L20.8995,4.862 Z M34.0065,8.942 C33.9611664,8.63599847 33.8591675,8.35550127 33.7005,8.1005 C33.5418325,7.84549872 33.3435012,7.62166763 33.1055,7.429 C32.8674988,7.23633237 32.5983348,7.0861672 32.298,6.9785 C31.9976652,6.87083279 31.6831683,6.817 31.3545,6.817 C30.7538303,6.817 30.2438354,6.9331655 29.8245,7.1655 C29.4051646,7.39783449 29.065168,7.70949804 28.8045,8.1005 C28.543832,8.49150195 28.3540006,8.93633084 28.235,9.435 C28.1159994,9.93366916 28.0565,10.4493307 28.0565,10.982 C28.0565,11.4920025 28.1159994,11.9878309 28.235,12.4695 C28.3540006,12.9511691 28.543832,13.3846647 28.8045,13.77 C29.065168,14.1553353 29.4051646,14.4641655 29.8245,14.6965 C30.2438354,14.9288345 30.7538303,15.045 31.3545,15.045 C32.1705041,15.045 32.8079977,14.7956692 33.267,14.297 C33.7260023,13.7983308 34.0064995,13.1410041 34.1085,12.325 L36.6925,12.325 C36.6244997,13.0843371 36.4488347,13.7699969 36.1655,14.382 C35.8821652,14.9940031 35.508169,15.5153312 35.0435,15.946 C34.578831,16.3766688 34.0348365,16.7053322 33.4115,16.932 C32.7881635,17.1586678 32.1025037,17.272 31.3545,17.272 C30.425162,17.272 29.589337,17.1105016 28.847,16.7875 C28.104663,16.4644984 27.4785025,16.0196695 26.9685,15.453 C26.4584974,14.8863305 26.0675014,14.2205038 25.7955,13.4555 C25.5234986,12.6904962 25.3875,11.8660044 25.3875,10.982 C25.3875,10.0753288 25.5234986,9.23383722 25.7955,8.4575 C26.0675014,7.68116278 26.4584974,7.00400289 26.9685,6.426 C27.4785025,5.84799711 28.104663,5.39466831 28.847,5.066 C29.589337,4.73733169 30.425162,4.573 31.3545,4.573 C32.02317,4.573 32.654997,4.66933237 33.25,4.862 C33.845003,5.05466763 34.3776643,5.33516482 34.848,5.7035 C35.3183357,6.07183517 35.7064985,6.52799728 36.0125,7.072 C36.3185015,7.61600272 36.5111663,8.23932982 36.5905,8.942 L34.0065,8.942 Z M41.1975,7.106 L37.5595,7.106 L37.5595,4.862 L47.5045,4.862 L47.5045,7.106 L43.8665,7.106 L43.8665,17 L41.1975,17 L41.1975,7.106 Z M59.2005,12.41 C59.2005,14.0533416 58.7415046,15.274496 57.8235,16.0735 C56.9054954,16.872504 55.6361748,17.272 54.0155,17.272 C52.3721584,17.272 51.1000045,16.8753373 50.199,16.082 C49.2979955,15.2886627 48.8475,14.0646749 48.8475,12.41 L48.8475,4.862 L51.5165,4.862 L51.5165,12.41 C51.5165,12.7386683 51.544833,13.0616651 51.6015,13.379 C51.6581669,13.6963349 51.7771658,13.9768321 51.9585,14.2205 C52.1398342,14.4641679 52.3919984,14.6624992 52.715,14.8155 C53.0380016,14.9685008 53.4714973,15.045 54.0155,15.045 C54.9675048,15.045 55.6248315,14.8325021 55.9875,14.4075 C56.3501685,13.9824979 56.5315,13.3166712 56.5315,12.41 L56.5315,4.862 L59.2005,4.862 L59.2005,12.41 Z M64.1645,10.353 L67.0885,10.353 C67.7005031,10.353 68.1594985,10.2170014 68.4655,9.945 C68.7715015,9.67299864 68.9245,9.23100306 68.9245,8.619 C68.9245,8.02966372 68.7715015,7.60183467 68.4655,7.3355 C68.1594985,7.06916533 67.7005031,6.936 67.0885,6.936 L64.1645,6.936 L64.1645,10.353 Z M61.4955,4.862 L68.0405,4.862 C68.5845027,4.862 69.0746645,4.94983245 69.511,5.1255 C69.9473355,5.30116754 70.3213318,5.54199847 70.633,5.848 C70.9446682,6.15400153 71.1826658,6.50816465 71.347,6.9105 C71.5113342,7.31283534 71.5935,7.74633101 71.5935,8.211 C71.5935,8.92500357 71.4433348,9.54266406 71.143,10.064 C70.8426652,10.5853359 70.3525034,10.9819986 69.6725,11.254 L69.6725,11.288 C70.0011683,11.3786671 70.2731656,11.5174991 70.4885,11.7045 C70.7038344,11.8915009 70.8794993,12.1124987 71.0155,12.3675 C71.1515007,12.6225013 71.2506664,12.9029985 71.313,13.209 C71.3753336,13.5150015 71.4178332,13.8209985 71.4405,14.127 C71.4518334,14.3196676 71.4631666,14.546332 71.4745,14.807 C71.4858334,15.067668 71.5056665,15.3339986 71.534,15.606 C71.5623335,15.8780014 71.6076664,16.1358321 71.67,16.3795 C71.7323336,16.6231679 71.8258327,16.8299991 71.9505,17 L69.2815,17 C69.1341659,16.6146647 69.0435002,16.1556693 69.0095,15.623 C68.9754998,15.0903307 68.9245003,14.5803358 68.8565,14.093 C68.7658329,13.4583302 68.5731681,12.9936681 68.2785,12.699 C67.9838319,12.4043319 67.50217,12.257 66.8335,12.257 L64.1645,12.257 L64.1645,17 L61.4955,17 L61.4955,4.862 Z M73.7695,4.862 L82.8475,4.862 L82.8475,7.106 L76.4385,7.106 L76.4385,9.707 L82.3205,9.707 L82.3205,11.781 L76.4385,11.781 L76.4385,14.756 L82.9835,14.756 L82.9835,17 L73.7695,17 L73.7695,4.862 Z" id="PICTURE"></path>
                            <path d="M6.645,36.42 C6.645,37.3333379 6.4016691,38.0183311 5.915,38.475 C5.4283309,38.931669 4.7350045,39.16 3.835,39.16 C2.9149954,39.16 2.19666925,38.9416688 1.68,38.505 C1.16333075,38.0683311 0.905,37.3733381 0.905,36.42 L0.905,31.86 L1.855,31.86 L1.855,36.42 C1.855,37.0600032 2.0249983,37.5449984 2.365,37.875 C2.7050017,38.2050016 3.1949968,38.37 3.835,38.37 C4.4416697,38.37 4.90333175,38.2050016 5.22,37.875 C5.53666825,37.5449984 5.695,37.0600032 5.695,36.42 L5.695,31.86 L6.645,31.86 L6.645,36.42 Z M8.545,37.37 C8.5516667,37.5566676 8.5949996,37.7149993 8.675,37.845 C8.7550004,37.9750006 8.85999935,38.078333 8.99,38.155 C9.12000065,38.231667 9.26666585,38.2866665 9.43,38.32 C9.59333415,38.3533335 9.7616658,38.37 9.935,38.37 C10.068334,38.37 10.2083326,38.3600001 10.355,38.34 C10.5016674,38.3199999 10.636666,38.2833336 10.76,38.23 C10.8833339,38.1766664 10.9849996,38.0983339 11.065,37.995 C11.1450004,37.8916661 11.185,37.7600008 11.185,37.6 C11.185,37.3799989 11.1016675,37.2133339 10.935,37.1 C10.7683325,36.9866661 10.5600012,36.8950003 10.31,36.825 C10.0599987,36.7549997 9.7883348,36.6916669 9.495,36.635 C9.2016652,36.578333 8.93000125,36.4983339 8.68,36.395 C8.42999875,36.2916661 8.2216675,36.1466676 8.055,35.96 C7.8883325,35.7733324 7.805,35.513335 7.805,35.18 C7.805,34.9199987 7.86333275,34.6966676 7.98,34.51 C8.09666725,34.3233324 8.24666575,34.1716672 8.43,34.055 C8.61333425,33.9383328 8.81999885,33.851667 9.05,33.795 C9.28000115,33.7383331 9.5083322,33.71 9.735,33.71 C10.0283348,33.71 10.2983321,33.7349998 10.545,33.785 C10.7916679,33.8350003 11.009999,33.921666 11.2,34.045 C11.3900009,34.1683339 11.5416661,34.3349989 11.655,34.545 C11.7683339,34.755001 11.8349999,35.0166651 11.855,35.33 L11.005,35.33 C10.9916666,35.1633325 10.9483337,35.0250006 10.875,34.915 C10.8016663,34.8049994 10.7083339,34.716667 10.595,34.65 C10.4816661,34.583333 10.3566673,34.5350002 10.22,34.505 C10.0833326,34.4749999 9.9450007,34.46 9.805,34.46 C9.6783327,34.46 9.55000065,34.4699999 9.42,34.49 C9.28999935,34.5100001 9.1716672,34.5449998 9.065,34.595 C8.9583328,34.6450002 8.871667,34.7116663 8.805,34.795 C8.738333,34.8783337 8.705,34.986666 8.705,35.12 C8.705,35.2666674 8.75666615,35.3883328 8.86,35.485 C8.96333385,35.5816672 9.0949992,35.6616663 9.255,35.725 C9.4150008,35.7883336 9.594999,35.8416664 9.795,35.885 C9.995001,35.9283335 10.194999,35.9733331 10.395,36.02 C10.6083344,36.0666669 10.8166656,36.123333 11.02,36.19 C11.2233344,36.256667 11.4033325,36.3449995 11.56,36.455 C11.7166674,36.5650006 11.8433328,36.7033325 11.94,36.87 C12.0366671,37.0366675 12.085,37.2433321 12.085,37.49 C12.085,37.8033349 12.0200006,38.0633323 11.89,38.27 C11.7599993,38.4766677 11.590001,38.6433327 11.38,38.77 C11.169999,38.8966673 10.9333346,38.9849998 10.67,39.035 C10.4066653,39.0850003 10.1450013,39.11 9.885,39.11 C9.5983319,39.11 9.3250013,39.0800003 9.065,39.02 C8.8049987,38.9599997 8.575001,38.8616674 8.375,38.725 C8.174999,38.5883326 8.0150006,38.4083344 7.895,38.185 C7.7749994,37.9616655 7.7083334,37.6900016 7.695,37.37 L8.545,37.37 Z M16.615,35.92 C16.6016666,35.719999 16.556667,35.5300009 16.48,35.35 C16.4033329,35.1699991 16.3000006,35.0150006 16.17,34.885 C16.0399993,34.7549993 15.8866675,34.6516671 15.71,34.575 C15.5333324,34.4983329 15.3383344,34.46 15.125,34.46 C14.9049989,34.46 14.7066675,34.4983329 14.53,34.575 C14.3533324,34.6516671 14.2016673,34.756666 14.075,34.89 C13.9483327,35.023334 13.8483337,35.1783324 13.775,35.355 C13.7016663,35.5316676 13.6583334,35.719999 13.645,35.92 L16.615,35.92 Z M17.435,37.36 C17.3216661,37.9400029 17.0716686,38.3766652 16.685,38.67 C16.2983314,38.9633348 15.8116696,39.11 15.225,39.11 C14.8116646,39.11 14.4533348,39.043334 14.15,38.91 C13.8466651,38.776666 13.5916677,38.5900012 13.385,38.35 C13.1783323,38.1099988 13.0233338,37.823335 12.92,37.49 C12.8166661,37.156665 12.7583334,36.7933353 12.745,36.4 C12.745,36.0066647 12.8049994,35.6466683 12.925,35.32 C13.0450006,34.9933317 13.2133322,34.7100012 13.43,34.47 C13.6466677,34.2299988 13.9033318,34.043334 14.2,33.91 C14.4966681,33.776666 14.8216649,33.71 15.175,33.71 C15.6350023,33.71 16.0166651,33.804999 16.32,33.995 C16.6233348,34.185001 16.8666657,34.4266652 17.05,34.72 C17.2333342,35.0133348 17.3599996,35.3333316 17.43,35.68 C17.5000003,36.0266684 17.5283334,36.3566651 17.515,36.67 L13.645,36.67 C13.6383333,36.8966678 13.6649997,37.1116656 13.725,37.315 C13.7850003,37.5183344 13.881666,37.6983326 14.015,37.855 C14.148334,38.0116675 14.3183323,38.1366662 14.525,38.23 C14.7316677,38.3233338 14.9749986,38.37 15.255,38.37 C15.6150018,38.37 15.9099988,38.2866675 16.14,38.12 C16.3700011,37.9533325 16.5216663,37.7000017 16.595,37.36 L17.435,37.36 Z M23.205,39.69 C23.1049995,39.9433346 23.0066672,40.1566658 22.91,40.33 C22.8133329,40.5033342 22.7066673,40.6449995 22.59,40.755 C22.4733327,40.8650005 22.343334,40.9449998 22.2,40.995 C22.0566659,41.0450003 21.8916676,41.07 21.705,41.07 C21.6049995,41.07 21.5050005,41.0633334 21.405,41.05 C21.3049995,41.0366666 21.2083338,41.0133335 21.115,40.98 L21.115,40.2 C21.1883337,40.2333335 21.2733329,40.2616666 21.37,40.285 C21.4666671,40.3083334 21.548333,40.32 21.615,40.32 C21.7883342,40.32 21.9333327,40.2783338 22.05,40.195 C22.1666673,40.1116662 22.2549997,39.9933341 22.315,39.84 L22.665,38.97 L20.615,33.83 L21.575,33.83 L23.085,38.06 L23.105,38.06 L24.555,33.83 L25.455,33.83 L23.205,39.69 Z M26.795,36.42 C26.795,36.7333349 26.8366663,37.0116655 26.92,37.255 C27.0033338,37.4983345 27.1183326,37.7016658 27.265,37.865 C27.4116674,38.0283341 27.5833323,38.1533329 27.78,38.24 C27.9766677,38.3266671 28.1849989,38.37 28.405,38.37 C28.6250011,38.37 28.8333323,38.3266671 29.03,38.24 C29.2266676,38.1533329 29.3983326,38.0283341 29.545,37.865 C29.6916674,37.7016658 29.8066662,37.4983345 29.89,37.255 C29.9733337,37.0116655 30.015,36.7333349 30.015,36.42 C30.015,36.1066651 29.9733337,35.8283346 29.89,35.585 C29.8066662,35.3416655 29.6916674,35.1366675 29.545,34.97 C29.3983326,34.8033325 29.2266676,34.6766671 29.03,34.59 C28.8333323,34.5033329 28.6250011,34.46 28.405,34.46 C28.1849989,34.46 27.9766677,34.5033329 27.78,34.59 C27.5833323,34.6766671 27.4116674,34.8033325 27.265,34.97 C27.1183326,35.1366675 27.0033338,35.3416655 26.92,35.585 C26.8366663,35.8283346 26.795,36.1066651 26.795,36.42 Z M25.895,36.42 C25.895,36.0399981 25.9483328,35.6850017 26.055,35.355 C26.1616672,35.0249983 26.3216656,34.7383345 26.535,34.495 C26.7483344,34.2516654 27.0116651,34.0600007 27.325,33.92 C27.6383349,33.7799993 27.9983313,33.71 28.405,33.71 C28.8183354,33.71 29.1799984,33.7799993 29.49,33.92 C29.8000015,34.0600007 30.0616656,34.2516654 30.275,34.495 C30.4883344,34.7383345 30.6483328,35.0249983 30.755,35.355 C30.8616672,35.6850017 30.915,36.0399981 30.915,36.42 C30.915,36.8000019 30.8616672,37.1533317 30.755,37.48 C30.6483328,37.8066683 30.4883344,38.0916655 30.275,38.335 C30.0616656,38.5783346 29.8000015,38.7683326 29.49,38.905 C29.1799984,39.0416673 28.8183354,39.11 28.405,39.11 C27.9983313,39.11 27.6383349,39.0416673 27.325,38.905 C27.0116651,38.7683326 26.7483344,38.5783346 26.535,38.335 C26.3216656,38.0916655 26.1616672,37.8066683 26.055,37.48 C25.9483328,37.1533317 25.895,36.8000019 25.895,36.42 Z M36.195,39 L35.395,39 L35.395,38.18 L35.375,38.18 C35.1949991,38.5000016 34.9650014,38.7349993 34.685,38.885 C34.4049986,39.0350008 34.0750019,39.11 33.695,39.11 C33.3549983,39.11 33.0716678,39.0650004 32.845,38.975 C32.6183322,38.8849996 32.4350007,38.7566675 32.295,38.59 C32.1549993,38.4233325 32.056667,38.2250011 32,37.995 C31.943333,37.7649988 31.915,37.5100014 31.915,37.23 L31.915,33.83 L32.765,33.83 L32.765,37.33 C32.765,37.6500016 32.8583324,37.9033324 33.045,38.09 C33.2316676,38.2766676 33.4883317,38.37 33.815,38.37 C34.0750013,38.37 34.299999,38.3300004 34.49,38.25 C34.6800009,38.1699996 34.8383327,38.0566674 34.965,37.91 C35.0916673,37.7633326 35.1866663,37.5916676 35.25,37.395 C35.3133336,37.1983324 35.345,36.9833345 35.345,36.75 L35.345,33.83 L36.195,33.83 L36.195,39 Z M37.445,33.83 L38.245,33.83 L38.245,34.92 L38.265,34.92 C38.4716677,34.4999979 38.7249985,34.190001 39.025,33.99 C39.3250015,33.789999 39.7049977,33.6966666 40.165,33.71 L40.165,34.61 C39.8249983,34.61 39.5350012,34.6566662 39.295,34.75 C39.0549988,34.8433338 38.8616674,34.9799991 38.715,35.16 C38.5683326,35.3400009 38.461667,35.558332 38.395,35.815 C38.328333,36.0716679 38.295,36.366665 38.295,36.7 L38.295,39 L37.445,39 L37.445,33.83 Z M44.205,36.42 C44.205,36.7333349 44.2466662,37.0116655 44.33,37.255 C44.4133337,37.4983345 44.5283326,37.7016658 44.675,37.865 C44.8216674,38.0283341 44.9933324,38.1533329 45.19,38.24 C45.3866676,38.3266671 45.5949989,38.37 45.815,38.37 C46.0350011,38.37 46.2433324,38.3266671 46.44,38.24 C46.6366676,38.1533329 46.8083326,38.0283341 46.955,37.865 C47.1016674,37.7016658 47.2166662,37.4983345 47.3,37.255 C47.3833337,37.0116655 47.425,36.7333349 47.425,36.42 C47.425,36.1066651 47.3833337,35.8283346 47.3,35.585 C47.2166662,35.3416655 47.1016674,35.1366675 46.955,34.97 C46.8083326,34.8033325 46.6366676,34.6766671 46.44,34.59 C46.2433324,34.5033329 46.0350011,34.46 45.815,34.46 C45.5949989,34.46 45.3866676,34.5033329 45.19,34.59 C44.9933324,34.6766671 44.8216674,34.8033325 44.675,34.97 C44.5283326,35.1366675 44.4133337,35.3416655 44.33,35.585 C44.2466662,35.8283346 44.205,36.1066651 44.205,36.42 Z M43.305,36.42 C43.305,36.0399981 43.3583328,35.6850017 43.465,35.355 C43.5716672,35.0249983 43.7316656,34.7383345 43.945,34.495 C44.1583344,34.2516654 44.4216651,34.0600007 44.735,33.92 C45.0483349,33.7799993 45.4083313,33.71 45.815,33.71 C46.2283354,33.71 46.5899984,33.7799993 46.9,33.92 C47.2100015,34.0600007 47.4716656,34.2516654 47.685,34.495 C47.8983344,34.7383345 48.0583328,35.0249983 48.165,35.355 C48.2716672,35.6850017 48.325,36.0399981 48.325,36.42 C48.325,36.8000019 48.2716672,37.1533317 48.165,37.48 C48.0583328,37.8066683 47.8983344,38.0916655 47.685,38.335 C47.4716656,38.5783346 47.2100015,38.7683326 46.9,38.905 C46.5899984,39.0416673 46.2283354,39.11 45.815,39.11 C45.4083313,39.11 45.0483349,39.0416673 44.735,38.905 C44.4216651,38.7683326 44.1583344,38.5783346 43.945,38.335 C43.7316656,38.0916655 43.5716672,37.8066683 43.465,37.48 C43.3583328,37.1533317 43.305,36.8000019 43.305,36.42 Z M54.445,39 L53.545,39 L52.495,34.89 L52.475,34.89 L51.435,39 L50.515,39 L48.855,33.83 L49.795,33.83 L50.965,38.06 L50.985,38.06 L52.025,33.83 L52.955,33.83 L54.035,38.06 L54.055,38.06 L55.215,33.83 L56.095,33.83 L54.445,39 Z M56.905,33.83 L57.705,33.83 L57.705,34.65 L57.725,34.65 C58.0783351,34.0233302 58.6383295,33.71 59.405,33.71 C59.7450017,33.71 60.0283322,33.7566662 60.255,33.85 C60.4816678,33.9433338 60.6649993,34.0733325 60.805,34.24 C60.9450007,34.4066675 61.0433331,34.6049989 61.1,34.835 C61.156667,35.0650012 61.185,35.3199986 61.185,35.6 L61.185,39 L60.335,39 L60.335,35.5 C60.335,35.1799984 60.2416676,34.9266676 60.055,34.74 C59.8683324,34.5533324 59.6116683,34.46 59.285,34.46 C59.0249987,34.46 58.800001,34.4999996 58.61,34.58 C58.4199991,34.6600004 58.2616673,34.7733326 58.135,34.92 C58.0083327,35.0666674 57.9133336,35.2383324 57.85,35.435 C57.7866664,35.6316676 57.755,35.8466655 57.755,36.08 L57.755,39 L56.905,39 L56.905,33.83 Z M66.145,32.9 L65.295,32.9 L65.295,31.86 L66.145,31.86 L66.145,32.9 Z M65.295,33.83 L66.145,33.83 L66.145,39 L65.295,39 L65.295,33.83 Z M67.465,33.83 L68.265,33.83 L68.265,34.59 L68.285,34.59 C68.6716686,34.0033304 69.2283297,33.71 69.955,33.71 C70.2750016,33.71 70.5649987,33.776666 70.825,33.91 C71.0850013,34.043334 71.2683328,34.2699984 71.375,34.59 C71.5483342,34.3099986 71.7766653,34.0933341 72.06,33.94 C72.3433347,33.7866659 72.6549983,33.71 72.995,33.71 C73.2550013,33.71 73.489999,33.7383331 73.7,33.795 C73.9100011,33.851667 74.0899993,33.9399994 74.24,34.06 C74.3900008,34.1800006 74.5066662,34.3349991 74.59,34.525 C74.6733338,34.7150009 74.715,34.943332 74.715,35.21 L74.715,39 L73.865,39 L73.865,35.61 C73.865,35.4499992 73.8516668,35.3000007 73.825,35.16 C73.7983332,35.0199993 73.7483337,34.8983339 73.675,34.795 C73.6016663,34.6916662 73.5000007,34.6100003 73.37,34.55 C73.2399994,34.4899997 73.0716677,34.46 72.865,34.46 C72.4449979,34.46 72.1150012,34.5799988 71.875,34.82 C71.6349988,35.0600012 71.515,35.379998 71.515,35.78 L71.515,39 L70.665,39 L70.665,35.61 C70.665,35.4433325 70.6500002,35.2900007 70.62,35.15 C70.5899998,35.0099993 70.5383337,34.8883339 70.465,34.785 C70.3916663,34.6816661 70.293334,34.601667 70.17,34.545 C70.046666,34.4883331 69.8883343,34.46 69.695,34.46 C69.4483321,34.46 69.2366676,34.5099995 69.06,34.61 C68.8833324,34.7100005 68.7400006,34.8299993 68.63,34.97 C68.5199995,35.1100007 68.4400002,35.2549992 68.39,35.405 C68.3399998,35.5550007 68.315,35.6799995 68.315,35.78 L68.315,39 L67.465,39 L67.465,33.83 Z M80.575,38.98 C80.4283326,39.0666671 80.2250013,39.11 79.965,39.11 C79.7449989,39.11 79.5700006,39.0483339 79.44,38.925 C79.3099993,38.8016661 79.245,38.6000014 79.245,38.32 C79.0116655,38.6000014 78.7400016,38.8016661 78.43,38.925 C78.1199984,39.0483339 77.7850018,39.11 77.425,39.11 C77.1916655,39.11 76.9700011,39.0833336 76.76,39.03 C76.549999,38.9766664 76.3683341,38.8933339 76.215,38.78 C76.0616659,38.6666661 75.9400004,38.5183342 75.85,38.335 C75.7599996,38.1516657 75.715,37.9300013 75.715,37.67 C75.715,37.3766652 75.7649995,37.1366676 75.865,36.95 C75.9650005,36.7633324 76.0966658,36.6116672 76.26,36.495 C76.4233342,36.3783327 76.609999,36.2900003 76.82,36.23 C77.0300011,36.1699997 77.2449989,36.1200002 77.465,36.08 C77.6983345,36.0333331 77.919999,35.9983334 78.13,35.975 C78.3400011,35.9516665 78.5249992,35.9183335 78.685,35.875 C78.8450008,35.8316665 78.9716662,35.7683337 79.065,35.685 C79.1583338,35.6016663 79.205,35.4800008 79.205,35.32 C79.205,35.1333324 79.1700004,34.9833339 79.1,34.87 C79.0299997,34.7566661 78.9400006,34.6700003 78.83,34.61 C78.7199995,34.5499997 78.5966674,34.5100001 78.46,34.49 C78.3233327,34.4699999 78.188334,34.46 78.055,34.46 C77.6949982,34.46 77.3950012,34.5283326 77.155,34.665 C76.9149988,34.8016674 76.7850001,35.0599981 76.765,35.44 L75.915,35.44 C75.9283334,35.1199984 75.9949994,34.8500011 76.115,34.63 C76.2350006,34.4099989 76.394999,34.2316674 76.595,34.095 C76.795001,33.9583327 77.0233321,33.8600003 77.28,33.8 C77.536668,33.7399997 77.8116652,33.71 78.105,33.71 C78.3383345,33.71 78.5699989,33.7266665 78.8,33.76 C79.0300012,33.7933335 79.2383324,33.8616661 79.425,33.965 C79.6116676,34.0683339 79.7616661,34.2133324 79.875,34.4 C79.9883339,34.5866676 80.045,34.8299985 80.045,35.13 L80.045,37.79 C80.045,37.990001 80.0566666,38.1366662 80.08,38.23 C80.1033335,38.3233338 80.181666,38.37 80.315,38.37 C80.3883337,38.37 80.4749995,38.3533335 80.575,38.32 L80.575,38.98 Z M79.195,36.33 C79.0883328,36.4100004 78.9483342,36.4683331 78.775,36.505 C78.6016658,36.5416668 78.420001,36.5716666 78.23,36.595 C78.0399991,36.6183335 77.8483343,36.6449998 77.655,36.675 C77.4616657,36.7050002 77.2883341,36.753333 77.135,36.82 C76.9816659,36.886667 76.8566671,36.9816661 76.76,37.105 C76.6633329,37.2283339 76.615,37.3966656 76.615,37.61 C76.615,37.7500007 76.6433331,37.8683329 76.7,37.965 C76.756667,38.0616671 76.8299996,38.1399997 76.92,38.2 C77.0100005,38.2600003 77.1149994,38.3033332 77.235,38.33 C77.3550006,38.3566668 77.481666,38.37 77.615,38.37 C77.8950014,38.37 78.134999,38.3316671 78.335,38.255 C78.535001,38.1783329 78.6983327,38.0816672 78.825,37.965 C78.9516673,37.8483327 79.0449997,37.7216674 79.105,37.585 C79.1650003,37.4483326 79.195,37.3200006 79.195,37.2 L79.195,36.33 Z M85.825,38.56 C85.825,39.4066709 85.6316686,40.0399979 85.245,40.46 C84.8583314,40.8800021 84.2516708,41.09 83.425,41.09 C83.1849988,41.09 82.9400013,41.0633336 82.69,41.01 C82.4399988,40.9566664 82.2133344,40.8700006 82.01,40.75 C81.8066657,40.6299994 81.638334,40.4733343 81.505,40.28 C81.371666,40.0866657 81.2983334,39.8500014 81.285,39.57 L82.135,39.57 C82.1416667,39.7233341 82.1899996,39.8533328 82.28,39.96 C82.3700005,40.0666672 82.4799994,40.153333 82.61,40.22 C82.7400007,40.286667 82.8816659,40.3349999 83.035,40.365 C83.1883341,40.3950002 83.3349993,40.41 83.475,40.41 C83.7550014,40.41 83.9916657,40.3616672 84.185,40.265 C84.3783343,40.1683328 84.5383327,40.0350009 84.665,39.865 C84.7916673,39.6949992 84.8833331,39.4900012 84.94,39.25 C84.996667,39.0099988 85.025,38.7466681 85.025,38.46 L85.025,38.12 L85.005,38.12 C84.8583326,38.4400016 84.6366682,38.6749992 84.34,38.825 C84.0433319,38.9750007 83.728335,39.05 83.395,39.05 C83.0083314,39.05 82.6716681,38.9800007 82.385,38.84 C82.0983319,38.6999993 81.8583343,38.5116679 81.665,38.275 C81.4716657,38.0383322 81.3266672,37.7616682 81.23,37.445 C81.1333329,37.1283318 81.085,36.7933351 81.085,36.44 C81.085,36.1333318 81.1249996,35.818335 81.205,35.495 C81.2850004,35.1716651 81.4183324,34.8783346 81.605,34.615 C81.7916676,34.3516653 82.0383318,34.1350008 82.345,33.965 C82.6516682,33.7949992 83.0283311,33.71 83.475,33.71 C83.8016683,33.71 84.1016653,33.7816659 84.375,33.925 C84.6483347,34.068334 84.8616659,34.2833319 85.015,34.57 L85.025,34.57 L85.025,33.83 L85.825,33.83 L85.825,38.56 Z M83.445,38.31 C83.7250014,38.31 83.9633324,38.2516672 84.16,38.135 C84.3566677,38.0183327 84.5149994,37.8650009 84.635,37.675 C84.7550006,37.484999 84.8433331,37.2700012 84.9,37.03 C84.956667,36.7899988 84.985,36.5500012 84.985,36.31 C84.985,36.0833322 84.9583336,35.8600011 84.905,35.64 C84.8516664,35.4199989 84.7666673,35.2216675 84.65,35.045 C84.5333327,34.8683324 84.3816676,34.7266672 84.195,34.62 C84.0083324,34.5133328 83.781668,34.46 83.515,34.46 C83.2416653,34.46 83.0083343,34.5116661 82.815,34.615 C82.6216657,34.7183339 82.463334,34.8566658 82.34,35.03 C82.2166661,35.2033342 82.126667,35.4033322 82.07,35.63 C82.0133331,35.8566678 81.985,36.0933321 81.985,36.34 C81.985,36.5733345 82.0083331,36.8066655 82.055,37.04 C82.1016669,37.2733345 82.1816661,37.484999 82.295,37.675 C82.4083339,37.8650009 82.5583324,38.0183327 82.745,38.135 C82.9316676,38.2516672 83.1649986,38.31 83.445,38.31 Z M90.695,35.92 C90.6816666,35.719999 90.636667,35.5300009 90.56,35.35 C90.483333,35.1699991 90.3800006,35.0150006 90.25,34.885 C90.1199994,34.7549993 89.9666676,34.6516671 89.79,34.575 C89.6133325,34.4983329 89.4183344,34.46 89.205,34.46 C88.9849989,34.46 88.7866676,34.4983329 88.61,34.575 C88.4333324,34.6516671 88.2816673,34.756666 88.155,34.89 C88.0283327,35.023334 87.9283337,35.1783324 87.855,35.355 C87.7816663,35.5316676 87.7383334,35.719999 87.725,35.92 L90.695,35.92 Z M91.515,37.36 C91.4016661,37.9400029 91.1516686,38.3766652 90.765,38.67 C90.3783314,38.9633348 89.8916696,39.11 89.305,39.11 C88.8916646,39.11 88.5333349,39.043334 88.23,38.91 C87.9266652,38.776666 87.6716677,38.5900012 87.465,38.35 C87.2583323,38.1099988 87.1033338,37.823335 87,37.49 C86.8966662,37.156665 86.8383334,36.7933353 86.825,36.4 C86.825,36.0066647 86.8849994,35.6466683 87.005,35.32 C87.1250006,34.9933317 87.2933323,34.7100012 87.51,34.47 C87.7266678,34.2299988 87.9833318,34.043334 88.28,33.91 C88.5766682,33.776666 88.9016649,33.71 89.255,33.71 C89.7150023,33.71 90.0966652,33.804999 90.4,33.995 C90.7033349,34.185001 90.9466658,34.4266652 91.13,34.72 C91.3133342,35.0133348 91.4399997,35.3333316 91.51,35.68 C91.5800004,36.0266684 91.6083334,36.3566651 91.595,36.67 L87.725,36.67 C87.7183333,36.8966678 87.7449997,37.1116656 87.805,37.315 C87.8650003,37.5183344 87.961666,37.6983326 88.095,37.855 C88.228334,38.0116675 88.3983323,38.1366662 88.605,38.23 C88.8116677,38.3233338 89.0549986,38.37 89.335,38.37 C89.6950018,38.37 89.9899989,38.2866675 90.22,38.12 C90.4500011,37.9533325 90.6016663,37.7000017 90.675,37.36 L91.515,37.36 Z" id="Useyourownimage"></path>
                        </g>
                    </g>
                </g>
            </g>
        </g>
    </g>
</svg>