<?xml version="1.0" encoding="UTF-8"?>
<svg width="170px" height="170px" viewBox="0 0 170 170" version="1.1" xmlns="http://www.w3.org/2000/svg" xmlns:xlink="http://www.w3.org/1999/xlink">
    <!-- Generator: Sketch 54.1 (76490) - https://sketchapp.com -->
    <title>Remix_Disable_JP</title>
    <desc>Created with Sketch.</desc>
    <g id="Make" stroke="none" stroke-width="1" fill="none" fill-rule="evenodd">
        <g id="C-35&gt;Shake-to-Remix复制-2" transform="translate(-192.000000, -64.000000)">
            <g id="Remix_Disable_JP" transform="translate(192.000000, 64.000000)">
                <rect id="矩形" fill="#FFFFFF" opacity="0.900000036" x="0" y="0" width="170" height="170"></rect>
                <path d="M55.49,64.096 L55.49,62.757 C56.426,62.861 57.622,62.913 58.935,62.913 C60.183,62.913 61.561,62.835 62.523,62.731 L62.523,64.083 C61.639,64.148 60.144,64.239 58.948,64.239 C57.622,64.239 56.517,64.187 55.49,64.096 Z M54.931,67.944 L56.257,68.061 C56.114,68.555 56.023,68.997 56.023,69.465 C56.023,70.362 56.92,70.999 58.883,70.999 C60.651,70.999 62.302,70.804 63.342,70.505 L63.355,71.922 C62.341,72.182 60.755,72.364 58.922,72.364 C56.166,72.364 54.671,71.441 54.671,69.764 C54.671,69.062 54.814,68.451 54.931,67.944 Z M69.036,69.946 C69.595,69.946 70.219,69.114 70.817,67.125 C71.142,66.111 71.389,64.941 71.519,63.81 C69.205,64.187 67.853,66.202 67.853,67.788 C67.853,69.27 68.516,69.946 69.036,69.946 Z M72.494,72.429 L71.727,71.207 C72.182,71.168 72.559,71.103 72.871,71.025 C74.522,70.648 75.991,69.452 75.991,67.372 C75.991,65.5 74.873,64.031 72.897,63.784 C72.715,64.941 72.481,66.189 72.13,67.398 C71.35,70.024 70.284,71.493 68.997,71.493 C67.723,71.493 66.553,70.05 66.553,67.905 C66.553,65.045 69.088,62.562 72.312,62.562 C75.406,62.562 77.369,64.72 77.369,67.424 C77.369,70.115 75.64,71.987 72.494,72.429 Z M82.894,65.916 L83.336,65.89 C83.609,65.539 83.882,65.123 84.168,64.681 C83.843,64.278 83.297,63.771 82.829,63.407 L83.31,62.744 C83.401,62.809 83.479,62.874 83.57,62.952 C83.843,62.393 84.116,61.704 84.298,61.197 L85.221,61.561 C84.87,62.198 84.493,62.926 84.168,63.446 C84.337,63.602 84.493,63.771 84.623,63.914 C84.909,63.42 85.169,62.939 85.364,62.523 L86.222,62.926 C85.663,63.862 84.961,64.967 84.324,65.825 L85.325,65.76 C85.247,65.513 85.143,65.266 85.052,65.045 L85.754,64.798 C86.066,65.396 86.352,66.202 86.417,66.696 L85.663,67.008 C85.65,66.878 85.611,66.735 85.572,66.579 C84.675,66.683 83.83,66.774 83.063,66.839 L82.894,65.916 Z M87.444,65.747 L87.847,65.721 C88.081,65.422 88.328,65.058 88.575,64.681 C88.263,64.304 87.769,63.823 87.314,63.459 C87.353,65.019 87.47,66.436 87.652,67.658 L89.121,67.658 C88.861,67.437 88.536,67.19 88.25,67.021 L88.796,66.514 L87.626,66.644 L87.444,65.747 Z M89.134,68.724 L90.148,69.101 C89.771,69.881 89.277,70.557 88.653,71.155 C88.978,71.714 89.355,72.013 89.771,72.013 C90.122,72.013 90.252,71.727 90.317,70.635 C90.525,70.856 90.889,71.064 91.123,71.168 C90.941,72.624 90.603,73.04 89.693,73.04 C88.939,73.04 88.341,72.598 87.86,71.831 C87.223,72.299 86.521,72.702 85.741,73.014 C85.598,72.806 85.312,72.429 85.091,72.234 C85.975,71.909 86.755,71.48 87.418,70.934 C87.145,70.284 86.937,69.504 86.768,68.62 L85,68.62 C84.974,68.841 84.948,69.049 84.922,69.257 C85.533,69.647 86.222,70.128 86.586,70.479 L85.949,71.311 C85.676,71.038 85.195,70.648 84.714,70.297 C84.441,71.389 83.934,72.325 83.011,73.001 C82.855,72.754 82.556,72.364 82.296,72.208 C83.453,71.402 83.791,70.05 83.921,68.62 L83.05,68.62 L83.05,67.97 L82.608,68.594 C82.452,68.191 82.127,67.489 81.815,66.878 L81.815,73.014 L80.723,73.014 L80.723,67.541 C80.372,68.737 79.943,69.868 79.475,70.609 C79.345,70.297 79.085,69.842 78.916,69.595 C79.618,68.516 80.281,66.592 80.619,64.941 L79.189,64.941 L79.189,63.836 L80.723,63.836 L80.723,61.093 L81.815,61.093 L81.815,63.836 L83.102,63.836 L83.102,64.941 L81.815,64.941 L81.815,65.5 C82.14,65.968 82.894,67.203 83.154,67.658 L86.612,67.658 C86.339,65.76 86.235,63.511 86.222,61.106 L87.288,61.106 C87.275,61.86 87.288,62.601 87.301,63.316 L87.717,62.744 C87.808,62.809 87.886,62.874 87.977,62.939 C88.25,62.406 88.536,61.704 88.705,61.197 L89.641,61.548 C89.277,62.185 88.887,62.913 88.575,63.433 C88.744,63.602 88.913,63.758 89.03,63.914 C89.316,63.42 89.576,62.939 89.771,62.523 L90.629,62.926 C90.096,63.81 89.433,64.85 88.835,65.656 L89.94,65.578 C89.849,65.357 89.758,65.136 89.654,64.941 L90.356,64.655 C90.694,65.266 91.019,66.046 91.097,66.553 L90.356,66.891 C90.33,66.735 90.278,66.553 90.226,66.371 C89.771,66.423 89.329,66.462 88.913,66.514 C89.342,66.761 89.862,67.125 90.122,67.398 L89.849,67.658 L90.889,67.658 L90.889,68.62 L87.821,68.62 C87.938,69.192 88.068,69.712 88.224,70.154 C88.601,69.712 88.9,69.231 89.134,68.724 Z M102.355,66.8 L100.34,66.8 C98.975,66.8 98.637,66.462 98.637,65.227 L98.637,61.119 L99.846,61.119 L99.846,63.147 C100.847,62.796 101.861,62.367 102.55,62.003 L103.33,62.874 C102.329,63.329 101.029,63.784 99.846,64.135 L99.846,65.214 C99.846,65.643 99.937,65.721 100.483,65.721 L102.251,65.721 C102.719,65.721 102.797,65.513 102.849,64.304 C103.109,64.499 103.603,64.681 103.941,64.746 C103.811,66.371 103.46,66.8 102.355,66.8 Z M93.931,69.543 L96.323,69.543 L96.323,68.555 L93.931,68.555 L93.931,69.543 Z M96.323,66.709 L93.931,66.709 L93.931,67.632 L96.323,67.632 L96.323,66.709 Z M97.519,65.695 L97.519,71.714 C97.519,72.286 97.402,72.598 97.025,72.793 C96.622,72.975 96.05,72.988 95.257,72.988 C95.192,72.676 95.023,72.208 94.854,71.896 C95.4,71.922 95.933,71.922 96.115,71.909 C96.284,71.909 96.323,71.857 96.323,71.701 L96.323,70.466 L93.931,70.466 L93.931,73.001 L92.8,73.001 L92.8,65.695 L97.519,65.695 Z M95.764,62.367 L96.778,61.977 C97.441,62.874 98.143,64.083 98.403,64.902 L97.324,65.344 C97.259,65.136 97.155,64.889 97.038,64.616 C95.257,64.72 93.463,64.837 92.137,64.915 L92.033,63.758 C92.332,63.745 92.657,63.732 93.021,63.719 C93.437,62.9 93.866,61.847 94.1,61.054 L95.361,61.34 C95.036,62.12 94.646,62.952 94.282,63.667 L96.505,63.563 C96.271,63.147 96.024,62.731 95.764,62.367 Z M100.509,71.857 L102.342,71.857 C102.849,71.857 102.94,71.61 102.992,70.219 C103.265,70.401 103.746,70.596 104.071,70.674 C103.928,72.442 103.59,72.91 102.446,72.91 L100.353,72.91 C98.988,72.91 98.637,72.559 98.637,71.35 L98.637,67.125 L99.833,67.125 L99.833,69.049 C100.899,68.672 101.978,68.204 102.68,67.749 L103.46,68.633 C102.472,69.205 101.081,69.673 99.833,70.05 L99.833,71.337 C99.833,71.779 99.937,71.857 100.509,71.857 Z M106.593,61.938 L108.01,62.068 C107.919,62.289 107.802,62.822 107.75,63.056 C107.516,64.096 107.126,66.774 107.126,68.152 C107.126,68.607 107.152,69.036 107.217,69.504 C107.399,68.971 107.672,68.347 107.867,67.879 L108.53,68.399 C108.192,69.361 107.75,70.674 107.607,71.337 C107.568,71.506 107.542,71.766 107.542,71.922 C107.555,72.052 107.555,72.247 107.568,72.403 L106.424,72.481 C106.164,71.584 105.917,70.141 105.917,68.399 C105.917,66.475 106.333,64.031 106.489,63.004 C106.528,62.679 106.58,62.276 106.593,61.938 Z M113.119,69.933 L113.119,69.582 C112.729,69.478 112.339,69.413 111.923,69.413 C111.065,69.413 110.48,69.79 110.48,70.323 C110.48,70.921 111.052,71.22 111.871,71.22 C112.82,71.22 113.119,70.739 113.119,69.933 Z M116.876,70.518 L116.187,71.584 C115.589,71.025 115.004,70.544 114.406,70.18 L114.406,70.219 C114.406,71.415 113.834,72.429 112.04,72.429 C110.298,72.429 109.284,71.701 109.284,70.466 C109.284,69.283 110.311,68.399 112.027,68.399 C112.391,68.399 112.742,68.425 113.067,68.477 C113.028,67.58 112.976,66.475 112.95,65.474 C112.586,65.487 112.222,65.5 111.858,65.5 C111.117,65.5 110.415,65.461 109.661,65.422 L109.648,64.2 C110.389,64.265 111.104,64.304 111.871,64.304 C112.235,64.304 112.586,64.291 112.95,64.278 C112.95,63.641 112.937,63.095 112.937,62.77 C112.937,62.549 112.911,62.198 112.859,61.951 L114.328,61.951 C114.289,62.211 114.263,62.484 114.25,62.744 C114.237,63.069 114.224,63.615 114.211,64.2 C114.965,64.135 115.68,64.044 116.343,63.914 L116.343,65.175 C115.68,65.279 114.952,65.357 114.211,65.409 C114.237,66.696 114.315,67.853 114.354,68.841 C115.42,69.27 116.226,69.933 116.876,70.518 Z M30.218,80.054 L31.349,80.431 C30.985,81.302 30.556,82.199 30.062,83.044 L30.062,92.079 L28.918,92.079 L28.918,84.786 C28.515,85.332 28.086,85.839 27.657,86.268 C27.54,85.982 27.202,85.332 26.994,85.046 C28.268,83.85 29.49,81.965 30.218,80.054 Z M32.389,86.32 L34.378,86.32 L34.378,84.669 L32.389,84.669 L32.389,86.32 Z M37.628,84.669 L35.574,84.669 L35.574,86.32 L37.628,86.32 L37.628,84.669 Z M38.785,87.321 L35.496,87.321 C35.392,88.179 35.184,88.985 34.703,89.7 C35.951,90.35 37.524,90.766 39.318,90.948 C39.084,91.208 38.759,91.702 38.603,92.04 C36.809,91.78 35.262,91.299 34.001,90.558 C33.351,91.169 32.454,91.676 31.193,92.053 C31.05,91.78 30.712,91.299 30.452,91.052 C31.609,90.779 32.441,90.363 33.013,89.882 C32.311,89.31 31.726,88.634 31.271,87.841 L32.259,87.529 C32.623,88.127 33.117,88.647 33.715,89.089 C34.053,88.543 34.222,87.945 34.3,87.321 L31.284,87.321 L31.284,83.668 L34.378,83.668 L34.378,82.55 L30.959,82.55 L30.959,81.445 L34.378,81.445 L34.378,80.158 L35.574,80.158 L35.574,81.445 L39.162,81.445 L39.162,82.55 L35.574,82.55 L35.574,83.668 L38.785,83.668 L38.785,87.321 Z M46.897,87.022 L50.043,87.022 L50.043,85.098 L46.897,85.098 L46.897,87.022 Z M42.815,87.022 L45.688,87.022 L45.688,85.098 L42.867,85.098 L42.867,85.618 C42.867,86.06 42.854,86.541 42.815,87.022 Z M45.688,82.134 L42.867,82.134 L42.867,83.967 L45.688,83.967 L45.688,82.134 Z M50.043,83.967 L50.043,82.134 L46.897,82.134 L46.897,83.967 L50.043,83.967 Z M51.252,80.977 L51.252,90.506 C51.252,91.208 51.083,91.572 50.615,91.754 C50.134,91.949 49.38,91.975 48.184,91.962 C48.132,91.637 47.937,91.104 47.781,90.792 C48.613,90.831 49.471,90.818 49.718,90.818 C49.952,90.818 50.043,90.74 50.043,90.493 L50.043,88.166 L46.897,88.166 L46.897,91.884 L45.688,91.884 L45.688,88.166 L42.698,88.166 C42.49,89.596 42.022,91.052 41.073,92.105 C40.891,91.871 40.397,91.455 40.124,91.312 C41.541,89.739 41.671,87.438 41.671,85.605 L41.671,80.977 L51.252,80.977 Z M59.793,86.697 L63.173,86.697 L63.173,83.551 L59.793,83.551 L59.793,86.697 Z M55.165,86.697 L58.532,86.697 L58.532,83.551 L55.165,83.551 L55.165,86.697 Z M59.793,82.368 L64.434,82.368 L64.434,88.582 L63.173,88.582 L63.173,87.88 L59.793,87.88 L59.793,92.014 L58.532,92.014 L58.532,87.88 L55.165,87.88 L55.165,88.647 L53.956,88.647 L53.956,82.368 L58.532,82.368 L58.532,80.106 L59.793,80.106 L59.793,82.368 Z M69.231,88.946 C69.79,88.946 70.414,88.114 71.012,86.125 C71.337,85.111 71.584,83.941 71.714,82.81 C69.4,83.187 68.048,85.202 68.048,86.788 C68.048,88.27 68.711,88.946 69.231,88.946 Z M72.689,91.429 L71.922,90.207 C72.377,90.168 72.754,90.103 73.066,90.025 C74.717,89.648 76.186,88.452 76.186,86.372 C76.186,84.5 75.068,83.031 73.092,82.784 C72.91,83.941 72.676,85.189 72.325,86.398 C71.545,89.024 70.479,90.493 69.192,90.493 C67.918,90.493 66.748,89.05 66.748,86.905 C66.748,84.045 69.283,81.562 72.507,81.562 C75.601,81.562 77.564,83.72 77.564,86.424 C77.564,89.115 75.835,90.987 72.689,91.429 Z M88.445,81.627 L89.29,82.251 C89.199,82.381 89.004,82.706 88.913,82.927 C88.458,83.993 87.691,85.462 86.781,86.632 C88.12,87.776 89.693,89.453 90.499,90.441 L89.342,91.455 C88.497,90.285 87.197,88.855 85.91,87.659 C84.519,89.141 82.777,90.532 80.905,91.39 L79.852,90.298 C81.958,89.492 83.908,87.932 85.195,86.489 C86.079,85.501 86.95,84.071 87.262,83.057 L82.491,83.057 C81.984,83.057 81.282,83.122 81.074,83.135 L81.074,81.666 C81.334,81.705 82.088,81.757 82.491,81.757 L87.314,81.757 C87.795,81.757 88.224,81.705 88.445,81.627 Z M102.134,82.03 L103.187,82.68 C103.07,82.901 102.914,83.226 102.823,83.486 C102.498,84.565 101.861,85.943 100.977,87.217 C101.458,87.529 101.9,87.815 102.225,88.049 L101.315,89.245 C101.003,88.985 100.574,88.673 100.08,88.335 C98.923,89.648 97.337,90.857 95.127,91.702 L93.944,90.662 C96.232,89.973 97.818,88.79 98.949,87.581 C97.987,86.957 96.986,86.346 96.284,85.956 L97.142,84.981 C97.87,85.358 98.871,85.93 99.82,86.502 C100.535,85.475 101.12,84.253 101.354,83.343 L97.22,83.343 C96.362,84.526 95.192,85.774 93.801,86.723 L92.683,85.878 C94.945,84.487 96.232,82.602 96.843,81.445 C97.012,81.185 97.246,80.652 97.337,80.275 L98.819,80.743 C98.572,81.133 98.286,81.627 98.156,81.887 L98,82.173 L101.159,82.173 C101.523,82.173 101.887,82.121 102.134,82.03 Z M107.724,81.315 C108.647,81.926 110.324,83.278 111.052,84.032 L110.025,85.085 C109.349,84.396 107.737,82.992 106.775,82.329 L107.724,81.315 Z M106.385,90.012 C108.556,89.687 110.246,88.959 111.494,88.192 C113.587,86.905 115.212,84.955 116.005,83.291 L116.798,84.708 C115.862,86.385 114.263,88.166 112.235,89.414 C110.922,90.22 109.271,90.987 107.256,91.351 L106.385,90.012 Z M128.563,82.381 C129.018,82.381 129.382,82.03 129.382,81.575 C129.382,81.133 129.018,80.769 128.563,80.769 C128.121,80.769 127.757,81.133 127.757,81.575 C127.757,82.03 128.121,82.381 128.563,82.381 Z M120.256,81.952 L126.561,81.952 C126.717,81.952 126.912,81.952 127.107,81.926 C127.081,81.809 127.068,81.692 127.068,81.575 C127.068,80.756 127.744,80.08 128.563,80.08 C129.395,80.08 130.071,80.756 130.071,81.575 C130.071,82.407 129.395,83.07 128.563,83.07 C128.446,83.07 128.329,83.057 128.225,83.031 L128.16,83.278 C127.874,84.604 127.263,86.658 126.21,88.049 C125.027,89.583 123.402,90.831 121.049,91.572 L119.931,90.35 C122.479,89.726 123.948,88.608 125.014,87.256 C125.911,86.112 126.47,84.448 126.639,83.265 L120.256,83.265 C119.697,83.265 119.177,83.291 118.852,83.304 L118.852,81.861 C119.216,81.913 119.827,81.952 120.256,81.952 Z M139.99,82.16 L140.692,83.343 C140.367,83.538 140.003,83.733 139.587,83.941 C138.742,84.37 137.039,85.176 135.817,85.982 C134.673,86.723 133.958,87.529 133.958,88.465 C133.958,89.466 134.907,90.051 136.831,90.051 C138.196,90.051 139.938,89.856 140.991,89.609 L140.978,91.065 C139.964,91.247 138.521,91.39 136.883,91.39 C134.4,91.39 132.567,90.662 132.567,88.608 C132.567,87.243 133.438,86.19 134.751,85.254 C134.166,84.162 133.516,82.719 132.918,81.341 L134.205,80.821 C134.712,82.199 135.336,83.512 135.882,84.526 C137.013,83.85 138.287,83.213 138.95,82.836 C139.379,82.589 139.691,82.407 139.99,82.16 Z M21.313,106.529 L22.34,106.711 C22.171,107.933 21.872,109.194 21.469,110.026 C21.274,109.883 20.793,109.662 20.546,109.571 C20.936,108.791 21.183,107.647 21.313,106.529 Z M24.836,105.619 L23.874,105.684 L23.874,111.04 L22.795,111.04 L22.795,105.749 C22.054,105.788 21.365,105.827 20.767,105.866 L20.663,104.8 L21.573,104.774 C21.82,104.462 22.067,104.124 22.327,103.76 C21.924,103.188 21.261,102.486 20.689,101.94 L21.274,101.134 L21.625,101.446 C22.028,100.731 22.457,99.795 22.691,99.093 L23.783,99.483 C23.315,100.367 22.769,101.394 22.301,102.096 C22.548,102.356 22.769,102.616 22.938,102.85 C23.445,102.07 23.913,101.264 24.251,100.588 L25.278,101.03 C24.537,102.213 23.562,103.643 22.691,104.722 L24.42,104.657 C24.251,104.293 24.069,103.942 23.874,103.617 L24.745,103.24 C25.278,104.085 25.811,105.19 25.993,105.905 L25.07,106.347 C25.018,106.139 24.94,105.892 24.836,105.619 Z M24.16,106.763 L25.07,106.464 C25.421,107.244 25.772,108.258 25.915,108.921 L24.953,109.259 C24.836,108.583 24.485,107.556 24.16,106.763 Z M27.644,107.335 L27.644,109.571 L30.569,109.571 L30.569,107.335 L27.644,107.335 Z M30.569,100.874 L27.644,100.874 L27.644,103.006 L30.569,103.006 L30.569,100.874 Z M30.569,106.243 L30.569,104.098 L27.644,104.098 L27.644,106.243 L30.569,106.243 Z M31.791,109.571 L32.727,109.571 L32.727,110.663 L25.174,110.663 L25.174,109.571 L26.461,109.571 L26.461,99.782 L31.791,99.782 L31.791,109.571 Z M36.627,107.764 C37.017,107.218 37.446,106.23 37.862,105.307 C36.198,105.502 35.262,106.49 35.262,107.465 C35.262,107.92 35.561,108.206 35.899,108.206 C36.172,108.206 36.367,108.102 36.627,107.764 Z M45.532,106.659 L44.934,108.063 C44.57,107.738 44.154,107.413 43.699,107.101 C43.153,108.674 42.165,109.857 40.371,110.78 L39.279,109.883 C41.281,109.038 42.191,107.725 42.62,106.425 C41.606,105.879 40.462,105.45 39.227,105.32 C38.746,106.438 38.148,107.842 37.667,108.557 C37.186,109.259 36.627,109.558 35.873,109.558 C34.846,109.558 34.066,108.83 34.066,107.647 C34.066,105.71 35.847,104.215 38.395,104.124 C38.811,103.188 39.24,102.187 39.591,101.485 C39.084,101.498 37.719,101.563 37.134,101.602 C36.861,101.615 36.458,101.654 36.133,101.693 L36.081,100.367 C36.419,100.393 36.822,100.406 37.095,100.406 C37.797,100.406 39.344,100.341 39.916,100.289 C40.189,100.276 40.462,100.211 40.657,100.133 L41.463,100.783 C41.32,100.939 41.19,101.082 41.086,101.264 C40.748,101.823 40.228,103.032 39.721,104.189 C40.878,104.345 41.957,104.709 42.906,105.138 C42.945,104.891 42.971,104.644 42.984,104.41 C43.01,104.007 43.01,103.552 42.984,103.136 L44.31,103.279 C44.271,104.176 44.193,104.982 44.05,105.723 C44.635,106.048 45.129,106.386 45.532,106.659 Z M55.503,106.906 L49.913,106.906 L49.913,109.454 L55.503,109.454 L55.503,106.906 Z M48.73,111.04 L48.73,105.814 L56.738,105.814 L56.738,111.04 L55.503,111.04 L55.503,110.533 L49.913,110.533 L49.913,111.04 L48.73,111.04 Z M49.731,103.266 L55.724,103.266 C54.502,102.356 53.384,101.303 52.656,100.302 C51.993,101.264 50.953,102.33 49.731,103.266 Z M51.98,99.119 L53.215,99.119 C54.606,101.056 56.803,102.772 58.844,103.656 C58.545,103.955 58.259,104.371 58.051,104.735 C57.362,104.371 56.634,103.929 55.945,103.422 L55.945,104.345 L49.471,104.345 L49.471,103.461 C48.808,103.955 48.093,104.397 47.378,104.787 C47.235,104.501 46.884,104.072 46.637,103.825 C48.86,102.694 50.992,100.744 51.98,99.119 Z M64.109,101.524 L64.564,102.07 C64.395,102.304 64.161,102.668 63.953,102.993 C63.94,103.201 63.914,103.422 63.901,103.63 C65.266,102.551 66.657,102.148 67.853,102.148 C69.725,102.148 71.298,103.461 71.311,105.489 C71.324,108.089 69.543,109.532 66.553,110.117 L65.968,108.882 C68.178,108.557 69.972,107.595 69.972,105.463 C69.972,104.462 69.179,103.344 67.658,103.344 C66.228,103.344 64.941,104.033 63.81,105.086 C63.784,105.554 63.771,106.009 63.771,106.412 C63.771,107.53 63.758,108.453 63.823,109.623 C63.836,109.857 63.875,110.234 63.901,110.494 L62.497,110.494 C62.51,110.273 62.536,109.857 62.536,109.649 C62.549,108.453 62.562,107.712 62.588,106.282 C61.99,107.166 61.236,108.284 60.69,109.025 L59.884,107.894 C60.599,107.01 62.003,105.151 62.692,104.111 L62.757,102.993 C62.159,103.071 61.106,103.214 60.326,103.318 L60.196,101.992 C60.521,102.005 60.794,101.992 61.158,101.979 C61.561,101.953 62.224,101.875 62.848,101.784 C62.887,101.225 62.913,100.809 62.913,100.666 C62.913,100.341 62.913,99.977 62.848,99.626 L64.369,99.678 C64.304,100.003 64.2,100.692 64.109,101.524 Z M80.541,99.938 L81.932,99.938 C81.893,100.146 81.867,100.64 81.867,100.952 C81.854,101.498 81.841,102.057 81.828,102.564 C82.27,102.525 82.686,102.499 83.05,102.473 C83.401,102.46 83.83,102.434 84.155,102.395 L84.155,103.669 C83.947,103.656 83.375,103.682 83.05,103.682 C82.712,103.695 82.283,103.708 81.802,103.747 C81.776,104.709 81.724,105.827 81.607,106.399 C81.49,107.01 81.191,107.179 80.567,107.179 C80.112,107.179 79.163,107.049 78.773,106.984 L78.799,105.853 C79.215,105.931 79.761,106.009 80.034,106.009 C80.32,106.009 80.45,105.97 80.489,105.697 C80.554,105.294 80.593,104.566 80.606,103.838 C79.371,103.929 77.967,104.072 76.771,104.189 C76.758,105.45 76.745,106.724 76.771,107.244 C76.81,108.57 76.862,108.973 78.955,108.973 C80.294,108.973 81.906,108.817 82.79,108.661 L82.751,110.052 C81.88,110.143 80.307,110.26 79.033,110.26 C75.9,110.26 75.562,109.558 75.51,107.439 C75.497,106.893 75.497,105.58 75.497,104.319 C75.016,104.371 74.626,104.41 74.34,104.449 C73.937,104.501 73.274,104.592 72.936,104.644 L72.793,103.331 C73.183,103.331 73.716,103.305 74.249,103.253 C74.535,103.227 74.964,103.188 75.497,103.136 L75.497,101.563 C75.497,101.121 75.471,100.744 75.419,100.328 L76.849,100.328 C76.81,100.679 76.784,101.043 76.784,101.498 C76.784,101.862 76.784,102.408 76.771,103.019 C77.954,102.902 79.345,102.772 80.632,102.655 L80.632,100.991 C80.632,100.692 80.58,100.172 80.541,99.938 Z M89.238,100.965 L89.563,99.73 C90.72,100.094 93.489,100.601 94.62,100.718 L94.321,101.979 C93.06,101.81 90.226,101.225 89.238,100.965 Z M89.446,102.174 C89.277,102.98 89.056,104.709 88.952,105.502 C90.148,104.54 91.5,104.098 92.943,104.098 C95.036,104.098 96.362,105.385 96.362,106.906 C96.362,109.233 94.386,110.897 89.368,110.481 L88.965,109.142 C92.943,109.649 94.958,108.583 94.958,106.88 C94.958,105.931 94.074,105.268 92.839,105.268 C91.24,105.268 89.914,105.853 89.043,106.88 C88.835,107.127 88.718,107.348 88.614,107.569 L87.418,107.283 C87.665,106.074 87.99,103.448 88.068,101.992 L89.446,102.174 Z M110.61,107.673 L110.805,109.09 C110.155,109.727 109.362,110.117 108.413,110.117 C107.516,110.117 106.892,109.493 106.892,108.349 C106.892,106.932 107.373,104.917 107.373,103.695 C107.373,103.006 107.022,102.694 106.411,102.694 C105.41,102.694 103.928,103.903 102.81,105.112 C102.784,105.567 102.771,106.009 102.771,106.412 C102.771,107.53 102.758,108.453 102.823,109.623 C102.836,109.857 102.875,110.234 102.901,110.494 L101.497,110.494 C101.51,110.273 101.536,109.857 101.536,109.649 C101.549,108.453 101.562,107.712 101.588,106.282 C100.99,107.166 100.236,108.284 99.69,109.025 L98.884,107.894 C99.599,106.997 101.003,105.138 101.692,104.098 C101.718,103.734 101.744,103.357 101.77,102.993 C101.172,103.071 100.106,103.214 99.326,103.318 L99.196,101.992 C99.521,102.005 99.794,101.992 100.158,101.979 C100.561,101.953 101.237,101.875 101.848,101.784 C101.887,101.225 101.913,100.809 101.913,100.666 C101.913,100.341 101.913,99.977 101.848,99.626 L103.369,99.678 C103.304,100.003 103.2,100.692 103.109,101.524 L103.564,102.07 C103.395,102.304 103.161,102.668 102.953,102.993 C102.94,103.175 102.927,103.344 102.914,103.526 C103.915,102.616 105.488,101.485 106.749,101.485 C108.036,101.485 108.66,102.226 108.66,103.292 C108.66,104.592 108.205,106.672 108.205,107.985 C108.205,108.388 108.387,108.674 108.79,108.674 C109.362,108.674 110.025,108.297 110.61,107.673 Z M117.565,108.401 C117.565,108.219 117.565,107.972 117.552,107.673 C117.175,107.608 116.798,107.569 116.395,107.569 C115.303,107.569 114.718,107.985 114.718,108.518 C114.718,109.064 115.199,109.441 116.304,109.441 C117.032,109.441 117.565,109.233 117.565,108.401 Z M122.466,108.804 L121.725,109.935 C120.997,109.259 120.009,108.531 118.852,108.063 C118.852,108.323 118.865,108.544 118.865,108.726 C118.865,109.701 118.163,110.598 116.486,110.598 C114.536,110.598 113.483,109.883 113.483,108.583 C113.483,107.361 114.64,106.503 116.564,106.503 C116.889,106.503 117.201,106.529 117.513,106.555 C117.487,106.074 117.474,105.554 117.461,105.086 L116.759,105.086 C115.94,105.086 114.484,105.021 113.587,104.917 L113.6,103.695 C114.406,103.851 115.992,103.942 116.772,103.942 L117.435,103.942 L117.435,102.317 L116.798,102.317 C115.94,102.317 114.627,102.226 113.873,102.122 L113.873,100.939 C114.666,101.082 115.953,101.186 116.785,101.186 L117.448,101.186 L117.448,100.458 C117.448,100.224 117.422,99.847 117.396,99.639 L118.774,99.639 C118.748,99.873 118.709,100.159 118.696,100.51 C118.696,100.653 118.683,100.887 118.683,101.147 C119.762,101.095 120.763,100.991 121.894,100.822 L121.907,102.005 C120.971,102.096 119.892,102.213 118.67,102.265 L118.67,103.903 C119.944,103.838 121.075,103.721 122.18,103.565 L122.193,104.787 C120.997,104.93 119.931,105.008 118.696,105.06 C118.709,105.645 118.748,106.256 118.787,106.815 C120.451,107.283 121.725,108.193 122.466,108.804 Z M132.151,99.938 L133.542,99.938 C133.503,100.146 133.477,100.64 133.477,100.952 C133.464,101.498 133.451,102.057 133.438,102.564 C133.88,102.525 134.296,102.499 134.66,102.473 C135.011,102.46 135.44,102.434 135.765,102.395 L135.765,103.669 C135.557,103.656 134.985,103.682 134.66,103.682 C134.322,103.695 133.893,103.708 133.412,103.747 C133.386,104.709 133.334,105.827 133.217,106.399 C133.1,107.01 132.801,107.179 132.177,107.179 C131.722,107.179 130.773,107.049 130.383,106.984 L130.409,105.853 C130.825,105.931 131.371,106.009 131.644,106.009 C131.93,106.009 132.06,105.97 132.099,105.697 C132.164,105.294 132.203,104.566 132.216,103.838 C130.981,103.929 129.577,104.072 128.381,104.189 C128.368,105.45 128.355,106.724 128.381,107.244 C128.42,108.57 128.472,108.973 130.565,108.973 C131.904,108.973 133.516,108.817 134.4,108.661 L134.361,110.052 C133.49,110.143 131.917,110.26 130.643,110.26 C127.51,110.26 127.172,109.558 127.12,107.439 C127.107,106.893 127.107,105.58 127.107,104.319 C126.626,104.371 126.236,104.41 125.95,104.449 C125.547,104.501 124.884,104.592 124.546,104.644 L124.403,103.331 C124.793,103.331 125.326,103.305 125.859,103.253 C126.145,103.227 126.574,103.188 127.107,103.136 L127.107,101.563 C127.107,101.121 127.081,100.744 127.029,100.328 L128.459,100.328 C128.42,100.679 128.394,101.043 128.394,101.498 C128.394,101.862 128.394,102.408 128.381,103.019 C129.564,102.902 130.955,102.772 132.242,102.655 L132.242,100.991 C132.242,100.692 132.19,100.172 132.151,99.938 Z M144.163,100.224 C144.046,100.38 143.903,100.614 143.76,100.835 C143.162,101.745 142.018,103.799 141.368,104.995 C141.94,104.566 142.512,104.397 143.071,104.397 C143.981,104.397 144.579,104.982 144.631,106.022 C144.657,106.698 144.631,107.699 144.683,108.297 C144.722,108.869 145.125,109.103 145.619,109.103 C146.919,109.103 147.699,107.491 148.05,106.009 L149.142,106.893 C148.466,109.038 147.335,110.481 145.411,110.481 C144.02,110.481 143.474,109.623 143.422,108.791 C143.383,108.063 143.396,107.036 143.357,106.412 C143.331,105.905 143.032,105.593 142.499,105.593 C141.537,105.593 140.679,106.581 140.198,107.608 C139.834,108.362 139.327,109.844 139.145,110.507 L137.715,110.026 C138.664,107.426 141.485,102.005 142.174,100.77 C142.33,100.445 142.538,100.094 142.72,99.639 L144.163,100.224 Z" id="この機能は使用中のスタンプと組み合わせられません" fill="#1B1B1B" fill-rule="nonzero"></path>
            </g>
        </g>
    </g>
</svg>