<?xml version="1.0" encoding="UTF-8"?>
<svg width="170px" height="170px" viewBox="0 0 170 170" version="1.1" xmlns="http://www.w3.org/2000/svg" xmlns:xlink="http://www.w3.org/1999/xlink">
    <!-- Generator: Sketch 54.1 (76490) - https://sketchapp.com -->
    <title>Remix_Disable_EN</title>
    <desc>Created with Sketch.</desc>
    <g id="Make" stroke="none" stroke-width="1" fill="none" fill-rule="evenodd">
        <g id="C-35&gt;Shake-to-Remix复制-2" transform="translate(-12.000000, -64.000000)">
            <g id="Remix_Disable_EN" transform="translate(12.000000, 64.000000)">
                <rect id="矩形" fill="#FFFFFF" opacity="0.900000036" x="0" y="0" width="170" height="170"></rect>
                <path d="M48.255,66.434 L45.473,66.434 L45.473,64.718 L53.078,64.718 L53.078,66.434 L50.296,66.434 L50.296,74 L48.255,74 L48.255,66.434 Z M53.949,64.718 L55.795,64.718 L55.795,68.215 L55.834,68.215 C56.0680012,67.8249981 56.3669982,67.5411676 56.731,67.3635 C57.0950018,67.1858324 57.4503316,67.097 57.797,67.097 C58.2910025,67.097 58.6961651,67.164166 59.0125,67.2985 C59.3288349,67.432834 59.5779991,67.6191655 59.76,67.8575 C59.9420009,68.0958345 60.069833,68.386165 60.1435,68.7285 C60.217167,69.070835 60.254,69.4499979 60.254,69.866 L60.254,74 L58.408,74 L58.408,70.204 C58.408,69.6493306 58.3213342,69.2355014 58.148,68.9625 C57.9746658,68.6894986 57.6670022,68.553 57.225,68.553 C56.7223308,68.553 56.3583345,68.7024985 56.133,69.0015 C55.9076655,69.3005015 55.795,69.7923299 55.795,70.477 L55.795,74 L53.949,74 L53.949,64.718 Z M63.556,66.239 L61.71,66.239 L61.71,64.718 L63.556,64.718 L63.556,66.239 Z M61.71,67.279 L63.556,67.279 L63.556,74 L61.71,74 L61.71,67.279 Z M66.442,71.816 C66.442,72.0153343 66.4831663,72.1864993 66.5655,72.3295 C66.6478337,72.4725007 66.7539993,72.5894995 66.884,72.6805 C67.0140006,72.7715005 67.1634992,72.8386665 67.3325,72.882 C67.5015008,72.9253336 67.6769991,72.947 67.859,72.947 C67.9890006,72.947 68.1254993,72.9318335 68.2685,72.9015 C68.4115007,72.8711665 68.5414994,72.8235003 68.6585,72.7585 C68.7755006,72.6934997 68.8729996,72.6068339 68.951,72.4985 C69.0290004,72.3901661 69.068,72.2536675 69.068,72.089 C69.068,71.8116653 68.8838352,71.6036674 68.5155,71.465 C68.1471648,71.3263326 67.63367,71.1876674 66.975,71.049 C66.706332,70.988333 66.4441679,70.9168337 66.1885,70.8345 C65.9328321,70.7521663 65.7053343,70.643834 65.506,70.5095 C65.3066657,70.375166 65.1463339,70.2061677 65.025,70.0025 C64.9036661,69.7988323 64.843,69.5496681 64.843,69.255 C64.843,68.8216645 64.9274992,68.4663347 65.0965,68.189 C65.2655008,67.9116653 65.4886653,67.6928341 65.766,67.5325 C66.0433347,67.3721659 66.3553316,67.2595003 66.702,67.1945 C67.0486684,67.1294997 67.4039982,67.097 67.768,67.097 C68.1320018,67.097 68.485165,67.1316663 68.8275,67.201 C69.169835,67.2703337 69.475332,67.3873325 69.744,67.552 C70.012668,67.7166675 70.2358324,67.9354986 70.4135,68.2085 C70.5911676,68.4815014 70.6973332,68.8259979 70.732,69.242 L68.977,69.242 C68.9509999,68.8866649 68.8166679,68.6461673 68.574,68.5205 C68.3313321,68.3948327 68.045335,68.332 67.716,68.332 C67.6119995,68.332 67.4993339,68.3384999 67.378,68.3515 C67.2566661,68.3645001 67.1461672,68.3926665 67.0465,68.436 C66.9468328,68.4793335 66.8623337,68.5421663 66.793,68.6245 C66.7236663,68.7068337 66.689,68.8173326 66.689,68.956 C66.689,69.1206675 66.7496661,69.2549995 66.871,69.359 C66.9923339,69.4630005 67.150499,69.5474997 67.3455,69.6125 C67.540501,69.6775003 67.7636654,69.7359997 68.015,69.788 C68.2663346,69.8400003 68.5219987,69.896333 68.782,69.957 C69.050668,70.017667 69.3128321,70.0913329 69.5685,70.178 C69.8241679,70.2646671 70.0516657,70.3794993 70.251,70.5225 C70.4503343,70.6655007 70.6106661,70.8431656 70.732,71.0555 C70.8533339,71.2678344 70.914,71.5299984 70.914,71.842 C70.914,72.2840022 70.8251676,72.6544985 70.6475,72.9535 C70.4698324,73.2525015 70.2380014,73.4929991 69.952,73.675 C69.6659986,73.8570009 69.3388352,73.984833 68.9705,74.0585 C68.6021648,74.132167 68.2273352,74.169 67.846,74.169 C67.455998,74.169 67.0746685,74.1300004 66.702,74.052 C66.3293315,73.9739996 65.9978348,73.8440009 65.7075,73.662 C65.4171652,73.4799991 65.1788343,73.2395015 64.9925,72.9405 C64.8061657,72.6414985 64.7043334,72.2666689 64.687,71.816 L66.442,71.816 Z M76.01,68.514 L74.905,68.514 L74.905,67.279 L76.01,67.279 L76.01,66.759 C76.01,66.160997 76.1963315,65.6713352 76.569,65.29 C76.9416685,64.9086648 77.5049962,64.718 78.259,64.718 C78.4236675,64.718 78.5883325,64.7244999 78.753,64.7375 C78.9176675,64.7505001 79.0779992,64.7613333 79.234,64.77 L79.234,66.148 C79.0173322,66.1219999 78.7920012,66.109 78.558,66.109 C78.3066654,66.109 78.1268339,66.1674994 78.0185,66.2845 C77.9101661,66.4015006 77.856,66.5986653 77.856,66.876 L77.856,67.279 L79.13,67.279 L79.13,68.514 L77.856,68.514 L77.856,74 L76.01,74 L76.01,68.514 Z M86.241,74 L84.486,74 L84.486,73.064 L84.447,73.064 C84.2129988,73.454002 83.9096685,73.7356658 83.537,73.909 C83.1643315,74.0823342 82.7830019,74.169 82.393,74.169 C81.8989975,74.169 81.4938349,74.1040006 81.1775,73.974 C80.8611651,73.8439993 80.6120009,73.6598345 80.43,73.4215 C80.2479991,73.1831655 80.120167,72.892835 80.0465,72.5505 C79.972833,72.208165 79.936,71.8290021 79.936,71.413 L79.936,67.279 L81.782,67.279 L81.782,71.075 C81.782,71.6296694 81.8686658,72.0434986 82.042,72.3165 C82.2153342,72.5895014 82.5229978,72.726 82.965,72.726 C83.4676692,72.726 83.8316655,72.5765015 84.057,72.2775 C84.2823345,71.9784985 84.395,71.4866701 84.395,70.802 L84.395,67.279 L86.241,67.279 L86.241,74 Z M87.645,67.279 L89.4,67.279 L89.4,68.215 L89.439,68.215 C89.6730012,67.8249981 89.9763315,67.5411676 90.349,67.3635 C90.7216685,67.1858324 91.102998,67.097 91.493,67.097 C91.9870025,67.097 92.3921651,67.164166 92.7085,67.2985 C93.0248349,67.432834 93.2739991,67.6191655 93.456,67.8575 C93.6380009,68.0958345 93.765833,68.386165 93.8395,68.7285 C93.913167,69.070835 93.95,69.4499979 93.95,69.866 L93.95,74 L92.104,74 L92.104,70.204 C92.104,69.6493306 92.0173342,69.2355014 91.844,68.9625 C91.6706658,68.6894986 91.3630022,68.553 90.921,68.553 C90.4183308,68.553 90.0543345,68.7024985 89.829,69.0015 C89.6036655,69.3005015 89.491,69.7923299 89.491,70.477 L89.491,74 L87.645,74 L87.645,67.279 Z M99.93,69.645 C99.8086661,68.8736628 99.3536706,68.488 98.565,68.488 C98.2703319,68.488 98.0233343,68.555166 97.824,68.6895 C97.6246657,68.823834 97.4621673,68.9971656 97.3365,69.2095 C97.2108327,69.4218344 97.1220003,69.6558321 97.07,69.9115 C97.0179997,70.1671679 96.992,70.4206654 96.992,70.672 C96.992,70.9146679 97.0179997,71.1616654 97.07,71.413 C97.1220003,71.6643346 97.2064994,71.8918323 97.3235,72.0955 C97.4405006,72.2991677 97.5986657,72.4659994 97.798,72.596 C97.9973343,72.7260007 98.2399986,72.791 98.526,72.791 C98.9680022,72.791 99.3081655,72.6675012 99.5465,72.4205 C99.7848345,72.1734988 99.934333,71.8420021 99.995,71.426 L101.776,71.426 C101.654666,72.3186711 101.308003,72.9989977 100.736,73.467 C100.163997,73.9350023 99.4316711,74.169 98.539,74.169 C98.0363308,74.169 97.5748354,74.0845008 97.1545,73.9155 C96.7341646,73.7464992 96.3766681,73.5103348 96.082,73.207 C95.7873319,72.9036651 95.5576675,72.5418354 95.393,72.1215 C95.2283325,71.7011646 95.146,71.2396692 95.146,70.737 C95.146,70.2169974 95.2218326,69.7338356 95.3735,69.2875 C95.5251674,68.8411644 95.7483319,68.4555016 96.043,68.1305 C96.3376681,67.8054984 96.6973312,67.5520009 97.122,67.37 C97.5466688,67.1879991 98.0319973,67.097 98.578,67.097 C98.9766687,67.097 99.3601648,67.1489995 99.7285,67.253 C100.096835,67.3570005 100.426165,67.5151656 100.7165,67.7275 C101.006835,67.9398344 101.242999,68.2041651 101.425,68.5205 C101.607001,68.8368349 101.711,69.2116645 101.737,69.645 L99.93,69.645 Z M105.156,67.279 L106.508,67.279 L106.508,68.514 L105.156,68.514 L105.156,71.842 C105.156,72.1540016 105.207999,72.3619995 105.312,72.466 C105.416001,72.5700005 105.623998,72.622 105.936,72.622 C106.040001,72.622 106.139666,72.6176667 106.235,72.609 C106.330334,72.6003333 106.421333,72.5873334 106.508,72.57 L106.508,74 C106.351999,74.0260001 106.178668,74.0433333 105.988,74.052 C105.797332,74.0606667 105.611001,74.065 105.429,74.065 C105.142999,74.065 104.872168,74.0455002 104.6165,74.0065 C104.360832,73.9674998 104.135501,73.8916672 103.9405,73.779 C103.745499,73.6663328 103.591667,73.506001 103.479,73.298 C103.366333,73.089999 103.31,72.8170017 103.31,72.479 L103.31,68.514 L102.192,68.514 L102.192,67.279 L103.31,67.279 L103.31,65.264 L105.156,65.264 L105.156,67.279 Z M109.29,66.239 L107.444,66.239 L107.444,64.718 L109.29,64.718 L109.29,66.239 Z M107.444,67.279 L109.29,67.279 L109.29,74 L107.444,74 L107.444,67.279 Z M112.384,70.646 C112.384,70.914668 112.41,71.1768321 112.462,71.4325 C112.514,71.6881679 112.602833,71.9178323 112.7285,72.1215 C112.854167,72.3251677 113.020999,72.4876661 113.229,72.609 C113.437001,72.7303339 113.696998,72.791 114.009,72.791 C114.321002,72.791 114.583166,72.7303339 114.7955,72.609 C115.007834,72.4876661 115.176833,72.3251677 115.3025,72.1215 C115.428167,71.9178323 115.517,71.6881679 115.569,71.4325 C115.621,71.1768321 115.647,70.914668 115.647,70.646 C115.647,70.377332 115.621,70.1130013 115.569,69.853 C115.517,69.5929987 115.428167,69.3633343 115.3025,69.164 C115.176833,68.9646657 115.007834,68.8021673 114.7955,68.6765 C114.583166,68.5508327 114.321002,68.488 114.009,68.488 C113.696998,68.488 113.437001,68.5508327 113.229,68.6765 C113.020999,68.8021673 112.854167,68.9646657 112.7285,69.164 C112.602833,69.3633343 112.514,69.5929987 112.462,69.853 C112.41,70.1130013 112.384,70.377332 112.384,70.646 Z M110.538,70.646 C110.538,70.108664 110.620333,69.6211689 110.785,69.1835 C110.949667,68.7458311 111.183665,68.3731682 111.487,68.0655 C111.790335,67.7578318 112.154331,67.5195008 112.579,67.3505 C113.003669,67.1814992 113.480331,67.097 114.009,67.097 C114.537669,67.097 115.016498,67.1814992 115.4455,67.3505 C115.874502,67.5195008 116.240665,67.7578318 116.544,68.0655 C116.847335,68.3731682 117.081333,68.7458311 117.246,69.1835 C117.410667,69.6211689 117.493,70.108664 117.493,70.646 C117.493,71.183336 117.410667,71.6686645 117.246,72.102 C117.081333,72.5353355 116.847335,72.9058318 116.544,73.2135 C116.240665,73.5211682 115.874502,73.7573325 115.4455,73.922 C115.016498,74.0866675 114.537669,74.169 114.009,74.169 C113.480331,74.169 113.003669,74.0866675 112.579,73.922 C112.154331,73.7573325 111.790335,73.5211682 111.487,73.2135 C111.183665,72.9058318 110.949667,72.5353355 110.785,72.102 C110.620333,71.6686645 110.538,71.183336 110.538,70.646 Z M118.689,67.279 L120.444,67.279 L120.444,68.215 L120.483,68.215 C120.717001,67.8249981 121.020331,67.5411676 121.393,67.3635 C121.765669,67.1858324 122.146998,67.097 122.537,67.097 C123.031002,67.097 123.436165,67.164166 123.7525,67.2985 C124.068835,67.432834 124.317999,67.6191655 124.5,67.8575 C124.682001,68.0958345 124.809833,68.386165 124.8835,68.7285 C124.957167,69.070835 124.994,69.4499979 124.994,69.866 L124.994,74 L123.148,74 L123.148,70.204 C123.148,69.6493306 123.061334,69.2355014 122.888,68.9625 C122.714666,68.6894986 122.407002,68.553 121.965,68.553 C121.462331,68.553 121.098334,68.7024985 120.873,69.0015 C120.647666,69.3005015 120.535,69.7923299 120.535,70.477 L120.535,74 L118.689,74 L118.689,67.279 Z M33.37,85.645 C33.2486661,84.8736628 32.7936706,84.488 32.005,84.488 C31.7103319,84.488 31.4633343,84.555166 31.264,84.6895 C31.0646657,84.823834 30.9021673,84.9971656 30.7765,85.2095 C30.6508327,85.4218344 30.5620003,85.6558321 30.51,85.9115 C30.4579997,86.1671679 30.432,86.4206654 30.432,86.672 C30.432,86.9146679 30.4579997,87.1616654 30.51,87.413 C30.5620003,87.6643346 30.6464994,87.8918323 30.7635,88.0955 C30.8805006,88.2991677 31.0386657,88.4659994 31.238,88.596 C31.4373343,88.7260007 31.6799986,88.791 31.966,88.791 C32.4080022,88.791 32.7481655,88.6675012 32.9865,88.4205 C33.2248345,88.1734988 33.374333,87.8420021 33.435,87.426 L35.216,87.426 C35.0946661,88.3186711 34.7480029,88.9989977 34.176,89.467 C33.6039971,89.9350023 32.8716711,90.169 31.979,90.169 C31.4763308,90.169 31.0148354,90.0845008 30.5945,89.9155 C30.1741646,89.7464992 29.8166681,89.5103348 29.522,89.207 C29.2273319,88.9036651 28.9976675,88.5418354 28.833,88.1215 C28.6683325,87.7011646 28.586,87.2396692 28.586,86.737 C28.586,86.2169974 28.6618326,85.7338356 28.8135,85.2875 C28.9651674,84.8411644 29.1883319,84.4555016 29.483,84.1305 C29.7776681,83.8054984 30.1373312,83.5520009 30.562,83.37 C30.9866688,83.1879991 31.4719973,83.097 32.018,83.097 C32.4166687,83.097 32.8001648,83.1489995 33.1685,83.253 C33.5368352,83.3570005 33.8661652,83.5151656 34.1565,83.7275 C34.4468348,83.9398344 34.6829991,84.2041651 34.865,84.5205 C35.0470009,84.8368349 35.1509999,85.2116645 35.177,85.645 L33.37,85.645 Z M36.178,85.346 C36.2040001,84.9126645 36.3123324,84.5530014 36.503,84.267 C36.6936676,83.9809986 36.9363319,83.7513342 37.231,83.578 C37.5256681,83.4046658 37.8571648,83.281167 38.2255,83.2075 C38.5938352,83.133833 38.9643315,83.097 39.337,83.097 C39.6750017,83.097 40.0173316,83.1208331 40.364,83.1685 C40.7106684,83.2161669 41.0269986,83.3093326 41.313,83.448 C41.5990014,83.5866674 41.8329991,83.7794988 42.015,84.0265 C42.1970009,84.2735012 42.288,84.6006646 42.288,85.008 L42.288,88.505 C42.288,88.8083348 42.3053332,89.0986653 42.34,89.376 C42.3746668,89.6533347 42.4353329,89.8613326 42.522,90 L40.65,90 C40.6153332,89.8959995 40.5871668,89.7898339 40.5655,89.6815 C40.5438332,89.5731661 40.5286667,89.4626672 40.52,89.35 C40.2253319,89.6533348 39.8786687,89.8656661 39.48,89.987 C39.0813313,90.1083339 38.6740021,90.169 38.258,90.169 C37.9373317,90.169 37.6383347,90.1300004 37.361,90.052 C37.0836653,89.9739996 36.841001,89.8526675 36.633,89.688 C36.424999,89.5233325 36.2625006,89.3153346 36.1455,89.064 C36.0284994,88.8126654 35.97,88.5136684 35.97,88.167 C35.97,87.7856648 36.037166,87.4715012 36.1715,87.2245 C36.305834,86.9774988 36.4791656,86.7803341 36.6915,86.633 C36.9038344,86.4856659 37.1464986,86.375167 37.4195,86.3015 C37.6925014,86.227833 37.9676653,86.1693336 38.245,86.126 C38.5223347,86.0826665 38.795332,86.0480001 39.064,86.022 C39.332668,85.9959999 39.570999,85.9570003 39.779,85.905 C39.987001,85.8529997 40.1516661,85.7771672 40.273,85.6775 C40.3943339,85.5778328 40.4506667,85.4326676 40.442,85.242 C40.442,85.0426657 40.4095003,84.8845006 40.3445,84.7675 C40.2794997,84.6504994 40.1928339,84.5595003 40.0845,84.4945 C39.9761661,84.4294997 39.8505007,84.3861668 39.7075,84.3645 C39.5644993,84.3428332 39.4106675,84.332 39.246,84.332 C38.8819982,84.332 38.596001,84.4099992 38.388,84.566 C38.179999,84.7220008 38.0586668,84.9819982 38.024,85.346 L36.178,85.346 Z M40.442,86.711 C40.3639996,86.7803337 40.2665006,86.8344998 40.1495,86.8735 C40.0324994,86.9125002 39.906834,86.9449999 39.7725,86.971 C39.638166,86.9970001 39.4973341,87.0186666 39.35,87.036 C39.2026659,87.0533334 39.0553341,87.0749999 38.908,87.101 C38.7693326,87.1270001 38.632834,87.1616664 38.4985,87.205 C38.364166,87.2483335 38.2471672,87.306833 38.1475,87.3805 C38.0478328,87.454167 37.967667,87.5473328 37.907,87.66 C37.846333,87.7726672 37.816,87.9156658 37.816,88.089 C37.816,88.2536675 37.846333,88.3923328 37.907,88.505 C37.967667,88.6176672 38.0499995,88.7064997 38.154,88.7715 C38.2580005,88.8365003 38.3793326,88.8819999 38.518,88.908 C38.6566674,88.9340001 38.7996659,88.947 38.947,88.947 C39.3110018,88.947 39.5926657,88.8863339 39.792,88.765 C39.9913343,88.6436661 40.1386662,88.4985008 40.234,88.3295 C40.3293338,88.1604992 40.3878332,87.9893342 40.4095,87.816 C40.4311668,87.6426658 40.442,87.5040005 40.442,87.4 L40.442,86.711 Z M43.718,83.279 L45.473,83.279 L45.473,84.215 L45.512,84.215 C45.7460012,83.8249981 46.0493315,83.5411676 46.422,83.3635 C46.7946685,83.1858324 47.175998,83.097 47.566,83.097 C48.0600025,83.097 48.4651651,83.164166 48.7815,83.2985 C49.0978349,83.432834 49.3469991,83.6191655 49.529,83.8575 C49.7110009,84.0958345 49.838833,84.386165 49.9125,84.7285 C49.986167,85.070835 50.023,85.4499979 50.023,85.866 L50.023,90 L48.177,90 L48.177,86.204 C48.177,85.6493306 48.0903342,85.2355014 47.917,84.9625 C47.7436658,84.6894986 47.4360022,84.553 46.994,84.553 C46.4913308,84.553 46.1273345,84.7024985 45.902,85.0015 C45.6766655,85.3005015 45.564,85.7923299 45.564,86.477 L45.564,90 L43.718,90 L43.718,83.279 Z M51.609,80.718 L53.455,80.718 L53.455,82.707 C53.4636667,82.9930014 53.4225005,83.2616654 53.3315,83.513 C53.2404995,83.7643346 53.1126675,83.9853324 52.948,84.176 C52.7833325,84.3666676 52.5861678,84.5248327 52.3565,84.6505 C52.1268322,84.7761673 51.877668,84.8563332 51.609,84.891 L51.609,84.033 C51.938335,83.9203328 52.1636661,83.7535011 52.285,83.5325 C52.4063339,83.3114989 52.467,83.0406683 52.467,82.72 L51.609,82.72 L51.609,80.718 Z M57.147,83.279 L58.499,83.279 L58.499,84.514 L57.147,84.514 L57.147,87.842 C57.147,88.1540016 57.1989995,88.3619995 57.303,88.466 C57.4070005,88.5700005 57.6149984,88.622 57.927,88.622 C58.0310005,88.622 58.1306662,88.6176667 58.226,88.609 C58.3213338,88.6003333 58.4123329,88.5873334 58.499,88.57 L58.499,90 C58.3429992,90.0260001 58.1696676,90.0433333 57.979,90.052 C57.7883324,90.0606667 57.6020009,90.065 57.42,90.065 C57.1339986,90.065 56.8631679,90.0455002 56.6075,90.0065 C56.3518321,89.9674998 56.126501,89.8916672 55.9315,89.779 C55.736499,89.6663328 55.5826672,89.506001 55.47,89.298 C55.3573328,89.089999 55.301,88.8170017 55.301,88.479 L55.301,84.514 L54.183,84.514 L54.183,83.279 L55.301,83.279 L55.301,81.264 L57.147,81.264 L57.147,83.279 Z M67.924,86.646 C67.924,86.3599986 67.893667,86.0870013 67.833,85.827 C67.772333,85.5669987 67.6770006,85.3373343 67.547,85.138 C67.4169993,84.9386657 67.254501,84.7805006 67.0595,84.6635 C66.864499,84.5464994 66.6283347,84.488 66.351,84.488 C66.082332,84.488 65.8483343,84.5464994 65.649,84.6635 C65.4496657,84.7805006 65.2850007,84.9386657 65.155,85.138 C65.0249994,85.3373343 64.929667,85.5669987 64.869,85.827 C64.808333,86.0870013 64.778,86.3599986 64.778,86.646 C64.778,86.9233347 64.808333,87.1919987 64.869,87.452 C64.929667,87.7120013 65.0249994,87.9416657 65.155,88.141 C65.2850007,88.3403343 65.4496657,88.4984994 65.649,88.6155 C65.8483343,88.7325006 66.082332,88.791 66.351,88.791 C66.6283347,88.791 66.864499,88.7325006 67.0595,88.6155 C67.254501,88.4984994 67.4169993,88.3403343 67.547,88.141 C67.6770006,87.9416657 67.772333,87.7120013 67.833,87.452 C67.893667,87.1919987 67.924,86.9233347 67.924,86.646 Z M62.997,80.718 L64.843,80.718 L64.843,84.098 L64.869,84.098 C65.0943345,83.7513316 65.3998314,83.4978341 65.7855,83.3375 C66.1711686,83.1771659 66.5719979,83.097 66.988,83.097 C67.3260017,83.097 67.659665,83.1663326 67.989,83.305 C68.318335,83.4436674 68.6151653,83.6559986 68.8795,83.942 C69.1438347,84.2280014 69.3583325,84.5941644 69.523,85.0405 C69.6876675,85.4868356 69.77,86.0176636 69.77,86.633 C69.77,87.2483364 69.6876675,87.7791644 69.523,88.2255 C69.3583325,88.6718356 69.1438347,89.0379986 68.8795,89.324 C68.6151653,89.6100014 68.318335,89.8223326 67.989,89.961 C67.659665,90.0996674 67.3260017,90.169 66.988,90.169 C66.4939975,90.169 66.052002,90.0910008 65.662,89.935 C65.2719981,89.7789992 64.9773343,89.5146685 64.778,89.142 L64.752,89.142 L64.752,90 L62.997,90 L62.997,80.718 Z M75.464,85.918 C75.3773329,85.4499977 75.2235011,85.0946679 75.0025,84.852 C74.7814989,84.6093321 74.4456689,84.488 73.995,84.488 C73.7003319,84.488 73.455501,84.5378328 73.2605,84.6375 C73.065499,84.7371672 72.9095006,84.8606659 72.7925,85.008 C72.6754994,85.1553341 72.5931669,85.3113325 72.5455,85.476 C72.4978331,85.6406675 72.4696667,85.7879994 72.461,85.918 L75.464,85.918 Z M72.461,87.088 C72.4870001,87.686003 72.6386653,88.119332 72.916,88.388 C73.1933347,88.656668 73.5919974,88.791 74.112,88.791 C74.4846685,88.791 74.805332,88.6978343 75.074,88.5115 C75.342668,88.3251657 75.507333,88.128001 75.568,87.92 L77.193,87.92 C76.9329987,88.726004 76.534336,89.3023316 75.997,89.649 C75.459664,89.9956684 74.8096705,90.169 74.047,90.169 C73.5183307,90.169 73.0416688,90.0845008 72.617,89.9155 C72.1923312,89.7464992 71.8326681,89.5060016 71.538,89.194 C71.2433319,88.8819984 71.0158341,88.5093355 70.8555,88.076 C70.6951659,87.6426645 70.615,87.1660026 70.615,86.646 C70.615,86.1433308 70.6973325,85.6753355 70.862,85.242 C71.0266675,84.8086645 71.2606651,84.4338349 71.564,84.1175 C71.8673348,83.8011651 72.2291646,83.5520009 72.6495,83.37 C73.0698354,83.1879991 73.5356641,83.097 74.047,83.097 C74.6190029,83.097 75.1173312,83.2074989 75.542,83.4285 C75.9666688,83.6495011 76.3154986,83.9463315 76.5885,84.319 C76.8615014,84.6916685 77.0586661,85.116331 77.18,85.593 C77.3013339,86.0696691 77.3446668,86.5679974 77.31,87.088 L72.461,87.088 Z M86.592,85.645 C86.4706661,84.8736628 86.0156706,84.488 85.227,84.488 C84.9323319,84.488 84.6853343,84.555166 84.486,84.6895 C84.2866657,84.823834 84.1241673,84.9971656 83.9985,85.2095 C83.8728327,85.4218344 83.7840003,85.6558321 83.732,85.9115 C83.6799997,86.1671679 83.654,86.4206654 83.654,86.672 C83.654,86.9146679 83.6799997,87.1616654 83.732,87.413 C83.7840003,87.6643346 83.8684994,87.8918323 83.9855,88.0955 C84.1025006,88.2991677 84.2606657,88.4659994 84.46,88.596 C84.6593343,88.7260007 84.9019986,88.791 85.188,88.791 C85.6300022,88.791 85.9701655,88.6675012 86.2085,88.4205 C86.4468345,88.1734988 86.596333,87.8420021 86.657,87.426 L88.438,87.426 C88.3166661,88.3186711 87.9700029,88.9989977 87.398,89.467 C86.8259971,89.9350023 86.0936711,90.169 85.201,90.169 C84.6983308,90.169 84.2368354,90.0845008 83.8165,89.9155 C83.3961646,89.7464992 83.0386681,89.5103348 82.744,89.207 C82.4493319,88.9036651 82.2196675,88.5418354 82.055,88.1215 C81.8903325,87.7011646 81.808,87.2396692 81.808,86.737 C81.808,86.2169974 81.8838326,85.7338356 82.0355,85.2875 C82.1871674,84.8411644 82.4103319,84.4555016 82.705,84.1305 C82.9996681,83.8054984 83.3593312,83.5520009 83.784,83.37 C84.2086688,83.1879991 84.6939973,83.097 85.24,83.097 C85.6386687,83.097 86.0221648,83.1489995 86.3905,83.253 C86.7588352,83.3570005 87.0881652,83.5151656 87.3785,83.7275 C87.6688348,83.9398344 87.9049991,84.2041651 88.087,84.5205 C88.2690009,84.8368349 88.3729999,85.2116645 88.399,85.645 L86.592,85.645 Z M91.116,86.646 C91.116,86.914668 91.1419997,87.1768321 91.194,87.4325 C91.2460003,87.6881679 91.3348327,87.9178323 91.4605,88.1215 C91.5861673,88.3251677 91.752999,88.4876661 91.961,88.609 C92.169001,88.7303339 92.4289984,88.791 92.741,88.791 C93.0530016,88.791 93.3151656,88.7303339 93.5275,88.609 C93.7398344,88.4876661 93.9088327,88.3251677 94.0345,88.1215 C94.1601673,87.9178323 94.2489997,87.6881679 94.301,87.4325 C94.3530003,87.1768321 94.379,86.914668 94.379,86.646 C94.379,86.377332 94.3530003,86.1130013 94.301,85.853 C94.2489997,85.5929987 94.1601673,85.3633343 94.0345,85.164 C93.9088327,84.9646657 93.7398344,84.8021673 93.5275,84.6765 C93.3151656,84.5508327 93.0530016,84.488 92.741,84.488 C92.4289984,84.488 92.169001,84.5508327 91.961,84.6765 C91.752999,84.8021673 91.5861673,84.9646657 91.4605,85.164 C91.3348327,85.3633343 91.2460003,85.5929987 91.194,85.853 C91.1419997,86.1130013 91.116,86.377332 91.116,86.646 Z M89.27,86.646 C89.27,86.108664 89.3523325,85.6211689 89.517,85.1835 C89.6816675,84.7458311 89.9156652,84.3731682 90.219,84.0655 C90.5223349,83.7578318 90.8863312,83.5195008 91.311,83.3505 C91.7356688,83.1814992 92.2123307,83.097 92.741,83.097 C93.2696693,83.097 93.7484979,83.1814992 94.1775,83.3505 C94.6065021,83.5195008 94.9726652,83.7578318 95.276,84.0655 C95.5793349,84.3731682 95.8133325,84.7458311 95.978,85.1835 C96.1426675,85.6211689 96.225,86.108664 96.225,86.646 C96.225,87.183336 96.1426675,87.6686645 95.978,88.102 C95.8133325,88.5353355 95.5793349,88.9058318 95.276,89.2135 C94.9726652,89.5211682 94.6065021,89.7573325 94.1775,89.922 C93.7484979,90.0866675 93.2696693,90.169 92.741,90.169 C92.2123307,90.169 91.7356688,90.0866675 91.311,89.922 C90.8863312,89.7573325 90.5223349,89.5211682 90.219,89.2135 C89.9156652,88.9058318 89.6816675,88.5353355 89.517,88.102 C89.3523325,87.6686645 89.27,87.183336 89.27,86.646 Z M97.473,83.279 L99.215,83.279 L99.215,84.189 L99.241,84.189 C99.4836679,83.8423316 99.776165,83.5736676 100.1185,83.383 C100.460835,83.1923324 100.852998,83.097 101.295,83.097 C101.719669,83.097 102.107498,83.1793325 102.4585,83.344 C102.809502,83.5086675 103.075999,83.7989979 103.258,84.215 C103.457334,83.9203319 103.728165,83.6603345 104.0705,83.435 C104.412835,83.2096655 104.817998,83.097 105.286,83.097 C105.641335,83.097 105.970665,83.1403329 106.274,83.227 C106.577335,83.3136671 106.837332,83.4523324 107.054,83.643 C107.270668,83.8336676 107.439666,84.0828318 107.561,84.3905 C107.682334,84.6981682 107.743,85.0686645 107.743,85.502 L107.743,90 L105.897,90 L105.897,86.191 C105.897,85.9656655 105.888333,85.7533343 105.871,85.554 C105.853667,85.3546657 105.806,85.1813341 105.728,85.034 C105.65,84.8866659 105.535167,84.7696671 105.3835,84.683 C105.231833,84.5963329 105.026001,84.553 104.766,84.553 C104.505999,84.553 104.295834,84.6028328 104.1355,84.7025 C103.975166,84.8021672 103.8495,84.9321659 103.7585,85.0925 C103.6675,85.2528341 103.606833,85.4348323 103.5765,85.6385 C103.546167,85.8421677 103.531,86.047999 103.531,86.256 L103.531,90 L101.685,90 L101.685,86.23 C101.685,86.0306657 101.680667,85.833501 101.672,85.6385 C101.663333,85.443499 101.6265,85.2636675 101.5615,85.099 C101.4965,84.9343325 101.388167,84.8021672 101.2365,84.7025 C101.084833,84.6028328 100.861668,84.553 100.567,84.553 C100.480333,84.553 100.365501,84.5724998 100.2225,84.6115 C100.079499,84.6505002 99.940834,84.7241661 99.8065,84.8325 C99.672166,84.9408339 99.5573338,85.0968323 99.462,85.3005 C99.3666662,85.5041677 99.319,85.770665 99.319,86.1 L99.319,90 L97.473,90 L97.473,83.279 Z M114.126,86.646 C114.126,86.3599986 114.095667,86.0870013 114.035,85.827 C113.974333,85.5669987 113.879001,85.3373343 113.749,85.138 C113.618999,84.9386657 113.456501,84.7805006 113.2615,84.6635 C113.066499,84.5464994 112.830335,84.488 112.553,84.488 C112.284332,84.488 112.050334,84.5464994 111.851,84.6635 C111.651666,84.7805006 111.487001,84.9386657 111.357,85.138 C111.226999,85.3373343 111.131667,85.5669987 111.071,85.827 C111.010333,86.0870013 110.98,86.3599986 110.98,86.646 C110.98,86.9233347 111.010333,87.1919987 111.071,87.452 C111.131667,87.7120013 111.226999,87.9416657 111.357,88.141 C111.487001,88.3403343 111.651666,88.4984994 111.851,88.6155 C112.050334,88.7325006 112.284332,88.791 112.553,88.791 C112.830335,88.791 113.066499,88.7325006 113.2615,88.6155 C113.456501,88.4984994 113.618999,88.3403343 113.749,88.141 C113.879001,87.9416657 113.974333,87.7120013 114.035,87.452 C114.095667,87.1919987 114.126,86.9233347 114.126,86.646 Z M109.199,80.718 L111.045,80.718 L111.045,84.098 L111.071,84.098 C111.296334,83.7513316 111.601831,83.4978341 111.9875,83.3375 C112.373169,83.1771659 112.773998,83.097 113.19,83.097 C113.528002,83.097 113.861665,83.1663326 114.191,83.305 C114.520335,83.4436674 114.817165,83.6559986 115.0815,83.942 C115.345835,84.2280014 115.560333,84.5941644 115.725,85.0405 C115.889667,85.4868356 115.972,86.0176636 115.972,86.633 C115.972,87.2483364 115.889667,87.7791644 115.725,88.2255 C115.560333,88.6718356 115.345835,89.0379986 115.0815,89.324 C114.817165,89.6100014 114.520335,89.8223326 114.191,89.961 C113.861665,90.0996674 113.528002,90.169 113.19,90.169 C112.695998,90.169 112.254002,90.0910008 111.864,89.935 C111.473998,89.7789992 111.179334,89.5146685 110.98,89.142 L110.954,89.142 L110.954,90 L109.199,90 L109.199,80.718 Z M119.04,82.239 L117.194,82.239 L117.194,80.718 L119.04,80.718 L119.04,82.239 Z M117.194,83.279 L119.04,83.279 L119.04,90 L117.194,90 L117.194,83.279 Z M120.496,83.279 L122.251,83.279 L122.251,84.215 L122.29,84.215 C122.524001,83.8249981 122.827331,83.5411676 123.2,83.3635 C123.572669,83.1858324 123.953998,83.097 124.344,83.097 C124.838002,83.097 125.243165,83.164166 125.5595,83.2985 C125.875835,83.432834 126.124999,83.6191655 126.307,83.8575 C126.489001,84.0958345 126.616833,84.386165 126.6905,84.7285 C126.764167,85.070835 126.801,85.4499979 126.801,85.866 L126.801,90 L124.955,90 L124.955,86.204 C124.955,85.6493306 124.868334,85.2355014 124.695,84.9625 C124.521666,84.6894986 124.214002,84.553 123.772,84.553 C123.269331,84.553 122.905334,84.7024985 122.68,85.0015 C122.454666,85.3005015 122.342,85.7923299 122.342,86.477 L122.342,90 L120.496,90 L120.496,83.279 Z M132.729,85.918 C132.642333,85.4499977 132.488501,85.0946679 132.2675,84.852 C132.046499,84.6093321 131.710669,84.488 131.26,84.488 C130.965332,84.488 130.720501,84.5378328 130.5255,84.6375 C130.330499,84.7371672 130.174501,84.8606659 130.0575,85.008 C129.940499,85.1553341 129.858167,85.3113325 129.8105,85.476 C129.762833,85.6406675 129.734667,85.7879994 129.726,85.918 L132.729,85.918 Z M129.726,87.088 C129.752,87.686003 129.903665,88.119332 130.181,88.388 C130.458335,88.656668 130.856997,88.791 131.377,88.791 C131.749669,88.791 132.070332,88.6978343 132.339,88.5115 C132.607668,88.3251657 132.772333,88.128001 132.833,87.92 L134.458,87.92 C134.197999,88.726004 133.799336,89.3023316 133.262,89.649 C132.724664,89.9956684 132.07467,90.169 131.312,90.169 C130.783331,90.169 130.306669,90.0845008 129.882,89.9155 C129.457331,89.7464992 129.097668,89.5060016 128.803,89.194 C128.508332,88.8819984 128.280834,88.5093355 128.1205,88.076 C127.960166,87.6426645 127.88,87.1660026 127.88,86.646 C127.88,86.1433308 127.962333,85.6753355 128.127,85.242 C128.291667,84.8086645 128.525665,84.4338349 128.829,84.1175 C129.132335,83.8011651 129.494165,83.5520009 129.9145,83.37 C130.334835,83.1879991 130.800664,83.097 131.312,83.097 C131.884003,83.097 132.382331,83.2074989 132.807,83.4285 C133.231669,83.6495011 133.580499,83.9463315 133.8535,84.319 C134.126501,84.6916685 134.323666,85.116331 134.445,85.593 C134.566334,86.0696691 134.609667,86.5679974 134.575,87.088 L129.726,87.088 Z M140.438,86.62 C140.438,86.3426653 140.412,86.0761679 140.36,85.8205 C140.308,85.5648321 140.219167,85.339501 140.0935,85.1445 C139.967833,84.949499 139.805334,84.7913339 139.606,84.67 C139.406666,84.5486661 139.155335,84.488 138.852,84.488 C138.548665,84.488 138.293001,84.5486661 138.085,84.67 C137.876999,84.7913339 137.710167,84.9516657 137.5845,85.151 C137.458833,85.3503343 137.367834,85.5778321 137.3115,85.8335 C137.255166,86.0891679 137.227,86.3556653 137.227,86.633 C137.227,86.8930013 137.257333,87.1529987 137.318,87.413 C137.378667,87.6730013 137.476166,87.9048323 137.6105,88.1085 C137.744834,88.3121677 137.913832,88.4768327 138.1175,88.6025 C138.321168,88.7281673 138.565999,88.791 138.852,88.791 C139.155335,88.791 139.408832,88.7303339 139.6125,88.609 C139.816168,88.4876661 139.978666,88.3251677 140.1,88.1215 C140.221334,87.9178323 140.308,87.6860013 140.36,87.426 C140.412,87.1659987 140.438,86.8973347 140.438,86.62 Z M140.464,89.142 L140.438,89.142 C140.221332,89.5060018 139.937502,89.7681659 139.5865,89.9285 C139.235498,90.0888341 138.839002,90.169 138.397,90.169 C137.894331,90.169 137.452335,90.071501 137.071,89.8765 C136.689665,89.681499 136.375501,89.4171683 136.1285,89.0835 C135.881499,88.7498317 135.695167,88.3663355 135.5695,87.933 C135.443833,87.4996645 135.381,87.0490023 135.381,86.581 C135.381,86.1303311 135.443833,85.6948354 135.5695,85.2745 C135.695167,84.8541646 135.881499,84.4836683 136.1285,84.163 C136.375501,83.8423317 136.685331,83.584501 137.058,83.3895 C137.430669,83.194499 137.863998,83.097 138.358,83.097 C138.756669,83.097 139.135832,83.1814992 139.4955,83.3505 C139.855168,83.5195008 140.138999,83.768665 140.347,84.098 L140.373,84.098 L140.373,80.718 L142.219,80.718 L142.219,90 L140.464,90 L140.464,89.142 Z M25.765,106 L23.867,106 L22.671,101.489 L22.645,101.489 L21.501,106 L19.59,106 L17.458,99.279 L19.408,99.279 L20.643,103.842 L20.669,103.842 L21.787,99.279 L23.581,99.279 L24.725,103.829 L24.751,103.829 L25.986,99.279 L27.884,99.279 L25.765,106 Z M30.562,98.239 L28.716,98.239 L28.716,96.718 L30.562,96.718 L30.562,98.239 Z M28.716,99.279 L30.562,99.279 L30.562,106 L28.716,106 L28.716,99.279 Z M34.358,99.279 L35.71,99.279 L35.71,100.514 L34.358,100.514 L34.358,103.842 C34.358,104.154002 34.4099995,104.361999 34.514,104.466 C34.6180005,104.570001 34.8259984,104.622 35.138,104.622 C35.2420005,104.622 35.3416662,104.617667 35.437,104.609 C35.5323338,104.600333 35.6233329,104.587333 35.71,104.57 L35.71,106 C35.5539992,106.026 35.3806676,106.043333 35.19,106.052 C34.9993324,106.060667 34.8130009,106.065 34.631,106.065 C34.3449986,106.065 34.0741679,106.0455 33.8185,106.0065 C33.5628321,105.9675 33.337501,105.891667 33.1425,105.779 C32.947499,105.666333 32.7936672,105.506001 32.681,105.298 C32.5683328,105.089999 32.512,104.817002 32.512,104.479 L32.512,100.514 L31.394,100.514 L31.394,99.279 L32.512,99.279 L32.512,97.264 L34.358,97.264 L34.358,99.279 Z M36.594,96.718 L38.44,96.718 L38.44,100.215 L38.479,100.215 C38.7130012,99.8249981 39.0119982,99.5411676 39.376,99.3635 C39.7400018,99.1858324 40.0953316,99.097 40.442,99.097 C40.9360025,99.097 41.3411651,99.164166 41.6575,99.2985 C41.9738349,99.432834 42.2229991,99.6191655 42.405,99.8575 C42.5870009,100.095835 42.714833,100.386165 42.7885,100.7285 C42.862167,101.070835 42.899,101.449998 42.899,101.866 L42.899,106 L41.053,106 L41.053,102.204 C41.053,101.649331 40.9663342,101.235501 40.793,100.9625 C40.6196658,100.689499 40.3120022,100.553 39.87,100.553 C39.3673308,100.553 39.0033345,100.702499 38.778,101.0015 C38.5526655,101.300501 38.44,101.79233 38.44,102.477 L38.44,106 L36.594,106 L36.594,96.718 Z M50.257,99.279 L51.609,99.279 L51.609,100.514 L50.257,100.514 L50.257,103.842 C50.257,104.154002 50.3089995,104.361999 50.413,104.466 C50.5170005,104.570001 50.7249984,104.622 51.037,104.622 C51.1410005,104.622 51.2406662,104.617667 51.336,104.609 C51.4313338,104.600333 51.5223329,104.587333 51.609,104.57 L51.609,106 C51.4529992,106.026 51.2796676,106.043333 51.089,106.052 C50.8983324,106.060667 50.7120009,106.065 50.53,106.065 C50.2439986,106.065 49.9731679,106.0455 49.7175,106.0065 C49.4618321,105.9675 49.236501,105.891667 49.0415,105.779 C48.846499,105.666333 48.6926672,105.506001 48.58,105.298 C48.4673328,105.089999 48.411,104.817002 48.411,104.479 L48.411,100.514 L47.293,100.514 L47.293,99.279 L48.411,99.279 L48.411,97.264 L50.257,97.264 L50.257,99.279 Z M52.493,96.718 L54.339,96.718 L54.339,100.215 L54.378,100.215 C54.6120012,99.8249981 54.9109982,99.5411676 55.275,99.3635 C55.6390018,99.1858324 55.9943316,99.097 56.341,99.097 C56.8350025,99.097 57.2401651,99.164166 57.5565,99.2985 C57.8728349,99.432834 58.1219991,99.6191655 58.304,99.8575 C58.4860009,100.095835 58.613833,100.386165 58.6875,100.7285 C58.761167,101.070835 58.798,101.449998 58.798,101.866 L58.798,106 L56.952,106 L56.952,102.204 C56.952,101.649331 56.8653342,101.235501 56.692,100.9625 C56.5186658,100.689499 56.2110022,100.553 55.769,100.553 C55.2663308,100.553 54.9023345,100.702499 54.677,101.0015 C54.4516655,101.300501 54.339,101.79233 54.339,102.477 L54.339,106 L52.493,106 L52.493,96.718 Z M64.726,101.918 C64.6393329,101.449998 64.4855011,101.094668 64.2645,100.852 C64.0434989,100.609332 63.7076689,100.488 63.257,100.488 C62.9623319,100.488 62.717501,100.537833 62.5225,100.6375 C62.327499,100.737167 62.1715006,100.860666 62.0545,101.008 C61.9374994,101.155334 61.8551669,101.311333 61.8075,101.476 C61.7598331,101.640667 61.7316667,101.787999 61.723,101.918 L64.726,101.918 Z M61.723,103.088 C61.7490001,103.686003 61.9006653,104.119332 62.178,104.388 C62.4553347,104.656668 62.8539974,104.791 63.374,104.791 C63.7466685,104.791 64.067332,104.697834 64.336,104.5115 C64.604668,104.325166 64.769333,104.128001 64.83,103.92 L66.455,103.92 C66.1949987,104.726004 65.796336,105.302332 65.259,105.649 C64.721664,105.995668 64.0716705,106.169 63.309,106.169 C62.7803307,106.169 62.3036688,106.084501 61.879,105.9155 C61.4543312,105.746499 61.0946681,105.506002 60.8,105.194 C60.5053319,104.881998 60.2778341,104.509335 60.1175,104.076 C59.9571659,103.642664 59.877,103.166003 59.877,102.646 C59.877,102.143331 59.9593325,101.675336 60.124,101.242 C60.2886675,100.808664 60.5226652,100.433835 60.826,100.1175 C61.1293349,99.8011651 61.4911646,99.5520009 61.9115,99.37 C62.3318354,99.1879991 62.7976641,99.097 63.309,99.097 C63.8810029,99.097 64.3793312,99.2074989 64.804,99.4285 C65.2286688,99.6495011 65.5774986,99.9463315 65.8505,100.319 C66.1235014,100.691669 66.3206661,101.116331 66.442,101.593 C66.5633339,102.069669 66.6066668,102.567997 66.572,103.088 L61.723,103.088 Z M72.708,103.816 C72.708,104.015334 72.7491663,104.186499 72.8315,104.3295 C72.9138337,104.472501 73.0199994,104.5895 73.15,104.6805 C73.2800007,104.7715 73.4294992,104.838666 73.5985,104.882 C73.7675008,104.925334 73.9429991,104.947 74.125,104.947 C74.2550006,104.947 74.3914993,104.931833 74.5345,104.9015 C74.6775007,104.871167 74.8074994,104.8235 74.9245,104.7585 C75.0415006,104.6935 75.1389996,104.606834 75.217,104.4985 C75.2950004,104.390166 75.334,104.253667 75.334,104.089 C75.334,103.811665 75.1498352,103.603667 74.7815,103.465 C74.4131648,103.326333 73.89967,103.187667 73.241,103.049 C72.972332,102.988333 72.7101679,102.916834 72.4545,102.8345 C72.1988321,102.752166 71.9713343,102.643834 71.772,102.5095 C71.5726657,102.375166 71.4123339,102.206168 71.291,102.0025 C71.1696661,101.798832 71.109,101.549668 71.109,101.255 C71.109,100.821664 71.1934992,100.466335 71.3625,100.189 C71.5315008,99.9116653 71.7546653,99.6928341 72.032,99.5325 C72.3093347,99.3721659 72.6213316,99.2595003 72.968,99.1945 C73.3146684,99.1294997 73.6699982,99.097 74.034,99.097 C74.3980018,99.097 74.751165,99.1316663 75.0935,99.201 C75.435835,99.2703337 75.741332,99.3873325 76.01,99.552 C76.278668,99.7166675 76.5018324,99.9354986 76.6795,100.2085 C76.8571676,100.481501 76.9633332,100.825998 76.998,101.242 L75.243,101.242 C75.2169999,100.886665 75.0826679,100.646167 74.84,100.5205 C74.5973321,100.394833 74.311335,100.332 73.982,100.332 C73.8779995,100.332 73.7653339,100.3385 73.644,100.3515 C73.5226661,100.3645 73.4121672,100.392666 73.3125,100.436 C73.2128328,100.479334 73.1283337,100.542166 73.059,100.6245 C72.9896663,100.706834 72.955,100.817333 72.955,100.956 C72.955,101.120667 73.0156661,101.254999 73.137,101.359 C73.2583339,101.463001 73.416499,101.5475 73.6115,101.6125 C73.806501,101.6775 74.0296654,101.736 74.281,101.788 C74.5323346,101.84 74.7879987,101.896333 75.048,101.957 C75.316668,102.017667 75.5788321,102.091333 75.8345,102.178 C76.0901679,102.264667 76.3176657,102.379499 76.517,102.5225 C76.7163343,102.665501 76.8766661,102.843166 76.998,103.0555 C77.1193339,103.267834 77.18,103.529998 77.18,103.842 C77.18,104.284002 77.0911676,104.654499 76.9135,104.9535 C76.7358324,105.252501 76.5040014,105.492999 76.218,105.675 C75.9319986,105.857001 75.6048352,105.984833 75.2365,106.0585 C74.8681648,106.132167 74.4933352,106.169 74.112,106.169 C73.721998,106.169 73.3406685,106.13 72.968,106.052 C72.5953315,105.974 72.2638348,105.844001 71.9735,105.662 C71.6831652,105.479999 71.4448343,105.239501 71.2585,104.9405 C71.0721657,104.641499 70.9703334,104.266669 70.953,103.816 L72.708,103.816 Z M80.599,99.279 L81.951,99.279 L81.951,100.514 L80.599,100.514 L80.599,103.842 C80.599,104.154002 80.6509995,104.361999 80.755,104.466 C80.8590005,104.570001 81.0669984,104.622 81.379,104.622 C81.4830005,104.622 81.5826662,104.617667 81.678,104.609 C81.7733338,104.600333 81.8643329,104.587333 81.951,104.57 L81.951,106 C81.7949992,106.026 81.6216676,106.043333 81.431,106.052 C81.2403324,106.060667 81.0540009,106.065 80.872,106.065 C80.5859986,106.065 80.3151679,106.0455 80.0595,106.0065 C79.8038321,105.9675 79.578501,105.891667 79.3835,105.779 C79.188499,105.666333 79.0346672,105.506001 78.922,105.298 C78.8093328,105.089999 78.753,104.817002 78.753,104.479 L78.753,100.514 L77.635,100.514 L77.635,99.279 L78.753,99.279 L78.753,97.264 L80.599,97.264 L80.599,99.279 Z M84.733,98.239 L82.887,98.239 L82.887,96.718 L84.733,96.718 L84.733,98.239 Z M82.887,99.279 L84.733,99.279 L84.733,106 L82.887,106 L82.887,99.279 Z M90.765,101.645 C90.6436661,100.873663 90.1886706,100.488 89.4,100.488 C89.1053319,100.488 88.8583343,100.555166 88.659,100.6895 C88.4596657,100.823834 88.2971673,100.997166 88.1715,101.2095 C88.0458327,101.421834 87.9570003,101.655832 87.905,101.9115 C87.8529997,102.167168 87.827,102.420665 87.827,102.672 C87.827,102.914668 87.8529997,103.161665 87.905,103.413 C87.9570003,103.664335 88.0414994,103.891832 88.1585,104.0955 C88.2755006,104.299168 88.4336657,104.465999 88.633,104.596 C88.8323343,104.726001 89.0749986,104.791 89.361,104.791 C89.8030022,104.791 90.1431655,104.667501 90.3815,104.4205 C90.6198345,104.173499 90.769333,103.842002 90.83,103.426 L92.611,103.426 C92.4896661,104.318671 92.1430029,104.998998 91.571,105.467 C90.9989971,105.935002 90.2666711,106.169 89.374,106.169 C88.8713308,106.169 88.4098354,106.084501 87.9895,105.9155 C87.5691646,105.746499 87.2116681,105.510335 86.917,105.207 C86.6223319,104.903665 86.3926675,104.541835 86.228,104.1215 C86.0633325,103.701165 85.981,103.239669 85.981,102.737 C85.981,102.216997 86.0568326,101.733836 86.2085,101.2875 C86.3601674,100.841164 86.5833319,100.455502 86.878,100.1305 C87.1726681,99.8054984 87.5323312,99.5520009 87.957,99.37 C88.3816688,99.1879991 88.8669973,99.097 89.413,99.097 C89.8116687,99.097 90.1951648,99.1489995 90.5635,99.253 C90.9318352,99.3570005 91.2611652,99.5151656 91.5515,99.7275 C91.8418348,99.9398344 92.0779991,100.204165 92.26,100.5205 C92.4420009,100.836835 92.5459999,101.211664 92.572,101.645 L90.765,101.645 Z M93.82,96.718 L95.666,96.718 L95.666,101.697 L97.993,99.279 L100.177,99.279 L97.642,101.749 L100.463,106 L98.227,106 L96.381,102.997 L95.666,103.686 L95.666,106 L93.82,106 L93.82,96.718 Z M105.637,101.918 C105.550333,101.449998 105.396501,101.094668 105.1755,100.852 C104.954499,100.609332 104.618669,100.488 104.168,100.488 C103.873332,100.488 103.628501,100.537833 103.4335,100.6375 C103.238499,100.737167 103.082501,100.860666 102.9655,101.008 C102.848499,101.155334 102.766167,101.311333 102.7185,101.476 C102.670833,101.640667 102.642667,101.787999 102.634,101.918 L105.637,101.918 Z M102.634,103.088 C102.66,103.686003 102.811665,104.119332 103.089,104.388 C103.366335,104.656668 103.764997,104.791 104.285,104.791 C104.657669,104.791 104.978332,104.697834 105.247,104.5115 C105.515668,104.325166 105.680333,104.128001 105.741,103.92 L107.366,103.92 C107.105999,104.726004 106.707336,105.302332 106.17,105.649 C105.632664,105.995668 104.98267,106.169 104.22,106.169 C103.691331,106.169 103.214669,106.084501 102.79,105.9155 C102.365331,105.746499 102.005668,105.506002 101.711,105.194 C101.416332,104.881998 101.188834,104.509335 101.0285,104.076 C100.868166,103.642664 100.788,103.166003 100.788,102.646 C100.788,102.143331 100.870333,101.675336 101.035,101.242 C101.199667,100.808664 101.433665,100.433835 101.737,100.1175 C102.040335,99.8011651 102.402165,99.5520009 102.8225,99.37 C103.242835,99.1879991 103.708664,99.097 104.22,99.097 C104.792003,99.097 105.290331,99.2074989 105.715,99.4285 C106.139669,99.6495011 106.488499,99.9463315 106.7615,100.319 C107.034501,100.691669 107.231666,101.116331 107.353,101.593 C107.474334,102.069669 107.517667,102.567997 107.483,103.088 L102.634,103.088 Z M108.575,99.279 L110.33,99.279 L110.33,100.527 L110.356,100.527 C110.442667,100.318999 110.559666,100.126168 110.707,99.9485 C110.854334,99.7708324 111.023332,99.6191673 111.214,99.4935 C111.404668,99.3678327 111.608332,99.2703337 111.825,99.201 C112.041668,99.1316663 112.266999,99.097 112.501,99.097 C112.622334,99.097 112.756666,99.1186665 112.904,99.162 L112.904,100.878 C112.817333,100.860667 112.713334,100.8455 112.592,100.8325 C112.470666,100.8195 112.353667,100.813 112.241,100.813 C111.902998,100.813 111.617001,100.869333 111.383,100.982 C111.148999,101.094667 110.960501,101.248499 110.8175,101.4435 C110.674499,101.638501 110.572667,101.865999 110.512,102.126 C110.451333,102.386001 110.421,102.667665 110.421,102.971 L110.421,106 L108.575,106 L108.575,99.279 Z M115.062,103.816 C115.062,104.015334 115.103166,104.186499 115.1855,104.3295 C115.267834,104.472501 115.373999,104.5895 115.504,104.6805 C115.634001,104.7715 115.783499,104.838666 115.9525,104.882 C116.121501,104.925334 116.296999,104.947 116.479,104.947 C116.609001,104.947 116.745499,104.931833 116.8885,104.9015 C117.031501,104.871167 117.161499,104.8235 117.2785,104.7585 C117.395501,104.6935 117.493,104.606834 117.571,104.4985 C117.649,104.390166 117.688,104.253667 117.688,104.089 C117.688,103.811665 117.503835,103.603667 117.1355,103.465 C116.767165,103.326333 116.25367,103.187667 115.595,103.049 C115.326332,102.988333 115.064168,102.916834 114.8085,102.8345 C114.552832,102.752166 114.325334,102.643834 114.126,102.5095 C113.926666,102.375166 113.766334,102.206168 113.645,102.0025 C113.523666,101.798832 113.463,101.549668 113.463,101.255 C113.463,100.821664 113.547499,100.466335 113.7165,100.189 C113.885501,99.9116653 114.108665,99.6928341 114.386,99.5325 C114.663335,99.3721659 114.975332,99.2595003 115.322,99.1945 C115.668668,99.1294997 116.023998,99.097 116.388,99.097 C116.752002,99.097 117.105165,99.1316663 117.4475,99.201 C117.789835,99.2703337 118.095332,99.3873325 118.364,99.552 C118.632668,99.7166675 118.855832,99.9354986 119.0335,100.2085 C119.211168,100.481501 119.317333,100.825998 119.352,101.242 L117.597,101.242 C117.571,100.886665 117.436668,100.646167 117.194,100.5205 C116.951332,100.394833 116.665335,100.332 116.336,100.332 C116.231999,100.332 116.119334,100.3385 115.998,100.3515 C115.876666,100.3645 115.766167,100.392666 115.6665,100.436 C115.566833,100.479334 115.482334,100.542166 115.413,100.6245 C115.343666,100.706834 115.309,100.817333 115.309,100.956 C115.309,101.120667 115.369666,101.254999 115.491,101.359 C115.612334,101.463001 115.770499,101.5475 115.9655,101.6125 C116.160501,101.6775 116.383665,101.736 116.635,101.788 C116.886335,101.84 117.141999,101.896333 117.402,101.957 C117.670668,102.017667 117.932832,102.091333 118.1885,102.178 C118.444168,102.264667 118.671666,102.379499 118.871,102.5225 C119.070334,102.665501 119.230666,102.843166 119.352,103.0555 C119.473334,103.267834 119.534,103.529998 119.534,103.842 C119.534,104.284002 119.445168,104.654499 119.2675,104.9535 C119.089832,105.252501 118.858001,105.492999 118.572,105.675 C118.285999,105.857001 117.958835,105.984833 117.5905,106.0585 C117.222165,106.132167 116.847335,106.169 116.466,106.169 C116.075998,106.169 115.694669,106.13 115.322,106.052 C114.949331,105.974 114.617835,105.844001 114.3275,105.662 C114.037165,105.479999 113.798834,105.239501 113.6125,104.9405 C113.426166,104.641499 113.324333,104.266669 113.307,103.816 L115.062,103.816 Z M130.532,106 L128.777,106 L128.777,105.064 L128.738,105.064 C128.503999,105.454002 128.200669,105.735666 127.828,105.909 C127.455331,106.082334 127.074002,106.169 126.684,106.169 C126.189998,106.169 125.784835,106.104001 125.4685,105.974 C125.152165,105.843999 124.903001,105.659835 124.721,105.4215 C124.538999,105.183165 124.411167,104.892835 124.3375,104.5505 C124.263833,104.208165 124.227,103.829002 124.227,103.413 L124.227,99.279 L126.073,99.279 L126.073,103.075 C126.073,103.629669 126.159666,104.043499 126.333,104.3165 C126.506334,104.589501 126.813998,104.726 127.256,104.726 C127.758669,104.726 128.122666,104.576501 128.348,104.2775 C128.573334,103.978499 128.686,103.48667 128.686,102.802 L128.686,99.279 L130.532,99.279 L130.532,106 Z M133.366,103.816 C133.366,104.015334 133.407166,104.186499 133.4895,104.3295 C133.571834,104.472501 133.677999,104.5895 133.808,104.6805 C133.938001,104.7715 134.087499,104.838666 134.2565,104.882 C134.425501,104.925334 134.600999,104.947 134.783,104.947 C134.913001,104.947 135.049499,104.931833 135.1925,104.9015 C135.335501,104.871167 135.465499,104.8235 135.5825,104.7585 C135.699501,104.6935 135.797,104.606834 135.875,104.4985 C135.953,104.390166 135.992,104.253667 135.992,104.089 C135.992,103.811665 135.807835,103.603667 135.4395,103.465 C135.071165,103.326333 134.55767,103.187667 133.899,103.049 C133.630332,102.988333 133.368168,102.916834 133.1125,102.8345 C132.856832,102.752166 132.629334,102.643834 132.43,102.5095 C132.230666,102.375166 132.070334,102.206168 131.949,102.0025 C131.827666,101.798832 131.767,101.549668 131.767,101.255 C131.767,100.821664 131.851499,100.466335 132.0205,100.189 C132.189501,99.9116653 132.412665,99.6928341 132.69,99.5325 C132.967335,99.3721659 133.279332,99.2595003 133.626,99.1945 C133.972668,99.1294997 134.327998,99.097 134.692,99.097 C135.056002,99.097 135.409165,99.1316663 135.7515,99.201 C136.093835,99.2703337 136.399332,99.3873325 136.668,99.552 C136.936668,99.7166675 137.159832,99.9354986 137.3375,100.2085 C137.515168,100.481501 137.621333,100.825998 137.656,101.242 L135.901,101.242 C135.875,100.886665 135.740668,100.646167 135.498,100.5205 C135.255332,100.394833 134.969335,100.332 134.64,100.332 C134.535999,100.332 134.423334,100.3385 134.302,100.3515 C134.180666,100.3645 134.070167,100.392666 133.9705,100.436 C133.870833,100.479334 133.786334,100.542166 133.717,100.6245 C133.647666,100.706834 133.613,100.817333 133.613,100.956 C133.613,101.120667 133.673666,101.254999 133.795,101.359 C133.916334,101.463001 134.074499,101.5475 134.2695,101.6125 C134.464501,101.6775 134.687665,101.736 134.939,101.788 C135.190335,101.84 135.445999,101.896333 135.706,101.957 C135.974668,102.017667 136.236832,102.091333 136.4925,102.178 C136.748168,102.264667 136.975666,102.379499 137.175,102.5225 C137.374334,102.665501 137.534666,102.843166 137.656,103.0555 C137.777334,103.267834 137.838,103.529998 137.838,103.842 C137.838,104.284002 137.749168,104.654499 137.5715,104.9535 C137.393832,105.252501 137.162001,105.492999 136.876,105.675 C136.589999,105.857001 136.262835,105.984833 135.8945,106.0585 C135.526165,106.132167 135.151335,106.169 134.77,106.169 C134.379998,106.169 133.998669,106.13 133.626,106.052 C133.253331,105.974 132.921835,105.844001 132.6315,105.662 C132.341165,105.479999 132.102834,105.239501 131.9165,104.9405 C131.730166,104.641499 131.628333,104.266669 131.611,103.816 L133.366,103.816 Z M143.441,101.918 C143.354333,101.449998 143.200501,101.094668 142.9795,100.852 C142.758499,100.609332 142.422669,100.488 141.972,100.488 C141.677332,100.488 141.432501,100.537833 141.2375,100.6375 C141.042499,100.737167 140.886501,100.860666 140.7695,101.008 C140.652499,101.155334 140.570167,101.311333 140.5225,101.476 C140.474833,101.640667 140.446667,101.787999 140.438,101.918 L143.441,101.918 Z M140.438,103.088 C140.464,103.686003 140.615665,104.119332 140.893,104.388 C141.170335,104.656668 141.568997,104.791 142.089,104.791 C142.461669,104.791 142.782332,104.697834 143.051,104.5115 C143.319668,104.325166 143.484333,104.128001 143.545,103.92 L145.17,103.92 C144.909999,104.726004 144.511336,105.302332 143.974,105.649 C143.436664,105.995668 142.78667,106.169 142.024,106.169 C141.495331,106.169 141.018669,106.084501 140.594,105.9155 C140.169331,105.746499 139.809668,105.506002 139.515,105.194 C139.220332,104.881998 138.992834,104.509335 138.8325,104.076 C138.672166,103.642664 138.592,103.166003 138.592,102.646 C138.592,102.143331 138.674333,101.675336 138.839,101.242 C139.003667,100.808664 139.237665,100.433835 139.541,100.1175 C139.844335,99.8011651 140.206165,99.5520009 140.6265,99.37 C141.046835,99.1879991 141.512664,99.097 142.024,99.097 C142.596003,99.097 143.094331,99.2074989 143.519,99.4285 C143.943669,99.6495011 144.292499,99.9463315 144.5655,100.319 C144.838501,100.691669 145.035666,101.116331 145.157,101.593 C145.278334,102.069669 145.321667,102.567997 145.287,103.088 L140.438,103.088 Z M151.15,102.62 C151.15,102.342665 151.124,102.076168 151.072,101.8205 C151.02,101.564832 150.931167,101.339501 150.8055,101.1445 C150.679833,100.949499 150.517334,100.791334 150.318,100.67 C150.118666,100.548666 149.867335,100.488 149.564,100.488 C149.260665,100.488 149.005001,100.548666 148.797,100.67 C148.588999,100.791334 148.422167,100.951666 148.2965,101.151 C148.170833,101.350334 148.079834,101.577832 148.0235,101.8335 C147.967166,102.089168 147.939,102.355665 147.939,102.633 C147.939,102.893001 147.969333,103.152999 148.03,103.413 C148.090667,103.673001 148.188166,103.904832 148.3225,104.1085 C148.456834,104.312168 148.625832,104.476833 148.8295,104.6025 C149.033168,104.728167 149.277999,104.791 149.564,104.791 C149.867335,104.791 150.120832,104.730334 150.3245,104.609 C150.528168,104.487666 150.690666,104.325168 150.812,104.1215 C150.933334,103.917832 151.02,103.686001 151.072,103.426 C151.124,103.165999 151.15,102.897335 151.15,102.62 Z M151.176,105.142 L151.15,105.142 C150.933332,105.506002 150.649502,105.768166 150.2985,105.9285 C149.947498,106.088834 149.551002,106.169 149.109,106.169 C148.606331,106.169 148.164335,106.071501 147.783,105.8765 C147.401665,105.681499 147.087501,105.417168 146.8405,105.0835 C146.593499,104.749832 146.407167,104.366335 146.2815,103.933 C146.155833,103.499664 146.093,103.049002 146.093,102.581 C146.093,102.130331 146.155833,101.694835 146.2815,101.2745 C146.407167,100.854165 146.593499,100.483668 146.8405,100.163 C147.087501,99.8423317 147.397331,99.584501 147.77,99.3895 C148.142669,99.194499 148.575998,99.097 149.07,99.097 C149.468669,99.097 149.847832,99.1814992 150.2075,99.3505 C150.567168,99.5195008 150.850999,99.768665 151.059,100.098 L151.085,100.098 L151.085,96.718 L152.931,96.718 L152.931,106 L151.176,106 L151.176,105.142 Z" id="Thisfunctioncan’tbecombinedwiththestickersused" fill="#1B1B1B" fill-rule="nonzero"></path>
            </g>
        </g>
    </g>
</svg>