<?xml version="1.0" encoding="UTF-8"?>
<svg width="60px" height="60px" viewBox="0 0 60 60" version="1.1" xmlns="http://www.w3.org/2000/svg" xmlns:xlink="http://www.w3.org/1999/xlink">
    <!-- Generator: Sketch 52.2 (67145) - http://www.bohemiancoding.com/sketch -->
    <title>Icon/Warning/Restricted Functions</title>
    <desc>Created with Sketch.</desc>
    <g id="Make" stroke="none" stroke-width="1" fill="none" fill-rule="evenodd">
        <g id="Icon/Warning/Restricted-Functions">
            <circle id="Oval" stroke="#FF0000" stroke-width="4" cx="30" cy="30" r="28"></circle>
            <g id="Group-28" transform="translate(13.000000, 13.000000)" fill="#1B1B1B" fill-rule="nonzero">
                <g id="设置">
                    <path d="M23.8032787,13.7311475 L23.8032787,10.2688525 C23.8032787,9.9147541 23.5278689,9.63934426 23.1737705,9.63934426 L21.2459016,9.63934426 C20.9704918,9.63934426 20.7344262,9.46229508 20.6557377,9.20655738 C20.4983607,8.73442623 20.3213115,8.28196721 20.104918,7.84918033 C19.9868852,7.61311475 20.0262295,7.31803279 20.2229508,7.12131148 L21.6,5.7442623 C21.8360656,5.50819672 21.8360656,5.09508197 21.6,4.85901639 L19.1606557,2.41967213 C18.9245902,2.18360656 18.5114754,2.18360656 18.2754098,2.41967213 L16.8983607,3.79672131 C16.7016393,3.99344262 16.4065574,4.03278689 16.1704918,3.9147541 C15.7377049,3.69836066 15.2852459,3.50163934 14.8131148,3.36393443 C14.557377,3.2852459 14.3803279,3.0295082 14.3803279,2.77377049 L14.3803279,0.826229508 C14.3606557,0.472131148 14.0852459,0.196721311 13.7311475,0.196721311 L10.2688525,0.196721311 C9.9147541,0.196721311 9.63934426,0.472131148 9.63934426,0.826229508 L9.63934426,2.75409836 C9.63934426,3.0295082 9.46229508,3.26557377 9.20655738,3.3442623 C8.73442623,3.50163934 8.28196721,3.67868852 7.84918033,3.89508197 C7.61311475,4.01311475 7.31803279,3.97377049 7.12131148,3.77704918 L5.7442623,2.4 C5.50819672,2.16393443 5.09508197,2.16393443 4.85901639,2.4 L2.43934426,4.87868852 C2.20327869,5.1147541 2.20327869,5.52786885 2.43934426,5.76393443 L3.81639344,7.14098361 C4.01311475,7.33770492 4.05245902,7.63278689 3.93442623,7.86885246 C3.71803279,8.30163934 3.52131148,8.75409836 3.38360656,9.22622951 C3.30491803,9.48196721 3.04918033,9.65901639 2.79344262,9.65901639 L0.826229508,9.65901639 C0.472131148,9.63934426 0.196721311,9.9147541 0.196721311,10.2688525 L0.196721311,13.7311475 C0.196721311,14.0852459 0.472131148,14.3606557 0.826229508,14.3606557 L2.75409836,14.3606557 C3.0295082,14.3606557 3.26557377,14.5377049 3.3442623,14.7934426 C3.50163934,15.2655738 3.67868852,15.7180328 3.89508197,16.1508197 C4.01311475,16.3868852 3.97377049,16.6819672 3.77704918,16.8786885 L2.4,18.2557377 C2.16393443,18.4918033 2.16393443,18.904918 2.4,19.1409836 L4.83934426,21.5803279 C5.07540984,21.8163934 5.48852459,21.8163934 5.72459016,21.5803279 L7.10163934,20.2032787 C7.29836066,20.0065574 7.59344262,19.9672131 7.8295082,20.0852459 C8.26229508,20.3016393 8.7147541,20.4983607 9.18688525,20.6360656 C9.44262295,20.7147541 9.61967213,20.9704918 9.61967213,21.2262295 L9.61967213,23.1540984 C9.61967213,23.5081967 9.89508197,23.7836066 10.2491803,23.7836066 L13.7114754,23.7836066 C14.0655738,23.7836066 14.3409836,23.5081967 14.3409836,23.1540984 L14.3409836,21.2459016 C14.3409836,20.9704918 14.5180328,20.7344262 14.7737705,20.6557377 C15.2459016,20.4983607 15.6983607,20.3213115 16.1311475,20.104918 C16.3672131,19.9868852 16.6622951,20.0262295 16.8590164,20.2229508 L18.2360656,21.6 C18.4721311,21.8360656 18.8852459,21.8360656 19.1213115,21.6 L21.5606557,19.1606557 C21.7967213,18.9245902 21.7967213,18.5114754 21.5606557,18.2754098 L20.1836066,16.8983607 C19.9868852,16.7016393 19.947541,16.4065574 20.0655738,16.1704918 C20.2819672,15.7377049 20.4786885,15.2852459 20.6163934,14.8131148 C20.695082,14.557377 20.9508197,14.3803279 21.2065574,14.3803279 L23.1344262,14.3803279 C23.5278689,14.3606557 23.8032787,14.0852459 23.8032787,13.7311475 Z M12,16.547541 C9.50046507,16.547541 7.45245902,14.515661 7.45245902,12 C7.45245902,9.50046507 9.48433904,7.45245902 12,7.45245902 C14.515661,7.45245902 16.547541,9.50046507 16.547541,12 C16.547541,14.499535 14.499535,16.547541 12,16.547541 Z" id="Shape"></path>
                </g>
                <g id="设置" transform="translate(19.000000, 20.000000)">
                    <path d="M12.8934426,7.43770492 L12.8934426,5.56229508 C12.8934426,5.3704918 12.7442623,5.22131148 12.552459,5.22131148 L11.5081967,5.22131148 C11.3590164,5.22131148 11.2311475,5.12540984 11.1885246,4.98688525 C11.1032787,4.73114754 11.007377,4.48606557 10.8901639,4.25163934 C10.8262295,4.12377049 10.847541,3.96393443 10.9540984,3.85737705 L11.7,3.11147541 C11.8278689,2.98360656 11.8278689,2.75983607 11.7,2.63196721 L10.3786885,1.31065574 C10.2508197,1.18278689 10.0270492,1.18278689 9.89918033,1.31065574 L9.15327869,2.05655738 C9.04672131,2.16311475 8.88688525,2.18442623 8.75901639,2.1204918 C8.52459016,2.00327869 8.2795082,1.89672131 8.02377049,1.82213115 C7.8852459,1.7795082 7.78934426,1.64098361 7.78934426,1.50245902 L7.78934426,0.447540984 C7.77868852,0.255737705 7.6295082,0.106557377 7.43770492,0.106557377 L5.56229508,0.106557377 C5.3704918,0.106557377 5.22131148,0.255737705 5.22131148,0.447540984 L5.22131148,1.49180328 C5.22131148,1.64098361 5.12540984,1.76885246 4.98688525,1.81147541 C4.73114754,1.89672131 4.48606557,1.99262295 4.25163934,2.10983607 C4.12377049,2.17377049 3.96393443,2.15245902 3.85737705,2.04590164 L3.11147541,1.3 C2.98360656,1.17213115 2.75983607,1.17213115 2.63196721,1.3 L1.32131148,2.64262295 C1.19344262,2.7704918 1.19344262,2.9942623 1.32131148,3.12213115 L2.06721311,3.86803279 C2.17377049,3.97459016 2.19508197,4.13442623 2.13114754,4.26229508 C2.01393443,4.49672131 1.90737705,4.74180328 1.83278689,4.99754098 C1.79016393,5.13606557 1.65163934,5.23196721 1.51311475,5.23196721 L0.447540984,5.23196721 C0.255737705,5.22131148 0.106557377,5.3704918 0.106557377,5.56229508 L0.106557377,7.43770492 C0.106557377,7.6295082 0.255737705,7.77868852 0.447540984,7.77868852 L1.49180328,7.77868852 C1.64098361,7.77868852 1.76885246,7.87459016 1.81147541,8.01311475 C1.89672131,8.26885246 1.99262295,8.51393443 2.10983607,8.74836066 C2.17377049,8.87622951 2.15245902,9.03606557 2.04590164,9.14262295 L1.3,9.88852459 C1.17213115,10.0163934 1.17213115,10.2401639 1.3,10.3680328 L2.62131148,11.6893443 C2.74918033,11.8172131 2.97295082,11.8172131 3.10081967,11.6893443 L3.84672131,10.9434426 C3.95327869,10.8368852 4.11311475,10.8155738 4.24098361,10.8795082 C4.47540984,10.9967213 4.7204918,11.1032787 4.97622951,11.1778689 C5.1147541,11.2204918 5.21065574,11.3590164 5.21065574,11.497541 L5.21065574,12.5418033 C5.21065574,12.7336066 5.35983607,12.8827869 5.55163934,12.8827869 L7.42704918,12.8827869 C7.61885246,12.8827869 7.76803279,12.7336066 7.76803279,12.5418033 L7.76803279,11.5081967 C7.76803279,11.3590164 7.86393443,11.2311475 8.00245902,11.1885246 C8.25819672,11.1032787 8.50327869,11.007377 8.73770492,10.8901639 C8.86557377,10.8262295 9.02540984,10.847541 9.13196721,10.9540984 L9.87786885,11.7 C10.0057377,11.8278689 10.2295082,11.8278689 10.357377,11.7 L11.6786885,10.3786885 C11.8065574,10.2508197 11.8065574,10.0270492 11.6786885,9.89918033 L10.9327869,9.15327869 C10.8262295,9.04672131 10.804918,8.88688525 10.8688525,8.75901639 C10.9860656,8.52459016 11.092623,8.2795082 11.1672131,8.02377049 C11.2098361,7.8852459 11.3483607,7.78934426 11.4868852,7.78934426 L12.5311475,7.78934426 C12.7442623,7.77868852 12.8934426,7.6295082 12.8934426,7.43770492 Z M6.50000001,8.96325138 C5.14608525,8.96325138 4.03674863,7.86264971 4.03674863,6.50000001 C4.03674863,5.14608525 5.13735031,4.03674863 6.50000001,4.03674863 C7.86264971,4.03674863 8.96325138,5.14608525 8.96325138,6.50000001 C8.96325138,7.85391477 7.85391477,8.96325138 6.50000001,8.96325138 Z" id="Shape"></path>
                </g>
            </g>
            <polygon id="Rectangle" fill="#FF0000" transform="translate(30.000000, 29.400000) rotate(-315.000000) translate(-30.000000, -29.400000) " points="27.6 1.2 32.4 1.2 32.4 57.6 27.6 57.6"></polygon>
        </g>
    </g>
</svg>