<?xml version="1.0" encoding="UTF-8"?>
<svg width="75px" height="75px" viewBox="0 0 75 75" version="1.1" xmlns="http://www.w3.org/2000/svg" xmlns:xlink="http://www.w3.org/1999/xlink">
    <!-- Generator: Sketch 52.2 (67145) - http://www.bohemiancoding.com/sketch -->
    <title>Shape_Flower_1</title>
    <desc>Created with Sketch.</desc>
    <g id="Page-1" stroke="none" stroke-width="1" fill="none" fill-rule="evenodd">
        <g id="Shape_Flower_1">
            <rect id="Rectangle" fill="#D8D8D8" opacity="0.01" x="0" y="0" width="75" height="75"></rect>
            <path d="M32.8553202,13.9380483 C33.4747532,11.668053 35.5434423,10 38,10 C40.4565577,10 42.5252468,11.668053 43.1446798,13.9380483 C44.6297599,12.1173717 47.1950539,11.4386854 49.439231,12.4423038 C51.6834081,13.4459222 52.8977971,15.8149203 52.5444776,18.1417315 C54.6384208,17.0851851 57.2567571,17.5132166 58.900515,19.3469186 C60.544273,21.1806206 60.694383,23.8409427 59.429403,25.822243 C61.7701476,25.7125132 63.988792,27.1732519 64.7479101,29.5199738 C65.5070282,31.8666958 64.5669039,34.3583479 62.60899,35.6515524 C64.7918,36.5076126 66.2271288,38.7484835 65.9703486,41.2024558 C65.7135684,43.6564281 63.8457658,45.548581 61.5334591,45.930083 C63.1809067,47.6039126 63.5847385,50.2374487 62.3564596,52.3743573 C61.1281808,54.5112658 58.6556599,55.476749 56.3887792,54.8805833 C57.2160059,57.0827619 56.5185145,59.6536011 54.5311176,61.103955 C52.5437207,62.5543089 49.8940028,62.4261816 48.0645124,60.9554307 C47.9284831,63.3051816 46.2502711,65.3688022 43.8473951,65.8818221 C41.4445191,66.394842 39.0757646,65.1952587 38,63.1042287 C36.9242354,65.1952587 34.5554809,66.394842 32.1526049,65.8818221 C29.7497289,65.3688022 28.0715169,63.3051816 27.9354876,60.9554307 C26.1059972,62.4261816 23.4562793,62.5543089 21.4688824,61.103955 C19.4814855,59.6536011 18.7839941,57.0827619 19.6112208,54.8805833 C17.3443401,55.476749 14.8718192,54.5112658 13.6435404,52.3743573 C12.4152615,50.2374487 12.8190933,47.6039126 14.4665409,45.930083 C12.1542342,45.548581 10.2864316,43.6564281 10.0296514,41.2024558 C9.77287123,38.7484835 11.2082,36.5076126 13.39101,35.6515524 C11.4330961,34.3583479 10.4929718,31.8666958 11.2520899,29.5199738 C12.011208,27.1732519 14.2298524,25.7125132 16.570597,25.822243 C15.305617,23.8409427 15.455727,21.1806206 17.099485,19.3469186 C18.7432429,17.5132166 21.3615792,17.0851851 23.4555224,18.1417315 C23.1022029,15.8149203 24.3165919,13.4459222 26.560769,12.4423038 C28.8049461,11.4386854 31.3702401,12.1173717 32.8553202,13.9380483 Z" id="Oval-3" fill="#1B1B1B"></path>
        </g>
    </g>
</svg>