<?xml version="1.0" encoding="UTF-8"?>
<svg width="400px" height="400px" viewBox="0 0 400 400" version="1.1" xmlns="http://www.w3.org/2000/svg" xmlns:xlink="http://www.w3.org/1999/xlink">
    <!-- Generator: Sketch 54.1 (76490) - https://sketchapp.com -->
    <title>Shape_Flower_1_Fill</title>
    <desc>Created with Sketch.</desc>
    <g id="Home" stroke="none" stroke-width="1" fill="none" fill-rule="evenodd">
        <g id="Artboard" transform="translate(-3064.000000, -741.000000)">
            <g id="Shape_Flower_1_Fill" transform="translate(3064.000000, 741.000000)">
                <rect id="矩形" fill-opacity="0.01" fill="#D8D8D8" x="0" y="0" width="400" height="400"></rect>
                <path d="M163.619764,29.8476272 C168.000041,13.7955174 182.628628,2 200,2 C217.371372,2 231.999959,13.7955174 236.380236,29.8476272 C246.881873,16.9728424 265.022167,12.1735611 280.891705,19.2705767 C296.761243,26.3675924 305.348708,43.1197937 302.850234,59.5736729 C317.657404,52.1023804 336.172782,55.1291744 347.796499,68.0960673 C359.420216,81.0629601 360.481709,99.8752376 351.536493,113.885861 C368.088901,113.109915 383.777887,123.439424 389.145936,140.034101 C394.513985,156.628777 387.865964,174.248317 374.020715,183.393121 C389.4563,189.446689 399.606125,205.292848 397.790322,222.645938 C395.974519,239.999027 382.766487,253.379251 366.415175,256.077015 C378.064983,267.913382 380.920651,286.536245 372.234965,301.647241 C363.549278,316.758237 346.065024,323.585583 330.034939,319.369839 C335.884613,334.942388 330.952353,353.121893 316.898617,363.377967 C302.844882,373.634041 284.107591,372.727999 271.170481,362.327688 C270.208559,378.943784 258.341203,393.53653 241.349437,397.164314 C224.357671,400.792097 207.607192,392.309329 200,377.52276 C192.392808,392.309329 175.642329,400.792097 158.650563,397.164314 C141.658797,393.53653 129.791441,378.943784 128.829519,362.327688 C115.892409,372.727999 97.1551182,373.634041 83.1013828,363.377967 C69.0476474,353.121893 64.1153867,334.942388 69.9650611,319.369839 C53.9349762,323.585583 36.4507215,316.758237 27.7650354,301.647241 C19.0793492,286.536245 21.9350168,267.913382 33.5848252,256.077015 C17.2335133,253.379251 4.02548083,239.999027 2.20967798,222.645938 C0.39387513,205.292848 10.5437002,189.446689 25.9792849,183.393121 C12.1340365,174.248317 5.4860149,156.628777 10.8540642,140.034101 C16.2221134,123.439424 31.911099,113.109915 48.4635072,113.885861 C39.5182914,99.8752376 40.5797841,81.0629601 52.203501,68.0960673 C63.8272179,55.1291744 82.3425958,52.1023804 97.1497657,59.5736729 C94.6512916,43.1197937 103.238757,26.3675924 119.108295,19.2705767 C134.977833,12.1735611 153.118127,16.9728424 163.619764,29.8476272 Z" fill="#ABABAB"></path>
            </g>
        </g>
    </g>
</svg>