<?xml version="1.0" encoding="UTF-8"?>
<svg width="400px" height="400px" viewBox="0 0 400 400" version="1.1" xmlns="http://www.w3.org/2000/svg" xmlns:xlink="http://www.w3.org/1999/xlink">
    <!-- Generator: Sketch 54.1 (76490) - https://sketchapp.com -->
    <title>Shape_ZebraCrossing_4_Fill</title>
    <desc>Created with Sketch.</desc>
    <g id="Home" stroke="none" stroke-width="1" fill="none" fill-rule="evenodd">
        <g id="Artboard" transform="translate(-4683.000000, -4167.000000)">
            <g id="Shape_ZebraCrossing_4_Fill" transform="translate(4883.000000, 4367.000000) scale(-1, 1) translate(-4883.000000, -4367.000000) translate(4683.000000, 4167.000000)">
                <rect id="矩形复制-21" fill-opacity="0.01" fill="#FFFFFF" x="0" y="0" width="400" height="400"></rect>
                <path d="M98.7714992,2 L146.589155,2 L2,147.548148 L2,98.9256282 L98.7714992,2 Z M54.0266093,2 L2,54.3716777 L2,2 L54.0266093,2 Z M191.799803,2 L239.151701,2 L2,240.724619 L2,192.102099 L191.799803,2 Z M284.828106,2 L332.12353,2 L2,334.313087 L2,285.278569 L284.828106,2 Z M398,306.910542 L307.30691,398 L254.164395,398 L398,253.935306 L398,306.910542 Z M398,347.223079 L398,398 L347.303824,398 L398,347.223079 Z M398,213.428655 L214.231802,398 L161.024966,398 L398,160.647533 L398,213.428655 Z M398,119.946767 L121.156694,398 L67.9225792,398 L398,67.3968612 L398,119.946767 Z M398,26.5666858 L28.1829488,398 L2,398 L2,374.144241 L375.493299,2 L398,2 L398,26.5666858 Z" id="Shape_ZebraCrossing_3_Fill" fill="#ABABAB"></path>
            </g>
        </g>
    </g>
</svg>