<?xml version="1.0" encoding="UTF-8"?>
<svg width="400px" height="400px" viewBox="0 0 400 400" version="1.1" xmlns="http://www.w3.org/2000/svg" xmlns:xlink="http://www.w3.org/1999/xlink">
    <!-- Generator: Sketch 54.1 (76490) - https://sketchapp.com -->
    <title>Shape_Flower_3_Fill</title>
    <desc>Created with Sketch.</desc>
    <g id="Home" stroke="none" stroke-width="1" fill="none" fill-rule="evenodd">
        <g id="Artboard" transform="translate(-4137.000000, -741.000000)">
            <g id="Shape_Flower_3_Fill" transform="translate(4137.000000, 741.000000)">
                <rect id="矩形" fill-opacity="0.01" fill="#FFFFFF" x="0" y="0" width="400" height="400"></rect>
                <path d="M150.934137,32.0249191 L170.89943,2.29685322 L199.929934,24.8650623 L227.053959,2 L248.815659,31.7963772 L281.543614,17.864737 L293.655116,52.5832345 L328.9197,48.2975547 L331.095969,85.279918 L365.926064,90.9336342 L357.9129,127.119852 L389.745427,142.886276 L371.704918,174.942839 L398,198.956413 L371.884318,224.772061 L390.168606,255.654588 L357.901138,272.538192 L367.044141,307.310673 L331.183508,314.609466 L330.482252,350.335567 L293.98805,347.371242 L282.913484,381.503308 L249.065863,367.975081 L229.10057,397.703147 L200.070066,375.134938 L172.946041,398 L151.184341,368.203623 L118.456386,382.135263 L106.344884,347.416766 L71.0803,351.702445 L68.9040306,314.720082 L34.0739357,309.066366 L42.0870997,272.880148 L10.2545733,257.113724 L28.2950822,225.057161 L2,201.043587 L28.1156817,175.227939 L9.831394,144.345412 L42.0988617,127.461808 L32.9558594,92.6893269 L68.8164917,85.3905335 L69.5177482,49.664433 L106.01195,52.6287577 L117.086516,18.4966925 L150.934137,32.0249191 Z" fill="#ABABAB"></path>
            </g>
        </g>
    </g>
</svg>