<?xml version="1.0" encoding="UTF-8"?>
<svg width="400px" height="400px" viewBox="0 0 400 400" version="1.1" xmlns="http://www.w3.org/2000/svg" xmlns:xlink="http://www.w3.org/1999/xlink">
    <!-- Generator: Sketch 54.1 (76490) - https://sketchapp.com -->
    <title>Shape_Flower_1</title>
    <desc>Created with Sketch.</desc>
    <defs>
        <path d="M163.619764,29.8476272 C168.000041,13.7955174 182.628628,2 200,2 C217.371372,2 231.999959,13.7955174 236.380236,29.8476272 C246.881873,16.9728424 265.022167,12.1735611 280.891705,19.2705767 C296.761243,26.3675924 305.348708,43.1197937 302.850234,59.5736729 C317.657404,52.1023804 336.172782,55.1291744 347.796499,68.0960673 C359.420216,81.0629601 360.481709,99.8752376 351.536493,113.885861 C368.088901,113.109915 383.777887,123.439424 389.145936,140.034101 C394.513985,156.628777 387.865964,174.248317 374.020715,183.393121 C389.4563,189.446689 399.606125,205.292848 397.790322,222.645938 C395.974519,239.999027 382.766487,253.379251 366.415175,256.077015 C378.064983,267.913382 380.920651,286.536245 372.234965,301.647241 C363.549278,316.758237 346.065024,323.585583 330.034939,319.369839 C335.884613,334.942388 330.952353,353.121893 316.898617,363.377967 C302.844882,373.634041 284.107591,372.727999 271.170481,362.327688 C270.208559,378.943784 258.341203,393.53653 241.349437,397.164314 C224.357671,400.792097 207.607192,392.309329 200,377.52276 C192.392808,392.309329 175.642329,400.792097 158.650563,397.164314 C141.658797,393.53653 129.791441,378.943784 128.829519,362.327688 C115.892409,372.727999 97.1551182,373.634041 83.1013828,363.377967 C69.0476474,353.121893 64.1153867,334.942388 69.9650611,319.369839 C53.9349762,323.585583 36.4507215,316.758237 27.7650354,301.647241 C19.0793492,286.536245 21.9350168,267.913382 33.5848252,256.077015 C17.2335133,253.379251 4.02548083,239.999027 2.20967798,222.645938 C0.39387513,205.292848 10.5437002,189.446689 25.9792849,183.393121 C12.1340365,174.248317 5.4860149,156.628777 10.8540642,140.034101 C16.2221134,123.439424 31.911099,113.109915 48.4635072,113.885861 C39.5182914,99.8752376 40.5797841,81.0629601 52.203501,68.0960673 C63.8272179,55.1291744 82.3425958,52.1023804 97.1497657,59.5736729 C94.6512916,43.1197937 103.238757,26.3675924 119.108295,19.2705767 C134.977833,12.1735611 153.118127,16.9728424 163.619764,29.8476272 Z" id="path-1"></path>
        <filter x="-0.8%" y="-0.8%" width="101.5%" height="101.5%" filterUnits="objectBoundingBox" id="filter-2">
            <feOffset dx="0" dy="0" in="SourceAlpha" result="shadowOffsetOuter1"></feOffset>
            <feMorphology radius="2" operator="erode" in="SourceAlpha" result="shadowInner"></feMorphology>
            <feOffset dx="0" dy="0" in="shadowInner" result="shadowInner"></feOffset>
            <feComposite in="shadowOffsetOuter1" in2="shadowInner" operator="out" result="shadowOffsetOuter1"></feComposite>
            <feGaussianBlur stdDeviation="1" in="shadowOffsetOuter1" result="shadowBlurOuter1"></feGaussianBlur>
            <feColorMatrix values="0 0 0 0 0   0 0 0 0 0   0 0 0 0 0  0 0 0 0.4 0" type="matrix" in="shadowBlurOuter1"></feColorMatrix>
        </filter>
    </defs>
    <g id="Home" stroke="none" stroke-width="1" fill="none" fill-rule="evenodd">
        <g id="Artboard" transform="translate(-459.000000, -743.000000)">
            <g id="Shape_Flower_1" transform="translate(459.000000, 743.000000)">
                <rect id="矩形" fill-opacity="0.01" fill="#D8D8D8" x="0" y="0" width="400" height="400"></rect>
                <g id="Shape_Flower_1_Fill" opacity="0.600000024">
                    <use fill="black" fill-opacity="1" filter="url(#filter-2)" xlink:href="#path-1"></use>
                    <path stroke="#FFFFFF" stroke-width="2" d="M164.584491,30.1108804 L164.072985,31.9853614 L162.844856,30.4797005 C152.449853,17.7356474 134.720027,13.3842984 119.516541,20.1834489 C104.311192,26.9834323 95.6648381,43.1335139 98.1384326,59.4235467 L98.4293497,61.3394023 L96.6992892,60.4664611 C82.0437106,53.0716575 64.0848388,56.3399371 52.948121,68.7635558 C41.8095856,81.1892022 40.4503738,99.476851 49.3063676,113.347729 L50.3454294,114.97518 L48.4166805,114.884764 C32.0335936,114.116756 16.9492911,124.440538 11.8055224,140.341879 C6.66125948,156.244747 12.8246362,173.506018 26.5304184,182.558704 L28.1381435,183.620608 L26.3443933,184.324086 C11.0652409,190.316304 1.46416074,205.91237 3.20424792,222.541867 C4.94427601,239.1708 17.5629171,252.42008 33.7476121,255.090354 L35.6501073,255.404242 L34.2975263,256.778483 C22.7644088,268.49629 20.3085574,286.668091 28.6320194,301.148905 C36.9543014,315.627666 53.8448851,322.575272 69.7107201,318.402725 L71.5813743,317.910762 L70.9011931,319.721488 C65.1097438,335.139034 70.2244958,352.742757 83.6908761,362.570194 C97.15515,372.396093 115.397879,371.842484 128.202966,361.548309 L129.715674,360.332224 L129.827848,362.269894 C130.780163,378.720053 142.579704,392.710608 158.85936,396.186355 C175.137923,399.661868 191.580371,391.702602 199.110778,377.065285 L200,375.336848 L200.889222,377.065285 C208.419629,391.702602 224.862077,399.661868 241.14064,396.186355 C257.420296,392.710608 269.219837,378.720053 270.172152,362.269894 L270.284326,360.332224 L271.797034,361.548309 C284.602121,371.842484 302.84485,372.396093 316.309124,362.570194 C329.775504,352.742757 334.890256,335.139034 329.098807,319.721488 L328.418626,317.910762 L330.28928,318.402725 C346.155115,322.575272 363.045699,315.627666 371.367981,301.148905 C379.691443,286.668091 377.235591,268.49629 365.702474,256.778483 L364.349893,255.404242 L366.252388,255.090354 C382.437083,252.42008 395.055724,239.1708 396.795752,222.541867 C398.535839,205.91237 388.934759,190.316304 373.655607,184.324086 L371.861857,183.620608 L373.469582,182.558704 C387.175364,173.506018 393.338741,156.244747 388.194478,140.341879 C383.050709,124.440538 367.966406,114.116756 351.58332,114.884764 L349.654571,114.97518 L350.693632,113.347729 C359.549626,99.476851 358.190414,81.1892022 347.051879,68.7635558 C335.915161,56.3399371 317.956289,53.0716575 303.300711,60.4664611 L301.57065,61.3394023 L301.861567,59.4235467 C304.335162,43.1335139 295.688808,26.9834323 280.483459,20.1834489 C265.279973,13.3842984 247.550147,17.7356474 237.155144,30.4797005 L235.927015,31.9853614 L235.415509,30.1108804 C231.079187,14.2198465 216.642613,3 200,3 C183.357387,3 168.920813,14.2198465 164.584491,30.1108804 Z" stroke-linejoin="square"></path>
                </g>
            </g>
        </g>
    </g>
</svg>