<?xml version="1.0" encoding="UTF-8"?>
<svg width="400px" height="400px" viewBox="0 0 400 400" version="1.1" xmlns="http://www.w3.org/2000/svg" xmlns:xlink="http://www.w3.org/1999/xlink">
    <!-- Generator: Sketch 54.1 (76490) - https://sketchapp.com -->
    <title>Shape_Flower_3</title>
    <desc>Created with Sketch.</desc>
    <defs>
        <path d="M150.934137,32.0249191 L170.89943,2.29685322 L199.929934,24.8650623 L227.053959,2 L248.815659,31.7963772 L281.543614,17.864737 L293.655116,52.5832345 L328.9197,48.2975547 L331.095969,85.279918 L365.926064,90.9336342 L357.9129,127.119852 L389.745427,142.886276 L371.704918,174.942839 L398,198.956413 L371.884318,224.772061 L390.168606,255.654588 L357.901138,272.538192 L367.044141,307.310673 L331.183508,314.609466 L330.482252,350.335567 L293.98805,347.371242 L282.913484,381.503308 L249.065863,367.975081 L229.10057,397.703147 L200.070066,375.134938 L172.946041,398 L151.184341,368.203623 L118.456386,382.135263 L106.344884,347.416766 L71.0803,351.702445 L68.9040306,314.720082 L34.0739357,309.066366 L42.0870997,272.880148 L10.2545733,257.113724 L28.2950822,225.057161 L2,201.043587 L28.1156817,175.227939 L9.831394,144.345412 L42.0988617,127.461808 L32.9558594,92.6893269 L68.8164917,85.3905335 L69.5177482,49.664433 L106.01195,52.6287577 L117.086516,18.4966925 L150.934137,32.0249191 Z" id="path-1"></path>
        <filter x="-0.8%" y="-0.8%" width="101.5%" height="101.5%" filterUnits="objectBoundingBox" id="filter-2">
            <feOffset dx="0" dy="0" in="SourceAlpha" result="shadowOffsetOuter1"></feOffset>
            <feMorphology radius="2" operator="erode" in="SourceAlpha" result="shadowInner"></feMorphology>
            <feOffset dx="0" dy="0" in="shadowInner" result="shadowInner"></feOffset>
            <feComposite in="shadowOffsetOuter1" in2="shadowInner" operator="out" result="shadowOffsetOuter1"></feComposite>
            <feGaussianBlur stdDeviation="1" in="shadowOffsetOuter1" result="shadowBlurOuter1"></feGaussianBlur>
            <feColorMatrix values="0 0 0 0 0   0 0 0 0 0   0 0 0 0 0  0 0 0 0.4 0" type="matrix" in="shadowBlurOuter1"></feColorMatrix>
        </filter>
    </defs>
    <g id="Home" stroke="none" stroke-width="1" fill="none" fill-rule="evenodd">
        <g id="Artboard" transform="translate(-1532.000000, -743.000000)">
            <g id="Shape_Flower_3" transform="translate(1532.000000, 743.000000)">
                <rect id="矩形" fill-opacity="0.01" fill="#FFFFFF" x="0" y="0" width="400" height="400"></rect>
                <g id="Shape_Flower_3_Fill" opacity="0.600000024">
                    <use fill="black" fill-opacity="1" filter="url(#filter-2)" xlink:href="#path-1"></use>
                    <path stroke="#FFFFFF" stroke-width="2" d="M117.707845,19.8219394 L106.719103,53.6894913 L70.4966867,50.747243 L69.8005847,86.2107414 L34.1920237,93.4582302 L43.2686675,127.978338 L11.2288209,144.742842 L29.3739174,175.390272 L3.45148992,201.014886 L29.5564345,224.85482 L11.6430513,256.68549 L43.2327832,272.331661 L35.2791788,308.248916 L69.8552301,313.861395 L72.0160587,350.581366 L107.023788,346.326901 L119.048431,380.79641 L151.523455,366.972436 L173.121252,396.544394 L200.044591,373.848506 L228.868043,396.255754 L248.686384,366.746497 L282.292155,380.178061 L293.280897,346.310509 L329.503313,349.252757 L330.199415,313.789259 L365.807976,306.54177 L356.731332,272.021662 L388.771179,255.257158 L370.626083,224.609728 L396.54851,198.985114 L370.443566,175.14518 L388.356949,143.31451 L356.767217,127.668339 L364.720821,91.7510845 L330.14477,86.1386054 L327.983941,49.4186344 L292.976212,53.6730988 L280.951569,19.2035903 L248.476545,33.0275635 L226.878748,3.45560558 L199.955409,26.1514937 L171.131957,3.74424635 L151.313616,33.2535034 L117.707845,19.8219394 Z" stroke-linejoin="square"></path>
                </g>
            </g>
        </g>
    </g>
</svg>