<?xml version="1.0" encoding="UTF-8"?>
<svg width="400px" height="400px" viewBox="0 0 400 400" version="1.1" xmlns="http://www.w3.org/2000/svg" xmlns:xlink="http://www.w3.org/1999/xlink">
    <!-- Generator: Sketch 54.1 (76490) - https://sketchapp.com -->
    <title>Shape_ZebraCrossing_2_Fill</title>
    <desc>Created with Sketch.</desc>
    <g id="Home" stroke="none" stroke-width="1" fill="none" fill-rule="evenodd">
        <g id="Artboard" transform="translate(-3587.000000, -4162.000000)">
            <g id="Shape_ZebraCrossing_2_Fill" transform="translate(3587.000000, 4162.000000)">
                <rect id="矩形复制-19" fill-opacity="0.01" fill="#FFFFFF" x="0" y="0" width="400" height="400"></rect>
                <path d="M2,6 L398,6 L398,44.7680672 L2,44.7680672 L2,6 Z M2,75.782521 L398,75.782521 L398,114.550588 L2,114.550588 L2,75.782521 Z M2,145.565042 L398,145.565042 L398,184.333109 L2,184.333109 L2,145.565042 Z M2,215.347563 L398,215.347563 L398,254.11563 L2,254.11563 L2,215.347563 Z M2,285.130084 L398,285.130084 L398,323.898151 L2,323.898151 L2,285.130084 Z M2,354.912605 L398,354.912605 L398,393.680672 L2,393.680672 L2,354.912605 Z" fill="#ABABAB" transform="translate(200.000000, 199.840336) rotate(90.000000) translate(-200.000000, -199.840336) "></path>
            </g>
        </g>
    </g>
</svg>