<?xml version="1.0" encoding="UTF-8"?>
<svg width="75px" height="75px" viewBox="0 0 75 75" version="1.1" xmlns="http://www.w3.org/2000/svg" xmlns:xlink="http://www.w3.org/1999/xlink">
    <!-- Generator: Sketch 52.2 (67145) - http://www.bohemiancoding.com/sketch -->
    <title>Shape_Flower_3</title>
    <desc>Created with Sketch.</desc>
    <g id="Page-1" stroke="none" stroke-width="1" fill="none" fill-rule="evenodd">
        <g id="Shape_Flower_3">
            <rect id="Rectangle" fill="#D8D8D8" opacity="0.01" x="0" y="0" width="75" height="75"></rect>
            <path d="M30.8135858,13.3975892 L33.7377952,9.0434785 L37.9897378,12.3489233 L41.9624485,9 L45.1497683,13.3641159 L49.9432565,11.3236231 L51.7171634,16.4086556 L56.8821783,15.780955 L57.2009248,21.1975638 L62.3023023,22.0256333 L61.1286571,27.3256348 L65.7909968,29.6348586 L63.1487001,34.3300118 L67,37.8471514 L63.1749759,41.6282312 L65.8529776,46.1514296 L61.1269344,48.6242806 L62.466061,53.7172198 L57.2137462,54.786235 L57.1110369,60.0188457 L51.7659265,59.5846769 L50.1438941,64.5838178 L45.1864142,62.6024108 L42.2622048,66.9565215 L38.0102622,63.6510767 L34.0375515,67 L30.8502317,62.6358841 L26.0567435,64.6763769 L24.2828366,59.5913444 L19.1178217,60.219045 L18.7990752,54.8024362 L13.6976977,53.9743667 L14.8713429,48.6743652 L10.2090032,46.3651414 L12.8512999,41.6699882 L9,38.1528486 L12.8250241,34.3717688 L10.1470224,29.8485704 L14.8730656,27.3757194 L13.533939,22.2827802 L18.7862538,21.213765 L18.8889631,15.9811543 L24.2340735,16.4153231 L25.8561059,11.4161822 L30.8135858,13.3975892 Z" id="Path-46" fill="#1B1B1B"></path>
        </g>
    </g>
</svg>