<?xml version="1.0" encoding="UTF-8"?>
<svg width="400px" height="400px" viewBox="0 0 400 400" version="1.1" xmlns="http://www.w3.org/2000/svg" xmlns:xlink="http://www.w3.org/1999/xlink">
    <!-- Generator: Sketch 54.1 (76490) - https://sketchapp.com -->
    <title>Shape_Flower_2_Fill</title>
    <desc>Created with Sketch.</desc>
    <g id="Home" stroke="none" stroke-width="1" fill="none" fill-rule="evenodd">
        <g id="Artboard" transform="translate(-3609.000000, -741.000000)">
            <g id="Shape_Flower_2_Fill" transform="translate(3609.000000, 741.000000)">
                <rect id="矩形" fill="#D8D8D8" opacity="0.01" x="0" y="0" width="400" height="400"></rect>
                <path d="M149.308339,44.6118084 C153.395424,20.4232181 174.439432,2 199.785425,2 C225.131418,2 246.175426,20.4232181 250.262511,44.6118084 C267.783464,27.4457081 295.634832,24.9132113 316.140171,39.8146351 C336.64551,54.716059 342.844062,81.9929552 331.936153,103.964816 C356.198564,100.378073 380.219017,114.703625 388.051359,138.814635 C395.883702,162.925645 384.869161,188.637372 363.132708,200 C384.869161,211.362628 395.883702,237.074355 388.051359,261.185365 C380.219017,285.296375 356.198564,299.621927 331.936153,296.035184 C342.844062,318.007045 336.64551,345.283941 316.140171,360.185365 C295.634832,375.086789 267.783464,372.554292 250.262511,355.388192 C246.175426,379.576782 225.131418,398 199.785425,398 C174.439432,398 153.395424,379.576782 149.308339,355.388192 C131.787387,372.554292 103.936018,375.086789 83.4306788,360.185365 C62.9253397,345.283941 56.7267879,318.007045 67.6346973,296.035184 C43.3722864,299.621927 19.3518334,285.296375 11.5194909,261.185365 C3.68714828,237.074355 14.7016889,211.362628 36.4381422,200 C14.7016889,188.637372 3.68714828,162.925645 11.5194909,138.814635 C19.3518334,114.703625 43.3722864,100.378073 67.6346973,103.964816 C56.7267879,81.9929552 62.9253397,54.716059 83.4306788,39.8146351 C103.936018,24.9132113 131.787387,27.4457081 149.308339,44.6118084 Z" fill="#ABABAB"></path>
            </g>
        </g>
    </g>
</svg>