<?xml version="1.0" encoding="UTF-8"?>
<svg width="400px" height="400px" viewBox="0 0 400 400" version="1.1" xmlns="http://www.w3.org/2000/svg" xmlns:xlink="http://www.w3.org/1999/xlink">
    <!-- Generator: Sketch 54.1 (76490) - https://sketchapp.com -->
    <title>Shape_Flower_4</title>
    <desc>Created with Sketch.</desc>
    <defs>
        <path d="M154.347817,78.687626 L162.108366,3.25268288 L198.091578,70.1989749 L230.873045,2 L242.065522,77.366243 L295.913978,24.6290393 L280.965744,99.3249521 L349.38627,68.4104046 L310.100302,133.426558 L384.840374,128.063417 L325.955139,175.557903 L398,196.393043 L326.617927,220.637326 L387.277904,265.157722 L312.008724,263.227583 L353.967329,326.063417 L283.889616,298.19166 L302.086022,371.764004 L245.652183,321.312374 L237.891634,396.747317 L201.908422,329.801025 L169.126955,398 L157.934478,322.633757 L104.086022,375.370961 L120.649815,299.945087 L50.6137297,331.589595 L89.8996981,266.573442 L15.1596263,271.936583 L74.0448614,224.442097 L2,203.606957 L73.3820733,179.362674 L12.7220958,134.842278 L87.9912758,136.772417 L46.0326709,73.9365828 L116.110384,101.80834 L97.9139781,28.2359959 L154.347817,78.687626 Z" id="path-1"></path>
        <filter x="-0.8%" y="-0.8%" width="101.5%" height="101.5%" filterUnits="objectBoundingBox" id="filter-2">
            <feOffset dx="0" dy="0" in="SourceAlpha" result="shadowOffsetOuter1"></feOffset>
            <feMorphology radius="2" operator="erode" in="SourceAlpha" result="shadowInner"></feMorphology>
            <feOffset dx="0" dy="0" in="shadowInner" result="shadowInner"></feOffset>
            <feComposite in="shadowOffsetOuter1" in2="shadowInner" operator="out" result="shadowOffsetOuter1"></feComposite>
            <feGaussianBlur stdDeviation="1" in="shadowOffsetOuter1" result="shadowBlurOuter1"></feGaussianBlur>
            <feColorMatrix values="0 0 0 0 0   0 0 0 0 0   0 0 0 0 0  0 0 0 0.4 0" type="matrix" in="shadowBlurOuter1"></feColorMatrix>
        </filter>
    </defs>
    <g id="Home" stroke="none" stroke-width="1" fill="none" fill-rule="evenodd">
        <g id="Artboard" transform="translate(-2127.000000, -705.000000)">
            <g id="Shape_Flower_4" transform="translate(2127.000000, 705.000000)">
                <rect id="矩形" fill-opacity="0.01" fill="#FFFFFF" x="0" y="0" width="400" height="400"></rect>
                <g id="Shape_Flower_4_Fill" opacity="0.600000024">
                    <use fill="black" fill-opacity="1" filter="url(#filter-2)" xlink:href="#path-1"></use>
                    <path stroke="#FFFFFF" stroke-width="2" d="M99.6624692,31.1404935 L117.548113,103.456353 L48.6484516,76.0531385 L89.894282,137.821545 L15.8857069,135.923732 L75.5212174,179.692237 L5.3348535,203.530408 L76.1673312,224.01493 L18.2724397,270.710645 L91.7542976,265.43779 L53.1329813,329.35398 L122.053947,298.213318 L105.781983,372.310302 L158.635605,320.547402 L169.637416,394.629761 L201.858671,327.596258 L237.230245,393.404607 L244.857947,319.260977 L300.337531,368.859507 L282.451887,296.543647 L351.351548,323.946861 L310.105718,262.178455 L384.114293,264.076268 L324.478783,220.307763 L394.665147,196.469592 L323.832669,175.98507 L381.72756,129.289355 L308.245702,134.56221 L346.867019,70.6460203 L279.603104,101.037974 L294.297159,27.6121902 L241.364395,79.4525984 L230.362584,5.37023915 L198.141329,72.4037423 L162.769755,6.59539316 L155.142053,80.7390229 L99.6624692,31.1404935 Z" stroke-linejoin="square"></path>
                </g>
            </g>
        </g>
    </g>
</svg>