<?xml version="1.0" encoding="UTF-8"?>
<svg width="75px" height="75px" viewBox="0 0 75 75" version="1.1" xmlns="http://www.w3.org/2000/svg" xmlns:xlink="http://www.w3.org/1999/xlink">
    <!-- Generator: Sketch 52.2 (67145) - http://www.bohemiancoding.com/sketch -->
    <title>Shape_Flower_2</title>
    <desc>Created with Sketch.</desc>
    <g id="Page-1" stroke="none" stroke-width="1" fill="none" fill-rule="evenodd">
        <g id="Shape_Flower_2">
            <rect id="Rectangle" fill="#D8D8D8" opacity="0.01" x="0" y="0" width="75" height="75"></rect>
            <path d="M30.5918952,15.2411235 C31.1917229,11.6983501 34.2801781,9 38,9 C41.7198219,9 44.8082771,11.6983501 45.4081048,15.2411235 C47.9795101,12.7268966 52.0670253,12.3559754 55.0764244,14.5385072 C58.0858236,16.7210389 58.9955338,20.7161399 57.3946701,23.9342407 C60.9554636,23.4089096 64.480747,25.5070966 65.6302352,29.0385072 C66.7797233,32.5699178 65.1632102,36.3357768 61.9731306,38 C65.1632102,39.6642232 66.7797233,43.4300822 65.6302352,46.9614928 C64.480747,50.4929034 60.9554636,52.5910904 57.3946701,52.0657593 C58.9955338,55.2838601 58.0858236,59.2789611 55.0764244,61.4614928 C52.0670253,63.6440246 47.9795101,63.2731034 45.4081048,60.7588765 C44.8082771,64.3016499 41.7198219,67 38,67 C34.2801781,67 31.1917229,64.3016499 30.5918952,60.7588765 C28.0204899,63.2731034 23.9329747,63.6440246 20.9235756,61.4614928 C17.9141764,59.2789611 17.0044662,55.2838601 18.6053299,52.0657593 C15.0445364,52.5910904 11.519253,50.4929034 10.3697648,46.9614928 C9.22027666,43.4300822 10.8367898,39.6642232 14.0268694,38 C10.8367898,36.3357768 9.22027666,32.5699178 10.3697648,29.0385072 C11.519253,25.5070966 15.0445364,23.4089096 18.6053299,23.9342407 C17.0044662,20.7161399 17.9141764,16.7210389 20.9235756,14.5385072 C23.9329747,12.3559754 28.0204899,12.7268966 30.5918952,15.2411235 Z" id="Oval-4" fill="#1B1B1B"></path>
        </g>
    </g>
</svg>