<?xml version="1.0" encoding="UTF-8"?>
<svg width="75px" height="75px" viewBox="0 0 75 75" version="1.1" xmlns="http://www.w3.org/2000/svg" xmlns:xlink="http://www.w3.org/1999/xlink">
    <!-- Generator: Sketch 52.2 (67145) - http://www.bohemiancoding.com/sketch -->
    <title>Shape_Flower_normal_4</title>
    <desc>Created with Sketch.</desc>
    <g id="Page-1" stroke="none" stroke-width="1" fill="none" fill-rule="evenodd">
        <g id="Shape_Flower_normal_4">
            <rect id="Rectangle" fill="#D8D8D8" opacity="0.01" x="0" y="0" width="75" height="75"></rect>
            <path d="M28.0910367,52.0162243 L27.9861802,51.9117969 L27.9221656,51.9407208 L28.0910367,52.0162243 Z M31.3135692,20.232026 L32.4502152,9.18347376 L37.7204836,18.9887387 L42.5218096,9 L44.1611118,20.0384901 L52.0480069,12.3143542 L49.858619,23.2546647 L59.8798073,18.7267764 L54.1258018,28.2493443 L65.07258,27.4638338 L56.4479748,34.4200969 L67,37.4717084 L56.5450499,41.0226387 L65.429592,47.5433027 L54.4053182,47.2606056 L60.5507704,56.4638338 L50.286863,52.3816068 L52.9519931,63.1573541 L44.6864308,55.767974 L43.5497848,66.8165262 L38.2795164,57.0112613 L33.4781904,67 L31.8388882,55.9615099 L23.9519931,63.6856458 L26.141381,52.7453353 L16.1201927,57.2732236 L21.8741982,47.7506557 L10.92742,48.5361662 L19.5520252,41.5799031 L9,38.5282916 L19.4549501,34.9773613 L10.570408,28.4566973 L21.5946818,28.7393944 L15.4492296,19.5361662 L25.713137,23.6183932 L23.0480069,12.8426459 L31.3135692,20.232026 Z" id="Path-48" fill="#ABABAB"></path>
        </g>
    </g>
</svg>