<?xml version="1.0" encoding="UTF-8"?>
<svg width="400px" height="400px" viewBox="0 0 400 400" version="1.1" xmlns="http://www.w3.org/2000/svg" xmlns:xlink="http://www.w3.org/1999/xlink">
    <!-- Generator: Sketch 54.1 (76490) - https://sketchapp.com -->
    <title>Shape_QuarterCircle_1</title>
    <desc>Created with Sketch.</desc>
    <defs>
        <path d="M2,2.01742081 C3.24390764,2.00581549 4.48919921,2 5.73584906,2 C222.377358,2 398,177.622642 398,394.264151 C398,395.510801 397.994185,396.756092 397.982579,398 L2,398 L2,2.01742081 Z" id="path-1"></path>
        <filter x="-0.8%" y="-0.8%" width="101.5%" height="101.5%" filterUnits="objectBoundingBox" id="filter-2">
            <feOffset dx="0" dy="0" in="SourceAlpha" result="shadowOffsetOuter1"></feOffset>
            <feMorphology radius="2" operator="erode" in="SourceAlpha" result="shadowInner"></feMorphology>
            <feOffset dx="0" dy="0" in="shadowInner" result="shadowInner"></feOffset>
            <feComposite in="shadowOffsetOuter1" in2="shadowInner" operator="out" result="shadowOffsetOuter1"></feComposite>
            <feGaussianBlur stdDeviation="1" in="shadowOffsetOuter1" result="shadowBlurOuter1"></feGaussianBlur>
            <feColorMatrix values="0 0 0 0 0   0 0 0 0 0   0 0 0 0 0  0 0 0 0.4 0" type="matrix" in="shadowBlurOuter1"></feColorMatrix>
        </filter>
    </defs>
    <g id="Home" stroke="none" stroke-width="1" fill="none" fill-rule="evenodd">
        <g id="Artboard" transform="translate(-437.000000, -3016.000000)">
            <g id="Shape_QuarterCircle_1" transform="translate(437.000000, 3016.000000)">
                <rect id="矩形复制-16" fill-opacity="0.01" fill="#FFFFFF" x="0" y="0" width="400" height="400"></rect>
                <g id="Shape_QuarterCircle_1_Fill" opacity="0.600000024">
                    <use fill="black" fill-opacity="1" filter="url(#filter-2)" xlink:href="#path-1"></use>
                    <path stroke="#FFFFFF" stroke-width="2" d="M3,3.00936429 L3,397 L396.990636,397 C396.996878,396.08842 397,395.176467 397,394.264151 C397,178.174927 221.825073,3 5.73584906,3 C4.82353275,3 3.9115797,3.00312229 3,3.00936429 Z" stroke-linejoin="square"></path>
                </g>
            </g>
        </g>
    </g>
</svg>