<?xml version="1.0" encoding="UTF-8"?>
<svg width="400px" height="400px" viewBox="0 0 400 400" version="1.1" xmlns="http://www.w3.org/2000/svg" xmlns:xlink="http://www.w3.org/1999/xlink">
    <!-- Generator: Sketch 54.1 (76490) - https://sketchapp.com -->
    <title>Shape_Flower_4_Fill</title>
    <desc>Created with Sketch.</desc>
    <g id="Home" stroke="none" stroke-width="1" fill="none" fill-rule="evenodd">
        <g id="Artboard" transform="translate(-4732.000000, -703.000000)">
            <g id="Shape_Flower_4_Fill" transform="translate(4732.000000, 703.000000)">
                <rect id="矩形" fill-opacity="0.01" fill="#FFFFFF" x="0" y="0" width="400" height="400"></rect>
                <path d="M132.345699,295.69698 L131.629782,294.983993 L131.192717,295.181473 L132.345699,295.69698 Z M154.347817,78.687626 L162.108366,3.25268288 L198.091578,70.1989749 L230.873045,2 L242.065522,77.366243 L295.913978,24.6290393 L280.965744,99.3249521 L349.38627,68.4104046 L310.100302,133.426558 L384.840374,128.063417 L325.955139,175.557903 L398,196.393043 L326.617927,220.637326 L387.277904,265.157722 L312.008724,263.227583 L353.967329,326.063417 L283.889616,298.19166 L302.086022,371.764004 L245.652183,321.312374 L237.891634,396.747317 L201.908422,329.801025 L169.126955,398 L157.934478,322.633757 L104.086022,375.370961 L119.034256,300.675048 L50.6137297,331.589595 L89.8996981,266.573442 L15.1596263,271.936583 L74.0448614,224.442097 L2,203.606957 L73.3820733,179.362674 L12.7220958,134.842278 L87.9912758,136.772417 L46.0326709,73.9365828 L116.110384,101.80834 L97.9139781,28.2359959 L154.347817,78.687626 Z" fill="#ABABAB"></path>
            </g>
        </g>
    </g>
</svg>