<?xml version="1.0" encoding="UTF-8"?>
<svg width="400px" height="400px" viewBox="0 0 400 400" version="1.1" xmlns="http://www.w3.org/2000/svg" xmlns:xlink="http://www.w3.org/1999/xlink">
    <!-- Generator: Sketch 54.1 (76490) - https://sketchapp.com -->
    <title>Shape_Flower_2</title>
    <desc>Created with Sketch.</desc>
    <defs>
        <path d="M149.308339,44.6118084 C153.395424,20.4232181 174.439432,2 199.785425,2 C225.131418,2 246.175426,20.4232181 250.262511,44.6118084 C267.783464,27.4457081 295.634832,24.9132113 316.140171,39.8146351 C336.64551,54.716059 342.844062,81.9929552 331.936153,103.964816 C356.198564,100.378073 380.219017,114.703625 388.051359,138.814635 C395.883702,162.925645 384.869161,188.637372 363.132708,200 C384.869161,211.362628 395.883702,237.074355 388.051359,261.185365 C380.219017,285.296375 356.198564,299.621927 331.936153,296.035184 C342.844062,318.007045 336.64551,345.283941 316.140171,360.185365 C295.634832,375.086789 267.783464,372.554292 250.262511,355.388192 C246.175426,379.576782 225.131418,398 199.785425,398 C174.439432,398 153.395424,379.576782 149.308339,355.388192 C131.787387,372.554292 103.936018,375.086789 83.4306788,360.185365 C62.9253397,345.283941 56.7267879,318.007045 67.6346973,296.035184 C43.3722864,299.621927 19.3518334,285.296375 11.5194909,261.185365 C3.68714828,237.074355 14.7016889,211.362628 36.4381422,200 C14.7016889,188.637372 3.68714828,162.925645 11.5194909,138.814635 C19.3518334,114.703625 43.3722864,100.378073 67.6346973,103.964816 C56.7267879,81.9929552 62.9253397,54.716059 83.4306788,39.8146351 C103.936018,24.9132113 131.787387,27.4457081 149.308339,44.6118084 Z" id="path-1"></path>
        <filter x="-0.8%" y="-0.8%" width="101.6%" height="101.5%" filterUnits="objectBoundingBox" id="filter-2">
            <feOffset dx="0" dy="0" in="SourceAlpha" result="shadowOffsetOuter1"></feOffset>
            <feMorphology radius="2" operator="erode" in="SourceAlpha" result="shadowInner"></feMorphology>
            <feOffset dx="0" dy="0" in="shadowInner" result="shadowInner"></feOffset>
            <feComposite in="shadowOffsetOuter1" in2="shadowInner" operator="out" result="shadowOffsetOuter1"></feComposite>
            <feGaussianBlur stdDeviation="1" in="shadowOffsetOuter1" result="shadowBlurOuter1"></feGaussianBlur>
            <feColorMatrix values="0 0 0 0 0   0 0 0 0 0   0 0 0 0 0  0 0 0 0.4 0" type="matrix" in="shadowBlurOuter1"></feColorMatrix>
        </filter>
    </defs>
    <g id="Home" stroke="none" stroke-width="1" fill="none" fill-rule="evenodd">
        <g id="Artboard" transform="translate(-1004.000000, -743.000000)">
            <g id="Shape_Flower_2" transform="translate(1004.000000, 743.000000)">
                <rect id="矩形" fill="#D8D8D8" opacity="0.01" x="0" y="0" width="400" height="400"></rect>
                <g id="Shape_Flower_2_Fill" opacity="0.600000024">
                    <use fill="black" fill-opacity="1" filter="url(#filter-2)" xlink:href="#path-1"></use>
                    <path stroke="#FFFFFF" stroke-width="2" d="M150.294362,44.7784143 L149.975516,46.6654395 L148.608502,45.3261116 C131.238166,28.3075765 103.907252,26.1702815 84.0185524,40.6235879 C64.1297322,55.0769817 57.7161594,81.7369795 68.5303931,103.520149 L69.3811668,105.233867 L67.4884553,104.954065 C43.434659,101.398161 20.0674227,115.737502 12.4705682,139.123588 C4.87368533,162.509761 15.3517379,187.848793 36.9014089,199.113781 L38.596726,200 L36.9014089,200.886219 C15.3517379,212.151207 4.87368533,237.490239 12.4705682,260.876412 C20.0674227,284.262498 43.434659,298.601839 67.4884553,295.045935 L69.3811668,294.766133 L68.5303931,296.479851 C57.7161594,318.263021 64.1297322,344.923018 84.0185524,359.376412 C103.907252,373.829718 131.238166,371.692423 148.608502,354.673888 L149.975516,353.33456 L150.294362,355.221586 C154.34634,379.202398 175.201642,397 199.785425,397 C224.369208,397 245.22451,379.202398 249.276488,355.221586 L249.595334,353.33456 L250.962348,354.673888 C268.332684,371.692423 295.663598,373.829718 315.552298,359.376412 C335.441118,344.923018 341.854691,318.263021 331.040457,296.479851 L330.189683,294.766133 L332.082395,295.045935 C356.136191,298.601839 379.503427,284.262498 387.100282,260.876412 C394.697165,237.490239 384.219112,212.151207 362.669441,200.886219 L360.974124,200 L362.669441,199.113781 C384.219112,187.848793 394.697165,162.509761 387.100282,139.123588 C379.503427,115.737502 356.136191,101.398161 332.082395,104.954065 L330.189683,105.233867 L331.040457,103.520149 C341.854691,81.7369795 335.441118,55.0769817 315.552298,40.6235879 C295.663598,26.1702815 268.332684,28.3075765 250.962348,45.3261116 L249.595334,46.6654395 L249.276488,44.7784143 C245.22451,20.7976016 224.369208,3 199.785425,3 C175.201642,3 154.34634,20.7976016 150.294362,44.7784143 Z" stroke-linejoin="square"></path>
                </g>
            </g>
        </g>
    </g>
</svg>