<?xml version="1.0" encoding="UTF-8"?>
<svg width="400px" height="400px" viewBox="0 0 400 400" version="1.1" xmlns="http://www.w3.org/2000/svg" xmlns:xlink="http://www.w3.org/1999/xlink">
    <!-- Generator: Sketch 54.1 (76490) - https://sketchapp.com -->
    <title>Shape_QuarterCircle_3</title>
    <desc>Created with Sketch.</desc>
    <defs>
        <path d="M398,3.69482223e-13 L398,395.995056 C397.337069,395.998351 396.673751,396 396.01005,396 C178.404308,396 2,218.704761 2,2.55795385e-13 L398,3.69482223e-13 Z M396.01005,2 L3.98994975,2 C3.98994975,218.495622 178.616896,394 394.030151,394 C394.690502,394 395.35047,393.998351 396.01005,393.995056 L396.01005,2 Z" id="path-1"></path>
        <filter x="-0.8%" y="-0.8%" width="101.5%" height="101.5%" filterUnits="objectBoundingBox" id="filter-2">
            <feOffset dx="0" dy="0" in="SourceAlpha" result="shadowOffsetOuter1"></feOffset>
            <feGaussianBlur stdDeviation="1" in="shadowOffsetOuter1" result="shadowBlurOuter1"></feGaussianBlur>
            <feComposite in="shadowBlurOuter1" in2="SourceAlpha" operator="out" result="shadowBlurOuter1"></feComposite>
            <feColorMatrix values="0 0 0 0 0   0 0 0 0 0   0 0 0 0 0  0 0 0 0.4 0" type="matrix" in="shadowBlurOuter1"></feColorMatrix>
        </filter>
    </defs>
    <g id="页面1" stroke="none" stroke-width="1" fill="none" fill-rule="evenodd">
        <g id="Shape_QuarterCircle_3" transform="translate(-392.000000, -395.000000)">
            <g transform="translate(397.000000, 397.000000) scale(-1, 1) rotate(-180.000000) translate(-397.000000, -397.000000) translate(-0.000000, -0.000000)" id="形状结合">
                <g transform="translate(594.000000, 200.000000) rotate(-180.000000) translate(-594.000000, -200.000000) translate(394.000000, 0.000000)">
                    <g transform="translate(2.000000, 3.000000)">
                        <g>
                            <use fill="black" fill-opacity="1" filter="url(#filter-2)" xlink:href="#path-1"></use>
                            <use fill-opacity="0.6" fill="#FFFFFF" fill-rule="evenodd" xlink:href="#path-1"></use>
                        </g>
                    </g>
                </g>
            </g>
        </g>
    </g>
</svg>