<?xml version="1.0" encoding="UTF-8"?>
<svg width="400px" height="400px" viewBox="0 0 400 400" version="1.1" xmlns="http://www.w3.org/2000/svg" xmlns:xlink="http://www.w3.org/1999/xlink">
    <!-- Generator: Sketch 54.1 (76490) - https://sketchapp.com -->
    <title>Shape_Rounded</title>
    <desc>Created with Sketch.</desc>
    <defs>
        <path d="M112.88,2 L287.12,2 C348.357333,2 398,51.6426669 398,112.88 L398,287.12 C398,348.357333 348.357333,398 287.12,398 L112.88,398 C51.6426669,398 2,348.357333 2,287.12 L2,112.88 C2,51.6426669 51.6426669,2 112.88,2 Z" id="path-1"></path>
        <filter x="-0.8%" y="-0.8%" width="101.5%" height="101.5%" filterUnits="objectBoundingBox" id="filter-2">
            <feOffset dx="0" dy="0" in="SourceAlpha" result="shadowOffsetOuter1"></feOffset>
            <feMorphology radius="2" operator="erode" in="SourceAlpha" result="shadowInner"></feMorphology>
            <feOffset dx="0" dy="0" in="shadowInner" result="shadowInner"></feOffset>
            <feComposite in="shadowOffsetOuter1" in2="shadowInner" operator="out" result="shadowOffsetOuter1"></feComposite>
            <feGaussianBlur stdDeviation="1" in="shadowOffsetOuter1" result="shadowBlurOuter1"></feGaussianBlur>
            <feColorMatrix values="0 0 0 0 0   0 0 0 0 0   0 0 0 0 0  0 0 0 0.4 0" type="matrix" in="shadowBlurOuter1"></feColorMatrix>
        </filter>
    </defs>
    <g id="Home" stroke="none" stroke-width="1" fill="none" fill-rule="evenodd">
        <g id="Artboard" transform="translate(-1532.000000, -166.000000)">
            <g id="Shape_Rounded" transform="translate(1532.000000, 166.000000)">
                <rect id="矩形" fill-opacity="0.01" fill="#FFFFFF" x="0" y="0" width="400" height="400"></rect>
                <g id="Shape_Rounded_Fill" opacity="0.600000024">
                    <use fill="black" fill-opacity="1" filter="url(#filter-2)" xlink:href="#path-1"></use>
                    <path stroke="#FFFFFF" stroke-width="2" d="M112.88,3 C52.1949517,3 3,52.1949517 3,112.88 L3,287.12 C3,347.805048 52.1949517,397 112.88,397 L287.12,397 C347.805048,397 397,347.805048 397,287.12 L397,112.88 C397,52.1949517 347.805048,3 287.12,3 L112.88,3 Z" stroke-linejoin="square"></path>
                </g>
            </g>
        </g>
    </g>
</svg>