<svg xmlns="http://www.w3.org/2000/svg" width="72" height="72" viewBox="0 0 72 72">
    <g fill="none" fill-rule="evenodd">
        <circle cx="36" cy="36" r="35.5" fill="#FFF" stroke="#DADADA"/>
        <path fill="#1B1B1B" d="M24.717 35.8a2.169 2.169 0 0 0-.011-.108c-.252-1.972-3.283-2.873-4.129-3.344-.845-.47-5.253-1.35-5.574-1.086-.32.264.61.58.32.58-.288 0-1.536-.563-1.465-1.486.07-.923.673-.892 1.917-.992 1.244-.1 5.554 1.438 5.648 1.191.093-.247-.347-.163-.566-.59-.22-.426 1.802-1.08 1.109-1.422-.694-.343-.79-2.524-1-2.866-.21-.343-1.035-2.037-.923-2.055.112-.018.922.729 1.38.209.457-.52-.925-2.606-1.135-2.93-.21-.323.337-.592 0-.704-.338-.111-2.492-2.943-2.163-3.235.329-.293 2.421 2.55 2.84 2.702.42.151 1.686 2.93 1.962 3.373.275.443 1.764.37 1.906.107.142-.263-1.127-.42-.809-.42.318 0 .397-.472.25-.882-.147-.41-.96-.074-.788-.532.172-.459 2.315.034 2.115-.085-.201-.12-.91-1.714-.516-1.2.394.515 5.47 5.483 6.492 5.14 1.02-.342.76-1.17.76-1.334 0-.164-.883-1.236-.394-1.722.49-.485.395 1.298.876 1.17.482-.127 0-1.712 0-3.082 0-1.37-1.401-3.865-2.343-5.502-.94-1.638.212-3.314.51-3.577.298-.264 1.352-.298 2.295.702.943.999 1.718 6.75 1.718 7.692 0 .628.337 1.053 1.011 1.275-.25-1.255-.2-1.882.152-1.882.528 0 .32 1.938.32 2.48 0 .541.249 1.652.558 1.652.308 0 .166-.442.322-.442.155 0-.51-2.57 0-2.723.51-.153.416 2.195.416 2.548 0 .354.069 1.41.604 1.41.356 0 1.333-.526 2.93-1.578.328-1.04.553-1.611.675-1.712.183-.152 1.306-3.892 1.635-3.578.328.314-.74 2.72-.922 3.063-.183.343 0 1.542 0 1.542s1.198-2.37 2.212-1.695c1.013.675-.4 2.038-.4 2.548 0 .34.564.747 1.693 1.22l-.133 2.037.59.342c.2.118.1.725-.3 1.822h1.068c.357 0 1.552-.794 1.995-.992.442-.199 4.978-.313 5.738-1.515.76-1.201 2.943-1.712 3.09-1.694.146.017-3.045 3.064-3.406 3.407-.24.228-.438.646-.593 1.254-.58-.307-.995-.383-1.243-.227-.373.234-2.782 2.822-3.314 3.425-.532.603-.423 1.82.184 2.416.606.596 2.267.206 2.937.206.67 0 .446.363.193.679l-.038.047c.7.109 2.743.175 2.826.42.095.278-1.201.715-1.45.656-.247-.06.246-.462.06-.56-.116-.06-.685-.092-1.708-.096-.1.205-.165.445-.133.717.322-.084.981-.33 1.059-.224.076.103-.615.498-.858.73.419.482 1.485.666 1.485.832 0 .19-.458.342-.216 1.37.242 1.027 3.114 2.054 2.731 3.1-.382 1.045-3.155.667-4.136 1.352-.981.685-.21 1.712-.874 1.76-.663.048-1.707-1.29-2.062-1.288-.237.001-.378.186-.423.555-.495-.66-.845-.77-1.052-.325-.31.667 1.048 1.553.76 1.553-.288 0-1.808-1.197-2.62-1.042-.814.155-1.926 1.184-1.196 1.184s1.754 2.939 1.754 4.11c0 1.171 1.303 2.805 1.718 3.489.415.684.198 1.956-.853 1.956-.618 0-1.32-1.135-2.13-1.956-.57-.58-1.4-.835-1.4-1.159 0-.604-1.05-2.957-1.69-4.154-.244.307-.717.506-.867.454-.22-.076-.133-.478.111-.56.188-.062.225-.427.232-.659-.309-.21-.571-.02-.729-.02-.173 0-.161.314-.364.897-.203.582-1.591.697-1.691 1.701-.1 1.004.782 1.23.704 1.887-.078.657-1.048 1.613-1.159 1.613-.11 0 .558-1.159-.42-1.159-.648 0-1.69 2.51-2.585 4.037-.456.778-1.089 1.145-1.168 1.114-.237-.094-1.3.057-.91-1.475.147-.575.046-1.563-.16-2.575-.117.597-.469 1.907-.617 1.769-.187-.174.37-1.491.583-1.936-.05-.235-.105-.47-.164-.7-.144-.016-.257.062-.338.233-.19.4-2.063 1.313-2.287 1-.149-.207.475-.874 1.873-2l.414.258h.201c-.325-1.144-.705-2.061-.886-2.066-.402-.011-1.18.354-1.518 0-.338-.354 1.648-2.204.442-2.81-1.207-.604-9.296 4.22-9.55 4.876-.255.657-1.913 2.354-2.895 2.69-.983.338-2.579 3.733-4.084 4.502-1.506.77-2.44-.295-1.992-1.37.448-1.075 7.547-7.534 9.88-9.485 2.331-1.95 3.905-5.039 3.542-5.927-.363-.888-1.078-1.228-1.889-1.37-.81-.14-3.16 0-3.986.142-.55.094-.916.452-1.096 1.074-1.249-.114-2.153-.062-2.712.154-.84.325-4.219.733-4.464.15-.246-.583 2.43-1.141 3.759-1.862 1.328-.72 5.75-1.028 6.19-1.136.411-.101 2.657-1.408 2.755-3.183-1.04.197-3.955.195-3.807.036.147-.157 2.815-.416 3.804-.32zm7.635 21.043c0-.074.414-.062.427.472.022.999-.359 2.91-.427 3.067-.104.239-.444-.042-.6-.33-.155-.289.6-2.994.6-3.209zM50.92 46.826c0-.245 2.845 1.963 2.701 2.11-.144.147-1.193-.647-1.442-.655-.248-.008-1.26-1.21-1.26-1.455zm8.706-11.092c0 .194 2.379.628 2.379.215 0-.413-2.379-.41-2.379-.215zm.996-5.262c-.283 0-.513-.154-.513-.343 0-.189.23-.342.513-.342.284 0 .514.153.514.342 0 .19-.23.343-.514.343zm-1.317-8.22c0-.271.41 0 .655 0 .244 0 .22.343.149.623-.072.281-.343.098-.483-.206-.14-.303-.32-.146-.32-.417zm-13.609-14.2c.141-.431.205 1.943.205 2.41 0 .469-.205 1.184-.593 1.866-.388.682 0 1.793-.264 2.333-.265.54-.624.004-.936-.753-.312-.758.97-2.74 1.2-2.948.231-.21.194-.81 0-1.197s.247-1.28.388-1.71zm-1.065 2.224c.11 0 .181.795 0 .74-.18-.056-.109-.74 0-.74zm-9.774 1.635c.178-.14 1.43 4.247.657 4.421-.773.174-.835-4.282-.657-4.421zm-6.62 1.663c-.169.122.084.801.307.801.222 0-.138-.923-.307-.801zm-5.942 2.975c.188.15 1.12-.362.848-.642-.273-.28-1.035.491-.848.642zm-3.392 5.018c.225-.342 1.508-.106 1.366.343-.143.448-.662.78-1.014.593-.352-.187-.578-.593-.352-.936zm1.84 20.892c.085.176.538.38.65.278.112-.102-.734-.454-.65-.278zm4.07-17.097c-.126.275.087 1.267.608 1.902.393.48 1.05.764 1.972.855-.067-1.064-.38-1.849-.935-2.353-.64-.581-1.528-.658-1.645-.404zm-1.808 4.496c-.126.275-.001.9 1.096 1.129.528.11 1.506-.11 2.937-.662-.15-.805-.912-1.24-2.288-1.305-1.208-.057-1.629.584-1.745.838zm2.516-7.746c-.126.275.368.654.89 1.29.393.479.935.782 1.626.909-.058-.487-.364-.983-.92-1.487-.64-.582-1.48-.967-1.596-.712z"/>
    </g>
</svg>
