<?xml version="1.0" encoding="UTF-8"?>
<svg width="170px" height="110px" viewBox="0 0 170 110" version="1.1" xmlns="http://www.w3.org/2000/svg" xmlns:xlink="http://www.w3.org/1999/xlink">
    <!-- Generator: Sketch 54.1 (76490) - https://sketchapp.com -->
    <title>Stamp_Text_Normal</title>
    <desc>Created with Sketch.</desc>
    <g id="页面1" stroke="none" stroke-width="1" fill="none" fill-rule="evenodd">
        <g id="iPhone-XS&gt;EN" transform="translate(-193.000000, -618.000000)">
            <g id="Content" transform="translate(12.000000, 88.000000)">
                <g id="04_STAMP" transform="translate(181.000000, 326.000000)">
                    <g id="Stamp_Text_Normal" transform="translate(0.000000, 204.000000)">
                        <rect id="bg" fill="#F3F3F3" x="0" y="0" width="170" height="110"></rect>
                        <g transform="translate(13.000000, 26.000000)" fill="#6A6A6A" fill-rule="nonzero">
                            <path d="M10.77,38.2 L12.35,38.2 C12.4566672,38.2 12.5899992,38.1916667 12.75,38.175 C12.9100008,38.1583332 13.0799991,38.1183336 13.26,38.055 C13.4400009,37.9916664 13.6183325,37.9000006 13.795,37.78 C13.9716676,37.6599994 14.1299993,37.4966677 14.27,37.29 C14.4100007,37.0833323 14.5249996,36.8250015 14.615,36.515 C14.7050005,36.2049985 14.75,35.8300022 14.75,35.39 C14.75,34.9633312 14.7083338,34.5816684 14.625,34.245 C14.5416663,33.9083317 14.405001,33.6216679 14.215,33.385 C14.0249991,33.1483322 13.7800015,32.968334 13.48,32.845 C13.1799985,32.721666 12.8100022,32.66 12.37,32.66 L10.77,32.66 L10.77,38.2 Z M9.82,31.86 L12.27,31.86 C13.3700055,31.86 14.2166637,32.1399972 14.81,32.7 C15.4033363,33.2600028 15.7,34.1133276 15.7,35.26 C15.7,35.860003 15.633334,36.3916643 15.5,36.855 C15.366666,37.3183357 15.1600014,37.7083317 14.88,38.025 C14.5999986,38.3416682 14.2433355,38.5833325 13.81,38.75 C13.3766645,38.9166675 12.8633363,39 12.27,39 L9.82,39 L9.82,31.86 Z M20.31,35.92 C20.2966666,35.719999 20.2516671,35.5300009 20.175,35.35 C20.098333,35.1699991 19.9950007,35.0150006 19.865,34.885 C19.7349994,34.7549993 19.5816676,34.6516671 19.405,34.575 C19.2283325,34.498333 19.0333344,34.46 18.82,34.46 C18.5999989,34.46 18.4016676,34.498333 18.225,34.575 C18.0483325,34.6516671 17.8966673,34.756666 17.77,34.89 C17.6433327,35.023334 17.5433337,35.1783324 17.47,35.355 C17.3966663,35.5316676 17.3533334,35.719999 17.34,35.92 L20.31,35.92 Z M21.13,37.36 C21.0166661,37.9400029 20.7666686,38.3766652 20.38,38.67 C19.9933314,38.9633348 19.5066696,39.11 18.92,39.11 C18.5066646,39.11 18.1483349,39.043334 17.845,38.91 C17.5416652,38.776666 17.2866677,38.5900012 17.08,38.35 C16.8733323,38.1099988 16.7183339,37.823335 16.615,37.49 C16.5116662,37.156665 16.4533334,36.7933353 16.44,36.4 C16.44,36.0066647 16.4999994,35.6466683 16.62,35.32 C16.7400006,34.9933317 16.9083323,34.7100012 17.125,34.47 C17.3416678,34.2299988 17.5983319,34.043334 17.895,33.91 C18.1916682,33.776666 18.5166649,33.71 18.87,33.71 C19.3300023,33.71 19.7116652,33.804999 20.015,33.995 C20.3183349,34.185001 20.5616658,34.4266652 20.745,34.72 C20.9283343,35.0133348 21.0549997,35.3333316 21.125,35.68 C21.1950004,36.0266684 21.2233334,36.3566651 21.21,36.67 L17.34,36.67 C17.3333333,36.8966678 17.3599997,37.1116656 17.42,37.315 C17.4800003,37.5183344 17.576666,37.6983326 17.71,37.855 C17.843334,38.0116675 18.0133323,38.1366662 18.22,38.23 C18.4266677,38.3233338 18.6699986,38.37 18.95,38.37 C19.3100018,38.37 19.6049989,38.2866675 19.835,38.12 C20.0650012,37.9533325 20.2166663,37.7000017 20.29,37.36 L21.13,37.36 Z M25.6,35.49 C25.533333,35.1633317 25.3933344,34.9100009 25.18,34.73 C24.9666656,34.5499991 24.6800018,34.46 24.32,34.46 C24.0133318,34.46 23.7566677,34.5166661 23.55,34.63 C23.3433323,34.7433339 23.178334,34.8933324 23.055,35.08 C22.931666,35.2666676 22.8433336,35.4816655 22.79,35.725 C22.7366664,35.9683346 22.71,36.2199987 22.71,36.48 C22.71,36.7200012 22.7383331,36.9533322 22.795,37.18 C22.851667,37.4066678 22.9399994,37.6083324 23.06,37.785 C23.1800006,37.9616676 23.3366657,38.1033328 23.53,38.21 C23.7233343,38.3166672 23.953332,38.37 24.22,38.37 C24.6400021,38.37 24.9683322,38.2600011 25.205,38.04 C25.4416679,37.8199989 25.5866664,37.510002 25.64,37.11 L26.51,37.11 C26.4166662,37.7500032 26.1783352,38.2433316 25.795,38.59 C25.4116647,38.9366684 24.8900033,39.11 24.23,39.11 C23.8366647,39.11 23.4883349,39.0466673 23.185,38.92 C22.8816652,38.7933327 22.6283344,38.6133345 22.425,38.38 C22.2216657,38.1466655 22.0683339,37.8683349 21.965,37.545 C21.8616661,37.221665 21.81,36.8666686 21.81,36.48 C21.81,36.0933314 21.8599995,35.7316683 21.96,35.395 C22.0600005,35.0583316 22.2116657,34.7650012 22.415,34.515 C22.6183343,34.2649988 22.8733318,34.0683341 23.18,33.925 C23.4866682,33.781666 23.8433313,33.71 24.25,33.71 C24.5433348,33.71 24.8183321,33.7449996 25.075,33.815 C25.331668,33.8850003 25.5583324,33.9933326 25.755,34.14 C25.9516677,34.2866674 26.1133327,34.4716655 26.24,34.695 C26.3666673,34.9183345 26.4466665,35.1833318 26.48,35.49 L25.6,35.49 Z M28.08,36.42 C28.08,36.7333349 28.1216663,37.0116655 28.205,37.255 C28.2883338,37.4983345 28.4033326,37.7016658 28.55,37.865 C28.6966674,38.0283341 28.8683324,38.1533329 29.065,38.24 C29.2616677,38.3266671 29.4699989,38.37 29.69,38.37 C29.9100011,38.37 30.1183324,38.3266671 30.315,38.24 C30.5116677,38.1533329 30.6833326,38.0283341 30.83,37.865 C30.9766674,37.7016658 31.0916663,37.4983345 31.175,37.255 C31.2583338,37.0116655 31.3,36.7333349 31.3,36.42 C31.3,36.1066651 31.2583338,35.8283346 31.175,35.585 C31.0916663,35.3416655 30.9766674,35.1366675 30.83,34.97 C30.6833326,34.8033325 30.5116677,34.6766671 30.315,34.59 C30.1183324,34.5033329 29.9100011,34.46 29.69,34.46 C29.4699989,34.46 29.2616677,34.5033329 29.065,34.59 C28.8683324,34.6766671 28.6966674,34.8033325 28.55,34.97 C28.4033326,35.1366675 28.2883338,35.3416655 28.205,35.585 C28.1216663,35.8283346 28.08,36.1066651 28.08,36.42 Z M27.18,36.42 C27.18,36.0399981 27.2333328,35.6850017 27.34,35.355 C27.4466672,35.0249984 27.6066656,34.7383346 27.82,34.495 C28.0333344,34.2516655 28.2966651,34.0600007 28.61,33.92 C28.9233349,33.7799993 29.2833313,33.71 29.69,33.71 C30.1033354,33.71 30.4649985,33.7799993 30.775,33.92 C31.0850016,34.0600007 31.3466656,34.2516655 31.56,34.495 C31.7733344,34.7383346 31.9333328,35.0249984 32.04,35.355 C32.1466672,35.6850017 32.2,36.0399981 32.2,36.42 C32.2,36.8000019 32.1466672,37.1533317 32.04,37.48 C31.9333328,37.8066683 31.7733344,38.0916655 31.56,38.335 C31.3466656,38.5783346 31.0850016,38.7683326 30.775,38.905 C30.4649985,39.0416673 30.1033354,39.11 29.69,39.11 C29.2833313,39.11 28.9233349,39.0416673 28.61,38.905 C28.2966651,38.7683326 28.0333344,38.5783346 27.82,38.335 C27.6066656,38.0916655 27.4466672,37.8066683 27.34,37.48 C27.2333328,37.1533317 27.18,36.8000019 27.18,36.42 Z M33.17,33.83 L33.97,33.83 L33.97,34.92 L33.99,34.92 C34.1966677,34.4999979 34.4499985,34.190001 34.75,33.99 C35.0500015,33.789999 35.4299977,33.6966666 35.89,33.71 L35.89,34.61 C35.5499983,34.61 35.2600012,34.6566662 35.02,34.75 C34.7799988,34.8433338 34.5866674,34.9799991 34.44,35.16 C34.2933326,35.3400009 34.186667,35.5583321 34.12,35.815 C34.053333,36.0716679 34.02,36.366665 34.02,36.7 L34.02,39 L33.17,39 L33.17,33.83 Z M41.11,38.98 C40.9633326,39.0666671 40.7600013,39.11 40.5,39.11 C40.2799989,39.11 40.1050007,39.0483339 39.975,38.925 C39.8449994,38.8016661 39.78,38.6000014 39.78,38.32 C39.5466655,38.6000014 39.2750016,38.8016661 38.965,38.925 C38.6549985,39.0483339 38.3200018,39.11 37.96,39.11 C37.7266655,39.11 37.5050011,39.0833336 37.295,39.03 C37.084999,38.9766664 36.9033341,38.8933339 36.75,38.78 C36.5966659,38.6666661 36.4750005,38.5183342 36.385,38.335 C36.2949996,38.1516657 36.25,37.9300013 36.25,37.67 C36.25,37.3766652 36.2999995,37.1366676 36.4,36.95 C36.5000005,36.7633324 36.6316659,36.6116672 36.795,36.495 C36.9583342,36.3783327 37.144999,36.2900003 37.355,36.23 C37.5650011,36.1699997 37.7799989,36.1200002 38,36.08 C38.2333345,36.0333331 38.454999,35.9983334 38.665,35.975 C38.8750011,35.9516665 39.0599992,35.9183335 39.22,35.875 C39.3800008,35.8316665 39.5066662,35.7683337 39.6,35.685 C39.6933338,35.6016663 39.74,35.4800008 39.74,35.32 C39.74,35.1333324 39.7050004,34.9833339 39.635,34.87 C39.5649997,34.7566661 39.4750006,34.6700003 39.365,34.61 C39.2549995,34.5499997 39.1316674,34.5100001 38.995,34.49 C38.8583327,34.4699999 38.723334,34.46 38.59,34.46 C38.2299982,34.46 37.9300012,34.5283327 37.69,34.665 C37.4499988,34.8016674 37.3200001,35.0599981 37.3,35.44 L36.45,35.44 C36.4633334,35.1199984 36.5299994,34.8500011 36.65,34.63 C36.7700006,34.4099989 36.929999,34.2316674 37.13,34.095 C37.330001,33.9583327 37.5583321,33.8600003 37.815,33.8 C38.071668,33.7399997 38.3466652,33.71 38.64,33.71 C38.8733345,33.71 39.1049989,33.7266665 39.335,33.76 C39.5650012,33.7933335 39.7733324,33.8616661 39.96,33.965 C40.1466676,34.0683339 40.2966661,34.2133324 40.41,34.4 C40.5233339,34.5866676 40.58,34.8299985 40.58,35.13 L40.58,37.79 C40.58,37.990001 40.5916666,38.1366662 40.615,38.23 C40.6383335,38.3233338 40.716666,38.37 40.85,38.37 C40.9233337,38.37 41.0099995,38.3533335 41.11,38.32 L41.11,38.98 Z M39.73,36.33 C39.6233328,36.4100004 39.4833342,36.4683331 39.31,36.505 C39.1366658,36.5416668 38.955001,36.5716666 38.765,36.595 C38.5749991,36.6183335 38.3833343,36.6449998 38.19,36.675 C37.9966657,36.7050001 37.8233341,36.753333 37.67,36.82 C37.5166659,36.886667 37.3916672,36.9816661 37.295,37.105 C37.1983329,37.2283339 37.15,37.3966656 37.15,37.61 C37.15,37.7500007 37.1783331,37.8683329 37.235,37.965 C37.291667,38.0616671 37.3649996,38.1399997 37.455,38.2 C37.5450005,38.2600003 37.6499994,38.3033332 37.77,38.33 C37.8900006,38.3566668 38.016666,38.37 38.15,38.37 C38.4300014,38.37 38.669999,38.3316671 38.87,38.255 C39.070001,38.1783329 39.2333327,38.0816672 39.36,37.965 C39.4866673,37.8483327 39.5799997,37.7216674 39.64,37.585 C39.7000003,37.4483326 39.73,37.3200006 39.73,37.2 L39.73,36.33 Z M43.08,33.83 L44.11,33.83 L44.11,34.58 L43.08,34.58 L43.08,37.79 C43.08,37.8900005 43.0883333,37.9699997 43.105,38.03 C43.1216668,38.0900003 43.1533331,38.1366665 43.2,38.17 C43.2466669,38.2033335 43.3116663,38.2249999 43.395,38.235 C43.4783338,38.2450001 43.586666,38.25 43.72,38.25 L44.11,38.25 L44.11,39 L43.46,39 C43.2399989,39 43.0516674,38.9850001 42.895,38.955 C42.7383325,38.9249998 42.6116672,38.8700004 42.515,38.79 C42.4183328,38.7099996 42.3466669,38.5966674 42.3,38.45 C42.2533331,38.3033326 42.23,38.1100012 42.23,37.87 L42.23,34.58 L41.35,34.58 L41.35,33.83 L42.23,33.83 L42.23,32.28 L43.08,32.28 L43.08,33.83 Z M48.64,35.92 C48.6266666,35.719999 48.5816671,35.5300009 48.505,35.35 C48.4283329,35.1699991 48.3250006,35.0150006 48.195,34.885 C48.0649994,34.7549993 47.9116675,34.6516671 47.735,34.575 C47.5583325,34.498333 47.3633344,34.46 47.15,34.46 C46.9299989,34.46 46.7316675,34.498333 46.555,34.575 C46.3783325,34.6516671 46.2266673,34.756666 46.1,34.89 C45.9733327,35.023334 45.8733337,35.1783324 45.8,35.355 C45.7266663,35.5316676 45.6833334,35.719999 45.67,35.92 L48.64,35.92 Z M49.46,37.36 C49.3466661,37.9400029 49.0966686,38.3766652 48.71,38.67 C48.3233314,38.9633348 47.8366696,39.11 47.25,39.11 C46.8366646,39.11 46.4783349,39.043334 46.175,38.91 C45.8716652,38.776666 45.6166677,38.5900012 45.41,38.35 C45.2033323,38.1099988 45.0483339,37.823335 44.945,37.49 C44.8416662,37.156665 44.7833334,36.7933353 44.77,36.4 C44.77,36.0066647 44.8299994,35.6466683 44.95,35.32 C45.0700006,34.9933317 45.2383323,34.7100012 45.455,34.47 C45.6716678,34.2299988 45.9283319,34.043334 46.225,33.91 C46.5216682,33.776666 46.8466649,33.71 47.2,33.71 C47.6600023,33.71 48.0416652,33.804999 48.345,33.995 C48.6483349,34.185001 48.8916658,34.4266652 49.075,34.72 C49.2583343,35.0133348 49.3849997,35.3333316 49.455,35.68 C49.5250004,36.0266684 49.5533334,36.3566651 49.54,36.67 L45.67,36.67 C45.6633333,36.8966678 45.6899997,37.1116656 45.75,37.315 C45.8100003,37.5183344 45.906666,37.6983326 46.04,37.855 C46.173334,38.0116675 46.3433323,38.1366662 46.55,38.23 C46.7566677,38.3233338 46.9999986,38.37 47.28,38.37 C47.6400018,38.37 47.9349989,38.2866675 48.165,38.12 C48.3950012,37.9533325 48.5466663,37.7000017 48.62,37.36 L49.46,37.36 Z M58.32,39 L57.42,39 L56.37,34.89 L56.35,34.89 L55.31,39 L54.39,39 L52.73,33.83 L53.67,33.83 L54.84,38.06 L54.86,38.06 L55.9,33.83 L56.83,33.83 L57.91,38.06 L57.93,38.06 L59.09,33.83 L59.97,33.83 L58.32,39 Z M61.68,32.9 L60.83,32.9 L60.83,31.86 L61.68,31.86 L61.68,32.9 Z M60.83,33.83 L61.68,33.83 L61.68,39 L60.83,39 L60.83,33.83 Z M64.18,33.83 L65.21,33.83 L65.21,34.58 L64.18,34.58 L64.18,37.79 C64.18,37.8900005 64.1883332,37.9699997 64.205,38.03 C64.2216667,38.0900003 64.2533331,38.1366665 64.3,38.17 C64.3466669,38.2033335 64.4116663,38.2249999 64.495,38.235 C64.5783337,38.2450001 64.686666,38.25 64.82,38.25 L65.21,38.25 L65.21,39 L64.56,39 C64.3399989,39 64.1516675,38.9850001 63.995,38.955 C63.8383326,38.9249998 63.7116672,38.8700004 63.615,38.79 C63.5183329,38.7099996 63.4466669,38.5966674 63.4,38.45 C63.3533331,38.3033326 63.33,38.1100012 63.33,37.87 L63.33,34.58 L62.45,34.58 L62.45,33.83 L63.33,33.83 L63.33,32.28 L64.18,32.28 L64.18,33.83 Z M66.15,31.86 L67,31.86 L67,34.59 L67.02,34.59 C67.086667,34.4299992 67.1799994,34.2950005 67.3,34.185 C67.4200006,34.0749994 67.5549993,33.9850003 67.705,33.915 C67.8550008,33.8449996 68.0116658,33.7933335 68.175,33.76 C68.3383342,33.7266665 68.4966659,33.71 68.65,33.71 C68.9900017,33.71 69.2733322,33.7566662 69.5,33.85 C69.7266678,33.9433338 69.9099993,34.0733325 70.05,34.24 C70.1900007,34.4066675 70.2883331,34.6049989 70.345,34.835 C70.401667,35.0650012 70.43,35.3199986 70.43,35.6 L70.43,39 L69.58,39 L69.58,35.5 C69.58,35.1799984 69.4866676,34.9266676 69.3,34.74 C69.1133324,34.5533324 68.8566683,34.46 68.53,34.46 C68.2699987,34.46 68.045001,34.4999996 67.855,34.58 C67.6649991,34.6600004 67.5066673,34.7733326 67.38,34.92 C67.2533327,35.0666674 67.1583337,35.2383324 67.095,35.435 C67.0316663,35.6316676 67,35.8466655 67,36.08 L67,39 L66.15,39 L66.15,31.86 Z M76.52,39.69 C76.4199995,39.9433346 76.3216672,40.1566658 76.225,40.33 C76.1283329,40.5033342 76.0216673,40.6449995 75.905,40.755 C75.7883328,40.8650005 75.6583341,40.9449998 75.515,40.995 C75.371666,41.0450003 75.2066676,41.07 75.02,41.07 C74.9199995,41.07 74.8200005,41.0633334 74.72,41.05 C74.6199995,41.0366666 74.5233338,41.0133335 74.43,40.98 L74.43,40.2 C74.5033337,40.2333335 74.5883329,40.2616666 74.685,40.285 C74.7816672,40.3083334 74.863333,40.32 74.93,40.32 C75.1033342,40.32 75.2483328,40.2783338 75.365,40.195 C75.4816673,40.1116662 75.5699997,39.9933341 75.63,39.84 L75.98,38.97 L73.93,33.83 L74.89,33.83 L76.4,38.06 L76.42,38.06 L77.87,33.83 L78.77,33.83 L76.52,39.69 Z M80.11,36.42 C80.11,36.7333349 80.1516663,37.0116655 80.235,37.255 C80.3183338,37.4983345 80.4333326,37.7016658 80.58,37.865 C80.7266674,38.0283341 80.8983324,38.1533329 81.095,38.24 C81.2916677,38.3266671 81.4999989,38.37 81.72,38.37 C81.9400011,38.37 82.1483324,38.3266671 82.345,38.24 C82.5416677,38.1533329 82.7133326,38.0283341 82.86,37.865 C83.0066674,37.7016658 83.1216663,37.4983345 83.205,37.255 C83.2883338,37.0116655 83.33,36.7333349 83.33,36.42 C83.33,36.1066651 83.2883338,35.8283346 83.205,35.585 C83.1216663,35.3416655 83.0066674,35.1366675 82.86,34.97 C82.7133326,34.8033325 82.5416677,34.6766671 82.345,34.59 C82.1483324,34.5033329 81.9400011,34.46 81.72,34.46 C81.4999989,34.46 81.2916677,34.5033329 81.095,34.59 C80.8983324,34.6766671 80.7266674,34.8033325 80.58,34.97 C80.4333326,35.1366675 80.3183338,35.3416655 80.235,35.585 C80.1516663,35.8283346 80.11,36.1066651 80.11,36.42 Z M79.21,36.42 C79.21,36.0399981 79.2633328,35.6850017 79.37,35.355 C79.4766672,35.0249984 79.6366656,34.7383346 79.85,34.495 C80.0633344,34.2516655 80.3266651,34.0600007 80.64,33.92 C80.9533349,33.7799993 81.3133313,33.71 81.72,33.71 C82.1333354,33.71 82.4949985,33.7799993 82.805,33.92 C83.1150016,34.0600007 83.3766656,34.2516655 83.59,34.495 C83.8033344,34.7383346 83.9633328,35.0249984 84.07,35.355 C84.1766672,35.6850017 84.23,36.0399981 84.23,36.42 C84.23,36.8000019 84.1766672,37.1533317 84.07,37.48 C83.9633328,37.8066683 83.8033344,38.0916655 83.59,38.335 C83.3766656,38.5783346 83.1150016,38.7683326 82.805,38.905 C82.4949985,39.0416673 82.1333354,39.11 81.72,39.11 C81.3133313,39.11 80.9533349,39.0416673 80.64,38.905 C80.3266651,38.7683326 80.0633344,38.5783346 79.85,38.335 C79.6366656,38.0916655 79.4766672,37.8066683 79.37,37.48 C79.2633328,37.1533317 79.21,36.8000019 79.21,36.42 Z M89.51,39 L88.71,39 L88.71,38.18 L88.69,38.18 C88.5099991,38.5000016 88.2800014,38.7349993 88,38.885 C87.7199986,39.0350007 87.3900019,39.11 87.01,39.11 C86.6699983,39.11 86.3866678,39.0650004 86.16,38.975 C85.9333322,38.8849996 85.7500007,38.7566675 85.61,38.59 C85.4699993,38.4233325 85.371667,38.2250011 85.315,37.995 C85.2583331,37.7649988 85.23,37.5100014 85.23,37.23 L85.23,33.83 L86.08,33.83 L86.08,37.33 C86.08,37.6500016 86.1733324,37.9033324 86.36,38.09 C86.5466676,38.2766676 86.8033317,38.37 87.13,38.37 C87.3900013,38.37 87.6149991,38.3300004 87.805,38.25 C87.995001,38.1699996 88.1533327,38.0566674 88.28,37.91 C88.4066673,37.7633326 88.5016663,37.5916676 88.565,37.395 C88.6283337,37.1983324 88.66,36.9833345 88.66,36.75 L88.66,33.83 L89.51,33.83 L89.51,39 Z M90.76,33.83 L91.56,33.83 L91.56,34.92 L91.58,34.92 C91.7866677,34.4999979 92.0399985,34.190001 92.34,33.99 C92.6400015,33.789999 93.0199977,33.6966666 93.48,33.71 L93.48,34.61 C93.1399983,34.61 92.8500012,34.6566662 92.61,34.75 C92.3699988,34.8433338 92.1766674,34.9799991 92.03,35.16 C91.8833326,35.3400009 91.776667,35.5583321 91.71,35.815 C91.643333,36.0716679 91.61,36.366665 91.61,36.7 L91.61,39 L90.76,39 L90.76,33.83 Z M97.25,34.58 L96.38,34.58 L96.38,33.83 L97.25,33.83 L97.25,33.06 C97.25,32.6399979 97.3716655,32.3216678 97.615,32.105 C97.8583346,31.8883323 98.213331,31.78 98.68,31.78 C98.7600004,31.78 98.8516661,31.7866666 98.955,31.8 C99.0583338,31.8133334 99.1499996,31.8333332 99.23,31.86 L99.23,32.6 C99.1566663,32.5733332 99.0766671,32.5550001 98.99,32.545 C98.9033329,32.5349999 98.8233337,32.53 98.75,32.53 C98.5433323,32.53 98.3833339,32.5699996 98.27,32.65 C98.1566661,32.7300004 98.1,32.8833322 98.1,33.11 L98.1,33.83 L99.1,33.83 L99.1,34.58 L98.1,34.58 L98.1,39 L97.25,39 L97.25,34.58 Z M104.44,38.98 C104.293333,39.0666671 104.090001,39.11 103.83,39.11 C103.609999,39.11 103.435001,39.0483339 103.305,38.925 C103.174999,38.8016661 103.11,38.6000014 103.11,38.32 C102.876666,38.6000014 102.605002,38.8016661 102.295,38.925 C101.984998,39.0483339 101.650002,39.11 101.29,39.11 C101.056666,39.11 100.835001,39.0833336 100.625,39.03 C100.414999,38.9766664 100.233334,38.8933339 100.08,38.78 C99.9266659,38.6666661 99.8050004,38.5183342 99.715,38.335 C99.6249995,38.1516657 99.58,37.9300013 99.58,37.67 C99.58,37.3766652 99.6299995,37.1366676 99.73,36.95 C99.8300005,36.7633324 99.9616659,36.6116672 100.125,36.495 C100.288334,36.3783327 100.474999,36.2900003 100.685,36.23 C100.895001,36.1699997 101.109999,36.1200002 101.33,36.08 C101.563334,36.0333331 101.784999,35.9983334 101.995,35.975 C102.205001,35.9516665 102.389999,35.9183335 102.55,35.875 C102.710001,35.8316665 102.836666,35.7683337 102.93,35.685 C103.023334,35.6016663 103.07,35.4800008 103.07,35.32 C103.07,35.1333324 103.035,34.9833339 102.965,34.87 C102.895,34.7566661 102.805001,34.6700003 102.695,34.61 C102.584999,34.5499997 102.461667,34.5100001 102.325,34.49 C102.188333,34.4699999 102.053334,34.46 101.92,34.46 C101.559998,34.46 101.260001,34.5283327 101.02,34.665 C100.779999,34.8016674 100.65,35.0599981 100.63,35.44 L99.78,35.44 C99.7933334,35.1199984 99.8599994,34.8500011 99.98,34.63 C100.100001,34.4099989 100.259999,34.2316674 100.46,34.095 C100.660001,33.9583327 100.888332,33.8600003 101.145,33.8 C101.401668,33.7399997 101.676665,33.71 101.97,33.71 C102.203334,33.71 102.434999,33.7266665 102.665,33.76 C102.895001,33.7933335 103.103332,33.8616661 103.29,33.965 C103.476668,34.0683339 103.626666,34.2133324 103.74,34.4 C103.853334,34.5866676 103.91,34.8299985 103.91,35.13 L103.91,37.79 C103.91,37.990001 103.921667,38.1366662 103.945,38.23 C103.968333,38.3233338 104.046666,38.37 104.18,38.37 C104.253334,38.37 104.339999,38.3533335 104.44,38.32 L104.44,38.98 Z M103.06,36.33 C102.953333,36.4100004 102.813334,36.4683331 102.64,36.505 C102.466666,36.5416668 102.285001,36.5716666 102.095,36.595 C101.904999,36.6183335 101.713334,36.6449998 101.52,36.675 C101.326666,36.7050001 101.153334,36.753333 101,36.82 C100.846666,36.886667 100.721667,36.9816661 100.625,37.105 C100.528333,37.2283339 100.48,37.3966656 100.48,37.61 C100.48,37.7500007 100.508333,37.8683329 100.565,37.965 C100.621667,38.0616671 100.695,38.1399997 100.785,38.2 C100.875,38.2600003 100.979999,38.3033332 101.1,38.33 C101.220001,38.3566668 101.346666,38.37 101.48,38.37 C101.760001,38.37 101.999999,38.3316671 102.2,38.255 C102.400001,38.1783329 102.563333,38.0816672 102.69,37.965 C102.816667,37.8483327 102.91,37.7216674 102.97,37.585 C103.03,37.4483326 103.06,37.3200006 103.06,37.2 L103.06,36.33 Z M107.56,39 L106.65,39 L104.73,33.83 L105.68,33.83 L107.13,38.14 L107.15,38.14 L108.56,33.83 L109.45,33.83 L107.56,39 Z M110.85,36.42 C110.85,36.7333349 110.891666,37.0116655 110.975,37.255 C111.058334,37.4983345 111.173333,37.7016658 111.32,37.865 C111.466667,38.0283341 111.638332,38.1533329 111.835,38.24 C112.031668,38.3266671 112.239999,38.37 112.46,38.37 C112.680001,38.37 112.888332,38.3266671 113.085,38.24 C113.281668,38.1533329 113.453333,38.0283341 113.6,37.865 C113.746667,37.7016658 113.861666,37.4983345 113.945,37.255 C114.028334,37.0116655 114.07,36.7333349 114.07,36.42 C114.07,36.1066651 114.028334,35.8283346 113.945,35.585 C113.861666,35.3416655 113.746667,35.1366675 113.6,34.97 C113.453333,34.8033325 113.281668,34.6766671 113.085,34.59 C112.888332,34.5033329 112.680001,34.46 112.46,34.46 C112.239999,34.46 112.031668,34.5033329 111.835,34.59 C111.638332,34.6766671 111.466667,34.8033325 111.32,34.97 C111.173333,35.1366675 111.058334,35.3416655 110.975,35.585 C110.891666,35.8283346 110.85,36.1066651 110.85,36.42 Z M109.95,36.42 C109.95,36.0399981 110.003333,35.6850017 110.11,35.355 C110.216667,35.0249984 110.376666,34.7383346 110.59,34.495 C110.803334,34.2516655 111.066665,34.0600007 111.38,33.92 C111.693335,33.7799993 112.053331,33.71 112.46,33.71 C112.873335,33.71 113.234998,33.7799993 113.545,33.92 C113.855002,34.0600007 114.116666,34.2516655 114.33,34.495 C114.543334,34.7383346 114.703333,35.0249984 114.81,35.355 C114.916667,35.6850017 114.97,36.0399981 114.97,36.42 C114.97,36.8000019 114.916667,37.1533317 114.81,37.48 C114.703333,37.8066683 114.543334,38.0916655 114.33,38.335 C114.116666,38.5783346 113.855002,38.7683326 113.545,38.905 C113.234998,39.0416673 112.873335,39.11 112.46,39.11 C112.053331,39.11 111.693335,39.0416673 111.38,38.905 C111.066665,38.7683326 110.803334,38.5783346 110.59,38.335 C110.376666,38.0916655 110.216667,37.8066683 110.11,37.48 C110.003333,37.1533317 109.95,36.8000019 109.95,36.42 Z M120.25,39 L119.45,39 L119.45,38.18 L119.43,38.18 C119.249999,38.5000016 119.020001,38.7349993 118.74,38.885 C118.459999,39.0350007 118.130002,39.11 117.75,39.11 C117.409998,39.11 117.126668,39.0650004 116.9,38.975 C116.673332,38.8849996 116.490001,38.7566675 116.35,38.59 C116.209999,38.4233325 116.111667,38.2250011 116.055,37.995 C115.998333,37.7649988 115.97,37.5100014 115.97,37.23 L115.97,33.83 L116.82,33.83 L116.82,37.33 C116.82,37.6500016 116.913332,37.9033324 117.1,38.09 C117.286668,38.2766676 117.543332,38.37 117.87,38.37 C118.130001,38.37 118.354999,38.3300004 118.545,38.25 C118.735001,38.1699996 118.893333,38.0566674 119.02,37.91 C119.146667,37.7633326 119.241666,37.5916676 119.305,37.395 C119.368334,37.1983324 119.4,36.9833345 119.4,36.75 L119.4,33.83 L120.25,33.83 L120.25,39 Z M121.5,33.83 L122.3,33.83 L122.3,34.92 L122.32,34.92 C122.526668,34.4999979 122.779999,34.190001 123.08,33.99 C123.380002,33.789999 123.759998,33.6966666 124.22,33.71 L124.22,34.61 C123.879998,34.61 123.590001,34.6566662 123.35,34.75 C123.109999,34.8433338 122.916667,34.9799991 122.77,35.16 C122.623333,35.3400009 122.516667,35.5583321 122.45,35.815 C122.383333,36.0716679 122.35,36.366665 122.35,36.7 L122.35,39 L121.5,39 L121.5,33.83 Z M125.76,32.9 L124.91,32.9 L124.91,31.86 L125.76,31.86 L125.76,32.9 Z M124.91,33.83 L125.76,33.83 L125.76,39 L124.91,39 L124.91,33.83 Z M128.26,33.83 L129.29,33.83 L129.29,34.58 L128.26,34.58 L128.26,37.79 C128.26,37.8900005 128.268333,37.9699997 128.285,38.03 C128.301667,38.0900003 128.333333,38.1366665 128.38,38.17 C128.426667,38.2033335 128.491666,38.2249999 128.575,38.235 C128.658334,38.2450001 128.766666,38.25 128.9,38.25 L129.29,38.25 L129.29,39 L128.64,39 C128.419999,39 128.231667,38.9850001 128.075,38.955 C127.918333,38.9249998 127.791667,38.8700004 127.695,38.79 C127.598333,38.7099996 127.526667,38.5966674 127.48,38.45 C127.433333,38.3033326 127.41,38.1100012 127.41,37.87 L127.41,34.58 L126.53,34.58 L126.53,33.83 L127.41,33.83 L127.41,32.28 L128.26,32.28 L128.26,33.83 Z M133.82,35.92 C133.806667,35.719999 133.761667,35.5300009 133.685,35.35 C133.608333,35.1699991 133.505001,35.0150006 133.375,34.885 C133.244999,34.7549993 133.091668,34.6516671 132.915,34.575 C132.738332,34.498333 132.543334,34.46 132.33,34.46 C132.109999,34.46 131.911668,34.498333 131.735,34.575 C131.558332,34.6516671 131.406667,34.756666 131.28,34.89 C131.153333,35.023334 131.053334,35.1783324 130.98,35.355 C130.906666,35.5316676 130.863333,35.719999 130.85,35.92 L133.82,35.92 Z M134.64,37.36 C134.526666,37.9400029 134.276669,38.3766652 133.89,38.67 C133.503331,38.9633348 133.01667,39.11 132.43,39.11 C132.016665,39.11 131.658335,39.043334 131.355,38.91 C131.051665,38.776666 130.796668,38.5900012 130.59,38.35 C130.383332,38.1099988 130.228334,37.823335 130.125,37.49 C130.021666,37.156665 129.963333,36.7933353 129.95,36.4 C129.95,36.0066647 130.009999,35.6466683 130.13,35.32 C130.250001,34.9933317 130.418332,34.7100012 130.635,34.47 C130.851668,34.2299988 131.108332,34.043334 131.405,33.91 C131.701668,33.776666 132.026665,33.71 132.38,33.71 C132.840002,33.71 133.221665,33.804999 133.525,33.995 C133.828335,34.185001 134.071666,34.4266652 134.255,34.72 C134.438334,35.0133348 134.565,35.3333316 134.635,35.68 C134.705,36.0266684 134.733333,36.3566651 134.72,36.67 L130.85,36.67 C130.843333,36.8966678 130.87,37.1116656 130.93,37.315 C130.99,37.5183344 131.086666,37.6983326 131.22,37.855 C131.353334,38.0116675 131.523332,38.1366662 131.73,38.23 C131.936668,38.3233338 132.179999,38.37 132.46,38.37 C132.820002,38.37 133.114999,38.2866675 133.345,38.12 C133.575001,37.9533325 133.726666,37.7000017 133.8,37.36 L134.64,37.36 Z M55.845,49.37 C55.8516667,49.5566676 55.8949996,49.7149993 55.975,49.845 C56.0550004,49.9750006 56.1599993,50.078333 56.29,50.155 C56.4200006,50.231667 56.5666658,50.2866665 56.73,50.32 C56.8933342,50.3533335 57.0616658,50.37 57.235,50.37 C57.368334,50.37 57.5083326,50.3600001 57.655,50.34 C57.8016674,50.3199999 57.936666,50.2833336 58.06,50.23 C58.183334,50.1766664 58.2849996,50.0983339 58.365,49.995 C58.4450004,49.8916661 58.485,49.7600008 58.485,49.6 C58.485,49.3799989 58.4016675,49.2133339 58.235,49.1 C58.0683325,48.9866661 57.8600012,48.8950004 57.61,48.825 C57.3599988,48.7549997 57.0883348,48.6916669 56.795,48.635 C56.5016652,48.578333 56.2300013,48.4983339 55.98,48.395 C55.7299988,48.2916661 55.5216675,48.1466676 55.355,47.96 C55.1883325,47.7733324 55.105,47.513335 55.105,47.18 C55.105,46.9199987 55.1633328,46.6966676 55.28,46.51 C55.3966673,46.3233324 55.5466658,46.1716672 55.73,46.055 C55.9133343,45.9383328 56.1199989,45.8516669 56.35,45.795 C56.5800012,45.7383331 56.8083322,45.71 57.035,45.71 C57.3283348,45.71 57.5983321,45.7349998 57.845,45.785 C58.0916679,45.8350003 58.3099991,45.921666 58.5,46.045 C58.690001,46.1683339 58.8416661,46.3349989 58.955,46.545 C59.0683339,46.7550011 59.1349999,47.0166651 59.155,47.33 L58.305,47.33 C58.2916666,47.1633325 58.2483337,47.0250006 58.175,46.915 C58.1016663,46.8049994 58.0083339,46.716667 57.895,46.65 C57.7816661,46.583333 57.6566673,46.5350002 57.52,46.505 C57.3833326,46.4749999 57.2450007,46.46 57.105,46.46 C56.9783327,46.46 56.8500006,46.4699999 56.72,46.49 C56.5899993,46.5100001 56.4716672,46.5449998 56.365,46.595 C56.2583328,46.6450002 56.171667,46.7116663 56.105,46.795 C56.038333,46.8783337 56.005,46.986666 56.005,47.12 C56.005,47.2666674 56.0566661,47.3883328 56.16,47.485 C56.2633339,47.5816672 56.3949992,47.6616664 56.555,47.725 C56.7150008,47.7883336 56.894999,47.8416664 57.095,47.885 C57.295001,47.9283335 57.494999,47.9733331 57.695,48.02 C57.9083344,48.0666669 58.1166657,48.123333 58.32,48.19 C58.5233343,48.256667 58.7033325,48.3449995 58.86,48.455 C59.0166674,48.5650006 59.1433329,48.7033325 59.24,48.87 C59.3366672,49.0366675 59.385,49.2433321 59.385,49.49 C59.385,49.8033349 59.3200007,50.0633323 59.19,50.27 C59.0599994,50.4766677 58.8900011,50.6433327 58.68,50.77 C58.469999,50.8966673 58.2333347,50.9849998 57.97,51.035 C57.7066653,51.0850003 57.4450013,51.11 57.185,51.11 C56.8983319,51.11 56.6250013,51.0800003 56.365,51.02 C56.1049987,50.9599997 55.875001,50.8616674 55.675,50.725 C55.474999,50.5883326 55.3150006,50.4083344 55.195,50.185 C55.0749994,49.9616655 55.0083334,49.6900016 54.995,49.37 L55.845,49.37 Z M61.505,45.83 L62.535,45.83 L62.535,46.58 L61.505,46.58 L61.505,49.79 C61.505,49.8900005 61.5133333,49.9699997 61.53,50.03 C61.5466667,50.0900003 61.5783331,50.1366665 61.625,50.17 C61.6716669,50.2033335 61.7366662,50.2249999 61.82,50.235 C61.9033338,50.2450001 62.011666,50.25 62.145,50.25 L62.535,50.25 L62.535,51 L61.885,51 C61.6649989,51 61.4766674,50.9850002 61.32,50.955 C61.1633325,50.9249998 61.0366671,50.8700004 60.94,50.79 C60.8433329,50.7099996 60.7716669,50.5966674 60.725,50.45 C60.6783331,50.3033326 60.655,50.1100012 60.655,49.87 L60.655,46.58 L59.775,46.58 L59.775,45.83 L60.655,45.83 L60.655,44.28 L61.505,44.28 L61.505,45.83 Z M64.375,44.9 L63.525,44.9 L63.525,43.86 L64.375,43.86 L64.375,44.9 Z M63.525,45.83 L64.375,45.83 L64.375,51 L63.525,51 L63.525,45.83 Z M69.205,47.49 C69.138333,47.1633317 68.9983344,46.9100009 68.785,46.73 C68.5716656,46.5499991 68.2850018,46.46 67.925,46.46 C67.6183318,46.46 67.3616677,46.5166661 67.155,46.63 C66.9483323,46.7433339 66.783334,46.8933324 66.66,47.08 C66.5366661,47.2666676 66.4483336,47.4816655 66.395,47.725 C66.3416664,47.9683346 66.315,48.2199987 66.315,48.48 C66.315,48.7200012 66.3433331,48.9533322 66.4,49.18 C66.456667,49.4066678 66.5449994,49.6083324 66.665,49.785 C66.7850006,49.9616676 66.9416657,50.1033328 67.135,50.21 C67.3283343,50.3166672 67.558332,50.37 67.825,50.37 C68.2450021,50.37 68.5733321,50.2600011 68.81,50.04 C69.0466679,49.8199989 69.1916664,49.510002 69.245,49.11 L70.115,49.11 C70.0216662,49.7500032 69.7833353,50.2433316 69.4,50.59 C69.0166648,50.9366684 68.4950033,51.11 67.835,51.11 C67.4416647,51.11 67.0933349,51.0466673 66.79,50.92 C66.4866652,50.7933327 66.2333344,50.6133345 66.03,50.38 C65.8266657,50.1466655 65.6733339,49.868335 65.57,49.545 C65.4666662,49.221665 65.415,48.8666686 65.415,48.48 C65.415,48.0933314 65.4649995,47.7316683 65.565,47.395 C65.6650005,47.0583316 65.8166657,46.7650012 66.02,46.515 C66.2233344,46.2649988 66.4783318,46.0683341 66.785,45.925 C67.0916682,45.781666 67.4483313,45.71 67.855,45.71 C68.1483348,45.71 68.423332,45.7449996 68.68,45.815 C68.936668,45.8850003 69.1633324,45.9933326 69.36,46.14 C69.5566677,46.2866674 69.7183327,46.4716655 69.845,46.695 C69.9716673,46.9183345 70.0516665,47.1833318 70.085,47.49 L69.205,47.49 Z M71.115,43.86 L71.965,43.86 L71.965,48.09 L74.325,45.83 L75.465,45.83 L73.415,47.71 L75.615,51 L74.535,51 L72.765,48.3 L71.965,49.04 L71.965,51 L71.115,51 L71.115,43.86 Z M79.845,47.92 C79.8316666,47.719999 79.7866671,47.5300009 79.71,47.35 C79.633333,47.1699991 79.5300007,47.0150006 79.4,46.885 C79.2699994,46.7549993 79.1166676,46.6516671 78.94,46.575 C78.7633325,46.4983329 78.5683344,46.46 78.355,46.46 C78.1349989,46.46 77.9366676,46.4983329 77.76,46.575 C77.5833325,46.6516671 77.4316673,46.756666 77.305,46.89 C77.1783327,47.023334 77.0783337,47.1783324 77.005,47.355 C76.9316663,47.5316676 76.8883334,47.719999 76.875,47.92 L79.845,47.92 Z M80.665,49.36 C80.5516661,49.9400029 80.3016686,50.3766652 79.915,50.67 C79.5283314,50.9633348 79.0416696,51.11 78.455,51.11 C78.0416646,51.11 77.6833349,51.043334 77.38,50.91 C77.0766652,50.776666 76.8216677,50.5900012 76.615,50.35 C76.4083323,50.1099988 76.2533339,49.823335 76.15,49.49 C76.0466662,49.156665 75.9883334,48.7933353 75.975,48.4 C75.975,48.0066647 76.0349994,47.6466683 76.155,47.32 C76.2750006,46.9933317 76.4433323,46.7100012 76.66,46.47 C76.8766678,46.2299988 77.1333319,46.043334 77.43,45.91 C77.7266682,45.776666 78.0516649,45.71 78.405,45.71 C78.8650023,45.71 79.2466652,45.804999 79.55,45.995 C79.8533349,46.185001 80.0966658,46.4266652 80.28,46.72 C80.4633343,47.0133348 80.5899997,47.3333316 80.66,47.68 C80.7300004,48.0266684 80.7583334,48.3566651 80.745,48.67 L76.875,48.67 C76.8683333,48.8966678 76.8949997,49.1116656 76.955,49.315 C77.0150003,49.5183344 77.111666,49.6983326 77.245,49.855 C77.378334,50.0116675 77.5483323,50.1366662 77.755,50.23 C77.9616677,50.3233338 78.2049986,50.37 78.485,50.37 C78.8450018,50.37 79.1399988,50.2866675 79.37,50.12 C79.6000011,49.9533325 79.7516663,49.7000017 79.825,49.36 L80.665,49.36 Z M81.595,45.83 L82.395,45.83 L82.395,46.92 L82.415,46.92 C82.6216677,46.4999979 82.8749985,46.190001 83.175,45.99 C83.4750015,45.789999 83.8549977,45.6966666 84.315,45.71 L84.315,46.61 C83.9749983,46.61 83.6850012,46.6566662 83.445,46.75 C83.2049988,46.8433338 83.0116674,46.9799991 82.865,47.16 C82.7183326,47.3400009 82.611667,47.5583321 82.545,47.815 C82.478333,48.0716679 82.445,48.366665 82.445,48.7 L82.445,51 L81.595,51 L81.595,45.83 Z M85.475,49.37 C85.4816667,49.5566676 85.5249996,49.7149993 85.605,49.845 C85.6850004,49.9750006 85.7899994,50.078333 85.92,50.155 C86.0500007,50.231667 86.1966659,50.2866665 86.36,50.32 C86.5233342,50.3533335 86.6916658,50.37 86.865,50.37 C86.998334,50.37 87.1383326,50.3600001 87.285,50.34 C87.4316674,50.3199999 87.5666661,50.2833336 87.69,50.23 C87.813334,50.1766664 87.9149996,50.0983339 87.995,49.995 C88.0750004,49.8916661 88.115,49.7600008 88.115,49.6 C88.115,49.3799989 88.0316675,49.2133339 87.865,49.1 C87.6983325,48.9866661 87.4900013,48.8950004 87.24,48.825 C86.9899988,48.7549997 86.7183348,48.6916669 86.425,48.635 C86.1316652,48.578333 85.8600013,48.4983339 85.61,48.395 C85.3599988,48.2916661 85.1516675,48.1466676 84.985,47.96 C84.8183325,47.7733324 84.735,47.513335 84.735,47.18 C84.735,46.9199987 84.7933328,46.6966676 84.91,46.51 C85.0266673,46.3233324 85.1766658,46.1716672 85.36,46.055 C85.5433343,45.9383328 85.7499989,45.8516669 85.98,45.795 C86.2100012,45.7383331 86.4383322,45.71 86.665,45.71 C86.9583348,45.71 87.2283321,45.7349998 87.475,45.785 C87.7216679,45.8350003 87.9399991,45.921666 88.13,46.045 C88.320001,46.1683339 88.4716661,46.3349989 88.585,46.545 C88.6983339,46.7550011 88.7649999,47.0166651 88.785,47.33 L87.935,47.33 C87.9216666,47.1633325 87.8783337,47.0250006 87.805,46.915 C87.7316663,46.8049994 87.6383339,46.716667 87.525,46.65 C87.4116661,46.583333 87.2866674,46.5350002 87.15,46.505 C87.0133327,46.4749999 86.8750007,46.46 86.735,46.46 C86.6083327,46.46 86.4800007,46.4699999 86.35,46.49 C86.2199994,46.5100001 86.1016672,46.5449998 85.995,46.595 C85.8883328,46.6450002 85.801667,46.7116663 85.735,46.795 C85.668333,46.8783337 85.635,46.986666 85.635,47.12 C85.635,47.2666674 85.6866662,47.3883328 85.79,47.485 C85.8933339,47.5816672 86.0249992,47.6616664 86.185,47.725 C86.3450008,47.7883336 86.524999,47.8416664 86.725,47.885 C86.925001,47.9283335 87.124999,47.9733331 87.325,48.02 C87.5383344,48.0666669 87.7466657,48.123333 87.95,48.19 C88.1533344,48.256667 88.3333326,48.3449995 88.49,48.455 C88.6466675,48.5650006 88.7733329,48.7033325 88.87,48.87 C88.9666672,49.0366675 89.015,49.2433321 89.015,49.49 C89.015,49.8033349 88.9500007,50.0633323 88.82,50.27 C88.6899994,50.4766677 88.5200011,50.6433327 88.31,50.77 C88.099999,50.8966673 87.8633347,50.9849998 87.6,51.035 C87.3366654,51.0850003 87.0750013,51.11 86.815,51.11 C86.5283319,51.11 86.2550013,51.0800003 85.995,51.02 C85.7349987,50.9599997 85.505001,50.8616674 85.305,50.725 C85.104999,50.5883326 84.9450006,50.4083344 84.825,50.185 C84.7049994,49.9616655 84.6383334,49.6900016 84.625,49.37 L85.475,49.37 Z" id="Decoratewithyourfavouritestickers"></path>
                            <path d="M46.3625,12.971 C46.3625,13.379002 46.4361659,13.7246653 46.5835,14.008 C46.7308341,14.2913348 46.9263321,14.5208325 47.17,14.6965 C47.4136679,14.8721675 47.6998317,15.0024996 48.0285,15.0875 C48.3571683,15.1725004 48.6971649,15.215 49.0485,15.215 C49.2865012,15.215 49.5414986,15.1951669 49.8135,15.1555 C50.0855014,15.1158331 50.3404988,15.0393339 50.5785,14.926 C50.8165012,14.8126661 51.0148325,14.6568343 51.1735,14.4585 C51.3321675,14.2601657 51.4115,14.0080015 51.4115,13.702 C51.4115,13.3733317 51.3066677,13.107001 51.097,12.903 C50.8873323,12.698999 50.6125017,12.5290007 50.2725,12.393 C49.9324983,12.2569993 49.5471688,12.1380005 49.1165,12.036 C48.6858312,11.9339995 48.2495022,11.8206673 47.8075,11.696 C47.3541644,11.5826661 46.9121688,11.4438342 46.4815,11.2795 C46.0508312,11.1151658 45.6655017,10.902668 45.3255,10.642 C44.9854983,10.381332 44.7106677,10.055502 44.501,9.6645 C44.2913323,9.27349805 44.1865,8.80033611 44.1865,8.245 C44.1865,7.62166355 44.3196653,7.08050229 44.586,6.6215 C44.8523347,6.1624977 45.2008312,5.78000153 45.6315,5.474 C46.0621688,5.16799847 46.5494973,4.94133407 47.0935,4.794 C47.6375027,4.64666593 48.1814973,4.573 48.7255,4.573 C49.3601698,4.573 49.9693304,4.64383262 50.553,4.7855 C51.1366696,4.92716737 51.6551644,5.15666508 52.1085,5.474 C52.5618356,5.79133492 52.9216653,6.19649753 53.188,6.6895 C53.4543347,7.18250246 53.5875,7.78032982 53.5875,8.483 L51.0035,8.483 C50.9808332,8.12033152 50.904334,7.82000119 50.774,7.582 C50.643666,7.34399881 50.4708344,7.15700068 50.2555,7.021 C50.0401656,6.88499932 49.7936681,6.78866695 49.516,6.732 C49.2383319,6.67533305 48.9351683,6.647 48.6065,6.647 C48.3911656,6.647 48.1758344,6.66966644 47.9605,6.715 C47.7451656,6.76033356 47.5496675,6.8396661 47.374,6.953 C47.1983325,7.0663339 47.0538339,7.20799915 46.9405,7.378 C46.8271661,7.54800085 46.7705,7.76333203 46.7705,8.024 C46.7705,8.26200119 46.8158329,8.45466593 46.9065,8.602 C46.9971671,8.74933407 47.1756653,8.88533271 47.442,9.01 C47.7083347,9.13466729 48.0766643,9.25933271 48.547,9.384 C49.0173357,9.50866729 49.6321629,9.66733237 50.3915,9.86 C50.6181678,9.90533356 50.9326647,9.98749941 51.335,10.1065 C51.7373353,10.2255006 52.1368314,10.415332 52.5335,10.676 C52.9301686,10.936668 53.2729986,11.2851645 53.562,11.7215 C53.8510014,12.1578355 53.9955,12.7159966 53.9955,13.396 C53.9955,13.9513361 53.8878344,14.4669976 53.6725,14.943 C53.4571656,15.4190024 53.1370021,15.8298316 52.712,16.1755 C52.2869979,16.5211684 51.7600031,16.7903324 51.131,16.983 C50.5019969,17.1756676 49.7738375,17.272 48.9465,17.272 C48.27783,17.272 47.6290031,17.1898342 47,17.0255 C46.3709969,16.8611658 45.8156691,16.6033351 45.334,16.252 C44.8523309,15.9006649 44.4698347,15.4530027 44.1865,14.909 C43.9031653,14.3649973 43.7671666,13.7190037 43.7785,12.971 L46.3625,12.971 Z M58.2625,7.106 L54.6245,7.106 L54.6245,4.862 L64.5695,4.862 L64.5695,7.106 L60.9315,7.106 L60.9315,17 L58.2625,17 L58.2625,7.106 Z M67.4595,12.308 L70.6045,12.308 L69.0745,7.854 L69.0405,7.854 L67.4595,12.308 Z M67.7145,4.862 L70.4515,4.862 L74.9905,17 L72.2195,17 L71.3015,14.297 L66.7625,14.297 L65.8105,17 L63.1245,17 L67.7145,4.862 Z M76.0445,4.862 L79.8015,4.862 L82.6405,13.209 L82.6745,13.209 L85.3605,4.862 L89.1175,4.862 L89.1175,17 L86.6185,17 L86.6185,8.398 L86.5845,8.398 L83.6095,17 L81.5525,17 L78.5775,8.483 L78.5435,8.483 L78.5435,17 L76.0445,17 L76.0445,4.862 Z M94.1325,10.574 L96.2065,10.574 C96.5125015,10.574 96.8071653,10.5513336 97.0905,10.506 C97.3738348,10.4606664 97.6231656,10.372834 97.8385,10.2425 C98.0538344,10.112166 98.226666,9.92800119 98.357,9.69 C98.487334,9.45199881 98.5525,9.14033526 98.5525,8.755 C98.5525,8.36966474 98.487334,8.05800119 98.357,7.82 C98.226666,7.58199881 98.0538344,7.39783399 97.8385,7.2675 C97.6231656,7.13716602 97.3738348,7.04933356 97.0905,7.004 C96.8071653,6.95866644 96.5125015,6.936 96.2065,6.936 L94.1325,6.936 L94.1325,10.574 Z M91.4635,4.862 L96.9375,4.862 C97.6968371,4.862 98.3428307,4.97249889 98.8755,5.1935 C99.4081693,5.4145011 99.841665,5.70633152 100.176,6.069 C100.510335,6.43166848 100.753999,6.84533101 100.907,7.31 C101.060001,7.77466899 101.1365,8.25633084 101.1365,8.755 C101.1365,9.24233577 101.060001,9.72116431 100.907,10.1915 C100.753999,10.6618357 100.510335,11.0783315 100.176,11.441 C99.841665,11.8036685 99.4081693,12.0954989 98.8755,12.3165 C98.3428307,12.5375011 97.6968371,12.648 96.9375,12.648 L94.1325,12.648 L94.1325,17 L91.4635,17 L91.4635,4.862 Z" id="STAMP"></path>
                        </g>
                    </g>
                </g>
            </g>
        </g>
    </g>
</svg>