<svg xmlns="http://www.w3.org/2000/svg" width="72" height="72" viewBox="0 0 72 72">
    <g fill="none" fill-rule="evenodd">
        <circle cx="36" cy="36" r="35.5" fill="#FFF" stroke="#DADADA"/>
        <g transform="rotate(18 -32.072 86.333)">
            <path fill="#1B1B1B" d="M17.754 35.507C7.949 35.507 0 27.56 0 17.754S7.949 0 17.754 0c9.805 0 17.753 7.949 17.753 17.754 0 9.805-7.948 17.753-17.753 17.753zm0-2.536c8.404 0 15.217-6.813 15.217-15.217 0-8.405-6.813-15.218-15.217-15.218-8.405 0-15.218 6.813-15.218 15.218 0 8.404 6.813 15.217 15.218 15.217z"/>
            <circle cx="11.667" cy="15.978" r="2.029" fill="#3CB5AC"/>
            <circle cx="21.304" cy="12.681" r="2.029" fill="#3CB5AC"/>
            <path fill="#F00" fill-rule="nonzero" d="M9.881 24.275a1.268 1.268 0 0 1 1.636-1.938c2.853 2.408 6.025 2.91 8.823 1.724 2.587-1.095 4.48-3.517 4.847-6.224a1.268 1.268 0 0 1 2.514.34c-.489 3.605-2.97 6.779-6.371 8.22-3.685 1.56-7.87.899-11.449-2.122z"/>
        </g>
    </g>
</svg>
