<?xml version="1.0" encoding="UTF-8"?>
<svg width="170px" height="110px" viewBox="0 0 170 110" version="1.1" xmlns="http://www.w3.org/2000/svg" xmlns:xlink="http://www.w3.org/1999/xlink">
    <!-- Generator: Sketch 54.1 (76490) - https://sketchapp.com -->
    <title>Stamp_Text_Normal</title>
    <desc>Created with Sketch.</desc>
    <g id="Make" stroke="none" stroke-width="1" fill="none" fill-rule="evenodd">
        <g id="iPhone-XS&gt;JP" transform="translate(-193.000000, -618.000000)">
            <g id="Content" transform="translate(12.000000, 88.000000)">
                <g id="04_STAMP" transform="translate(181.000000, 326.000000)">
                    <g id="Stamp_Text_Normal" transform="translate(0.000000, 204.000000)">
                        <rect id="bg" fill="#F3F3F3" x="0" y="0" width="170" height="110"></rect>
                        <g transform="translate(13.000000, 26.000000)" fill="#6A6A6A" fill-rule="nonzero">
                            <path d="M4.356,31.746 L5.094,31.746 C5.085,31.863 5.085,32.007 5.076,32.16 C5.157,33.348 5.643,37.506 9.027,39.054 C8.838,39.198 8.631,39.423 8.532,39.603 C6.21,38.505 5.22,36.201 4.788,34.401 C4.392,36.201 3.465,38.37 1.188,39.603 C1.071,39.441 0.855,39.234 0.648,39.09 C4.293,37.227 4.293,32.934 4.356,31.746 Z M17.622,32.988 L11.754,32.988 C11.349,33.798 10.845,34.5 10.296,35.013 C10.161,34.896 9.864,34.689 9.684,34.581 C10.557,33.861 11.25,32.709 11.619,31.449 L12.312,31.611 C12.222,31.89 12.123,32.16 12.015,32.421 L17.622,32.421 L17.622,32.988 Z M16.767,34.257 L11.601,34.257 L11.601,33.699 L16.767,33.699 L16.767,34.257 Z M14.022,35.706 L14.652,35.922 C14.328,36.489 13.941,37.011 13.509,37.488 C14.157,37.956 14.733,38.442 15.12,38.856 L14.589,39.36 C14.229,38.946 13.671,38.46 13.023,37.974 C12.249,38.703 11.358,39.306 10.422,39.756 C10.323,39.621 10.071,39.36 9.927,39.243 C10.872,38.838 11.754,38.28 12.501,37.596 C11.943,37.2 11.349,36.822 10.791,36.507 L11.268,36.066 C11.817,36.372 12.411,36.732 12.987,37.119 C13.392,36.687 13.743,36.21 14.022,35.706 Z M10.575,34.977 L16.389,34.977 C16.398,37.299 16.524,39.036 17.199,39.036 C17.379,39.036 17.424,38.523 17.442,37.767 C17.568,37.902 17.766,38.064 17.91,38.154 C17.847,39.279 17.703,39.684 17.154,39.693 C15.966,39.684 15.777,38.01 15.723,35.553 L10.575,35.553 L10.575,34.977 Z M26.244,35.4 L26.397,36.156 C26.208,36.174 25.92,36.219 25.587,36.273 C25.092,36.354 24.255,36.489 23.373,36.624 C23.553,37.506 23.697,38.226 23.742,38.433 C23.805,38.694 23.877,39 23.958,39.252 L23.139,39.405 C23.094,39.099 23.067,38.829 23.004,38.559 C22.968,38.361 22.824,37.632 22.653,36.741 C21.636,36.912 20.673,37.074 20.232,37.155 C19.881,37.209 19.638,37.263 19.44,37.317 L19.278,36.534 C19.485,36.525 19.836,36.489 20.07,36.453 C20.52,36.39 21.501,36.237 22.527,36.075 L22.167,34.266 C21.312,34.401 20.529,34.527 20.187,34.59 C19.899,34.635 19.656,34.689 19.458,34.743 L19.305,33.933 C19.53,33.924 19.764,33.906 20.052,33.87 C20.403,33.834 21.186,33.717 22.032,33.582 C21.933,33.096 21.87,32.745 21.843,32.637 C21.798,32.403 21.735,32.205 21.672,32.025 L22.482,31.881 C22.491,32.052 22.536,32.304 22.563,32.502 C22.581,32.601 22.644,32.97 22.752,33.474 C23.625,33.33 24.453,33.195 24.831,33.123 C25.092,33.078 25.317,33.015 25.47,32.97 L25.623,33.726 C25.488,33.744 25.209,33.78 24.975,33.816 C24.561,33.879 23.742,34.014 22.878,34.149 L23.238,35.958 C24.156,35.805 25.011,35.661 25.461,35.58 C25.803,35.508 26.055,35.454 26.244,35.4 Z M34.65,34.41 L35.1,34.725 C34.722,35.49 33.795,36.75 33.183,37.353 L32.544,37.038 C33.102,36.552 33.786,35.724 34.092,35.184 C33.885,35.22 32.607,35.472 31.365,35.724 C31.725,37.02 32.166,38.613 32.283,39 C32.337,39.171 32.427,39.45 32.481,39.612 L31.716,39.81 C31.689,39.612 31.644,39.378 31.581,39.162 C31.464,38.757 31.032,37.155 30.681,35.868 C29.835,36.039 29.097,36.183 28.854,36.237 L28.674,35.553 C28.926,35.535 29.151,35.499 29.421,35.454 C29.547,35.436 29.97,35.355 30.519,35.256 C30.384,34.779 30.276,34.392 30.222,34.221 C30.159,33.996 30.087,33.816 30.015,33.681 L30.78,33.492 C30.807,33.645 30.852,33.843 30.906,34.068 L31.194,35.13 C32.472,34.887 34.002,34.59 34.308,34.518 C34.416,34.491 34.56,34.455 34.65,34.41 Z M43.704,34.347 L44.217,34.671 C44.172,34.752 44.118,34.869 44.1,34.932 C43.857,35.823 43.452,36.759 42.786,37.488 C41.841,38.523 40.707,39.054 39.564,39.369 L39.006,38.73 C40.284,38.469 41.409,37.884 42.174,37.083 C42.723,36.507 43.083,35.742 43.245,35.094 L38.466,35.094 C38.25,35.094 37.908,35.103 37.593,35.121 L37.593,34.365 C37.917,34.401 38.223,34.419 38.466,34.419 L43.209,34.419 C43.416,34.419 43.605,34.401 43.704,34.347 Z M38.394,33.042 L38.394,32.295 C38.628,32.331 38.916,32.34 39.204,32.34 L42.741,32.34 C43.029,32.34 43.344,32.331 43.56,32.295 L43.56,33.042 C43.344,33.024 43.038,33.015 42.732,33.015 L39.204,33.015 C38.925,33.015 38.637,33.024 38.394,33.042 Z M52.56,33.015 L53.163,33.375 C53.091,33.501 53.001,33.708 52.947,33.852 C52.704,34.752 52.155,35.976 51.354,36.948 C50.535,37.947 49.464,38.775 47.772,39.396 L47.124,38.811 C48.771,38.325 49.896,37.506 50.715,36.552 C51.417,35.724 51.966,34.563 52.146,33.744 L49.104,33.744 C48.564,34.5 47.808,35.301 46.827,35.958 L46.206,35.49 C47.763,34.563 48.645,33.258 49.032,32.448 C49.131,32.295 49.257,31.971 49.311,31.737 L50.148,32.016 C49.995,32.25 49.833,32.547 49.743,32.718 C49.68,32.844 49.608,32.97 49.527,33.096 L51.975,33.096 C52.218,33.096 52.416,33.069 52.56,33.015 Z M61.218,32.871 L61.803,33.231 C61.731,33.357 61.65,33.573 61.596,33.717 C61.371,34.509 60.912,35.508 60.282,36.39 C60.624,36.606 60.93,36.813 61.155,36.975 L60.66,37.623 C60.444,37.452 60.147,37.236 59.805,37.002 C58.995,37.929 57.861,38.811 56.277,39.396 L55.629,38.838 C57.195,38.361 58.365,37.497 59.184,36.597 C58.473,36.138 57.717,35.688 57.213,35.409 L57.672,34.878 C58.194,35.148 58.95,35.58 59.652,36.003 C60.201,35.238 60.642,34.311 60.813,33.6 L57.753,33.6 C57.177,34.401 56.376,35.283 55.368,35.967 L54.765,35.499 C56.313,34.545 57.249,33.195 57.654,32.376 C57.744,32.214 57.879,31.89 57.942,31.656 L58.752,31.917 C58.608,32.151 58.446,32.457 58.356,32.628 C58.302,32.736 58.239,32.844 58.167,32.961 L60.624,32.961 C60.867,32.961 61.065,32.934 61.218,32.871 Z M63.873,35.985 L63.873,35.103 C64.143,35.121 64.62,35.148 65.124,35.148 L70.056,35.148 C70.506,35.148 70.83,35.121 71.028,35.103 L71.028,35.985 C70.848,35.976 70.47,35.94 70.065,35.94 L65.124,35.94 C64.629,35.94 64.152,35.958 63.873,35.985 Z M80.307,34.284 L79.902,34.878 C79.425,34.473 78.462,33.924 77.868,33.654 L78.219,33.096 C78.867,33.384 79.884,33.96 80.307,34.284 Z M77.067,32.934 L77.085,33.6 C76.617,33.735 76.059,33.852 75.474,33.924 C75.033,35.184 74.241,36.732 73.53,37.695 L72.828,37.335 C73.575,36.471 74.331,35.049 74.736,34.005 C74.475,34.023 74.214,34.032 73.953,34.032 C73.62,34.032 73.251,34.023 72.918,34.005 L72.864,33.33 C73.197,33.375 73.575,33.393 73.962,33.393 C74.277,33.393 74.61,33.375 74.952,33.348 C75.087,32.853 75.213,32.286 75.231,31.809 L76.032,31.881 C75.942,32.205 75.825,32.745 75.681,33.258 C76.149,33.186 76.617,33.078 77.067,32.934 Z M77.535,37.911 C77.535,37.794 77.535,37.65 77.526,37.488 C77.247,37.407 76.941,37.362 76.626,37.362 C75.969,37.362 75.537,37.659 75.537,38.064 C75.537,38.478 75.87,38.757 76.563,38.757 C77.292,38.757 77.535,38.352 77.535,37.911 Z M77.409,34.635 L78.129,34.635 C78.102,35.004 78.111,35.265 78.12,35.598 C78.129,35.922 78.165,36.507 78.183,37.047 C78.948,37.326 79.569,37.767 80.028,38.163 L79.641,38.775 C79.263,38.433 78.786,38.037 78.21,37.758 C78.219,37.893 78.219,38.019 78.219,38.118 C78.219,38.829 77.751,39.414 76.653,39.414 C75.672,39.414 74.871,39.009 74.871,38.127 C74.871,37.308 75.645,36.777 76.653,36.777 C76.95,36.777 77.238,36.804 77.499,36.858 C77.472,36.129 77.427,35.256 77.409,34.635 Z M87.318,33.222 L87.678,33.879 C87.48,34.005 87.264,34.122 87.003,34.257 C86.4,34.572 85.41,35.031 84.537,35.607 C83.709,36.156 83.214,36.732 83.214,37.407 C83.214,38.145 83.916,38.604 85.32,38.604 C86.292,38.604 87.48,38.478 88.173,38.298 L88.164,39.108 C87.498,39.225 86.463,39.324 85.347,39.324 C83.682,39.324 82.458,38.82 82.458,37.488 C82.458,36.57 83.043,35.832 83.997,35.166 C83.592,34.437 83.124,33.393 82.71,32.439 L83.421,32.142 C83.772,33.123 84.222,34.077 84.609,34.779 C85.392,34.302 86.202,33.915 86.688,33.645 C86.949,33.492 87.138,33.375 87.318,33.222 Z M87.372,32.232 L87.858,32.025 C88.083,32.349 88.407,32.898 88.596,33.267 L88.11,33.483 C87.93,33.114 87.624,32.574 87.372,32.232 Z M88.371,31.872 L88.848,31.665 C89.091,31.998 89.433,32.556 89.604,32.889 L89.118,33.114 C88.929,32.718 88.632,32.205 88.371,31.872 Z M92.394,37.74 C92.79,37.74 93.285,37.146 93.744,35.643 C93.969,34.905 94.14,34.059 94.239,33.24 C92.529,33.456 91.485,34.923 91.485,36.12 C91.485,37.245 92.007,37.74 92.394,37.74 Z M94.743,39.234 L94.329,38.559 C94.608,38.541 94.878,38.496 95.094,38.451 C96.237,38.199 97.353,37.353 97.353,35.814 C97.353,34.464 96.498,33.357 94.986,33.231 C94.869,34.059 94.698,34.959 94.455,35.796 C93.906,37.623 93.195,38.568 92.367,38.568 C91.575,38.568 90.774,37.65 90.774,36.183 C90.774,34.248 92.502,32.556 94.68,32.556 C96.768,32.556 98.1,34.032 98.1,35.832 C98.1,37.704 96.867,38.955 94.743,39.234 Z M105.696,32.628 L106.155,32.979 C106.101,33.051 105.984,33.249 105.93,33.375 C105.624,34.149 105.057,35.202 104.418,36.012 C105.363,36.822 106.461,37.992 107.046,38.694 L106.416,39.243 C105.813,38.451 104.859,37.389 103.941,36.57 C102.978,37.605 101.763,38.595 100.431,39.198 L99.855,38.595 C101.304,38.028 102.636,36.957 103.563,35.922 C104.175,35.229 104.832,34.158 105.057,33.42 L101.547,33.42 C101.232,33.42 100.737,33.456 100.638,33.465 L100.638,32.646 C100.764,32.664 101.277,32.709 101.547,32.709 L105.021,32.709 C105.318,32.709 105.552,32.673 105.696,32.628 Z M115.218,32.871 L115.803,33.231 C115.731,33.357 115.65,33.573 115.596,33.717 C115.371,34.509 114.912,35.508 114.282,36.39 C114.624,36.606 114.93,36.813 115.155,36.975 L114.66,37.623 C114.444,37.452 114.147,37.236 113.805,37.002 C112.995,37.929 111.861,38.811 110.277,39.396 L109.629,38.838 C111.195,38.361 112.365,37.497 113.184,36.597 C112.473,36.138 111.717,35.688 111.213,35.409 L111.672,34.878 C112.194,35.148 112.95,35.58 113.652,36.003 C114.201,35.238 114.642,34.311 114.813,33.6 L111.753,33.6 C111.177,34.401 110.376,35.283 109.368,35.967 L108.765,35.499 C110.313,34.545 111.249,33.195 111.654,32.376 C111.744,32.214 111.879,31.89 111.942,31.656 L112.752,31.917 C112.608,32.151 112.446,32.457 112.356,32.628 C112.302,32.736 112.239,32.844 112.167,32.961 L114.624,32.961 C114.867,32.961 115.065,32.934 115.218,32.871 Z M118.998,32.403 C119.637,32.826 120.789,33.762 121.293,34.266 L120.726,34.833 C120.276,34.365 119.151,33.402 118.485,32.952 L118.998,32.403 Z M118.224,38.433 C119.799,38.199 120.969,37.65 121.824,37.119 C123.21,36.246 124.308,34.914 124.83,33.807 L125.262,34.572 C124.641,35.697 123.597,36.921 122.238,37.767 C121.338,38.343 120.204,38.892 118.701,39.171 L118.224,38.433 Z M133.524,33.132 C133.848,33.132 134.118,32.862 134.118,32.538 C134.118,32.214 133.848,31.935 133.524,31.935 C133.191,31.935 132.93,32.214 132.93,32.538 C132.93,32.862 133.191,33.132 133.524,33.132 Z M127.755,32.835 L132.264,32.835 C132.354,32.835 132.453,32.835 132.561,32.826 C132.534,32.736 132.516,32.637 132.516,32.538 C132.516,31.98 132.966,31.521 133.524,31.521 C134.082,31.521 134.532,31.98 134.532,32.538 C134.532,33.096 134.082,33.546 133.524,33.546 C133.407,33.546 133.29,33.528 133.182,33.492 L133.164,33.591 C132.966,34.536 132.534,35.985 131.823,36.912 C130.995,37.965 129.924,38.802 128.277,39.315 L127.665,38.64 C129.411,38.208 130.419,37.443 131.175,36.48 C131.814,35.661 132.228,34.41 132.354,33.546 L127.746,33.546 C127.395,33.546 127.08,33.564 126.855,33.573 L126.855,32.781 C127.098,32.808 127.458,32.835 127.755,32.835 Z M140.013,37.785 L139.32,37.785 C139.347,37.443 139.356,36.867 139.356,36.399 C138.528,36.849 137.952,37.308 137.952,37.893 C137.952,38.595 138.645,38.694 139.563,38.694 C140.256,38.694 141.21,38.613 141.993,38.478 L141.975,39.207 C141.3,39.288 140.31,39.351 139.536,39.351 C138.258,39.351 137.232,39.081 137.232,37.992 C137.232,36.939 138.294,36.273 139.329,35.733 C139.239,35.364 138.915,35.184 138.528,35.184 C137.943,35.184 137.403,35.472 136.989,35.841 C136.737,36.084 136.485,36.417 136.179,36.777 L135.567,36.318 C136.701,35.22 137.286,34.302 137.619,33.6 L137.25,33.6 C136.872,33.6 136.269,33.582 135.783,33.546 L135.783,32.871 C136.26,32.925 136.881,32.961 137.286,32.961 C137.475,32.961 137.664,32.961 137.871,32.952 C137.997,32.556 138.078,32.151 138.096,31.845 L138.834,31.908 C138.771,32.16 138.69,32.529 138.564,32.934 C139.473,32.889 140.445,32.808 141.291,32.664 L141.282,33.33 C140.4,33.465 139.302,33.546 138.33,33.582 C138.132,34.041 137.853,34.536 137.529,34.95 C137.853,34.743 138.366,34.617 138.762,34.617 C139.338,34.617 139.806,34.896 139.941,35.427 C140.553,35.139 141.093,34.923 141.561,34.707 C141.831,34.59 142.047,34.482 142.299,34.356 L142.587,35.031 C142.362,35.094 142.038,35.22 141.804,35.31 C141.3,35.508 140.661,35.769 139.986,36.084 C139.995,36.597 140.004,37.353 140.013,37.785 Z M33.66,51.568 L38.457,51.568 L38.457,50.236 L33.66,50.236 L33.66,51.568 Z M38.457,48.301 L33.66,48.301 L33.66,49.606 L38.457,49.606 L38.457,48.301 Z M38.457,46.33 L33.66,46.33 L33.66,47.671 L38.457,47.671 L38.457,46.33 Z M35.919,45.691 L39.15,45.691 L39.15,52.657 L38.457,52.657 L38.457,52.198 L33.66,52.198 L33.66,52.702 L32.994,52.702 L32.994,45.691 L35.253,45.691 C35.388,45.295 35.532,44.809 35.604,44.458 L36.369,44.557 C36.234,44.944 36.072,45.349 35.919,45.691 Z M45.306,51.478 L47.781,51.478 L47.781,49.48 L45.306,49.48 L45.306,51.478 Z M42.219,49.48 L42.219,51.478 L44.64,51.478 L44.64,49.48 L42.219,49.48 Z M44.64,46.879 L42.219,46.879 L42.219,48.823 L44.64,48.823 L44.64,46.879 Z M47.781,46.879 L45.306,46.879 L45.306,48.823 L47.781,48.823 L47.781,46.879 Z M45.306,46.213 L48.456,46.213 L48.456,52.648 L47.781,52.648 L47.781,52.135 L42.219,52.135 L42.219,52.693 L41.553,52.693 L41.553,46.213 L44.64,46.213 L44.64,44.485 L45.306,44.485 L45.306,46.213 Z M51.111,45.187 L51.921,45.25 C51.867,45.403 51.786,45.691 51.75,45.853 C51.579,46.672 51.318,48.265 51.318,49.264 C51.318,49.696 51.336,50.056 51.39,50.488 C51.543,50.083 51.741,49.561 51.885,49.21 L52.272,49.498 C52.047,50.128 51.723,51.073 51.642,51.496 C51.615,51.622 51.597,51.793 51.597,51.892 L51.624,52.207 L50.976,52.252 C50.796,51.622 50.652,50.596 50.652,49.39 C50.652,48.076 50.94,46.546 51.048,45.817 C51.075,45.61 51.111,45.376 51.111,45.187 Z M53.307,49.507 L53.955,49.57 C53.874,49.894 53.838,50.146 53.838,50.389 C53.838,50.794 54.108,51.19 55.332,51.19 C56.133,51.19 56.817,51.118 57.537,50.956 L57.546,51.712 C56.997,51.82 56.25,51.892 55.323,51.892 C53.829,51.892 53.163,51.397 53.163,50.56 C53.163,50.236 53.226,49.885 53.307,49.507 Z M53.613,46.672 L53.604,45.934 C54.576,46.096 56.376,46.06 57.267,45.934 L57.267,46.672 C56.313,46.771 54.585,46.771 53.613,46.672 Z M61.578,46.51 L61.578,45.376 L59.913,45.376 L59.913,46.51 L61.578,46.51 Z M61.578,48.184 L61.578,47.041 L59.913,47.041 L59.913,48.184 L61.578,48.184 Z M61.578,49.885 L61.578,48.715 L59.913,48.715 L59.913,49.885 L61.578,49.885 Z M62.217,44.818 L62.217,50.425 L59.301,50.425 L59.301,44.818 L62.217,44.818 Z M59.85,50.623 L60.489,50.776 C60.228,51.496 59.805,52.216 59.364,52.693 C59.247,52.585 58.986,52.396 58.833,52.306 C59.265,51.883 59.652,51.262 59.85,50.623 Z M61.065,50.848 L61.596,50.605 C61.947,51.046 62.325,51.631 62.487,52.018 L61.92,52.306 C61.767,51.91 61.407,51.298 61.065,50.848 Z M66.033,51.658 L66.033,49.363 L63.45,49.363 L63.45,51.658 L66.033,51.658 Z M67.113,47.041 L64.944,47.041 L64.944,48.769 L66.681,48.769 L66.681,52.648 L66.033,52.648 L66.033,52.261 L63.45,52.261 L63.45,52.684 L62.82,52.684 L62.82,48.769 L64.287,48.769 L64.287,44.476 L64.944,44.476 L64.944,46.429 L67.113,46.429 L67.113,47.041 Z M69.777,44.899 L70.569,44.926 C70.38,45.583 70.209,46.78 70.155,47.401 C70.506,46.483 71.442,45.376 72.567,45.376 C73.755,45.376 74.61,46.564 74.61,48.436 C74.61,50.911 73.053,52 70.839,52.405 L70.416,51.757 C72.351,51.46 73.863,50.686 73.863,48.445 C73.863,47.041 73.395,46.033 72.45,46.033 C71.343,46.033 70.317,47.644 70.209,48.814 C70.164,49.156 70.164,49.462 70.227,49.903 L69.525,49.957 C69.48,49.624 69.435,49.12 69.435,48.544 C69.435,47.698 69.597,46.384 69.705,45.664 C69.741,45.385 69.768,45.115 69.777,44.899 Z M77.193,47.302 C77.517,47.239 77.841,47.14 78.174,47.041 C78.93,46.807 80.676,46.159 81.981,46.159 C83.457,46.159 84.636,47.014 84.636,48.508 C84.636,50.65 82.512,51.685 79.758,51.838 L79.443,51.091 C81.774,51.028 83.844,50.326 83.844,48.499 C83.844,47.563 83.169,46.834 81.963,46.834 C80.496,46.834 78.228,47.815 77.526,48.094 L77.193,47.302 Z M86.985,45.061 L87.831,45.142 C87.777,45.304 87.714,45.547 87.669,45.718 C87.39,47.014 87.093,48.949 87.417,50.407 C87.543,50.029 87.723,49.498 87.885,49.057 L88.281,49.3 C88.065,49.921 87.795,50.821 87.705,51.262 C87.678,51.397 87.66,51.559 87.66,51.658 L87.687,51.964 L87.075,52.036 C86.895,51.496 86.607,50.335 86.607,49.21 C86.607,47.77 86.832,46.393 86.94,45.655 C86.976,45.448 86.985,45.214 86.985,45.061 Z M93.762,46.663 L93.762,47.401 C93.357,47.473 92.853,47.527 92.322,47.563 L92.322,47.869 C92.322,49.921 92.322,51.37 90.432,52.486 L89.775,51.964 C90.054,51.847 90.423,51.631 90.648,51.406 C91.602,50.578 91.647,49.579 91.647,47.86 L91.647,47.599 C91.269,47.617 90.882,47.626 90.513,47.626 C90.09,47.626 89.46,47.599 89.073,47.563 L89.073,46.843 C89.46,46.906 90.027,46.942 90.504,46.942 C90.873,46.942 91.251,46.933 91.629,46.915 C91.611,46.357 91.593,45.763 91.575,45.538 C91.557,45.34 91.521,45.142 91.494,45.007 L92.331,45.007 C92.313,45.16 92.313,45.331 92.304,45.529 C92.295,45.727 92.304,46.312 92.313,46.87 C92.835,46.825 93.339,46.762 93.762,46.663 Z M99.009,50.956 C99.009,50.803 99,50.596 99,50.353 C98.721,50.299 98.433,50.272 98.136,50.272 C97.29,50.272 96.831,50.596 96.831,51.001 C96.831,51.415 97.182,51.721 98.064,51.721 C98.577,51.721 99.009,51.568 99.009,50.956 Z M102.258,51.262 L101.853,51.892 C101.331,51.415 100.593,50.875 99.702,50.551 C99.711,50.776 99.72,50.974 99.72,51.109 C99.72,51.721 99.306,52.36 98.145,52.36 C96.867,52.36 96.156,51.901 96.156,51.037 C96.156,50.227 96.939,49.678 98.226,49.678 C98.487,49.678 98.73,49.696 98.973,49.732 C98.955,49.336 98.937,48.913 98.928,48.544 L98.433,48.544 C97.821,48.544 96.831,48.49 96.192,48.418 L96.192,47.734 C96.795,47.842 97.848,47.905 98.433,47.905 L98.91,47.905 L98.91,46.627 L98.469,46.627 C97.848,46.627 96.903,46.555 96.372,46.492 L96.372,45.826 C96.912,45.925 97.866,45.997 98.46,45.997 L98.919,45.997 L98.919,45.412 C98.919,45.268 98.91,45.007 98.892,44.881 L99.657,44.881 C99.63,45.043 99.621,45.214 99.612,45.475 C99.603,45.583 99.603,45.754 99.603,45.97 C100.377,45.943 101.106,45.871 101.889,45.754 L101.898,46.411 C101.196,46.483 100.431,46.555 99.594,46.6 L99.594,47.878 C100.449,47.842 101.268,47.761 102.069,47.644 L102.078,48.319 C101.241,48.427 100.449,48.49 99.603,48.526 C99.621,48.985 99.648,49.453 99.666,49.876 C100.845,50.2 101.754,50.857 102.258,51.262 Z M107.82,49.894 C108.342,49.894 108.684,49.471 108.603,48.625 C108.459,48.238 108.162,48.076 107.811,48.076 C107.352,48.076 106.911,48.436 106.911,49.012 C106.911,49.57 107.325,49.894 107.82,49.894 Z M109.197,46.672 L109.08,46.672 C109.08,47.176 109.089,47.725 109.098,48.13 C109.287,48.436 109.386,48.832 109.386,49.273 C109.386,50.479 108.801,51.82 106.731,52.441 L106.11,51.838 C107.28,51.568 108.108,51.082 108.477,50.29 C108.261,50.443 108.009,50.515 107.712,50.515 C106.956,50.515 106.236,49.984 106.236,49.021 C106.236,48.139 106.965,47.464 107.811,47.464 C108.027,47.464 108.225,47.5 108.405,47.563 C108.405,47.302 108.405,46.987 108.396,46.681 C107.046,46.69 105.534,46.753 104.418,46.834 L104.4,46.132 C105.39,46.114 107.064,46.06 108.387,46.042 C108.387,45.79 108.378,45.583 108.369,45.457 C108.36,45.268 108.333,45.007 108.315,44.899 L109.134,44.899 L109.089,45.457 C109.089,45.592 109.08,45.799 109.08,46.033 L109.215,46.033 C110.295,46.033 111.393,46.042 111.825,46.042 L111.816,46.717 C111.312,46.69 110.502,46.672 109.197,46.672 Z" id="人気キャラクターなどのスタンプを自由に貼りつけます"></path>
                            <path d="M46.3625,12.971 C46.3625,13.379002 46.4361659,13.7246653 46.5835,14.008 C46.7308341,14.2913348 46.9263321,14.5208325 47.17,14.6965 C47.4136679,14.8721675 47.6998317,15.0024996 48.0285,15.0875 C48.3571683,15.1725004 48.6971649,15.215 49.0485,15.215 C49.2865012,15.215 49.5414986,15.1951669 49.8135,15.1555 C50.0855014,15.1158331 50.3404988,15.0393339 50.5785,14.926 C50.8165012,14.8126661 51.0148325,14.6568343 51.1735,14.4585 C51.3321675,14.2601657 51.4115,14.0080015 51.4115,13.702 C51.4115,13.3733317 51.3066677,13.107001 51.097,12.903 C50.8873323,12.698999 50.6125017,12.5290007 50.2725,12.393 C49.9324983,12.2569993 49.5471688,12.1380005 49.1165,12.036 C48.6858312,11.9339995 48.2495022,11.8206673 47.8075,11.696 C47.3541644,11.5826661 46.9121688,11.4438342 46.4815,11.2795 C46.0508312,11.1151658 45.6655017,10.902668 45.3255,10.642 C44.9854983,10.381332 44.7106677,10.055502 44.501,9.6645 C44.2913323,9.27349805 44.1865,8.80033611 44.1865,8.245 C44.1865,7.62166355 44.3196653,7.08050229 44.586,6.6215 C44.8523347,6.1624977 45.2008312,5.78000153 45.6315,5.474 C46.0621688,5.16799847 46.5494973,4.94133407 47.0935,4.794 C47.6375027,4.64666593 48.1814973,4.573 48.7255,4.573 C49.3601698,4.573 49.9693304,4.64383262 50.553,4.7855 C51.1366696,4.92716737 51.6551644,5.15666508 52.1085,5.474 C52.5618356,5.79133492 52.9216653,6.19649753 53.188,6.6895 C53.4543347,7.18250246 53.5875,7.78032982 53.5875,8.483 L51.0035,8.483 C50.9808332,8.12033152 50.904334,7.82000119 50.774,7.582 C50.643666,7.34399881 50.4708344,7.15700068 50.2555,7.021 C50.0401656,6.88499932 49.7936681,6.78866695 49.516,6.732 C49.2383319,6.67533305 48.9351683,6.647 48.6065,6.647 C48.3911656,6.647 48.1758344,6.66966644 47.9605,6.715 C47.7451656,6.76033356 47.5496675,6.8396661 47.374,6.953 C47.1983325,7.0663339 47.0538339,7.20799915 46.9405,7.378 C46.8271661,7.54800085 46.7705,7.76333203 46.7705,8.024 C46.7705,8.26200119 46.8158329,8.45466593 46.9065,8.602 C46.9971671,8.74933407 47.1756653,8.88533271 47.442,9.01 C47.7083347,9.13466729 48.0766643,9.25933271 48.547,9.384 C49.0173357,9.50866729 49.6321629,9.66733237 50.3915,9.86 C50.6181678,9.90533356 50.9326647,9.98749941 51.335,10.1065 C51.7373353,10.2255006 52.1368314,10.415332 52.5335,10.676 C52.9301686,10.936668 53.2729986,11.2851645 53.562,11.7215 C53.8510014,12.1578355 53.9955,12.7159966 53.9955,13.396 C53.9955,13.9513361 53.8878344,14.4669976 53.6725,14.943 C53.4571656,15.4190024 53.1370021,15.8298316 52.712,16.1755 C52.2869979,16.5211684 51.7600031,16.7903324 51.131,16.983 C50.5019969,17.1756676 49.7738375,17.272 48.9465,17.272 C48.27783,17.272 47.6290031,17.1898342 47,17.0255 C46.3709969,16.8611658 45.8156691,16.6033351 45.334,16.252 C44.8523309,15.9006649 44.4698347,15.4530027 44.1865,14.909 C43.9031653,14.3649973 43.7671666,13.7190037 43.7785,12.971 L46.3625,12.971 Z M58.2625,7.106 L54.6245,7.106 L54.6245,4.862 L64.5695,4.862 L64.5695,7.106 L60.9315,7.106 L60.9315,17 L58.2625,17 L58.2625,7.106 Z M67.4595,12.308 L70.6045,12.308 L69.0745,7.854 L69.0405,7.854 L67.4595,12.308 Z M67.7145,4.862 L70.4515,4.862 L74.9905,17 L72.2195,17 L71.3015,14.297 L66.7625,14.297 L65.8105,17 L63.1245,17 L67.7145,4.862 Z M76.0445,4.862 L79.8015,4.862 L82.6405,13.209 L82.6745,13.209 L85.3605,4.862 L89.1175,4.862 L89.1175,17 L86.6185,17 L86.6185,8.398 L86.5845,8.398 L83.6095,17 L81.5525,17 L78.5775,8.483 L78.5435,8.483 L78.5435,17 L76.0445,17 L76.0445,4.862 Z M94.1325,10.574 L96.2065,10.574 C96.5125015,10.574 96.8071653,10.5513336 97.0905,10.506 C97.3738348,10.4606664 97.6231656,10.372834 97.8385,10.2425 C98.0538344,10.112166 98.226666,9.92800119 98.357,9.69 C98.487334,9.45199881 98.5525,9.14033526 98.5525,8.755 C98.5525,8.36966474 98.487334,8.05800119 98.357,7.82 C98.226666,7.58199881 98.0538344,7.39783399 97.8385,7.2675 C97.6231656,7.13716602 97.3738348,7.04933356 97.0905,7.004 C96.8071653,6.95866644 96.5125015,6.936 96.2065,6.936 L94.1325,6.936 L94.1325,10.574 Z M91.4635,4.862 L96.9375,4.862 C97.6968371,4.862 98.3428307,4.97249889 98.8755,5.1935 C99.4081693,5.4145011 99.841665,5.70633152 100.176,6.069 C100.510335,6.43166848 100.753999,6.84533101 100.907,7.31 C101.060001,7.77466899 101.1365,8.25633084 101.1365,8.755 C101.1365,9.24233577 101.060001,9.72116431 100.907,10.1915 C100.753999,10.6618357 100.510335,11.0783315 100.176,11.441 C99.841665,11.8036685 99.4081693,12.0954989 98.8755,12.3165 C98.3428307,12.5375011 97.6968371,12.648 96.9375,12.648 L94.1325,12.648 L94.1325,17 L91.4635,17 L91.4635,4.862 Z" id="STAMP"></path>
                        </g>
                    </g>
                </g>
            </g>
        </g>
    </g>
</svg>