<?xml version="1.0" encoding="UTF-8"?>
<svg width="170px" height="58px" viewBox="0 0 170 58" version="1.1" xmlns="http://www.w3.org/2000/svg" xmlns:xlink="http://www.w3.org/1999/xlink">
    <!-- Generator: Sketch 55.2 (78181) - https://sketchapp.com -->
    <title>Stamp_Text_Normal</title>
    <desc>Created with Sketch.</desc>
    <g id="Make" stroke="none" stroke-width="1" fill="none" fill-rule="evenodd">
        <g id="C-01&gt;Make-Graphic&gt;JP复制备份" transform="translate(-193.000000, -541.000000)">
            <g id="Content" transform="translate(12.000000, 64.000000)">
                <g id="04_STAMP" transform="translate(181.000000, 283.000000)">
                    <g id="Stamp_Text_Normal" transform="translate(0.000000, 170.000000)">
                        <g transform="translate(0.000000, 24.000000)">
                            <g>
                                <rect id="矩形" fill-opacity="0.01" fill="#FFFFFF" x="0" y="0" width="170" height="58"></rect>
                                <path d="M17.356,31.746 L18.094,31.746 C18.085,31.863 18.085,32.007 18.076,32.16 C18.157,33.348 18.643,37.506 22.027,39.054 C21.838,39.198 21.631,39.423 21.532,39.603 C19.21,38.505 18.22,36.201 17.788,34.401 C17.392,36.201 16.465,38.37 14.188,39.603 C14.071,39.441 13.855,39.234 13.648,39.09 C17.293,37.227 17.293,32.934 17.356,31.746 Z M30.622,32.988 L24.754,32.988 C24.349,33.798 23.845,34.5 23.296,35.013 C23.161,34.896 22.864,34.689 22.684,34.581 C23.557,33.861 24.25,32.709 24.619,31.449 L25.312,31.611 C25.222,31.89 25.123,32.16 25.015,32.421 L30.622,32.421 L30.622,32.988 Z M29.767,34.257 L24.601,34.257 L24.601,33.699 L29.767,33.699 L29.767,34.257 Z M27.022,35.706 L27.652,35.922 C27.328,36.489 26.941,37.011 26.509,37.488 C27.157,37.956 27.733,38.442 28.12,38.856 L27.589,39.36 C27.229,38.946 26.671,38.46 26.023,37.974 C25.249,38.703 24.358,39.306 23.422,39.756 C23.323,39.621 23.071,39.36 22.927,39.243 C23.872,38.838 24.754,38.28 25.501,37.596 C24.943,37.2 24.349,36.822 23.791,36.507 L24.268,36.066 C24.817,36.372 25.411,36.732 25.987,37.119 C26.392,36.687 26.743,36.21 27.022,35.706 Z M23.575,34.977 L29.389,34.977 C29.398,37.299 29.524,39.036 30.199,39.036 C30.379,39.036 30.424,38.523 30.442,37.767 C30.568,37.902 30.766,38.064 30.91,38.154 C30.847,39.279 30.703,39.684 30.154,39.693 C28.966,39.684 28.777,38.01 28.723,35.553 L23.575,35.553 L23.575,34.977 Z M39.244,35.4 L39.397,36.156 C39.208,36.174 38.92,36.219 38.587,36.273 C38.092,36.354 37.255,36.489 36.373,36.624 C36.553,37.506 36.697,38.226 36.742,38.433 C36.805,38.694 36.877,39 36.958,39.252 L36.139,39.405 C36.094,39.099 36.067,38.829 36.004,38.559 C35.968,38.361 35.824,37.632 35.653,36.741 C34.636,36.912 33.673,37.074 33.232,37.155 C32.881,37.209 32.638,37.263 32.44,37.317 L32.278,36.534 C32.485,36.525 32.836,36.489 33.07,36.453 C33.52,36.39 34.501,36.237 35.527,36.075 L35.167,34.266 C34.312,34.401 33.529,34.527 33.187,34.59 C32.899,34.635 32.656,34.689 32.458,34.743 L32.305,33.933 C32.53,33.924 32.764,33.906 33.052,33.87 C33.403,33.834 34.186,33.717 35.032,33.582 C34.933,33.096 34.87,32.745 34.843,32.637 C34.798,32.403 34.735,32.205 34.672,32.025 L35.482,31.881 C35.491,32.052 35.536,32.304 35.563,32.502 C35.581,32.601 35.644,32.97 35.752,33.474 C36.625,33.33 37.453,33.195 37.831,33.123 C38.092,33.078 38.317,33.015 38.47,32.97 L38.623,33.726 C38.488,33.744 38.209,33.78 37.975,33.816 C37.561,33.879 36.742,34.014 35.878,34.149 L36.238,35.958 C37.156,35.805 38.011,35.661 38.461,35.58 C38.803,35.508 39.055,35.454 39.244,35.4 Z M47.65,34.41 L48.1,34.725 C47.722,35.49 46.795,36.75 46.183,37.353 L45.544,37.038 C46.102,36.552 46.786,35.724 47.092,35.184 C46.885,35.22 45.607,35.472 44.365,35.724 C44.725,37.02 45.166,38.613 45.283,39 C45.337,39.171 45.427,39.45 45.481,39.612 L44.716,39.81 C44.689,39.612 44.644,39.378 44.581,39.162 C44.464,38.757 44.032,37.155 43.681,35.868 C42.835,36.039 42.097,36.183 41.854,36.237 L41.674,35.553 C41.926,35.535 42.151,35.499 42.421,35.454 C42.547,35.436 42.97,35.355 43.519,35.256 C43.384,34.779 43.276,34.392 43.222,34.221 C43.159,33.996 43.087,33.816 43.015,33.681 L43.78,33.492 C43.807,33.645 43.852,33.843 43.906,34.068 L44.194,35.13 C45.472,34.887 47.002,34.59 47.308,34.518 C47.416,34.491 47.56,34.455 47.65,34.41 Z M56.704,34.347 L57.217,34.671 C57.172,34.752 57.118,34.869 57.1,34.932 C56.857,35.823 56.452,36.759 55.786,37.488 C54.841,38.523 53.707,39.054 52.564,39.369 L52.006,38.73 C53.284,38.469 54.409,37.884 55.174,37.083 C55.723,36.507 56.083,35.742 56.245,35.094 L51.466,35.094 C51.25,35.094 50.908,35.103 50.593,35.121 L50.593,34.365 C50.917,34.401 51.223,34.419 51.466,34.419 L56.209,34.419 C56.416,34.419 56.605,34.401 56.704,34.347 Z M51.394,33.042 L51.394,32.295 C51.628,32.331 51.916,32.34 52.204,32.34 L55.741,32.34 C56.029,32.34 56.344,32.331 56.56,32.295 L56.56,33.042 C56.344,33.024 56.038,33.015 55.732,33.015 L52.204,33.015 C51.925,33.015 51.637,33.024 51.394,33.042 Z M65.56,33.015 L66.163,33.375 C66.091,33.501 66.001,33.708 65.947,33.852 C65.704,34.752 65.155,35.976 64.354,36.948 C63.535,37.947 62.464,38.775 60.772,39.396 L60.124,38.811 C61.771,38.325 62.896,37.506 63.715,36.552 C64.417,35.724 64.966,34.563 65.146,33.744 L62.104,33.744 C61.564,34.5 60.808,35.301 59.827,35.958 L59.206,35.49 C60.763,34.563 61.645,33.258 62.032,32.448 C62.131,32.295 62.257,31.971 62.311,31.737 L63.148,32.016 C62.995,32.25 62.833,32.547 62.743,32.718 C62.68,32.844 62.608,32.97 62.527,33.096 L64.975,33.096 C65.218,33.096 65.416,33.069 65.56,33.015 Z M74.218,32.871 L74.803,33.231 C74.731,33.357 74.65,33.573 74.596,33.717 C74.371,34.509 73.912,35.508 73.282,36.39 C73.624,36.606 73.93,36.813 74.155,36.975 L73.66,37.623 C73.444,37.452 73.147,37.236 72.805,37.002 C71.995,37.929 70.861,38.811 69.277,39.396 L68.629,38.838 C70.195,38.361 71.365,37.497 72.184,36.597 C71.473,36.138 70.717,35.688 70.213,35.409 L70.672,34.878 C71.194,35.148 71.95,35.58 72.652,36.003 C73.201,35.238 73.642,34.311 73.813,33.6 L70.753,33.6 C70.177,34.401 69.376,35.283 68.368,35.967 L67.765,35.499 C69.313,34.545 70.249,33.195 70.654,32.376 C70.744,32.214 70.879,31.89 70.942,31.656 L71.752,31.917 C71.608,32.151 71.446,32.457 71.356,32.628 C71.302,32.736 71.239,32.844 71.167,32.961 L73.624,32.961 C73.867,32.961 74.065,32.934 74.218,32.871 Z M76.873,35.985 L76.873,35.103 C77.143,35.121 77.62,35.148 78.124,35.148 L83.056,35.148 C83.506,35.148 83.83,35.121 84.028,35.103 L84.028,35.985 C83.848,35.976 83.47,35.94 83.065,35.94 L78.124,35.94 C77.629,35.94 77.152,35.958 76.873,35.985 Z M93.307,34.284 L92.902,34.878 C92.425,34.473 91.462,33.924 90.868,33.654 L91.219,33.096 C91.867,33.384 92.884,33.96 93.307,34.284 Z M90.067,32.934 L90.085,33.6 C89.617,33.735 89.059,33.852 88.474,33.924 C88.033,35.184 87.241,36.732 86.53,37.695 L85.828,37.335 C86.575,36.471 87.331,35.049 87.736,34.005 C87.475,34.023 87.214,34.032 86.953,34.032 C86.62,34.032 86.251,34.023 85.918,34.005 L85.864,33.33 C86.197,33.375 86.575,33.393 86.962,33.393 C87.277,33.393 87.61,33.375 87.952,33.348 C88.087,32.853 88.213,32.286 88.231,31.809 L89.032,31.881 C88.942,32.205 88.825,32.745 88.681,33.258 C89.149,33.186 89.617,33.078 90.067,32.934 Z M90.535,37.911 C90.535,37.794 90.535,37.65 90.526,37.488 C90.247,37.407 89.941,37.362 89.626,37.362 C88.969,37.362 88.537,37.659 88.537,38.064 C88.537,38.478 88.87,38.757 89.563,38.757 C90.292,38.757 90.535,38.352 90.535,37.911 Z M90.409,34.635 L91.129,34.635 C91.102,35.004 91.111,35.265 91.12,35.598 C91.129,35.922 91.165,36.507 91.183,37.047 C91.948,37.326 92.569,37.767 93.028,38.163 L92.641,38.775 C92.263,38.433 91.786,38.037 91.21,37.758 C91.219,37.893 91.219,38.019 91.219,38.118 C91.219,38.829 90.751,39.414 89.653,39.414 C88.672,39.414 87.871,39.009 87.871,38.127 C87.871,37.308 88.645,36.777 89.653,36.777 C89.95,36.777 90.238,36.804 90.499,36.858 C90.472,36.129 90.427,35.256 90.409,34.635 Z M100.318,33.222 L100.678,33.879 C100.48,34.005 100.264,34.122 100.003,34.257 C99.4,34.572 98.41,35.031 97.537,35.607 C96.709,36.156 96.214,36.732 96.214,37.407 C96.214,38.145 96.916,38.604 98.32,38.604 C99.292,38.604 100.48,38.478 101.173,38.298 L101.164,39.108 C100.498,39.225 99.463,39.324 98.347,39.324 C96.682,39.324 95.458,38.82 95.458,37.488 C95.458,36.57 96.043,35.832 96.997,35.166 C96.592,34.437 96.124,33.393 95.71,32.439 L96.421,32.142 C96.772,33.123 97.222,34.077 97.609,34.779 C98.392,34.302 99.202,33.915 99.688,33.645 C99.949,33.492 100.138,33.375 100.318,33.222 Z M100.372,32.232 L100.858,32.025 C101.083,32.349 101.407,32.898 101.596,33.267 L101.11,33.483 C100.93,33.114 100.624,32.574 100.372,32.232 Z M101.371,31.872 L101.848,31.665 C102.091,31.998 102.433,32.556 102.604,32.889 L102.118,33.114 C101.929,32.718 101.632,32.205 101.371,31.872 Z M105.394,37.74 C105.79,37.74 106.285,37.146 106.744,35.643 C106.969,34.905 107.14,34.059 107.239,33.24 C105.529,33.456 104.485,34.923 104.485,36.12 C104.485,37.245 105.007,37.74 105.394,37.74 Z M107.743,39.234 L107.329,38.559 C107.608,38.541 107.878,38.496 108.094,38.451 C109.237,38.199 110.353,37.353 110.353,35.814 C110.353,34.464 109.498,33.357 107.986,33.231 C107.869,34.059 107.698,34.959 107.455,35.796 C106.906,37.623 106.195,38.568 105.367,38.568 C104.575,38.568 103.774,37.65 103.774,36.183 C103.774,34.248 105.502,32.556 107.68,32.556 C109.768,32.556 111.1,34.032 111.1,35.832 C111.1,37.704 109.867,38.955 107.743,39.234 Z M118.696,32.628 L119.155,32.979 C119.101,33.051 118.984,33.249 118.93,33.375 C118.624,34.149 118.057,35.202 117.418,36.012 C118.363,36.822 119.461,37.992 120.046,38.694 L119.416,39.243 C118.813,38.451 117.859,37.389 116.941,36.57 C115.978,37.605 114.763,38.595 113.431,39.198 L112.855,38.595 C114.304,38.028 115.636,36.957 116.563,35.922 C117.175,35.229 117.832,34.158 118.057,33.42 L114.547,33.42 C114.232,33.42 113.737,33.456 113.638,33.465 L113.638,32.646 C113.764,32.664 114.277,32.709 114.547,32.709 L118.021,32.709 C118.318,32.709 118.552,32.673 118.696,32.628 Z M128.218,32.871 L128.803,33.231 C128.731,33.357 128.65,33.573 128.596,33.717 C128.371,34.509 127.912,35.508 127.282,36.39 C127.624,36.606 127.93,36.813 128.155,36.975 L127.66,37.623 C127.444,37.452 127.147,37.236 126.805,37.002 C125.995,37.929 124.861,38.811 123.277,39.396 L122.629,38.838 C124.195,38.361 125.365,37.497 126.184,36.597 C125.473,36.138 124.717,35.688 124.213,35.409 L124.672,34.878 C125.194,35.148 125.95,35.58 126.652,36.003 C127.201,35.238 127.642,34.311 127.813,33.6 L124.753,33.6 C124.177,34.401 123.376,35.283 122.368,35.967 L121.765,35.499 C123.313,34.545 124.249,33.195 124.654,32.376 C124.744,32.214 124.879,31.89 124.942,31.656 L125.752,31.917 C125.608,32.151 125.446,32.457 125.356,32.628 C125.302,32.736 125.239,32.844 125.167,32.961 L127.624,32.961 C127.867,32.961 128.065,32.934 128.218,32.871 Z M131.998,32.403 C132.637,32.826 133.789,33.762 134.293,34.266 L133.726,34.833 C133.276,34.365 132.151,33.402 131.485,32.952 L131.998,32.403 Z M131.224,38.433 C132.799,38.199 133.969,37.65 134.824,37.119 C136.21,36.246 137.308,34.914 137.83,33.807 L138.262,34.572 C137.641,35.697 136.597,36.921 135.238,37.767 C134.338,38.343 133.204,38.892 131.701,39.171 L131.224,38.433 Z M146.524,33.132 C146.848,33.132 147.118,32.862 147.118,32.538 C147.118,32.214 146.848,31.935 146.524,31.935 C146.191,31.935 145.93,32.214 145.93,32.538 C145.93,32.862 146.191,33.132 146.524,33.132 Z M140.755,32.835 L145.264,32.835 C145.354,32.835 145.453,32.835 145.561,32.826 C145.534,32.736 145.516,32.637 145.516,32.538 C145.516,31.98 145.966,31.521 146.524,31.521 C147.082,31.521 147.532,31.98 147.532,32.538 C147.532,33.096 147.082,33.546 146.524,33.546 C146.407,33.546 146.29,33.528 146.182,33.492 L146.164,33.591 C145.966,34.536 145.534,35.985 144.823,36.912 C143.995,37.965 142.924,38.802 141.277,39.315 L140.665,38.64 C142.411,38.208 143.419,37.443 144.175,36.48 C144.814,35.661 145.228,34.41 145.354,33.546 L140.746,33.546 C140.395,33.546 140.08,33.564 139.855,33.573 L139.855,32.781 C140.098,32.808 140.458,32.835 140.755,32.835 Z M153.013,37.785 L152.32,37.785 C152.347,37.443 152.356,36.867 152.356,36.399 C151.528,36.849 150.952,37.308 150.952,37.893 C150.952,38.595 151.645,38.694 152.563,38.694 C153.256,38.694 154.21,38.613 154.993,38.478 L154.975,39.207 C154.3,39.288 153.31,39.351 152.536,39.351 C151.258,39.351 150.232,39.081 150.232,37.992 C150.232,36.939 151.294,36.273 152.329,35.733 C152.239,35.364 151.915,35.184 151.528,35.184 C150.943,35.184 150.403,35.472 149.989,35.841 C149.737,36.084 149.485,36.417 149.179,36.777 L148.567,36.318 C149.701,35.22 150.286,34.302 150.619,33.6 L150.25,33.6 C149.872,33.6 149.269,33.582 148.783,33.546 L148.783,32.871 C149.26,32.925 149.881,32.961 150.286,32.961 C150.475,32.961 150.664,32.961 150.871,32.952 C150.997,32.556 151.078,32.151 151.096,31.845 L151.834,31.908 C151.771,32.16 151.69,32.529 151.564,32.934 C152.473,32.889 153.445,32.808 154.291,32.664 L154.282,33.33 C153.4,33.465 152.302,33.546 151.33,33.582 C151.132,34.041 150.853,34.536 150.529,34.95 C150.853,34.743 151.366,34.617 151.762,34.617 C152.338,34.617 152.806,34.896 152.941,35.427 C153.553,35.139 154.093,34.923 154.561,34.707 C154.831,34.59 155.047,34.482 155.299,34.356 L155.587,35.031 C155.362,35.094 155.038,35.22 154.804,35.31 C154.3,35.508 153.661,35.769 152.986,36.084 C152.995,36.597 153.004,37.353 153.013,37.785 Z M46.66,51.568 L51.457,51.568 L51.457,50.236 L46.66,50.236 L46.66,51.568 Z M51.457,48.301 L46.66,48.301 L46.66,49.606 L51.457,49.606 L51.457,48.301 Z M51.457,46.33 L46.66,46.33 L46.66,47.671 L51.457,47.671 L51.457,46.33 Z M48.919,45.691 L52.15,45.691 L52.15,52.657 L51.457,52.657 L51.457,52.198 L46.66,52.198 L46.66,52.702 L45.994,52.702 L45.994,45.691 L48.253,45.691 C48.388,45.295 48.532,44.809 48.604,44.458 L49.369,44.557 C49.234,44.944 49.072,45.349 48.919,45.691 Z M58.306,51.478 L60.781,51.478 L60.781,49.48 L58.306,49.48 L58.306,51.478 Z M55.219,49.48 L55.219,51.478 L57.64,51.478 L57.64,49.48 L55.219,49.48 Z M57.64,46.879 L55.219,46.879 L55.219,48.823 L57.64,48.823 L57.64,46.879 Z M60.781,46.879 L58.306,46.879 L58.306,48.823 L60.781,48.823 L60.781,46.879 Z M58.306,46.213 L61.456,46.213 L61.456,52.648 L60.781,52.648 L60.781,52.135 L55.219,52.135 L55.219,52.693 L54.553,52.693 L54.553,46.213 L57.64,46.213 L57.64,44.485 L58.306,44.485 L58.306,46.213 Z M64.111,45.187 L64.921,45.25 C64.867,45.403 64.786,45.691 64.75,45.853 C64.579,46.672 64.318,48.265 64.318,49.264 C64.318,49.696 64.336,50.056 64.39,50.488 C64.543,50.083 64.741,49.561 64.885,49.21 L65.272,49.498 C65.047,50.128 64.723,51.073 64.642,51.496 C64.615,51.622 64.597,51.793 64.597,51.892 L64.624,52.207 L63.976,52.252 C63.796,51.622 63.652,50.596 63.652,49.39 C63.652,48.076 63.94,46.546 64.048,45.817 C64.075,45.61 64.111,45.376 64.111,45.187 Z M66.307,49.507 L66.955,49.57 C66.874,49.894 66.838,50.146 66.838,50.389 C66.838,50.794 67.108,51.19 68.332,51.19 C69.133,51.19 69.817,51.118 70.537,50.956 L70.546,51.712 C69.997,51.82 69.25,51.892 68.323,51.892 C66.829,51.892 66.163,51.397 66.163,50.56 C66.163,50.236 66.226,49.885 66.307,49.507 Z M66.613,46.672 L66.604,45.934 C67.576,46.096 69.376,46.06 70.267,45.934 L70.267,46.672 C69.313,46.771 67.585,46.771 66.613,46.672 Z M74.578,46.51 L74.578,45.376 L72.913,45.376 L72.913,46.51 L74.578,46.51 Z M74.578,48.184 L74.578,47.041 L72.913,47.041 L72.913,48.184 L74.578,48.184 Z M74.578,49.885 L74.578,48.715 L72.913,48.715 L72.913,49.885 L74.578,49.885 Z M75.217,44.818 L75.217,50.425 L72.301,50.425 L72.301,44.818 L75.217,44.818 Z M72.85,50.623 L73.489,50.776 C73.228,51.496 72.805,52.216 72.364,52.693 C72.247,52.585 71.986,52.396 71.833,52.306 C72.265,51.883 72.652,51.262 72.85,50.623 Z M74.065,50.848 L74.596,50.605 C74.947,51.046 75.325,51.631 75.487,52.018 L74.92,52.306 C74.767,51.91 74.407,51.298 74.065,50.848 Z M79.033,51.658 L79.033,49.363 L76.45,49.363 L76.45,51.658 L79.033,51.658 Z M80.113,47.041 L77.944,47.041 L77.944,48.769 L79.681,48.769 L79.681,52.648 L79.033,52.648 L79.033,52.261 L76.45,52.261 L76.45,52.684 L75.82,52.684 L75.82,48.769 L77.287,48.769 L77.287,44.476 L77.944,44.476 L77.944,46.429 L80.113,46.429 L80.113,47.041 Z M82.777,44.899 L83.569,44.926 C83.38,45.583 83.209,46.78 83.155,47.401 C83.506,46.483 84.442,45.376 85.567,45.376 C86.755,45.376 87.61,46.564 87.61,48.436 C87.61,50.911 86.053,52 83.839,52.405 L83.416,51.757 C85.351,51.46 86.863,50.686 86.863,48.445 C86.863,47.041 86.395,46.033 85.45,46.033 C84.343,46.033 83.317,47.644 83.209,48.814 C83.164,49.156 83.164,49.462 83.227,49.903 L82.525,49.957 C82.48,49.624 82.435,49.12 82.435,48.544 C82.435,47.698 82.597,46.384 82.705,45.664 C82.741,45.385 82.768,45.115 82.777,44.899 Z M90.193,47.302 C90.517,47.239 90.841,47.14 91.174,47.041 C91.93,46.807 93.676,46.159 94.981,46.159 C96.457,46.159 97.636,47.014 97.636,48.508 C97.636,50.65 95.512,51.685 92.758,51.838 L92.443,51.091 C94.774,51.028 96.844,50.326 96.844,48.499 C96.844,47.563 96.169,46.834 94.963,46.834 C93.496,46.834 91.228,47.815 90.526,48.094 L90.193,47.302 Z M99.985,45.061 L100.831,45.142 C100.777,45.304 100.714,45.547 100.669,45.718 C100.39,47.014 100.093,48.949 100.417,50.407 C100.543,50.029 100.723,49.498 100.885,49.057 L101.281,49.3 C101.065,49.921 100.795,50.821 100.705,51.262 C100.678,51.397 100.66,51.559 100.66,51.658 L100.687,51.964 L100.075,52.036 C99.895,51.496 99.607,50.335 99.607,49.21 C99.607,47.77 99.832,46.393 99.94,45.655 C99.976,45.448 99.985,45.214 99.985,45.061 Z M106.762,46.663 L106.762,47.401 C106.357,47.473 105.853,47.527 105.322,47.563 L105.322,47.869 C105.322,49.921 105.322,51.37 103.432,52.486 L102.775,51.964 C103.054,51.847 103.423,51.631 103.648,51.406 C104.602,50.578 104.647,49.579 104.647,47.86 L104.647,47.599 C104.269,47.617 103.882,47.626 103.513,47.626 C103.09,47.626 102.46,47.599 102.073,47.563 L102.073,46.843 C102.46,46.906 103.027,46.942 103.504,46.942 C103.873,46.942 104.251,46.933 104.629,46.915 C104.611,46.357 104.593,45.763 104.575,45.538 C104.557,45.34 104.521,45.142 104.494,45.007 L105.331,45.007 C105.313,45.16 105.313,45.331 105.304,45.529 C105.295,45.727 105.304,46.312 105.313,46.87 C105.835,46.825 106.339,46.762 106.762,46.663 Z M112.009,50.956 C112.009,50.803 112,50.596 112,50.353 C111.721,50.299 111.433,50.272 111.136,50.272 C110.29,50.272 109.831,50.596 109.831,51.001 C109.831,51.415 110.182,51.721 111.064,51.721 C111.577,51.721 112.009,51.568 112.009,50.956 Z M115.258,51.262 L114.853,51.892 C114.331,51.415 113.593,50.875 112.702,50.551 C112.711,50.776 112.72,50.974 112.72,51.109 C112.72,51.721 112.306,52.36 111.145,52.36 C109.867,52.36 109.156,51.901 109.156,51.037 C109.156,50.227 109.939,49.678 111.226,49.678 C111.487,49.678 111.73,49.696 111.973,49.732 C111.955,49.336 111.937,48.913 111.928,48.544 L111.433,48.544 C110.821,48.544 109.831,48.49 109.192,48.418 L109.192,47.734 C109.795,47.842 110.848,47.905 111.433,47.905 L111.91,47.905 L111.91,46.627 L111.469,46.627 C110.848,46.627 109.903,46.555 109.372,46.492 L109.372,45.826 C109.912,45.925 110.866,45.997 111.46,45.997 L111.919,45.997 L111.919,45.412 C111.919,45.268 111.91,45.007 111.892,44.881 L112.657,44.881 C112.63,45.043 112.621,45.214 112.612,45.475 C112.603,45.583 112.603,45.754 112.603,45.97 C113.377,45.943 114.106,45.871 114.889,45.754 L114.898,46.411 C114.196,46.483 113.431,46.555 112.594,46.6 L112.594,47.878 C113.449,47.842 114.268,47.761 115.069,47.644 L115.078,48.319 C114.241,48.427 113.449,48.49 112.603,48.526 C112.621,48.985 112.648,49.453 112.666,49.876 C113.845,50.2 114.754,50.857 115.258,51.262 Z M120.82,49.894 C121.342,49.894 121.684,49.471 121.603,48.625 C121.459,48.238 121.162,48.076 120.811,48.076 C120.352,48.076 119.911,48.436 119.911,49.012 C119.911,49.57 120.325,49.894 120.82,49.894 Z M122.197,46.672 L122.08,46.672 C122.08,47.176 122.089,47.725 122.098,48.13 C122.287,48.436 122.386,48.832 122.386,49.273 C122.386,50.479 121.801,51.82 119.731,52.441 L119.11,51.838 C120.28,51.568 121.108,51.082 121.477,50.29 C121.261,50.443 121.009,50.515 120.712,50.515 C119.956,50.515 119.236,49.984 119.236,49.021 C119.236,48.139 119.965,47.464 120.811,47.464 C121.027,47.464 121.225,47.5 121.405,47.563 C121.405,47.302 121.405,46.987 121.396,46.681 C120.046,46.69 118.534,46.753 117.418,46.834 L117.4,46.132 C118.39,46.114 120.064,46.06 121.387,46.042 C121.387,45.79 121.378,45.583 121.369,45.457 C121.36,45.268 121.333,45.007 121.315,44.899 L122.134,44.899 L122.089,45.457 C122.089,45.592 122.08,45.799 122.08,46.033 L122.215,46.033 C123.295,46.033 124.393,46.042 124.825,46.042 L124.816,46.717 C124.312,46.69 123.502,46.672 122.197,46.672 Z" id="人気キャラクターなどのスタンプを自由に貼りつけます" fill="#1B1B1B" fill-rule="nonzero"></path>
                                <path d="M65.0136719,13.8457031 C65.0136719,13.3808571 64.8518083,13.0073256 64.5280762,12.7250977 C64.2043441,12.4428697 63.6357463,12.1772473 62.8222656,11.9282227 C61.4277274,11.5076476 60.3693884,11.0123726 59.6472168,10.4423828 C58.9250452,9.87239298 58.5639648,9.09489425 58.5639648,8.10986328 C58.5639648,7.11929843 58.9706991,6.30998035 59.7841797,5.68188477 C60.5976603,5.05378918 61.6352476,4.73974609 62.8969727,4.73974609 C64.2361721,4.73974609 65.3138794,5.07730782 66.130127,5.75244141 C66.9463745,6.42757499 67.3406577,7.3129828 67.3129883,8.40869141 L67.2963867,8.45849609 L64.9472656,8.45849609 C64.9472656,7.85530297 64.7646503,7.39184732 64.3994141,7.06811523 C64.0341779,6.74438315 63.5223015,6.58251953 62.8637695,6.58251953 C62.2661103,6.58251953 61.8040381,6.7263983 61.4775391,7.01416016 C61.15104,7.30192201 60.987793,7.66991963 60.987793,8.11816406 C60.987793,8.52767132 61.1648745,8.8638496 61.519043,9.12670898 C61.8732114,9.38956837 62.4846962,9.66764176 63.3535156,9.9609375 C64.6816473,10.3372415 65.6943325,10.8283661 66.3916016,11.4343262 C67.0888707,12.0402862 67.4375,12.8385367 67.4375,13.8291016 C67.4375,14.8639375 67.0335327,15.6801728 66.2255859,16.277832 C65.4176392,16.8754913 64.349616,17.1743164 63.0214844,17.1743164 C61.7210221,17.1743164 60.6045782,16.8505892 59.6721191,16.203125 C58.7396601,15.5556608 58.287272,14.5900129 58.3149414,13.3061523 L58.331543,13.2563477 L60.6806641,13.2563477 C60.6806641,13.9702184 60.8909484,14.4959293 61.3115234,14.8334961 C61.7320985,15.1710629 62.3020797,15.3398438 63.0214844,15.3398438 C63.6689485,15.3398438 64.1628401,15.2042657 64.5031738,14.9331055 C64.8435076,14.6619453 65.0136719,14.2994814 65.0136719,13.8457031 Z M77.6474609,6.78173828 L74.1943359,6.78173828 L74.1943359,17 L71.7705078,17 L71.7705078,6.78173828 L68.3671875,6.78173828 L68.3671875,4.9140625 L77.6474609,4.9140625 L77.6474609,6.78173828 Z M84.3710938,14.3935547 L80.453125,14.3935547 L79.6396484,17 L77.1079102,17 L81.1835938,4.9140625 L83.6655273,4.9140625 L87.7246094,17 L85.1928711,17 L84.3710938,14.3935547 Z M81.0507812,12.4926758 L83.7817383,12.4926758 L82.4453125,8.234375 L82.3955078,8.234375 L81.0507812,12.4926758 Z M95.137207,13.8208008 L95.1870117,13.8208008 L98.2915039,4.9140625 L101.454102,4.9140625 L101.454102,17 L99.0302734,17 L99.0302734,8.74902344 L98.9804688,8.74072266 L95.9921875,17 L94.3486328,17 L91.3603516,8.72412109 L91.3105469,8.73242188 L91.3105469,17 L88.8867188,17 L88.8867188,4.9140625 L92.065918,4.9140625 L95.137207,13.8208008 Z M106.102539,12.6171875 L106.102539,17 L103.678711,17 L103.678711,4.9140625 L108.302246,4.9140625 C109.69125,4.9140625 110.784176,5.26822562 111.581055,5.9765625 C112.377934,6.68489938 112.776367,7.61734448 112.776367,8.77392578 C112.776367,9.93050708 112.377934,10.8601853 111.581055,11.5629883 C110.784176,12.2657913 109.69125,12.6171875 108.302246,12.6171875 L106.102539,12.6171875 Z M106.102539,10.7495117 L108.302246,10.7495117 C108.97738,10.7495117 109.489256,10.5655129 109.837891,10.1975098 C110.186525,9.82950662 110.36084,9.36051717 110.36084,8.79052734 C110.36084,8.20946975 110.187909,7.7294127 109.842041,7.3503418 C109.496173,6.97127089 108.982914,6.78173828 108.302246,6.78173828 L106.102539,6.78173828 L106.102539,10.7495117 Z" id="STAMP" fill="#1B1B1B" fill-rule="nonzero"></path>
                            </g>
                        </g>
                    </g>
                </g>
            </g>
        </g>
    </g>
</svg>