<?xml version="1.0" encoding="UTF-8"?>
<svg width="170px" height="100px" viewBox="0 0 170 100" version="1.1" xmlns="http://www.w3.org/2000/svg" xmlns:xlink="http://www.w3.org/1999/xlink">
    <!-- Generator: Sketch 54.1 (76490) - https://sketchapp.com -->
    <title>Stamp_Text_Normal</title>
    <desc>Created with Sketch.</desc>
    <g id="页面1" stroke="none" stroke-width="1" fill="none" fill-rule="evenodd">
        <g id="C-01&gt;Make-Graphic&gt;EN" transform="translate(-193.000000, -517.000000)">
            <g id="Content" transform="translate(12.000000, 64.000000)">
                <g id="04_STAMP" transform="translate(181.000000, 283.000000)">
                    <g id="Stamp_Text_Normal" transform="translate(0.000000, 170.000000)">
                        <rect id="bg" fill="#F3F3F3" x="0" y="0" width="170" height="100"></rect>
                        <path d="M23.77,62.2 L25.35,62.2 C25.4566672,62.2 25.5899992,62.1916667 25.75,62.175 C25.9100008,62.1583332 26.0799991,62.1183336 26.26,62.055 C26.4400009,61.9916663 26.6183324,61.9000006 26.795,61.78 C26.9716675,61.6599994 27.1299993,61.4966677 27.27,61.29 C27.4100007,61.0833323 27.5249995,60.8250015 27.615,60.515 C27.7050004,60.2049984 27.75,59.8300022 27.75,59.39 C27.75,58.9633312 27.7083337,58.5816683 27.625,58.245 C27.5416662,57.9083316 27.4050009,57.6216678 27.215,57.385 C27.024999,57.1483321 26.7800015,56.9683339 26.48,56.845 C26.1799985,56.721666 25.8100022,56.66 25.37,56.66 L23.77,56.66 L23.77,62.2 Z M22.82,55.86 L25.27,55.86 C26.3700055,55.86 27.2166637,56.1399972 27.81,56.7 C28.4033363,57.2600028 28.7,58.1133276 28.7,59.26 C28.7,59.860003 28.633334,60.3916643 28.5,60.855 C28.366666,61.3183356 28.1600014,61.7083317 27.88,62.025 C27.5999986,62.3416682 27.2433355,62.5833325 26.81,62.75 C26.3766645,62.9166675 25.8633363,63 25.27,63 L22.82,63 L22.82,55.86 Z M33.31,59.92 C33.2966666,59.719999 33.251667,59.5300009 33.175,59.35 C33.0983329,59.1699991 32.9950006,59.0150006 32.865,58.885 C32.7349993,58.7549993 32.5816675,58.651667 32.405,58.575 C32.2283324,58.4983329 32.0333344,58.46 31.82,58.46 C31.5999989,58.46 31.4016675,58.4983329 31.225,58.575 C31.0483324,58.651667 30.8966673,58.756666 30.77,58.89 C30.6433327,59.023334 30.5433337,59.1783324 30.47,59.355 C30.3966663,59.5316675 30.3533334,59.719999 30.34,59.92 L33.31,59.92 Z M34.13,61.36 C34.0166661,61.9400029 33.7666686,62.3766652 33.38,62.67 C32.9933314,62.9633348 32.5066696,63.11 31.92,63.11 C31.5066646,63.11 31.1483348,63.043334 30.845,62.91 C30.5416651,62.776666 30.2866677,62.5900012 30.08,62.35 C29.8733323,62.1099988 29.7183338,61.823335 29.615,61.49 C29.5116661,61.156665 29.4533334,60.7933353 29.44,60.4 C29.44,60.0066647 29.4999994,59.6466683 29.62,59.32 C29.7400006,58.9933317 29.9083322,58.7100012 30.125,58.47 C30.3416677,58.2299988 30.5983318,58.043334 30.895,57.91 C31.1916681,57.776666 31.5166649,57.71 31.87,57.71 C32.3300023,57.71 32.7116651,57.804999 33.015,57.995 C33.3183348,58.1850009 33.5616657,58.4266652 33.745,58.72 C33.9283342,59.0133348 34.0549996,59.3333316 34.125,59.68 C34.1950003,60.0266684 34.2233334,60.3566651 34.21,60.67 L30.34,60.67 C30.3333333,60.8966678 30.3599997,61.1116656 30.42,61.315 C30.4800003,61.5183343 30.576666,61.6983325 30.71,61.855 C30.843334,62.0116674 31.0133323,62.1366662 31.22,62.23 C31.4266677,62.3233338 31.6699986,62.37 31.95,62.37 C32.3100018,62.37 32.6049988,62.2866675 32.835,62.12 C33.0650011,61.9533325 33.2166663,61.7000017 33.29,61.36 L34.13,61.36 Z M38.6,59.49 C38.533333,59.1633317 38.3933344,58.9100009 38.18,58.73 C37.9666656,58.5499991 37.6800018,58.46 37.32,58.46 C37.0133318,58.46 36.7566677,58.5166661 36.55,58.63 C36.3433323,58.7433339 36.1783339,58.8933324 36.055,59.08 C35.931666,59.2666676 35.8433336,59.4816654 35.79,59.725 C35.7366664,59.9683345 35.71,60.2199987 35.71,60.48 C35.71,60.7200012 35.738333,60.9533322 35.795,61.18 C35.8516669,61.4066678 35.9399994,61.6083324 36.06,61.785 C36.1800006,61.9616675 36.3366657,62.1033328 36.53,62.21 C36.7233343,62.3166672 36.953332,62.37 37.22,62.37 C37.6400021,62.37 37.9683321,62.2600011 38.205,62.04 C38.4416678,61.8199989 38.5866664,61.510002 38.64,61.11 L39.51,61.11 C39.4166662,61.7500032 39.1783352,62.2433316 38.795,62.59 C38.4116647,62.9366684 37.8900033,63.11 37.23,63.11 C36.8366647,63.11 36.4883348,63.0466673 36.185,62.92 C35.8816651,62.7933327 35.6283343,62.6133345 35.425,62.38 C35.2216656,62.1466655 35.0683338,61.8683349 34.965,61.545 C34.8616661,61.221665 34.81,60.8666686 34.81,60.48 C34.81,60.0933314 34.8599995,59.7316683 34.96,59.395 C35.0600005,59.0583316 35.2116656,58.7650012 35.415,58.515 C35.6183343,58.2649987 35.8733318,58.068334 36.18,57.925 C36.4866682,57.7816659 36.8433313,57.71 37.25,57.71 C37.5433348,57.71 37.818332,57.7449996 38.075,57.815 C38.3316679,57.8850003 38.5583323,57.9933326 38.755,58.14 C38.9516676,58.2866674 39.1133327,58.4716655 39.24,58.695 C39.3666673,58.9183344 39.4466665,59.1833318 39.48,59.49 L38.6,59.49 Z M41.08,60.42 C41.08,60.7333349 41.1216662,61.0116654 41.205,61.255 C41.2883337,61.4983345 41.4033326,61.7016658 41.55,61.865 C41.6966674,62.0283341 41.8683323,62.1533329 42.065,62.24 C42.2616676,62.3266671 42.4699989,62.37 42.69,62.37 C42.9100011,62.37 43.1183323,62.3266671 43.315,62.24 C43.5116676,62.1533329 43.6833326,62.0283341 43.83,61.865 C43.9766674,61.7016658 44.0916662,61.4983345 44.175,61.255 C44.2583337,61.0116654 44.3,60.7333349 44.3,60.42 C44.3,60.1066651 44.2583337,59.8283345 44.175,59.585 C44.0916662,59.3416654 43.9766674,59.1366675 43.83,58.97 C43.6833326,58.8033325 43.5116676,58.6766671 43.315,58.59 C43.1183323,58.5033329 42.9100011,58.46 42.69,58.46 C42.4699989,58.46 42.2616676,58.5033329 42.065,58.59 C41.8683323,58.6766671 41.6966674,58.8033325 41.55,58.97 C41.4033326,59.1366675 41.2883337,59.3416654 41.205,59.585 C41.1216662,59.8283345 41.08,60.1066651 41.08,60.42 Z M40.18,60.42 C40.18,60.0399981 40.2333328,59.6850016 40.34,59.355 C40.4466672,59.0249983 40.6066656,58.7383345 40.82,58.495 C41.0333344,58.2516654 41.2966651,58.0600007 41.61,57.92 C41.9233349,57.7799993 42.2833313,57.71 42.69,57.71 C43.1033354,57.71 43.4649984,57.7799993 43.775,57.92 C44.0850015,58.0600007 44.3466656,58.2516654 44.56,58.495 C44.7733344,58.7383345 44.9333328,59.0249983 45.04,59.355 C45.1466672,59.6850016 45.2,60.0399981 45.2,60.42 C45.2,60.8000019 45.1466672,61.1533317 45.04,61.48 C44.9333328,61.8066683 44.7733344,62.0916654 44.56,62.335 C44.3466656,62.5783345 44.0850015,62.7683326 43.775,62.905 C43.4649984,63.0416673 43.1033354,63.11 42.69,63.11 C42.2833313,63.11 41.9233349,63.0416673 41.61,62.905 C41.2966651,62.7683326 41.0333344,62.5783345 40.82,62.335 C40.6066656,62.0916654 40.4466672,61.8066683 40.34,61.48 C40.2333328,61.1533317 40.18,60.8000019 40.18,60.42 Z M46.17,57.83 L46.97,57.83 L46.97,58.92 L46.99,58.92 C47.1966677,58.4999979 47.4499985,58.190001 47.75,57.99 C48.0500015,57.789999 48.4299977,57.6966666 48.89,57.71 L48.89,58.61 C48.5499983,58.61 48.2600012,58.6566662 48.02,58.75 C47.7799988,58.8433338 47.5866674,58.9799991 47.44,59.16 C47.2933326,59.3400009 47.186667,59.558332 47.12,59.815 C47.053333,60.0716679 47.02,60.366665 47.02,60.7 L47.02,63 L46.17,63 L46.17,57.83 Z M54.11,62.98 C53.9633326,63.0666671 53.7600013,63.11 53.5,63.11 C53.2799989,63.11 53.1050006,63.0483339 52.975,62.925 C52.8449993,62.801666 52.78,62.6000014 52.78,62.32 C52.5466655,62.6000014 52.2750015,62.801666 51.965,62.925 C51.6549984,63.0483339 51.3200018,63.11 50.96,63.11 C50.7266655,63.11 50.505001,63.0833336 50.295,63.03 C50.0849989,62.9766664 49.9033341,62.8933339 49.75,62.78 C49.5966659,62.6666661 49.4750004,62.5183342 49.385,62.335 C49.2949995,62.1516657 49.25,61.9300013 49.25,61.67 C49.25,61.3766652 49.2999995,61.1366676 49.4,60.95 C49.5000005,60.7633324 49.6316658,60.6116672 49.795,60.495 C49.9583341,60.3783327 50.1449989,60.2900003 50.355,60.23 C50.565001,60.1699997 50.7799989,60.1200002 51,60.08 C51.2333345,60.0333331 51.4549989,59.9983334 51.665,59.975 C51.875001,59.9516665 52.0599992,59.9183335 52.22,59.875 C52.3800008,59.8316664 52.5066662,59.7683337 52.6,59.685 C52.6933338,59.6016662 52.74,59.4800008 52.74,59.32 C52.74,59.1333324 52.7050003,58.9833339 52.635,58.87 C52.5649996,58.7566661 52.4750005,58.6700003 52.365,58.61 C52.2549994,58.5499997 52.1316673,58.5100001 51.995,58.49 C51.8583326,58.4699999 51.723334,58.46 51.59,58.46 C51.2299982,58.46 50.9300012,58.5283326 50.69,58.665 C50.4499988,58.8016673 50.3200001,59.0599981 50.3,59.44 L49.45,59.44 C49.4633334,59.1199984 49.5299994,58.8500011 49.65,58.63 C49.7700006,58.4099989 49.929999,58.2316673 50.13,58.095 C50.330001,57.9583326 50.558332,57.8600003 50.815,57.8 C51.0716679,57.7399997 51.3466652,57.71 51.64,57.71 C51.8733345,57.71 52.1049988,57.7266665 52.335,57.76 C52.5650011,57.7933335 52.7733324,57.8616661 52.96,57.965 C53.1466676,58.0683338 53.2966661,58.2133324 53.41,58.4 C53.5233339,58.5866676 53.58,58.8299985 53.58,59.13 L53.58,61.79 C53.58,61.990001 53.5916665,62.1366662 53.615,62.23 C53.6383334,62.3233338 53.716666,62.37 53.85,62.37 C53.9233337,62.37 54.0099995,62.3533335 54.11,62.32 L54.11,62.98 Z M52.73,60.33 C52.6233328,60.4100004 52.4833342,60.4683331 52.31,60.505 C52.1366658,60.5416668 51.9550009,60.5716665 51.765,60.595 C51.574999,60.6183334 51.3833343,60.6449998 51.19,60.675 C50.9966657,60.7050001 50.8233341,60.753333 50.67,60.82 C50.5166659,60.886667 50.3916671,60.981666 50.295,61.105 C50.1983328,61.2283339 50.15,61.3966656 50.15,61.61 C50.15,61.7500007 50.178333,61.8683328 50.235,61.965 C50.2916669,62.0616671 50.3649995,62.1399997 50.455,62.2 C50.5450004,62.2600003 50.6499994,62.3033332 50.77,62.33 C50.8900006,62.3566668 51.016666,62.37 51.15,62.37 C51.4300014,62.37 51.669999,62.331667 51.87,62.255 C52.070001,62.1783329 52.2333327,62.0816672 52.36,61.965 C52.4866673,61.8483327 52.5799997,61.7216673 52.64,61.585 C52.7000003,61.4483326 52.73,61.3200006 52.73,61.2 L52.73,60.33 Z M56.08,57.83 L57.11,57.83 L57.11,58.58 L56.08,58.58 L56.08,61.79 C56.08,61.8900005 56.0883332,61.9699997 56.105,62.03 C56.1216667,62.0900003 56.1533331,62.1366665 56.2,62.17 C56.2466669,62.2033335 56.3116662,62.2249999 56.395,62.235 C56.4783337,62.245 56.586666,62.25 56.72,62.25 L57.11,62.25 L57.11,63 L56.46,63 C56.2399989,63 56.0516674,62.9850001 55.895,62.955 C55.7383325,62.9249998 55.6116671,62.8700004 55.515,62.79 C55.4183328,62.7099996 55.3466669,62.5966674 55.3,62.45 C55.2533331,62.3033326 55.23,62.1100012 55.23,61.87 L55.23,58.58 L54.35,58.58 L54.35,57.83 L55.23,57.83 L55.23,56.28 L56.08,56.28 L56.08,57.83 Z M61.64,59.92 C61.6266666,59.719999 61.581667,59.5300009 61.505,59.35 C61.4283329,59.1699991 61.3250006,59.0150006 61.195,58.885 C61.0649993,58.7549993 60.9116675,58.651667 60.735,58.575 C60.5583324,58.4983329 60.3633344,58.46 60.15,58.46 C59.9299989,58.46 59.7316675,58.4983329 59.555,58.575 C59.3783324,58.651667 59.2266673,58.756666 59.1,58.89 C58.9733327,59.023334 58.8733337,59.1783324 58.8,59.355 C58.7266663,59.5316675 58.6833334,59.719999 58.67,59.92 L61.64,59.92 Z M62.46,61.36 C62.3466661,61.9400029 62.0966686,62.3766652 61.71,62.67 C61.3233314,62.9633348 60.8366696,63.11 60.25,63.11 C59.8366646,63.11 59.4783348,63.043334 59.175,62.91 C58.8716651,62.776666 58.6166677,62.5900012 58.41,62.35 C58.2033323,62.1099988 58.0483338,61.823335 57.945,61.49 C57.8416661,61.156665 57.7833334,60.7933353 57.77,60.4 C57.77,60.0066647 57.8299994,59.6466683 57.95,59.32 C58.0700006,58.9933317 58.2383322,58.7100012 58.455,58.47 C58.6716677,58.2299988 58.9283318,58.043334 59.225,57.91 C59.5216681,57.776666 59.8466649,57.71 60.2,57.71 C60.6600023,57.71 61.0416651,57.804999 61.345,57.995 C61.6483348,58.1850009 61.8916657,58.4266652 62.075,58.72 C62.2583342,59.0133348 62.3849996,59.3333316 62.455,59.68 C62.5250003,60.0266684 62.5533334,60.3566651 62.54,60.67 L58.67,60.67 C58.6633333,60.8966678 58.6899997,61.1116656 58.75,61.315 C58.8100003,61.5183343 58.906666,61.6983325 59.04,61.855 C59.173334,62.0116674 59.3433323,62.1366662 59.55,62.23 C59.7566677,62.3233338 59.9999986,62.37 60.28,62.37 C60.6400018,62.37 60.9349988,62.2866675 61.165,62.12 C61.3950011,61.9533325 61.5466663,61.7000017 61.62,61.36 L62.46,61.36 Z M71.32,63 L70.42,63 L69.37,58.89 L69.35,58.89 L68.31,63 L67.39,63 L65.73,57.83 L66.67,57.83 L67.84,62.06 L67.86,62.06 L68.9,57.83 L69.83,57.83 L70.91,62.06 L70.93,62.06 L72.09,57.83 L72.97,57.83 L71.32,63 Z M74.68,56.9 L73.83,56.9 L73.83,55.86 L74.68,55.86 L74.68,56.9 Z M73.83,57.83 L74.68,57.83 L74.68,63 L73.83,63 L73.83,57.83 Z M77.18,57.83 L78.21,57.83 L78.21,58.58 L77.18,58.58 L77.18,61.79 C77.18,61.8900005 77.1883332,61.9699997 77.205,62.03 C77.2216667,62.0900003 77.2533331,62.1366665 77.3,62.17 C77.3466669,62.2033335 77.4116662,62.2249999 77.495,62.235 C77.5783337,62.245 77.686666,62.25 77.82,62.25 L78.21,62.25 L78.21,63 L77.56,63 C77.3399989,63 77.1516674,62.9850001 76.995,62.955 C76.8383325,62.9249998 76.7116671,62.8700004 76.615,62.79 C76.5183328,62.7099996 76.4466669,62.5966674 76.4,62.45 C76.3533331,62.3033326 76.33,62.1100012 76.33,61.87 L76.33,58.58 L75.45,58.58 L75.45,57.83 L76.33,57.83 L76.33,56.28 L77.18,56.28 L77.18,57.83 Z M79.15,55.86 L80,55.86 L80,58.59 L80.02,58.59 C80.086667,58.4299992 80.1799994,58.2950005 80.3,58.185 C80.4200006,58.0749994 80.5549992,57.9850003 80.705,57.915 C80.8550007,57.8449996 81.0116658,57.7933335 81.175,57.76 C81.3383341,57.7266665 81.4966659,57.71 81.65,57.71 C81.9900017,57.71 82.2733322,57.7566662 82.5,57.85 C82.7266678,57.9433338 82.9099993,58.0733325 83.05,58.24 C83.1900007,58.4066675 83.288333,58.6049988 83.345,58.835 C83.4016669,59.0650011 83.43,59.3199986 83.43,59.6 L83.43,63 L82.58,63 L82.58,59.5 C82.58,59.1799984 82.4866676,58.9266676 82.3,58.74 C82.1133324,58.5533324 81.8566683,58.46 81.53,58.46 C81.2699987,58.46 81.0450009,58.4999996 80.855,58.58 C80.664999,58.6600004 80.5066673,58.7733326 80.38,58.92 C80.2533327,59.0666674 80.1583336,59.2383323 80.095,59.435 C80.0316663,59.6316676 80,59.8466655 80,60.08 L80,63 L79.15,63 L79.15,55.86 Z M89.52,63.69 C89.4199995,63.9433346 89.3216671,64.1566658 89.225,64.33 C89.1283328,64.5033342 89.0216672,64.6449994 88.905,64.755 C88.7883327,64.8650005 88.658334,64.9449997 88.515,64.995 C88.3716659,65.0450002 88.2066676,65.07 88.02,65.07 C87.9199995,65.07 87.8200005,65.0633334 87.72,65.05 C87.6199995,65.0366666 87.5233338,65.0133335 87.43,64.98 L87.43,64.2 C87.5033337,64.2333335 87.5883328,64.2616665 87.685,64.285 C87.7816671,64.3083334 87.863333,64.32 87.93,64.32 C88.1033342,64.32 88.2483327,64.2783337 88.365,64.195 C88.4816672,64.1116662 88.5699997,63.9933341 88.63,63.84 L88.98,62.97 L86.93,57.83 L87.89,57.83 L89.4,62.06 L89.42,62.06 L90.87,57.83 L91.77,57.83 L89.52,63.69 Z M93.11,60.42 C93.11,60.7333349 93.1516662,61.0116654 93.235,61.255 C93.3183337,61.4983345 93.4333326,61.7016658 93.58,61.865 C93.7266674,62.0283341 93.8983323,62.1533329 94.095,62.24 C94.2916676,62.3266671 94.4999989,62.37 94.72,62.37 C94.9400011,62.37 95.1483323,62.3266671 95.345,62.24 C95.5416676,62.1533329 95.7133326,62.0283341 95.86,61.865 C96.0066674,61.7016658 96.1216662,61.4983345 96.205,61.255 C96.2883337,61.0116654 96.33,60.7333349 96.33,60.42 C96.33,60.1066651 96.2883337,59.8283345 96.205,59.585 C96.1216662,59.3416654 96.0066674,59.1366675 95.86,58.97 C95.7133326,58.8033325 95.5416676,58.6766671 95.345,58.59 C95.1483323,58.5033329 94.9400011,58.46 94.72,58.46 C94.4999989,58.46 94.2916676,58.5033329 94.095,58.59 C93.8983323,58.6766671 93.7266674,58.8033325 93.58,58.97 C93.4333326,59.1366675 93.3183337,59.3416654 93.235,59.585 C93.1516662,59.8283345 93.11,60.1066651 93.11,60.42 Z M92.21,60.42 C92.21,60.0399981 92.2633328,59.6850016 92.37,59.355 C92.4766672,59.0249983 92.6366656,58.7383345 92.85,58.495 C93.0633344,58.2516654 93.3266651,58.0600007 93.64,57.92 C93.9533349,57.7799993 94.3133313,57.71 94.72,57.71 C95.1333354,57.71 95.4949984,57.7799993 95.805,57.92 C96.1150015,58.0600007 96.3766656,58.2516654 96.59,58.495 C96.8033344,58.7383345 96.9633328,59.0249983 97.07,59.355 C97.1766672,59.6850016 97.23,60.0399981 97.23,60.42 C97.23,60.8000019 97.1766672,61.1533317 97.07,61.48 C96.9633328,61.8066683 96.8033344,62.0916654 96.59,62.335 C96.3766656,62.5783345 96.1150015,62.7683326 95.805,62.905 C95.4949984,63.0416673 95.1333354,63.11 94.72,63.11 C94.3133313,63.11 93.9533349,63.0416673 93.64,62.905 C93.3266651,62.7683326 93.0633344,62.5783345 92.85,62.335 C92.6366656,62.0916654 92.4766672,61.8066683 92.37,61.48 C92.2633328,61.1533317 92.21,60.8000019 92.21,60.42 Z M102.51,63 L101.71,63 L101.71,62.18 L101.69,62.18 C101.509999,62.5000016 101.280001,62.7349992 101,62.885 C100.719999,63.0350007 100.390002,63.11 100.01,63.11 C99.6699983,63.11 99.3866678,63.0650004 99.16,62.975 C98.9333322,62.8849995 98.7500007,62.7566675 98.61,62.59 C98.4699993,62.4233325 98.3716669,62.2250011 98.315,61.995 C98.258333,61.7649988 98.23,61.5100014 98.23,61.23 L98.23,57.83 L99.08,57.83 L99.08,61.33 C99.08,61.6500016 99.1733324,61.9033324 99.36,62.09 C99.5466676,62.2766676 99.8033317,62.37 100.13,62.37 C100.390001,62.37 100.614999,62.3300004 100.805,62.25 C100.995001,62.1699996 101.153333,62.0566674 101.28,61.91 C101.406667,61.7633326 101.501666,61.5916676 101.565,61.395 C101.628334,61.1983323 101.66,60.9833345 101.66,60.75 L101.66,57.83 L102.51,57.83 L102.51,63 Z M103.76,57.83 L104.56,57.83 L104.56,58.92 L104.58,58.92 C104.786668,58.4999979 105.039998,58.190001 105.34,57.99 C105.640001,57.789999 106.019998,57.6966666 106.48,57.71 L106.48,58.61 C106.139998,58.61 105.850001,58.6566662 105.61,58.75 C105.369999,58.8433338 105.176667,58.9799991 105.03,59.16 C104.883333,59.3400009 104.776667,59.558332 104.71,59.815 C104.643333,60.0716679 104.61,60.366665 104.61,60.7 L104.61,63 L103.76,63 L103.76,57.83 Z M110.25,58.58 L109.38,58.58 L109.38,57.83 L110.25,57.83 L110.25,57.06 C110.25,56.6399979 110.371665,56.3216677 110.615,56.105 C110.858335,55.8883322 111.213331,55.78 111.68,55.78 C111.76,55.78 111.851666,55.7866666 111.955,55.8 C112.058334,55.8133334 112.15,55.8333332 112.23,55.86 L112.23,56.6 C112.156666,56.5733332 112.076667,56.555 111.99,56.545 C111.903333,56.5349999 111.823334,56.53 111.75,56.53 C111.543332,56.53 111.383334,56.5699996 111.27,56.65 C111.156666,56.7300004 111.1,56.8833322 111.1,57.11 L111.1,57.83 L112.1,57.83 L112.1,58.58 L111.1,58.58 L111.1,63 L110.25,63 L110.25,58.58 Z M117.44,62.98 C117.293333,63.0666671 117.090001,63.11 116.83,63.11 C116.609999,63.11 116.435001,63.0483339 116.305,62.925 C116.174999,62.801666 116.11,62.6000014 116.11,62.32 C115.876665,62.6000014 115.605002,62.801666 115.295,62.925 C114.984998,63.0483339 114.650002,63.11 114.29,63.11 C114.056665,63.11 113.835001,63.0833336 113.625,63.03 C113.414999,62.9766664 113.233334,62.8933339 113.08,62.78 C112.926666,62.6666661 112.805,62.5183342 112.715,62.335 C112.625,62.1516657 112.58,61.9300013 112.58,61.67 C112.58,61.3766652 112.629999,61.1366676 112.73,60.95 C112.83,60.7633324 112.961666,60.6116672 113.125,60.495 C113.288334,60.3783327 113.474999,60.2900003 113.685,60.23 C113.895001,60.1699997 114.109999,60.1200002 114.33,60.08 C114.563334,60.0333331 114.784999,59.9983334 114.995,59.975 C115.205001,59.9516665 115.389999,59.9183335 115.55,59.875 C115.710001,59.8316664 115.836666,59.7683337 115.93,59.685 C116.023334,59.6016662 116.07,59.4800008 116.07,59.32 C116.07,59.1333324 116.035,58.9833339 115.965,58.87 C115.895,58.7566661 115.805001,58.6700003 115.695,58.61 C115.584999,58.5499997 115.461667,58.5100001 115.325,58.49 C115.188333,58.4699999 115.053334,58.46 114.92,58.46 C114.559998,58.46 114.260001,58.5283326 114.02,58.665 C113.779999,58.8016673 113.65,59.0599981 113.63,59.44 L112.78,59.44 C112.793333,59.1199984 112.859999,58.8500011 112.98,58.63 C113.100001,58.4099989 113.259999,58.2316673 113.46,58.095 C113.660001,57.9583326 113.888332,57.8600003 114.145,57.8 C114.401668,57.7399997 114.676665,57.71 114.97,57.71 C115.203334,57.71 115.434999,57.7266665 115.665,57.76 C115.895001,57.7933335 116.103332,57.8616661 116.29,57.965 C116.476668,58.0683338 116.626666,58.2133324 116.74,58.4 C116.853334,58.5866676 116.91,58.8299985 116.91,59.13 L116.91,61.79 C116.91,61.990001 116.921667,62.1366662 116.945,62.23 C116.968333,62.3233338 117.046666,62.37 117.18,62.37 C117.253334,62.37 117.339999,62.3533335 117.44,62.32 L117.44,62.98 Z M116.06,60.33 C115.953333,60.4100004 115.813334,60.4683331 115.64,60.505 C115.466666,60.5416668 115.285001,60.5716665 115.095,60.595 C114.904999,60.6183334 114.713334,60.6449998 114.52,60.675 C114.326666,60.7050001 114.153334,60.753333 114,60.82 C113.846666,60.886667 113.721667,60.981666 113.625,61.105 C113.528333,61.2283339 113.48,61.3966656 113.48,61.61 C113.48,61.7500007 113.508333,61.8683328 113.565,61.965 C113.621667,62.0616671 113.695,62.1399997 113.785,62.2 C113.875,62.2600003 113.979999,62.3033332 114.1,62.33 C114.220001,62.3566668 114.346666,62.37 114.48,62.37 C114.760001,62.37 114.999999,62.331667 115.2,62.255 C115.400001,62.1783329 115.563333,62.0816672 115.69,61.965 C115.816667,61.8483327 115.91,61.7216673 115.97,61.585 C116.03,61.4483326 116.06,61.3200006 116.06,61.2 L116.06,60.33 Z M120.56,63 L119.65,63 L117.73,57.83 L118.68,57.83 L120.13,62.14 L120.15,62.14 L121.56,57.83 L122.45,57.83 L120.56,63 Z M123.85,60.42 C123.85,60.7333349 123.891666,61.0116654 123.975,61.255 C124.058334,61.4983345 124.173333,61.7016658 124.32,61.865 C124.466667,62.0283341 124.638332,62.1533329 124.835,62.24 C125.031668,62.3266671 125.239999,62.37 125.46,62.37 C125.680001,62.37 125.888332,62.3266671 126.085,62.24 C126.281668,62.1533329 126.453333,62.0283341 126.6,61.865 C126.746667,61.7016658 126.861666,61.4983345 126.945,61.255 C127.028334,61.0116654 127.07,60.7333349 127.07,60.42 C127.07,60.1066651 127.028334,59.8283345 126.945,59.585 C126.861666,59.3416654 126.746667,59.1366675 126.6,58.97 C126.453333,58.8033325 126.281668,58.6766671 126.085,58.59 C125.888332,58.5033329 125.680001,58.46 125.46,58.46 C125.239999,58.46 125.031668,58.5033329 124.835,58.59 C124.638332,58.6766671 124.466667,58.8033325 124.32,58.97 C124.173333,59.1366675 124.058334,59.3416654 123.975,59.585 C123.891666,59.8283345 123.85,60.1066651 123.85,60.42 Z M122.95,60.42 C122.95,60.0399981 123.003333,59.6850016 123.11,59.355 C123.216667,59.0249983 123.376666,58.7383345 123.59,58.495 C123.803334,58.2516654 124.066665,58.0600007 124.38,57.92 C124.693335,57.7799993 125.053331,57.71 125.46,57.71 C125.873335,57.71 126.234998,57.7799993 126.545,57.92 C126.855002,58.0600007 127.116666,58.2516654 127.33,58.495 C127.543334,58.7383345 127.703333,59.0249983 127.81,59.355 C127.916667,59.6850016 127.97,60.0399981 127.97,60.42 C127.97,60.8000019 127.916667,61.1533317 127.81,61.48 C127.703333,61.8066683 127.543334,62.0916654 127.33,62.335 C127.116666,62.5783345 126.855002,62.7683326 126.545,62.905 C126.234998,63.0416673 125.873335,63.11 125.46,63.11 C125.053331,63.11 124.693335,63.0416673 124.38,62.905 C124.066665,62.7683326 123.803334,62.5783345 123.59,62.335 C123.376666,62.0916654 123.216667,61.8066683 123.11,61.48 C123.003333,61.1533317 122.95,60.8000019 122.95,60.42 Z M133.25,63 L132.45,63 L132.45,62.18 L132.43,62.18 C132.249999,62.5000016 132.020001,62.7349992 131.74,62.885 C131.459999,63.0350007 131.130002,63.11 130.75,63.11 C130.409998,63.11 130.126668,63.0650004 129.9,62.975 C129.673332,62.8849995 129.490001,62.7566675 129.35,62.59 C129.209999,62.4233325 129.111667,62.2250011 129.055,61.995 C128.998333,61.7649988 128.97,61.5100014 128.97,61.23 L128.97,57.83 L129.82,57.83 L129.82,61.33 C129.82,61.6500016 129.913332,61.9033324 130.1,62.09 C130.286668,62.2766676 130.543332,62.37 130.87,62.37 C131.130001,62.37 131.354999,62.3300004 131.545,62.25 C131.735001,62.1699996 131.893333,62.0566674 132.02,61.91 C132.146667,61.7633326 132.241666,61.5916676 132.305,61.395 C132.368334,61.1983323 132.4,60.9833345 132.4,60.75 L132.4,57.83 L133.25,57.83 L133.25,63 Z M134.5,57.83 L135.3,57.83 L135.3,58.92 L135.32,58.92 C135.526668,58.4999979 135.779998,58.190001 136.08,57.99 C136.380001,57.789999 136.759998,57.6966666 137.22,57.71 L137.22,58.61 C136.879998,58.61 136.590001,58.6566662 136.35,58.75 C136.109999,58.8433338 135.916667,58.9799991 135.77,59.16 C135.623333,59.3400009 135.516667,59.558332 135.45,59.815 C135.383333,60.0716679 135.35,60.366665 135.35,60.7 L135.35,63 L134.5,63 L134.5,57.83 Z M138.76,56.9 L137.91,56.9 L137.91,55.86 L138.76,55.86 L138.76,56.9 Z M137.91,57.83 L138.76,57.83 L138.76,63 L137.91,63 L137.91,57.83 Z M141.26,57.83 L142.29,57.83 L142.29,58.58 L141.26,58.58 L141.26,61.79 C141.26,61.8900005 141.268333,61.9699997 141.285,62.03 C141.301667,62.0900003 141.333333,62.1366665 141.38,62.17 C141.426667,62.2033335 141.491666,62.2249999 141.575,62.235 C141.658334,62.245 141.766666,62.25 141.9,62.25 L142.29,62.25 L142.29,63 L141.64,63 C141.419999,63 141.231667,62.9850001 141.075,62.955 C140.918333,62.9249998 140.791667,62.8700004 140.695,62.79 C140.598333,62.7099996 140.526667,62.5966674 140.48,62.45 C140.433333,62.3033326 140.41,62.1100012 140.41,61.87 L140.41,58.58 L139.53,58.58 L139.53,57.83 L140.41,57.83 L140.41,56.28 L141.26,56.28 L141.26,57.83 Z M146.82,59.92 C146.806667,59.719999 146.761667,59.5300009 146.685,59.35 C146.608333,59.1699991 146.505001,59.0150006 146.375,58.885 C146.244999,58.7549993 146.091668,58.651667 145.915,58.575 C145.738332,58.4983329 145.543334,58.46 145.33,58.46 C145.109999,58.46 144.911668,58.4983329 144.735,58.575 C144.558332,58.651667 144.406667,58.756666 144.28,58.89 C144.153333,59.023334 144.053334,59.1783324 143.98,59.355 C143.906666,59.5316675 143.863333,59.719999 143.85,59.92 L146.82,59.92 Z M147.64,61.36 C147.526666,61.9400029 147.276669,62.3766652 146.89,62.67 C146.503331,62.9633348 146.01667,63.11 145.43,63.11 C145.016665,63.11 144.658335,63.043334 144.355,62.91 C144.051665,62.776666 143.796668,62.5900012 143.59,62.35 C143.383332,62.1099988 143.228334,61.823335 143.125,61.49 C143.021666,61.156665 142.963333,60.7933353 142.95,60.4 C142.95,60.0066647 143.009999,59.6466683 143.13,59.32 C143.250001,58.9933317 143.418332,58.7100012 143.635,58.47 C143.851668,58.2299988 144.108332,58.043334 144.405,57.91 C144.701668,57.776666 145.026665,57.71 145.38,57.71 C145.840002,57.71 146.221665,57.804999 146.525,57.995 C146.828335,58.1850009 147.071666,58.4266652 147.255,58.72 C147.438334,59.0133348 147.565,59.3333316 147.635,59.68 C147.705,60.0266684 147.733333,60.3566651 147.72,60.67 L143.85,60.67 C143.843333,60.8966678 143.87,61.1116656 143.93,61.315 C143.99,61.5183343 144.086666,61.6983325 144.22,61.855 C144.353334,62.0116674 144.523332,62.1366662 144.73,62.23 C144.936668,62.3233338 145.179999,62.37 145.46,62.37 C145.820002,62.37 146.114999,62.2866675 146.345,62.12 C146.575001,61.9533325 146.726666,61.7000017 146.8,61.36 L147.64,61.36 Z M68.845,73.37 C68.8516667,73.5566676 68.8949996,73.7149993 68.975,73.845 C69.0550004,73.9750006 69.1599993,74.0783329 69.29,74.155 C69.4200006,74.231667 69.5666658,74.2866665 69.73,74.32 C69.8933341,74.3533335 70.0616658,74.37 70.235,74.37 C70.368334,74.37 70.5083326,74.3600001 70.655,74.34 C70.8016674,74.3199999 70.936666,74.2833336 71.06,74.23 C71.1833339,74.1766664 71.2849996,74.0983338 71.365,73.995 C71.4450004,73.8916661 71.485,73.7600008 71.485,73.6 C71.485,73.3799989 71.4016675,73.2133339 71.235,73.1 C71.0683325,72.9866661 70.8600012,72.8950003 70.61,72.825 C70.3599987,72.7549996 70.0883348,72.6916669 69.795,72.635 C69.5016652,72.578333 69.2300012,72.4983338 68.98,72.395 C68.7299987,72.2916661 68.5216675,72.1466676 68.355,71.96 C68.1883325,71.7733324 68.105,71.513335 68.105,71.18 C68.105,70.9199987 68.1633327,70.6966676 68.28,70.51 C68.3966672,70.3233324 68.5466657,70.1716672 68.73,70.055 C68.9133342,69.9383327 69.1199988,69.8516669 69.35,69.795 C69.5800011,69.738333 69.8083322,69.71 70.035,69.71 C70.3283348,69.71 70.5983321,69.7349997 70.845,69.785 C71.0916679,69.8350002 71.309999,69.921666 71.5,70.045 C71.6900009,70.1683339 71.8416661,70.3349989 71.955,70.545 C72.0683339,70.755001 72.1349999,71.0166651 72.155,71.33 L71.305,71.33 C71.2916666,71.1633325 71.2483337,71.0250005 71.175,70.915 C71.1016663,70.8049994 71.0083339,70.716667 70.895,70.65 C70.7816661,70.583333 70.6566673,70.5350001 70.52,70.505 C70.3833326,70.4749998 70.2450007,70.46 70.105,70.46 C69.9783327,70.46 69.8500006,70.4699999 69.72,70.49 C69.5899993,70.5100001 69.4716672,70.5449997 69.365,70.595 C69.2583328,70.6450002 69.171667,70.7116662 69.105,70.795 C69.038333,70.8783337 69.005,70.986666 69.005,71.12 C69.005,71.2666674 69.0566661,71.3883328 69.16,71.485 C69.2633338,71.5816671 69.3949992,71.6616663 69.555,71.725 C69.7150008,71.7883336 69.894999,71.8416664 70.095,71.885 C70.295001,71.9283335 70.494999,71.9733331 70.695,72.02 C70.9083344,72.0666669 71.1166656,72.123333 71.32,72.19 C71.5233343,72.256667 71.7033325,72.3449994 71.86,72.455 C72.0166674,72.5650005 72.1433328,72.7033325 72.24,72.87 C72.3366671,73.0366675 72.385,73.2433321 72.385,73.49 C72.385,73.8033349 72.3200006,74.0633323 72.19,74.27 C72.0599993,74.4766677 71.890001,74.6433327 71.68,74.77 C71.4699989,74.8966673 71.2333346,74.9849997 70.97,75.035 C70.7066653,75.0850002 70.4450013,75.11 70.185,75.11 C69.8983319,75.11 69.6250013,75.0800003 69.365,75.02 C69.1049987,74.9599997 68.875001,74.8616673 68.675,74.725 C68.474999,74.5883326 68.3150006,74.4083344 68.195,74.185 C68.0749994,73.9616655 68.0083334,73.6900016 67.995,73.37 L68.845,73.37 Z M74.505,69.83 L75.535,69.83 L75.535,70.58 L74.505,70.58 L74.505,73.79 C74.505,73.8900005 74.5133332,73.9699997 74.53,74.03 C74.5466667,74.0900003 74.5783331,74.1366665 74.625,74.17 C74.6716669,74.2033335 74.7366662,74.2249999 74.82,74.235 C74.9033337,74.245 75.011666,74.25 75.145,74.25 L75.535,74.25 L75.535,75 L74.885,75 C74.6649989,75 74.4766674,74.9850001 74.32,74.955 C74.1633325,74.9249998 74.0366671,74.8700004 73.94,74.79 C73.8433328,74.7099996 73.7716669,74.5966674 73.725,74.45 C73.6783331,74.3033326 73.655,74.1100012 73.655,73.87 L73.655,70.58 L72.775,70.58 L72.775,69.83 L73.655,69.83 L73.655,68.28 L74.505,68.28 L74.505,69.83 Z M77.375,68.9 L76.525,68.9 L76.525,67.86 L77.375,67.86 L77.375,68.9 Z M76.525,69.83 L77.375,69.83 L77.375,75 L76.525,75 L76.525,69.83 Z M82.205,71.49 C82.138333,71.1633317 81.9983344,70.9100009 81.785,70.73 C81.5716656,70.5499991 81.2850018,70.46 80.925,70.46 C80.6183318,70.46 80.3616677,70.5166661 80.155,70.63 C79.9483323,70.7433339 79.7833339,70.8933324 79.66,71.08 C79.536666,71.2666676 79.4483336,71.4816654 79.395,71.725 C79.3416664,71.9683345 79.315,72.2199987 79.315,72.48 C79.315,72.7200012 79.343333,72.9533322 79.4,73.18 C79.4566669,73.4066678 79.5449994,73.6083324 79.665,73.785 C79.7850006,73.9616675 79.9416657,74.1033328 80.135,74.21 C80.3283343,74.3166672 80.558332,74.37 80.825,74.37 C81.2450021,74.37 81.5733321,74.2600011 81.81,74.04 C82.0466678,73.8199989 82.1916664,73.510002 82.245,73.11 L83.115,73.11 C83.0216662,73.7500032 82.7833352,74.2433316 82.4,74.59 C82.0166647,74.9366684 81.4950033,75.11 80.835,75.11 C80.4416647,75.11 80.0933348,75.0466673 79.79,74.92 C79.4866651,74.7933327 79.2333343,74.6133345 79.03,74.38 C78.8266656,74.1466655 78.6733338,73.8683349 78.57,73.545 C78.4666661,73.221665 78.415,72.8666686 78.415,72.48 C78.415,72.0933314 78.4649995,71.7316683 78.565,71.395 C78.6650005,71.0583316 78.8166656,70.7650012 79.02,70.515 C79.2233343,70.2649987 79.4783318,70.068334 79.785,69.925 C80.0916682,69.7816659 80.4483313,69.71 80.855,69.71 C81.1483348,69.71 81.423332,69.7449996 81.68,69.815 C81.9366679,69.8850003 82.1633323,69.9933326 82.36,70.14 C82.5566676,70.2866674 82.7183327,70.4716655 82.845,70.695 C82.9716673,70.9183344 83.0516665,71.1833318 83.085,71.49 L82.205,71.49 Z M84.115,67.86 L84.965,67.86 L84.965,72.09 L87.325,69.83 L88.465,69.83 L86.415,71.71 L88.615,75 L87.535,75 L85.765,72.3 L84.965,73.04 L84.965,75 L84.115,75 L84.115,67.86 Z M92.845,71.92 C92.8316666,71.719999 92.786667,71.5300009 92.71,71.35 C92.6333329,71.1699991 92.5300006,71.0150006 92.4,70.885 C92.2699993,70.7549993 92.1166675,70.651667 91.94,70.575 C91.7633324,70.4983329 91.5683344,70.46 91.355,70.46 C91.1349989,70.46 90.9366675,70.4983329 90.76,70.575 C90.5833324,70.651667 90.4316673,70.756666 90.305,70.89 C90.1783327,71.023334 90.0783337,71.1783324 90.005,71.355 C89.9316663,71.5316675 89.8883334,71.719999 89.875,71.92 L92.845,71.92 Z M93.665,73.36 C93.5516661,73.9400029 93.3016686,74.3766652 92.915,74.67 C92.5283314,74.9633348 92.0416696,75.11 91.455,75.11 C91.0416646,75.11 90.6833348,75.043334 90.38,74.91 C90.0766651,74.776666 89.8216677,74.5900012 89.615,74.35 C89.4083323,74.1099988 89.2533338,73.823335 89.15,73.49 C89.0466661,73.156665 88.9883334,72.7933353 88.975,72.4 C88.975,72.0066647 89.0349994,71.6466683 89.155,71.32 C89.2750006,70.9933317 89.4433322,70.7100012 89.66,70.47 C89.8766677,70.2299988 90.1333318,70.043334 90.43,69.91 C90.7266681,69.776666 91.0516649,69.71 91.405,69.71 C91.8650023,69.71 92.2466651,69.804999 92.55,69.995 C92.8533348,70.1850009 93.0966657,70.4266652 93.28,70.72 C93.4633342,71.0133348 93.5899996,71.3333316 93.66,71.68 C93.7300003,72.0266684 93.7583334,72.3566651 93.745,72.67 L89.875,72.67 C89.8683333,72.8966678 89.8949997,73.1116656 89.955,73.315 C90.0150003,73.5183343 90.111666,73.6983325 90.245,73.855 C90.378334,74.0116674 90.5483323,74.1366662 90.755,74.23 C90.9616677,74.3233338 91.2049986,74.37 91.485,74.37 C91.8450018,74.37 92.1399988,74.2866675 92.37,74.12 C92.6000011,73.9533325 92.7516663,73.7000017 92.825,73.36 L93.665,73.36 Z M94.595,69.83 L95.395,69.83 L95.395,70.92 L95.415,70.92 C95.6216677,70.4999979 95.8749985,70.190001 96.175,69.99 C96.4750015,69.789999 96.8549977,69.6966666 97.315,69.71 L97.315,70.61 C96.9749983,70.61 96.6850012,70.6566662 96.445,70.75 C96.2049988,70.8433338 96.0116674,70.9799991 95.865,71.16 C95.7183326,71.3400009 95.611667,71.558332 95.545,71.815 C95.478333,72.0716679 95.445,72.366665 95.445,72.7 L95.445,75 L94.595,75 L94.595,69.83 Z M98.475,73.37 C98.4816667,73.5566676 98.5249996,73.7149993 98.605,73.845 C98.6850004,73.9750006 98.7899993,74.0783329 98.92,74.155 C99.0500006,74.231667 99.1966658,74.2866665 99.36,74.32 C99.5233341,74.3533335 99.6916658,74.37 99.865,74.37 C99.998334,74.37 100.138333,74.3600001 100.285,74.34 C100.431667,74.3199999 100.566666,74.2833336 100.69,74.23 C100.813334,74.1766664 100.915,74.0983338 100.995,73.995 C101.075,73.8916661 101.115,73.7600008 101.115,73.6 C101.115,73.3799989 101.031667,73.2133339 100.865,73.1 C100.698332,72.9866661 100.490001,72.8950003 100.24,72.825 C99.9899987,72.7549996 99.7183348,72.6916669 99.425,72.635 C99.1316652,72.578333 98.8600012,72.4983338 98.61,72.395 C98.3599987,72.2916661 98.1516675,72.1466676 97.985,71.96 C97.8183325,71.7733324 97.735,71.513335 97.735,71.18 C97.735,70.9199987 97.7933327,70.6966676 97.91,70.51 C98.0266672,70.3233324 98.1766657,70.1716672 98.36,70.055 C98.5433342,69.9383327 98.7499988,69.8516669 98.98,69.795 C99.2100011,69.738333 99.4383322,69.71 99.665,69.71 C99.9583348,69.71 100.228332,69.7349997 100.475,69.785 C100.721668,69.8350002 100.939999,69.921666 101.13,70.045 C101.320001,70.1683339 101.471666,70.3349989 101.585,70.545 C101.698334,70.755001 101.765,71.0166651 101.785,71.33 L100.935,71.33 C100.921667,71.1633325 100.878334,71.0250005 100.805,70.915 C100.731666,70.8049994 100.638334,70.716667 100.525,70.65 C100.411666,70.583333 100.286667,70.5350001 100.15,70.505 C100.013333,70.4749998 99.8750007,70.46 99.735,70.46 C99.6083327,70.46 99.4800006,70.4699999 99.35,70.49 C99.2199993,70.5100001 99.1016672,70.5449997 98.995,70.595 C98.8883328,70.6450002 98.801667,70.7116662 98.735,70.795 C98.668333,70.8783337 98.635,70.986666 98.635,71.12 C98.635,71.2666674 98.6866661,71.3883328 98.79,71.485 C98.8933338,71.5816671 99.0249992,71.6616663 99.185,71.725 C99.3450008,71.7883336 99.524999,71.8416664 99.725,71.885 C99.925001,71.9283335 100.124999,71.9733331 100.325,72.02 C100.538334,72.0666669 100.746666,72.123333 100.95,72.19 C101.153334,72.256667 101.333333,72.3449994 101.49,72.455 C101.646667,72.5650005 101.773333,72.7033325 101.87,72.87 C101.966667,73.0366675 102.015,73.2433321 102.015,73.49 C102.015,73.8033349 101.950001,74.0633323 101.82,74.27 C101.689999,74.4766677 101.520001,74.6433327 101.31,74.77 C101.099999,74.8966673 100.863335,74.9849997 100.6,75.035 C100.336665,75.0850002 100.075001,75.11 99.815,75.11 C99.5283319,75.11 99.2550013,75.0800003 98.995,75.02 C98.7349987,74.9599997 98.505001,74.8616673 98.305,74.725 C98.104999,74.5883326 97.9450006,74.4083344 97.825,74.185 C97.7049994,73.9616655 97.6383334,73.6900016 97.625,73.37 L98.475,73.37 Z" id="Decoratewithyourfavouritestickers" fill="#6A6A6A" fill-rule="nonzero"></path>
                        <path d="M59.3625,36.971 C59.3625,37.379002 59.4361659,37.7246652 59.5835,38.008 C59.7308341,38.2913347 59.9263321,38.5208325 60.17,38.6965 C60.4136679,38.8721675 60.6998317,39.0024996 61.0285,39.0875 C61.3571683,39.1725004 61.6971649,39.215 62.0485,39.215 C62.2865012,39.215 62.5414986,39.1951669 62.8135,39.1555 C63.0855014,39.1158331 63.3404988,39.0393339 63.5785,38.926 C63.8165012,38.8126661 64.0148325,38.6568343 64.1735,38.4585 C64.3321675,38.2601657 64.4115,38.0080015 64.4115,37.702 C64.4115,37.3733317 64.3066677,37.107001 64.097,36.903 C63.8873323,36.698999 63.6125017,36.5290007 63.2725,36.393 C62.9324983,36.2569993 62.5471688,36.1380005 62.1165,36.036 C61.6858312,35.9339995 61.2495022,35.8206673 60.8075,35.696 C60.3541644,35.5826661 59.9121688,35.4438342 59.4815,35.2795 C59.0508312,35.1151658 58.6655017,34.902668 58.3255,34.642 C57.9854983,34.381332 57.7106677,34.055502 57.501,33.6645 C57.2913323,33.273498 57.1865,32.8003361 57.1865,32.245 C57.1865,31.6216635 57.3196653,31.0805023 57.586,30.6215 C57.8523347,30.1624977 58.2008312,29.7800015 58.6315,29.474 C59.0621688,29.1679985 59.5494973,28.9413341 60.0935,28.794 C60.6375027,28.6466659 61.1814973,28.573 61.7255,28.573 C62.3601698,28.573 62.9693304,28.6438326 63.553,28.7855 C64.1366696,28.9271674 64.6551644,29.1566651 65.1085,29.474 C65.5618356,29.7913349 65.9216653,30.1964975 66.188,30.6895 C66.4543347,31.1825025 66.5875,31.7803298 66.5875,32.483 L64.0035,32.483 C63.9808332,32.1203315 63.904334,31.8200012 63.774,31.582 C63.643666,31.3439988 63.4708344,31.1570007 63.2555,31.021 C63.0401656,30.8849993 62.7936681,30.7886669 62.516,30.732 C62.2383319,30.675333 61.9351683,30.647 61.6065,30.647 C61.3911656,30.647 61.1758344,30.6696664 60.9605,30.715 C60.7451656,30.7603336 60.5496675,30.8396661 60.374,30.953 C60.1983325,31.0663339 60.0538339,31.2079991 59.9405,31.378 C59.8271661,31.5480008 59.7705,31.763332 59.7705,32.024 C59.7705,32.2620012 59.8158329,32.4546659 59.9065,32.602 C59.9971671,32.7493341 60.1756653,32.8853327 60.442,33.01 C60.7083347,33.1346673 61.0766643,33.2593327 61.547,33.384 C62.0173357,33.5086673 62.6321629,33.6673324 63.3915,33.86 C63.6181678,33.9053336 63.9326647,33.9874994 64.335,34.1065 C64.7373353,34.2255006 65.1368313,34.415332 65.5335,34.676 C65.9301686,34.936668 66.2729986,35.2851645 66.562,35.7215 C66.8510014,36.1578355 66.9955,36.7159966 66.9955,37.396 C66.9955,37.9513361 66.8878344,38.4669976 66.6725,38.943 C66.4571656,39.4190024 66.1370021,39.8298316 65.712,40.1755 C65.2869979,40.5211684 64.7600031,40.7903324 64.131,40.983 C63.5019969,41.1756676 62.7738375,41.272 61.9465,41.272 C61.27783,41.272 60.6290031,41.1898342 60,41.0255 C59.3709969,40.8611658 58.8156691,40.6033351 58.334,40.252 C57.8523309,39.9006649 57.4698347,39.4530027 57.1865,38.909 C56.9031652,38.3649973 56.7671666,37.7190037 56.7785,36.971 L59.3625,36.971 Z M71.2625,31.106 L67.6245,31.106 L67.6245,28.862 L77.5695,28.862 L77.5695,31.106 L73.9315,31.106 L73.9315,41 L71.2625,41 L71.2625,31.106 Z M80.4595,36.308 L83.6045,36.308 L82.0745,31.854 L82.0405,31.854 L80.4595,36.308 Z M80.7145,28.862 L83.4515,28.862 L87.9905,41 L85.2195,41 L84.3015,38.297 L79.7625,38.297 L78.8105,41 L76.1245,41 L80.7145,28.862 Z M89.0445,28.862 L92.8015,28.862 L95.6405,37.209 L95.6745,37.209 L98.3605,28.862 L102.1175,28.862 L102.1175,41 L99.6185,41 L99.6185,32.398 L99.5845,32.398 L96.6095,41 L94.5525,41 L91.5775,32.483 L91.5435,32.483 L91.5435,41 L89.0445,41 L89.0445,28.862 Z M107.1325,34.574 L109.2065,34.574 C109.512502,34.574 109.807165,34.5513336 110.0905,34.506 C110.373835,34.4606664 110.623166,34.372834 110.8385,34.2425 C111.053834,34.112166 111.226666,33.9280012 111.357,33.69 C111.487334,33.4519988 111.5525,33.1403353 111.5525,32.755 C111.5525,32.3696647 111.487334,32.0580012 111.357,31.82 C111.226666,31.5819988 111.053834,31.397834 110.8385,31.2675 C110.623166,31.137166 110.373835,31.0493336 110.0905,31.004 C109.807165,30.9586664 109.512502,30.936 109.2065,30.936 L107.1325,30.936 L107.1325,34.574 Z M104.4635,28.862 L109.9375,28.862 C110.696837,28.862 111.342831,28.9724989 111.8755,29.1935 C112.408169,29.4145011 112.841665,29.7063315 113.176,30.069 C113.510335,30.4316685 113.753999,30.845331 113.907,31.31 C114.060001,31.774669 114.1365,32.2563308 114.1365,32.755 C114.1365,33.2423358 114.060001,33.7211643 113.907,34.1915 C113.753999,34.6618357 113.510335,35.0783315 113.176,35.441 C112.841665,35.8036685 112.408169,36.0954989 111.8755,36.3165 C111.342831,36.5375011 110.696837,36.648 109.9375,36.648 L107.1325,36.648 L107.1325,41 L104.4635,41 L104.4635,28.862 Z" id="STAMP" fill="#6A6A6A" fill-rule="nonzero"></path>
                    </g>
                </g>
            </g>
        </g>
    </g>
</svg>