<?xml version="1.0" encoding="UTF-8"?>
<svg width="40px" height="40px" viewBox="0 0 40 40" version="1.1" xmlns="http://www.w3.org/2000/svg" xmlns:xlink="http://www.w3.org/1999/xlink">
    <!-- Generator: Sketch 54.1 (76490) - https://sketchapp.com -->
    <title>Btn/STAMP_Normal</title>
    <desc>Created with Sketch.</desc>
    <g id="组件" stroke="none" stroke-width="1" fill="none" fill-rule="evenodd">
        <g id="Btn/STAMP_Normal">
            <g>
                <circle id="Oval" stroke="#DADADA" fill="#FFFFFF" cx="20" cy="20" r="19.5"></circle>
                <g id="Group-27" transform="translate(20.369683, 20.454277) rotate(18.000000) translate(-20.369683, -20.454277) translate(10.369683, 10.454277)">
                    <path d="M9.86312399,19.726248 C4.41587103,19.726248 0,15.310377 0,9.86312399 C0,4.41587103 4.41587103,0 9.86312399,0 C15.310377,0 19.726248,4.41587103 19.726248,9.86312399 C19.726248,15.310377 15.310377,19.726248 9.86312399,19.726248 Z M9.86312399,18.3172303 C14.532198,18.3172303 18.3172303,14.532198 18.3172303,9.86312399 C18.3172303,5.19405002 14.532198,1.40901771 9.86312399,1.40901771 C5.19405002,1.40901771 1.40901771,5.19405002 1.40901771,9.86312399 C1.40901771,14.532198 5.19405002,18.3172303 9.86312399,18.3172303 Z" id="Oval-10" fill="#1B1B1B"></path>
                    <circle id="Oval" fill="#3CB5AC" cx="6.48148148" cy="8.87681159" r="1.12721417"></circle>
                    <circle id="Oval-Copy-105" fill="#3CB5AC" cx="11.8357488" cy="7.04508857" r="1.12721417"></circle>
                    <path d="M5.48947892,13.486175 C5.19216174,13.2351907 5.15460154,12.7907045 5.40558586,12.4933873 C5.65657019,12.1960701 6.10105638,12.1585099 6.39837356,12.4094942 C7.98336603,13.7474871 9.74543736,14.0260466 11.3001903,13.3674142 C12.7372477,12.7586406 13.7893356,11.4130661 13.9930496,9.90944163 C14.0452869,9.52387465 14.4001975,9.25365762 14.7857645,9.305895 C15.1713315,9.35813237 15.4415485,9.71304292 15.3893111,10.0986099 C15.1179857,12.1012775 13.7395067,13.8642921 11.8498031,14.664818 C9.80278494,15.5319863 7.47750074,15.1643905 5.48947892,13.486175 Z" id="Path-88" fill="#FF0000" fill-rule="nonzero"></path>
                </g>
            </g>
        </g>
    </g>
</svg>