<?xml version="1.0" encoding="UTF-8"?>
<svg width="170px" height="55px" viewBox="0 0 170 55" version="1.1" xmlns="http://www.w3.org/2000/svg" xmlns:xlink="http://www.w3.org/1999/xlink">
    <!-- Generator: Sketch 55.2 (78181) - https://sketchapp.com -->
    <title>Stamp_Text_Normal</title>
    <desc>Created with Sketch.</desc>
    <g id="Make" stroke="none" stroke-width="1" fill="none" fill-rule="evenodd">
        <g id="C-01&gt;Make-Graphic&gt;Forbid&gt;EN备份" transform="translate(-193.000000, -541.000000)">
            <g id="Content" transform="translate(12.000000, 64.000000)">
                <g id="04_STAMP" transform="translate(181.000000, 283.000000)">
                    <g id="Stamp_Text_Normal" transform="translate(0.000000, 194.000000)">
                        <g>
                            <rect id="矩形" fill-opacity="0.01" fill="#FFFFFF" x="0" y="0" width="170" height="55"></rect>
                            <path d="M22.5244141,39 L22.5244141,31.890625 L24.7607422,31.890625 C25.6884812,31.890625 26.4347302,32.1762667 26.9995117,32.7475586 C27.5642932,33.3188505 27.8466797,34.0569616 27.8466797,34.9619141 L27.8466797,35.9335938 C27.8466797,36.8418014 27.5642932,37.5799125 26.9995117,38.1479492 C26.4347302,38.7159859 25.6884812,39 24.7607422,39 L22.5244141,39 Z M23.4863281,32.6474609 L23.4863281,38.2480469 L24.7607422,38.2480469 C25.4182976,38.2480469 25.9366843,38.0315777 26.315918,37.5986328 C26.6951516,37.1656879 26.8847656,36.6106805 26.8847656,35.9335938 L26.8847656,34.9521484 C26.8847656,34.2815722 26.6951516,33.7298199 26.315918,33.296875 C25.9366843,32.8639301 25.4182976,32.6474609 24.7607422,32.6474609 L23.4863281,32.6474609 Z M31.3525391,39.1025391 C30.5940717,39.1025391 30.0024435,38.8600285 29.5776367,38.375 C29.1528299,37.8899715 28.9404297,37.2519571 28.9404297,36.4609375 L28.9404297,36.2460938 C28.9404297,35.4876264 29.1593403,34.8601913 29.597168,34.3637695 C30.0349957,33.8673478 30.5696583,33.6191406 31.2011719,33.6191406 C31.9075556,33.6191406 32.4373355,33.838865 32.7905273,34.2783203 C33.1437192,34.7177756 33.3203125,35.3020797 33.3203125,36.03125 L33.3203125,36.5390625 L29.9414062,36.5390625 L29.9267578,36.5634766 C29.9267578,37.0940782 30.0439441,37.5245752 30.2783203,37.8549805 C30.5126965,38.1853858 30.8707658,38.3505859 31.3525391,38.3505859 C31.6780615,38.3505859 31.9637032,38.3041997 32.2094727,38.2114258 C32.4552421,38.1186519 32.6660147,37.9908862 32.8417969,37.828125 L33.2177734,38.453125 C33.0289704,38.6354176 32.7799495,38.7892246 32.4707031,38.9145508 C32.1614568,39.0398769 31.7887392,39.1025391 31.3525391,39.1025391 Z M31.2011719,34.3759766 C30.8658837,34.3759766 30.58838,34.5053698 30.3686523,34.7641602 C30.1489247,35.0229505 30.0146487,35.3541646 29.9658203,35.7578125 L29.9755859,35.7822266 L32.3583984,35.7822266 L32.3583984,35.7041016 C32.3583984,35.3199851 32.2639983,35.0026054 32.0751953,34.7519531 C31.8863923,34.5013008 31.5950541,34.3759766 31.2011719,34.3759766 Z M36.4990234,38.3505859 C36.7952489,38.3505859 37.0540354,38.2521169 37.2753906,38.0551758 C37.4967459,37.8582347 37.6074219,37.6165379 37.6074219,37.3300781 L38.4765625,37.3300781 L38.4912109,37.359375 C38.5042318,37.8151064 38.3089213,38.219562 37.9052734,38.5727539 C37.5016256,38.9259458 37.0328803,39.1025391 36.4990234,39.1025391 C35.7568322,39.1025391 35.1839213,38.8502629 34.7802734,38.3457031 C34.3766256,37.8411433 34.1748047,37.2128944 34.1748047,36.4609375 L34.1748047,36.2558594 C34.1748047,35.5104129 34.3774394,34.8846054 34.7827148,34.378418 C35.1879903,33.8722305 35.7600875,33.6191406 36.4990234,33.6191406 C37.0882191,33.6191406 37.5707989,33.8014305 37.9467773,34.1660156 C38.3227558,34.5306008 38.5042318,34.9781875 38.4912109,35.5087891 L38.4814453,35.5380859 L37.6074219,35.5380859 C37.6074219,35.2158187 37.5024425,34.9415701 37.2924805,34.715332 C37.0825185,34.4890939 36.8180354,34.3759766 36.4990234,34.3759766 C36.0270159,34.3759766 35.682781,34.5590802 35.4663086,34.925293 C35.2498362,35.2915057 35.1416016,35.7350234 35.1416016,36.2558594 L35.1416016,36.4609375 C35.1416016,36.9915391 35.2482086,37.4391258 35.4614258,37.8037109 C35.674643,38.1682961 36.0205054,38.3505859 36.4990234,38.3505859 Z M39.4091797,36.3095703 C39.4091797,35.5283164 39.6207661,34.8846054 40.0439453,34.378418 C40.4671245,33.8722305 41.041663,33.6191406 41.7675781,33.6191406 C42.5000037,33.6191406 43.0786112,33.8714167 43.503418,34.3759766 C43.9282248,34.8805364 44.140625,35.5250612 44.140625,36.3095703 L44.140625,36.4169922 C44.140625,37.2047565 43.9290386,37.8492813 43.5058594,38.3505859 C43.0826802,38.8518905 42.5065141,39.1025391 41.7773438,39.1025391 C41.0481734,39.1025391 40.4711935,38.8510767 40.0463867,38.3481445 C39.6215799,37.8452123 39.4091797,37.2015013 39.4091797,36.4169922 L39.4091797,36.3095703 Z M40.3710938,36.4169922 C40.3710938,36.9768908 40.4890939,37.4391258 40.7250977,37.8037109 C40.9611014,38.1682961 41.3118466,38.3505859 41.7773438,38.3505859 C42.2363304,38.3505859 42.5846342,38.1682961 42.8222656,37.8037109 C43.059897,37.4391258 43.1787109,36.9768908 43.1787109,36.4169922 L43.1787109,36.3095703 C43.1787109,35.7561821 43.0590832,35.2955748 42.8198242,34.9277344 C42.5805652,34.559894 42.22982,34.3759766 41.7675781,34.3759766 C41.3085915,34.3759766 40.9611014,34.559894 40.7250977,34.9277344 C40.4890939,35.2955748 40.3710938,35.7561821 40.3710938,36.3095703 L40.3710938,36.4169922 Z M47.8173828,34.5664062 L47.3242188,34.5371094 C47.0703112,34.5371094 46.8562834,34.5973301 46.6821289,34.7177734 C46.5079744,34.8382167 46.3736984,35.0074859 46.2792969,35.2255859 L46.2792969,39 L45.3173828,39 L45.3173828,33.7167969 L46.1767578,33.7167969 L46.2695312,34.4882812 C46.4192716,34.2148424 46.6040028,34.0016284 46.8237305,33.8486328 C47.0434581,33.6956373 47.296548,33.6191406 47.5830078,33.6191406 C47.6546228,33.6191406 47.7229814,33.6248372 47.7880859,33.6362305 C47.8531904,33.6476238 47.9069008,33.6598307 47.9492188,33.6728516 L47.8173828,34.5664062 Z M52.0654297,39 C52.0328774,38.840494 52.0076498,38.6997076 51.9897461,38.5776367 C51.9718424,38.4555658 51.961263,38.3326829 51.9580078,38.2089844 C51.7789705,38.4628919 51.5454116,38.6752921 51.2573242,38.8461914 C50.9692368,39.0170907 50.6591813,39.1025391 50.3271484,39.1025391 C49.7770155,39.1025391 49.3579116,38.9617527 49.0698242,38.6801758 C48.7817368,38.3985989 48.6376953,38.0104191 48.6376953,37.515625 C48.6376953,37.0110652 48.8419576,36.6163751 49.2504883,36.331543 C49.659019,36.0467108 50.2132126,35.9042969 50.9130859,35.9042969 L51.9580078,35.9042969 L51.9580078,35.3818359 C51.9580078,35.0725896 51.8636077,34.8276376 51.6748047,34.6469727 C51.4860017,34.4663077 51.2190772,34.3759766 50.8740234,34.3759766 C50.5615219,34.3759766 50.3092458,34.4541008 50.1171875,34.6103516 C49.9251292,34.7666023 49.8291016,34.953775 49.8291016,35.171875 L48.9160156,35.1816406 L48.90625,35.1523438 C48.8834634,34.7682272 49.0633119,34.4166683 49.4458008,34.0976562 C49.8282897,33.7786442 50.3222626,33.6191406 50.9277344,33.6191406 C51.5266957,33.6191406 52.0084617,33.7713201 52.3730469,34.0756836 C52.737632,34.3800471 52.9199219,34.818682 52.9199219,35.3916016 L52.9199219,37.9355469 C52.9199219,38.1243499 52.9296874,38.3066397 52.9492188,38.4824219 C52.9687501,38.658204 53.004557,38.8307283 53.0566406,39 L52.0654297,39 Z M50.46875,38.296875 C50.817059,38.296875 51.1311835,38.2073577 51.4111328,38.0283203 C51.6910821,37.849283 51.873372,37.6442069 51.9580078,37.4130859 L51.9580078,36.5537109 L50.8789062,36.5537109 C50.4915345,36.5537109 50.181479,36.6513662 49.9487305,36.8466797 C49.7159819,37.0419932 49.5996094,37.2714831 49.5996094,37.5351562 C49.5996094,37.7695324 49.6728508,37.9550774 49.8193359,38.0917969 C49.965821,38.2285163 50.1822902,38.296875 50.46875,38.296875 Z M55.6542969,32.4423828 L55.6542969,33.7167969 L56.6552734,33.7167969 L56.6552734,34.4296875 L55.6542969,34.4296875 L55.6542969,37.6376953 C55.6542969,37.8850924 55.7055659,38.0592443 55.8081055,38.1601562 C55.910645,38.2610682 56.0465486,38.3115234 56.2158203,38.3115234 C56.2711591,38.3115234 56.3330075,38.3041993 56.4013672,38.2895508 C56.4697269,38.2749023 56.5266925,38.2594402 56.5722656,38.2431641 L56.7041016,38.9023438 C56.6324866,38.9609378 56.5266934,39.0089516 56.3867188,39.0463867 C56.2467441,39.0838218 56.1083991,39.1025391 55.9716797,39.1025391 C55.5810527,39.1025391 55.2701834,38.9845389 55.0390625,38.7485352 C54.8079416,38.5125314 54.6923828,38.1422551 54.6923828,37.6376953 L54.6923828,34.4296875 L53.8525391,34.4296875 L53.8525391,33.7167969 L54.6923828,33.7167969 L54.6923828,32.4423828 L55.6542969,32.4423828 Z M59.8730469,39.1025391 C59.1145795,39.1025391 58.5229513,38.8600285 58.0981445,38.375 C57.6733377,37.8899715 57.4609375,37.2519571 57.4609375,36.4609375 L57.4609375,36.2460938 C57.4609375,35.4876264 57.6798481,34.8601913 58.1176758,34.3637695 C58.5555035,33.8673478 59.0901661,33.6191406 59.7216797,33.6191406 C60.4280634,33.6191406 60.9578433,33.838865 61.3110352,34.2783203 C61.664227,34.7177756 61.8408203,35.3020797 61.8408203,36.03125 L61.8408203,36.5390625 L58.4619141,36.5390625 L58.4472656,36.5634766 C58.4472656,37.0940782 58.564452,37.5245752 58.7988281,37.8549805 C59.0332043,38.1853858 59.3912736,38.3505859 59.8730469,38.3505859 C60.1985693,38.3505859 60.484211,38.3041997 60.7299805,38.2114258 C60.9757499,38.1186519 61.1865226,37.9908862 61.3623047,37.828125 L61.7382812,38.453125 C61.5494782,38.6354176 61.3004573,38.7892246 60.9912109,38.9145508 C60.6819646,39.0398769 60.309247,39.1025391 59.8730469,39.1025391 Z M59.7216797,34.3759766 C59.3863916,34.3759766 59.1088878,34.5053698 58.8891602,34.7641602 C58.6694325,35.0229505 58.5351565,35.3541646 58.4863281,35.7578125 L58.4960938,35.7822266 L60.8789062,35.7822266 L60.8789062,35.7041016 C60.8789062,35.3199851 60.7845062,35.0026054 60.5957031,34.7519531 C60.4069001,34.5013008 60.1155619,34.3759766 59.7216797,34.3759766 Z M66.7578125,37.0761719 L66.8798828,37.7548828 L66.9091797,37.7548828 L67.0361328,37.0761719 L68.0908203,33.7167969 L68.8623047,33.7167969 L69.921875,37.0761719 L70.0585938,37.8330078 L70.0878906,37.8330078 L70.2441406,37.0761719 L71.0253906,33.7167969 L72.03125,33.7167969 L70.4980469,39 L69.7216797,39 L68.6767578,35.7822266 L68.4765625,34.9423828 L68.4472656,34.9423828 L68.2617188,35.7822266 L67.2363281,39 L66.4599609,39 L64.9267578,33.7167969 L65.9277344,33.7167969 L66.7578125,37.0761719 Z M74.0136719,39 L73.0517578,39 L73.0517578,33.7167969 L74.0136719,33.7167969 L74.0136719,39 Z M74.0136719,32.3642578 L73.0517578,32.3642578 L73.0517578,31.3828125 L74.0136719,31.3828125 L74.0136719,32.3642578 Z M76.8310547,32.4423828 L76.8310547,33.7167969 L77.8320312,33.7167969 L77.8320312,34.4296875 L76.8310547,34.4296875 L76.8310547,37.6376953 C76.8310547,37.8850924 76.8823237,38.0592443 76.9848633,38.1601562 C77.0874029,38.2610682 77.2233064,38.3115234 77.3925781,38.3115234 C77.4479169,38.3115234 77.5097653,38.3041993 77.578125,38.2895508 C77.6464847,38.2749023 77.7034503,38.2594402 77.7490234,38.2431641 L77.8808594,38.9023438 C77.8092444,38.9609378 77.7034512,39.0089516 77.5634766,39.0463867 C77.4235019,39.0838218 77.2851569,39.1025391 77.1484375,39.1025391 C76.7578105,39.1025391 76.4469413,38.9845389 76.2158203,38.7485352 C75.9846994,38.5125314 75.8691406,38.1422551 75.8691406,37.6376953 L75.8691406,34.4296875 L75.0292969,34.4296875 L75.0292969,33.7167969 L75.8691406,33.7167969 L75.8691406,32.4423828 L76.8310547,32.4423828 Z M79.8242188,34.4248047 C80.0065113,34.1708972 80.2303047,33.9731452 80.4956055,33.831543 C80.7609063,33.6899407 81.0546859,33.6191406 81.3769531,33.6191406 C81.940107,33.6191406 82.3787419,33.7884098 82.6928711,34.1269531 C83.0070003,34.4654965 83.1640625,34.9863246 83.1640625,35.6894531 L83.1640625,39 L82.2021484,39 L82.2021484,35.6796875 C82.2021484,35.2434874 82.1085621,34.921225 81.9213867,34.7128906 C81.7342113,34.5045563 81.45508,34.4003906 81.0839844,34.4003906 C80.7975246,34.4003906 80.5485037,34.4565424 80.3369141,34.5688477 C80.1253245,34.6811529 79.9544277,34.8382151 79.8242188,35.0400391 L79.8242188,39 L78.8623047,39 L78.8623047,31.3828125 L79.8242188,31.3828125 L79.8242188,34.4248047 Z M88.6474609,37.0419922 L88.8183594,37.7060547 L88.8476562,37.7060547 L90.1464844,33.7167969 L91.2158203,33.7167969 L88.9941406,39.8105469 C88.8606764,40.1653664 88.6694348,40.4746081 88.4204102,40.7382812 C88.1713855,41.0019544 87.8352886,41.1337891 87.4121094,41.1337891 C87.333984,41.1337891 87.2347011,41.1248373 87.1142578,41.1069336 C86.9938145,41.0890299 86.901042,41.0719402 86.8359375,41.0556641 L86.9335938,40.2988281 C86.9140624,40.2955729 86.9718418,40.2988281 87.1069336,40.3085938 C87.2420254,40.3183594 87.3274738,40.3232422 87.3632812,40.3232422 C87.5683604,40.3232422 87.736002,40.2320973 87.8662109,40.0498047 C87.9964199,39.8675121 88.1054683,39.6656912 88.1933594,39.4443359 L88.4228516,38.8925781 L86.4599609,33.7167969 L87.5341797,33.7167969 L88.6474609,37.0419922 Z M91.7626953,36.3095703 C91.7626953,35.5283164 91.9742817,34.8846054 92.3974609,34.378418 C92.8206401,33.8722305 93.3951787,33.6191406 94.1210938,33.6191406 C94.8535193,33.6191406 95.4321268,33.8714167 95.8569336,34.3759766 C96.2817404,34.8805364 96.4941406,35.5250612 96.4941406,36.3095703 L96.4941406,36.4169922 C96.4941406,37.2047565 96.2825542,37.8492813 95.859375,38.3505859 C95.4361958,38.8518905 94.8600297,39.1025391 94.1308594,39.1025391 C93.4016891,39.1025391 92.8247092,38.8510767 92.3999023,38.3481445 C91.9750955,37.8452123 91.7626953,37.2015013 91.7626953,36.4169922 L91.7626953,36.3095703 Z M92.7246094,36.4169922 C92.7246094,36.9768908 92.8426095,37.4391258 93.0786133,37.8037109 C93.3146171,38.1682961 93.6653623,38.3505859 94.1308594,38.3505859 C94.589846,38.3505859 94.9381499,38.1682961 95.1757812,37.8037109 C95.4134126,37.4391258 95.5322266,36.9768908 95.5322266,36.4169922 L95.5322266,36.3095703 C95.5322266,35.7561821 95.4125989,35.2955748 95.1733398,34.9277344 C94.9340808,34.559894 94.5833356,34.3759766 94.1210938,34.3759766 C93.6621071,34.3759766 93.3146171,34.559894 93.0786133,34.9277344 C92.8426095,35.2955748 92.7246094,35.7561821 92.7246094,36.3095703 L92.7246094,36.4169922 Z M101.025391,38.21875 C100.859374,38.5019545 100.64616,38.7200513 100.385742,38.8730469 C100.125324,39.0260424 99.8242205,39.1025391 99.4824219,39.1025391 C98.9062471,39.1025391 98.4570329,38.9186216 98.1347656,38.5507812 C97.8124984,38.1829409 97.6513672,37.6100299 97.6513672,36.8320312 L97.6513672,33.7167969 L98.6132812,33.7167969 L98.6132812,36.8417969 C98.6132812,37.4049507 98.6962882,37.7923167 98.8623047,38.0039062 C99.0283211,38.2154958 99.2871076,38.3212891 99.6386719,38.3212891 C99.9804705,38.3212891 100.262857,38.2521166 100.48584,38.1137695 C100.708823,37.9754225 100.877278,37.7792981 100.991211,37.5253906 L100.991211,33.7167969 L101.953125,33.7167969 L101.953125,39 L101.088867,39 L101.025391,38.21875 Z M105.854492,34.5664062 L105.361328,34.5371094 C105.107421,34.5371094 104.893393,34.5973301 104.719238,34.7177734 C104.545084,34.8382167 104.410808,35.0074859 104.316406,35.2255859 L104.316406,39 L103.354492,39 L103.354492,33.7167969 L104.213867,33.7167969 L104.306641,34.4882812 C104.456381,34.2148424 104.641112,34.0016284 104.86084,33.8486328 C105.080568,33.6956373 105.333657,33.6191406 105.620117,33.6191406 C105.691732,33.6191406 105.760091,33.6248372 105.825195,33.6362305 C105.8903,33.6476238 105.94401,33.6598307 105.986328,33.6728516 L105.854492,34.5664062 Z M109.741211,39 L109.741211,34.4296875 L108.916016,34.4296875 L108.916016,33.7167969 L109.741211,33.7167969 L109.741211,33.0478516 C109.741211,32.4846977 109.888508,32.0493179 110.183105,31.7416992 C110.477703,31.4340805 110.888669,31.2802734 111.416016,31.2802734 C111.526693,31.2802734 111.638183,31.2892252 111.750488,31.3071289 C111.862794,31.3250326 111.987304,31.3502603 112.124023,31.3828125 L112.006836,32.1152344 C111.948242,32.1022135 111.877442,32.0908204 111.794434,32.0810547 C111.711425,32.071289 111.624349,32.0664062 111.533203,32.0664062 C111.253254,32.0664062 111.044923,32.150227 110.908203,32.3178711 C110.771484,32.4855152 110.703125,32.7288396 110.703125,33.0478516 L110.703125,33.7167969 L111.660156,33.7167969 L111.660156,34.4296875 L110.703125,34.4296875 L110.703125,39 L109.741211,39 Z M115.878906,39 C115.846354,38.840494 115.821126,38.6997076 115.803223,38.5776367 C115.785319,38.4555658 115.77474,38.3326829 115.771484,38.2089844 C115.592447,38.4628919 115.358888,38.6752921 115.070801,38.8461914 C114.782713,39.0170907 114.472658,39.1025391 114.140625,39.1025391 C113.590492,39.1025391 113.171388,38.9617527 112.883301,38.6801758 C112.595213,38.3985989 112.451172,38.0104191 112.451172,37.515625 C112.451172,37.0110652 112.655434,36.6163751 113.063965,36.331543 C113.472496,36.0467108 114.026689,35.9042969 114.726562,35.9042969 L115.771484,35.9042969 L115.771484,35.3818359 C115.771484,35.0725896 115.677084,34.8276376 115.488281,34.6469727 C115.299478,34.4663077 115.032554,34.3759766 114.6875,34.3759766 C114.374998,34.3759766 114.122722,34.4541008 113.930664,34.6103516 C113.738606,34.7666023 113.642578,34.953775 113.642578,35.171875 L112.729492,35.1816406 L112.719727,35.1523438 C112.69694,34.7682272 112.876788,34.4166683 113.259277,34.0976562 C113.641766,33.7786442 114.135739,33.6191406 114.741211,33.6191406 C115.340172,33.6191406 115.821938,33.7713201 116.186523,34.0756836 C116.551109,34.3800471 116.733398,34.818682 116.733398,35.3916016 L116.733398,37.9355469 C116.733398,38.1243499 116.743164,38.3066397 116.762695,38.4824219 C116.782227,38.658204 116.818034,38.8307283 116.870117,39 L115.878906,39 Z M114.282227,38.296875 C114.630536,38.296875 114.94466,38.2073577 115.224609,38.0283203 C115.504559,37.849283 115.686849,37.6442069 115.771484,37.4130859 L115.771484,36.5537109 L114.692383,36.5537109 C114.305011,36.5537109 113.994956,36.6513662 113.762207,36.8466797 C113.529458,37.0419932 113.413086,37.2714831 113.413086,37.5351562 C113.413086,37.7695324 113.486327,37.9550774 113.632812,38.0917969 C113.779298,38.2285163 113.995767,38.296875 114.282227,38.296875 Z M119.819336,37.4423828 L119.902344,37.8134766 L119.931641,37.8134766 L120.024414,37.4423828 L121.240234,33.7167969 L122.22168,33.7167969 L120.27832,39 L119.550781,39 L117.583008,33.7167969 L118.569336,33.7167969 L119.819336,37.4423828 Z M122.788086,36.3095703 C122.788086,35.5283164 122.999672,34.8846054 123.422852,34.378418 C123.846031,33.8722305 124.420569,33.6191406 125.146484,33.6191406 C125.87891,33.6191406 126.457517,33.8714167 126.882324,34.3759766 C127.307131,34.8805364 127.519531,35.5250612 127.519531,36.3095703 L127.519531,36.4169922 C127.519531,37.2047565 127.307945,37.8492813 126.884766,38.3505859 C126.461586,38.8518905 125.88542,39.1025391 125.15625,39.1025391 C124.42708,39.1025391 123.8501,38.8510767 123.425293,38.3481445 C123.000486,37.8452123 122.788086,37.2015013 122.788086,36.4169922 L122.788086,36.3095703 Z M123.75,36.4169922 C123.75,36.9768908 123.868,37.4391258 124.104004,37.8037109 C124.340008,38.1682961 124.690753,38.3505859 125.15625,38.3505859 C125.615237,38.3505859 125.96354,38.1682961 126.201172,37.8037109 C126.438803,37.4391258 126.557617,36.9768908 126.557617,36.4169922 L126.557617,36.3095703 C126.557617,35.7561821 126.437989,35.2955748 126.19873,34.9277344 C125.959471,34.559894 125.608726,34.3759766 125.146484,34.3759766 C124.687498,34.3759766 124.340008,34.559894 124.104004,34.9277344 C123.868,35.2955748 123.75,35.7561821 123.75,36.3095703 L123.75,36.4169922 Z M132.050781,38.21875 C131.884765,38.5019545 131.671551,38.7200513 131.411133,38.8730469 C131.150715,39.0260424 130.849611,39.1025391 130.507812,39.1025391 C129.931638,39.1025391 129.482423,38.9186216 129.160156,38.5507812 C128.837889,38.1829409 128.676758,37.6100299 128.676758,36.8320312 L128.676758,33.7167969 L129.638672,33.7167969 L129.638672,36.8417969 C129.638672,37.4049507 129.721679,37.7923167 129.887695,38.0039062 C130.053712,38.2154958 130.312498,38.3212891 130.664062,38.3212891 C131.005861,38.3212891 131.288248,38.2521166 131.51123,38.1137695 C131.734213,37.9754225 131.902669,37.7792981 132.016602,37.5253906 L132.016602,33.7167969 L132.978516,33.7167969 L132.978516,39 L132.114258,39 L132.050781,38.21875 Z M136.879883,34.5664062 L136.386719,34.5371094 C136.132811,34.5371094 135.918783,34.5973301 135.744629,34.7177734 C135.570474,34.8382167 135.436198,35.0074859 135.341797,35.2255859 L135.341797,39 L134.379883,39 L134.379883,33.7167969 L135.239258,33.7167969 L135.332031,34.4882812 C135.481772,34.2148424 135.666503,34.0016284 135.88623,33.8486328 C136.105958,33.6956373 136.359048,33.6191406 136.645508,33.6191406 C136.717123,33.6191406 136.785481,33.6248372 136.850586,33.6362305 C136.91569,33.6476238 136.969401,33.6598307 137.011719,33.6728516 L136.879883,34.5664062 Z M138.920898,39 L137.958984,39 L137.958984,33.7167969 L138.920898,33.7167969 L138.920898,39 Z M138.920898,32.3642578 L137.958984,32.3642578 L137.958984,31.3828125 L138.920898,31.3828125 L138.920898,32.3642578 Z M141.738281,32.4423828 L141.738281,33.7167969 L142.739258,33.7167969 L142.739258,34.4296875 L141.738281,34.4296875 L141.738281,37.6376953 C141.738281,37.8850924 141.78955,38.0592443 141.89209,38.1601562 C141.994629,38.2610682 142.130533,38.3115234 142.299805,38.3115234 C142.355144,38.3115234 142.416992,38.3041993 142.485352,38.2895508 C142.553711,38.2749023 142.610677,38.2594402 142.65625,38.2431641 L142.788086,38.9023438 C142.716471,38.9609378 142.610678,39.0089516 142.470703,39.0463867 C142.330728,39.0838218 142.192383,39.1025391 142.055664,39.1025391 C141.665037,39.1025391 141.354168,38.9845389 141.123047,38.7485352 C140.891926,38.5125314 140.776367,38.1422551 140.776367,37.6376953 L140.776367,34.4296875 L139.936523,34.4296875 L139.936523,33.7167969 L140.776367,33.7167969 L140.776367,32.4423828 L141.738281,32.4423828 Z M145.957031,39.1025391 C145.198564,39.1025391 144.606936,38.8600285 144.182129,38.375 C143.757322,37.8899715 143.544922,37.2519571 143.544922,36.4609375 L143.544922,36.2460938 C143.544922,35.4876264 143.763832,34.8601913 144.20166,34.3637695 C144.639488,33.8673478 145.17415,33.6191406 145.805664,33.6191406 C146.512048,33.6191406 147.041828,33.838865 147.39502,34.2783203 C147.748211,34.7177756 147.924805,35.3020797 147.924805,36.03125 L147.924805,36.5390625 L144.545898,36.5390625 L144.53125,36.5634766 C144.53125,37.0940782 144.648436,37.5245752 144.882812,37.8549805 C145.117189,38.1853858 145.475258,38.3505859 145.957031,38.3505859 C146.282554,38.3505859 146.568195,38.3041997 146.813965,38.2114258 C147.059734,38.1186519 147.270507,37.9908862 147.446289,37.828125 L147.822266,38.453125 C147.633463,38.6354176 147.384442,38.7892246 147.075195,38.9145508 C146.765949,39.0398769 146.393231,39.1025391 145.957031,39.1025391 Z M145.805664,34.3759766 C145.470376,34.3759766 145.192872,34.5053698 144.973145,34.7641602 C144.753417,35.0229505 144.619141,35.3541646 144.570312,35.7578125 L144.580078,35.7822266 L146.962891,35.7822266 L146.962891,35.7041016 C146.962891,35.3199851 146.868491,35.0026054 146.679688,34.7519531 C146.490884,34.5013008 146.199546,34.3759766 145.805664,34.3759766 Z M71.0961914,48.5791016 C71.0961914,48.367512 71.0156258,48.1949876 70.8544922,48.0615234 C70.6933586,47.9280592 70.3881858,47.8108729 69.9389648,47.7099609 C69.3172169,47.5764967 68.8395199,47.3893241 68.5058594,47.1484375 C68.1721989,46.9075509 68.0053711,46.5852885 68.0053711,46.1816406 C68.0053711,45.751951 68.1884747,45.3841161 68.5546875,45.078125 C68.9209003,44.7721339 69.3953421,44.6191406 69.9780273,44.6191406 C70.5769887,44.6191406 71.0620099,44.7818994 71.4331055,45.1074219 C71.8042011,45.4329443 71.9816082,45.8121723 71.965332,46.2451172 L71.9555664,46.2744141 L71.0375977,46.2744141 C71.0375977,46.0465483 70.937501,45.8398447 70.7373047,45.6542969 C70.5371084,45.4687491 70.2840185,45.3759766 69.9780273,45.3759766 C69.639484,45.3759766 69.3863941,45.4524732 69.21875,45.6054688 C69.0511059,45.7584643 68.9672852,45.9407542 68.9672852,46.1523438 C68.9672852,46.3606781 69.0397128,46.5218093 69.1845703,46.6357422 C69.3294278,46.749675 69.6280902,46.8538407 70.0805664,46.9482422 C70.7283561,47.0849616 71.2198876,47.2786446 71.5551758,47.5292969 C71.8904639,47.7799492 72.0581055,48.1070943 72.0581055,48.5107422 C72.0581055,48.9794945 71.8684915,49.3619777 71.4892578,49.6582031 C71.1100241,49.9544286 70.6144236,50.1025391 70.0024414,50.1025391 C69.3286099,50.1025391 68.7980163,49.9316423 68.4106445,49.5898438 C68.0232728,49.2480452 67.8393554,48.8492861 67.8588867,48.3935547 L67.8686523,48.3642578 L68.7866211,48.3642578 C68.8028972,48.7060564 68.9298491,48.9558911 69.1674805,49.1137695 C69.4051119,49.2716479 69.6834294,49.3505859 70.0024414,49.3505859 C70.34424,49.3505859 70.6119782,49.2781583 70.8056641,49.1333008 C70.9993499,48.9884433 71.0961914,48.8037121 71.0961914,48.5791016 Z M74.5922852,43.4423828 L74.5922852,44.7167969 L75.5932617,44.7167969 L75.5932617,45.4296875 L74.5922852,45.4296875 L74.5922852,48.6376953 C74.5922852,48.8850924 74.6435542,49.0592443 74.7460938,49.1601562 C74.8486333,49.2610682 74.9845369,49.3115234 75.1538086,49.3115234 C75.2091474,49.3115234 75.2709958,49.3041993 75.3393555,49.2895508 C75.4077152,49.2749023 75.4646808,49.2594402 75.5102539,49.2431641 L75.6420898,49.9023438 C75.5704749,49.9609378 75.4646817,50.0089516 75.324707,50.0463867 C75.1847324,50.0838218 75.0463874,50.1025391 74.909668,50.1025391 C74.519041,50.1025391 74.2081717,49.9845389 73.9770508,49.7485352 C73.7459298,49.5125314 73.6303711,49.1422551 73.6303711,48.6376953 L73.6303711,45.4296875 L72.7905273,45.4296875 L72.7905273,44.7167969 L73.6303711,44.7167969 L73.6303711,43.4423828 L74.5922852,43.4423828 Z M77.6635742,50 L76.7016602,50 L76.7016602,44.7167969 L77.6635742,44.7167969 L77.6635742,50 Z M77.6635742,43.3642578 L76.7016602,43.3642578 L76.7016602,42.3828125 L77.6635742,42.3828125 L77.6635742,43.3642578 Z M81.2426758,49.3505859 C81.5389012,49.3505859 81.7976877,49.2521169 82.019043,49.0551758 C82.2403982,48.8582347 82.3510742,48.6165379 82.3510742,48.3300781 L83.2202148,48.3300781 L83.2348633,48.359375 C83.2478842,48.8151064 83.0525736,49.219562 82.6489258,49.5727539 C82.2452779,49.9259458 81.7765326,50.1025391 81.2426758,50.1025391 C80.5004846,50.1025391 79.9275736,49.8502629 79.5239258,49.3457031 C79.1202779,48.8411433 78.918457,48.2128944 78.918457,47.4609375 L78.918457,47.2558594 C78.918457,46.5104129 79.1210917,45.8846054 79.5263672,45.378418 C79.9316427,44.8722305 80.5037398,44.6191406 81.2426758,44.6191406 C81.8318714,44.6191406 82.3144512,44.8014305 82.6904297,45.1660156 C83.0664081,45.5306008 83.2478842,45.9781875 83.2348633,46.5087891 L83.2250977,46.5380859 L82.3510742,46.5380859 C82.3510742,46.2158187 82.2460948,45.9415701 82.0361328,45.715332 C81.8261708,45.4890939 81.5616878,45.3759766 81.2426758,45.3759766 C80.7706682,45.3759766 80.4264334,45.5590802 80.2099609,45.925293 C79.9934885,46.2915057 79.8852539,46.7350234 79.8852539,47.2558594 L79.8852539,47.4609375 C79.8852539,47.9915391 79.9918609,48.4391258 80.2050781,48.8037109 C80.4182953,49.1682961 80.7641578,49.3505859 81.2426758,49.3505859 Z M85.8374023,47.5634766 L85.3442383,47.5634766 L85.3442383,50 L84.3823242,50 L84.3823242,42.3828125 L85.3442383,42.3828125 L85.3442383,46.796875 L85.8276367,46.796875 L87.4145508,44.7167969 L88.5668945,44.7167969 L86.6479492,47.1533203 L88.7329102,50 L87.5952148,50 L85.8374023,47.5634766 Z M91.5942383,50.1025391 C90.8357709,50.1025391 90.2441427,49.8600285 89.8193359,49.375 C89.3945291,48.8899715 89.1821289,48.2519571 89.1821289,47.4609375 L89.1821289,47.2460938 C89.1821289,46.4876264 89.4010395,45.8601913 89.8388672,45.3637695 C90.2766949,44.8673478 90.8113575,44.6191406 91.4428711,44.6191406 C92.1492548,44.6191406 92.6790347,44.838865 93.0322266,45.2783203 C93.3854184,45.7177756 93.5620117,46.3020797 93.5620117,47.03125 L93.5620117,47.5390625 L90.1831055,47.5390625 L90.168457,47.5634766 C90.168457,48.0940782 90.2856434,48.5245752 90.5200195,48.8549805 C90.7543957,49.1853858 91.112465,49.3505859 91.5942383,49.3505859 C91.9197607,49.3505859 92.2054024,49.3041997 92.4511719,49.2114258 C92.6969413,49.1186519 92.907714,48.9908862 93.0834961,48.828125 L93.4594727,49.453125 C93.2706696,49.6354176 93.0216487,49.7892246 92.7124023,49.9145508 C92.403156,50.0398769 92.0304384,50.1025391 91.5942383,50.1025391 Z M91.4428711,45.3759766 C91.107583,45.3759766 90.8300792,45.5053698 90.6103516,45.7641602 C90.3906239,46.0229505 90.2563479,46.3541646 90.2075195,46.7578125 L90.2172852,46.7822266 L92.6000977,46.7822266 L92.6000977,46.7041016 C92.6000977,46.3199851 92.5056976,46.0026054 92.3168945,45.7519531 C92.1280915,45.5013008 91.8367533,45.3759766 91.4428711,45.3759766 Z M97.1411133,45.5664062 L96.6479492,45.5371094 C96.3940417,45.5371094 96.1800139,45.5973301 96.0058594,45.7177734 C95.8317049,45.8382167 95.6974289,46.0074859 95.6030273,46.2255859 L95.6030273,50 L94.6411133,50 L94.6411133,44.7167969 L95.5004883,44.7167969 L95.5932617,45.4882812 C95.7430021,45.2148424 95.9277333,45.0016284 96.1474609,44.8486328 C96.3671886,44.6956373 96.6202785,44.6191406 96.9067383,44.6191406 C96.9783532,44.6191406 97.0467119,44.6248372 97.1118164,44.6362305 C97.1769209,44.6476238 97.2306313,44.6598307 97.2729492,44.6728516 L97.1411133,45.5664062 Z M101.213379,48.5791016 C101.213379,48.367512 101.132813,48.1949876 100.97168,48.0615234 C100.810546,47.9280592 100.505373,47.8108729 100.056152,47.7099609 C99.4344044,47.5764967 98.9567074,47.3893241 98.6230469,47.1484375 C98.2893864,46.9075509 98.1225586,46.5852885 98.1225586,46.1816406 C98.1225586,45.751951 98.3056622,45.3841161 98.671875,45.078125 C99.0380878,44.7721339 99.5125296,44.6191406 100.095215,44.6191406 C100.694176,44.6191406 101.179197,44.7818994 101.550293,45.1074219 C101.921389,45.4329443 102.098796,45.8121723 102.08252,46.2451172 L102.072754,46.2744141 L101.154785,46.2744141 C101.154785,46.0465483 101.054689,45.8398447 100.854492,45.6542969 C100.654296,45.4687491 100.401206,45.3759766 100.095215,45.3759766 C99.7566715,45.3759766 99.5035816,45.4524732 99.3359375,45.6054688 C99.1682934,45.7584643 99.0844727,45.9407542 99.0844727,46.1523438 C99.0844727,46.3606781 99.1569003,46.5218093 99.3017578,46.6357422 C99.4466153,46.749675 99.7452777,46.8538407 100.197754,46.9482422 C100.845544,47.0849616 101.337075,47.2786446 101.672363,47.5292969 C102.007651,47.7799492 102.175293,48.1070943 102.175293,48.5107422 C102.175293,48.9794945 101.985679,49.3619777 101.606445,49.6582031 C101.227212,49.9544286 100.731611,50.1025391 100.119629,50.1025391 C99.4457974,50.1025391 98.9152038,49.9316423 98.527832,49.5898438 C98.1404603,49.2480452 97.9565429,48.8492861 97.9760742,48.3935547 L97.9858398,48.3642578 L98.9038086,48.3642578 C98.9200847,48.7060564 99.0470366,48.9558911 99.284668,49.1137695 C99.5222994,49.2716479 99.8006169,49.3505859 100.119629,49.3505859 C100.461427,49.3505859 100.729166,49.2781583 100.922852,49.1333008 C101.116537,48.9884433 101.213379,48.8037121 101.213379,48.5791016 Z" id="Decoratewithyourfavouritestickers" fill="#1B1B1B" fill-rule="nonzero"></path>
                            <path d="M65.0136719,13.8457031 C65.0136719,13.3808571 64.8518083,13.0073256 64.5280762,12.7250977 C64.2043441,12.4428697 63.6357463,12.1772473 62.8222656,11.9282227 C61.4277274,11.5076476 60.3693884,11.0123726 59.6472168,10.4423828 C58.9250452,9.87239298 58.5639648,9.09489425 58.5639648,8.10986328 C58.5639648,7.11929843 58.9706991,6.30998035 59.7841797,5.68188477 C60.5976603,5.05378918 61.6352476,4.73974609 62.8969727,4.73974609 C64.2361721,4.73974609 65.3138794,5.07730782 66.130127,5.75244141 C66.9463745,6.42757499 67.3406577,7.3129828 67.3129883,8.40869141 L67.2963867,8.45849609 L64.9472656,8.45849609 C64.9472656,7.85530297 64.7646503,7.39184732 64.3994141,7.06811523 C64.0341779,6.74438315 63.5223015,6.58251953 62.8637695,6.58251953 C62.2661103,6.58251953 61.8040381,6.7263983 61.4775391,7.01416016 C61.15104,7.30192201 60.987793,7.66991963 60.987793,8.11816406 C60.987793,8.52767132 61.1648745,8.8638496 61.519043,9.12670898 C61.8732114,9.38956837 62.4846962,9.66764176 63.3535156,9.9609375 C64.6816473,10.3372415 65.6943325,10.8283661 66.3916016,11.4343262 C67.0888707,12.0402862 67.4375,12.8385367 67.4375,13.8291016 C67.4375,14.8639375 67.0335327,15.6801728 66.2255859,16.277832 C65.4176392,16.8754913 64.349616,17.1743164 63.0214844,17.1743164 C61.7210221,17.1743164 60.6045782,16.8505892 59.6721191,16.203125 C58.7396601,15.5556608 58.287272,14.5900129 58.3149414,13.3061523 L58.331543,13.2563477 L60.6806641,13.2563477 C60.6806641,13.9702184 60.8909484,14.4959293 61.3115234,14.8334961 C61.7320985,15.1710629 62.3020797,15.3398438 63.0214844,15.3398438 C63.6689485,15.3398438 64.1628401,15.2042657 64.5031738,14.9331055 C64.8435076,14.6619453 65.0136719,14.2994814 65.0136719,13.8457031 Z M77.6474609,6.78173828 L74.1943359,6.78173828 L74.1943359,17 L71.7705078,17 L71.7705078,6.78173828 L68.3671875,6.78173828 L68.3671875,4.9140625 L77.6474609,4.9140625 L77.6474609,6.78173828 Z M84.3710938,14.3935547 L80.453125,14.3935547 L79.6396484,17 L77.1079102,17 L81.1835938,4.9140625 L83.6655273,4.9140625 L87.7246094,17 L85.1928711,17 L84.3710938,14.3935547 Z M81.0507813,12.4926758 L83.7817383,12.4926758 L82.4453125,8.234375 L82.3955078,8.234375 L81.0507813,12.4926758 Z M95.137207,13.8208008 L95.1870117,13.8208008 L98.2915039,4.9140625 L101.454102,4.9140625 L101.454102,17 L99.0302734,17 L99.0302734,8.74902344 L98.9804688,8.74072266 L95.9921875,17 L94.3486328,17 L91.3603516,8.72412109 L91.3105469,8.73242188 L91.3105469,17 L88.8867188,17 L88.8867188,4.9140625 L92.065918,4.9140625 L95.137207,13.8208008 Z M106.102539,12.6171875 L106.102539,17 L103.678711,17 L103.678711,4.9140625 L108.302246,4.9140625 C109.69125,4.9140625 110.784176,5.26822562 111.581055,5.9765625 C112.377934,6.68489938 112.776367,7.61734448 112.776367,8.77392578 C112.776367,9.93050708 112.377934,10.8601853 111.581055,11.5629883 C110.784176,12.2657913 109.69125,12.6171875 108.302246,12.6171875 L106.102539,12.6171875 Z M106.102539,10.7495117 L108.302246,10.7495117 C108.97738,10.7495117 109.489256,10.5655129 109.837891,10.1975098 C110.186525,9.82950662 110.36084,9.36051717 110.36084,8.79052734 C110.36084,8.20946975 110.187909,7.7294127 109.842041,7.3503418 C109.496173,6.97127089 108.982914,6.78173828 108.302246,6.78173828 L106.102539,6.78173828 L106.102539,10.7495117 Z" id="STAMP" fill="#1B1B1B" fill-rule="nonzero"></path>
                        </g>
                    </g>
                </g>
            </g>
        </g>
    </g>
</svg>