<?xml version="1.0" encoding="UTF-8"?>
<svg width="112px" height="37px" viewBox="0 0 112 37" version="1.1" xmlns="http://www.w3.org/2000/svg" xmlns:xlink="http://www.w3.org/1999/xlink">
    <!-- Generator: Sketch 54.1 (76490) - https://sketchapp.com -->
    <title>Text</title>
    <desc>Created with Sketch.</desc>
    <g id="页面1" stroke="none" stroke-width="1" fill="none" fill-rule="evenodd">
        <g id="C-35&gt;Shake-to-Remix&gt;EN" transform="translate(-222.000000, -555.000000)" fill="#6A6A6A" fill-rule="nonzero">
            <g id="Content" transform="translate(12.000000, 76.000000)">
                <g id="04_Splash" transform="translate(181.000000, 281.000000)">
                    <g id="Text" transform="translate(10.000000, 194.000000)">
                        <path d="M24.155,33.95 C24.1016664,33.4366641 23.9166682,33.0650012 23.6,32.835 C23.2833317,32.6049989 22.8783358,32.49 22.385,32.49 C22.184999,32.49 21.9883343,32.5099998 21.795,32.55 C21.6016657,32.5900002 21.4300007,32.6566662 21.28,32.75 C21.1299992,32.8433338 21.0100004,32.9683325 20.92,33.125 C20.8299995,33.2816675 20.785,33.4766655 20.785,33.71 C20.785,33.9300011 20.8499993,34.1083327 20.98,34.245 C21.1100006,34.3816674 21.2833322,34.4933329 21.5,34.58 C21.7166677,34.6666671 21.9616653,34.7383331 22.235,34.795 C22.5083347,34.851667 22.7866652,34.913333 23.07,34.98 C23.3533347,35.046667 23.6316653,35.1249995 23.905,35.215 C24.1783347,35.3050005 24.4233323,35.4266659 24.64,35.58 C24.8566677,35.7333341 25.0299993,35.9266655 25.16,36.16 C25.2900006,36.3933345 25.355,36.6866649 25.355,37.04 C25.355,37.4200019 25.2700008,37.7449986 25.1,38.015 C24.9299992,38.2850014 24.711668,38.5049992 24.445,38.675 C24.178332,38.8450009 23.8800017,38.968333 23.55,39.045 C23.2199983,39.121667 22.8916683,39.16 22.565,39.16 C22.164998,39.16 21.7866684,39.1100005 21.43,39.01 C21.0733315,38.9099995 20.7600013,38.7583343 20.49,38.555 C20.2199986,38.3516657 20.0066674,38.0916682 19.85,37.775 C19.6933325,37.4583317 19.615,37.0833355 19.615,36.65 L20.515,36.65 C20.515,36.9500015 20.5733327,37.2083322 20.69,37.425 C20.8066672,37.6416677 20.9599991,37.8199993 21.15,37.96 C21.340001,38.1000007 21.5616654,38.203333 21.815,38.27 C22.0683346,38.336667 22.328332,38.37 22.595,38.37 C22.8083344,38.37 23.0233322,38.3500002 23.24,38.31 C23.4566677,38.2699998 23.6516658,38.2016672 23.825,38.105 C23.9983342,38.0083329 24.1383328,37.8766675 24.245,37.71 C24.3516672,37.5433325 24.405,37.3300013 24.405,37.07 C24.405,36.8233321 24.3400006,36.6233341 24.21,36.47 C24.0799993,36.3166659 23.9066677,36.1916672 23.69,36.095 C23.4733322,35.9983328 23.2283347,35.9200003 22.955,35.86 C22.6816653,35.7999997 22.4033347,35.7383337 22.12,35.675 C21.8366652,35.6116664 21.5583347,35.5383338 21.285,35.455 C21.0116653,35.3716663 20.7666677,35.2616673 20.55,35.125 C20.3333322,34.9883327 20.1600006,34.8116677 20.03,34.595 C19.8999993,34.3783322 19.835,34.1066683 19.835,33.78 C19.835,33.4199982 19.9083326,33.1083347 20.055,32.845 C20.2016674,32.5816654 20.3966655,32.3650009 20.64,32.195 C20.8833346,32.0249991 21.1599984,31.8983338 21.47,31.815 C21.7800015,31.7316663 22.0983317,31.69 22.425,31.69 C22.7916685,31.69 23.1316651,31.7333329 23.445,31.82 C23.7583349,31.9066671 24.0333321,32.0433324 24.27,32.23 C24.5066678,32.4166676 24.6933326,32.6516653 24.83,32.935 C24.9666673,33.2183347 25.0416666,33.5566647 25.055,33.95 L24.155,33.95 Z M26.365,31.86 L27.215,31.86 L27.215,34.59 L27.235,34.59 C27.301667,34.4299992 27.3949994,34.2950005 27.515,34.185 C27.6350006,34.0749995 27.7699992,33.9850004 27.92,33.915 C28.0700007,33.8449997 28.2266658,33.7933335 28.39,33.76 C28.5533341,33.7266665 28.7116659,33.71 28.865,33.71 C29.2050017,33.71 29.4883322,33.7566662 29.715,33.85 C29.9416678,33.9433338 30.1249993,34.0733325 30.265,34.24 C30.4050007,34.4066675 30.503333,34.6049989 30.56,34.835 C30.6166669,35.0650012 30.645,35.3199986 30.645,35.6 L30.645,39 L29.795,39 L29.795,35.5 C29.795,35.1799984 29.7016676,34.9266676 29.515,34.74 C29.3283324,34.5533324 29.0716683,34.46 28.745,34.46 C28.4849987,34.46 28.2600009,34.4999996 28.07,34.58 C27.879999,34.6600004 27.7216673,34.7733326 27.595,34.92 C27.4683327,35.0666674 27.3733336,35.2383324 27.31,35.435 C27.2466663,35.6316676 27.215,35.8466655 27.215,36.08 L27.215,39 L26.365,39 L26.365,31.86 Z M36.505,38.98 C36.3583326,39.0666671 36.1550013,39.11 35.895,39.11 C35.6749989,39.11 35.5000006,39.0483339 35.37,38.925 C35.2399993,38.8016661 35.175,38.6000014 35.175,38.32 C34.9416655,38.6000014 34.6700015,38.8016661 34.36,38.925 C34.0499984,39.0483339 33.7150018,39.11 33.355,39.11 C33.1216655,39.11 32.9000011,39.0833336 32.69,39.03 C32.4799989,38.9766664 32.2983341,38.8933339 32.145,38.78 C31.9916659,38.6666661 31.8700004,38.5183342 31.78,38.335 C31.6899995,38.1516658 31.645,37.9300013 31.645,37.67 C31.645,37.3766652 31.6949995,37.1366676 31.795,36.95 C31.8950005,36.7633324 32.0266659,36.6116672 32.19,36.495 C32.3533341,36.3783327 32.5399989,36.2900003 32.75,36.23 C32.9600011,36.1699997 33.1749989,36.1200002 33.395,36.08 C33.6283345,36.0333331 33.8499989,35.9983335 34.06,35.975 C34.270001,35.9516665 34.4549992,35.9183335 34.615,35.875 C34.7750008,35.8316665 34.9016662,35.7683337 34.995,35.685 C35.0883338,35.6016663 35.135,35.4800008 35.135,35.32 C35.135,35.1333324 35.1000003,34.9833339 35.03,34.87 C34.9599997,34.7566661 34.8700006,34.6700003 34.76,34.61 C34.6499994,34.5499997 34.5266673,34.5100001 34.39,34.49 C34.2533326,34.4699999 34.118334,34.46 33.985,34.46 C33.6249982,34.46 33.3250012,34.5283326 33.085,34.665 C32.8449988,34.8016674 32.7150001,35.0599981 32.695,35.44 L31.845,35.44 C31.8583334,35.1199984 31.9249994,34.8500011 32.045,34.63 C32.1650006,34.4099989 32.324999,34.2316674 32.525,34.095 C32.725001,33.9583327 32.953332,33.8600003 33.21,33.8 C33.4666679,33.7399997 33.7416652,33.71 34.035,33.71 C34.2683345,33.71 34.4999988,33.7266665 34.73,33.76 C34.9600011,33.7933335 35.1683324,33.8616662 35.355,33.965 C35.5416676,34.0683339 35.6916661,34.2133324 35.805,34.4 C35.9183339,34.5866676 35.975,34.8299985 35.975,35.13 L35.975,37.79 C35.975,37.990001 35.9866665,38.1366662 36.01,38.23 C36.0333335,38.3233338 36.111666,38.37 36.245,38.37 C36.3183337,38.37 36.4049995,38.3533335 36.505,38.32 L36.505,38.98 Z M35.125,36.33 C35.0183328,36.4100004 34.8783342,36.4683332 34.705,36.505 C34.5316658,36.5416668 34.3500009,36.5716666 34.16,36.595 C33.969999,36.6183335 33.7783343,36.6449999 33.585,36.675 C33.3916657,36.7050002 33.2183341,36.753333 33.065,36.82 C32.9116659,36.886667 32.7866671,36.9816661 32.69,37.105 C32.5933328,37.228334 32.545,37.3966656 32.545,37.61 C32.545,37.7500007 32.5733331,37.8683329 32.63,37.965 C32.686667,38.0616672 32.7599996,38.1399997 32.85,38.2 C32.9400004,38.2600003 33.0449994,38.3033332 33.165,38.33 C33.2850006,38.3566668 33.411666,38.37 33.545,38.37 C33.8250014,38.37 34.064999,38.3316671 34.265,38.255 C34.465001,38.1783329 34.6283327,38.0816672 34.755,37.965 C34.8816673,37.8483327 34.9749997,37.7216674 35.035,37.585 C35.0950003,37.4483326 35.125,37.3200006 35.125,37.2 L35.125,36.33 Z M37.345,31.86 L38.195,31.86 L38.195,36.09 L40.555,33.83 L41.695,33.83 L39.645,35.71 L41.845,39 L40.765,39 L38.995,36.3 L38.195,37.04 L38.195,39 L37.345,39 L37.345,31.86 Z M46.075,35.92 C46.0616666,35.719999 46.016667,35.5300009 45.94,35.35 C45.8633329,35.1699991 45.7600006,35.0150007 45.63,34.885 C45.4999993,34.7549994 45.3466675,34.6516671 45.17,34.575 C44.9933324,34.498333 44.7983344,34.46 44.585,34.46 C44.3649989,34.46 44.1666675,34.498333 43.99,34.575 C43.8133324,34.6516671 43.6616673,34.756666 43.535,34.89 C43.4083327,35.023334 43.3083337,35.1783324 43.235,35.355 C43.1616663,35.5316676 43.1183334,35.719999 43.105,35.92 L46.075,35.92 Z M46.895,37.36 C46.7816661,37.9400029 46.5316686,38.3766652 46.145,38.67 C45.7583314,38.9633348 45.2716696,39.11 44.685,39.11 C44.2716646,39.11 43.9133348,39.043334 43.61,38.91 C43.3066652,38.776666 43.0516677,38.5900012 42.845,38.35 C42.6383323,38.1099988 42.4833338,37.823335 42.38,37.49 C42.2766661,37.156665 42.2183334,36.7933353 42.205,36.4 C42.205,36.0066647 42.2649994,35.6466683 42.385,35.32 C42.5050006,34.9933317 42.6733322,34.7100012 42.89,34.47 C43.1066677,34.2299988 43.3633318,34.043334 43.66,33.91 C43.9566681,33.776666 44.2816649,33.71 44.635,33.71 C45.0950023,33.71 45.4766651,33.8049991 45.78,33.995 C46.0833348,34.185001 46.3266657,34.4266652 46.51,34.72 C46.6933342,35.0133348 46.8199996,35.3333316 46.89,35.68 C46.9600003,36.0266684 46.9883334,36.3566651 46.975,36.67 L43.105,36.67 C43.0983333,36.8966678 43.1249997,37.1116657 43.185,37.315 C43.2450003,37.5183344 43.341666,37.6983326 43.475,37.855 C43.608334,38.0116675 43.7783323,38.1366662 43.985,38.23 C44.1916677,38.3233338 44.4349986,38.37 44.715,38.37 C45.0750018,38.37 45.3699989,38.2866675 45.6,38.12 C45.8300012,37.9533325 45.9816663,37.7000017 46.055,37.36 L46.895,37.36 Z M51.815,33.83 L52.845,33.83 L52.845,34.58 L51.815,34.58 L51.815,37.79 C51.815,37.8900005 51.8233332,37.9699997 51.84,38.03 C51.8566667,38.0900003 51.8883331,38.1366665 51.935,38.17 C51.9816669,38.2033335 52.0466662,38.2249999 52.13,38.235 C52.2133337,38.2450001 52.321666,38.25 52.455,38.25 L52.845,38.25 L52.845,39 L52.195,39 C51.9749989,39 51.7866674,38.9850002 51.63,38.955 C51.4733325,38.9249999 51.3466671,38.8700004 51.25,38.79 C51.1533328,38.7099996 51.0816669,38.5966674 51.035,38.45 C50.9883331,38.3033326 50.965,38.1100012 50.965,37.87 L50.965,34.58 L50.085,34.58 L50.085,33.83 L50.965,33.83 L50.965,32.28 L51.815,32.28 L51.815,33.83 Z M54.405,36.42 C54.405,36.7333349 54.4466662,37.0116655 54.53,37.255 C54.6133337,37.4983345 54.7283326,37.7016658 54.875,37.865 C55.0216674,38.0283342 55.1933323,38.1533329 55.39,38.24 C55.5866676,38.3266671 55.7949989,38.37 56.015,38.37 C56.2350011,38.37 56.4433323,38.3266671 56.64,38.24 C56.8366676,38.1533329 57.0083326,38.0283342 57.155,37.865 C57.3016674,37.7016658 57.4166662,37.4983345 57.5,37.255 C57.5833337,37.0116655 57.625,36.7333349 57.625,36.42 C57.625,36.1066651 57.5833337,35.8283346 57.5,35.585 C57.4166662,35.3416655 57.3016674,35.1366675 57.155,34.97 C57.0083326,34.8033325 56.8366676,34.6766671 56.64,34.59 C56.4433323,34.5033329 56.2350011,34.46 56.015,34.46 C55.7949989,34.46 55.5866676,34.5033329 55.39,34.59 C55.1933323,34.6766671 55.0216674,34.8033325 54.875,34.97 C54.7283326,35.1366675 54.6133337,35.3416655 54.53,35.585 C54.4466662,35.8283346 54.405,36.1066651 54.405,36.42 Z M53.505,36.42 C53.505,36.0399981 53.5583328,35.6850017 53.665,35.355 C53.7716672,35.0249984 53.9316656,34.7383346 54.145,34.495 C54.3583344,34.2516655 54.6216651,34.0600007 54.935,33.92 C55.2483349,33.7799993 55.6083313,33.71 56.015,33.71 C56.4283354,33.71 56.7899984,33.7799993 57.1,33.92 C57.4100016,34.0600007 57.6716656,34.2516655 57.885,34.495 C58.0983344,34.7383346 58.2583328,35.0249984 58.365,35.355 C58.4716672,35.6850017 58.525,36.0399981 58.525,36.42 C58.525,36.8000019 58.4716672,37.1533317 58.365,37.48 C58.2583328,37.8066683 58.0983344,38.0916655 57.885,38.335 C57.6716656,38.5783346 57.4100016,38.7683327 57.1,38.905 C56.7899984,39.0416673 56.4283354,39.11 56.015,39.11 C55.6083313,39.11 55.2483349,39.0416673 54.935,38.905 C54.6216651,38.7683327 54.3583344,38.5783346 54.145,38.335 C53.9316656,38.0916655 53.7716672,37.8066683 53.665,37.48 C53.5583328,37.1533317 53.505,36.8000019 53.505,36.42 Z M62.825,37.37 C62.8316667,37.5566676 62.8749996,37.7149993 62.955,37.845 C63.0350004,37.9750006 63.1399993,38.078333 63.27,38.155 C63.4000006,38.231667 63.5466658,38.2866665 63.71,38.32 C63.8733341,38.3533335 64.0416658,38.37 64.215,38.37 C64.348334,38.37 64.4883326,38.3600001 64.635,38.34 C64.7816674,38.3199999 64.916666,38.2833336 65.04,38.23 C65.1633339,38.1766664 65.2649996,38.0983339 65.345,37.995 C65.4250004,37.8916662 65.465,37.7600008 65.465,37.6 C65.465,37.3799989 65.3816675,37.2133339 65.215,37.1 C65.0483325,36.9866661 64.8400012,36.8950004 64.59,36.825 C64.3399987,36.7549997 64.0683348,36.6916669 63.775,36.635 C63.4816652,36.578333 63.2100012,36.4983339 62.96,36.395 C62.7099987,36.2916661 62.5016675,36.1466676 62.335,35.96 C62.1683325,35.7733324 62.085,35.513335 62.085,35.18 C62.085,34.9199987 62.1433327,34.6966676 62.26,34.51 C62.3766672,34.3233324 62.5266657,34.1716672 62.71,34.055 C62.8933342,33.9383328 63.0999988,33.851667 63.33,33.795 C63.5600011,33.7383331 63.7883322,33.71 64.015,33.71 C64.3083348,33.71 64.5783321,33.7349998 64.825,33.785 C65.0716679,33.8350003 65.289999,33.921666 65.48,34.045 C65.6700009,34.168334 65.8216661,34.3349989 65.935,34.545 C66.0483339,34.7550011 66.1149999,35.0166651 66.135,35.33 L65.285,35.33 C65.2716666,35.1633325 65.2283337,35.0250006 65.155,34.915 C65.0816663,34.8049994 64.9883339,34.716667 64.875,34.65 C64.7616661,34.583333 64.6366673,34.5350002 64.5,34.505 C64.3633326,34.4749999 64.2250007,34.46 64.085,34.46 C63.9583327,34.46 63.8300006,34.4699999 63.7,34.49 C63.5699993,34.5100001 63.4516672,34.5449998 63.345,34.595 C63.2383328,34.6450002 63.151667,34.7116663 63.085,34.795 C63.018333,34.8783337 62.985,34.986666 62.985,35.12 C62.985,35.2666674 63.0366661,35.3883328 63.14,35.485 C63.2433338,35.5816672 63.3749992,35.6616664 63.535,35.725 C63.6950008,35.7883336 63.874999,35.8416665 64.075,35.885 C64.275001,35.9283336 64.474999,35.9733331 64.675,36.02 C64.8883344,36.0666669 65.0966656,36.123333 65.3,36.19 C65.5033343,36.256667 65.6833325,36.3449995 65.84,36.455 C65.9966674,36.5650006 66.1233328,36.7033325 66.22,36.87 C66.3166672,37.0366675 66.365,37.2433321 66.365,37.49 C66.365,37.8033349 66.3000006,38.0633323 66.17,38.27 C66.0399993,38.4766677 65.870001,38.6433327 65.66,38.77 C65.4499989,38.8966673 65.2133346,38.9849998 64.95,39.035 C64.6866653,39.0850003 64.4250013,39.11 64.165,39.11 C63.8783319,39.11 63.6050013,39.0800003 63.345,39.02 C63.0849987,38.9599997 62.855001,38.8616674 62.655,38.725 C62.454999,38.5883326 62.2950006,38.4083344 62.175,38.185 C62.0549994,37.9616656 61.9883334,37.6900016 61.975,37.37 L62.825,37.37 Z M67.335,33.83 L68.185,33.83 L68.185,34.53 L68.205,34.53 C68.3450007,34.2433319 68.5649985,34.0350007 68.865,33.905 C69.1650015,33.7749994 69.4949982,33.71 69.855,33.71 C70.255002,33.71 70.6033318,33.7833326 70.9,33.93 C71.1966681,34.0766674 71.4433323,34.2749988 71.64,34.525 C71.8366676,34.7750013 71.9849995,35.0633317 72.085,35.39 C72.1850005,35.7166683 72.235,36.0633315 72.235,36.43 C72.235,36.7966685 72.1866671,37.1433317 72.09,37.47 C71.9933328,37.7966683 71.8466677,38.0816655 71.65,38.325 C71.4533323,38.5683346 71.2066681,38.7599993 70.91,38.9 C70.6133318,39.0400007 70.2683353,39.11 69.875,39.11 C69.7483327,39.11 69.6066674,39.0966668 69.45,39.07 C69.2933325,39.0433332 69.1383341,39.0000003 68.985,38.94 C68.8316659,38.8799997 68.6866673,38.7983339 68.55,38.695 C68.4133327,38.5916662 68.2983338,38.4633341 68.205,38.31 L68.185,38.31 L68.185,40.97 L67.335,40.97 L67.335,33.83 Z M71.335,36.37 C71.335,36.1299988 71.3033336,35.8950011 71.24,35.665 C71.1766663,35.4349988 71.0800006,35.2300009 70.95,35.05 C70.8199993,34.8699991 70.6533343,34.7266672 70.45,34.62 C70.2466656,34.5133328 70.0083347,34.46 69.735,34.46 C69.4483319,34.46 69.205001,34.5166661 69.005,34.63 C68.804999,34.7433339 68.6416673,34.8916658 68.515,35.075 C68.3883327,35.2583343 68.2966669,35.4666655 68.24,35.7 C68.183333,35.9333345 68.155,36.1699988 68.155,36.41 C68.155,36.6633346 68.1849997,36.9083322 68.245,37.145 C68.3050003,37.3816678 68.3999993,37.5899991 68.53,37.77 C68.6600006,37.9500009 68.8283323,38.0949995 69.035,38.205 C69.2416677,38.3150006 69.4916652,38.37 69.785,38.37 C70.0783348,38.37 70.3233323,38.3133339 70.52,38.2 C70.7166677,38.0866661 70.8749994,37.9366676 70.995,37.75 C71.1150006,37.5633324 71.2016664,37.3500012 71.255,37.11 C71.3083336,36.8699988 71.335,36.6233346 71.335,36.37 Z M73.285,31.86 L74.135,31.86 L74.135,39 L73.285,39 L73.285,31.86 Z M80.035,38.98 C79.8883326,39.0666671 79.6850013,39.11 79.425,39.11 C79.2049989,39.11 79.0300006,39.0483339 78.9,38.925 C78.7699993,38.8016661 78.705,38.6000014 78.705,38.32 C78.4716655,38.6000014 78.2000015,38.8016661 77.89,38.925 C77.5799985,39.0483339 77.2450018,39.11 76.885,39.11 C76.6516655,39.11 76.4300011,39.0833336 76.22,39.03 C76.0099989,38.9766664 75.8283341,38.8933339 75.675,38.78 C75.5216659,38.6666661 75.4000004,38.5183342 75.31,38.335 C75.2199995,38.1516658 75.175,37.9300013 75.175,37.67 C75.175,37.3766652 75.2249995,37.1366676 75.325,36.95 C75.4250005,36.7633324 75.5566659,36.6116672 75.72,36.495 C75.8833341,36.3783327 76.0699989,36.2900003 76.28,36.23 C76.4900011,36.1699997 76.7049989,36.1200002 76.925,36.08 C77.1583345,36.0333331 77.379999,35.9983335 77.59,35.975 C77.8000011,35.9516665 77.9849992,35.9183335 78.145,35.875 C78.3050008,35.8316665 78.4316662,35.7683337 78.525,35.685 C78.6183338,35.6016663 78.665,35.4800008 78.665,35.32 C78.665,35.1333324 78.6300003,34.9833339 78.56,34.87 C78.4899997,34.7566661 78.4000005,34.6700003 78.29,34.61 C78.1799994,34.5499997 78.0566673,34.5100001 77.92,34.49 C77.7833327,34.4699999 77.648334,34.46 77.515,34.46 C77.1549982,34.46 76.8550012,34.5283326 76.615,34.665 C76.3749988,34.8016674 76.2450001,35.0599981 76.225,35.44 L75.375,35.44 C75.3883334,35.1199984 75.4549994,34.8500011 75.575,34.63 C75.6950006,34.4099989 75.854999,34.2316674 76.055,34.095 C76.255001,33.9583327 76.4833321,33.8600003 76.74,33.8 C76.996668,33.7399997 77.2716652,33.71 77.565,33.71 C77.7983345,33.71 78.0299988,33.7266665 78.26,33.76 C78.4900011,33.7933335 78.6983324,33.8616662 78.885,33.965 C79.0716676,34.0683339 79.2216661,34.2133324 79.335,34.4 C79.4483339,34.5866676 79.505,34.8299985 79.505,35.13 L79.505,37.79 C79.505,37.990001 79.5166665,38.1366662 79.54,38.23 C79.5633335,38.3233338 79.641666,38.37 79.775,38.37 C79.8483337,38.37 79.9349995,38.3533335 80.035,38.32 L80.035,38.98 Z M78.655,36.33 C78.5483328,36.4100004 78.4083342,36.4683332 78.235,36.505 C78.0616658,36.5416668 77.8800009,36.5716666 77.69,36.595 C77.499999,36.6183335 77.3083343,36.6449999 77.115,36.675 C76.9216657,36.7050002 76.7483341,36.753333 76.595,36.82 C76.4416659,36.886667 76.3166672,36.9816661 76.22,37.105 C76.1233328,37.228334 76.075,37.3966656 76.075,37.61 C76.075,37.7500007 76.1033331,37.8683329 76.16,37.965 C76.216667,38.0616672 76.2899996,38.1399997 76.38,38.2 C76.4700005,38.2600003 76.5749994,38.3033332 76.695,38.33 C76.8150006,38.3566668 76.941666,38.37 77.075,38.37 C77.3550014,38.37 77.594999,38.3316671 77.795,38.255 C77.995001,38.1783329 78.1583327,38.0816672 78.285,37.965 C78.4116673,37.8483327 78.5049997,37.7216674 78.565,37.585 C78.6250003,37.4483326 78.655,37.3200006 78.655,37.2 L78.655,36.33 Z M82.005,33.83 L83.035,33.83 L83.035,34.58 L82.005,34.58 L82.005,37.79 C82.005,37.8900005 82.0133332,37.9699997 82.03,38.03 C82.0466667,38.0900003 82.0783331,38.1366665 82.125,38.17 C82.1716669,38.2033335 82.2366663,38.2249999 82.32,38.235 C82.4033338,38.2450001 82.511666,38.25 82.645,38.25 L83.035,38.25 L83.035,39 L82.385,39 C82.1649989,39 81.9766675,38.9850002 81.82,38.955 C81.6633326,38.9249999 81.5366671,38.8700004 81.44,38.79 C81.3433328,38.7099996 81.2716669,38.5966674 81.225,38.45 C81.1783331,38.3033326 81.155,38.1100012 81.155,37.87 L81.155,34.58 L80.275,34.58 L80.275,33.83 L81.155,33.83 L81.155,32.28 L82.005,32.28 L82.005,33.83 Z M85.155,33.83 L86.185,33.83 L86.185,34.58 L85.155,34.58 L85.155,37.79 C85.155,37.8900005 85.1633332,37.9699997 85.18,38.03 C85.1966668,38.0900003 85.2283331,38.1366665 85.275,38.17 C85.3216669,38.2033335 85.3866663,38.2249999 85.47,38.235 C85.5533338,38.2450001 85.661666,38.25 85.795,38.25 L86.185,38.25 L86.185,39 L85.535,39 C85.3149989,39 85.1266675,38.9850002 84.97,38.955 C84.8133326,38.9249999 84.6866672,38.8700004 84.59,38.79 C84.4933329,38.7099996 84.4216669,38.5966674 84.375,38.45 C84.3283331,38.3033326 84.305,38.1100012 84.305,37.87 L84.305,34.58 L83.425,34.58 L83.425,33.83 L84.305,33.83 L84.305,32.28 L85.155,32.28 L85.155,33.83 Z M90.715,35.92 C90.7016666,35.719999 90.6566671,35.5300009 90.58,35.35 C90.503333,35.1699991 90.4000007,35.0150007 90.27,34.885 C90.1399994,34.7549994 89.9866676,34.6516671 89.81,34.575 C89.6333325,34.498333 89.4383344,34.46 89.225,34.46 C89.0049989,34.46 88.8066676,34.498333 88.63,34.575 C88.4533325,34.6516671 88.3016673,34.756666 88.175,34.89 C88.0483327,35.023334 87.9483337,35.1783324 87.875,35.355 C87.8016663,35.5316676 87.7583334,35.719999 87.745,35.92 L90.715,35.92 Z M91.535,37.36 C91.4216661,37.9400029 91.1716686,38.3766652 90.785,38.67 C90.3983314,38.9633348 89.9116696,39.11 89.325,39.11 C88.9116646,39.11 88.5533349,39.043334 88.25,38.91 C87.9466652,38.776666 87.6916677,38.5900012 87.485,38.35 C87.2783323,38.1099988 87.1233339,37.823335 87.02,37.49 C86.9166662,37.156665 86.8583334,36.7933353 86.845,36.4 C86.845,36.0066647 86.9049994,35.6466683 87.025,35.32 C87.1450006,34.9933317 87.3133323,34.7100012 87.53,34.47 C87.7466678,34.2299988 88.0033319,34.043334 88.3,33.91 C88.5966682,33.776666 88.9216649,33.71 89.275,33.71 C89.7350023,33.71 90.1166652,33.8049991 90.42,33.995 C90.7233349,34.185001 90.9666658,34.4266652 91.15,34.72 C91.3333343,35.0133348 91.4599997,35.3333316 91.53,35.68 C91.6000004,36.0266684 91.6283334,36.3566651 91.615,36.67 L87.745,36.67 C87.7383333,36.8966678 87.7649997,37.1116657 87.825,37.315 C87.8850003,37.5183344 87.981666,37.6983326 88.115,37.855 C88.248334,38.0116675 88.4183323,38.1366662 88.625,38.23 C88.8316677,38.3233338 89.0749986,38.37 89.355,38.37 C89.7150018,38.37 90.0099989,38.2866675 90.24,38.12 C90.4700012,37.9533325 90.6216663,37.7000017 90.695,37.36 L91.535,37.36 Z M92.465,33.83 L93.265,33.83 L93.265,34.92 L93.285,34.92 C93.4916677,34.4999979 93.7449985,34.190001 94.045,33.99 C94.3450015,33.789999 94.7249977,33.6966666 95.185,33.71 L95.185,34.61 C94.8449983,34.61 94.5550012,34.6566662 94.315,34.75 C94.0749988,34.8433338 93.8816674,34.9799991 93.735,35.16 C93.5883326,35.3400009 93.481667,35.5583321 93.415,35.815 C93.348333,36.071668 93.315,36.366665 93.315,36.7 L93.315,39 L92.465,39 L92.465,33.83 Z M99.505,32.9 L98.655,32.9 L98.655,31.86 L99.505,31.86 L99.505,32.9 Z M98.655,33.83 L99.505,33.83 L99.505,39 L98.655,39 L98.655,33.83 Z M100.825,33.83 L101.625,33.83 L101.625,34.65 L101.645,34.65 C101.998335,34.0233302 102.55833,33.71 103.325,33.71 C103.665002,33.71 103.948332,33.7566662 104.175,33.85 C104.401668,33.9433338 104.584999,34.0733325 104.725,34.24 C104.865001,34.4066675 104.963333,34.6049989 105.02,34.835 C105.076667,35.0650012 105.105,35.3199986 105.105,35.6 L105.105,39 L104.255,39 L104.255,35.5 C104.255,35.1799984 104.161668,34.9266676 103.975,34.74 C103.788332,34.5533324 103.531668,34.46 103.205,34.46 C102.944999,34.46 102.720001,34.4999996 102.53,34.58 C102.339999,34.6600004 102.181667,34.7733326 102.055,34.92 C101.928333,35.0666674 101.833334,35.2383324 101.77,35.435 C101.706666,35.6316676 101.675,35.8466655 101.675,36.08 L101.675,39 L100.825,39 L100.825,33.83 Z M106.435,31.86 L107.285,31.86 L107.285,36.09 L109.645,33.83 L110.785,33.83 L108.735,35.71 L110.935,39 L109.855,39 L108.085,36.3 L107.285,37.04 L107.285,39 L106.435,39 L106.435,31.86 Z M114.385,31.86 L115.235,31.86 L115.235,34.53 L115.255,34.53 C115.395001,34.2433319 115.614999,34.0350007 115.915,33.905 C116.215002,33.7749994 116.544998,33.71 116.905,33.71 C117.305002,33.71 117.653332,33.7833326 117.95,33.93 C118.246668,34.0766674 118.493332,34.2749988 118.69,34.525 C118.886668,34.7750013 119.035,35.0633317 119.135,35.39 C119.235001,35.7166683 119.285,36.0633315 119.285,36.43 C119.285,36.7966685 119.236667,37.1433317 119.14,37.47 C119.043333,37.7966683 118.896668,38.0816655 118.7,38.325 C118.503332,38.5683346 118.256668,38.7599993 117.96,38.9 C117.663332,39.0400007 117.318335,39.11 116.925,39.11 C116.798333,39.11 116.656667,39.0966668 116.5,39.07 C116.343333,39.0433332 116.188334,39.0000003 116.035,38.94 C115.881666,38.8799997 115.736667,38.7983339 115.6,38.695 C115.463333,38.5916662 115.348334,38.4633341 115.255,38.31 L115.235,38.31 L115.235,39 L114.385,39 L114.385,31.86 Z M118.385,36.37 C118.385,36.1299988 118.353334,35.8950011 118.29,35.665 C118.226666,35.4349988 118.130001,35.2300009 118,35.05 C117.869999,34.8699991 117.703334,34.7266672 117.5,34.62 C117.296666,34.5133328 117.058335,34.46 116.785,34.46 C116.498332,34.46 116.255001,34.5166661 116.055,34.63 C115.854999,34.7433339 115.691667,34.8916658 115.565,35.075 C115.438333,35.2583343 115.346667,35.4666655 115.29,35.7 C115.233333,35.9333345 115.205,36.1699988 115.205,36.41 C115.205,36.6633346 115.235,36.9083322 115.295,37.145 C115.355,37.3816678 115.449999,37.5899991 115.58,37.77 C115.710001,37.9500009 115.878332,38.0949995 116.085,38.205 C116.291668,38.3150006 116.541665,38.37 116.835,38.37 C117.128335,38.37 117.373332,38.3133339 117.57,38.2 C117.766668,38.0866661 117.924999,37.9366676 118.045,37.75 C118.165001,37.5633324 118.251666,37.3500012 118.305,37.11 C118.358334,36.8699988 118.385,36.6233346 118.385,36.37 Z M120.335,31.86 L121.185,31.86 L121.185,39 L120.335,39 L120.335,31.86 Z M123.125,36.42 C123.125,36.7333349 123.166666,37.0116655 123.25,37.255 C123.333334,37.4983345 123.448333,37.7016658 123.595,37.865 C123.741667,38.0283342 123.913332,38.1533329 124.11,38.24 C124.306668,38.3266671 124.514999,38.37 124.735,38.37 C124.955001,38.37 125.163332,38.3266671 125.36,38.24 C125.556668,38.1533329 125.728333,38.0283342 125.875,37.865 C126.021667,37.7016658 126.136666,37.4983345 126.22,37.255 C126.303334,37.0116655 126.345,36.7333349 126.345,36.42 C126.345,36.1066651 126.303334,35.8283346 126.22,35.585 C126.136666,35.3416655 126.021667,35.1366675 125.875,34.97 C125.728333,34.8033325 125.556668,34.6766671 125.36,34.59 C125.163332,34.5033329 124.955001,34.46 124.735,34.46 C124.514999,34.46 124.306668,34.5033329 124.11,34.59 C123.913332,34.6766671 123.741667,34.8033325 123.595,34.97 C123.448333,35.1366675 123.333334,35.3416655 123.25,35.585 C123.166666,35.8283346 123.125,36.1066651 123.125,36.42 Z M122.225,36.42 C122.225,36.0399981 122.278333,35.6850017 122.385,35.355 C122.491667,35.0249984 122.651666,34.7383346 122.865,34.495 C123.078334,34.2516655 123.341665,34.0600007 123.655,33.92 C123.968335,33.7799993 124.328331,33.71 124.735,33.71 C125.148335,33.71 125.509998,33.7799993 125.82,33.92 C126.130002,34.0600007 126.391666,34.2516655 126.605,34.495 C126.818334,34.7383346 126.978333,35.0249984 127.085,35.355 C127.191667,35.6850017 127.245,36.0399981 127.245,36.42 C127.245,36.8000019 127.191667,37.1533317 127.085,37.48 C126.978333,37.8066683 126.818334,38.0916655 126.605,38.335 C126.391666,38.5783346 126.130002,38.7683327 125.82,38.905 C125.509998,39.0416673 125.148335,39.11 124.735,39.11 C124.328331,39.11 123.968335,39.0416673 123.655,38.905 C123.341665,38.7683327 123.078334,38.5783346 122.865,38.335 C122.651666,38.0916655 122.491667,37.8066683 122.385,37.48 C122.278333,37.1533317 122.225,36.8000019 122.225,36.42 Z M129.425,33.83 L130.455,33.83 L130.455,34.58 L129.425,34.58 L129.425,37.79 C129.425,37.8900005 129.433333,37.9699997 129.45,38.03 C129.466667,38.0900003 129.498333,38.1366665 129.545,38.17 C129.591667,38.2033335 129.656666,38.2249999 129.74,38.235 C129.823334,38.2450001 129.931666,38.25 130.065,38.25 L130.455,38.25 L130.455,39 L129.805,39 C129.584999,39 129.396667,38.9850002 129.24,38.955 C129.083333,38.9249999 128.956667,38.8700004 128.86,38.79 C128.763333,38.7099996 128.691667,38.5966674 128.645,38.45 C128.598333,38.3033326 128.575,38.1100012 128.575,37.87 L128.575,34.58 L127.695,34.58 L127.695,33.83 L128.575,33.83 L128.575,32.28 L129.425,32.28 L129.425,33.83 Z" id="Shaketosplatterinkblot"></path>
                        <path d="M44.128,12.971 C44.128,13.379002 44.2016659,13.7246653 44.349,14.008 C44.4963341,14.2913348 44.6918321,14.5208325 44.9355,14.6965 C45.1791679,14.8721675 45.4653317,15.0024996 45.794,15.0875 C46.1226683,15.1725004 46.4626649,15.215 46.814,15.215 C47.0520012,15.215 47.3069986,15.1951669 47.579,15.1555 C47.8510014,15.1158331 48.1059988,15.0393339 48.344,14.926 C48.5820012,14.8126661 48.7803325,14.6568343 48.939,14.4585 C49.0976675,14.2601657 49.177,14.0080015 49.177,13.702 C49.177,13.3733317 49.0721677,13.107001 48.8625,12.903 C48.6528323,12.698999 48.3780017,12.5290007 48.038,12.393 C47.6979983,12.2569993 47.3126688,12.1380005 46.882,12.036 C46.4513312,11.9339995 46.0150022,11.8206673 45.573,11.696 C45.1196644,11.5826661 44.6776688,11.4438342 44.247,11.2795 C43.8163312,11.1151658 43.4310017,10.902668 43.091,10.642 C42.7509983,10.381332 42.4761677,10.055502 42.2665,9.6645 C42.0568323,9.27349805 41.952,8.80033611 41.952,8.245 C41.952,7.62166355 42.0851653,7.08050229 42.3515,6.6215 C42.6178347,6.1624977 42.9663312,5.78000153 43.397,5.474 C43.8276688,5.16799847 44.3149973,4.94133407 44.859,4.794 C45.4030027,4.64666593 45.9469973,4.573 46.491,4.573 C47.1256698,4.573 47.7348304,4.64383262 48.3185,4.7855 C48.9021696,4.92716737 49.4206644,5.15666508 49.874,5.474 C50.3273356,5.79133492 50.6871653,6.19649753 50.9535,6.6895 C51.2198347,7.18250246 51.353,7.78032982 51.353,8.483 L48.769,8.483 C48.7463332,8.12033152 48.669834,7.82000119 48.5395,7.582 C48.409166,7.34399881 48.2363344,7.15700068 48.021,7.021 C47.8056656,6.88499932 47.5591681,6.78866695 47.2815,6.732 C47.0038319,6.67533305 46.7006683,6.647 46.372,6.647 C46.1566656,6.647 45.9413344,6.66966644 45.726,6.715 C45.5106656,6.76033356 45.3151675,6.8396661 45.1395,6.953 C44.9638325,7.0663339 44.8193339,7.20799915 44.706,7.378 C44.5926661,7.54800085 44.536,7.76333203 44.536,8.024 C44.536,8.26200119 44.5813329,8.45466593 44.672,8.602 C44.7626671,8.74933407 44.9411653,8.88533271 45.2075,9.01 C45.4738347,9.13466729 45.8421643,9.25933271 46.3125,9.384 C46.7828357,9.50866729 47.3976629,9.66733237 48.157,9.86 C48.3836678,9.90533356 48.6981647,9.98749941 49.1005,10.1065 C49.5028353,10.2255006 49.9023313,10.415332 50.299,10.676 C50.6956686,10.936668 51.0384986,11.2851645 51.3275,11.7215 C51.6165014,12.1578355 51.761,12.7159966 51.761,13.396 C51.761,13.9513361 51.6533344,14.4669976 51.438,14.943 C51.2226656,15.4190024 50.9025021,15.8298316 50.4775,16.1755 C50.0524979,16.5211684 49.5255031,16.7903324 48.8965,16.983 C48.2674969,17.1756676 47.5393375,17.272 46.712,17.272 C46.04333,17.272 45.3945031,17.1898342 44.7655,17.0255 C44.1364969,16.8611658 43.5811691,16.6033351 43.0995,16.252 C42.6178309,15.9006649 42.2353347,15.4530027 41.952,14.909 C41.6686652,14.3649973 41.5326666,13.7190037 41.544,12.971 L44.128,12.971 Z M56.011,10.574 L58.085,10.574 C58.3910015,10.574 58.6856652,10.5513336 58.969,10.506 C59.2523347,10.4606664 59.5016656,10.372834 59.717,10.2425 C59.9323344,10.112166 60.105166,9.92800119 60.2355,9.69 C60.365834,9.45199881 60.431,9.14033526 60.431,8.755 C60.431,8.36966474 60.365834,8.05800119 60.2355,7.82 C60.105166,7.58199881 59.9323344,7.39783399 59.717,7.2675 C59.5016656,7.13716602 59.2523347,7.04933356 58.969,7.004 C58.6856652,6.95866644 58.3910015,6.936 58.085,6.936 L56.011,6.936 L56.011,10.574 Z M53.342,4.862 L58.816,4.862 C59.5753371,4.862 60.2213307,4.97249889 60.754,5.1935 C61.2866693,5.4145011 61.720165,5.70633152 62.0545,6.069 C62.388835,6.43166848 62.6324992,6.84533101 62.7855,7.31 C62.9385008,7.77466899 63.015,8.25633084 63.015,8.755 C63.015,9.24233577 62.9385008,9.72116431 62.7855,10.1915 C62.6324992,10.6618357 62.388835,11.0783315 62.0545,11.441 C61.720165,11.8036685 61.2866693,12.0954989 60.754,12.3165 C60.2213307,12.5375011 59.5753371,12.648 58.816,12.648 L56.011,12.648 L56.011,17 L53.342,17 L53.342,4.862 Z M64.681,4.862 L67.35,4.862 L67.35,14.756 L73.266,14.756 L73.266,17 L64.681,17 L64.681,4.862 Z M77.822,12.308 L80.967,12.308 L79.437,7.854 L79.403,7.854 L77.822,12.308 Z M78.077,4.862 L80.814,4.862 L85.353,17 L82.582,17 L81.664,14.297 L77.125,14.297 L76.173,17 L73.487,17 L78.077,4.862 Z M88.226,12.971 C88.226,13.379002 88.2996659,13.7246653 88.447,14.008 C88.5943341,14.2913348 88.7898321,14.5208325 89.0335,14.6965 C89.2771679,14.8721675 89.5633317,15.0024996 89.892,15.0875 C90.2206683,15.1725004 90.5606649,15.215 90.912,15.215 C91.1500012,15.215 91.4049986,15.1951669 91.677,15.1555 C91.9490014,15.1158331 92.2039988,15.0393339 92.442,14.926 C92.6800012,14.8126661 92.8783325,14.6568343 93.037,14.4585 C93.1956675,14.2601657 93.275,14.0080015 93.275,13.702 C93.275,13.3733317 93.1701677,13.107001 92.9605,12.903 C92.7508323,12.698999 92.4760017,12.5290007 92.136,12.393 C91.7959983,12.2569993 91.4106688,12.1380005 90.98,12.036 C90.5493312,11.9339995 90.1130022,11.8206673 89.671,11.696 C89.2176644,11.5826661 88.7756688,11.4438342 88.345,11.2795 C87.9143312,11.1151658 87.5290017,10.902668 87.189,10.642 C86.8489983,10.381332 86.5741677,10.055502 86.3645,9.6645 C86.1548323,9.27349805 86.05,8.80033611 86.05,8.245 C86.05,7.62166355 86.1831653,7.08050229 86.4495,6.6215 C86.7158347,6.1624977 87.0643312,5.78000153 87.495,5.474 C87.9256688,5.16799847 88.4129973,4.94133407 88.957,4.794 C89.5010027,4.64666593 90.0449973,4.573 90.589,4.573 C91.2236698,4.573 91.8328304,4.64383262 92.4165,4.7855 C93.0001696,4.92716737 93.5186644,5.15666508 93.972,5.474 C94.4253356,5.79133492 94.7851653,6.19649753 95.0515,6.6895 C95.3178347,7.18250246 95.451,7.78032982 95.451,8.483 L92.867,8.483 C92.8443332,8.12033152 92.767834,7.82000119 92.6375,7.582 C92.507166,7.34399881 92.3343344,7.15700068 92.119,7.021 C91.9036656,6.88499932 91.6571681,6.78866695 91.3795,6.732 C91.1018319,6.67533305 90.7986683,6.647 90.47,6.647 C90.2546656,6.647 90.0393344,6.66966644 89.824,6.715 C89.6086656,6.76033356 89.4131675,6.8396661 89.2375,6.953 C89.0618325,7.0663339 88.9173339,7.20799915 88.804,7.378 C88.6906661,7.54800085 88.634,7.76333203 88.634,8.024 C88.634,8.26200119 88.6793329,8.45466593 88.77,8.602 C88.8606671,8.74933407 89.0391653,8.88533271 89.3055,9.01 C89.5718347,9.13466729 89.9401643,9.25933271 90.4105,9.384 C90.8808357,9.50866729 91.4956629,9.66733237 92.255,9.86 C92.4816678,9.90533356 92.7961647,9.98749941 93.1985,10.1065 C93.6008353,10.2255006 94.0003313,10.415332 94.397,10.676 C94.7936686,10.936668 95.1364986,11.2851645 95.4255,11.7215 C95.7145014,12.1578355 95.859,12.7159966 95.859,13.396 C95.859,13.9513361 95.7513344,14.4669976 95.536,14.943 C95.3206656,15.4190024 95.0005021,15.8298316 94.5755,16.1755 C94.1504979,16.5211684 93.6235031,16.7903324 92.9945,16.983 C92.3654969,17.1756676 91.6373375,17.272 90.81,17.272 C90.14133,17.272 89.4925031,17.1898342 88.8635,17.0255 C88.2344969,16.8611658 87.6791691,16.6033351 87.1975,16.252 C86.7158309,15.9006649 86.3333347,15.4530027 86.05,14.909 C85.7666652,14.3649973 85.6306666,13.7190037 85.642,12.971 L88.226,12.971 Z M97.44,4.862 L100.109,4.862 L100.109,9.52 L105.022,9.52 L105.022,4.862 L107.691,4.862 L107.691,17 L105.022,17 L105.022,11.764 L100.109,11.764 L100.109,17 L97.44,17 L97.44,4.862 Z" id="SPLASH"></path>
                    </g>
                </g>
            </g>
        </g>
    </g>
</svg>