<?xml version="1.0" encoding="UTF-8"?>
<svg width="98px" height="49px" viewBox="0 0 98 49" version="1.1" xmlns="http://www.w3.org/2000/svg" xmlns:xlink="http://www.w3.org/1999/xlink">
    <!-- Generator: Sketch 54.1 (76490) - https://sketchapp.com -->
    <title>Text</title>
    <desc>Created with Sketch.</desc>
    <g id="Make" stroke="none" stroke-width="1" fill="none" fill-rule="evenodd">
        <g id="C-37&gt;Shake-to-Remix" transform="translate(-48.000000, -836.000000)" fill="#1B1B1B" fill-rule="nonzero">
            <g id="Content" transform="translate(12.000000, 76.000000)">
                <g id="05_Glitch" transform="translate(0.000000, 562.000000)">
                    <g id="Text" transform="translate(35.500000, 194.000000)">
                        <path d="M11.799,32.088 C12.33,32.385 13.365,33.069 13.752,33.357 L13.329,33.969 C12.897,33.645 11.925,32.997 11.394,32.691 L11.799,32.088 Z M10.449,38.514 C11.439,38.343 12.555,37.992 13.464,37.47 C14.958,36.615 16.146,35.445 16.875,34.176 L17.307,34.914 C16.524,36.129 15.282,37.29 13.851,38.136 C12.942,38.658 11.7,39.081 10.863,39.252 L10.449,38.514 Z M10.44,34.113 C10.98,34.401 12.024,35.04 12.42,35.328 L12.006,35.958 C11.565,35.634 10.584,35.004 10.044,34.725 L10.44,34.113 Z M22.932,38.352 L25.11,38.352 C25.326,38.352 25.533,38.334 25.713,38.307 L25.713,39.063 C25.533,39.045 25.254,39.036 25.11,39.036 L20.133,39.036 C19.935,39.036 19.701,39.045 19.485,39.063 L19.485,38.307 C19.692,38.334 19.935,38.352 20.133,38.352 L22.203,38.352 L22.203,35.04 L20.547,35.04 C20.403,35.04 20.115,35.049 19.926,35.067 L19.926,34.347 C20.115,34.374 20.403,34.383 20.547,34.383 L24.687,34.383 C24.912,34.383 25.137,34.365 25.326,34.347 L25.326,35.067 C25.128,35.049 24.894,35.04 24.687,35.04 L22.932,35.04 L22.932,38.352 Z M34.245,31.971 L34.839,32.511 C34.218,33.141 33.354,33.879 32.427,34.464 L32.427,38.316 C32.427,38.658 32.445,39.099 32.481,39.279 L31.599,39.279 C31.626,39.108 31.653,38.658 31.653,38.316 L31.653,34.914 C30.69,35.445 29.448,35.967 28.269,36.318 L27.855,35.616 C29.358,35.265 30.888,34.581 31.878,33.96 C32.796,33.393 33.741,32.61 34.245,31.971 Z M43.155,33.015 L43.758,33.375 C43.686,33.501 43.596,33.708 43.542,33.852 C43.299,34.752 42.75,35.976 41.949,36.948 C41.13,37.947 40.059,38.775 38.367,39.396 L37.719,38.811 C39.366,38.325 40.491,37.506 41.31,36.552 C42.012,35.724 42.561,34.563 42.741,33.744 L39.699,33.744 C39.159,34.5 38.403,35.301 37.422,35.958 L36.801,35.49 C38.358,34.563 39.24,33.258 39.627,32.448 C39.726,32.295 39.852,31.971 39.906,31.737 L40.743,32.016 C40.59,32.25 40.428,32.547 40.338,32.718 C40.275,32.844 40.203,32.97 40.122,33.096 L42.57,33.096 C42.813,33.096 43.011,33.069 43.155,33.015 Z M49.23,36.894 C49.752,36.894 50.094,36.471 50.013,35.625 C49.869,35.238 49.572,35.076 49.221,35.076 C48.762,35.076 48.321,35.436 48.321,36.012 C48.321,36.57 48.735,36.894 49.23,36.894 Z M50.607,33.672 L50.49,33.672 C50.49,34.176 50.499,34.725 50.508,35.13 C50.697,35.436 50.796,35.832 50.796,36.273 C50.796,37.479 50.211,38.82 48.141,39.441 L47.52,38.838 C48.69,38.568 49.518,38.082 49.887,37.29 C49.671,37.443 49.419,37.515 49.122,37.515 C48.366,37.515 47.646,36.984 47.646,36.021 C47.646,35.139 48.375,34.464 49.221,34.464 C49.437,34.464 49.635,34.5 49.815,34.563 C49.815,34.302 49.815,33.987 49.806,33.681 C48.456,33.69 46.944,33.753 45.828,33.834 L45.81,33.132 C46.8,33.114 48.474,33.06 49.797,33.042 C49.797,32.79 49.788,32.583 49.779,32.457 C49.77,32.268 49.743,32.007 49.725,31.899 L50.544,31.899 L50.499,32.457 C50.499,32.592 50.49,32.799 50.49,33.033 L50.625,33.033 C51.705,33.033 52.803,33.042 53.235,33.042 L53.226,33.717 C52.722,33.69 51.912,33.672 50.607,33.672 Z M58.401,38.703 C58.653,38.703 58.896,38.685 59.112,38.649 C59.031,37.947 58.608,37.461 57.933,37.461 C57.528,37.461 57.222,37.704 57.222,38.01 C57.222,38.451 57.735,38.703 58.401,38.703 Z M60.237,32.232 L60.651,32.754 C60.489,32.862 60.291,32.997 60.156,33.096 C59.715,33.429 58.518,34.482 57.834,35.058 C58.239,34.923 58.644,34.869 59.04,34.869 C60.525,34.869 61.596,35.769 61.596,36.975 C61.596,38.415 60.399,39.351 58.518,39.351 C57.303,39.351 56.556,38.811 56.556,38.073 C56.556,37.461 57.105,36.903 57.933,36.903 C59.049,36.903 59.652,37.65 59.769,38.478 C60.471,38.208 60.876,37.695 60.876,36.966 C60.876,36.093 59.994,35.454 58.869,35.454 C57.402,35.454 56.592,36.075 55.458,37.227 L54.936,36.696 C55.674,36.084 56.817,35.13 57.339,34.698 C57.834,34.284 58.941,33.348 59.382,32.952 C58.914,32.97 57.159,33.051 56.7,33.078 C56.493,33.087 56.286,33.096 56.097,33.132 L56.079,32.385 C56.277,32.412 56.529,32.412 56.709,32.412 C57.168,32.412 59.283,32.349 59.751,32.304 C60.012,32.277 60.138,32.259 60.237,32.232 Z M67.743,35.328 L67.743,34.653 C68.211,34.608 68.796,34.581 69.372,34.581 C69.885,34.581 70.434,34.599 70.911,34.653 L70.893,35.337 C70.443,35.283 69.912,35.229 69.39,35.229 C68.832,35.229 68.292,35.265 67.743,35.328 Z M68.319,32.988 L68.319,33.699 C67.734,33.834 67.095,33.933 66.474,34.005 C66.393,34.392 66.294,34.806 66.195,35.184 C65.871,36.462 65.268,38.298 64.8,39.27 L64.008,39.009 C64.539,38.091 65.169,36.282 65.502,35.022 C65.583,34.725 65.655,34.401 65.727,34.077 C65.439,34.095 65.169,34.104 64.917,34.104 C64.521,34.104 64.197,34.086 63.882,34.068 L63.855,33.366 C64.278,33.42 64.602,33.429 64.926,33.429 C65.223,33.429 65.538,33.411 65.88,33.393 C65.943,33.069 65.988,32.79 66.015,32.61 C66.042,32.358 66.06,32.061 66.042,31.872 L66.915,31.944 C66.852,32.142 66.789,32.475 66.753,32.655 L66.618,33.312 C67.194,33.24 67.779,33.132 68.319,32.988 Z M67.293,36.759 L67.968,36.822 C67.887,37.119 67.842,37.398 67.842,37.623 C67.842,38.046 68.04,38.451 69.309,38.451 C69.885,38.451 70.506,38.379 71.046,38.28 L71.019,39.009 C70.542,39.072 69.948,39.126 69.3,39.126 C67.896,39.126 67.158,38.694 67.158,37.812 C67.158,37.47 67.212,37.137 67.293,36.759 Z M79.749,33.24 L79.281,33.42 C79.11,33.015 78.876,32.475 78.678,32.133 L79.128,31.98 C79.308,32.313 79.596,32.871 79.749,33.24 Z M77.625,32.718 L78.318,32.502 C78.543,33.582 79.074,35.04 80.217,36.183 L79.686,36.741 C79.281,36.246 78.921,35.706 78.588,35.076 C78.777,37.326 77.841,39.549 75.528,39.549 C74.097,39.549 73.215,38.622 73.215,37.191 C73.215,35.661 74.088,34.23 74.817,33.474 C74.367,33.546 73.701,33.654 73.35,33.726 C73.197,33.753 73.035,33.789 72.855,33.825 L72.747,33.069 C72.882,33.069 73.062,33.06 73.224,33.042 C73.998,32.979 75.564,32.727 76.086,32.529 L76.302,33.177 C76.185,33.222 75.96,33.276 75.834,33.339 C75.267,33.762 73.917,35.445 73.917,37.092 C73.917,38.316 74.691,38.802 75.555,38.802 C77.409,38.802 78.462,36.651 77.841,33.366 C77.769,33.159 77.697,32.943 77.625,32.718 Z M79.605,31.8 L80.046,31.629 C80.244,31.962 80.514,32.511 80.685,32.889 L80.217,33.06 C80.046,32.655 79.812,32.133 79.605,31.8 Z M82.521,32.187 L83.331,32.25 C83.277,32.403 83.196,32.691 83.16,32.853 C82.989,33.672 82.728,35.265 82.728,36.264 C82.728,36.696 82.746,37.056 82.8,37.488 C82.953,37.083 83.151,36.561 83.295,36.21 L83.682,36.498 C83.457,37.128 83.133,38.073 83.052,38.496 C83.025,38.622 83.007,38.793 83.007,38.892 L83.034,39.207 L82.386,39.252 C82.206,38.622 82.062,37.596 82.062,36.39 C82.062,35.076 82.35,33.546 82.458,32.817 C82.485,32.61 82.521,32.376 82.521,32.187 Z M84.717,36.507 L85.365,36.57 C85.284,36.894 85.248,37.146 85.248,37.389 C85.248,37.794 85.518,38.19 86.742,38.19 C87.543,38.19 88.227,38.118 88.947,37.956 L88.956,38.712 C88.407,38.82 87.66,38.892 86.733,38.892 C85.239,38.892 84.573,38.397 84.573,37.56 C84.573,37.236 84.636,36.885 84.717,36.507 Z M85.023,33.672 L85.014,32.934 C85.986,33.096 87.786,33.06 88.677,32.934 L88.677,33.672 C87.723,33.771 85.995,33.771 85.023,33.672 Z M3.861,46.312 L6.3,46.312 C6.543,46.312 6.741,46.285 6.885,46.231 L7.479,46.591 C7.407,46.717 7.317,46.924 7.272,47.068 C7.029,47.977 6.48,49.192 5.679,50.173 C4.86,51.172 3.78,51.991 2.097,52.621 L1.44,52.027 C3.096,51.541 4.221,50.731 5.04,49.768 C5.742,48.949 6.291,47.779 6.471,46.96 L3.438,46.96 C2.889,47.725 2.142,48.526 1.152,49.174 L0.531,48.715 C2.079,47.788 2.961,46.474 3.357,45.673 C3.447,45.511 3.582,45.187 3.636,44.953 L4.464,45.232 C4.32,45.466 4.158,45.772 4.068,45.934 C4.005,46.06 3.933,46.186 3.861,46.312 Z M6.408,45.007 L6.885,44.8 C7.11,45.124 7.434,45.664 7.623,46.033 L7.137,46.249 C6.957,45.889 6.651,45.34 6.408,45.007 Z M7.398,44.647 L7.875,44.44 C8.109,44.773 8.46,45.331 8.622,45.664 L8.145,45.88 C7.947,45.493 7.65,44.98 7.398,44.647 Z M10.989,45.241 L11.817,45.241 C11.799,45.412 11.79,45.673 11.79,45.889 L11.79,48.895 C11.79,49.12 11.799,49.417 11.817,49.579 L10.989,49.579 C10.998,49.444 11.025,49.156 11.025,48.886 L11.025,45.889 C11.025,45.727 11.007,45.412 10.989,45.241 Z M15.156,45.178 L15.984,45.178 C15.966,45.394 15.948,45.655 15.948,45.952 L15.948,47.41 C15.948,49.57 15.66,50.281 15.012,51.055 C14.427,51.757 13.527,52.144 12.87,52.369 L12.285,51.748 C13.113,51.541 13.887,51.181 14.445,50.551 C15.093,49.804 15.201,49.075 15.201,47.374 L15.201,45.952 C15.201,45.655 15.174,45.394 15.156,45.178 Z M22.347,46.816 C22.5,47.176 22.941,48.364 23.058,48.76 L22.392,48.994 C22.293,48.589 21.879,47.446 21.69,47.041 L22.347,46.816 Z M24.831,47.077 L25.605,47.32 C25.542,47.509 25.506,47.653 25.47,47.77 C25.227,48.76 24.84,49.723 24.192,50.533 C23.364,51.586 22.266,52.288 21.258,52.675 L20.664,52.063 C21.708,51.766 22.851,51.082 23.589,50.155 C24.228,49.372 24.696,48.229 24.831,47.077 Z M20.259,47.266 C20.439,47.653 20.907,48.832 21.078,49.3 L20.394,49.552 C20.259,49.084 19.773,47.842 19.593,47.527 L20.259,47.266 Z M32.022,47.923 L34.506,47.923 C34.704,47.923 35.028,47.905 35.217,47.887 L35.217,48.634 C35.019,48.616 34.749,48.598 34.524,48.598 L32.013,48.598 C31.914,50.281 31.257,51.469 29.709,52.369 L29.007,51.874 C30.42,51.217 31.167,50.209 31.275,48.598 L28.602,48.598 C28.314,48.598 28.008,48.616 27.801,48.634 L27.801,47.887 C27.999,47.905 28.314,47.923 28.584,47.923 L31.293,47.923 L31.293,46.285 C30.384,46.375 29.367,46.402 28.674,46.411 L28.494,45.745 C29.178,45.772 30.546,45.736 31.518,45.61 C32.337,45.493 33.399,45.277 33.84,45.088 L34.317,45.709 L33.804,45.844 C33.363,45.961 32.67,46.096 32.022,46.195 L32.022,47.923 Z M40.815,45.7 L40.815,46.303 L36.459,46.303 L36.459,45.7 L38.358,45.7 L38.358,44.494 L38.997,44.494 L38.997,45.7 L40.815,45.7 Z M40.851,48.256 L40.293,48.571 C40.122,48.094 39.663,47.365 39.222,46.843 L39.744,46.573 C40.194,47.086 40.671,47.788 40.851,48.256 Z M37.512,46.618 L38.142,46.789 C37.827,47.554 37.314,48.337 36.801,48.85 C36.693,48.742 36.432,48.544 36.288,48.454 C36.783,47.995 37.242,47.302 37.512,46.618 Z M39.24,48.139 L39.897,48.274 C39.726,48.859 39.51,49.399 39.258,49.894 C39.708,50.299 40.095,50.704 40.347,51.028 L39.924,51.577 C39.69,51.253 39.339,50.866 38.934,50.47 C38.358,51.379 37.629,52.117 36.747,52.666 C36.666,52.54 36.432,52.261 36.288,52.144 C37.188,51.631 37.917,50.911 38.457,50.011 C38.052,49.651 37.62,49.291 37.224,48.985 L37.62,48.526 C37.98,48.796 38.376,49.12 38.763,49.444 C38.952,49.039 39.114,48.607 39.24,48.139 Z M44.37,46.537 L44.37,46.861 C44.289,50.65 44.208,51.901 43.92,52.279 C43.758,52.513 43.587,52.585 43.308,52.612 C43.038,52.639 42.597,52.63 42.156,52.612 C42.147,52.432 42.075,52.162 41.967,51.982 C42.444,52.027 42.867,52.036 43.038,52.036 C43.191,52.036 43.281,52.009 43.362,51.892 C43.569,51.631 43.668,50.452 43.74,47.167 L42.426,47.167 C42.318,49.48 41.922,51.496 40.473,52.72 C40.365,52.576 40.14,52.351 39.978,52.252 C41.328,51.154 41.688,49.3 41.787,47.167 L40.698,47.167 L40.698,46.537 L41.814,46.537 C41.832,45.898 41.832,45.232 41.832,44.566 L42.48,44.566 C42.48,45.232 42.471,45.898 42.453,46.537 L44.37,46.537 Z M47.133,47.878 L49.158,47.878 L49.158,46.951 L47.133,46.951 L47.133,47.878 Z M47.133,45.484 L47.133,46.402 L49.158,46.402 L49.158,45.484 L47.133,45.484 Z M51.894,46.402 L51.894,45.484 L49.851,45.484 L49.851,46.402 L51.894,46.402 Z M51.894,47.878 L51.894,46.951 L49.851,46.951 L49.851,47.878 L51.894,47.878 Z M53.424,49.831 L50.409,49.831 C51.237,50.659 52.524,51.415 53.658,51.793 C53.505,51.928 53.298,52.189 53.199,52.351 C52.056,51.892 50.733,51.019 49.851,50.065 L49.851,52.693 L49.158,52.693 L49.158,50.11 C48.294,51.091 46.98,51.946 45.81,52.387 C45.72,52.234 45.504,51.973 45.36,51.838 C46.53,51.46 47.808,50.686 48.6,49.831 L45.585,49.831 L45.585,49.21 L49.158,49.21 L49.158,48.454 L46.458,48.454 L46.458,44.899 L52.605,44.899 L52.605,48.454 L49.851,48.454 L49.851,49.21 L53.424,49.21 L53.424,49.831 Z M59.328,50.785 L58.635,50.785 C58.662,50.443 58.671,49.867 58.671,49.399 C57.843,49.849 57.267,50.308 57.267,50.893 C57.267,51.595 57.96,51.694 58.878,51.694 C59.571,51.694 60.525,51.613 61.308,51.478 L61.29,52.207 C60.615,52.288 59.625,52.351 58.851,52.351 C57.573,52.351 56.547,52.081 56.547,50.992 C56.547,49.939 57.609,49.273 58.644,48.733 C58.554,48.364 58.23,48.184 57.843,48.184 C57.258,48.184 56.718,48.472 56.304,48.841 C56.052,49.084 55.8,49.417 55.494,49.777 L54.882,49.318 C56.016,48.22 56.601,47.302 56.934,46.6 L56.565,46.6 C56.187,46.6 55.584,46.582 55.098,46.546 L55.098,45.871 C55.575,45.925 56.196,45.961 56.601,45.961 C56.79,45.961 56.979,45.961 57.186,45.952 C57.312,45.556 57.393,45.151 57.411,44.845 L58.149,44.908 C58.086,45.16 58.005,45.529 57.879,45.934 C58.788,45.889 59.76,45.808 60.606,45.664 L60.597,46.33 C59.715,46.465 58.617,46.546 57.645,46.582 C57.447,47.041 57.168,47.536 56.844,47.95 C57.168,47.743 57.681,47.617 58.077,47.617 C58.653,47.617 59.121,47.896 59.256,48.427 C59.868,48.139 60.408,47.923 60.876,47.707 C61.146,47.59 61.362,47.482 61.614,47.356 L61.902,48.031 C61.677,48.094 61.353,48.22 61.119,48.31 C60.615,48.508 59.976,48.769 59.301,49.084 C59.31,49.597 59.319,50.353 59.328,50.785 Z M67.41,46.159 L67.41,46.501 C67.338,50.479 67.275,51.784 66.996,52.171 C66.834,52.405 66.672,52.486 66.402,52.513 C66.159,52.549 65.745,52.549 65.349,52.522 C65.331,52.324 65.268,52.036 65.151,51.847 C65.565,51.883 65.952,51.883 66.114,51.883 C66.258,51.892 66.348,51.865 66.411,51.739 C66.618,51.487 66.699,50.263 66.762,46.816 L65.403,46.816 C65.322,49.228 65.016,51.379 63.801,52.693 C63.702,52.549 63.459,52.333 63.297,52.234 C64.413,51.055 64.683,49.066 64.755,46.816 L63.513,46.816 L63.513,46.159 L64.773,46.159 C64.782,45.646 64.782,45.124 64.782,44.593 L65.439,44.593 C65.439,45.124 65.43,45.646 65.421,46.159 L67.41,46.159 Z M68.778,51.253 L70.524,51.253 L70.524,46.231 L68.778,46.231 L68.778,51.253 Z M68.148,45.583 L71.19,45.583 L71.19,52.486 L70.524,52.486 L70.524,51.892 L68.778,51.892 L68.778,52.549 L68.148,52.549 L68.148,45.583 Z M74.826,44.926 C75.798,45.133 77.499,45.34 78.345,45.394 L78.246,46.06 C77.355,45.979 75.798,45.781 74.709,45.583 L74.826,44.926 Z M78.525,47.473 C78.363,47.59 78.138,47.779 78.039,47.878 C77.697,48.184 76.707,49.102 76.374,49.453 C76.464,49.444 76.626,49.453 76.707,49.48 C77.058,49.516 77.265,49.75 77.391,50.119 C77.472,50.38 77.589,50.83 77.688,51.118 C77.787,51.451 77.994,51.595 78.453,51.595 C79.038,51.595 79.722,51.514 80.136,51.406 L80.091,52.171 C79.713,52.234 78.894,52.297 78.417,52.297 C77.706,52.297 77.256,52.135 77.058,51.541 C76.977,51.28 76.842,50.758 76.761,50.497 C76.653,50.191 76.464,50.029 76.221,50.029 C75.978,50.029 75.771,50.155 75.564,50.353 C75.231,50.677 74.268,51.685 73.764,52.324 L73.071,51.856 C73.188,51.766 73.35,51.622 73.512,51.451 C73.872,51.1 76.302,48.67 77.184,47.788 C76.482,47.833 74.988,47.968 74.439,48.013 C74.151,48.031 73.917,48.067 73.719,48.094 L73.656,47.302 C73.863,47.32 74.133,47.329 74.412,47.32 C74.925,47.311 76.995,47.167 77.67,47.086 C77.823,47.068 78.012,47.023 78.093,46.987 L78.525,47.473 Z M85.509,50.956 C85.509,50.803 85.5,50.596 85.5,50.353 C85.221,50.299 84.933,50.272 84.636,50.272 C83.79,50.272 83.331,50.596 83.331,51.001 C83.331,51.415 83.682,51.721 84.564,51.721 C85.077,51.721 85.509,51.568 85.509,50.956 Z M88.758,51.262 L88.353,51.892 C87.831,51.415 87.093,50.875 86.202,50.551 C86.211,50.776 86.22,50.974 86.22,51.109 C86.22,51.721 85.806,52.36 84.645,52.36 C83.367,52.36 82.656,51.901 82.656,51.037 C82.656,50.227 83.439,49.678 84.726,49.678 C84.987,49.678 85.23,49.696 85.473,49.732 C85.455,49.336 85.437,48.913 85.428,48.544 L84.933,48.544 C84.321,48.544 83.331,48.49 82.692,48.418 L82.692,47.734 C83.295,47.842 84.348,47.905 84.933,47.905 L85.41,47.905 L85.41,46.627 L84.969,46.627 C84.348,46.627 83.403,46.555 82.872,46.492 L82.872,45.826 C83.412,45.925 84.366,45.997 84.96,45.997 L85.419,45.997 L85.419,45.412 C85.419,45.268 85.41,45.007 85.392,44.881 L86.157,44.881 C86.13,45.043 86.121,45.214 86.112,45.475 C86.103,45.583 86.103,45.754 86.103,45.97 C86.877,45.943 87.606,45.871 88.389,45.754 L88.398,46.411 C87.696,46.483 86.931,46.555 86.094,46.6 L86.094,47.878 C86.949,47.842 87.768,47.761 88.569,47.644 L88.578,48.319 C87.741,48.427 86.949,48.49 86.103,48.526 C86.121,48.985 86.148,49.453 86.166,49.876 C87.345,50.2 88.254,50.857 88.758,51.262 Z M94.32,49.894 C94.842,49.894 95.184,49.471 95.103,48.625 C94.959,48.238 94.662,48.076 94.311,48.076 C93.852,48.076 93.411,48.436 93.411,49.012 C93.411,49.57 93.825,49.894 94.32,49.894 Z M95.697,46.672 L95.58,46.672 C95.58,47.176 95.589,47.725 95.598,48.13 C95.787,48.436 95.886,48.832 95.886,49.273 C95.886,50.479 95.301,51.82 93.231,52.441 L92.61,51.838 C93.78,51.568 94.608,51.082 94.977,50.29 C94.761,50.443 94.509,50.515 94.212,50.515 C93.456,50.515 92.736,49.984 92.736,49.021 C92.736,48.139 93.465,47.464 94.311,47.464 C94.527,47.464 94.725,47.5 94.905,47.563 C94.905,47.302 94.905,46.987 94.896,46.681 C93.546,46.69 92.034,46.753 90.918,46.834 L90.9,46.132 C91.89,46.114 93.564,46.06 94.887,46.042 C94.887,45.79 94.878,45.583 94.869,45.457 C94.86,45.268 94.833,45.007 94.815,44.899 L95.634,44.899 L95.589,45.457 C95.589,45.592 95.58,45.799 95.58,46.033 L95.715,46.033 C96.795,46.033 97.893,46.042 98.325,46.042 L98.316,46.717 C97.812,46.69 97.002,46.672 95.697,46.672 Z" id="シェイクするたびにグリッチ効果を加えます"></path>
                        <path d="M27.655,15.623 C27.1789976,16.2350031 26.6520029,16.6628321 26.074,16.9065 C25.4959971,17.1501679 24.9123363,17.272 24.323,17.272 C23.393662,17.272 22.557837,17.1105016 21.8155,16.7875 C21.073163,16.4644984 20.4470025,16.0196695 19.937,15.453 C19.4269974,14.8863305 19.0360014,14.2205038 18.764,13.4555 C18.4919986,12.6904962 18.356,11.8660044 18.356,10.982 C18.356,10.0753288 18.4919986,9.23383722 18.764,8.4575 C19.0360014,7.68116278 19.4269974,7.00400289 19.937,6.426 C20.4470025,5.84799711 21.073163,5.39466831 21.8155,5.066 C22.557837,4.73733169 23.393662,4.573 24.323,4.573 C24.9463364,4.573 25.5498304,4.66649907 26.1335,4.8535 C26.7171696,5.04050093 27.2441643,5.31533152 27.7145,5.678 C28.1848357,6.04066848 28.5729985,6.48833067 28.879,7.021 C29.1850015,7.55366933 29.3719997,8.16566321 29.44,8.857 L26.89,8.857 C26.7313325,8.1769966 26.4253356,7.6670017 25.972,7.327 C25.5186644,6.9869983 24.9690032,6.817 24.323,6.817 C23.7223303,6.817 23.2123354,6.9331655 22.793,7.1655 C22.3736646,7.39783449 22.033668,7.70949804 21.773,8.1005 C21.512332,8.49150195 21.3225006,8.93633084 21.2035,9.435 C21.0844994,9.93366916 21.025,10.4493307 21.025,10.982 C21.025,11.4920025 21.0844994,11.9878309 21.2035,12.4695 C21.3225006,12.9511691 21.512332,13.3846647 21.773,13.77 C22.033668,14.1553353 22.3736646,14.4641655 22.793,14.6965 C23.2123354,14.9288345 23.7223303,15.045 24.323,15.045 C25.2070044,15.045 25.8898309,14.8211689 26.3715,14.3735 C26.8531691,13.9258311 27.1336663,13.2770042 27.213,12.427 L24.527,12.427 L24.527,10.438 L29.627,10.438 L29.627,17 L27.927,17 L27.655,15.623 Z M31.786,4.862 L34.455,4.862 L34.455,14.756 L40.371,14.756 L40.371,17 L31.786,17 L31.786,4.862 Z M41.867,4.862 L44.536,4.862 L44.536,17 L41.867,17 L41.867,4.862 Z M49.568,7.106 L45.93,7.106 L45.93,4.862 L55.875,4.862 L55.875,7.106 L52.237,7.106 L52.237,17 L49.568,17 L49.568,7.106 Z M65.361,8.942 C65.3156664,8.63599847 65.2136675,8.35550127 65.055,8.1005 C64.8963325,7.84549872 64.6980012,7.62166763 64.46,7.429 C64.2219988,7.23633237 63.9528348,7.0861672 63.6525,6.9785 C63.3521652,6.87083279 63.0376683,6.817 62.709,6.817 C62.1083303,6.817 61.5983354,6.9331655 61.179,7.1655 C60.7596646,7.39783449 60.419668,7.70949804 60.159,8.1005 C59.898332,8.49150195 59.7085006,8.93633084 59.5895,9.435 C59.4704994,9.93366916 59.411,10.4493307 59.411,10.982 C59.411,11.4920025 59.4704994,11.9878309 59.5895,12.4695 C59.7085006,12.9511691 59.898332,13.3846647 60.159,13.77 C60.419668,14.1553353 60.7596646,14.4641655 61.179,14.6965 C61.5983354,14.9288345 62.1083303,15.045 62.709,15.045 C63.5250041,15.045 64.1624977,14.7956692 64.6215,14.297 C65.0805023,13.7983308 65.3609995,13.1410041 65.463,12.325 L68.047,12.325 C67.9789997,13.0843371 67.8033348,13.7699969 67.52,14.382 C67.2366653,14.9940031 66.862669,15.5153312 66.398,15.946 C65.933331,16.3766688 65.3893365,16.7053322 64.766,16.932 C64.1426636,17.1586678 63.4570037,17.272 62.709,17.272 C61.779662,17.272 60.943837,17.1105016 60.2015,16.7875 C59.459163,16.4644984 58.8330026,16.0196695 58.323,15.453 C57.8129975,14.8863305 57.4220014,14.2205038 57.15,13.4555 C56.8779986,12.6904962 56.742,11.8660044 56.742,10.982 C56.742,10.0753288 56.8779986,9.23383722 57.15,8.4575 C57.4220014,7.68116278 57.8129975,7.00400289 58.323,6.426 C58.8330026,5.84799711 59.459163,5.39466831 60.2015,5.066 C60.943837,4.73733169 61.779662,4.573 62.709,4.573 C63.37767,4.573 64.009497,4.66933237 64.6045,4.862 C65.199503,5.05466763 65.7321643,5.33516482 66.2025,5.7035 C66.6728357,6.07183517 67.0609985,6.52799728 67.367,7.072 C67.6730015,7.61600272 67.8656663,8.23932982 67.945,8.942 L65.361,8.942 Z M69.866,4.862 L72.535,4.862 L72.535,9.52 L77.448,9.52 L77.448,4.862 L80.117,4.862 L80.117,17 L77.448,17 L77.448,11.764 L72.535,11.764 L72.535,17 L69.866,17 L69.866,4.862 Z" id="GLITCH"></path>
                    </g>
                </g>
            </g>
        </g>
    </g>
</svg>