<?xml version="1.0" encoding="UTF-8"?>
<svg width="170px" height="100px" viewBox="0 0 170 100" version="1.1" xmlns="http://www.w3.org/2000/svg" xmlns:xlink="http://www.w3.org/1999/xlink">
    <!-- Generator: Sketch 54.1 (76490) - https://sketchapp.com -->
    <title>Text_Text_Normal</title>
    <desc>Created with Sketch.</desc>
    <g id="Make" stroke="none" stroke-width="1" fill="none" fill-rule="evenodd">
        <g id="C-01&gt;Make-Graphic&gt;JP" transform="translate(-193.000000, -234.000000)">
            <g id="Content" transform="translate(12.000000, 64.000000)">
                <g id="02_TEXT" transform="translate(181.000000, 0.000000)">
                    <g id="Text_Text_Normal" transform="translate(0.000000, 170.000000)">
                        <rect id="bg" fill="#FFFFFF" x="0" y="0" width="170" height="100"></rect>
                        <g transform="translate(17.000000, 24.000000)" fill="#1B1B1B" fill-rule="nonzero">
                            <path d="M3.686,33.933 L2.498,33.933 C2.318,34.734 2.129,35.535 1.949,36.246 C2.291,36.444 2.651,36.669 2.993,36.912 C3.335,36.102 3.569,35.112 3.686,33.933 Z M3.965,33.294 L4.361,33.384 C4.244,35.013 3.965,36.3 3.524,37.308 C3.947,37.632 4.307,37.965 4.55,38.262 L4.145,38.793 C3.929,38.523 3.605,38.208 3.227,37.893 C2.777,38.694 2.201,39.279 1.499,39.702 C1.409,39.54 1.229,39.297 1.085,39.162 C1.742,38.82 2.291,38.262 2.714,37.488 C2.417,37.263 2.102,37.047 1.787,36.849 L1.688,37.227 L1.13,36.939 C1.346,36.165 1.616,35.058 1.868,33.933 L1.013,33.933 L1.013,33.321 L1.994,33.321 C2.138,32.673 2.264,32.034 2.363,31.476 L3.002,31.548 C2.894,32.097 2.768,32.7 2.633,33.321 L3.848,33.321 L3.965,33.294 Z M9.23,35.076 L9.23,35.697 L7.088,35.697 L7.088,38.838 C7.088,39.243 6.998,39.441 6.71,39.549 C6.431,39.648 5.963,39.666 5.252,39.666 C5.216,39.486 5.099,39.189 5,39.018 C5.567,39.036 6.071,39.036 6.224,39.027 C6.377,39.018 6.422,38.973 6.422,38.838 L6.422,35.697 L4.316,35.697 L4.316,35.076 L6.422,35.076 L6.422,33.879 L6.692,33.879 C7.142,33.519 7.619,33.006 7.979,32.547 L4.613,32.547 L4.613,31.935 L8.465,31.935 L8.6,31.89 L9.041,32.214 C8.537,32.934 7.772,33.744 7.088,34.275 L7.088,35.076 L9.23,35.076 Z M11.489,36.588 L12.182,36.651 C12.074,36.93 11.975,37.326 11.975,37.56 C11.975,38.244 12.515,38.676 13.784,38.676 C14.504,38.676 15.35,38.613 15.98,38.469 L15.962,39.198 C15.404,39.297 14.54,39.369 13.811,39.369 C12.218,39.369 11.282,38.82 11.282,37.704 C11.282,37.326 11.39,36.912 11.489,36.588 Z M17.168,34.149 L17.303,34.797 C16.907,34.932 16.394,35.058 15.791,35.175 C16.052,35.742 16.34,36.345 16.592,36.813 L16.241,37.254 C15.791,37.173 15.071,37.074 14.504,37.002 L14.567,36.453 C14.999,36.507 15.422,36.552 15.701,36.579 C15.53,36.228 15.323,35.76 15.116,35.292 C13.964,35.445 12.506,35.463 11.129,35.373 L11.102,34.716 C12.461,34.842 13.784,34.833 14.846,34.698 L14.531,33.969 C14.459,33.816 14.396,33.654 14.333,33.51 C13.433,33.591 12.308,33.591 11.201,33.492 L11.156,32.835 C12.218,32.952 13.217,32.97 14.072,32.907 C14.027,32.808 13.991,32.718 13.955,32.637 C13.82,32.358 13.739,32.196 13.622,32.007 L14.432,31.836 C14.513,32.142 14.63,32.484 14.765,32.826 C15.386,32.727 16.016,32.592 16.538,32.403 L16.664,33.042 C16.205,33.186 15.62,33.321 15.008,33.42 L15.17,33.789 C15.242,33.978 15.368,34.257 15.521,34.59 C16.223,34.464 16.763,34.302 17.168,34.149 Z M26.942,34.284 L26.537,34.878 C26.06,34.473 25.097,33.924 24.503,33.654 L24.854,33.096 C25.502,33.384 26.519,33.96 26.942,34.284 Z M23.702,32.934 L23.72,33.6 C23.252,33.735 22.694,33.852 22.109,33.924 C21.668,35.184 20.876,36.732 20.165,37.695 L19.463,37.335 C20.21,36.471 20.966,35.049 21.371,34.005 C21.11,34.023 20.849,34.032 20.588,34.032 C20.255,34.032 19.886,34.023 19.553,34.005 L19.499,33.33 C19.832,33.375 20.21,33.393 20.597,33.393 C20.912,33.393 21.245,33.375 21.587,33.348 C21.722,32.853 21.848,32.286 21.866,31.809 L22.667,31.881 C22.577,32.205 22.46,32.745 22.316,33.258 C22.784,33.186 23.252,33.078 23.702,32.934 Z M24.17,37.911 C24.17,37.794 24.17,37.65 24.161,37.488 C23.882,37.407 23.576,37.362 23.261,37.362 C22.604,37.362 22.172,37.659 22.172,38.064 C22.172,38.478 22.505,38.757 23.198,38.757 C23.927,38.757 24.17,38.352 24.17,37.911 Z M24.044,34.635 L24.764,34.635 C24.737,35.004 24.746,35.265 24.755,35.598 C24.764,35.922 24.8,36.507 24.818,37.047 C25.583,37.326 26.204,37.767 26.663,38.163 L26.276,38.775 C25.898,38.433 25.421,38.037 24.845,37.758 C24.854,37.893 24.854,38.019 24.854,38.118 C24.854,38.829 24.386,39.414 23.288,39.414 C22.307,39.414 21.506,39.009 21.506,38.127 C21.506,37.308 22.28,36.777 23.288,36.777 C23.585,36.777 23.873,36.804 24.134,36.858 C24.107,36.129 24.062,35.256 24.044,34.635 Z M34.043,32.16 L34.889,32.448 C34.799,32.619 34.664,32.916 34.592,33.105 C34.304,33.897 33.845,34.887 33.242,35.76 C34.043,36.426 34.817,37.128 35.456,37.812 L34.889,38.442 C34.223,37.677 33.539,37.038 32.765,36.372 C31.928,37.398 30.812,38.469 29.246,39.279 L28.607,38.712 C30.182,37.965 31.298,36.975 32.18,35.886 C31.514,35.337 30.515,34.599 29.651,34.068 L30.128,33.501 C30.893,33.987 31.937,34.725 32.648,35.274 C33.224,34.437 33.593,33.591 33.863,32.826 C33.926,32.646 34.007,32.358 34.043,32.16 Z M40.937,33.816 C41.09,34.176 41.531,35.364 41.648,35.76 L40.982,35.994 C40.883,35.589 40.469,34.446 40.28,34.041 L40.937,33.816 Z M43.421,34.077 L44.195,34.32 C44.132,34.509 44.096,34.653 44.06,34.77 C43.817,35.76 43.43,36.723 42.782,37.533 C41.954,38.586 40.856,39.288 39.848,39.675 L39.254,39.063 C40.298,38.766 41.441,38.082 42.179,37.155 C42.818,36.372 43.286,35.229 43.421,34.077 Z M38.849,34.266 C39.029,34.653 39.497,35.832 39.668,36.3 L38.984,36.552 C38.849,36.084 38.363,34.842 38.183,34.527 L38.849,34.266 Z M51.503,36.804 L50.873,36.426 C51.548,35.814 52.205,34.824 52.475,34.284 C52.322,34.32 50.666,34.653 49.073,34.977 L49.073,37.65 C49.073,38.271 49.298,38.469 50.378,38.469 C51.422,38.469 52.286,38.379 53.186,38.208 L53.15,38.982 C52.349,39.09 51.449,39.162 50.324,39.162 C48.65,39.162 48.344,38.73 48.344,37.839 L48.344,35.121 C47.435,35.301 46.634,35.472 46.274,35.553 L46.13,34.797 C46.535,34.743 47.39,34.59 48.344,34.41 L48.344,32.871 C48.344,32.601 48.326,32.304 48.281,32.043 L49.136,32.043 C49.091,32.304 49.073,32.61 49.073,32.871 L49.073,34.275 C50.603,33.978 52.178,33.654 52.556,33.573 C52.754,33.528 52.925,33.474 53.033,33.411 L53.564,33.825 C53.501,33.915 53.402,34.068 53.339,34.185 C52.925,34.932 52.223,36.057 51.503,36.804 Z M55.508,35.985 L55.508,35.103 C55.778,35.121 56.255,35.148 56.759,35.148 L61.691,35.148 C62.141,35.148 62.465,35.121 62.663,35.103 L62.663,35.985 C62.483,35.976 62.105,35.94 61.7,35.94 L56.759,35.94 C56.264,35.94 55.787,35.958 55.508,35.985 Z M69.854,32.286 C70.079,32.61 70.484,33.258 70.691,33.681 L70.178,33.915 C69.953,33.438 69.656,32.907 69.359,32.502 L69.854,32.286 Z M71.033,31.854 C71.276,32.169 71.672,32.817 71.897,33.231 L71.384,33.465 C71.141,32.988 70.826,32.475 70.529,32.07 L71.033,31.854 Z M66.011,32.151 C66.542,32.448 67.577,33.141 67.964,33.42 L67.541,34.041 C67.109,33.708 66.128,33.06 65.606,32.754 L66.011,32.151 Z M64.661,38.586 C65.651,38.415 66.767,38.055 67.676,37.542 C69.17,36.687 70.358,35.508 71.087,34.239 L71.519,34.986 C70.736,36.192 69.494,37.353 68.054,38.199 C67.154,38.73 65.912,39.144 65.075,39.315 L64.661,38.586 Z M64.652,34.176 C65.183,34.464 66.236,35.112 66.632,35.391 L66.218,36.021 C65.768,35.697 64.796,35.067 64.247,34.788 L64.652,34.176 Z M77.738,37.785 L77.045,37.785 C77.072,37.443 77.081,36.867 77.081,36.399 C76.253,36.849 75.677,37.308 75.677,37.893 C75.677,38.595 76.37,38.694 77.288,38.694 C77.981,38.694 78.935,38.613 79.718,38.478 L79.7,39.207 C79.025,39.288 78.035,39.351 77.261,39.351 C75.983,39.351 74.957,39.081 74.957,37.992 C74.957,36.939 76.019,36.273 77.054,35.733 C76.964,35.364 76.64,35.184 76.253,35.184 C75.668,35.184 75.128,35.472 74.714,35.841 C74.462,36.084 74.21,36.417 73.904,36.777 L73.292,36.318 C74.426,35.22 75.011,34.302 75.344,33.6 L74.975,33.6 C74.597,33.6 73.994,33.582 73.508,33.546 L73.508,32.871 C73.985,32.925 74.606,32.961 75.011,32.961 C75.2,32.961 75.389,32.961 75.596,32.952 C75.722,32.556 75.803,32.151 75.821,31.845 L76.559,31.908 C76.496,32.16 76.415,32.529 76.289,32.934 C77.198,32.889 78.17,32.808 79.016,32.664 L79.007,33.33 C78.125,33.465 77.027,33.546 76.055,33.582 C75.857,34.041 75.578,34.536 75.254,34.95 C75.578,34.743 76.091,34.617 76.487,34.617 C77.063,34.617 77.531,34.896 77.666,35.427 C78.278,35.139 78.818,34.923 79.286,34.707 C79.556,34.59 79.772,34.482 80.024,34.356 L80.312,35.031 C80.087,35.094 79.763,35.22 79.529,35.31 C79.025,35.508 78.386,35.769 77.711,36.084 C77.72,36.597 77.729,37.353 77.738,37.785 Z M88.673,32.871 L89.258,33.231 C89.186,33.357 89.105,33.573 89.051,33.717 C88.826,34.509 88.367,35.508 87.737,36.39 C88.079,36.606 88.385,36.813 88.61,36.975 L88.115,37.623 C87.899,37.452 87.602,37.236 87.26,37.002 C86.45,37.929 85.316,38.811 83.732,39.396 L83.084,38.838 C84.65,38.361 85.82,37.497 86.639,36.597 C85.928,36.138 85.172,35.688 84.668,35.409 L85.127,34.878 C85.649,35.148 86.405,35.58 87.107,36.003 C87.656,35.238 88.097,34.311 88.268,33.6 L85.208,33.6 C84.632,34.401 83.831,35.283 82.823,35.967 L82.22,35.499 C83.768,34.545 84.704,33.195 85.109,32.376 C85.199,32.214 85.334,31.89 85.397,31.656 L86.207,31.917 C86.063,32.151 85.901,32.457 85.811,32.628 C85.757,32.736 85.694,32.844 85.622,32.961 L88.079,32.961 C88.322,32.961 88.52,32.934 88.673,32.871 Z M97.565,31.971 L98.159,32.511 C97.538,33.141 96.674,33.879 95.747,34.464 L95.747,38.316 C95.747,38.658 95.765,39.099 95.801,39.279 L94.919,39.279 C94.946,39.108 94.973,38.658 94.973,38.316 L94.973,34.914 C94.01,35.445 92.768,35.967 91.589,36.318 L91.175,35.616 C92.678,35.265 94.208,34.581 95.198,33.96 C96.116,33.393 97.061,32.61 97.565,31.971 Z M107.249,33.132 C107.573,33.132 107.843,32.862 107.843,32.538 C107.843,32.214 107.573,31.935 107.249,31.935 C106.916,31.935 106.655,32.214 106.655,32.538 C106.655,32.862 106.916,33.132 107.249,33.132 Z M101.48,32.835 L105.989,32.835 C106.079,32.835 106.178,32.835 106.286,32.826 C106.259,32.736 106.241,32.637 106.241,32.538 C106.241,31.98 106.691,31.521 107.249,31.521 C107.807,31.521 108.257,31.98 108.257,32.538 C108.257,33.096 107.807,33.546 107.249,33.546 C107.132,33.546 107.015,33.528 106.907,33.492 L106.889,33.591 C106.691,34.536 106.259,35.985 105.548,36.912 C104.72,37.965 103.649,38.802 102.002,39.315 L101.39,38.64 C103.136,38.208 104.144,37.443 104.9,36.48 C105.539,35.661 105.953,34.41 106.079,33.546 L101.471,33.546 C101.12,33.546 100.805,33.564 100.58,33.573 L100.58,32.781 C100.823,32.808 101.183,32.835 101.48,32.835 Z M110.579,32.007 L111.488,32.016 C111.443,32.304 111.416,32.619 111.398,32.907 C111.362,33.915 111.29,36.021 111.29,37.353 C111.29,38.334 111.92,38.676 112.748,38.676 C114.386,38.676 115.313,37.758 115.952,36.831 L116.447,37.452 C115.844,38.298 114.692,39.414 112.73,39.414 C111.452,39.414 110.57,38.874 110.57,37.425 C110.57,36.102 110.66,33.852 110.66,32.907 C110.66,32.583 110.633,32.268 110.579,32.007 Z M121.919,37.956 C121.919,37.803 121.91,37.596 121.91,37.353 C121.631,37.299 121.343,37.272 121.046,37.272 C120.2,37.272 119.741,37.596 119.741,38.001 C119.741,38.415 120.092,38.721 120.974,38.721 C121.487,38.721 121.919,38.568 121.919,37.956 Z M125.168,38.262 L124.763,38.892 C124.241,38.415 123.503,37.875 122.612,37.551 C122.621,37.776 122.63,37.974 122.63,38.109 C122.63,38.721 122.216,39.36 121.055,39.36 C119.777,39.36 119.066,38.901 119.066,38.037 C119.066,37.227 119.849,36.678 121.136,36.678 C121.397,36.678 121.64,36.696 121.883,36.732 C121.865,36.336 121.847,35.913 121.838,35.544 L121.343,35.544 C120.731,35.544 119.741,35.49 119.102,35.418 L119.102,34.734 C119.705,34.842 120.758,34.905 121.343,34.905 L121.82,34.905 L121.82,33.627 L121.379,33.627 C120.758,33.627 119.813,33.555 119.282,33.492 L119.282,32.826 C119.822,32.925 120.776,32.997 121.37,32.997 L121.829,32.997 L121.829,32.412 C121.829,32.268 121.82,32.007 121.802,31.881 L122.567,31.881 C122.54,32.043 122.531,32.214 122.522,32.475 C122.513,32.583 122.513,32.754 122.513,32.97 C123.287,32.943 124.016,32.871 124.799,32.754 L124.808,33.411 C124.106,33.483 123.341,33.555 122.504,33.6 L122.504,34.878 C123.359,34.842 124.178,34.761 124.979,34.644 L124.988,35.319 C124.151,35.427 123.359,35.49 122.513,35.526 C122.531,35.985 122.558,36.453 122.576,36.876 C123.755,37.2 124.664,37.857 125.168,38.262 Z M130.73,36.894 C131.252,36.894 131.594,36.471 131.513,35.625 C131.369,35.238 131.072,35.076 130.721,35.076 C130.262,35.076 129.821,35.436 129.821,36.012 C129.821,36.57 130.235,36.894 130.73,36.894 Z M132.107,33.672 L131.99,33.672 C131.99,34.176 131.999,34.725 132.008,35.13 C132.197,35.436 132.296,35.832 132.296,36.273 C132.296,37.479 131.711,38.82 129.641,39.441 L129.02,38.838 C130.19,38.568 131.018,38.082 131.387,37.29 C131.171,37.443 130.919,37.515 130.622,37.515 C129.866,37.515 129.146,36.984 129.146,36.021 C129.146,35.139 129.875,34.464 130.721,34.464 C130.937,34.464 131.135,34.5 131.315,34.563 C131.315,34.302 131.315,33.987 131.306,33.681 C129.956,33.69 128.444,33.753 127.328,33.834 L127.31,33.132 C128.3,33.114 129.974,33.06 131.297,33.042 C131.297,32.79 131.288,32.583 131.279,32.457 C131.27,32.268 131.243,32.007 131.225,31.899 L132.044,31.899 L131.999,32.457 C131.999,32.592 131.99,32.799 131.99,33.033 L132.125,33.033 C133.205,33.033 134.303,33.042 134.735,33.042 L134.726,33.717 C134.222,33.69 133.412,33.672 132.107,33.672 Z" id="好きなメッセージをタイプします"></path>
                            <path d="M50.2945,7.106 L46.6565,7.106 L46.6565,4.862 L56.6015,4.862 L56.6015,7.106 L52.9635,7.106 L52.9635,17 L50.2945,17 L50.2945,7.106 Z M57.9955,4.862 L67.0735,4.862 L67.0735,7.106 L60.6645,7.106 L60.6645,9.707 L66.5465,9.707 L66.5465,11.781 L60.6645,11.781 L60.6645,14.756 L67.2095,14.756 L67.2095,17 L57.9955,17 L57.9955,4.862 Z M71.9865,10.642 L68.0765,4.862 L71.1705,4.862 L73.5505,8.738 L76.0155,4.862 L78.9395,4.862 L75.0465,10.659 L79.2795,17 L76.1005,17 L73.4485,12.801 L70.7455,17 L67.7535,17 L71.9865,10.642 Z M83.0365,7.106 L79.3985,7.106 L79.3985,4.862 L89.3435,4.862 L89.3435,7.106 L85.7055,7.106 L85.7055,17 L83.0365,17 L83.0365,7.106 Z" id="TEXT"></path>
                        </g>
                    </g>
                </g>
            </g>
        </g>
    </g>
</svg>