<?xml version="1.0" encoding="UTF-8"?>
<svg width="142px" height="49px" viewBox="0 0 142 49" version="1.1" xmlns="http://www.w3.org/2000/svg" xmlns:xlink="http://www.w3.org/1999/xlink">
    <!-- Generator: Sketch 54.1 (76490) - https://sketchapp.com -->
    <title>Text</title>
    <desc>Created with Sketch.</desc>
    <g id="Make" stroke="none" stroke-width="1" fill="none" fill-rule="evenodd">
        <g id="C-37&gt;Shake-to-Remix" transform="translate(-26.000000, -555.000000)" fill="#6A6A6A" fill-rule="nonzero">
            <g id="Content" transform="translate(12.000000, 76.000000)">
                <g id="03_AutoDesigner" transform="translate(0.000000, 281.000000)">
                    <g id="Text" transform="translate(14.500000, 194.000000)">
                        <path d="M32.799,32.088 C33.33,32.385 34.365,33.069 34.752,33.357 L34.329,33.969 C33.897,33.645 32.925,32.997 32.394,32.691 L32.799,32.088 Z M31.449,38.514 C32.439,38.343 33.555,37.992 34.464,37.47 C35.958,36.615 37.146,35.445 37.875,34.176 L38.307,34.914 C37.524,36.129 36.282,37.29 34.851,38.136 C33.942,38.658 32.7,39.081 31.863,39.252 L31.449,38.514 Z M31.44,34.113 C31.98,34.401 33.024,35.04 33.42,35.328 L33.006,35.958 C32.565,35.634 31.584,35.004 31.044,34.725 L31.44,34.113 Z M43.932,38.352 L46.11,38.352 C46.326,38.352 46.533,38.334 46.713,38.307 L46.713,39.063 C46.533,39.045 46.254,39.036 46.11,39.036 L41.133,39.036 C40.935,39.036 40.701,39.045 40.485,39.063 L40.485,38.307 C40.692,38.334 40.935,38.352 41.133,38.352 L43.203,38.352 L43.203,35.04 L41.547,35.04 C41.403,35.04 41.115,35.049 40.926,35.067 L40.926,34.347 C41.115,34.374 41.403,34.383 41.547,34.383 L45.687,34.383 C45.912,34.383 46.137,34.365 46.326,34.347 L46.326,35.067 C46.128,35.049 45.894,35.04 45.687,35.04 L43.932,35.04 L43.932,38.352 Z M55.245,31.971 L55.839,32.511 C55.218,33.141 54.354,33.879 53.427,34.464 L53.427,38.316 C53.427,38.658 53.445,39.099 53.481,39.279 L52.599,39.279 C52.626,39.108 52.653,38.658 52.653,38.316 L52.653,34.914 C51.69,35.445 50.448,35.967 49.269,36.318 L48.855,35.616 C50.358,35.265 51.888,34.581 52.878,33.96 C53.796,33.393 54.741,32.61 55.245,31.971 Z M64.155,33.015 L64.758,33.375 C64.686,33.501 64.596,33.708 64.542,33.852 C64.299,34.752 63.75,35.976 62.949,36.948 C62.13,37.947 61.059,38.775 59.367,39.396 L58.719,38.811 C60.366,38.325 61.491,37.506 62.31,36.552 C63.012,35.724 63.561,34.563 63.741,33.744 L60.699,33.744 C60.159,34.5 59.403,35.301 58.422,35.958 L57.801,35.49 C59.358,34.563 60.24,33.258 60.627,32.448 C60.726,32.295 60.852,31.971 60.906,31.737 L61.743,32.016 C61.59,32.25 61.428,32.547 61.338,32.718 C61.275,32.844 61.203,32.97 61.122,33.096 L63.57,33.096 C63.813,33.096 64.011,33.069 64.155,33.015 Z M70.23,36.894 C70.752,36.894 71.094,36.471 71.013,35.625 C70.869,35.238 70.572,35.076 70.221,35.076 C69.762,35.076 69.321,35.436 69.321,36.012 C69.321,36.57 69.735,36.894 70.23,36.894 Z M71.607,33.672 L71.49,33.672 C71.49,34.176 71.499,34.725 71.508,35.13 C71.697,35.436 71.796,35.832 71.796,36.273 C71.796,37.479 71.211,38.82 69.141,39.441 L68.52,38.838 C69.69,38.568 70.518,38.082 70.887,37.29 C70.671,37.443 70.419,37.515 70.122,37.515 C69.366,37.515 68.646,36.984 68.646,36.021 C68.646,35.139 69.375,34.464 70.221,34.464 C70.437,34.464 70.635,34.5 70.815,34.563 C70.815,34.302 70.815,33.987 70.806,33.681 C69.456,33.69 67.944,33.753 66.828,33.834 L66.81,33.132 C67.8,33.114 69.474,33.06 70.797,33.042 C70.797,32.79 70.788,32.583 70.779,32.457 C70.77,32.268 70.743,32.007 70.725,31.899 L71.544,31.899 L71.499,32.457 C71.499,32.592 71.49,32.799 71.49,33.033 L71.625,33.033 C72.705,33.033 73.803,33.042 74.235,33.042 L74.226,33.717 C73.722,33.69 72.912,33.672 71.607,33.672 Z M79.401,38.703 C79.653,38.703 79.896,38.685 80.112,38.649 C80.031,37.947 79.608,37.461 78.933,37.461 C78.528,37.461 78.222,37.704 78.222,38.01 C78.222,38.451 78.735,38.703 79.401,38.703 Z M81.237,32.232 L81.651,32.754 C81.489,32.862 81.291,32.997 81.156,33.096 C80.715,33.429 79.518,34.482 78.834,35.058 C79.239,34.923 79.644,34.869 80.04,34.869 C81.525,34.869 82.596,35.769 82.596,36.975 C82.596,38.415 81.399,39.351 79.518,39.351 C78.303,39.351 77.556,38.811 77.556,38.073 C77.556,37.461 78.105,36.903 78.933,36.903 C80.049,36.903 80.652,37.65 80.769,38.478 C81.471,38.208 81.876,37.695 81.876,36.966 C81.876,36.093 80.994,35.454 79.869,35.454 C78.402,35.454 77.592,36.075 76.458,37.227 L75.936,36.696 C76.674,36.084 77.817,35.13 78.339,34.698 C78.834,34.284 79.941,33.348 80.382,32.952 C79.914,32.97 78.159,33.051 77.7,33.078 C77.493,33.087 77.286,33.096 77.097,33.132 L77.079,32.385 C77.277,32.412 77.529,32.412 77.709,32.412 C78.168,32.412 80.283,32.349 80.751,32.304 C81.012,32.277 81.138,32.259 81.237,32.232 Z M88.743,35.328 L88.743,34.653 C89.211,34.608 89.796,34.581 90.372,34.581 C90.885,34.581 91.434,34.599 91.911,34.653 L91.893,35.337 C91.443,35.283 90.912,35.229 90.39,35.229 C89.832,35.229 89.292,35.265 88.743,35.328 Z M89.319,32.988 L89.319,33.699 C88.734,33.834 88.095,33.933 87.474,34.005 C87.393,34.392 87.294,34.806 87.195,35.184 C86.871,36.462 86.268,38.298 85.8,39.27 L85.008,39.009 C85.539,38.091 86.169,36.282 86.502,35.022 C86.583,34.725 86.655,34.401 86.727,34.077 C86.439,34.095 86.169,34.104 85.917,34.104 C85.521,34.104 85.197,34.086 84.882,34.068 L84.855,33.366 C85.278,33.42 85.602,33.429 85.926,33.429 C86.223,33.429 86.538,33.411 86.88,33.393 C86.943,33.069 86.988,32.79 87.015,32.61 C87.042,32.358 87.06,32.061 87.042,31.872 L87.915,31.944 C87.852,32.142 87.789,32.475 87.753,32.655 L87.618,33.312 C88.194,33.24 88.779,33.132 89.319,32.988 Z M88.293,36.759 L88.968,36.822 C88.887,37.119 88.842,37.398 88.842,37.623 C88.842,38.046 89.04,38.451 90.309,38.451 C90.885,38.451 91.506,38.379 92.046,38.28 L92.019,39.009 C91.542,39.072 90.948,39.126 90.3,39.126 C88.896,39.126 88.158,38.694 88.158,37.812 C88.158,37.47 88.212,37.137 88.293,36.759 Z M100.749,33.24 L100.281,33.42 C100.11,33.015 99.876,32.475 99.678,32.133 L100.128,31.98 C100.308,32.313 100.596,32.871 100.749,33.24 Z M98.625,32.718 L99.318,32.502 C99.543,33.582 100.074,35.04 101.217,36.183 L100.686,36.741 C100.281,36.246 99.921,35.706 99.588,35.076 C99.777,37.326 98.841,39.549 96.528,39.549 C95.097,39.549 94.215,38.622 94.215,37.191 C94.215,35.661 95.088,34.23 95.817,33.474 C95.367,33.546 94.701,33.654 94.35,33.726 C94.197,33.753 94.035,33.789 93.855,33.825 L93.747,33.069 C93.882,33.069 94.062,33.06 94.224,33.042 C94.998,32.979 96.564,32.727 97.086,32.529 L97.302,33.177 C97.185,33.222 96.96,33.276 96.834,33.339 C96.267,33.762 94.917,35.445 94.917,37.092 C94.917,38.316 95.691,38.802 96.555,38.802 C98.409,38.802 99.462,36.651 98.841,33.366 C98.769,33.159 98.697,32.943 98.625,32.718 Z M100.605,31.8 L101.046,31.629 C101.244,31.962 101.514,32.511 101.685,32.889 L101.217,33.06 C101.046,32.655 100.812,32.133 100.605,31.8 Z M103.521,32.187 L104.331,32.25 C104.277,32.403 104.196,32.691 104.16,32.853 C103.989,33.672 103.728,35.265 103.728,36.264 C103.728,36.696 103.746,37.056 103.8,37.488 C103.953,37.083 104.151,36.561 104.295,36.21 L104.682,36.498 C104.457,37.128 104.133,38.073 104.052,38.496 C104.025,38.622 104.007,38.793 104.007,38.892 L104.034,39.207 L103.386,39.252 C103.206,38.622 103.062,37.596 103.062,36.39 C103.062,35.076 103.35,33.546 103.458,32.817 C103.485,32.61 103.521,32.376 103.521,32.187 Z M105.717,36.507 L106.365,36.57 C106.284,36.894 106.248,37.146 106.248,37.389 C106.248,37.794 106.518,38.19 107.742,38.19 C108.543,38.19 109.227,38.118 109.947,37.956 L109.956,38.712 C109.407,38.82 108.66,38.892 107.733,38.892 C106.239,38.892 105.573,38.397 105.573,37.56 C105.573,37.236 105.636,36.885 105.717,36.507 Z M106.023,33.672 L106.014,32.934 C106.986,33.096 108.786,33.06 109.677,32.934 L109.677,33.672 C108.723,33.771 106.995,33.771 106.023,33.672 Z M10.947,49.192 L10.578,49.687 C10.452,49.399 10.137,48.841 9.867,48.391 L9.867,52.675 L9.255,52.675 L9.255,48.472 C8.958,49.453 8.571,50.398 8.157,50.983 C8.085,50.812 7.923,50.56 7.815,50.407 C8.373,49.66 8.922,48.256 9.183,47.032 L7.995,47.032 L7.995,46.411 L9.255,46.411 L9.255,44.467 L9.867,44.467 L9.867,46.411 L10.893,46.411 L10.893,47.032 L9.867,47.032 L9.867,47.599 C10.119,47.932 10.794,48.949 10.947,49.192 Z M12.765,50.434 L12.945,50.983 C12.225,51.406 11.46,51.847 10.848,52.189 L10.533,51.631 C11.1,51.343 11.946,50.884 12.765,50.434 Z M11.181,49.228 L11.64,48.931 C11.991,49.282 12.387,49.768 12.567,50.092 L12.081,50.434 C11.91,50.101 11.523,49.597 11.181,49.228 Z M14.736,50.479 L14.448,50.263 C14.898,50.938 15.501,51.469 16.23,51.766 C16.095,51.892 15.897,52.135 15.798,52.306 C14.952,51.883 14.286,51.127 13.8,50.2 L13.8,51.937 C13.8,52.297 13.728,52.477 13.503,52.585 C13.26,52.693 12.855,52.702 12.297,52.702 C12.27,52.531 12.198,52.252 12.108,52.09 C12.504,52.099 12.891,52.099 13.008,52.09 C13.125,52.09 13.152,52.054 13.152,51.937 L13.152,48.571 L10.884,48.571 L10.884,48.004 L13.152,48.004 L13.152,47.311 L11.334,47.311 L11.334,46.789 L13.152,46.789 L13.152,46.15 L11.073,46.15 L11.073,45.601 L12.198,45.601 C12.099,45.322 11.91,44.962 11.748,44.674 L12.27,44.503 C12.486,44.818 12.72,45.259 12.81,45.538 L12.648,45.601 L14.214,45.601 L14.133,45.574 C14.313,45.268 14.538,44.782 14.655,44.458 L15.312,44.647 C15.123,44.98 14.925,45.331 14.754,45.601 L15.942,45.601 L15.942,46.15 L13.8,46.15 L13.8,46.789 L15.744,46.789 L15.744,47.311 L13.8,47.311 L13.8,48.004 L16.068,48.004 L16.068,48.571 L13.8,48.571 L13.8,48.931 C13.935,49.354 14.124,49.741 14.34,50.101 C14.7,49.777 15.177,49.264 15.447,48.895 L15.96,49.255 C15.591,49.696 15.105,50.155 14.736,50.479 Z M23.547,46.69 L24.051,46.96 C23.628,48.139 22.854,49.525 22.098,50.533 C22.602,50.884 23.061,51.235 23.367,51.559 L22.89,52.171 C22.206,51.424 20.721,50.434 19.452,49.822 L19.884,49.282 C20.397,49.516 20.964,49.822 21.495,50.146 C22.098,49.354 22.692,48.283 23.07,47.392 L20.019,47.392 C19.488,48.445 18.831,49.435 18.057,50.191 C17.904,50.065 17.616,49.885 17.427,49.795 C18.768,48.553 19.749,46.564 20.253,44.899 L21,45.07 C20.82,45.61 20.595,46.168 20.343,46.717 L23.412,46.717 L23.547,46.69 Z M33.852,47.284 L33.447,47.878 C32.97,47.473 32.007,46.924 31.413,46.654 L31.764,46.096 C32.412,46.384 33.429,46.96 33.852,47.284 Z M30.612,45.934 L30.63,46.6 C30.162,46.735 29.604,46.852 29.019,46.924 C28.578,48.184 27.786,49.732 27.075,50.695 L26.373,50.335 C27.12,49.471 27.876,48.049 28.281,47.005 C28.02,47.023 27.759,47.032 27.498,47.032 C27.165,47.032 26.796,47.023 26.463,47.005 L26.409,46.33 C26.742,46.375 27.12,46.393 27.507,46.393 C27.822,46.393 28.155,46.375 28.497,46.348 C28.632,45.853 28.758,45.286 28.776,44.809 L29.577,44.881 C29.487,45.205 29.37,45.745 29.226,46.258 C29.694,46.186 30.162,46.078 30.612,45.934 Z M31.08,50.911 C31.08,50.794 31.08,50.65 31.071,50.488 C30.792,50.407 30.486,50.362 30.171,50.362 C29.514,50.362 29.082,50.659 29.082,51.064 C29.082,51.478 29.415,51.757 30.108,51.757 C30.837,51.757 31.08,51.352 31.08,50.911 Z M30.954,47.635 L31.674,47.635 C31.647,48.004 31.656,48.265 31.665,48.598 C31.674,48.922 31.71,49.507 31.728,50.047 C32.493,50.326 33.114,50.767 33.573,51.163 L33.186,51.775 C32.808,51.433 32.331,51.037 31.755,50.758 C31.764,50.893 31.764,51.019 31.764,51.118 C31.764,51.829 31.296,52.414 30.198,52.414 C29.217,52.414 28.416,52.009 28.416,51.127 C28.416,50.308 29.19,49.777 30.198,49.777 C30.495,49.777 30.783,49.804 31.044,49.858 C31.017,49.129 30.972,48.256 30.954,47.635 Z M42.303,45.925 L41.817,46.141 C41.637,45.772 41.331,45.232 41.088,44.899 L41.565,44.692 C41.79,45.016 42.114,45.556 42.303,45.925 Z M40.26,46.141 L37.155,46.141 C36.858,46.141 36.561,46.15 36.327,46.168 L36.327,45.421 C36.588,45.448 36.858,45.475 37.146,45.475 L40.26,45.475 C40.512,45.475 40.836,45.457 41.097,45.421 L41.097,46.168 C40.836,46.15 40.521,46.141 40.26,46.141 Z M36.048,47.725 L41.934,47.725 C42.123,47.725 42.42,47.716 42.636,47.689 L42.636,48.427 C42.438,48.418 42.15,48.409 41.934,48.409 L39.486,48.409 C39.459,49.381 39.315,50.2 38.955,50.866 C38.631,51.469 37.947,52.117 37.182,52.513 L36.516,52.018 C37.218,51.73 37.866,51.208 38.217,50.641 C38.613,50.011 38.712,49.255 38.739,48.409 L36.048,48.409 C35.769,48.409 35.508,48.409 35.265,48.427 L35.265,47.689 C35.508,47.707 35.769,47.725 36.048,47.725 Z M42.078,44.53 L42.555,44.332 C42.789,44.656 43.14,45.223 43.311,45.556 L42.825,45.772 C42.627,45.376 42.339,44.872 42.078,44.53 Z M51.195,46.384 L50.754,46.537 C50.619,46.15 50.412,45.61 50.241,45.268 L50.673,45.133 C50.835,45.457 51.078,46.015 51.195,46.384 Z M49.818,47.023 L50.799,47.023 C51.204,47.023 51.501,46.996 51.627,46.969 L51.627,47.734 C51.528,47.725 51.204,47.707 50.808,47.707 L49.818,47.707 L49.818,48.022 C49.818,50.416 49.296,51.649 47.244,52.576 L46.641,52 C48.279,51.379 49.089,50.605 49.089,48.085 L49.089,47.707 L46.533,47.707 L46.533,49.165 C46.533,49.498 46.56,49.894 46.569,49.975 L45.768,49.975 C45.777,49.894 45.813,49.507 45.813,49.165 L45.813,47.707 L44.841,47.707 C44.445,47.707 44.04,47.734 43.941,47.734 L43.941,46.96 C44.022,46.978 44.463,47.023 44.841,47.023 L45.813,47.023 L45.813,45.871 C45.813,45.574 45.786,45.295 45.768,45.214 L46.569,45.214 C46.56,45.295 46.533,45.556 46.533,45.862 L46.533,47.023 L49.089,47.023 L49.089,45.898 C49.089,45.547 49.062,45.25 49.053,45.16 L49.863,45.16 C49.854,45.25 49.818,45.547 49.818,45.898 L49.818,47.023 Z M51.132,44.998 L51.564,44.863 C51.735,45.187 51.978,45.736 52.104,46.105 L51.663,46.249 C51.519,45.853 51.312,45.331 51.132,44.998 Z M59.655,44.971 L60.249,45.511 C59.628,46.141 58.764,46.879 57.837,47.464 L57.837,51.316 C57.837,51.658 57.855,52.099 57.891,52.279 L57.009,52.279 C57.036,52.108 57.063,51.658 57.063,51.316 L57.063,47.914 C56.1,48.445 54.858,48.967 53.679,49.318 L53.265,48.616 C54.768,48.265 56.298,47.581 57.288,46.96 C58.206,46.393 59.151,45.61 59.655,44.971 Z M63.543,45.403 C64.182,45.826 65.334,46.762 65.838,47.266 L65.271,47.833 C64.821,47.365 63.696,46.402 63.03,45.952 L63.543,45.403 Z M62.769,51.433 C64.344,51.199 65.514,50.65 66.369,50.119 C67.755,49.246 68.853,47.914 69.375,46.807 L69.807,47.572 C69.186,48.697 68.142,49.921 66.783,50.767 C65.883,51.343 64.749,51.892 63.246,52.171 L62.769,51.433 Z M75.828,50.785 L75.135,50.785 C75.162,50.443 75.171,49.867 75.171,49.399 C74.343,49.849 73.767,50.308 73.767,50.893 C73.767,51.595 74.46,51.694 75.378,51.694 C76.071,51.694 77.025,51.613 77.808,51.478 L77.79,52.207 C77.115,52.288 76.125,52.351 75.351,52.351 C74.073,52.351 73.047,52.081 73.047,50.992 C73.047,49.939 74.109,49.273 75.144,48.733 C75.054,48.364 74.73,48.184 74.343,48.184 C73.758,48.184 73.218,48.472 72.804,48.841 C72.552,49.084 72.3,49.417 71.994,49.777 L71.382,49.318 C72.516,48.22 73.101,47.302 73.434,46.6 L73.065,46.6 C72.687,46.6 72.084,46.582 71.598,46.546 L71.598,45.871 C72.075,45.925 72.696,45.961 73.101,45.961 C73.29,45.961 73.479,45.961 73.686,45.952 C73.812,45.556 73.893,45.151 73.911,44.845 L74.649,44.908 C74.586,45.16 74.505,45.529 74.379,45.934 C75.288,45.889 76.26,45.808 77.106,45.664 L77.097,46.33 C76.215,46.465 75.117,46.546 74.145,46.582 C73.947,47.041 73.668,47.536 73.344,47.95 C73.668,47.743 74.181,47.617 74.577,47.617 C75.153,47.617 75.621,47.896 75.756,48.427 C76.368,48.139 76.908,47.923 77.376,47.707 C77.646,47.59 77.862,47.482 78.114,47.356 L78.402,48.031 C78.177,48.094 77.853,48.22 77.619,48.31 C77.115,48.508 76.476,48.769 75.801,49.084 C75.81,49.597 75.819,50.353 75.828,50.785 Z M84.36,51.757 L88.005,51.757 L88.005,52.405 L80.031,52.405 L80.031,51.757 L83.676,51.757 L83.676,49.471 L81.003,49.471 L81.003,48.823 L83.676,48.823 L83.676,46.861 L81.561,46.861 C81.273,47.428 80.958,47.923 80.616,48.328 C80.49,48.22 80.193,48.022 80.013,47.932 C80.751,47.14 81.327,45.898 81.678,44.62 L82.353,44.764 C82.209,45.259 82.047,45.745 81.849,46.204 L83.676,46.204 L83.676,44.476 L84.36,44.476 L84.36,46.204 L87.582,46.204 L87.582,46.861 L84.36,46.861 L84.36,48.823 L87.249,48.823 L87.249,49.471 L84.36,49.471 L84.36,51.757 Z M90.894,50.578 C91.209,50.173 91.542,49.363 91.848,48.67 C90.57,48.778 89.841,49.543 89.841,50.299 C89.841,50.677 90.093,50.893 90.354,50.893 C90.561,50.893 90.705,50.821 90.894,50.578 Z M96.996,49.786 L96.672,50.542 C96.402,50.308 96.087,50.065 95.745,49.84 C95.376,51.001 94.692,51.847 93.396,52.495 L92.802,52 C94.215,51.406 94.845,50.452 95.133,49.48 C94.386,49.075 93.522,48.76 92.595,48.679 C92.253,49.462 91.812,50.506 91.47,51.001 C91.155,51.451 90.804,51.622 90.345,51.622 C89.688,51.622 89.184,51.145 89.184,50.398 C89.184,49.084 90.399,48.076 92.145,48.031 C92.469,47.329 92.793,46.564 93.072,46.006 C92.721,46.033 91.641,46.078 91.227,46.105 C91.029,46.114 90.777,46.132 90.57,46.168 L90.534,45.412 C90.759,45.439 91.02,45.448 91.209,45.448 C91.677,45.448 92.847,45.385 93.225,45.358 C93.387,45.34 93.54,45.304 93.657,45.259 L94.116,45.628 C94.026,45.727 93.945,45.808 93.882,45.925 C93.63,46.321 93.252,47.23 92.874,48.067 C93.765,48.157 94.584,48.436 95.295,48.778 C95.331,48.553 95.349,48.328 95.367,48.112 C95.385,47.869 95.394,47.581 95.376,47.293 L96.114,47.374 C96.078,48.013 96.024,48.58 95.925,49.102 C96.348,49.336 96.708,49.579 96.996,49.786 Z M104.826,48.976 L105.51,48.976 L105.51,52.666 L104.826,52.666 L104.826,52.126 L99.21,52.126 L99.21,52.684 L98.544,52.684 L98.544,48.976 L99.21,48.976 L99.21,51.469 L101.613,51.469 L101.613,48.4 L98.886,48.4 L98.886,45.322 L99.552,45.322 L99.552,47.752 L101.613,47.752 L101.613,44.521 L102.297,44.521 L102.297,47.752 L104.457,47.752 L104.457,45.322 L105.15,45.322 L105.15,48.4 L102.297,48.4 L102.297,51.469 L104.826,51.469 L104.826,48.976 Z M108.669,45.007 L109.578,45.016 C109.533,45.304 109.506,45.619 109.488,45.907 C109.452,46.915 109.38,49.021 109.38,50.353 C109.38,51.334 110.01,51.676 110.838,51.676 C112.476,51.676 113.403,50.758 114.042,49.831 L114.537,50.452 C113.934,51.298 112.782,52.414 110.82,52.414 C109.542,52.414 108.66,51.874 108.66,50.425 C108.66,49.102 108.75,46.852 108.75,45.907 C108.75,45.583 108.723,45.268 108.669,45.007 Z M120.009,50.956 C120.009,50.803 120,50.596 120,50.353 C119.721,50.299 119.433,50.272 119.136,50.272 C118.29,50.272 117.831,50.596 117.831,51.001 C117.831,51.415 118.182,51.721 119.064,51.721 C119.577,51.721 120.009,51.568 120.009,50.956 Z M123.258,51.262 L122.853,51.892 C122.331,51.415 121.593,50.875 120.702,50.551 C120.711,50.776 120.72,50.974 120.72,51.109 C120.72,51.721 120.306,52.36 119.145,52.36 C117.867,52.36 117.156,51.901 117.156,51.037 C117.156,50.227 117.939,49.678 119.226,49.678 C119.487,49.678 119.73,49.696 119.973,49.732 C119.955,49.336 119.937,48.913 119.928,48.544 L119.433,48.544 C118.821,48.544 117.831,48.49 117.192,48.418 L117.192,47.734 C117.795,47.842 118.848,47.905 119.433,47.905 L119.91,47.905 L119.91,46.627 L119.469,46.627 C118.848,46.627 117.903,46.555 117.372,46.492 L117.372,45.826 C117.912,45.925 118.866,45.997 119.46,45.997 L119.919,45.997 L119.919,45.412 C119.919,45.268 119.91,45.007 119.892,44.881 L120.657,44.881 C120.63,45.043 120.621,45.214 120.612,45.475 C120.603,45.583 120.603,45.754 120.603,45.97 C121.377,45.943 122.106,45.871 122.889,45.754 L122.898,46.411 C122.196,46.483 121.431,46.555 120.594,46.6 L120.594,47.878 C121.449,47.842 122.268,47.761 123.069,47.644 L123.078,48.319 C122.241,48.427 121.449,48.49 120.603,48.526 C120.621,48.985 120.648,49.453 120.666,49.876 C121.845,50.2 122.754,50.857 123.258,51.262 Z M128.82,49.894 C129.342,49.894 129.684,49.471 129.603,48.625 C129.459,48.238 129.162,48.076 128.811,48.076 C128.352,48.076 127.911,48.436 127.911,49.012 C127.911,49.57 128.325,49.894 128.82,49.894 Z M130.197,46.672 L130.08,46.672 C130.08,47.176 130.089,47.725 130.098,48.13 C130.287,48.436 130.386,48.832 130.386,49.273 C130.386,50.479 129.801,51.82 127.731,52.441 L127.11,51.838 C128.28,51.568 129.108,51.082 129.477,50.29 C129.261,50.443 129.009,50.515 128.712,50.515 C127.956,50.515 127.236,49.984 127.236,49.021 C127.236,48.139 127.965,47.464 128.811,47.464 C129.027,47.464 129.225,47.5 129.405,47.563 C129.405,47.302 129.405,46.987 129.396,46.681 C128.046,46.69 126.534,46.753 125.418,46.834 L125.4,46.132 C126.39,46.114 128.064,46.06 129.387,46.042 C129.387,45.79 129.378,45.583 129.369,45.457 C129.36,45.268 129.333,45.007 129.315,44.899 L130.134,44.899 L130.089,45.457 C130.089,45.592 130.08,45.799 130.08,46.033 L130.215,46.033 C131.295,46.033 132.393,46.042 132.825,46.042 L132.816,46.717 C132.312,46.69 131.502,46.672 130.197,46.672 Z" id="シェイクするたびに様々なデザインを生み出します"></path>
                        <path d="M4.717,12.308 L7.862,12.308 L6.332,7.854 L6.298,7.854 L4.717,12.308 Z M4.972,4.862 L7.709,4.862 L12.248,17 L9.477,17 L8.559,14.297 L4.02,14.297 L3.068,17 L0.382,17 L4.972,4.862 Z M23.604,12.41 C23.604,14.0533416 23.1450046,15.274496 22.227,16.0735 C21.3089954,16.872504 20.0396748,17.272 18.419,17.272 C16.7756585,17.272 15.5035045,16.8753373 14.6025,16.082 C13.7014955,15.2886627 13.251,14.0646749 13.251,12.41 L13.251,4.862 L15.92,4.862 L15.92,12.41 C15.92,12.7386683 15.948333,13.0616651 16.005,13.379 C16.0616669,13.6963349 16.1806658,13.9768321 16.362,14.2205 C16.5433342,14.4641679 16.7954984,14.6624992 17.1185,14.8155 C17.4415016,14.9685008 17.8749973,15.045 18.419,15.045 C19.3710048,15.045 20.0283315,14.8325021 20.391,14.4075 C20.7536685,13.9824979 20.935,13.3166712 20.935,12.41 L20.935,4.862 L23.604,4.862 L23.604,12.41 Z M28.585,7.106 L24.947,7.106 L24.947,4.862 L34.892,4.862 L34.892,7.106 L31.254,7.106 L31.254,17 L28.585,17 L28.585,7.106 Z M38.428,10.982 C38.428,11.4920025 38.4874994,11.9878309 38.6065,12.4695 C38.7255006,12.9511691 38.915332,13.3846647 39.176,13.77 C39.436668,14.1553353 39.7766646,14.4641655 40.196,14.6965 C40.6153354,14.9288345 41.1253303,15.045 41.726,15.045 C42.3266697,15.045 42.8366646,14.9288345 43.256,14.6965 C43.6753354,14.4641655 44.015332,14.1553353 44.276,13.77 C44.536668,13.3846647 44.7264994,12.9511691 44.8455,12.4695 C44.9645006,11.9878309 45.024,11.4920025 45.024,10.982 C45.024,10.4493307 44.9645006,9.93366916 44.8455,9.435 C44.7264994,8.93633084 44.536668,8.49150195 44.276,8.1005 C44.015332,7.70949804 43.6753354,7.39783449 43.256,7.1655 C42.8366646,6.9331655 42.3266697,6.817 41.726,6.817 C41.1253303,6.817 40.6153354,6.9331655 40.196,7.1655 C39.7766646,7.39783449 39.436668,7.70949804 39.176,8.1005 C38.915332,8.49150195 38.7255006,8.93633084 38.6065,9.435 C38.4874994,9.93366916 38.428,10.4493307 38.428,10.982 Z M35.759,10.982 C35.759,10.0753288 35.8949986,9.23383722 36.167,8.4575 C36.4390014,7.68116278 36.8299975,7.00400289 37.34,6.426 C37.8500025,5.84799711 38.476163,5.39466831 39.2185,5.066 C39.960837,4.73733169 40.796662,4.573 41.726,4.573 C42.6666714,4.573 43.5053297,4.73733169 44.242,5.066 C44.9786704,5.39466831 45.6019974,5.84799711 46.112,6.426 C46.6220026,7.00400289 47.0129986,7.68116278 47.285,8.4575 C47.5570014,9.23383722 47.693,10.0753288 47.693,10.982 C47.693,11.8660044 47.5570014,12.6904962 47.285,13.4555 C47.0129986,14.2205038 46.6220026,14.8863305 46.112,15.453 C45.6019974,16.0196695 44.9786704,16.4644984 44.242,16.7875 C43.5053297,17.1105016 42.6666714,17.272 41.726,17.272 C40.796662,17.272 39.960837,17.1105016 39.2185,16.7875 C38.476163,16.4644984 37.8500025,16.0196695 37.34,15.453 C36.8299975,14.8863305 36.4390014,14.2205038 36.167,13.4555 C35.8949986,12.6904962 35.759,11.8660044 35.759,10.982 Z M56.907,14.756 L59.287,14.756 C59.6723353,14.756 60.0463315,14.6936673 60.409,14.569 C60.7716685,14.4443327 61.0946652,14.2375014 61.378,13.9485 C61.6613347,13.6594986 61.8879991,13.282669 62.058,12.818 C62.2280009,12.353331 62.313,11.78667 62.313,11.118 C62.313,10.5059969 62.2535006,9.95350246 62.1345,9.4605 C62.0154994,8.96749753 61.8200014,8.54533509 61.548,8.194 C61.2759986,7.84266491 60.9161689,7.57350093 60.4685,7.3865 C60.0208311,7.19949906 59.4683366,7.106 58.811,7.106 L56.907,7.106 L56.907,14.756 Z M54.238,4.862 L59.474,4.862 C60.2560039,4.862 60.9841633,4.98666542 61.6585,5.236 C62.3328367,5.48533458 62.9164975,5.85933084 63.4095,6.358 C63.9025025,6.85666916 64.2878319,7.47999626 64.5655,8.228 C64.8431681,8.97600374 64.982,9.85432829 64.982,10.863 C64.982,11.7470044 64.8686678,12.5629963 64.642,13.311 C64.4153322,14.0590037 64.0725023,14.7049973 63.6135,15.249 C63.1544977,15.7930027 62.5821701,16.2208318 61.8965,16.5325 C61.2108299,16.8441682 60.403338,17 59.474,17 L54.238,17 L54.238,4.862 Z M66.835,4.862 L75.913,4.862 L75.913,7.106 L69.504,7.106 L69.504,9.707 L75.386,9.707 L75.386,11.781 L69.504,11.781 L69.504,14.756 L76.049,14.756 L76.049,17 L66.835,17 L66.835,4.862 Z M79.67,12.971 C79.67,13.379002 79.7436659,13.7246653 79.891,14.008 C80.0383341,14.2913348 80.2338321,14.5208325 80.4775,14.6965 C80.7211679,14.8721675 81.0073317,15.0024996 81.336,15.0875 C81.6646683,15.1725004 82.0046649,15.215 82.356,15.215 C82.5940012,15.215 82.8489986,15.1951669 83.121,15.1555 C83.3930014,15.1158331 83.6479988,15.0393339 83.886,14.926 C84.1240012,14.8126661 84.3223325,14.6568343 84.481,14.4585 C84.6396675,14.2601657 84.719,14.0080015 84.719,13.702 C84.719,13.3733317 84.6141677,13.107001 84.4045,12.903 C84.1948323,12.698999 83.9200017,12.5290007 83.58,12.393 C83.2399983,12.2569993 82.8546688,12.1380005 82.424,12.036 C81.9933312,11.9339995 81.5570022,11.8206673 81.115,11.696 C80.6616644,11.5826661 80.2196688,11.4438342 79.789,11.2795 C79.3583312,11.1151658 78.9730017,10.902668 78.633,10.642 C78.2929983,10.381332 78.0181677,10.055502 77.8085,9.6645 C77.5988323,9.27349805 77.494,8.80033611 77.494,8.245 C77.494,7.62166355 77.6271653,7.08050229 77.8935,6.6215 C78.1598347,6.1624977 78.5083312,5.78000153 78.939,5.474 C79.3696688,5.16799847 79.8569973,4.94133407 80.401,4.794 C80.9450027,4.64666593 81.4889973,4.573 82.033,4.573 C82.6676698,4.573 83.2768304,4.64383262 83.8605,4.7855 C84.4441696,4.92716737 84.9626644,5.15666508 85.416,5.474 C85.8693356,5.79133492 86.2291653,6.19649753 86.4955,6.6895 C86.7618347,7.18250246 86.895,7.78032982 86.895,8.483 L84.311,8.483 C84.2883332,8.12033152 84.211834,7.82000119 84.0815,7.582 C83.951166,7.34399881 83.7783344,7.15700068 83.563,7.021 C83.3476656,6.88499932 83.1011681,6.78866695 82.8235,6.732 C82.5458319,6.67533305 82.2426683,6.647 81.914,6.647 C81.6986656,6.647 81.4833344,6.66966644 81.268,6.715 C81.0526656,6.76033356 80.8571675,6.8396661 80.6815,6.953 C80.5058325,7.0663339 80.3613339,7.20799915 80.248,7.378 C80.1346661,7.54800085 80.078,7.76333203 80.078,8.024 C80.078,8.26200119 80.1233329,8.45466593 80.214,8.602 C80.3046671,8.74933407 80.4831653,8.88533271 80.7495,9.01 C81.0158347,9.13466729 81.3841643,9.25933271 81.8545,9.384 C82.3248357,9.50866729 82.9396629,9.66733237 83.699,9.86 C83.9256678,9.90533356 84.2401647,9.98749941 84.6425,10.1065 C85.0448353,10.2255006 85.4443313,10.415332 85.841,10.676 C86.2376686,10.936668 86.5804986,11.2851645 86.8695,11.7215 C87.1585014,12.1578355 87.303,12.7159966 87.303,13.396 C87.303,13.9513361 87.1953344,14.4669976 86.98,14.943 C86.7646656,15.4190024 86.4445021,15.8298316 86.0195,16.1755 C85.5944979,16.5211684 85.0675031,16.7903324 84.4385,16.983 C83.8094969,17.1756676 83.0813375,17.272 82.254,17.272 C81.58533,17.272 80.9365031,17.1898342 80.3075,17.0255 C79.6784969,16.8611658 79.1231691,16.6033351 78.6415,16.252 C78.1598309,15.9006649 77.7773348,15.4530027 77.494,14.909 C77.2106653,14.3649973 77.0746666,13.7190037 77.086,12.971 L79.67,12.971 Z M88.884,4.862 L91.553,4.862 L91.553,17 L88.884,17 L88.884,4.862 Z M102.671,15.623 C102.194998,16.2350031 101.668003,16.6628321 101.09,16.9065 C100.511997,17.1501679 99.9283363,17.272 99.339,17.272 C98.409662,17.272 97.573837,17.1105016 96.8315,16.7875 C96.089163,16.4644984 95.4630025,16.0196695 94.953,15.453 C94.4429974,14.8863305 94.0520014,14.2205038 93.78,13.4555 C93.5079986,12.6904962 93.372,11.8660044 93.372,10.982 C93.372,10.0753288 93.5079986,9.23383722 93.78,8.4575 C94.0520014,7.68116278 94.4429974,7.00400289 94.953,6.426 C95.4630025,5.84799711 96.089163,5.39466831 96.8315,5.066 C97.573837,4.73733169 98.409662,4.573 99.339,4.573 C99.9623364,4.573 100.56583,4.66649907 101.1495,4.8535 C101.73317,5.04050093 102.260164,5.31533152 102.7305,5.678 C103.200836,6.04066848 103.588998,6.48833067 103.895,7.021 C104.201002,7.55366933 104.388,8.16566321 104.456,8.857 L101.906,8.857 C101.747333,8.1769966 101.441336,7.6670017 100.988,7.327 C100.534664,6.9869983 99.9850032,6.817 99.339,6.817 C98.7383303,6.817 98.2283354,6.9331655 97.809,7.1655 C97.3896646,7.39783449 97.049668,7.70949804 96.789,8.1005 C96.528332,8.49150196 96.3385006,8.93633084 96.2195,9.435 C96.1004994,9.93366916 96.041,10.4493307 96.041,10.982 C96.041,11.4920026 96.1004994,11.9878309 96.2195,12.4695 C96.3385006,12.9511691 96.528332,13.3846647 96.789,13.77 C97.049668,14.1553353 97.3896646,14.4641655 97.809,14.6965 C98.2283354,14.9288345 98.7383303,15.045 99.339,15.045 C100.223004,15.045 100.905831,14.8211689 101.3875,14.3735 C101.869169,13.9258311 102.149666,13.2770043 102.229,12.427 L99.543,12.427 L99.543,10.438 L104.643,10.438 L104.643,17 L102.943,17 L102.671,15.623 Z M106.802,4.862 L109.454,4.862 L114.52,13.005 L114.554,13.005 L114.554,4.862 L117.053,4.862 L117.053,17 L114.384,17 L109.335,8.874 L109.301,8.874 L109.301,17 L106.802,17 L106.802,4.862 Z M119.399,4.862 L128.477,4.862 L128.477,7.106 L122.068,7.106 L122.068,9.707 L127.95,9.707 L127.95,11.781 L122.068,11.781 L122.068,14.756 L128.613,14.756 L128.613,17 L119.399,17 L119.399,4.862 Z M133.084,10.353 L136.008,10.353 C136.620003,10.353 137.078998,10.2170014 137.385,9.945 C137.691002,9.67299864 137.844,9.23100306 137.844,8.619 C137.844,8.02966372 137.691002,7.60183467 137.385,7.3355 C137.078998,7.06916534 136.620003,6.936 136.008,6.936 L133.084,6.936 L133.084,10.353 Z M130.415,4.862 L136.96,4.862 C137.504003,4.862 137.994164,4.94983245 138.4305,5.1255 C138.866836,5.30116754 139.240832,5.54199847 139.5525,5.848 C139.864168,6.15400153 140.102166,6.50816465 140.2665,6.9105 C140.430834,7.31283534 140.513,7.74633101 140.513,8.211 C140.513,8.92500357 140.362835,9.54266406 140.0625,10.064 C139.762165,10.5853359 139.272003,10.9819986 138.592,11.254 L138.592,11.288 C138.920668,11.3786671 139.192666,11.5174991 139.408,11.7045 C139.623334,11.8915009 139.798999,12.1124987 139.935,12.3675 C140.071001,12.6225013 140.170166,12.9029985 140.2325,13.209 C140.294834,13.5150015 140.337333,13.8209985 140.36,14.127 C140.371333,14.3196676 140.382667,14.546332 140.394,14.807 C140.405333,15.067668 140.425167,15.3339986 140.4535,15.606 C140.481833,15.8780014 140.527166,16.1358321 140.5895,16.3795 C140.651834,16.6231679 140.745333,16.8299991 140.87,17 L138.201,17 C138.053666,16.6146647 137.963,16.1556693 137.929,15.623 C137.895,15.0903307 137.844,14.5803358 137.776,14.093 C137.685333,13.4583302 137.492668,12.9936681 137.198,12.699 C136.903332,12.4043319 136.42167,12.257 135.753,12.257 L133.084,12.257 L133.084,17 L130.415,17 L130.415,4.862 Z" id="AUTODESIGNER"></path>
                    </g>
                </g>
            </g>
        </g>
    </g>
</svg>