<?xml version="1.0" encoding="UTF-8"?>
<svg width="114px" height="38px" viewBox="0 0 114 38" version="1.1" xmlns="http://www.w3.org/2000/svg" xmlns:xlink="http://www.w3.org/1999/xlink">
    <!-- Generator: Sketch 54.1 (76490) - https://sketchapp.com -->
    <title>Text</title>
    <desc>Created with Sketch.</desc>
    <g id="页面1" stroke="none" stroke-width="1" fill="none" fill-rule="evenodd">
        <g id="C-35&gt;Shake-to-Remix&gt;EN" transform="translate(-40.000000, -836.000000)" fill="#1B1B1B" fill-rule="nonzero">
            <g id="Content" transform="translate(12.000000, 76.000000)">
                <g id="05_Glitch" transform="translate(0.000000, 562.000000)">
                    <g id="Text" transform="translate(9.500000, 194.000000)">
                        <path d="M23.16,33.95 C23.1066664,33.4366641 22.9216682,33.0650012 22.605,32.835 C22.2883317,32.6049989 21.8833358,32.49 21.39,32.49 C21.189999,32.49 20.9933343,32.5099998 20.8,32.55 C20.6066657,32.5900002 20.4350007,32.6566662 20.285,32.75 C20.1349992,32.8433338 20.0150004,32.9683325 19.925,33.125 C19.8349995,33.2816675 19.79,33.4766655 19.79,33.71 C19.79,33.9300011 19.8549993,34.1083327 19.985,34.245 C20.1150006,34.3816674 20.2883322,34.4933329 20.505,34.58 C20.7216677,34.6666671 20.9666653,34.7383331 21.24,34.795 C21.5133347,34.851667 21.7916652,34.913333 22.075,34.98 C22.3583347,35.046667 22.6366653,35.1249995 22.91,35.215 C23.1833347,35.3050005 23.4283322,35.4266659 23.645,35.58 C23.8616677,35.7333341 24.0349993,35.9266655 24.165,36.16 C24.2950006,36.3933345 24.36,36.6866649 24.36,37.04 C24.36,37.4200019 24.2750008,37.7449986 24.105,38.015 C23.9349991,38.2850014 23.716668,38.5049992 23.45,38.675 C23.183332,38.8450008 22.8850016,38.968333 22.555,39.045 C22.2249983,39.121667 21.8966683,39.16 21.57,39.16 C21.169998,39.16 20.7916684,39.1100005 20.435,39.01 C20.0783315,38.9099995 19.7650013,38.7583343 19.495,38.555 C19.2249986,38.3516657 19.0116674,38.0916682 18.855,37.775 C18.6983325,37.4583317 18.62,37.0833355 18.62,36.65 L19.52,36.65 C19.52,36.9500015 19.5783327,37.2083322 19.695,37.425 C19.8116672,37.6416677 19.964999,37.8199993 20.155,37.96 C20.3450009,38.1000007 20.5666654,38.203333 20.82,38.27 C21.0733346,38.336667 21.333332,38.37 21.6,38.37 C21.8133344,38.37 22.0283322,38.3500002 22.245,38.31 C22.4616677,38.2699998 22.6566658,38.2016671 22.83,38.105 C23.0033342,38.0083329 23.1433328,37.8766675 23.25,37.71 C23.3566672,37.5433325 23.41,37.3300013 23.41,37.07 C23.41,36.8233321 23.3450006,36.6233341 23.215,36.47 C23.0849993,36.3166659 22.9116677,36.1916672 22.695,36.095 C22.4783322,35.9983328 22.2333347,35.9200003 21.96,35.86 C21.6866653,35.7999997 21.4083347,35.7383337 21.125,35.675 C20.8416652,35.6116664 20.5633347,35.5383337 20.29,35.455 C20.0166653,35.3716663 19.7716677,35.2616673 19.555,35.125 C19.3383322,34.9883326 19.1650006,34.8116677 19.035,34.595 C18.9049993,34.3783322 18.84,34.1066683 18.84,33.78 C18.84,33.4199982 18.9133326,33.1083347 19.06,32.845 C19.2066674,32.5816654 19.4016654,32.3650009 19.645,32.195 C19.8883345,32.0249991 20.1649984,31.8983337 20.475,31.815 C20.7850015,31.7316662 21.1033317,31.69 21.43,31.69 C21.7966685,31.69 22.1366651,31.7333329 22.45,31.82 C22.7633349,31.9066671 23.0383321,32.0433324 23.275,32.23 C23.5116678,32.4166676 23.6983326,32.6516653 23.835,32.935 C23.9716673,33.2183347 24.0466666,33.5566647 24.06,33.95 L23.16,33.95 Z M25.37,31.86 L26.22,31.86 L26.22,34.59 L26.24,34.59 C26.306667,34.4299992 26.3999994,34.2950005 26.52,34.185 C26.6400006,34.0749994 26.7749992,33.9850003 26.925,33.915 C27.0750007,33.8449996 27.2316658,33.7933335 27.395,33.76 C27.5583341,33.7266665 27.7166659,33.71 27.87,33.71 C28.2100017,33.71 28.4933322,33.7566662 28.72,33.85 C28.9466678,33.9433338 29.1299993,34.0733325 29.27,34.24 C29.4100007,34.4066675 29.508333,34.6049989 29.565,34.835 C29.6216669,35.0650012 29.65,35.3199986 29.65,35.6 L29.65,39 L28.8,39 L28.8,35.5 C28.8,35.1799984 28.7066676,34.9266676 28.52,34.74 C28.3333324,34.5533324 28.0766683,34.46 27.75,34.46 C27.4899987,34.46 27.2650009,34.4999996 27.075,34.58 C26.884999,34.6600004 26.7266673,34.7733326 26.6,34.92 C26.4733327,35.0666674 26.3783336,35.2383324 26.315,35.435 C26.2516663,35.6316676 26.22,35.8466655 26.22,36.08 L26.22,39 L25.37,39 L25.37,31.86 Z M35.51,38.98 C35.3633326,39.0666671 35.1600013,39.11 34.9,39.11 C34.6799989,39.11 34.5050006,39.0483339 34.375,38.925 C34.2449993,38.8016661 34.18,38.6000014 34.18,38.32 C33.9466655,38.6000014 33.6750015,38.8016661 33.365,38.925 C33.0549984,39.0483339 32.7200018,39.11 32.36,39.11 C32.1266655,39.11 31.905001,39.0833336 31.695,39.03 C31.4849989,38.9766664 31.3033341,38.8933339 31.15,38.78 C30.9966659,38.6666661 30.8750004,38.5183342 30.785,38.335 C30.6949995,38.1516657 30.65,37.9300013 30.65,37.67 C30.65,37.3766652 30.6999995,37.1366676 30.8,36.95 C30.9000005,36.7633324 31.0316658,36.6116672 31.195,36.495 C31.3583341,36.3783327 31.5449989,36.2900003 31.755,36.23 C31.965001,36.1699997 32.1799989,36.1200002 32.4,36.08 C32.6333345,36.0333331 32.8549989,35.9983334 33.065,35.975 C33.275001,35.9516665 33.4599992,35.9183335 33.62,35.875 C33.7800008,35.8316665 33.9066662,35.7683337 34,35.685 C34.0933338,35.6016663 34.14,35.4800008 34.14,35.32 C34.14,35.1333324 34.1050003,34.9833339 34.035,34.87 C33.9649996,34.7566661 33.8750005,34.6700003 33.765,34.61 C33.6549994,34.5499997 33.5316673,34.5100001 33.395,34.49 C33.2583326,34.4699999 33.123334,34.46 32.99,34.46 C32.6299982,34.46 32.3300012,34.5283326 32.09,34.665 C31.8499988,34.8016674 31.7200001,35.0599981 31.7,35.44 L30.85,35.44 C30.8633334,35.1199984 30.9299994,34.8500011 31.05,34.63 C31.1700006,34.4099989 31.329999,34.2316674 31.53,34.095 C31.730001,33.9583327 31.958332,33.8600003 32.215,33.8 C32.4716679,33.7399997 32.7466652,33.71 33.04,33.71 C33.2733345,33.71 33.5049988,33.7266665 33.735,33.76 C33.9650011,33.7933335 34.1733324,33.8616661 34.36,33.965 C34.5466676,34.0683339 34.6966661,34.2133324 34.81,34.4 C34.9233339,34.5866676 34.98,34.8299985 34.98,35.13 L34.98,37.79 C34.98,37.990001 34.9916665,38.1366662 35.015,38.23 C35.0383334,38.3233338 35.116666,38.37 35.25,38.37 C35.3233337,38.37 35.4099995,38.3533335 35.51,38.32 L35.51,38.98 Z M34.13,36.33 C34.0233328,36.4100004 33.8833342,36.4683331 33.71,36.505 C33.5366658,36.5416668 33.3550009,36.5716666 33.165,36.595 C32.974999,36.6183335 32.7833343,36.6449998 32.59,36.675 C32.3966657,36.7050002 32.2233341,36.753333 32.07,36.82 C31.9166659,36.886667 31.7916671,36.9816661 31.695,37.105 C31.5983328,37.2283339 31.55,37.3966656 31.55,37.61 C31.55,37.7500007 31.578333,37.8683329 31.635,37.965 C31.6916669,38.0616671 31.7649995,38.1399997 31.855,38.2 C31.9450004,38.2600003 32.0499994,38.3033332 32.17,38.33 C32.2900006,38.3566668 32.416666,38.37 32.55,38.37 C32.8300014,38.37 33.069999,38.3316671 33.27,38.255 C33.470001,38.1783329 33.6333327,38.0816672 33.76,37.965 C33.8866673,37.8483327 33.9799997,37.7216674 34.04,37.585 C34.1000003,37.4483326 34.13,37.3200006 34.13,37.2 L34.13,36.33 Z M36.35,31.86 L37.2,31.86 L37.2,36.09 L39.56,33.83 L40.7,33.83 L38.65,35.71 L40.85,39 L39.77,39 L38,36.3 L37.2,37.04 L37.2,39 L36.35,39 L36.35,31.86 Z M45.08,35.92 C45.0666666,35.719999 45.021667,35.5300009 44.945,35.35 C44.8683329,35.1699991 44.7650006,35.0150006 44.635,34.885 C44.5049993,34.7549993 44.3516675,34.6516671 44.175,34.575 C43.9983324,34.4983329 43.8033344,34.46 43.59,34.46 C43.3699989,34.46 43.1716675,34.4983329 42.995,34.575 C42.8183324,34.6516671 42.6666673,34.756666 42.54,34.89 C42.4133327,35.023334 42.3133337,35.1783324 42.24,35.355 C42.1666663,35.5316676 42.1233334,35.719999 42.11,35.92 L45.08,35.92 Z M45.9,37.36 C45.7866661,37.9400029 45.5366686,38.3766652 45.15,38.67 C44.7633314,38.9633348 44.2766696,39.11 43.69,39.11 C43.2766646,39.11 42.9183348,39.043334 42.615,38.91 C42.3116651,38.776666 42.0566677,38.5900012 41.85,38.35 C41.6433323,38.1099988 41.4883338,37.823335 41.385,37.49 C41.2816661,37.156665 41.2233334,36.7933353 41.21,36.4 C41.21,36.0066647 41.2699994,35.6466683 41.39,35.32 C41.5100006,34.9933317 41.6783322,34.7100012 41.895,34.47 C42.1116677,34.2299988 42.3683318,34.043334 42.665,33.91 C42.9616681,33.776666 43.2866649,33.71 43.64,33.71 C44.1000023,33.71 44.4816651,33.804999 44.785,33.995 C45.0883348,34.185001 45.3316657,34.4266652 45.515,34.72 C45.6983342,35.0133348 45.8249996,35.3333316 45.895,35.68 C45.9650003,36.0266684 45.9933334,36.3566651 45.98,36.67 L42.11,36.67 C42.1033333,36.8966678 42.1299997,37.1116656 42.19,37.315 C42.2500003,37.5183344 42.346666,37.6983326 42.48,37.855 C42.613334,38.0116675 42.7833323,38.1366662 42.99,38.23 C43.1966677,38.3233338 43.4399986,38.37 43.72,38.37 C44.0800018,38.37 44.3749988,38.2866675 44.605,38.12 C44.8350011,37.9533325 44.9866663,37.7000017 45.06,37.36 L45.9,37.36 Z M50.82,33.83 L51.85,33.83 L51.85,34.58 L50.82,34.58 L50.82,37.79 C50.82,37.8900005 50.8283332,37.9699997 50.845,38.03 C50.8616667,38.0900003 50.8933331,38.1366665 50.94,38.17 C50.9866669,38.2033335 51.0516662,38.2249999 51.135,38.235 C51.2183337,38.2450001 51.326666,38.25 51.46,38.25 L51.85,38.25 L51.85,39 L51.2,39 C50.9799989,39 50.7916674,38.9850002 50.635,38.955 C50.4783325,38.9249998 50.3516671,38.8700004 50.255,38.79 C50.1583328,38.7099996 50.0866669,38.5966674 50.04,38.45 C49.9933331,38.3033326 49.97,38.1100012 49.97,37.87 L49.97,34.58 L49.09,34.58 L49.09,33.83 L49.97,33.83 L49.97,32.28 L50.82,32.28 L50.82,33.83 Z M53.41,36.42 C53.41,36.7333349 53.4516662,37.0116655 53.535,37.255 C53.6183337,37.4983345 53.7333326,37.7016658 53.88,37.865 C54.0266674,38.0283341 54.1983323,38.1533329 54.395,38.24 C54.5916676,38.3266671 54.7999989,38.37 55.02,38.37 C55.2400011,38.37 55.4483323,38.3266671 55.645,38.24 C55.8416676,38.1533329 56.0133326,38.0283341 56.16,37.865 C56.3066674,37.7016658 56.4216662,37.4983345 56.505,37.255 C56.5883337,37.0116655 56.63,36.7333349 56.63,36.42 C56.63,36.1066651 56.5883337,35.8283346 56.505,35.585 C56.4216662,35.3416655 56.3066674,35.1366675 56.16,34.97 C56.0133326,34.8033325 55.8416676,34.6766671 55.645,34.59 C55.4483323,34.5033329 55.2400011,34.46 55.02,34.46 C54.7999989,34.46 54.5916676,34.5033329 54.395,34.59 C54.1983323,34.6766671 54.0266674,34.8033325 53.88,34.97 C53.7333326,35.1366675 53.6183337,35.3416655 53.535,35.585 C53.4516662,35.8283346 53.41,36.1066651 53.41,36.42 Z M52.51,36.42 C52.51,36.0399981 52.5633328,35.6850017 52.67,35.355 C52.7766672,35.0249983 52.9366656,34.7383345 53.15,34.495 C53.3633344,34.2516654 53.6266651,34.0600007 53.94,33.92 C54.2533349,33.7799993 54.6133313,33.71 55.02,33.71 C55.4333354,33.71 55.7949984,33.7799993 56.105,33.92 C56.4150015,34.0600007 56.6766656,34.2516654 56.89,34.495 C57.1033344,34.7383345 57.2633328,35.0249983 57.37,35.355 C57.4766672,35.6850017 57.53,36.0399981 57.53,36.42 C57.53,36.8000019 57.4766672,37.1533317 57.37,37.48 C57.2633328,37.8066683 57.1033344,38.0916655 56.89,38.335 C56.6766656,38.5783346 56.4150015,38.7683326 56.105,38.905 C55.7949984,39.0416673 55.4333354,39.11 55.02,39.11 C54.6133313,39.11 54.2533349,39.0416673 53.94,38.905 C53.6266651,38.7683326 53.3633344,38.5783346 53.15,38.335 C52.9366656,38.0916655 52.7766672,37.8066683 52.67,37.48 C52.5633328,37.1533317 52.51,36.8000019 52.51,36.42 Z M65.89,38.98 C65.7433326,39.0666671 65.5400013,39.11 65.28,39.11 C65.0599989,39.11 64.8850006,39.0483339 64.755,38.925 C64.6249993,38.8016661 64.56,38.6000014 64.56,38.32 C64.3266655,38.6000014 64.0550015,38.8016661 63.745,38.925 C63.4349984,39.0483339 63.1000018,39.11 62.74,39.11 C62.5066655,39.11 62.285001,39.0833336 62.075,39.03 C61.8649989,38.9766664 61.6833341,38.8933339 61.53,38.78 C61.3766659,38.6666661 61.2550004,38.5183342 61.165,38.335 C61.0749995,38.1516657 61.03,37.9300013 61.03,37.67 C61.03,37.3766652 61.0799995,37.1366676 61.18,36.95 C61.2800005,36.7633324 61.4116658,36.6116672 61.575,36.495 C61.7383341,36.3783327 61.9249989,36.2900003 62.135,36.23 C62.345001,36.1699997 62.5599989,36.1200002 62.78,36.08 C63.0133345,36.0333331 63.2349989,35.9983334 63.445,35.975 C63.655001,35.9516665 63.8399992,35.9183335 64,35.875 C64.1600008,35.8316665 64.2866662,35.7683337 64.38,35.685 C64.4733338,35.6016663 64.52,35.4800008 64.52,35.32 C64.52,35.1333324 64.4850003,34.9833339 64.415,34.87 C64.3449996,34.7566661 64.2550005,34.6700003 64.145,34.61 C64.0349994,34.5499997 63.9116673,34.5100001 63.775,34.49 C63.6383326,34.4699999 63.503334,34.46 63.37,34.46 C63.0099982,34.46 62.7100012,34.5283326 62.47,34.665 C62.2299988,34.8016674 62.1000001,35.0599981 62.08,35.44 L61.23,35.44 C61.2433334,35.1199984 61.3099994,34.8500011 61.43,34.63 C61.5500006,34.4099989 61.709999,34.2316674 61.91,34.095 C62.110001,33.9583327 62.338332,33.8600003 62.595,33.8 C62.8516679,33.7399997 63.1266652,33.71 63.42,33.71 C63.6533345,33.71 63.8849988,33.7266665 64.115,33.76 C64.3450011,33.7933335 64.5533324,33.8616661 64.74,33.965 C64.9266676,34.0683339 65.0766661,34.2133324 65.19,34.4 C65.3033339,34.5866676 65.36,34.8299985 65.36,35.13 L65.36,37.79 C65.36,37.990001 65.3716665,38.1366662 65.395,38.23 C65.4183334,38.3233338 65.496666,38.37 65.63,38.37 C65.7033337,38.37 65.7899995,38.3533335 65.89,38.32 L65.89,38.98 Z M64.51,36.33 C64.4033328,36.4100004 64.2633342,36.4683331 64.09,36.505 C63.9166658,36.5416668 63.7350009,36.5716666 63.545,36.595 C63.354999,36.6183335 63.1633343,36.6449998 62.97,36.675 C62.7766657,36.7050002 62.6033341,36.753333 62.45,36.82 C62.2966659,36.886667 62.1716671,36.9816661 62.075,37.105 C61.9783328,37.2283339 61.93,37.3966656 61.93,37.61 C61.93,37.7500007 61.958333,37.8683329 62.015,37.965 C62.0716669,38.0616671 62.1449995,38.1399997 62.235,38.2 C62.3250004,38.2600003 62.4299994,38.3033332 62.55,38.33 C62.6700006,38.3566668 62.796666,38.37 62.93,38.37 C63.2100014,38.37 63.449999,38.3316671 63.65,38.255 C63.850001,38.1783329 64.0133327,38.0816672 64.14,37.965 C64.2666673,37.8483327 64.3599997,37.7216674 64.42,37.585 C64.4800003,37.4483326 64.51,37.3200006 64.51,37.2 L64.51,36.33 Z M67.3,36.46 C67.3,36.7000012 67.3316663,36.9349988 67.395,37.165 C67.4583336,37.3950011 67.5549993,37.5999991 67.685,37.78 C67.8150006,37.9600009 67.9816656,38.1033328 68.185,38.21 C68.3883343,38.3166672 68.6266653,38.37 68.9,38.37 C69.1866681,38.37 69.429999,38.3133339 69.63,38.2 C69.830001,38.0866661 69.9933327,37.9383342 70.12,37.755 C70.2466673,37.5716658 70.338333,37.3633345 70.395,37.13 C70.4516669,36.8966655 70.48,36.6600012 70.48,36.42 C70.48,36.1666654 70.4500003,35.9216678 70.39,35.685 C70.3299997,35.4483321 70.2350006,35.2400009 70.105,35.06 C69.9749993,34.8799991 69.8066677,34.7350006 69.6,34.625 C69.3933323,34.5149994 69.1433348,34.46 68.85,34.46 C68.5633319,34.46 68.320001,34.5166661 68.12,34.63 C67.919999,34.7433339 67.7600006,34.8933324 67.64,35.08 C67.5199994,35.2666676 67.4333336,35.4799988 67.38,35.72 C67.3266664,35.9600012 67.3,36.2066654 67.3,36.46 Z M71.3,39 L70.45,39 L70.45,38.3 L70.43,38.3 C70.2899993,38.5866681 70.0700015,38.7933327 69.77,38.92 C69.4699985,39.0466673 69.1400018,39.11 68.78,39.11 C68.379998,39.11 68.0316681,39.0366674 67.735,38.89 C67.4383318,38.7433326 67.1916676,38.5466679 66.995,38.3 C66.7983323,38.0533321 66.6500005,37.7666683 66.55,37.44 C66.4499995,37.1133317 66.4,36.7666685 66.4,36.4 C66.4,36.0333315 66.4483328,35.6866683 66.545,35.36 C66.6416671,35.0333317 66.7883323,34.7483346 66.985,34.505 C67.1816676,34.2616655 67.4283318,34.068334 67.725,33.925 C68.0216681,33.7816659 68.3666647,33.71 68.76,33.71 C68.893334,33.71 69.0366659,33.7233332 69.19,33.75 C69.3433341,33.7766668 69.4966659,33.8216664 69.65,33.885 C69.8033341,33.9483337 69.9483326,34.0316661 70.085,34.135 C70.2216673,34.2383339 70.3366662,34.3666659 70.43,34.52 L70.45,34.52 L70.45,31.86 L71.3,31.86 L71.3,39 Z M73.23,36.46 C73.23,36.7000012 73.2616663,36.9349988 73.325,37.165 C73.3883336,37.3950011 73.4849993,37.5999991 73.615,37.78 C73.7450006,37.9600009 73.9116656,38.1033328 74.115,38.21 C74.3183343,38.3166672 74.5566653,38.37 74.83,38.37 C75.1166681,38.37 75.359999,38.3133339 75.56,38.2 C75.760001,38.0866661 75.9233327,37.9383342 76.05,37.755 C76.1766673,37.5716658 76.268333,37.3633345 76.325,37.13 C76.3816669,36.8966655 76.41,36.6600012 76.41,36.42 C76.41,36.1666654 76.3800003,35.9216678 76.32,35.685 C76.2599997,35.4483321 76.1650006,35.2400009 76.035,35.06 C75.9049993,34.8799991 75.7366677,34.7350006 75.53,34.625 C75.3233323,34.5149994 75.0733348,34.46 74.78,34.46 C74.4933319,34.46 74.250001,34.5166661 74.05,34.63 C73.849999,34.7433339 73.6900006,34.8933324 73.57,35.08 C73.4499994,35.2666676 73.3633336,35.4799988 73.31,35.72 C73.2566664,35.9600012 73.23,36.2066654 73.23,36.46 Z M77.23,39 L76.38,39 L76.38,38.3 L76.36,38.3 C76.2199993,38.5866681 76.0000015,38.7933327 75.7,38.92 C75.3999985,39.0466673 75.0700018,39.11 74.71,39.11 C74.309998,39.11 73.9616681,39.0366674 73.665,38.89 C73.3683318,38.7433326 73.1216676,38.5466679 72.925,38.3 C72.7283323,38.0533321 72.5800005,37.7666683 72.48,37.44 C72.3799995,37.1133317 72.33,36.7666685 72.33,36.4 C72.33,36.0333315 72.3783328,35.6866683 72.475,35.36 C72.5716671,35.0333317 72.7183323,34.7483346 72.915,34.505 C73.1116676,34.2616655 73.3583318,34.068334 73.655,33.925 C73.9516681,33.7816659 74.2966647,33.71 74.69,33.71 C74.823334,33.71 74.9666659,33.7233332 75.12,33.75 C75.2733341,33.7766668 75.4266659,33.8216664 75.58,33.885 C75.7333341,33.9483337 75.8783326,34.0316661 76.015,34.135 C76.1516673,34.2383339 76.2666662,34.3666659 76.36,34.52 L76.38,34.52 L76.38,31.86 L77.23,31.86 L77.23,39 Z M85.78,38.56 C85.78,39.4066709 85.5866686,40.0399979 85.2,40.46 C84.8133314,40.8800021 84.2066708,41.09 83.38,41.09 C83.1399988,41.09 82.8950012,41.0633336 82.645,41.01 C82.3949987,40.9566664 82.1683343,40.8700006 81.965,40.75 C81.7616656,40.6299994 81.593334,40.4733343 81.46,40.28 C81.326666,40.0866657 81.2533334,39.8500014 81.24,39.57 L82.09,39.57 C82.0966667,39.7233341 82.1449995,39.8533328 82.235,39.96 C82.3250004,40.0666672 82.4349993,40.153333 82.565,40.22 C82.6950006,40.286667 82.8366659,40.3349999 82.99,40.365 C83.1433341,40.3950002 83.2899993,40.41 83.43,40.41 C83.7100014,40.41 83.9466657,40.3616672 84.14,40.265 C84.3333343,40.1683328 84.4933327,40.0350009 84.62,39.865 C84.7466673,39.6949992 84.838333,39.4900012 84.895,39.25 C84.9516669,39.0099988 84.98,38.7466681 84.98,38.46 L84.98,38.12 L84.96,38.12 C84.8133326,38.4400016 84.5916681,38.6749992 84.295,38.825 C83.9983318,38.9750007 83.683335,39.05 83.35,39.05 C82.9633314,39.05 82.6266681,38.9800007 82.34,38.84 C82.0533319,38.6999993 81.8133343,38.5116679 81.62,38.275 C81.4266657,38.0383322 81.2816671,37.7616682 81.185,37.445 C81.0883328,37.1283318 81.04,36.7933351 81.04,36.44 C81.04,36.1333318 81.0799996,35.818335 81.16,35.495 C81.2400004,35.1716651 81.3733324,34.8783346 81.56,34.615 C81.7466676,34.3516653 81.9933318,34.1350008 82.3,33.965 C82.6066682,33.7949992 82.9833311,33.71 83.43,33.71 C83.7566683,33.71 84.0566653,33.7816659 84.33,33.925 C84.6033347,34.068334 84.8166659,34.2833319 84.97,34.57 L84.98,34.57 L84.98,33.83 L85.78,33.83 L85.78,38.56 Z M83.4,38.31 C83.6800014,38.31 83.9183323,38.2516672 84.115,38.135 C84.3116676,38.0183327 84.4699994,37.8650009 84.59,37.675 C84.7100006,37.484999 84.798333,37.2700012 84.855,37.03 C84.9116669,36.7899988 84.94,36.5500012 84.94,36.31 C84.94,36.0833322 84.9133336,35.8600011 84.86,35.64 C84.8066664,35.4199989 84.7216672,35.2216675 84.605,35.045 C84.4883327,34.8683324 84.3366676,34.7266672 84.15,34.62 C83.9633324,34.5133328 83.736668,34.46 83.47,34.46 C83.1966653,34.46 82.9633343,34.5116661 82.77,34.615 C82.5766657,34.7183339 82.4183339,34.8566658 82.295,35.03 C82.171666,35.2033342 82.0816669,35.4033322 82.025,35.63 C81.968333,35.8566678 81.94,36.0933321 81.94,36.34 C81.94,36.5733345 81.9633331,36.8066655 82.01,37.04 C82.0566669,37.2733345 82.1366661,37.484999 82.25,37.675 C82.3633339,37.8650009 82.5133324,38.0183327 82.7,38.135 C82.8866676,38.2516672 83.1199986,38.31 83.4,38.31 Z M87.11,31.86 L87.96,31.86 L87.96,39 L87.11,39 L87.11,31.86 Z M90.18,32.9 L89.33,32.9 L89.33,31.86 L90.18,31.86 L90.18,32.9 Z M89.33,33.83 L90.18,33.83 L90.18,39 L89.33,39 L89.33,33.83 Z M92.68,33.83 L93.71,33.83 L93.71,34.58 L92.68,34.58 L92.68,37.79 C92.68,37.8900005 92.6883332,37.9699997 92.705,38.03 C92.7216667,38.0900003 92.7533331,38.1366665 92.8,38.17 C92.8466669,38.2033335 92.9116662,38.2249999 92.995,38.235 C93.0783337,38.2450001 93.186666,38.25 93.32,38.25 L93.71,38.25 L93.71,39 L93.06,39 C92.8399989,39 92.6516674,38.9850002 92.495,38.955 C92.3383325,38.9249998 92.2116671,38.8700004 92.115,38.79 C92.0183328,38.7099996 91.9466669,38.5966674 91.9,38.45 C91.8533331,38.3033326 91.83,38.1100012 91.83,37.87 L91.83,34.58 L90.95,34.58 L90.95,33.83 L91.83,33.83 L91.83,32.28 L92.68,32.28 L92.68,33.83 Z M98.16,35.49 C98.093333,35.1633317 97.9533344,34.9100009 97.74,34.73 C97.5266656,34.5499991 97.2400018,34.46 96.88,34.46 C96.5733318,34.46 96.3166677,34.5166661 96.11,34.63 C95.9033323,34.7433339 95.7383339,34.8933324 95.615,35.08 C95.491666,35.2666676 95.4033336,35.4816655 95.35,35.725 C95.2966664,35.9683346 95.27,36.2199987 95.27,36.48 C95.27,36.7200012 95.298333,36.9533322 95.355,37.18 C95.4116669,37.4066678 95.4999994,37.6083324 95.62,37.785 C95.7400006,37.9616676 95.8966657,38.1033328 96.09,38.21 C96.2833343,38.3166672 96.513332,38.37 96.78,38.37 C97.2000021,38.37 97.5283321,38.2600011 97.765,38.04 C98.0016678,37.8199989 98.1466664,37.510002 98.2,37.11 L99.07,37.11 C98.9766662,37.7500032 98.7383352,38.2433316 98.355,38.59 C97.9716647,38.9366684 97.4500033,39.11 96.79,39.11 C96.3966647,39.11 96.0483348,39.0466673 95.745,38.92 C95.4416651,38.7933327 95.1883343,38.6133345 94.985,38.38 C94.7816656,38.1466655 94.6283338,37.868335 94.525,37.545 C94.4216661,37.221665 94.37,36.8666686 94.37,36.48 C94.37,36.0933314 94.4199995,35.7316683 94.52,35.395 C94.6200005,35.0583316 94.7716656,34.7650012 94.975,34.515 C95.1783343,34.2649988 95.4333318,34.068334 95.74,33.925 C96.0466682,33.7816659 96.4033313,33.71 96.81,33.71 C97.1033348,33.71 97.378332,33.7449996 97.635,33.815 C97.8916679,33.8850003 98.1183323,33.9933326 98.315,34.14 C98.5116676,34.2866674 98.6733327,34.4716655 98.8,34.695 C98.9266673,34.9183345 99.0066665,35.1833318 99.04,35.49 L98.16,35.49 Z M100.02,31.86 L100.87,31.86 L100.87,34.59 L100.89,34.59 C100.956667,34.4299992 101.049999,34.2950005 101.17,34.185 C101.290001,34.0749994 101.424999,33.9850003 101.575,33.915 C101.725001,33.8449996 101.881666,33.7933335 102.045,33.76 C102.208334,33.7266665 102.366666,33.71 102.52,33.71 C102.860002,33.71 103.143332,33.7566662 103.37,33.85 C103.596668,33.9433338 103.779999,34.0733325 103.92,34.24 C104.060001,34.4066675 104.158333,34.6049989 104.215,34.835 C104.271667,35.0650012 104.3,35.3199986 104.3,35.6 L104.3,39 L103.45,39 L103.45,35.5 C103.45,35.1799984 103.356668,34.9266676 103.17,34.74 C102.983332,34.5533324 102.726668,34.46 102.4,34.46 C102.139999,34.46 101.915001,34.4999996 101.725,34.58 C101.534999,34.6600004 101.376667,34.7733326 101.25,34.92 C101.123333,35.0666674 101.028334,35.2383324 100.965,35.435 C100.901666,35.6316676 100.87,35.8466655 100.87,36.08 L100.87,39 L100.02,39 L100.02,31.86 Z M111.95,35.92 C111.936667,35.719999 111.891667,35.5300009 111.815,35.35 C111.738333,35.1699991 111.635001,35.0150006 111.505,34.885 C111.374999,34.7549993 111.221668,34.6516671 111.045,34.575 C110.868332,34.4983329 110.673334,34.46 110.46,34.46 C110.239999,34.46 110.041668,34.4983329 109.865,34.575 C109.688332,34.6516671 109.536667,34.756666 109.41,34.89 C109.283333,35.023334 109.183334,35.1783324 109.11,35.355 C109.036666,35.5316676 108.993333,35.719999 108.98,35.92 L111.95,35.92 Z M112.77,37.36 C112.656666,37.9400029 112.406669,38.3766652 112.02,38.67 C111.633331,38.9633348 111.14667,39.11 110.56,39.11 C110.146665,39.11 109.788335,39.043334 109.485,38.91 C109.181665,38.776666 108.926668,38.5900012 108.72,38.35 C108.513332,38.1099988 108.358334,37.823335 108.255,37.49 C108.151666,37.156665 108.093333,36.7933353 108.08,36.4 C108.08,36.0066647 108.139999,35.6466683 108.26,35.32 C108.380001,34.9933317 108.548332,34.7100012 108.765,34.47 C108.981668,34.2299988 109.238332,34.043334 109.535,33.91 C109.831668,33.776666 110.156665,33.71 110.51,33.71 C110.970002,33.71 111.351665,33.804999 111.655,33.995 C111.958335,34.185001 112.201666,34.4266652 112.385,34.72 C112.568334,35.0133348 112.695,35.3333316 112.765,35.68 C112.835,36.0266684 112.863333,36.3566651 112.85,36.67 L108.98,36.67 C108.973333,36.8966678 109,37.1116656 109.06,37.315 C109.12,37.5183344 109.216666,37.6983326 109.35,37.855 C109.483334,38.0116675 109.653332,38.1366662 109.86,38.23 C110.066668,38.3233338 110.309999,38.37 110.59,38.37 C110.950002,38.37 111.244999,38.2866675 111.475,38.12 C111.705001,37.9533325 111.856666,37.7000017 111.93,37.36 L112.77,37.36 Z M116.89,34.58 L114.93,34.58 L114.93,39 L114.08,39 L114.08,34.58 L113.21,34.58 L113.21,33.83 L114.08,33.83 L114.08,33.06 C114.08,32.6399979 114.201665,32.3216678 114.445,32.105 C114.688335,31.8883323 115.043331,31.78 115.51,31.78 C115.59,31.78 115.681666,31.7866666 115.785,31.8 C115.888334,31.8133334 115.98,31.8333332 116.06,31.86 L116.06,32.6 C115.986666,32.5733332 115.906667,32.555 115.82,32.545 C115.733333,32.5349999 115.653334,32.53 115.58,32.53 C115.373332,32.53 115.213334,32.5699996 115.1,32.65 C114.986666,32.7300004 114.93,32.8833322 114.93,33.11 L114.93,33.83 L116.89,33.83 L116.89,33.06 C116.89,32.6399979 117.011665,32.3216678 117.255,32.105 C117.498335,31.8883323 117.853331,31.78 118.32,31.78 C118.4,31.78 118.491666,31.7866666 118.595,31.8 C118.698334,31.8133334 118.79,31.8333332 118.87,31.86 L118.87,32.6 C118.796666,32.5733332 118.716667,32.555 118.63,32.545 C118.543333,32.5349999 118.463334,32.53 118.39,32.53 C118.183332,32.53 118.023334,32.5699996 117.91,32.65 C117.796666,32.7300004 117.74,32.8833322 117.74,33.11 L117.74,33.83 L118.74,33.83 L118.74,34.58 L117.74,34.58 L117.74,39 L116.89,39 L116.89,34.58 Z M123.09,35.92 C123.076667,35.719999 123.031667,35.5300009 122.955,35.35 C122.878333,35.1699991 122.775001,35.0150006 122.645,34.885 C122.514999,34.7549993 122.361668,34.6516671 122.185,34.575 C122.008332,34.4983329 121.813334,34.46 121.6,34.46 C121.379999,34.46 121.181668,34.4983329 121.005,34.575 C120.828332,34.6516671 120.676667,34.756666 120.55,34.89 C120.423333,35.023334 120.323334,35.1783324 120.25,35.355 C120.176666,35.5316676 120.133333,35.719999 120.12,35.92 L123.09,35.92 Z M123.91,37.36 C123.796666,37.9400029 123.546669,38.3766652 123.16,38.67 C122.773331,38.9633348 122.28667,39.11 121.7,39.11 C121.286665,39.11 120.928335,39.043334 120.625,38.91 C120.321665,38.776666 120.066668,38.5900012 119.86,38.35 C119.653332,38.1099988 119.498334,37.823335 119.395,37.49 C119.291666,37.156665 119.233333,36.7933353 119.22,36.4 C119.22,36.0066647 119.279999,35.6466683 119.4,35.32 C119.520001,34.9933317 119.688332,34.7100012 119.905,34.47 C120.121668,34.2299988 120.378332,34.043334 120.675,33.91 C120.971668,33.776666 121.296665,33.71 121.65,33.71 C122.110002,33.71 122.491665,33.804999 122.795,33.995 C123.098335,34.185001 123.341666,34.4266652 123.525,34.72 C123.708334,35.0133348 123.835,35.3333316 123.905,35.68 C123.975,36.0266684 124.003333,36.3566651 123.99,36.67 L120.12,36.67 C120.113333,36.8966678 120.14,37.1116656 120.2,37.315 C120.26,37.5183344 120.356666,37.6983326 120.49,37.855 C120.623334,38.0116675 120.793332,38.1366662 121,38.23 C121.206668,38.3233338 121.449999,38.37 121.73,38.37 C122.090002,38.37 122.384999,38.2866675 122.615,38.12 C122.845001,37.9533325 122.996666,37.7000017 123.07,37.36 L123.91,37.36 Z M128.38,35.49 C128.313333,35.1633317 128.173334,34.9100009 127.96,34.73 C127.746666,34.5499991 127.460002,34.46 127.1,34.46 C126.793332,34.46 126.536668,34.5166661 126.33,34.63 C126.123332,34.7433339 125.958334,34.8933324 125.835,35.08 C125.711666,35.2666676 125.623334,35.4816655 125.57,35.725 C125.516666,35.9683346 125.49,36.2199987 125.49,36.48 C125.49,36.7200012 125.518333,36.9533322 125.575,37.18 C125.631667,37.4066678 125.719999,37.6083324 125.84,37.785 C125.960001,37.9616676 126.116666,38.1033328 126.31,38.21 C126.503334,38.3166672 126.733332,38.37 127,38.37 C127.420002,38.37 127.748332,38.2600011 127.985,38.04 C128.221668,37.8199989 128.366666,37.510002 128.42,37.11 L129.29,37.11 C129.196666,37.7500032 128.958335,38.2433316 128.575,38.59 C128.191665,38.9366684 127.670003,39.11 127.01,39.11 C126.616665,39.11 126.268335,39.0466673 125.965,38.92 C125.661665,38.7933327 125.408334,38.6133345 125.205,38.38 C125.001666,38.1466655 124.848334,37.868335 124.745,37.545 C124.641666,37.221665 124.59,36.8666686 124.59,36.48 C124.59,36.0933314 124.639999,35.7316683 124.74,35.395 C124.84,35.0583316 124.991666,34.7650012 125.195,34.515 C125.398334,34.2649988 125.653332,34.068334 125.96,33.925 C126.266668,33.7816659 126.623331,33.71 127.03,33.71 C127.323335,33.71 127.598332,33.7449996 127.855,33.815 C128.111668,33.8850003 128.338332,33.9933326 128.535,34.14 C128.731668,34.2866674 128.893333,34.4716655 129.02,34.695 C129.146667,34.9183345 129.226666,35.1833318 129.26,35.49 L128.38,35.49 Z M131.42,33.83 L132.45,33.83 L132.45,34.58 L131.42,34.58 L131.42,37.79 C131.42,37.8900005 131.428333,37.9699997 131.445,38.03 C131.461667,38.0900003 131.493333,38.1366665 131.54,38.17 C131.586667,38.2033335 131.651666,38.2249999 131.735,38.235 C131.818334,38.2450001 131.926666,38.25 132.06,38.25 L132.45,38.25 L132.45,39 L131.8,39 C131.579999,39 131.391667,38.9850002 131.235,38.955 C131.078333,38.9249998 130.951667,38.8700004 130.855,38.79 C130.758333,38.7099996 130.686667,38.5966674 130.64,38.45 C130.593333,38.3033326 130.57,38.1100012 130.57,37.87 L130.57,34.58 L129.69,34.58 L129.69,33.83 L130.57,33.83 L130.57,32.28 L131.42,32.28 L131.42,33.83 Z" id="Shaketoaddglitchefect"></path>
                        <path d="M53.655,15.623 C53.1789976,16.2350031 52.6520029,16.6628321 52.074,16.9065 C51.4959971,17.1501679 50.9123363,17.272 50.323,17.272 C49.393662,17.272 48.557837,17.1105016 47.8155,16.7875 C47.073163,16.4644984 46.4470025,16.0196695 45.937,15.453 C45.4269975,14.8863305 45.0360014,14.2205038 44.764,13.4555 C44.4919986,12.6904962 44.356,11.8660044 44.356,10.982 C44.356,10.0753288 44.4919986,9.23383722 44.764,8.4575 C45.0360014,7.68116278 45.4269975,7.00400289 45.937,6.426 C46.4470025,5.84799711 47.073163,5.39466831 47.8155,5.066 C48.557837,4.73733169 49.393662,4.573 50.323,4.573 C50.9463364,4.573 51.5498304,4.66649907 52.1335,4.8535 C52.7171696,5.04050093 53.2441643,5.31533152 53.7145,5.678 C54.1848357,6.04066848 54.5729985,6.48833067 54.879,7.021 C55.1850015,7.55366933 55.3719997,8.16566321 55.44,8.857 L52.89,8.857 C52.7313325,8.1769966 52.4253356,7.6670017 51.972,7.327 C51.5186644,6.9869983 50.9690032,6.817 50.323,6.817 C49.7223303,6.817 49.2123354,6.9331655 48.793,7.1655 C48.3736646,7.39783449 48.033668,7.70949804 47.773,8.1005 C47.512332,8.49150195 47.3225006,8.93633084 47.2035,9.435 C47.0844994,9.93366916 47.025,10.4493307 47.025,10.982 C47.025,11.4920025 47.0844994,11.9878309 47.2035,12.4695 C47.3225006,12.9511691 47.512332,13.3846647 47.773,13.77 C48.033668,14.1553353 48.3736646,14.4641655 48.793,14.6965 C49.2123354,14.9288345 49.7223303,15.045 50.323,15.045 C51.2070044,15.045 51.8898309,14.8211689 52.3715,14.3735 C52.8531691,13.9258311 53.1336663,13.2770042 53.213,12.427 L50.527,12.427 L50.527,10.438 L55.627,10.438 L55.627,17 L53.927,17 L53.655,15.623 Z M57.786,4.862 L60.455,4.862 L60.455,14.756 L66.371,14.756 L66.371,17 L57.786,17 L57.786,4.862 Z M67.867,4.862 L70.536,4.862 L70.536,17 L67.867,17 L67.867,4.862 Z M75.568,7.106 L71.93,7.106 L71.93,4.862 L81.875,4.862 L81.875,7.106 L78.237,7.106 L78.237,17 L75.568,17 L75.568,7.106 Z M91.361,8.942 C91.3156664,8.63599847 91.2136675,8.35550127 91.055,8.1005 C90.8963325,7.84549872 90.6980012,7.62166763 90.46,7.429 C90.2219988,7.23633237 89.9528348,7.0861672 89.6525,6.9785 C89.3521652,6.87083279 89.0376683,6.817 88.709,6.817 C88.1083303,6.817 87.5983354,6.9331655 87.179,7.1655 C86.7596646,7.39783449 86.419668,7.70949804 86.159,8.1005 C85.898332,8.49150195 85.7085006,8.93633084 85.5895,9.435 C85.4704994,9.93366916 85.411,10.4493307 85.411,10.982 C85.411,11.4920025 85.4704994,11.9878309 85.5895,12.4695 C85.7085006,12.9511691 85.898332,13.3846647 86.159,13.77 C86.419668,14.1553353 86.7596646,14.4641655 87.179,14.6965 C87.5983354,14.9288345 88.1083303,15.045 88.709,15.045 C89.5250041,15.045 90.1624977,14.7956692 90.6215,14.297 C91.0805023,13.7983308 91.3609995,13.1410041 91.463,12.325 L94.047,12.325 C93.9789997,13.0843371 93.8033347,13.7699969 93.52,14.382 C93.2366652,14.9940031 92.862669,15.5153312 92.398,15.946 C91.933331,16.3766688 91.3893364,16.7053322 90.766,16.932 C90.1426635,17.1586678 89.4570037,17.272 88.709,17.272 C87.779662,17.272 86.943837,17.1105016 86.2015,16.7875 C85.459163,16.4644984 84.8330025,16.0196695 84.323,15.453 C83.8129974,14.8863305 83.4220014,14.2205038 83.15,13.4555 C82.8779986,12.6904962 82.742,11.8660044 82.742,10.982 C82.742,10.0753288 82.8779986,9.23383722 83.15,8.4575 C83.4220014,7.68116278 83.8129974,7.00400289 84.323,6.426 C84.8330025,5.84799711 85.459163,5.39466831 86.2015,5.066 C86.943837,4.73733169 87.779662,4.573 88.709,4.573 C89.37767,4.573 90.009497,4.66933237 90.6045,4.862 C91.199503,5.05466763 91.7321643,5.33516482 92.2025,5.7035 C92.6728357,6.07183517 93.0609985,6.52799728 93.367,7.072 C93.6730015,7.61600272 93.8656663,8.23932982 93.945,8.942 L91.361,8.942 Z M95.866,4.862 L98.535,4.862 L98.535,9.52 L103.448,9.52 L103.448,4.862 L106.117,4.862 L106.117,17 L103.448,17 L103.448,11.764 L98.535,11.764 L98.535,17 L95.866,17 L95.866,4.862 Z" id="GLITCH"></path>
                    </g>
                </g>
            </g>
        </g>
    </g>
</svg>