<?xml version="1.0" encoding="UTF-8"?>
<svg width="149px" height="66px" viewBox="0 0 149 66" version="1.1" xmlns="http://www.w3.org/2000/svg" xmlns:xlink="http://www.w3.org/1999/xlink">
    <!-- Generator: Sketch 54.1 (76490) - https://sketchapp.com -->
    <title>Text</title>
    <desc>Created with Sketch.</desc>
    <g id="页面1" stroke="none" stroke-width="1" fill="none" fill-rule="evenodd">
        <g id="C-35&gt;Shake-to-Remix&gt;EN" transform="translate(-23.000000, -265.000000)" fill="#1B1B1B" fill-rule="nonzero">
            <g id="Content" transform="translate(12.000000, 76.000000)">
                <g id="01_MoMAEarlyModernStyle">
                    <g id="Text" transform="translate(9.500000, 184.000000)">
                        <path d="M56.182,5.718 L59.055,5.718 L61.226,12.101 L61.252,12.101 L63.306,5.718 L66.179,5.718 L66.179,15 L64.268,15 L64.268,8.422 L64.242,8.422 L61.967,15 L60.394,15 L58.119,8.487 L58.093,8.487 L58.093,15 L56.182,15 L56.182,5.718 Z M69.416,11.646 C69.416,11.914668 69.4419997,12.1768321 69.494,12.4325 C69.5460003,12.6881679 69.6348327,12.9178323 69.7605,13.1215 C69.8861673,13.3251677 70.052999,13.4876661 70.261,13.609 C70.469001,13.7303339 70.7289984,13.791 71.041,13.791 C71.3530016,13.791 71.6151656,13.7303339 71.8275,13.609 C72.0398344,13.4876661 72.2088327,13.3251677 72.3345,13.1215 C72.4601673,12.9178323 72.5489997,12.6881679 72.601,12.4325 C72.6530003,12.1768321 72.679,11.914668 72.679,11.646 C72.679,11.377332 72.6530003,11.1130013 72.601,10.853 C72.5489997,10.5929987 72.4601673,10.3633343 72.3345,10.164 C72.2088327,9.96466567 72.0398344,9.80216729 71.8275,9.6765 C71.6151656,9.5508327 71.3530016,9.488 71.041,9.488 C70.7289984,9.488 70.469001,9.5508327 70.261,9.6765 C70.052999,9.80216729 69.8861673,9.96466567 69.7605,10.164 C69.6348327,10.3633343 69.5460003,10.5929987 69.494,10.853 C69.4419997,11.1130013 69.416,11.377332 69.416,11.646 Z M67.57,11.646 C67.57,11.108664 67.6523325,10.6211689 67.817,10.1835 C67.9816675,9.74583115 68.2156652,9.37316821 68.519,9.0655 C68.8223349,8.7578318 69.1863312,8.51950085 69.611,8.3505 C70.0356688,8.18149916 70.5123307,8.097 71.041,8.097 C71.5696693,8.097 72.0484979,8.18149916 72.4775,8.3505 C72.9065021,8.51950085 73.2726652,8.7578318 73.576,9.0655 C73.8793349,9.37316821 74.1133325,9.74583115 74.278,10.1835 C74.4426675,10.6211689 74.525,11.108664 74.525,11.646 C74.525,12.183336 74.4426675,12.6686645 74.278,13.102 C74.1133325,13.5353355 73.8793349,13.9058318 73.576,14.2135 C73.2726652,14.5211682 72.9065021,14.7573325 72.4775,14.922 C72.0484979,15.0866675 71.5696693,15.169 71.041,15.169 C70.5123307,15.169 70.0356688,15.0866675 69.611,14.922 C69.1863312,14.7573325 68.8223349,14.5211682 68.519,14.2135 C68.2156652,13.9058318 67.9816675,13.5353355 67.817,13.102 C67.6523325,12.6686645 67.57,12.183336 67.57,11.646 Z M75.916,5.718 L78.789,5.718 L80.96,12.101 L80.986,12.101 L83.04,5.718 L85.913,5.718 L85.913,15 L84.002,15 L84.002,8.422 L83.976,8.422 L81.701,15 L80.128,15 L77.853,8.487 L77.827,8.487 L77.827,15 L75.916,15 L75.916,5.718 Z M90.047,11.412 L92.452,11.412 L91.282,8.006 L91.256,8.006 L90.047,11.412 Z M90.242,5.718 L92.335,5.718 L95.806,15 L93.687,15 L92.985,12.933 L89.514,12.933 L88.786,15 L86.732,15 L90.242,5.718 Z M1.8745,24.718 L8.8165,24.718 L8.8165,26.434 L3.9155,26.434 L3.9155,28.423 L8.4135,28.423 L8.4135,30.009 L3.9155,30.009 L3.9155,32.284 L8.9205,32.284 L8.9205,34 L1.8745,34 L1.8745,24.718 Z M12.6385,30.412 L15.0435,30.412 L13.8735,27.006 L13.8475,27.006 L12.6385,30.412 Z M12.8335,24.718 L14.9265,24.718 L18.3975,34 L16.2785,34 L15.5765,31.933 L12.1055,31.933 L11.3775,34 L9.3235,34 L12.8335,24.718 Z M21.2445,28.917 L23.4805,28.917 C23.9485023,28.917 24.2994988,28.813001 24.5335,28.605 C24.7675012,28.396999 24.8845,28.0590023 24.8845,27.591 C24.8845,27.1403311 24.7675012,26.8131677 24.5335,26.6095 C24.2994988,26.4058323 23.9485023,26.304 23.4805,26.304 L21.2445,26.304 L21.2445,28.917 Z M19.2035,24.718 L24.2085,24.718 C24.6245021,24.718 24.9993317,24.785166 25.333,24.9195 C25.6666683,25.053834 25.9526655,25.2379988 26.191,25.472 C26.4293345,25.7060012 26.6113327,25.9768318 26.737,26.2845 C26.8626673,26.5921682 26.9255,26.9236649 26.9255,27.279 C26.9255,27.8250027 26.8106678,28.2973313 26.581,28.696 C26.3513322,29.0946687 25.9765026,29.397999 25.4565,29.606 L25.4565,29.632 C25.7078346,29.7013337 25.9158325,29.8074993 26.0805,29.9505 C26.2451675,30.0935007 26.3794995,30.262499 26.4835,30.4575 C26.5875005,30.652501 26.6633331,30.8669988 26.711,31.101 C26.7586669,31.3350012 26.7911666,31.5689988 26.8085,31.803 C26.8171667,31.9503341 26.8258333,32.1236657 26.8345,32.323 C26.8431667,32.5223343 26.8583332,32.725999 26.88,32.934 C26.9016668,33.142001 26.9363331,33.3391657 26.984,33.5255 C27.0316669,33.7118343 27.1031662,33.8699994 27.1985,34 L25.1575,34 C25.0448328,33.7053319 24.9755001,33.3543354 24.9495,32.947 C24.9234999,32.5396646 24.8845003,32.1496685 24.8325,31.777 C24.7631663,31.2916642 24.6158345,30.9363345 24.3905,30.711 C24.1651655,30.4856655 23.7968359,30.373 23.2855,30.373 L21.2445,30.373 L21.2445,34 L19.2035,34 L19.2035,24.718 Z M28.5895,24.718 L30.6305,24.718 L30.6305,32.284 L35.1545,32.284 L35.1545,34 L28.5895,34 L28.5895,24.718 Z M37.2605,30.386 L33.8545,24.718 L36.1425,24.718 L38.3135,28.384 L40.4715,24.718 L42.7465,24.718 L39.3015,30.438 L39.3015,34 L37.2605,34 L37.2605,30.386 Z M47.1405,24.718 L50.0135,24.718 L52.1845,31.101 L52.2105,31.101 L54.2645,24.718 L57.1375,24.718 L57.1375,34 L55.2265,34 L55.2265,27.422 L55.2005,27.422 L52.9255,34 L51.3525,34 L49.0775,27.487 L49.0515,27.487 L49.0515,34 L47.1405,34 L47.1405,24.718 Z M60.5695,29.398 C60.5695,29.788002 60.6149995,30.1671648 60.706,30.5355 C60.7970005,30.9038352 60.9421657,31.2353319 61.1415,31.53 C61.3408343,31.8246681 61.6008317,32.0608324 61.9215,32.2385 C62.2421683,32.4161676 62.6321644,32.505 63.0915,32.505 C63.5508356,32.505 63.9408317,32.4161676 64.2615,32.2385 C64.5821683,32.0608324 64.8421657,31.8246681 65.0415,31.53 C65.2408343,31.2353319 65.3859995,30.9038352 65.477,30.5355 C65.5680005,30.1671648 65.6135,29.788002 65.6135,29.398 C65.6135,28.9906646 65.5680005,28.5963352 65.477,28.215 C65.3859995,27.8336648 65.2408343,27.4935015 65.0415,27.1945 C64.8421657,26.8954985 64.5821683,26.6571676 64.2615,26.4795 C63.9408317,26.3018324 63.5508356,26.213 63.0915,26.213 C62.6321644,26.213 62.2421683,26.3018324 61.9215,26.4795 C61.6008317,26.6571676 61.3408343,26.8954985 61.1415,27.1945 C60.9421657,27.4935015 60.7970005,27.8336648 60.706,28.215 C60.6149995,28.5963352 60.5695,28.9906646 60.5695,29.398 Z M58.5285,29.398 C58.5285,28.7046632 58.632499,28.0611696 58.8405,27.4675 C59.048501,26.8738304 59.347498,26.3560022 59.7375,25.914 C60.1275019,25.4719978 60.6063305,25.1253346 61.174,24.874 C61.7416695,24.6226654 62.3808298,24.497 63.0915,24.497 C63.8108369,24.497 64.4521638,24.6226654 65.0155,24.874 C65.5788362,25.1253346 66.055498,25.4719978 66.4455,25.914 C66.8355019,26.3560022 67.134499,26.8738304 67.3425,27.4675 C67.550501,28.0611696 67.6545,28.7046632 67.6545,29.398 C67.6545,30.0740034 67.550501,30.7044971 67.3425,31.2895 C67.134499,31.8745029 66.8355019,32.3836645 66.4455,32.817 C66.055498,33.2503355 65.5788362,33.5904988 65.0155,33.8375 C64.4521638,34.0845012 63.8108369,34.208 63.0915,34.208 C62.3808298,34.208 61.7416695,34.0845012 61.174,33.8375 C60.6063305,33.5904988 60.1275019,33.2503355 59.7375,32.817 C59.347498,32.3836645 59.048501,31.8745029 58.8405,31.2895 C58.632499,30.7044971 58.5285,30.0740034 58.5285,29.398 Z M71.0865,32.284 L72.9065,32.284 C73.2011681,32.284 73.4871653,32.2363338 73.7645,32.141 C74.0418347,32.0456662 74.2888322,31.8875011 74.5055,31.6665 C74.7221677,31.4454989 74.8954993,31.1573351 75.0255,30.802 C75.1555006,30.4466649 75.2205,30.0133359 75.2205,29.502 C75.2205,29.0339977 75.1750005,28.6115019 75.084,28.2345 C74.9929995,27.8574981 74.843501,27.534668 74.6355,27.266 C74.427499,26.997332 74.152335,26.7915007 73.81,26.6485 C73.467665,26.5054993 73.0451692,26.434 72.5425,26.434 L71.0865,26.434 L71.0865,32.284 Z M69.0455,24.718 L73.0495,24.718 C73.647503,24.718 74.2043308,24.8133324 74.72,25.004 C75.2356692,25.1946676 75.6819981,25.4806648 76.059,25.862 C76.4360019,26.2433352 76.7306656,26.7199971 76.943,27.292 C77.1553344,27.8640029 77.2615,28.5356628 77.2615,29.307 C77.2615,29.9830034 77.1748342,30.6069971 77.0015,31.179 C76.8281658,31.7510029 76.5660018,32.2449979 76.215,32.661 C75.8639982,33.0770021 75.426336,33.4041655 74.902,33.6425 C74.377664,33.8808345 73.7601702,34 73.0495,34 L69.0455,34 L69.0455,24.718 Z M78.6785,24.718 L85.6205,24.718 L85.6205,26.434 L80.7195,26.434 L80.7195,28.423 L85.2175,28.423 L85.2175,30.009 L80.7195,30.009 L80.7195,32.284 L85.7245,32.284 L85.7245,34 L78.6785,34 L78.6785,24.718 Z M89.1435,28.917 L91.3795,28.917 C91.8475023,28.917 92.1984988,28.813001 92.4325,28.605 C92.6665012,28.396999 92.7835,28.0590023 92.7835,27.591 C92.7835,27.1403311 92.6665012,26.8131677 92.4325,26.6095 C92.1984988,26.4058323 91.8475023,26.304 91.3795,26.304 L89.1435,26.304 L89.1435,28.917 Z M87.1025,24.718 L92.1075,24.718 C92.5235021,24.718 92.8983317,24.785166 93.232,24.9195 C93.5656683,25.053834 93.8516655,25.2379988 94.09,25.472 C94.3283345,25.7060012 94.5103327,25.9768318 94.636,26.2845 C94.7616673,26.5921682 94.8245,26.9236649 94.8245,27.279 C94.8245,27.8250027 94.7096678,28.2973313 94.48,28.696 C94.2503322,29.0946687 93.8755026,29.397999 93.3555,29.606 L93.3555,29.632 C93.6068346,29.7013337 93.8148325,29.8074993 93.9795,29.9505 C94.1441675,30.0935007 94.2784995,30.262499 94.3825,30.4575 C94.4865005,30.652501 94.5623331,30.8669988 94.61,31.101 C94.6576669,31.3350012 94.6901666,31.5689988 94.7075,31.803 C94.7161667,31.9503341 94.7248333,32.1236657 94.7335,32.323 C94.7421667,32.5223343 94.7573332,32.725999 94.779,32.934 C94.8006668,33.142001 94.8353331,33.3391657 94.883,33.5255 C94.9306669,33.7118343 95.0021662,33.8699994 95.0975,34 L93.0565,34 C92.9438328,33.7053319 92.8745001,33.3543354 92.8485,32.947 C92.8224999,32.5396646 92.7835003,32.1496685 92.7315,31.777 C92.6621663,31.2916642 92.5148345,30.9363345 92.2895,30.711 C92.0641655,30.4856655 91.6958359,30.373 91.1845,30.373 L89.1435,30.373 L89.1435,34 L87.1025,34 L87.1025,24.718 Z M96.4885,24.718 L98.5165,24.718 L102.3905,30.945 L102.4165,30.945 L102.4165,24.718 L104.3275,24.718 L104.3275,34 L102.2865,34 L98.4255,27.786 L98.3995,27.786 L98.3995,34 L96.4885,34 L96.4885,24.718 Z M111.1265,30.919 C111.1265,31.2310016 111.182833,31.4953323 111.2955,31.712 C111.408167,31.9286678 111.557666,32.104166 111.744,32.2385 C111.930334,32.372834 112.149165,32.4724997 112.4005,32.5375 C112.651835,32.6025003 112.911832,32.635 113.1805,32.635 C113.362501,32.635 113.557499,32.6198335 113.7655,32.5895 C113.973501,32.5591665 114.168499,32.5006671 114.3505,32.414 C114.532501,32.3273329 114.684166,32.2081674 114.8055,32.0565 C114.926834,31.9048326 114.9875,31.7120012 114.9875,31.478 C114.9875,31.2266654 114.907334,31.0230008 114.747,30.867 C114.586666,30.7109992 114.376501,30.5810005 114.1165,30.477 C113.856499,30.3729995 113.561835,30.2820004 113.2325,30.204 C112.903165,30.1259996 112.569502,30.0393338 112.2315,29.944 C111.884832,29.8573329 111.546835,29.7511673 111.2175,29.6255 C110.888165,29.4998327 110.593501,29.3373343 110.3335,29.138 C110.073499,28.9386657 109.863334,28.6895015 109.703,28.3905 C109.542666,28.0914985 109.4625,27.7296688 109.4625,27.305 C109.4625,26.828331 109.564332,26.4145018 109.768,26.0635 C109.971668,25.7124982 110.238165,25.4200012 110.5675,25.186 C110.896835,24.9519988 111.269498,24.7786672 111.6855,24.666 C112.101502,24.5533328 112.517498,24.497 112.9335,24.497 C113.418836,24.497 113.884664,24.5511661 114.331,24.6595 C114.777336,24.7678339 115.173832,24.9433321 115.5205,25.186 C115.867168,25.4286679 116.142332,25.7384981 116.346,26.1155 C116.549668,26.4925019 116.6515,26.949664 116.6515,27.487 L114.6755,27.487 C114.658167,27.2096653 114.599667,26.9800009 114.5,26.798 C114.400333,26.6159991 114.268167,26.4730005 114.1035,26.369 C113.938833,26.2649995 113.750334,26.1913335 113.538,26.148 C113.325666,26.1046664 113.093835,26.083 112.8425,26.083 C112.677833,26.083 112.513167,26.1003332 112.3485,26.135 C112.183833,26.1696668 112.034334,26.2303329 111.9,26.317 C111.765666,26.4036671 111.655167,26.5119993 111.5685,26.642 C111.481833,26.7720006 111.4385,26.9366657 111.4385,27.136 C111.4385,27.3180009 111.473166,27.4653328 111.5425,27.578 C111.611834,27.6906672 111.748332,27.7946662 111.952,27.89 C112.155668,27.9853338 112.437332,28.0806662 112.797,28.176 C113.156668,28.2713338 113.62683,28.3926659 114.2075,28.54 C114.380834,28.5746668 114.621332,28.6374995 114.929,28.7285 C115.236668,28.8195005 115.542165,28.9646657 115.8455,29.164 C116.148835,29.3633343 116.410999,29.6298317 116.632,29.9635 C116.853001,30.2971683 116.9635,30.7239974 116.9635,31.244 C116.9635,31.6686688 116.881167,32.0629982 116.7165,32.427 C116.551833,32.7910018 116.307002,33.1051653 115.982,33.3695 C115.656998,33.6338347 115.254002,33.8396659 114.773,33.987 C114.291998,34.1343341 113.73517,34.208 113.1025,34.208 C112.591164,34.208 112.095002,34.1451673 111.614,34.0195 C111.132998,33.8938327 110.708335,33.696668 110.34,33.428 C109.971665,33.159332 109.679168,32.8170021 109.4625,32.401 C109.245832,31.9849979 109.141833,31.4910029 109.1505,30.919 L111.1265,30.919 Z M120.2265,26.434 L117.4445,26.434 L117.4445,24.718 L125.0495,24.718 L125.0495,26.434 L122.2675,26.434 L122.2675,34 L120.2265,34 L120.2265,26.434 Z M128.5205,30.386 L125.1145,24.718 L127.4025,24.718 L129.5735,28.384 L131.7315,24.718 L134.0065,24.718 L130.5615,30.438 L130.5615,34 L128.5205,34 L128.5205,30.386 Z M134.7865,24.718 L136.8275,24.718 L136.8275,32.284 L141.3515,32.284 L141.3515,34 L134.7865,34 L134.7865,24.718 Z M142.4955,24.718 L149.4375,24.718 L149.4375,26.434 L144.5365,26.434 L144.5365,28.423 L149.0345,28.423 L149.0345,30.009 L144.5365,30.009 L144.5365,32.284 L149.5415,32.284 L149.5415,34 L142.4955,34 L142.4955,24.718 Z" id="MoMAEARLYMODERNSTYLE"></path>
                        <path d="M26.29,51.01 C26.1833328,50.5033308 25.9483352,50.1233346 25.585,49.87 C25.2216648,49.6166654 24.7900025,49.49 24.29,49.49 C23.8633312,49.49 23.4983348,49.5699992 23.195,49.73 C22.8916652,49.8900008 22.6416677,50.1049986 22.445,50.375 C22.2483324,50.6450014 22.1033338,50.9533316 22.01,51.3 C21.9166662,51.6466684 21.87,52.0066648 21.87,52.38 C21.87,52.7866687 21.9166662,53.1716648 22.01,53.535 C22.1033338,53.8983352 22.2483324,54.2149986 22.445,54.485 C22.6416677,54.7550014 22.8933318,54.9699992 23.2,55.13 C23.5066682,55.2900008 23.8733312,55.37 24.3,55.37 C24.6133349,55.37 24.8916655,55.3183339 25.135,55.215 C25.3783346,55.1116661 25.5883325,54.9683342 25.765,54.785 C25.9416675,54.6016658 26.0799995,54.3833346 26.18,54.13 C26.2800005,53.8766654 26.3399999,53.6033348 26.36,53.31 L27.31,53.31 C27.2166662,54.2100045 26.9066693,54.9099975 26.38,55.41 C25.8533307,55.9100025 25.1333379,56.16 24.22,56.16 C23.6666639,56.16 23.1833354,56.0650009 22.77,55.875 C22.3566646,55.6849991 22.0133347,55.423335 21.74,55.09 C21.4666653,54.756665 21.2616674,54.3633356 21.125,53.91 C20.9883327,53.4566644 20.92,52.9700026 20.92,52.45 C20.92,51.9299974 20.9933326,51.441669 21.14,50.985 C21.2866674,50.528331 21.5016653,50.1300017 21.785,49.79 C22.0683348,49.4499983 22.4216646,49.1816677 22.845,48.985 C23.2683355,48.7883323 23.7533306,48.69 24.3,48.69 C24.6733352,48.69 25.026665,48.7399995 25.36,48.84 C25.693335,48.9400005 25.9899987,49.0866657 26.25,49.28 C26.5100013,49.4733343 26.7266658,49.7149986 26.9,50.005 C27.0733342,50.2950015 27.1866664,50.6299981 27.24,51.01 L26.29,51.01 Z M28.32,50.83 L29.12,50.83 L29.12,51.92 L29.14,51.92 C29.3466677,51.4999979 29.5999985,51.190001 29.9,50.99 C30.2000015,50.789999 30.5799977,50.6966666 31.04,50.71 L31.04,51.61 C30.6999983,51.61 30.4100012,51.6566662 30.17,51.75 C29.9299988,51.8433338 29.7366674,51.9799991 29.59,52.16 C29.4433326,52.3400009 29.336667,52.5583321 29.27,52.815 C29.203333,53.0716679 29.17,53.366665 29.17,53.7 L29.17,56 L28.32,56 L28.32,50.83 Z M35.09,52.92 C35.0766666,52.719999 35.031667,52.5300009 34.955,52.35 C34.878333,52.1699991 34.7750006,52.0150006 34.645,51.885 C34.5149993,51.7549993 34.3616676,51.6516671 34.185,51.575 C34.0083324,51.498333 33.8133344,51.46 33.6,51.46 C33.3799989,51.46 33.1816676,51.498333 33.005,51.575 C32.8283325,51.6516671 32.6766673,51.756666 32.55,51.89 C32.4233327,52.023334 32.3233337,52.1783324 32.25,52.355 C32.1766663,52.5316676 32.1333334,52.719999 32.12,52.92 L35.09,52.92 Z M35.91,54.36 C35.7966661,54.9400029 35.5466686,55.3766652 35.16,55.67 C34.7733314,55.9633348 34.2866696,56.11 33.7,56.11 C33.2866646,56.11 32.9283348,56.043334 32.625,55.91 C32.3216652,55.776666 32.0666677,55.5900012 31.86,55.35 C31.6533323,55.1099988 31.4983339,54.823335 31.395,54.49 C31.2916661,54.156665 31.2333334,53.7933353 31.22,53.4 C31.22,53.0066647 31.2799994,52.6466683 31.4,52.32 C31.5200006,51.9933317 31.6883322,51.7100012 31.905,51.47 C32.1216678,51.2299988 32.3783319,51.043334 32.675,50.91 C32.9716681,50.776666 33.2966649,50.71 33.65,50.71 C34.1100023,50.71 34.4916651,50.804999 34.795,50.995 C35.0983349,51.185001 35.3416658,51.4266652 35.525,51.72 C35.7083342,52.0133348 35.8349997,52.3333316 35.905,52.68 C35.9750004,53.0266684 36.0033334,53.3566651 35.99,53.67 L32.12,53.67 C32.1133333,53.8966678 32.1399997,54.1116656 32.2,54.315 C32.2600003,54.5183344 32.356666,54.6983326 32.49,54.855 C32.623334,55.0116675 32.7933323,55.1366662 33,55.23 C33.2066677,55.3233338 33.4499986,55.37 33.73,55.37 C34.0900018,55.37 34.3849989,55.2866675 34.615,55.12 C34.8450012,54.9533325 34.9966663,54.7000017 35.07,54.36 L35.91,54.36 Z M41.45,55.98 C41.3033326,56.0666671 41.1000013,56.11 40.84,56.11 C40.6199989,56.11 40.4450007,56.0483339 40.315,55.925 C40.1849994,55.8016661 40.12,55.6000014 40.12,55.32 C39.8866655,55.6000014 39.6150016,55.8016661 39.305,55.925 C38.9949985,56.0483339 38.6600018,56.11 38.3,56.11 C38.0666655,56.11 37.845001,56.0833336 37.635,56.03 C37.4249989,55.9766664 37.2433341,55.8933339 37.09,55.78 C36.9366659,55.6666661 36.8150004,55.5183342 36.725,55.335 C36.6349995,55.1516657 36.59,54.9300013 36.59,54.67 C36.59,54.3766652 36.6399995,54.1366676 36.74,53.95 C36.8400005,53.7633324 36.9716658,53.6116672 37.135,53.495 C37.2983341,53.3783327 37.4849989,53.2900003 37.695,53.23 C37.905001,53.1699997 38.1199989,53.1200002 38.34,53.08 C38.5733345,53.0333331 38.794999,52.9983334 39.005,52.975 C39.215001,52.9516665 39.3999992,52.9183335 39.56,52.875 C39.7200008,52.8316665 39.8466662,52.7683337 39.94,52.685 C40.0333338,52.6016663 40.08,52.4800008 40.08,52.32 C40.08,52.1333324 40.0450004,51.9833339 39.975,51.87 C39.9049997,51.7566661 39.8150006,51.6700003 39.705,51.61 C39.5949995,51.5499997 39.4716673,51.5100001 39.335,51.49 C39.1983327,51.4699999 39.063334,51.46 38.93,51.46 C38.5699982,51.46 38.2700012,51.5283327 38.03,51.665 C37.7899988,51.8016674 37.6600001,52.0599981 37.64,52.44 L36.79,52.44 C36.8033334,52.1199984 36.8699994,51.8500011 36.99,51.63 C37.1100006,51.4099989 37.269999,51.2316674 37.47,51.095 C37.670001,50.9583327 37.898332,50.8600003 38.155,50.8 C38.4116679,50.7399997 38.6866652,50.71 38.98,50.71 C39.2133345,50.71 39.4449988,50.7266665 39.675,50.76 C39.9050011,50.7933335 40.1133324,50.8616661 40.3,50.965 C40.4866676,51.0683339 40.6366661,51.2133324 40.75,51.4 C40.8633339,51.5866676 40.92,51.8299985 40.92,52.13 L40.92,54.79 C40.92,54.990001 40.9316665,55.1366662 40.955,55.23 C40.9783335,55.3233338 41.056666,55.37 41.19,55.37 C41.2633337,55.37 41.3499995,55.3533335 41.45,55.32 L41.45,55.98 Z M40.07,53.33 C39.9633328,53.4100004 39.8233342,53.4683331 39.65,53.505 C39.4766658,53.5416668 39.295001,53.5716666 39.105,53.595 C38.914999,53.6183335 38.7233343,53.6449998 38.53,53.675 C38.3366657,53.7050001 38.1633341,53.753333 38.01,53.82 C37.8566659,53.886667 37.7316671,53.9816661 37.635,54.105 C37.5383328,54.2283339 37.49,54.3966656 37.49,54.61 C37.49,54.7500007 37.518333,54.8683329 37.575,54.965 C37.6316669,55.0616671 37.7049995,55.1399997 37.795,55.2 C37.8850004,55.2600003 37.9899994,55.3033332 38.11,55.33 C38.2300006,55.3566668 38.356666,55.37 38.49,55.37 C38.7700014,55.37 39.009999,55.3316671 39.21,55.255 C39.410001,55.1783329 39.5733327,55.0816672 39.7,54.965 C39.8266673,54.8483327 39.9199997,54.7216674 39.98,54.585 C40.0400003,54.4483326 40.07,54.3200006 40.07,54.2 L40.07,53.33 Z M43.42,50.83 L44.45,50.83 L44.45,51.58 L43.42,51.58 L43.42,54.79 C43.42,54.8900005 43.4283333,54.9699997 43.445,55.03 C43.4616667,55.0900003 43.4933331,55.1366665 43.54,55.17 C43.5866669,55.2033335 43.6516662,55.2249999 43.735,55.235 C43.8183338,55.2450001 43.926666,55.25 44.06,55.25 L44.45,55.25 L44.45,56 L43.8,56 C43.5799989,56 43.3916674,55.9850001 43.235,55.955 C43.0783325,55.9249998 42.9516671,55.8700004 42.855,55.79 C42.7583329,55.7099996 42.6866669,55.5966674 42.64,55.45 C42.5933331,55.3033326 42.57,55.1100012 42.57,54.87 L42.57,51.58 L41.69,51.58 L41.69,50.83 L42.57,50.83 L42.57,49.28 L43.42,49.28 L43.42,50.83 Z M48.98,52.92 C48.9666666,52.719999 48.921667,52.5300009 48.845,52.35 C48.7683329,52.1699991 48.6650006,52.0150006 48.535,51.885 C48.4049993,51.7549993 48.2516675,51.6516671 48.075,51.575 C47.8983324,51.498333 47.7033344,51.46 47.49,51.46 C47.2699989,51.46 47.0716675,51.498333 46.895,51.575 C46.7183324,51.6516671 46.5666673,51.756666 46.44,51.89 C46.3133327,52.023334 46.2133337,52.1783324 46.14,52.355 C46.0666663,52.5316676 46.0233334,52.719999 46.01,52.92 L48.98,52.92 Z M49.8,54.36 C49.6866661,54.9400029 49.4366686,55.3766652 49.05,55.67 C48.6633314,55.9633348 48.1766696,56.11 47.59,56.11 C47.1766646,56.11 46.8183348,56.043334 46.515,55.91 C46.2116651,55.776666 45.9566677,55.5900012 45.75,55.35 C45.5433323,55.1099988 45.3883338,54.823335 45.285,54.49 C45.1816661,54.156665 45.1233334,53.7933353 45.11,53.4 C45.11,53.0066647 45.1699994,52.6466683 45.29,52.32 C45.4100006,51.9933317 45.5783322,51.7100012 45.795,51.47 C46.0116677,51.2299988 46.2683318,51.043334 46.565,50.91 C46.8616681,50.776666 47.1866649,50.71 47.54,50.71 C48.0000023,50.71 48.3816651,50.804999 48.685,50.995 C48.9883348,51.185001 49.2316657,51.4266652 49.415,51.72 C49.5983342,52.0133348 49.7249996,52.3333316 49.795,52.68 C49.8650003,53.0266684 49.8933334,53.3566651 49.88,53.67 L46.01,53.67 C46.0033333,53.8966678 46.0299997,54.1116656 46.09,54.315 C46.1500003,54.5183344 46.246666,54.6983326 46.38,54.855 C46.513334,55.0116675 46.6833323,55.1366662 46.89,55.23 C47.0966677,55.3233338 47.3399986,55.37 47.62,55.37 C47.9800018,55.37 48.2749988,55.2866675 48.505,55.12 C48.7350011,54.9533325 48.8866663,54.7000017 48.96,54.36 L49.8,54.36 Z M54.44,49.9 L53.59,49.9 L53.59,48.86 L54.44,48.86 L54.44,49.9 Z M53.59,50.83 L54.44,50.83 L54.44,56 L53.59,56 L53.59,50.83 Z M55.76,50.83 L56.56,50.83 L56.56,51.59 L56.58,51.59 C56.9666686,51.0033304 57.5233297,50.71 58.25,50.71 C58.5700016,50.71 58.8599987,50.776666 59.12,50.91 C59.3800013,51.043334 59.5633328,51.2699984 59.67,51.59 C59.8433342,51.3099986 60.0716652,51.0933341 60.355,50.94 C60.6383347,50.7866659 60.9499983,50.71 61.29,50.71 C61.5500013,50.71 61.7849989,50.7383331 61.995,50.795 C62.205001,50.8516669 62.3849992,50.9399994 62.535,51.06 C62.6850007,51.1800006 62.8016662,51.3349991 62.885,51.525 C62.9683337,51.7150009 63.01,51.943332 63.01,52.21 L63.01,56 L62.16,56 L62.16,52.61 C62.16,52.4499992 62.1466668,52.3000007 62.12,52.16 C62.0933332,52.0199993 62.0433337,51.8983339 61.97,51.795 C61.8966663,51.6916662 61.7950006,51.6100003 61.665,51.55 C61.5349993,51.4899997 61.3666677,51.46 61.16,51.46 C60.7399979,51.46 60.4100012,51.5799988 60.17,51.82 C59.9299988,52.0600012 59.81,52.379998 59.81,52.78 L59.81,56 L58.96,56 L58.96,52.61 C58.96,52.4433325 58.9450001,52.2900007 58.915,52.15 C58.8849998,52.0099993 58.8333337,51.8883338 58.76,51.785 C58.6866663,51.6816661 58.5883339,51.601667 58.465,51.545 C58.341666,51.4883331 58.1833343,51.46 57.99,51.46 C57.7433321,51.46 57.5316675,51.5099995 57.355,51.61 C57.1783324,51.7100005 57.0350005,51.8299993 56.925,51.97 C56.8149994,52.1100007 56.7350002,52.2549992 56.685,52.405 C56.6349997,52.5550008 56.61,52.6799995 56.61,52.78 L56.61,56 L55.76,56 L55.76,50.83 Z M68.87,55.98 C68.7233326,56.0666671 68.5200013,56.11 68.26,56.11 C68.0399989,56.11 67.8650006,56.0483339 67.735,55.925 C67.6049993,55.8016661 67.54,55.6000014 67.54,55.32 C67.3066655,55.6000014 67.0350016,55.8016661 66.725,55.925 C66.4149984,56.0483339 66.0800018,56.11 65.72,56.11 C65.4866655,56.11 65.265001,56.0833336 65.055,56.03 C64.8449989,55.9766664 64.6633341,55.8933339 64.51,55.78 C64.3566659,55.6666661 64.2350004,55.5183342 64.145,55.335 C64.0549995,55.1516657 64.01,54.9300013 64.01,54.67 C64.01,54.3766652 64.0599995,54.1366676 64.16,53.95 C64.2600005,53.7633324 64.3916658,53.6116672 64.555,53.495 C64.7183342,53.3783327 64.9049989,53.2900003 65.115,53.23 C65.325001,53.1699997 65.5399989,53.1200002 65.76,53.08 C65.9933345,53.0333331 66.2149989,52.9983334 66.425,52.975 C66.635001,52.9516665 66.8199992,52.9183335 66.98,52.875 C67.1400008,52.8316665 67.2666662,52.7683337 67.36,52.685 C67.4533338,52.6016663 67.5,52.4800008 67.5,52.32 C67.5,52.1333324 67.4650003,51.9833339 67.395,51.87 C67.3249996,51.7566661 67.2350005,51.6700003 67.125,51.61 C67.0149994,51.5499997 66.8916673,51.5100001 66.755,51.49 C66.6183326,51.4699999 66.483334,51.46 66.35,51.46 C65.9899982,51.46 65.6900012,51.5283327 65.45,51.665 C65.2099988,51.8016674 65.0800001,52.0599981 65.06,52.44 L64.21,52.44 C64.2233334,52.1199984 64.2899994,51.8500011 64.41,51.63 C64.5300006,51.4099989 64.689999,51.2316674 64.89,51.095 C65.090001,50.9583327 65.318332,50.8600003 65.575,50.8 C65.8316679,50.7399997 66.1066652,50.71 66.4,50.71 C66.6333345,50.71 66.8649988,50.7266665 67.095,50.76 C67.3250012,50.7933335 67.5333324,50.8616661 67.72,50.965 C67.9066676,51.0683339 68.0566661,51.2133324 68.17,51.4 C68.2833339,51.5866676 68.34,51.8299985 68.34,52.13 L68.34,54.79 C68.34,54.990001 68.3516665,55.1366662 68.375,55.23 C68.3983334,55.3233338 68.476666,55.37 68.61,55.37 C68.6833337,55.37 68.7699995,55.3533335 68.87,55.32 L68.87,55.98 Z M67.49,53.33 C67.3833328,53.4100004 67.2433342,53.4683331 67.07,53.505 C66.8966658,53.5416668 66.7150009,53.5716666 66.525,53.595 C66.334999,53.6183335 66.1433343,53.6449998 65.95,53.675 C65.7566657,53.7050001 65.5833341,53.753333 65.43,53.82 C65.2766659,53.886667 65.1516671,53.9816661 65.055,54.105 C64.9583329,54.2283339 64.91,54.3966656 64.91,54.61 C64.91,54.7500007 64.938333,54.8683329 64.995,54.965 C65.0516669,55.0616671 65.1249995,55.1399997 65.215,55.2 C65.3050004,55.2600003 65.4099994,55.3033332 65.53,55.33 C65.6500006,55.3566668 65.776666,55.37 65.91,55.37 C66.1900014,55.37 66.429999,55.3316671 66.63,55.255 C66.830001,55.1783329 66.9933327,55.0816672 67.12,54.965 C67.2466673,54.8483327 67.3399997,54.7216674 67.4,54.585 C67.4600003,54.4483326 67.49,54.3200006 67.49,54.2 L67.49,53.33 Z M74.12,55.56 C74.12,56.4066709 73.9266686,57.0399979 73.54,57.46 C73.1533314,57.8800021 72.5466708,58.09 71.72,58.09 C71.4799988,58.09 71.2350012,58.0633336 70.985,58.01 C70.7349988,57.9566664 70.5083344,57.8700006 70.305,57.75 C70.1016657,57.6299994 69.933334,57.4733343 69.8,57.28 C69.666666,57.0866657 69.5933334,56.8500014 69.58,56.57 L70.43,56.57 C70.4366667,56.7233341 70.4849996,56.8533328 70.575,56.96 C70.6650004,57.0666672 70.7749994,57.153333 70.905,57.22 C71.0350007,57.286667 71.1766659,57.3349999 71.33,57.365 C71.4833341,57.3950002 71.6299993,57.41 71.77,57.41 C72.0500014,57.41 72.2866657,57.3616672 72.48,57.265 C72.6733343,57.1683328 72.8333327,57.0350009 72.96,56.865 C73.0866673,56.6949992 73.1783331,56.4900012 73.235,56.25 C73.2916669,56.0099988 73.32,55.7466681 73.32,55.46 L73.32,55.12 L73.3,55.12 C73.1533326,55.4400016 72.9316681,55.6749992 72.635,55.825 C72.3383318,55.9750007 72.023335,56.05 71.69,56.05 C71.3033314,56.05 70.9666681,55.9800007 70.68,55.84 C70.3933319,55.6999993 70.1533343,55.5116679 69.96,55.275 C69.7666657,55.0383322 69.6216672,54.7616682 69.525,54.445 C69.4283329,54.1283318 69.38,53.7933351 69.38,53.44 C69.38,53.1333318 69.4199996,52.818335 69.5,52.495 C69.5800004,52.1716651 69.7133324,51.8783346 69.9,51.615 C70.0866676,51.3516653 70.3333318,51.1350008 70.64,50.965 C70.9466682,50.7949992 71.3233311,50.71 71.77,50.71 C72.0966683,50.71 72.3966653,50.781666 72.67,50.925 C72.9433347,51.0683341 73.1566659,51.2833319 73.31,51.57 L73.32,51.57 L73.32,50.83 L74.12,50.83 L74.12,55.56 Z M71.74,55.31 C72.0200014,55.31 72.2583323,55.2516672 72.455,55.135 C72.6516676,55.0183327 72.8099994,54.865001 72.93,54.675 C73.0500006,54.484999 73.138333,54.2700012 73.195,54.03 C73.251667,53.7899988 73.28,53.5500012 73.28,53.31 C73.28,53.0833322 73.2533336,52.8600011 73.2,52.64 C73.1466664,52.4199989 73.0616672,52.2216675 72.945,52.045 C72.8283327,51.8683324 72.6766676,51.7266672 72.49,51.62 C72.3033324,51.5133328 72.076668,51.46 71.81,51.46 C71.5366653,51.46 71.3033343,51.5116662 71.11,51.615 C70.9166657,51.7183339 70.7583339,51.8566658 70.635,52.03 C70.5116661,52.2033342 70.421667,52.4033322 70.365,52.63 C70.3083331,52.8566678 70.28,53.0933321 70.28,53.34 C70.28,53.5733345 70.3033331,53.8066655 70.35,54.04 C70.3966669,54.2733345 70.4766661,54.484999 70.59,54.675 C70.7033339,54.865001 70.8533324,55.0183327 71.04,55.135 C71.2266676,55.2516672 71.4599986,55.31 71.74,55.31 Z M78.99,52.92 C78.9766666,52.719999 78.931667,52.5300009 78.855,52.35 C78.7783329,52.1699991 78.6750006,52.0150006 78.545,51.885 C78.4149993,51.7549993 78.2616675,51.6516671 78.085,51.575 C77.9083324,51.498333 77.7133344,51.46 77.5,51.46 C77.2799989,51.46 77.0816675,51.498333 76.905,51.575 C76.7283324,51.6516671 76.5766673,51.756666 76.45,51.89 C76.3233327,52.023334 76.2233337,52.1783324 76.15,52.355 C76.0766663,52.5316676 76.0333334,52.719999 76.02,52.92 L78.99,52.92 Z M79.81,54.36 C79.6966661,54.9400029 79.4466686,55.3766652 79.06,55.67 C78.6733314,55.9633348 78.1866696,56.11 77.6,56.11 C77.1866646,56.11 76.8283348,56.043334 76.525,55.91 C76.2216651,55.776666 75.9666677,55.5900012 75.76,55.35 C75.5533323,55.1099988 75.3983338,54.823335 75.295,54.49 C75.1916661,54.156665 75.1333334,53.7933353 75.12,53.4 C75.12,53.0066647 75.1799994,52.6466683 75.3,52.32 C75.4200006,51.9933317 75.5883322,51.7100012 75.805,51.47 C76.0216678,51.2299988 76.2783319,51.043334 76.575,50.91 C76.8716681,50.776666 77.1966649,50.71 77.55,50.71 C78.0100023,50.71 78.3916651,50.804999 78.695,50.995 C78.9983348,51.185001 79.2416657,51.4266652 79.425,51.72 C79.6083342,52.0133348 79.7349996,52.3333316 79.805,52.68 C79.8750003,53.0266684 79.9033334,53.3566651 79.89,53.67 L76.02,53.67 C76.0133333,53.8966678 76.0399997,54.1116656 76.1,54.315 C76.1600003,54.5183344 76.256666,54.6983326 76.39,54.855 C76.523334,55.0116675 76.6933323,55.1366662 76.9,55.23 C77.1066677,55.3233338 77.3499986,55.37 77.63,55.37 C77.9900018,55.37 78.2849988,55.2866675 78.515,55.12 C78.7450011,54.9533325 78.8966663,54.7000017 78.97,54.36 L79.81,54.36 Z M87.83,56 L87.03,56 L87.03,55.18 L87.01,55.18 C86.8299991,55.5000016 86.6000014,55.7349993 86.32,55.885 C86.0399986,56.0350007 85.7100019,56.11 85.33,56.11 C84.9899983,56.11 84.7066678,56.0650004 84.48,55.975 C84.2533322,55.8849996 84.0700007,55.7566675 83.93,55.59 C83.7899993,55.4233325 83.6916669,55.2250011 83.635,54.995 C83.578333,54.7649988 83.55,54.5100014 83.55,54.23 L83.55,50.83 L84.4,50.83 L84.4,54.33 C84.4,54.6500016 84.4933324,54.9033324 84.68,55.09 C84.8666676,55.2766676 85.1233317,55.37 85.45,55.37 C85.7100013,55.37 85.9349991,55.3300004 86.125,55.25 C86.3150009,55.1699996 86.4733327,55.0566674 86.6,54.91 C86.7266673,54.7633326 86.8216663,54.5916676 86.885,54.395 C86.9483336,54.1983324 86.98,53.9833345 86.98,53.75 L86.98,50.83 L87.83,50.83 L87.83,56 Z M89.63,54.37 C89.6366667,54.5566676 89.6799996,54.7149993 89.76,54.845 C89.8400004,54.9750006 89.9449994,55.078333 90.075,55.155 C90.2050007,55.231667 90.3516659,55.2866665 90.515,55.32 C90.6783342,55.3533335 90.8466658,55.37 91.02,55.37 C91.153334,55.37 91.2933326,55.3600001 91.44,55.34 C91.5866674,55.3199999 91.7216661,55.2833336 91.845,55.23 C91.968334,55.1766664 92.0699996,55.0983339 92.15,54.995 C92.2300004,54.8916661 92.27,54.7600008 92.27,54.6 C92.27,54.3799989 92.1866675,54.2133339 92.02,54.1 C91.8533325,53.9866661 91.6450013,53.8950004 91.395,53.825 C91.1449988,53.7549997 90.8733348,53.6916669 90.58,53.635 C90.2866652,53.578333 90.0150013,53.4983339 89.765,53.395 C89.5149988,53.2916661 89.3066675,53.1466676 89.14,52.96 C88.9733325,52.7733324 88.89,52.513335 88.89,52.18 C88.89,51.9199987 88.9483328,51.6966676 89.065,51.51 C89.1816673,51.3233324 89.3316658,51.1716672 89.515,51.055 C89.6983343,50.9383328 89.9049989,50.8516669 90.135,50.795 C90.3650012,50.7383331 90.5933322,50.71 90.82,50.71 C91.1133348,50.71 91.3833321,50.7349998 91.63,50.785 C91.8766679,50.8350003 92.0949991,50.921666 92.285,51.045 C92.475001,51.168334 92.6266661,51.3349989 92.74,51.545 C92.8533339,51.7550011 92.9199999,52.0166651 92.94,52.33 L92.09,52.33 C92.0766666,52.1633325 92.0333337,52.0250006 91.96,51.915 C91.8866663,51.8049994 91.7933339,51.716667 91.68,51.65 C91.5666661,51.583333 91.4416674,51.5350002 91.305,51.505 C91.1683327,51.4749999 91.0300007,51.46 90.89,51.46 C90.7633327,51.46 90.6350007,51.4699999 90.505,51.49 C90.3749994,51.5100001 90.2566672,51.5449998 90.15,51.595 C90.0433328,51.6450003 89.956667,51.7116663 89.89,51.795 C89.823333,51.8783338 89.79,51.986666 89.79,52.12 C89.79,52.2666674 89.8416662,52.3883328 89.945,52.485 C90.0483339,52.5816672 90.1799992,52.6616664 90.34,52.725 C90.5000008,52.7883336 90.679999,52.8416664 90.88,52.885 C91.080001,52.9283335 91.279999,52.9733331 91.48,53.02 C91.6933344,53.0666669 91.9016657,53.123333 92.105,53.19 C92.3083344,53.256667 92.4883326,53.3449995 92.645,53.455 C92.8016675,53.5650006 92.9283329,53.7033325 93.025,53.87 C93.1216672,54.0366675 93.17,54.2433321 93.17,54.49 C93.17,54.8033349 93.1050007,55.0633323 92.975,55.27 C92.8449994,55.4766677 92.6750011,55.6433327 92.465,55.77 C92.254999,55.8966673 92.0183347,55.9849998 91.755,56.035 C91.4916654,56.0850003 91.2300013,56.11 90.97,56.11 C90.6833319,56.11 90.4100013,56.0800003 90.15,56.02 C89.8899987,55.9599997 89.660001,55.8616673 89.46,55.725 C89.259999,55.5883326 89.1000006,55.4083344 88.98,55.185 C88.8599994,54.9616655 88.7933334,54.6900016 88.78,54.37 L89.63,54.37 Z M95.01,49.9 L94.16,49.9 L94.16,48.86 L95.01,48.86 L95.01,49.9 Z M94.16,50.83 L95.01,50.83 L95.01,56 L94.16,56 L94.16,50.83 Z M96.33,50.83 L97.13,50.83 L97.13,51.65 L97.15,51.65 C97.5033351,51.0233302 98.0633295,50.71 98.83,50.71 C99.1700017,50.71 99.4533322,50.7566662 99.68,50.85 C99.9066678,50.9433338 100.089999,51.0733325 100.23,51.24 C100.370001,51.4066675 100.468333,51.6049989 100.525,51.835 C100.581667,52.0650012 100.61,52.3199986 100.61,52.6 L100.61,56 L99.76,56 L99.76,52.5 C99.76,52.1799984 99.6666676,51.9266676 99.48,51.74 C99.2933324,51.5533324 99.0366683,51.46 98.71,51.46 C98.4499987,51.46 98.2250009,51.4999996 98.035,51.58 C97.844999,51.6600004 97.6866673,51.7733326 97.56,51.92 C97.4333327,52.0666674 97.3383336,52.2383324 97.275,52.435 C97.2116663,52.6316676 97.18,52.8466655 97.18,53.08 L97.18,56 L96.33,56 L96.33,50.83 Z M106.35,55.56 C106.35,56.4066709 106.156669,57.0399979 105.77,57.46 C105.383331,57.8800021 104.776671,58.09 103.95,58.09 C103.709999,58.09 103.465001,58.0633336 103.215,58.01 C102.964999,57.9566664 102.738334,57.8700006 102.535,57.75 C102.331666,57.6299994 102.163334,57.4733343 102.03,57.28 C101.896666,57.0866657 101.823333,56.8500014 101.81,56.57 L102.66,56.57 C102.666667,56.7233341 102.715,56.8533328 102.805,56.96 C102.895,57.0666672 103.004999,57.153333 103.135,57.22 C103.265001,57.286667 103.406666,57.3349999 103.56,57.365 C103.713334,57.3950002 103.859999,57.41 104,57.41 C104.280001,57.41 104.516666,57.3616672 104.71,57.265 C104.903334,57.1683328 105.063333,57.0350009 105.19,56.865 C105.316667,56.6949992 105.408333,56.4900012 105.465,56.25 C105.521667,56.0099988 105.55,55.7466681 105.55,55.46 L105.55,55.12 L105.53,55.12 C105.383333,55.4400016 105.161668,55.6749992 104.865,55.825 C104.568332,55.9750007 104.253335,56.05 103.92,56.05 C103.533331,56.05 103.196668,55.9800007 102.91,55.84 C102.623332,55.6999993 102.383334,55.5116679 102.19,55.275 C101.996666,55.0383322 101.851667,54.7616682 101.755,54.445 C101.658333,54.1283318 101.61,53.7933351 101.61,53.44 C101.61,53.1333318 101.65,52.818335 101.73,52.495 C101.81,52.1716651 101.943332,51.8783346 102.13,51.615 C102.316668,51.3516653 102.563332,51.1350008 102.87,50.965 C103.176668,50.7949992 103.553331,50.71 104,50.71 C104.326668,50.71 104.626665,50.781666 104.9,50.925 C105.173335,51.0683341 105.386666,51.2833319 105.54,51.57 L105.55,51.57 L105.55,50.83 L106.35,50.83 L106.35,55.56 Z M103.97,55.31 C104.250001,55.31 104.488332,55.2516672 104.685,55.135 C104.881668,55.0183327 105.039999,54.865001 105.16,54.675 C105.280001,54.484999 105.368333,54.2700012 105.425,54.03 C105.481667,53.7899988 105.51,53.5500012 105.51,53.31 C105.51,53.0833322 105.483334,52.8600011 105.43,52.64 C105.376666,52.4199989 105.291667,52.2216675 105.175,52.045 C105.058333,51.8683324 104.906668,51.7266672 104.72,51.62 C104.533332,51.5133328 104.306668,51.46 104.04,51.46 C103.766665,51.46 103.533334,51.5116662 103.34,51.615 C103.146666,51.7183339 102.988334,51.8566658 102.865,52.03 C102.741666,52.2033342 102.651667,52.4033322 102.595,52.63 C102.538333,52.8566678 102.51,53.0933321 102.51,53.34 C102.51,53.5733345 102.533333,53.8066655 102.58,54.04 C102.626667,54.2733345 102.706666,54.484999 102.82,54.675 C102.933334,54.865001 103.083332,55.0183327 103.27,55.135 C103.456668,55.2516672 103.689999,55.31 103.97,55.31 Z M110.93,54.37 C110.936667,54.5566676 110.98,54.7149993 111.06,54.845 C111.14,54.9750006 111.244999,55.078333 111.375,55.155 C111.505001,55.231667 111.651666,55.2866665 111.815,55.32 C111.978334,55.3533335 112.146666,55.37 112.32,55.37 C112.453334,55.37 112.593333,55.3600001 112.74,55.34 C112.886667,55.3199999 113.021666,55.2833336 113.145,55.23 C113.268334,55.1766664 113.37,55.0983339 113.45,54.995 C113.53,54.8916661 113.57,54.7600008 113.57,54.6 C113.57,54.3799989 113.486667,54.2133339 113.32,54.1 C113.153333,53.9866661 112.945001,53.8950004 112.695,53.825 C112.444999,53.7549997 112.173335,53.6916669 111.88,53.635 C111.586665,53.578333 111.315001,53.4983339 111.065,53.395 C110.814999,53.2916661 110.606668,53.1466676 110.44,52.96 C110.273332,52.7733324 110.19,52.513335 110.19,52.18 C110.19,51.9199987 110.248333,51.6966676 110.365,51.51 C110.481667,51.3233324 110.631666,51.1716672 110.815,51.055 C110.998334,50.9383328 111.204999,50.8516669 111.435,50.795 C111.665001,50.7383331 111.893332,50.71 112.12,50.71 C112.413335,50.71 112.683332,50.7349998 112.93,50.785 C113.176668,50.8350003 113.394999,50.921666 113.585,51.045 C113.775001,51.168334 113.926666,51.3349989 114.04,51.545 C114.153334,51.7550011 114.22,52.0166651 114.24,52.33 L113.39,52.33 C113.376667,52.1633325 113.333334,52.0250006 113.26,51.915 C113.186666,51.8049994 113.093334,51.716667 112.98,51.65 C112.866666,51.583333 112.741667,51.5350002 112.605,51.505 C112.468333,51.4749999 112.330001,51.46 112.19,51.46 C112.063333,51.46 111.935001,51.4699999 111.805,51.49 C111.674999,51.5100001 111.556667,51.5449998 111.45,51.595 C111.343333,51.6450003 111.256667,51.7116663 111.19,51.795 C111.123333,51.8783338 111.09,51.986666 111.09,52.12 C111.09,52.2666674 111.141666,52.3883328 111.245,52.485 C111.348334,52.5816672 111.479999,52.6616664 111.64,52.725 C111.800001,52.7883336 111.979999,52.8416664 112.18,52.885 C112.380001,52.9283335 112.579999,52.9733331 112.78,53.02 C112.993334,53.0666669 113.201666,53.123333 113.405,53.19 C113.608334,53.256667 113.788333,53.3449995 113.945,53.455 C114.101667,53.5650006 114.228333,53.7033325 114.325,53.87 C114.421667,54.0366675 114.47,54.2433321 114.47,54.49 C114.47,54.8033349 114.405001,55.0633323 114.275,55.27 C114.144999,55.4766677 113.975001,55.6433327 113.765,55.77 C113.554999,55.8966673 113.318335,55.9849998 113.055,56.035 C112.791665,56.0850003 112.530001,56.11 112.27,56.11 C111.983332,56.11 111.710001,56.0800003 111.45,56.02 C111.189999,55.9599997 110.960001,55.8616673 110.76,55.725 C110.559999,55.5883326 110.400001,55.4083344 110.28,55.185 C110.159999,54.9616655 110.093333,54.6900016 110.08,54.37 L110.93,54.37 Z M116.59,50.83 L117.62,50.83 L117.62,51.58 L116.59,51.58 L116.59,54.79 C116.59,54.8900005 116.598333,54.9699997 116.615,55.03 C116.631667,55.0900003 116.663333,55.1366665 116.71,55.17 C116.756667,55.2033335 116.821666,55.2249999 116.905,55.235 C116.988334,55.2450001 117.096666,55.25 117.23,55.25 L117.62,55.25 L117.62,56 L116.97,56 C116.749999,56 116.561667,55.9850001 116.405,55.955 C116.248333,55.9249998 116.121667,55.8700004 116.025,55.79 C115.928333,55.7099996 115.856667,55.5966674 115.81,55.45 C115.763333,55.3033326 115.74,55.1100012 115.74,54.87 L115.74,51.58 L114.86,51.58 L114.86,50.83 L115.74,50.83 L115.74,49.28 L116.59,49.28 L116.59,50.83 Z M120.59,56.69 C120.489999,56.9433346 120.391667,57.1566658 120.295,57.33 C120.198333,57.5033342 120.091667,57.6449995 119.975,57.755 C119.858333,57.8650005 119.728334,57.9449998 119.585,57.995 C119.441666,58.0450003 119.276668,58.07 119.09,58.07 C118.99,58.07 118.890001,58.0633334 118.79,58.05 C118.689999,58.0366666 118.593334,58.0133335 118.5,57.98 L118.5,57.2 C118.573334,57.2333335 118.658333,57.2616666 118.755,57.285 C118.851667,57.3083334 118.933333,57.32 119,57.32 C119.173334,57.32 119.318333,57.2783338 119.435,57.195 C119.551667,57.1116662 119.64,56.9933341 119.7,56.84 L120.05,55.97 L118,50.83 L118.96,50.83 L120.47,55.06 L120.49,55.06 L121.94,50.83 L122.84,50.83 L120.59,56.69 Z M123.61,48.86 L124.46,48.86 L124.46,56 L123.61,56 L123.61,48.86 Z M129.37,52.92 C129.356667,52.719999 129.311667,52.5300009 129.235,52.35 C129.158333,52.1699991 129.055001,52.0150006 128.925,51.885 C128.794999,51.7549993 128.641668,51.6516671 128.465,51.575 C128.288332,51.498333 128.093334,51.46 127.88,51.46 C127.659999,51.46 127.461668,51.498333 127.285,51.575 C127.108332,51.6516671 126.956667,51.756666 126.83,51.89 C126.703333,52.023334 126.603334,52.1783324 126.53,52.355 C126.456666,52.5316676 126.413333,52.719999 126.4,52.92 L129.37,52.92 Z M130.19,54.36 C130.076666,54.9400029 129.826669,55.3766652 129.44,55.67 C129.053331,55.9633348 128.56667,56.11 127.98,56.11 C127.566665,56.11 127.208335,56.043334 126.905,55.91 C126.601665,55.776666 126.346668,55.5900012 126.14,55.35 C125.933332,55.1099988 125.778334,54.823335 125.675,54.49 C125.571666,54.156665 125.513333,53.7933353 125.5,53.4 C125.5,53.0066647 125.559999,52.6466683 125.68,52.32 C125.800001,51.9933317 125.968332,51.7100012 126.185,51.47 C126.401668,51.2299988 126.658332,51.043334 126.955,50.91 C127.251668,50.776666 127.576665,50.71 127.93,50.71 C128.390002,50.71 128.771665,50.804999 129.075,50.995 C129.378335,51.185001 129.621666,51.4266652 129.805,51.72 C129.988334,52.0133348 130.115,52.3333316 130.185,52.68 C130.255,53.0266684 130.283333,53.3566651 130.27,53.67 L126.4,53.67 C126.393333,53.8966678 126.42,54.1116656 126.48,54.315 C126.54,54.5183344 126.636666,54.6983326 126.77,54.855 C126.903334,55.0116675 127.073332,55.1366662 127.28,55.23 C127.486668,55.3233338 127.729999,55.37 128.01,55.37 C128.370002,55.37 128.664999,55.2866675 128.895,55.12 C129.125001,54.9533325 129.276666,54.7000017 129.35,54.36 L130.19,54.36 Z M7.38,63.58 L6.51,63.58 L6.51,62.83 L7.38,62.83 L7.38,62.06 C7.38,61.6399979 7.50166545,61.3216678 7.745,61.105 C7.98833455,60.8883323 8.343331,60.78 8.81,60.78 C8.8900004,60.78 8.98166615,60.7866666 9.085,60.8 C9.18833385,60.8133334 9.2799996,60.8333332 9.36,60.86 L9.36,61.6 C9.2866663,61.5733332 9.2066671,61.555 9.12,61.545 C9.0333329,61.5349999 8.9533337,61.53 8.88,61.53 C8.6733323,61.53 8.5133339,61.5699996 8.4,61.65 C8.2866661,61.7300004 8.23,61.8833322 8.23,62.11 L8.23,62.83 L9.23,62.83 L9.23,63.58 L8.23,63.58 L8.23,68 L7.38,68 L7.38,63.58 Z M9.96,62.83 L10.76,62.83 L10.76,63.92 L10.78,63.92 C10.9866677,63.4999979 11.2399985,63.190001 11.54,62.99 C11.8400015,62.789999 12.2199977,62.6966666 12.68,62.71 L12.68,63.61 C12.3399983,63.61 12.0500012,63.6566662 11.81,63.75 C11.5699988,63.8433338 11.3766674,63.9799991 11.23,64.16 C11.0833326,64.3400009 10.976667,64.5583321 10.91,64.815 C10.843333,65.071668 10.81,65.366665 10.81,65.7 L10.81,68 L9.96,68 L9.96,62.83 Z M13.76,65.42 C13.76,65.7333349 13.8016663,66.0116655 13.885,66.255 C13.9683337,66.4983345 14.0833326,66.7016658 14.23,66.865 C14.3766674,67.0283342 14.5483324,67.1533329 14.745,67.24 C14.9416677,67.3266671 15.1499989,67.37 15.37,67.37 C15.5900011,67.37 15.7983324,67.3266671 15.995,67.24 C16.1916677,67.1533329 16.3633326,67.0283342 16.51,66.865 C16.6566674,66.7016658 16.7716663,66.4983345 16.855,66.255 C16.9383338,66.0116655 16.98,65.7333349 16.98,65.42 C16.98,65.1066651 16.9383338,64.8283345 16.855,64.585 C16.7716663,64.3416654 16.6566674,64.1366675 16.51,63.97 C16.3633326,63.8033325 16.1916677,63.6766671 15.995,63.59 C15.7983324,63.5033329 15.5900011,63.46 15.37,63.46 C15.1499989,63.46 14.9416677,63.5033329 14.745,63.59 C14.5483324,63.6766671 14.3766674,63.8033325 14.23,63.97 C14.0833326,64.1366675 13.9683337,64.3416654 13.885,64.585 C13.8016663,64.8283345 13.76,65.1066651 13.76,65.42 Z M12.86,65.42 C12.86,65.0399981 12.9133328,64.6850017 13.02,64.355 C13.1266672,64.0249984 13.2866656,63.7383345 13.5,63.495 C13.7133344,63.2516654 13.9766651,63.0600007 14.29,62.92 C14.6033349,62.7799993 14.9633313,62.71 15.37,62.71 C15.7833354,62.71 16.1449985,62.7799993 16.455,62.92 C16.7650016,63.0600007 17.0266656,63.2516654 17.24,63.495 C17.4533344,63.7383345 17.6133328,64.0249984 17.72,64.355 C17.8266672,64.6850017 17.88,65.0399981 17.88,65.42 C17.88,65.8000019 17.8266672,66.1533317 17.72,66.48 C17.6133328,66.8066683 17.4533344,67.0916654 17.24,67.335 C17.0266656,67.5783345 16.7650016,67.7683327 16.455,67.905 C16.1449985,68.0416673 15.7833354,68.11 15.37,68.11 C14.9633313,68.11 14.6033349,68.0416673 14.29,67.905 C13.9766651,67.7683327 13.7133344,67.5783345 13.5,67.335 C13.2866656,67.0916654 13.1266672,66.8066683 13.02,66.48 C12.9133328,66.1533317 12.86,65.8000019 12.86,65.42 Z M18.88,62.83 L19.68,62.83 L19.68,63.59 L19.7,63.59 C20.0866686,63.0033304 20.6433297,62.71 21.37,62.71 C21.6900016,62.71 21.9799987,62.776666 22.24,62.91 C22.5000013,63.043334 22.6833328,63.2699984 22.79,63.59 C22.9633342,63.3099986 23.1916653,63.0933341 23.475,62.94 C23.7583348,62.7866659 24.0699983,62.71 24.41,62.71 C24.6700013,62.71 24.9049989,62.7383331 25.115,62.795 C25.3250011,62.8516669 25.5049993,62.9399994 25.655,63.06 C25.8050008,63.1800006 25.9216663,63.3349991 26.005,63.525 C26.0883338,63.715001 26.13,63.943332 26.13,64.21 L26.13,68 L25.28,68 L25.28,64.61 C25.28,64.4499992 25.2666668,64.3000007 25.24,64.16 C25.2133332,64.0199993 25.1633337,63.8983339 25.09,63.795 C25.0166663,63.6916662 24.9150007,63.6100003 24.785,63.55 C24.6549994,63.4899997 24.4866677,63.46 24.28,63.46 C23.8599979,63.46 23.5300012,63.5799988 23.29,63.82 C23.0499988,64.0600012 22.93,64.379998 22.93,64.78 L22.93,68 L22.08,68 L22.08,64.61 C22.08,64.4433325 22.0650002,64.2900007 22.035,64.15 C22.0049999,64.0099993 21.9533337,63.8883339 21.88,63.785 C21.8066663,63.6816661 21.708334,63.6016669 21.585,63.545 C21.4616661,63.4883331 21.3033343,63.46 21.11,63.46 C20.8633321,63.46 20.6516676,63.5099995 20.475,63.61 C20.2983325,63.7100005 20.1550006,63.8299993 20.045,63.97 C19.9349995,64.1100007 19.8550003,64.2549992 19.805,64.405 C19.7549998,64.5550008 19.73,64.6799995 19.73,64.78 L19.73,68 L18.88,68 L18.88,62.83 Z M31.37,62.83 L32.4,62.83 L32.4,63.58 L31.37,63.58 L31.37,66.79 C31.37,66.8900005 31.3783333,66.9699997 31.395,67.03 C31.4116668,67.0900003 31.4433331,67.1366665 31.49,67.17 C31.5366669,67.2033335 31.6016663,67.2249999 31.685,67.235 C31.7683338,67.2450001 31.876666,67.25 32.01,67.25 L32.4,67.25 L32.4,68 L31.75,68 C31.5299989,68 31.3416675,67.9850002 31.185,67.955 C31.0283326,67.9249999 30.9016672,67.8700004 30.805,67.79 C30.7083329,67.7099996 30.6366669,67.5966674 30.59,67.45 C30.5433331,67.3033326 30.52,67.1100012 30.52,66.87 L30.52,63.58 L29.64,63.58 L29.64,62.83 L30.52,62.83 L30.52,61.28 L31.37,61.28 L31.37,62.83 Z M33.34,60.86 L34.19,60.86 L34.19,63.59 L34.21,63.59 C34.276667,63.4299992 34.3699994,63.2950005 34.49,63.185 C34.6100006,63.0749994 34.7449992,62.9850003 34.895,62.915 C35.0450008,62.8449996 35.2016659,62.7933335 35.365,62.76 C35.5283341,62.7266665 35.6866659,62.71 35.84,62.71 C36.1800017,62.71 36.4633322,62.7566662 36.69,62.85 C36.9166678,62.9433338 37.0999993,63.0733325 37.24,63.24 C37.3800007,63.4066675 37.4783331,63.6049989 37.535,63.835 C37.591667,64.0650012 37.62,64.3199986 37.62,64.6 L37.62,68 L36.77,68 L36.77,64.5 C36.77,64.1799984 36.6766676,63.9266676 36.49,63.74 C36.3033324,63.5533324 36.0466683,63.46 35.72,63.46 C35.4599987,63.46 35.2350009,63.4999996 35.045,63.58 C34.8549991,63.6600004 34.6966673,63.7733326 34.57,63.92 C34.4433327,64.0666674 34.3483337,64.2383324 34.285,64.435 C34.2216664,64.6316676 34.19,64.8466655 34.19,65.08 L34.19,68 L33.34,68 L33.34,60.86 Z M42.49,64.92 C42.4766666,64.719999 42.4316671,64.5300009 42.355,64.35 C42.2783329,64.1699991 42.1750007,64.0150006 42.045,63.885 C41.9149994,63.7549993 41.7616676,63.6516671 41.585,63.575 C41.4083325,63.4983329 41.2133344,63.46 41,63.46 C40.7799989,63.46 40.5816676,63.4983329 40.405,63.575 C40.2283325,63.6516671 40.0766673,63.756666 39.95,63.89 C39.8233327,64.023334 39.7233337,64.1783324 39.65,64.355 C39.5766663,64.5316676 39.5333334,64.719999 39.52,64.92 L42.49,64.92 Z M43.31,66.36 C43.1966661,66.9400029 42.9466686,67.3766652 42.56,67.67 C42.1733314,67.9633348 41.6866696,68.11 41.1,68.11 C40.6866646,68.11 40.3283349,68.043334 40.025,67.91 C39.7216652,67.776666 39.4666677,67.5900012 39.26,67.35 C39.0533323,67.1099988 38.8983339,66.823335 38.795,66.49 C38.6916662,66.156665 38.6333334,65.7933353 38.62,65.4 C38.62,65.0066647 38.6799994,64.6466683 38.8,64.32 C38.9200006,63.9933317 39.0883323,63.7100012 39.305,63.47 C39.5216678,63.2299988 39.7783319,63.043334 40.075,62.91 C40.3716682,62.776666 40.6966649,62.71 41.05,62.71 C41.5100023,62.71 41.8916652,62.804999 42.195,62.995 C42.4983349,63.185001 42.7416658,63.4266652 42.925,63.72 C43.1083343,64.0133348 43.2349997,64.3333316 43.305,64.68 C43.3750004,65.0266684 43.4033334,65.3566651 43.39,65.67 L39.52,65.67 C39.5133333,65.8966678 39.5399997,66.1116656 39.6,66.315 C39.6600003,66.5183344 39.756666,66.6983326 39.89,66.855 C40.023334,67.0116675 40.1933323,67.1366662 40.4,67.23 C40.6066677,67.3233338 40.8499986,67.37 41.13,67.37 C41.4900018,67.37 41.7849989,67.2866675 42.015,67.12 C42.2450012,66.9533325 42.3966663,66.7000017 42.47,66.36 L43.31,66.36 Z M49.97,68 L49.12,68 L49.12,62.92 L47.28,62.92 L47.28,62.24 C47.5200012,62.24 47.7533322,62.2216668 47.98,62.185 C48.2066678,62.1483331 48.4116658,62.0800005 48.595,61.98 C48.7783343,61.8799995 48.9333327,61.7433342 49.06,61.57 C49.1866673,61.3966658 49.2733331,61.176668 49.32,60.91 L49.97,60.91 L49.97,68 Z M53.31,66.29 C53.3433335,66.6366684 53.4833321,66.9033324 53.73,67.09 C53.9766679,67.2766676 54.2699983,67.37 54.61,67.37 C55.1300026,67.37 55.5199987,67.1450023 55.78,66.695 C56.0400013,66.2449977 56.1833332,65.5566713 56.21,64.63 L56.19,64.61 C56.0299992,64.9100015 55.8033348,65.1483324 55.51,65.325 C55.2166652,65.5016676 54.8966684,65.59 54.55,65.59 C54.1899982,65.59 53.8700014,65.5316672 53.59,65.415 C53.3099986,65.2983328 53.075001,65.1366677 52.885,64.93 C52.6949991,64.7233323 52.5516672,64.4733348 52.455,64.18 C52.3583329,63.8866652 52.31,63.5666684 52.31,63.22 C52.31,62.8799983 52.3666661,62.5683347 52.48,62.285 C52.5933339,62.0016653 52.7533323,61.7583343 52.96,61.555 C53.1666677,61.3516657 53.4133319,61.1933339 53.7,61.08 C53.9866681,60.9666661 54.2999983,60.91 54.64,60.91 C54.973335,60.91 55.2866652,60.9616661 55.58,61.065 C55.8733348,61.1683338 56.1299989,61.3466654 56.35,61.6 C56.5700011,61.8533346 56.7449994,62.1983312 56.875,62.635 C57.0050007,63.0716689 57.07,63.6266633 57.07,64.3 C57.07,65.5266728 56.875002,66.46833 56.485,67.125 C56.0949981,67.78167 55.4700043,68.11 54.61,68.11 C54.0166637,68.11 53.5233353,67.9600015 53.13,67.66 C52.7366647,67.3599985 52.5133336,66.9033364 52.46,66.29 L53.31,66.29 Z M56.06,63.28 C56.06,63.0599989 56.0283337,62.8533343 55.965,62.66 C55.9016663,62.4666657 55.808334,62.2950007 55.685,62.145 C55.5616661,61.9949992 55.4100009,61.8766671 55.23,61.79 C55.0499991,61.7033329 54.8400012,61.66 54.6,61.66 C54.3466654,61.66 54.1316676,61.7066662 53.955,61.8 C53.7783325,61.8933338 53.6350006,62.0183325 53.525,62.175 C53.4149995,62.3316674 53.3350003,62.509999 53.285,62.71 C53.2349998,62.910001 53.21,63.1199989 53.21,63.34 C53.21,63.5333343 53.2449997,63.7199991 53.315,63.9 C53.3850004,64.0800009 53.4816661,64.2399993 53.605,64.38 C53.728334,64.5200007 53.8749992,64.6316662 54.045,64.715 C54.2150009,64.7983337 54.4033323,64.84 54.61,64.84 C54.8300011,64.84 55.0299991,64.7983337 55.21,64.715 C55.3900009,64.6316662 55.5433327,64.518334 55.67,64.375 C55.7966673,64.231666 55.893333,64.0650009 55.96,63.875 C56.026667,63.6849991 56.06,63.4866677 56.06,63.28 Z M59.35,62.83 L60.38,62.83 L60.38,63.58 L59.35,63.58 L59.35,66.79 C59.35,66.8900005 59.3583333,66.9699997 59.375,67.03 C59.3916667,67.0900003 59.4233331,67.1366665 59.47,67.17 C59.5166669,67.2033335 59.5816663,67.2249999 59.665,67.235 C59.7483338,67.2450001 59.856666,67.25 59.99,67.25 L60.38,67.25 L60.38,68 L59.73,68 C59.5099989,68 59.3216675,67.9850002 59.165,67.955 C59.0083326,67.9249999 58.8816672,67.8700004 58.785,67.79 C58.6883329,67.7099996 58.6166669,67.5966674 58.57,67.45 C58.5233331,67.3033326 58.5,67.1100012 58.5,66.87 L58.5,63.58 L57.62,63.58 L57.62,62.83 L58.5,62.83 L58.5,61.28 L59.35,61.28 L59.35,62.83 Z M61.32,60.86 L62.17,60.86 L62.17,63.59 L62.19,63.59 C62.256667,63.4299992 62.3499994,63.2950005 62.47,63.185 C62.5900006,63.0749994 62.7249993,62.9850003 62.875,62.915 C63.0250008,62.8449996 63.1816659,62.7933335 63.345,62.76 C63.5083342,62.7266665 63.6666659,62.71 63.82,62.71 C64.1600017,62.71 64.4433322,62.7566662 64.67,62.85 C64.8966678,62.9433338 65.0799993,63.0733325 65.22,63.24 C65.3600007,63.4066675 65.4583331,63.6049989 65.515,63.835 C65.571667,64.0650012 65.6,64.3199986 65.6,64.6 L65.6,68 L64.75,68 L64.75,64.5 C64.75,64.1799984 64.6566676,63.9266676 64.47,63.74 C64.2833324,63.5533324 64.0266683,63.46 63.7,63.46 C63.4399987,63.46 63.215001,63.4999996 63.025,63.58 C62.8349991,63.6600004 62.6766673,63.7733326 62.55,63.92 C62.4233327,64.0666674 62.3283337,64.2383324 62.265,64.435 C62.2016664,64.6316676 62.17,64.8466655 62.17,65.08 L62.17,68 L61.32,68 L61.32,60.86 Z M74.24,67.98 C74.0933326,68.0666671 73.8900013,68.11 73.63,68.11 C73.4099989,68.11 73.2350007,68.0483339 73.105,67.925 C72.9749994,67.801666 72.91,67.6000014 72.91,67.32 C72.6766655,67.6000014 72.4050016,67.801666 72.095,67.925 C71.7849985,68.0483339 71.4500018,68.11 71.09,68.11 C70.8566655,68.11 70.6350011,68.0833336 70.425,68.03 C70.214999,67.9766664 70.0333341,67.8933339 69.88,67.78 C69.7266659,67.6666661 69.6050005,67.5183342 69.515,67.335 C69.4249996,67.1516658 69.38,66.9300013 69.38,66.67 C69.38,66.3766652 69.4299995,66.1366676 69.53,65.95 C69.6300005,65.7633324 69.7616659,65.6116672 69.925,65.495 C70.0883342,65.3783327 70.274999,65.2900003 70.485,65.23 C70.6950011,65.1699997 70.9099989,65.1200002 71.13,65.08 C71.3633345,65.0333331 71.584999,64.9983335 71.795,64.975 C72.0050011,64.9516665 72.1899992,64.9183335 72.35,64.875 C72.5100008,64.8316665 72.6366662,64.7683337 72.73,64.685 C72.8233338,64.6016662 72.87,64.4800008 72.87,64.32 C72.87,64.1333324 72.8350004,63.9833339 72.765,63.87 C72.6949997,63.7566661 72.6050006,63.6700003 72.495,63.61 C72.3849995,63.5499997 72.2616674,63.5100001 72.125,63.49 C71.9883327,63.4699999 71.853334,63.46 71.72,63.46 C71.3599982,63.46 71.0600012,63.5283326 70.82,63.665 C70.5799988,63.8016674 70.4500001,64.0599981 70.43,64.44 L69.58,64.44 C69.5933334,64.1199984 69.6599994,63.8500011 69.78,63.63 C69.9000006,63.4099989 70.059999,63.2316674 70.26,63.095 C70.460001,62.9583327 70.6883321,62.8600003 70.945,62.8 C71.201668,62.7399997 71.4766652,62.71 71.77,62.71 C72.0033345,62.71 72.2349989,62.7266665 72.465,62.76 C72.6950012,62.7933335 72.9033324,62.8616661 73.09,62.965 C73.2766676,63.0683339 73.4266661,63.2133324 73.54,63.4 C73.6533339,63.5866676 73.71,63.8299985 73.71,64.13 L73.71,66.79 C73.71,66.990001 73.7216666,67.1366662 73.745,67.23 C73.7683335,67.3233338 73.846666,67.37 73.98,67.37 C74.0533337,67.37 74.1399995,67.3533335 74.24,67.32 L74.24,67.98 Z M72.86,65.33 C72.7533328,65.4100004 72.6133342,65.4683332 72.44,65.505 C72.2666658,65.5416668 72.085001,65.5716666 71.895,65.595 C71.7049991,65.6183334 71.5133343,65.6449999 71.32,65.675 C71.1266657,65.7050002 70.9533341,65.753333 70.8,65.82 C70.6466659,65.886667 70.5216672,65.9816661 70.425,66.105 C70.3283329,66.228334 70.28,66.3966656 70.28,66.61 C70.28,66.7500007 70.3083331,66.8683329 70.365,66.965 C70.421667,67.0616672 70.4949996,67.1399997 70.585,67.2 C70.6750005,67.2600003 70.7799994,67.3033332 70.9,67.33 C71.0200006,67.3566668 71.146666,67.37 71.28,67.37 C71.5600014,67.37 71.799999,67.331667 72,67.255 C72.200001,67.1783329 72.3633327,67.0816672 72.49,66.965 C72.6166673,66.8483327 72.7099997,66.7216674 72.77,66.585 C72.8300003,66.4483326 72.86,66.3200006 72.86,66.2 L72.86,65.33 Z M75.03,62.83 L75.83,62.83 L75.83,63.65 L75.85,63.65 C76.2033351,63.0233302 76.7633295,62.71 77.53,62.71 C77.8700017,62.71 78.1533322,62.7566662 78.38,62.85 C78.6066678,62.9433338 78.7899993,63.0733325 78.93,63.24 C79.0700007,63.4066675 79.1683331,63.6049989 79.225,63.835 C79.281667,64.0650012 79.31,64.3199986 79.31,64.6 L79.31,68 L78.46,68 L78.46,64.5 C78.46,64.1799984 78.3666676,63.9266676 78.18,63.74 C77.9933324,63.5533324 77.7366683,63.46 77.41,63.46 C77.1499987,63.46 76.925001,63.4999996 76.735,63.58 C76.5449991,63.6600004 76.3866673,63.7733326 76.26,63.92 C76.1333327,64.0666674 76.0383337,64.2383324 75.975,64.435 C75.9116664,64.6316676 75.88,64.8466655 75.88,65.08 L75.88,68 L75.03,68 L75.03,62.83 Z M81.21,65.46 C81.21,65.7000012 81.2416664,65.9349988 81.305,66.165 C81.3683337,66.3950011 81.4649994,66.5999991 81.595,66.78 C81.7250007,66.9600009 81.8916657,67.1033328 82.095,67.21 C82.2983344,67.3166672 82.5366653,67.37 82.81,67.37 C83.0966681,67.37 83.339999,67.3133339 83.54,67.2 C83.740001,67.0866661 83.9033327,66.9383342 84.03,66.755 C84.1566673,66.5716657 84.2483331,66.3633345 84.305,66.13 C84.361667,65.8966655 84.39,65.6600012 84.39,65.42 C84.39,65.1666654 84.3600003,64.9216679 84.3,64.685 C84.2399997,64.4483321 84.1450007,64.2400009 84.015,64.06 C83.8849994,63.8799991 83.7166677,63.7350006 83.51,63.625 C83.3033323,63.5149994 83.0533348,63.46 82.76,63.46 C82.4733319,63.46 82.230001,63.5166661 82.03,63.63 C81.829999,63.7433339 81.6700006,63.8933324 81.55,64.08 C81.4299994,64.2666676 81.3433336,64.4799988 81.29,64.72 C81.2366664,64.9600012 81.21,65.2066654 81.21,65.46 Z M85.21,68 L84.36,68 L84.36,67.3 L84.34,67.3 C84.1999993,67.5866681 83.9800015,67.7933327 83.68,67.92 C83.3799985,68.0466673 83.0500018,68.11 82.69,68.11 C82.289998,68.11 81.9416682,68.0366674 81.645,67.89 C81.3483319,67.7433326 81.1016677,67.5466679 80.905,67.3 C80.7083324,67.0533321 80.5600005,66.7666683 80.46,66.44 C80.3599995,66.1133317 80.31,65.7666685 80.31,65.4 C80.31,65.0333315 80.3583329,64.6866683 80.455,64.36 C80.5516672,64.0333317 80.6983324,63.7483345 80.895,63.505 C81.0916677,63.2616654 81.3383319,63.0683341 81.635,62.925 C81.9316682,62.781666 82.2766647,62.71 82.67,62.71 C82.803334,62.71 82.9466659,62.7233332 83.1,62.75 C83.2533341,62.7766668 83.4066659,62.8216664 83.56,62.885 C83.7133341,62.9483336 83.8583327,63.0316661 83.995,63.135 C84.1316674,63.2383339 84.2466662,63.3666659 84.34,63.52 L84.36,63.52 L84.36,60.86 L85.21,60.86 L85.21,68 Z M89.1,63.42 C89.0799999,63.0599982 89.1166662,62.7266682 89.21,62.42 C89.3033338,62.1133318 89.4483324,61.8483345 89.645,61.625 C89.8416677,61.4016655 90.0866652,61.2266673 90.38,61.1 C90.6733348,60.9733327 91.0066648,60.91 91.38,60.91 C91.6866682,60.91 91.9749987,60.9549995 92.245,61.045 C92.5150014,61.1350004 92.749999,61.2649992 92.95,61.435 C93.150001,61.6050008 93.3083328,61.8166654 93.425,62.07 C93.5416673,62.3233346 93.6,62.616665 93.6,62.95 C93.6,63.2633349 93.5516672,63.5399988 93.455,63.78 C93.3583329,64.0200012 93.2300008,64.234999 93.07,64.425 C92.9099992,64.6150009 92.7266677,64.7866659 92.52,64.94 C92.3133323,65.0933341 92.1000011,65.2399993 91.88,65.38 C91.6599989,65.513334 91.4400011,65.6449994 91.22,65.775 C90.9999989,65.9050007 90.7983343,66.0433326 90.615,66.19 C90.4316658,66.3366674 90.2750007,66.4949991 90.145,66.665 C90.0149994,66.8350009 89.9300002,67.0299989 89.89,67.25 L93.53,67.25 L93.53,68 L88.9,68 C88.9333335,67.5799979 89.0083328,67.2216681 89.125,66.925 C89.2416673,66.6283318 89.3899991,66.3700011 89.57,66.15 C89.7500009,65.9299989 89.9533322,65.7366675 90.18,65.57 C90.4066678,65.4033325 90.6433321,65.2466674 90.89,65.1 C91.1900015,64.9133324 91.4533322,64.7416674 91.68,64.585 C91.9066678,64.4283325 92.0949993,64.2700008 92.245,64.11 C92.3950008,63.9499992 92.508333,63.7766676 92.585,63.59 C92.6616671,63.4033324 92.7,63.1866679 92.7,62.94 C92.7,62.7466657 92.6633337,62.5716674 92.59,62.415 C92.5166663,62.2583325 92.418334,62.1233339 92.295,62.01 C92.1716661,61.8966661 92.0266675,61.8100003 91.86,61.75 C91.6933325,61.6899997 91.5166676,61.66 91.33,61.66 C91.0833321,61.66 90.8716676,61.7116661 90.695,61.815 C90.5183325,61.9183338 90.3733339,62.0533325 90.26,62.22 C90.1466661,62.3866675 90.0650003,62.574999 90.015,62.785 C89.9649998,62.995001 89.9433333,63.2066656 89.95,63.42 L89.1,63.42 Z M95.54,64.51 C95.54,64.776668 95.5483333,65.0749984 95.565,65.405 C95.5816668,65.7350017 95.6349996,66.0449986 95.725,66.335 C95.8150005,66.6250014 95.959999,66.869999 96.16,67.07 C96.360001,67.270001 96.6399982,67.37 97,67.37 C97.3600018,67.37 97.639999,67.270001 97.84,67.07 C98.040001,66.869999 98.1849996,66.6250014 98.275,66.335 C98.3650005,66.0449986 98.4183333,65.7350017 98.435,65.405 C98.4516668,65.0749984 98.46,64.776668 98.46,64.51 C98.46,64.3366658 98.4583334,64.145001 98.455,63.935 C98.4516667,63.7249989 98.4350002,63.5150011 98.405,63.305 C98.3749999,63.094999 98.331667,62.890001 98.275,62.69 C98.2183331,62.489999 98.1350006,62.3150007 98.025,62.165 C97.9149995,62.0149993 97.7766675,61.8933338 97.61,61.8 C97.4433325,61.7066662 97.2400012,61.66 97,61.66 C96.7599988,61.66 96.5566675,61.7066662 96.39,61.8 C96.2233325,61.8933338 96.0850006,62.0149993 95.975,62.165 C95.8649995,62.3150007 95.781667,62.489999 95.725,62.69 C95.6683331,62.890001 95.6250002,63.094999 95.595,63.305 C95.5649999,63.5150011 95.5483334,63.7249989 95.545,63.935 C95.5416667,64.145001 95.54,64.3366658 95.54,64.51 Z M94.64,64.52 C94.64,64.2599987 94.6466666,63.9900014 94.66,63.71 C94.6733334,63.4299986 94.7066664,63.156668 94.76,62.89 C94.8133336,62.623332 94.8899995,62.3700012 94.99,62.13 C95.0900005,61.8899988 95.2266658,61.6800009 95.4,61.5 C95.5733342,61.3199991 95.7916654,61.1766672 96.055,61.07 C96.3183347,60.9633328 96.6333315,60.91 97,60.91 C97.3666685,60.91 97.6816654,60.9633328 97.945,61.07 C98.2083347,61.1766672 98.4266658,61.3199991 98.6,61.5 C98.7733342,61.6800009 98.9099995,61.8899988 99.01,62.13 C99.1100005,62.3700012 99.1866664,62.623332 99.24,62.89 C99.2933336,63.156668 99.3266666,63.4299986 99.34,63.71 C99.3533334,63.9900014 99.36,64.2599987 99.36,64.52 C99.36,64.7800013 99.3533334,65.0499986 99.34,65.33 C99.3266666,65.6100014 99.2933336,65.883332 99.24,66.15 C99.1866664,66.416668 99.1100005,66.6683321 99.01,66.905 C98.9099995,67.1416679 98.7733342,67.3499991 98.6,67.53 C98.4266658,67.7100009 98.2100013,67.8516661 97.95,67.955 C97.6899987,68.0583338 97.3733352,68.11 97,68.11 C96.6333315,68.11 96.3183347,68.0583338 96.055,67.955 C95.7916654,67.8516661 95.5733342,67.7100009 95.4,67.53 C95.2266658,67.3499991 95.0900005,67.1416679 94.99,66.905 C94.8899995,66.6683321 94.8133336,66.416668 94.76,66.15 C94.7066664,65.883332 94.6733334,65.6100014 94.66,65.33 C94.6466666,65.0499986 94.64,64.7800013 94.64,64.52 Z M101.6,62.83 L102.63,62.83 L102.63,63.58 L101.6,63.58 L101.6,66.79 C101.6,66.8900005 101.608333,66.9699997 101.625,67.03 C101.641667,67.0900003 101.673333,67.1366665 101.72,67.17 C101.766667,67.2033335 101.831666,67.2249999 101.915,67.235 C101.998334,67.2450001 102.106666,67.25 102.24,67.25 L102.63,67.25 L102.63,68 L101.98,68 C101.759999,68 101.571667,67.9850002 101.415,67.955 C101.258333,67.9249999 101.131667,67.8700004 101.035,67.79 C100.938333,67.7099996 100.866667,67.5966674 100.82,67.45 C100.773333,67.3033326 100.75,67.1100012 100.75,66.87 L100.75,63.58 L99.87,63.58 L99.87,62.83 L100.75,62.83 L100.75,61.28 L101.6,61.28 L101.6,62.83 Z M103.57,60.86 L104.42,60.86 L104.42,63.59 L104.44,63.59 C104.506667,63.4299992 104.599999,63.2950005 104.72,63.185 C104.840001,63.0749994 104.974999,62.9850003 105.125,62.915 C105.275001,62.8449996 105.431666,62.7933335 105.595,62.76 C105.758334,62.7266665 105.916666,62.71 106.07,62.71 C106.410002,62.71 106.693332,62.7566662 106.92,62.85 C107.146668,62.9433338 107.329999,63.0733325 107.47,63.24 C107.610001,63.4066675 107.708333,63.6049989 107.765,63.835 C107.821667,64.0650012 107.85,64.3199986 107.85,64.6 L107.85,68 L107,68 L107,64.5 C107,64.1799984 106.906668,63.9266676 106.72,63.74 C106.533332,63.5533324 106.276668,63.46 105.95,63.46 C105.689999,63.46 105.465001,63.4999996 105.275,63.58 C105.084999,63.6600004 104.926667,63.7733326 104.8,63.92 C104.673333,64.0666674 104.578334,64.2383324 104.515,64.435 C104.451666,64.6316676 104.42,64.8466655 104.42,65.08 L104.42,68 L103.57,68 L103.57,60.86 Z M115.42,64.49 C115.353333,64.1633317 115.213334,63.9100009 115,63.73 C114.786666,63.5499991 114.500002,63.46 114.14,63.46 C113.833332,63.46 113.576668,63.5166661 113.37,63.63 C113.163332,63.7433339 112.998334,63.8933324 112.875,64.08 C112.751666,64.2666676 112.663334,64.4816655 112.61,64.725 C112.556666,64.9683346 112.53,65.2199987 112.53,65.48 C112.53,65.7200012 112.558333,65.9533322 112.615,66.18 C112.671667,66.4066678 112.759999,66.6083325 112.88,66.785 C113.000001,66.9616676 113.156666,67.1033328 113.35,67.21 C113.543334,67.3166672 113.773332,67.37 114.04,67.37 C114.460002,67.37 114.788332,67.2600011 115.025,67.04 C115.261668,66.8199989 115.406666,66.510002 115.46,66.11 L116.33,66.11 C116.236666,66.7500032 115.998335,67.2433316 115.615,67.59 C115.231665,67.9366684 114.710003,68.11 114.05,68.11 C113.656665,68.11 113.308335,68.0466673 113.005,67.92 C112.701665,67.7933327 112.448334,67.6133345 112.245,67.38 C112.041666,67.1466655 111.888334,66.868335 111.785,66.545 C111.681666,66.221665 111.63,65.8666686 111.63,65.48 C111.63,65.0933314 111.68,64.7316684 111.78,64.395 C111.880001,64.0583316 112.031666,63.7650012 112.235,63.515 C112.438334,63.2649988 112.693332,63.0683341 113,62.925 C113.306668,62.781666 113.663331,62.71 114.07,62.71 C114.363335,62.71 114.638332,62.7449996 114.895,62.815 C115.151668,62.8850003 115.378332,62.9933326 115.575,63.14 C115.771668,63.2866674 115.933333,63.4716655 116.06,63.695 C116.186667,63.9183345 116.266667,64.1833318 116.3,64.49 L115.42,64.49 Z M120.87,64.92 C120.856667,64.719999 120.811667,64.5300009 120.735,64.35 C120.658333,64.1699991 120.555001,64.0150006 120.425,63.885 C120.294999,63.7549993 120.141668,63.6516671 119.965,63.575 C119.788332,63.4983329 119.593334,63.46 119.38,63.46 C119.159999,63.46 118.961668,63.4983329 118.785,63.575 C118.608332,63.6516671 118.456667,63.756666 118.33,63.89 C118.203333,64.023334 118.103334,64.1783324 118.03,64.355 C117.956666,64.5316676 117.913333,64.719999 117.9,64.92 L120.87,64.92 Z M121.69,66.36 C121.576666,66.9400029 121.326669,67.3766652 120.94,67.67 C120.553331,67.9633348 120.06667,68.11 119.48,68.11 C119.066665,68.11 118.708335,68.043334 118.405,67.91 C118.101665,67.776666 117.846668,67.5900012 117.64,67.35 C117.433332,67.1099988 117.278334,66.823335 117.175,66.49 C117.071666,66.156665 117.013333,65.7933353 117,65.4 C117,65.0066647 117.059999,64.6466683 117.18,64.32 C117.300001,63.9933317 117.468332,63.7100012 117.685,63.47 C117.901668,63.2299988 118.158332,63.043334 118.455,62.91 C118.751668,62.776666 119.076665,62.71 119.43,62.71 C119.890002,62.71 120.271665,62.804999 120.575,62.995 C120.878335,63.185001 121.121666,63.4266652 121.305,63.72 C121.488334,64.0133348 121.615,64.3333316 121.685,64.68 C121.755,65.0266684 121.783333,65.3566651 121.77,65.67 L117.9,65.67 C117.893333,65.8966678 117.92,66.1116656 117.98,66.315 C118.04,66.5183344 118.136666,66.6983326 118.27,66.855 C118.403334,67.0116675 118.573332,67.1366662 118.78,67.23 C118.986668,67.3233338 119.229999,67.37 119.51,67.37 C119.870002,67.37 120.164999,67.2866675 120.395,67.12 C120.625001,66.9533325 120.776666,66.7000017 120.85,66.36 L121.69,66.36 Z M122.65,62.83 L123.45,62.83 L123.45,63.65 L123.47,63.65 C123.823335,63.0233302 124.38333,62.71 125.15,62.71 C125.490002,62.71 125.773332,62.7566662 126,62.85 C126.226668,62.9433338 126.409999,63.0733325 126.55,63.24 C126.690001,63.4066675 126.788333,63.6049989 126.845,63.835 C126.901667,64.0650012 126.93,64.3199986 126.93,64.6 L126.93,68 L126.08,68 L126.08,64.5 C126.08,64.1799984 125.986668,63.9266676 125.8,63.74 C125.613332,63.5533324 125.356668,63.46 125.03,63.46 C124.769999,63.46 124.545001,63.4999996 124.355,63.58 C124.164999,63.6600004 124.006667,63.7733326 123.88,63.92 C123.753333,64.0666674 123.658334,64.2383324 123.595,64.435 C123.531666,64.6316676 123.5,64.8466655 123.5,65.08 L123.5,68 L122.65,68 L122.65,62.83 Z M129.39,62.83 L130.42,62.83 L130.42,63.58 L129.39,63.58 L129.39,66.79 C129.39,66.8900005 129.398333,66.9699997 129.415,67.03 C129.431667,67.0900003 129.463333,67.1366665 129.51,67.17 C129.556667,67.2033335 129.621666,67.2249999 129.705,67.235 C129.788334,67.2450001 129.896666,67.25 130.03,67.25 L130.42,67.25 L130.42,68 L129.77,68 C129.549999,68 129.361667,67.9850002 129.205,67.955 C129.048333,67.9249999 128.921667,67.8700004 128.825,67.79 C128.728333,67.7099996 128.656667,67.5966674 128.61,67.45 C128.563333,67.3033326 128.54,67.1100012 128.54,66.87 L128.54,63.58 L127.66,63.58 L127.66,62.83 L128.54,62.83 L128.54,61.28 L129.39,61.28 L129.39,62.83 Z M135.64,68 L134.84,68 L134.84,67.18 L134.82,67.18 C134.639999,67.5000016 134.410001,67.7349993 134.13,67.885 C133.849999,68.0350007 133.520002,68.11 133.14,68.11 C132.799998,68.11 132.516668,68.0650004 132.29,67.975 C132.063332,67.8849996 131.880001,67.7566675 131.74,67.59 C131.599999,67.4233325 131.501667,67.2250011 131.445,66.995 C131.388333,66.7649988 131.36,66.5100014 131.36,66.23 L131.36,62.83 L132.21,62.83 L132.21,66.33 C132.21,66.6500016 132.303332,66.9033324 132.49,67.09 C132.676668,67.2766676 132.933332,67.37 133.26,67.37 C133.520001,67.37 133.744999,67.3300004 133.935,67.25 C134.125001,67.1699996 134.283333,67.0566674 134.41,66.91 C134.536667,66.7633326 134.631666,66.5916677 134.695,66.395 C134.758334,66.1983324 134.79,65.9833345 134.79,65.75 L134.79,62.83 L135.64,62.83 L135.64,68 Z M136.89,62.83 L137.69,62.83 L137.69,63.92 L137.71,63.92 C137.916668,63.4999979 138.169999,63.190001 138.47,62.99 C138.770002,62.789999 139.149998,62.6966666 139.61,62.71 L139.61,63.61 C139.269998,63.61 138.980001,63.6566662 138.74,63.75 C138.499999,63.8433338 138.306667,63.9799991 138.16,64.16 C138.013333,64.3400009 137.906667,64.5583321 137.84,64.815 C137.773333,65.071668 137.74,65.366665 137.74,65.7 L137.74,68 L136.89,68 L136.89,62.83 Z M142.28,68.69 C142.18,68.9433346 142.081667,69.1566658 141.985,69.33 C141.888333,69.5033342 141.781667,69.6449995 141.665,69.755 C141.548333,69.8650006 141.418334,69.9449997 141.275,69.995 C141.131666,70.0450003 140.966668,70.07 140.78,70.07 C140.68,70.07 140.580001,70.0633334 140.48,70.05 C140.38,70.0366666 140.283334,70.0133335 140.19,69.98 L140.19,69.2 C140.263334,69.2333335 140.348333,69.2616666 140.445,69.285 C140.541667,69.3083334 140.623333,69.32 140.69,69.32 C140.863334,69.32 141.008333,69.2783338 141.125,69.195 C141.241667,69.1116662 141.33,68.9933341 141.39,68.84 L141.74,67.97 L139.69,62.83 L140.65,62.83 L142.16,67.06 L142.18,67.06 L143.63,62.83 L144.53,62.83 L142.28,68.69 Z" id="Createimageusingstylefromthe19thand20thcentury"></path>
                    </g>
                </g>
            </g>
        </g>
    </g>
</svg>