<?xml version="1.0" encoding="UTF-8"?>
<svg width="99px" height="49px" viewBox="0 0 99 49" version="1.1" xmlns="http://www.w3.org/2000/svg" xmlns:xlink="http://www.w3.org/1999/xlink">
    <!-- Generator: Sketch 54.1 (76490) - https://sketchapp.com -->
    <title>Text</title>
    <desc>Created with Sketch.</desc>
    <g id="Make" stroke="none" stroke-width="1" fill="none" fill-rule="evenodd">
        <g id="C-37&gt;Shake-to-Remix" transform="translate(-229.000000, -555.000000)" fill="#1B1B1B" fill-rule="nonzero">
            <g id="Content" transform="translate(12.000000, 76.000000)">
                <g id="04_Splash" transform="translate(181.000000, 281.000000)">
                    <g id="Text" transform="translate(36.000000, 194.000000)">
                        <path d="M11.799,32.088 C12.33,32.385 13.365,33.069 13.752,33.357 L13.329,33.969 C12.897,33.645 11.925,32.997 11.394,32.691 L11.799,32.088 Z M10.449,38.514 C11.439,38.343 12.555,37.992 13.464,37.47 C14.958,36.615 16.146,35.445 16.875,34.176 L17.307,34.914 C16.524,36.129 15.282,37.29 13.851,38.136 C12.942,38.658 11.7,39.081 10.863,39.252 L10.449,38.514 Z M10.44,34.113 C10.98,34.401 12.024,35.04 12.42,35.328 L12.006,35.958 C11.565,35.634 10.584,35.004 10.044,34.725 L10.44,34.113 Z M22.932,38.352 L25.11,38.352 C25.326,38.352 25.533,38.334 25.713,38.307 L25.713,39.063 C25.533,39.045 25.254,39.036 25.11,39.036 L20.133,39.036 C19.935,39.036 19.701,39.045 19.485,39.063 L19.485,38.307 C19.692,38.334 19.935,38.352 20.133,38.352 L22.203,38.352 L22.203,35.04 L20.547,35.04 C20.403,35.04 20.115,35.049 19.926,35.067 L19.926,34.347 C20.115,34.374 20.403,34.383 20.547,34.383 L24.687,34.383 C24.912,34.383 25.137,34.365 25.326,34.347 L25.326,35.067 C25.128,35.049 24.894,35.04 24.687,35.04 L22.932,35.04 L22.932,38.352 Z M34.245,31.971 L34.839,32.511 C34.218,33.141 33.354,33.879 32.427,34.464 L32.427,38.316 C32.427,38.658 32.445,39.099 32.481,39.279 L31.599,39.279 C31.626,39.108 31.653,38.658 31.653,38.316 L31.653,34.914 C30.69,35.445 29.448,35.967 28.269,36.318 L27.855,35.616 C29.358,35.265 30.888,34.581 31.878,33.96 C32.796,33.393 33.741,32.61 34.245,31.971 Z M43.155,33.015 L43.758,33.375 C43.686,33.501 43.596,33.708 43.542,33.852 C43.299,34.752 42.75,35.976 41.949,36.948 C41.13,37.947 40.059,38.775 38.367,39.396 L37.719,38.811 C39.366,38.325 40.491,37.506 41.31,36.552 C42.012,35.724 42.561,34.563 42.741,33.744 L39.699,33.744 C39.159,34.5 38.403,35.301 37.422,35.958 L36.801,35.49 C38.358,34.563 39.24,33.258 39.627,32.448 C39.726,32.295 39.852,31.971 39.906,31.737 L40.743,32.016 C40.59,32.25 40.428,32.547 40.338,32.718 C40.275,32.844 40.203,32.97 40.122,33.096 L42.57,33.096 C42.813,33.096 43.011,33.069 43.155,33.015 Z M49.23,36.894 C49.752,36.894 50.094,36.471 50.013,35.625 C49.869,35.238 49.572,35.076 49.221,35.076 C48.762,35.076 48.321,35.436 48.321,36.012 C48.321,36.57 48.735,36.894 49.23,36.894 Z M50.607,33.672 L50.49,33.672 C50.49,34.176 50.499,34.725 50.508,35.13 C50.697,35.436 50.796,35.832 50.796,36.273 C50.796,37.479 50.211,38.82 48.141,39.441 L47.52,38.838 C48.69,38.568 49.518,38.082 49.887,37.29 C49.671,37.443 49.419,37.515 49.122,37.515 C48.366,37.515 47.646,36.984 47.646,36.021 C47.646,35.139 48.375,34.464 49.221,34.464 C49.437,34.464 49.635,34.5 49.815,34.563 C49.815,34.302 49.815,33.987 49.806,33.681 C48.456,33.69 46.944,33.753 45.828,33.834 L45.81,33.132 C46.8,33.114 48.474,33.06 49.797,33.042 C49.797,32.79 49.788,32.583 49.779,32.457 C49.77,32.268 49.743,32.007 49.725,31.899 L50.544,31.899 L50.499,32.457 C50.499,32.592 50.49,32.799 50.49,33.033 L50.625,33.033 C51.705,33.033 52.803,33.042 53.235,33.042 L53.226,33.717 C52.722,33.69 51.912,33.672 50.607,33.672 Z M58.401,38.703 C58.653,38.703 58.896,38.685 59.112,38.649 C59.031,37.947 58.608,37.461 57.933,37.461 C57.528,37.461 57.222,37.704 57.222,38.01 C57.222,38.451 57.735,38.703 58.401,38.703 Z M60.237,32.232 L60.651,32.754 C60.489,32.862 60.291,32.997 60.156,33.096 C59.715,33.429 58.518,34.482 57.834,35.058 C58.239,34.923 58.644,34.869 59.04,34.869 C60.525,34.869 61.596,35.769 61.596,36.975 C61.596,38.415 60.399,39.351 58.518,39.351 C57.303,39.351 56.556,38.811 56.556,38.073 C56.556,37.461 57.105,36.903 57.933,36.903 C59.049,36.903 59.652,37.65 59.769,38.478 C60.471,38.208 60.876,37.695 60.876,36.966 C60.876,36.093 59.994,35.454 58.869,35.454 C57.402,35.454 56.592,36.075 55.458,37.227 L54.936,36.696 C55.674,36.084 56.817,35.13 57.339,34.698 C57.834,34.284 58.941,33.348 59.382,32.952 C58.914,32.97 57.159,33.051 56.7,33.078 C56.493,33.087 56.286,33.096 56.097,33.132 L56.079,32.385 C56.277,32.412 56.529,32.412 56.709,32.412 C57.168,32.412 59.283,32.349 59.751,32.304 C60.012,32.277 60.138,32.259 60.237,32.232 Z M67.743,35.328 L67.743,34.653 C68.211,34.608 68.796,34.581 69.372,34.581 C69.885,34.581 70.434,34.599 70.911,34.653 L70.893,35.337 C70.443,35.283 69.912,35.229 69.39,35.229 C68.832,35.229 68.292,35.265 67.743,35.328 Z M68.319,32.988 L68.319,33.699 C67.734,33.834 67.095,33.933 66.474,34.005 C66.393,34.392 66.294,34.806 66.195,35.184 C65.871,36.462 65.268,38.298 64.8,39.27 L64.008,39.009 C64.539,38.091 65.169,36.282 65.502,35.022 C65.583,34.725 65.655,34.401 65.727,34.077 C65.439,34.095 65.169,34.104 64.917,34.104 C64.521,34.104 64.197,34.086 63.882,34.068 L63.855,33.366 C64.278,33.42 64.602,33.429 64.926,33.429 C65.223,33.429 65.538,33.411 65.88,33.393 C65.943,33.069 65.988,32.79 66.015,32.61 C66.042,32.358 66.06,32.061 66.042,31.872 L66.915,31.944 C66.852,32.142 66.789,32.475 66.753,32.655 L66.618,33.312 C67.194,33.24 67.779,33.132 68.319,32.988 Z M67.293,36.759 L67.968,36.822 C67.887,37.119 67.842,37.398 67.842,37.623 C67.842,38.046 68.04,38.451 69.309,38.451 C69.885,38.451 70.506,38.379 71.046,38.28 L71.019,39.009 C70.542,39.072 69.948,39.126 69.3,39.126 C67.896,39.126 67.158,38.694 67.158,37.812 C67.158,37.47 67.212,37.137 67.293,36.759 Z M79.749,33.24 L79.281,33.42 C79.11,33.015 78.876,32.475 78.678,32.133 L79.128,31.98 C79.308,32.313 79.596,32.871 79.749,33.24 Z M77.625,32.718 L78.318,32.502 C78.543,33.582 79.074,35.04 80.217,36.183 L79.686,36.741 C79.281,36.246 78.921,35.706 78.588,35.076 C78.777,37.326 77.841,39.549 75.528,39.549 C74.097,39.549 73.215,38.622 73.215,37.191 C73.215,35.661 74.088,34.23 74.817,33.474 C74.367,33.546 73.701,33.654 73.35,33.726 C73.197,33.753 73.035,33.789 72.855,33.825 L72.747,33.069 C72.882,33.069 73.062,33.06 73.224,33.042 C73.998,32.979 75.564,32.727 76.086,32.529 L76.302,33.177 C76.185,33.222 75.96,33.276 75.834,33.339 C75.267,33.762 73.917,35.445 73.917,37.092 C73.917,38.316 74.691,38.802 75.555,38.802 C77.409,38.802 78.462,36.651 77.841,33.366 C77.769,33.159 77.697,32.943 77.625,32.718 Z M79.605,31.8 L80.046,31.629 C80.244,31.962 80.514,32.511 80.685,32.889 L80.217,33.06 C80.046,32.655 79.812,32.133 79.605,31.8 Z M82.521,32.187 L83.331,32.25 C83.277,32.403 83.196,32.691 83.16,32.853 C82.989,33.672 82.728,35.265 82.728,36.264 C82.728,36.696 82.746,37.056 82.8,37.488 C82.953,37.083 83.151,36.561 83.295,36.21 L83.682,36.498 C83.457,37.128 83.133,38.073 83.052,38.496 C83.025,38.622 83.007,38.793 83.007,38.892 L83.034,39.207 L82.386,39.252 C82.206,38.622 82.062,37.596 82.062,36.39 C82.062,35.076 82.35,33.546 82.458,32.817 C82.485,32.61 82.521,32.376 82.521,32.187 Z M84.717,36.507 L85.365,36.57 C85.284,36.894 85.248,37.146 85.248,37.389 C85.248,37.794 85.518,38.19 86.742,38.19 C87.543,38.19 88.227,38.118 88.947,37.956 L88.956,38.712 C88.407,38.82 87.66,38.892 86.733,38.892 C85.239,38.892 84.573,38.397 84.573,37.56 C84.573,37.236 84.636,36.885 84.717,36.507 Z M85.023,33.672 L85.014,32.934 C85.986,33.096 87.786,33.06 88.677,32.934 L88.677,33.672 C87.723,33.771 85.995,33.771 85.023,33.672 Z M7.245,44.971 L7.839,45.511 C7.218,46.141 6.354,46.879 5.427,47.464 L5.427,51.316 C5.427,51.658 5.445,52.099 5.481,52.279 L4.599,52.279 C4.626,52.108 4.653,51.658 4.653,51.316 L4.653,47.914 C3.69,48.445 2.448,48.967 1.269,49.318 L0.855,48.616 C2.358,48.265 3.888,47.581 4.878,46.96 C5.796,46.393 6.741,45.61 7.245,44.971 Z M11.133,45.403 C11.772,45.826 12.924,46.762 13.428,47.266 L12.861,47.833 C12.411,47.365 11.286,46.402 10.62,45.952 L11.133,45.403 Z M10.359,51.433 C11.934,51.199 13.104,50.65 13.959,50.119 C15.345,49.246 16.443,47.914 16.965,46.807 L17.397,47.572 C16.776,48.697 15.732,49.921 14.373,50.767 C13.473,51.343 12.339,51.892 10.836,52.171 L10.359,51.433 Z M25.335,46.015 L25.938,46.375 C25.866,46.501 25.776,46.708 25.722,46.852 C25.479,47.752 24.93,48.976 24.129,49.948 C23.31,50.947 22.239,51.775 20.547,52.396 L19.899,51.811 C21.546,51.325 22.671,50.506 23.49,49.552 C24.192,48.724 24.741,47.563 24.921,46.744 L21.879,46.744 C21.339,47.5 20.583,48.301 19.602,48.958 L18.981,48.49 C20.538,47.563 21.42,46.258 21.807,45.448 C21.906,45.295 22.032,44.971 22.086,44.737 L22.923,45.016 C22.77,45.25 22.608,45.547 22.518,45.718 C22.455,45.844 22.383,45.97 22.302,46.096 L24.75,46.096 C24.993,46.096 25.191,46.069 25.335,46.015 Z M32.418,50.785 L31.725,50.785 C31.752,50.443 31.761,49.867 31.761,49.399 C30.933,49.849 30.357,50.308 30.357,50.893 C30.357,51.595 31.05,51.694 31.968,51.694 C32.661,51.694 33.615,51.613 34.398,51.478 L34.38,52.207 C33.705,52.288 32.715,52.351 31.941,52.351 C30.663,52.351 29.637,52.081 29.637,50.992 C29.637,49.939 30.699,49.273 31.734,48.733 C31.644,48.364 31.32,48.184 30.933,48.184 C30.348,48.184 29.808,48.472 29.394,48.841 C29.142,49.084 28.89,49.417 28.584,49.777 L27.972,49.318 C29.106,48.22 29.691,47.302 30.024,46.6 L29.655,46.6 C29.277,46.6 28.674,46.582 28.188,46.546 L28.188,45.871 C28.665,45.925 29.286,45.961 29.691,45.961 C29.88,45.961 30.069,45.961 30.276,45.952 C30.402,45.556 30.483,45.151 30.501,44.845 L31.239,44.908 C31.176,45.16 31.095,45.529 30.969,45.934 C31.878,45.889 32.85,45.808 33.696,45.664 L33.687,46.33 C32.805,46.465 31.707,46.546 30.735,46.582 C30.537,47.041 30.258,47.536 29.934,47.95 C30.258,47.743 30.771,47.617 31.167,47.617 C31.743,47.617 32.211,47.896 32.346,48.427 C32.958,48.139 33.498,47.923 33.966,47.707 C34.236,47.59 34.452,47.482 34.704,47.356 L34.992,48.031 C34.767,48.094 34.443,48.22 34.209,48.31 C33.705,48.508 33.066,48.769 32.391,49.084 C32.4,49.597 32.409,50.353 32.418,50.785 Z M43.866,44.701 L44.424,45.007 C44.118,45.358 43.785,45.718 43.515,45.97 L43.11,45.718 C43.362,45.448 43.695,45.007 43.866,44.701 Z M44.496,46.717 L44.1,47.149 C43.794,46.87 43.182,46.492 42.651,46.213 C42.849,47.167 43.263,47.887 44.037,47.941 C44.163,47.959 44.235,47.707 44.28,47.248 C44.397,47.374 44.559,47.518 44.694,47.59 C44.586,48.328 44.343,48.607 43.911,48.535 C42.534,48.373 42.111,47.068 41.931,45.538 L37.08,45.538 L37.08,44.935 L42.498,44.935 C42.516,45.304 42.552,45.664 42.615,46.006 L42.876,45.754 C43.425,46.006 44.136,46.42 44.496,46.717 Z M43.515,49.966 L43.11,49.732 C43.362,49.471 43.722,49.012 43.902,48.715 L44.469,49.012 C44.145,49.363 43.794,49.732 43.515,49.966 Z M44.595,50.749 L44.199,51.181 C43.884,50.902 43.29,50.542 42.759,50.254 C42.948,51.289 43.326,52.018 44.1,52.081 C44.226,52.099 44.307,51.748 44.343,51.163 C44.469,51.307 44.64,51.46 44.775,51.532 C44.667,52.441 44.433,52.774 43.956,52.684 C42.417,52.513 42.102,50.866 41.994,48.895 L40.617,48.895 L40.617,52.603 L39.96,52.603 L39.96,48.895 L38.484,48.895 C38.439,50.191 38.16,51.595 36.918,52.693 C36.819,52.558 36.585,52.351 36.423,52.252 C37.539,51.262 37.791,50.029 37.845,48.895 L36.558,48.895 L36.558,48.283 L37.854,48.283 L37.854,47.104 C37.512,47.275 37.161,47.428 36.828,47.545 C36.756,47.419 36.558,47.149 36.432,47.023 C37.296,46.771 38.277,46.348 38.826,45.871 L39.402,46.087 C39.15,46.321 38.835,46.546 38.493,46.753 L38.493,48.283 L39.96,48.283 L39.96,45.826 L40.617,45.826 L40.617,48.283 L42.588,48.283 C42.597,48.859 42.633,49.417 42.705,49.921 L42.876,49.75 C43.452,50.011 44.208,50.434 44.595,50.749 Z M52.929,46.24 L52.461,46.42 C52.29,46.015 52.056,45.475 51.858,45.133 L52.308,44.98 C52.488,45.313 52.776,45.871 52.929,46.24 Z M50.805,45.718 L51.498,45.502 C51.723,46.582 52.254,48.04 53.397,49.183 L52.866,49.741 C52.461,49.246 52.101,48.706 51.768,48.076 C51.957,50.326 51.021,52.549 48.708,52.549 C47.277,52.549 46.395,51.622 46.395,50.191 C46.395,48.661 47.268,47.23 47.997,46.474 C47.547,46.546 46.881,46.654 46.53,46.726 C46.377,46.753 46.215,46.789 46.035,46.825 L45.927,46.069 C46.062,46.069 46.242,46.06 46.404,46.042 C47.178,45.979 48.744,45.727 49.266,45.529 L49.482,46.177 C49.365,46.222 49.14,46.276 49.014,46.339 C48.447,46.762 47.097,48.445 47.097,50.092 C47.097,51.316 47.871,51.802 48.735,51.802 C50.589,51.802 51.642,49.651 51.021,46.366 C50.949,46.159 50.877,45.943 50.805,45.718 Z M52.785,44.8 L53.226,44.629 C53.424,44.962 53.694,45.511 53.865,45.889 L53.397,46.06 C53.226,45.655 52.992,45.133 52.785,44.8 Z M56.142,46.123 L56.142,47.185 L57.303,47.185 L57.303,46.123 L56.142,46.123 Z M58.851,47.185 L58.851,47.761 L54.486,47.761 L54.486,47.185 L55.53,47.185 L55.53,46.123 L54.63,46.123 L54.63,45.556 L55.53,45.556 L55.53,44.548 L56.142,44.548 L56.142,45.556 L57.303,45.556 L57.303,44.548 L57.924,44.548 L57.924,45.556 L58.833,45.556 L58.833,46.123 L57.924,46.123 L57.924,47.185 L58.851,47.185 Z M55.746,50.659 L57.708,50.659 L57.708,50.029 L55.746,50.029 L55.746,50.659 Z M57.708,48.886 L55.746,48.886 L55.746,49.516 L57.708,49.516 L57.708,48.886 Z M58.329,48.355 L58.329,51.991 C58.329,52.315 58.266,52.477 58.041,52.576 C57.825,52.675 57.465,52.675 56.916,52.675 C56.898,52.513 56.808,52.279 56.727,52.117 C57.123,52.135 57.465,52.126 57.564,52.126 C57.672,52.117 57.708,52.081 57.708,51.982 L57.708,51.181 L55.746,51.181 L55.746,52.693 L55.125,52.693 L55.125,48.355 L58.329,48.355 Z M59.913,46.762 L59.895,46.825 C60.075,47.851 60.327,48.823 60.705,49.66 C61.065,48.841 61.299,47.878 61.452,46.762 L59.913,46.762 Z M62.703,46.762 L62.1,46.762 C61.902,48.202 61.578,49.399 61.056,50.371 C61.497,51.136 62.064,51.748 62.775,52.126 C62.613,52.261 62.406,52.513 62.298,52.702 C61.632,52.297 61.101,51.712 60.678,50.992 C60.192,51.685 59.562,52.252 58.761,52.711 C58.698,52.558 58.5,52.27 58.365,52.135 C59.229,51.694 59.868,51.1 60.327,50.344 C59.994,49.615 59.742,48.76 59.535,47.851 C59.373,48.256 59.175,48.634 58.959,48.967 C58.869,48.823 58.635,48.544 58.5,48.418 C59.139,47.464 59.526,45.979 59.751,44.467 L60.399,44.566 C60.309,45.097 60.21,45.628 60.084,46.132 L62.703,46.132 L62.703,46.762 Z M65.934,45.655 L66.123,44.971 C66.888,45.214 68.778,45.583 69.57,45.655 L69.399,46.357 C68.553,46.24 66.618,45.844 65.934,45.655 Z M65.925,46.591 C65.808,47.203 65.655,48.499 65.574,49.075 C66.429,48.328 67.392,48.004 68.454,48.004 C69.822,48.004 70.731,48.823 70.731,49.867 C70.731,51.469 69.318,52.549 66.006,52.27 L65.79,51.532 C68.598,51.874 69.975,51.064 69.975,49.849 C69.975,49.138 69.318,48.643 68.409,48.643 C67.221,48.643 66.285,49.075 65.655,49.822 C65.529,49.975 65.448,50.128 65.385,50.272 L64.71,50.11 C64.89,49.3 65.106,47.428 65.16,46.492 L65.925,46.591 Z M77.787,45.088 L78.552,45.088 C78.534,45.232 78.516,45.538 78.507,45.727 C78.507,46.132 78.498,46.573 78.498,46.969 C78.849,46.942 79.182,46.915 79.47,46.897 C79.704,46.888 79.956,46.87 80.172,46.852 L80.172,47.572 C80.028,47.563 79.695,47.572 79.47,47.572 C79.209,47.581 78.867,47.59 78.48,47.617 C78.462,48.274 78.426,49.075 78.345,49.489 C78.264,49.885 78.066,50.002 77.661,50.002 C77.337,50.002 76.725,49.912 76.482,49.876 L76.5,49.237 C76.806,49.3 77.184,49.354 77.391,49.354 C77.607,49.354 77.697,49.318 77.724,49.12 C77.769,48.823 77.805,48.229 77.823,47.671 C76.905,47.743 75.861,47.842 74.979,47.932 C74.97,48.85 74.961,49.777 74.979,50.119 C75.006,51.082 75.015,51.406 76.563,51.406 C77.526,51.406 78.633,51.307 79.209,51.208 L79.182,51.964 C78.588,52.027 77.499,52.117 76.599,52.117 C74.538,52.117 74.34,51.64 74.295,50.218 C74.286,49.831 74.286,48.895 74.286,48.004 L73.341,48.103 C73.062,48.139 72.675,48.193 72.432,48.229 L72.36,47.491 C72.63,47.491 72.963,47.473 73.287,47.446 C73.512,47.428 73.863,47.392 74.286,47.356 L74.295,46.114 C74.295,45.844 74.277,45.637 74.241,45.367 L75.024,45.367 C75.006,45.565 74.997,45.808 74.997,46.087 L74.988,47.284 C75.852,47.203 76.887,47.104 77.832,47.023 L77.832,45.754 C77.832,45.556 77.814,45.241 77.787,45.088 Z M85.419,50.956 C85.419,50.803 85.41,50.596 85.41,50.353 C85.131,50.299 84.843,50.272 84.546,50.272 C83.7,50.272 83.241,50.596 83.241,51.001 C83.241,51.415 83.592,51.721 84.474,51.721 C84.987,51.721 85.419,51.568 85.419,50.956 Z M88.668,51.262 L88.263,51.892 C87.741,51.415 87.003,50.875 86.112,50.551 C86.121,50.776 86.13,50.974 86.13,51.109 C86.13,51.721 85.716,52.36 84.555,52.36 C83.277,52.36 82.566,51.901 82.566,51.037 C82.566,50.227 83.349,49.678 84.636,49.678 C84.897,49.678 85.14,49.696 85.383,49.732 C85.365,49.336 85.347,48.913 85.338,48.544 L84.843,48.544 C84.231,48.544 83.241,48.49 82.602,48.418 L82.602,47.734 C83.205,47.842 84.258,47.905 84.843,47.905 L85.32,47.905 L85.32,46.627 L84.879,46.627 C84.258,46.627 83.313,46.555 82.782,46.492 L82.782,45.826 C83.322,45.925 84.276,45.997 84.87,45.997 L85.329,45.997 L85.329,45.412 C85.329,45.268 85.32,45.007 85.302,44.881 L86.067,44.881 C86.04,45.043 86.031,45.214 86.022,45.475 C86.013,45.583 86.013,45.754 86.013,45.97 C86.787,45.943 87.516,45.871 88.299,45.754 L88.308,46.411 C87.606,46.483 86.841,46.555 86.004,46.6 L86.004,47.878 C86.859,47.842 87.678,47.761 88.479,47.644 L88.488,48.319 C87.651,48.427 86.859,48.49 86.013,48.526 C86.031,48.985 86.058,49.453 86.076,49.876 C87.255,50.2 88.164,50.857 88.668,51.262 Z M94.23,49.894 C94.752,49.894 95.094,49.471 95.013,48.625 C94.869,48.238 94.572,48.076 94.221,48.076 C93.762,48.076 93.321,48.436 93.321,49.012 C93.321,49.57 93.735,49.894 94.23,49.894 Z M95.607,46.672 L95.49,46.672 C95.49,47.176 95.499,47.725 95.508,48.13 C95.697,48.436 95.796,48.832 95.796,49.273 C95.796,50.479 95.211,51.82 93.141,52.441 L92.52,51.838 C93.69,51.568 94.518,51.082 94.887,50.29 C94.671,50.443 94.419,50.515 94.122,50.515 C93.366,50.515 92.646,49.984 92.646,49.021 C92.646,48.139 93.375,47.464 94.221,47.464 C94.437,47.464 94.635,47.5 94.815,47.563 C94.815,47.302 94.815,46.987 94.806,46.681 C93.456,46.69 91.944,46.753 90.828,46.834 L90.81,46.132 C91.8,46.114 93.474,46.06 94.797,46.042 C94.797,45.79 94.788,45.583 94.779,45.457 C94.77,45.268 94.743,45.007 94.725,44.899 L95.544,44.899 L95.499,45.457 C95.499,45.592 95.49,45.799 95.49,46.033 L95.625,46.033 C96.705,46.033 97.803,46.042 98.235,46.042 L98.226,46.717 C97.722,46.69 96.912,46.672 95.607,46.672 Z" id="シェイクするたびにインクを飛び散らせます"></path>
                        <path d="M18.628,12.971 C18.628,13.379002 18.7016659,13.7246652 18.849,14.008 C18.9963341,14.2913347 19.1918321,14.5208325 19.4355,14.6965 C19.6791679,14.8721675 19.9653317,15.0024996 20.294,15.0875 C20.6226683,15.1725004 20.9626649,15.215 21.314,15.215 C21.5520012,15.215 21.8069986,15.1951669 22.079,15.1555 C22.3510014,15.1158331 22.6059988,15.0393339 22.844,14.926 C23.0820012,14.8126661 23.2803325,14.6568343 23.439,14.4585 C23.5976675,14.2601657 23.677,14.0080015 23.677,13.702 C23.677,13.3733317 23.5721677,13.107001 23.3625,12.903 C23.1528323,12.698999 22.8780017,12.5290007 22.538,12.393 C22.1979983,12.2569993 21.8126688,12.1380005 21.382,12.036 C20.9513312,11.9339995 20.5150022,11.8206673 20.073,11.696 C19.6196644,11.5826661 19.1776688,11.4438342 18.747,11.2795 C18.3163312,11.1151658 17.9310017,10.902668 17.591,10.642 C17.2509983,10.381332 16.9761677,10.055502 16.7665,9.6645 C16.5568323,9.27349805 16.452,8.80033611 16.452,8.245 C16.452,7.62166355 16.5851653,7.08050229 16.8515,6.6215 C17.1178347,6.1624977 17.4663312,5.78000153 17.897,5.474 C18.3276688,5.16799847 18.8149973,4.94133407 19.359,4.794 C19.9030027,4.64666593 20.4469973,4.573 20.991,4.573 C21.6256698,4.573 22.2348304,4.64383262 22.8185,4.7855 C23.4021696,4.92716737 23.9206644,5.15666508 24.374,5.474 C24.8273356,5.79133492 25.1871653,6.19649753 25.4535,6.6895 C25.7198347,7.18250246 25.853,7.78032982 25.853,8.483 L23.269,8.483 C23.2463332,8.12033152 23.169834,7.82000119 23.0395,7.582 C22.909166,7.34399881 22.7363344,7.15700068 22.521,7.021 C22.3056656,6.88499932 22.0591681,6.78866695 21.7815,6.732 C21.5038319,6.67533305 21.2006683,6.647 20.872,6.647 C20.6566656,6.647 20.4413344,6.66966644 20.226,6.715 C20.0106656,6.76033356 19.8151675,6.8396661 19.6395,6.953 C19.4638325,7.0663339 19.3193339,7.20799915 19.206,7.378 C19.0926661,7.54800085 19.036,7.76333203 19.036,8.024 C19.036,8.26200119 19.0813329,8.45466593 19.172,8.602 C19.2626671,8.74933407 19.4411653,8.88533271 19.7075,9.01 C19.9738347,9.13466729 20.3421643,9.25933271 20.8125,9.384 C21.2828357,9.50866729 21.8976629,9.66733237 22.657,9.86 C22.8836678,9.90533356 23.1981647,9.9874994 23.6005,10.1065 C24.0028353,10.2255006 24.4023313,10.415332 24.799,10.676 C25.1956686,10.936668 25.5384986,11.2851645 25.8275,11.7215 C26.1165014,12.1578355 26.261,12.7159966 26.261,13.396 C26.261,13.9513361 26.1533344,14.4669976 25.938,14.943 C25.7226656,15.4190024 25.4025021,15.8298316 24.9775,16.1755 C24.5524979,16.5211684 24.0255031,16.7903324 23.3965,16.983 C22.7674969,17.1756676 22.0393375,17.272 21.212,17.272 C20.54333,17.272 19.8945031,17.1898342 19.2655,17.0255 C18.6364969,16.8611658 18.0811691,16.6033351 17.5995,16.252 C17.1178309,15.9006649 16.7353347,15.4530027 16.452,14.909 C16.1686652,14.3649973 16.0326666,13.7190037 16.044,12.971 L18.628,12.971 Z M30.511,10.574 L32.585,10.574 C32.8910015,10.574 33.1856652,10.5513336 33.469,10.506 C33.7523348,10.4606664 34.0016656,10.372834 34.217,10.2425 C34.4323344,10.112166 34.605166,9.92800119 34.7355,9.69 C34.865834,9.45199881 34.931,9.14033526 34.931,8.755 C34.931,8.36966474 34.865834,8.05800119 34.7355,7.82 C34.605166,7.58199881 34.4323344,7.39783399 34.217,7.2675 C34.0016656,7.13716602 33.7523348,7.04933356 33.469,7.004 C33.1856652,6.95866644 32.8910015,6.936 32.585,6.936 L30.511,6.936 L30.511,10.574 Z M27.842,4.862 L33.316,4.862 C34.0753371,4.862 34.7213307,4.97249889 35.254,5.1935 C35.7866693,5.4145011 36.220165,5.70633152 36.5545,6.069 C36.888835,6.43166848 37.1324992,6.84533101 37.2855,7.31 C37.4385008,7.77466899 37.515,8.25633084 37.515,8.755 C37.515,9.24233577 37.4385008,9.72116431 37.2855,10.1915 C37.1324992,10.6618357 36.888835,11.0783315 36.5545,11.441 C36.220165,11.8036685 35.7866693,12.0954989 35.254,12.3165 C34.7213307,12.5375011 34.0753371,12.648 33.316,12.648 L30.511,12.648 L30.511,17 L27.842,17 L27.842,4.862 Z M39.181,4.862 L41.85,4.862 L41.85,14.756 L47.766,14.756 L47.766,17 L39.181,17 L39.181,4.862 Z M52.322,12.308 L55.467,12.308 L53.937,7.854 L53.903,7.854 L52.322,12.308 Z M52.577,4.862 L55.314,4.862 L59.853,17 L57.082,17 L56.164,14.297 L51.625,14.297 L50.673,17 L47.987,17 L52.577,4.862 Z M62.726,12.971 C62.726,13.379002 62.7996659,13.7246652 62.947,14.008 C63.0943341,14.2913347 63.2898321,14.5208325 63.5335,14.6965 C63.7771679,14.8721675 64.0633317,15.0024996 64.392,15.0875 C64.7206683,15.1725004 65.0606649,15.215 65.412,15.215 C65.6500012,15.215 65.9049986,15.1951669 66.177,15.1555 C66.4490014,15.1158331 66.7039988,15.0393339 66.942,14.926 C67.1800012,14.8126661 67.3783325,14.6568343 67.537,14.4585 C67.6956675,14.2601657 67.775,14.0080015 67.775,13.702 C67.775,13.3733317 67.6701677,13.107001 67.4605,12.903 C67.2508323,12.698999 66.9760017,12.5290007 66.636,12.393 C66.2959983,12.2569993 65.9106688,12.1380005 65.48,12.036 C65.0493312,11.9339995 64.6130022,11.8206673 64.171,11.696 C63.7176644,11.5826661 63.2756688,11.4438342 62.845,11.2795 C62.4143312,11.1151658 62.0290017,10.902668 61.689,10.642 C61.3489983,10.381332 61.0741677,10.055502 60.8645,9.6645 C60.6548323,9.27349805 60.55,8.80033611 60.55,8.245 C60.55,7.62166355 60.6831653,7.08050229 60.9495,6.6215 C61.2158347,6.1624977 61.5643312,5.78000153 61.995,5.474 C62.4256688,5.16799847 62.9129973,4.94133407 63.457,4.794 C64.0010027,4.64666593 64.5449973,4.573 65.089,4.573 C65.7236698,4.573 66.3328304,4.64383262 66.9165,4.7855 C67.5001696,4.92716737 68.0186644,5.15666508 68.472,5.474 C68.9253356,5.79133492 69.2851653,6.19649753 69.5515,6.6895 C69.8178347,7.18250246 69.951,7.78032982 69.951,8.483 L67.367,8.483 C67.3443332,8.12033152 67.267834,7.82000119 67.1375,7.582 C67.007166,7.34399881 66.8343344,7.15700068 66.619,7.021 C66.4036656,6.88499932 66.1571681,6.78866695 65.8795,6.732 C65.6018319,6.67533305 65.2986683,6.647 64.97,6.647 C64.7546656,6.647 64.5393344,6.66966644 64.324,6.715 C64.1086656,6.76033356 63.9131675,6.8396661 63.7375,6.953 C63.5618325,7.0663339 63.4173339,7.20799915 63.304,7.378 C63.1906661,7.54800085 63.134,7.76333203 63.134,8.024 C63.134,8.26200119 63.1793329,8.45466593 63.27,8.602 C63.3606671,8.74933407 63.5391653,8.88533271 63.8055,9.01 C64.0718347,9.13466729 64.4401643,9.25933271 64.9105,9.384 C65.3808357,9.50866729 65.9956629,9.66733237 66.755,9.86 C66.9816678,9.90533356 67.2961647,9.9874994 67.6985,10.1065 C68.1008353,10.2255006 68.5003314,10.415332 68.897,10.676 C69.2936687,10.936668 69.6364986,11.2851645 69.9255,11.7215 C70.2145014,12.1578355 70.359,12.7159966 70.359,13.396 C70.359,13.9513361 70.2513344,14.4669976 70.036,14.943 C69.8206656,15.4190024 69.5005021,15.8298316 69.0755,16.1755 C68.6504979,16.5211684 68.1235031,16.7903324 67.4945,16.983 C66.8654969,17.1756676 66.1373375,17.272 65.31,17.272 C64.64133,17.272 63.9925031,17.1898342 63.3635,17.0255 C62.7344969,16.8611658 62.1791691,16.6033351 61.6975,16.252 C61.2158309,15.9006649 60.8333348,15.4530027 60.55,14.909 C60.2666653,14.3649973 60.1306666,13.7190037 60.142,12.971 L62.726,12.971 Z M71.94,4.862 L74.609,4.862 L74.609,9.52 L79.522,9.52 L79.522,4.862 L82.191,4.862 L82.191,17 L79.522,17 L79.522,11.764 L74.609,11.764 L74.609,17 L71.94,17 L71.94,4.862 Z" id="SPLASH"></path>
                    </g>
                </g>
            </g>
        </g>
    </g>
</svg>