<?xml version="1.0" encoding="UTF-8"?>
<svg width="170px" height="55px" viewBox="0 0 170 55" version="1.1" xmlns="http://www.w3.org/2000/svg" xmlns:xlink="http://www.w3.org/1999/xlink">
    <!-- Generator: Sketch 55.2 (78181) - https://sketchapp.com -->
    <title>Text_Text_Pressed</title>
    <desc>Created with Sketch.</desc>
    <g id="Make" stroke="none" stroke-width="1" fill="none" fill-rule="evenodd">
        <g id="C-01&gt;Make-Graphic&gt;JP复制备份" transform="translate(-193.000000, -258.000000)">
            <g id="Content" transform="translate(12.000000, 64.000000)">
                <g id="02_TEXT" transform="translate(181.000000, 0.000000)">
                    <g id="Text_Text_Normal" transform="translate(0.000000, 170.000000)">
                        <g id="Text_Text_Pressed" transform="translate(0.000000, 24.000000)">
                            <g>
                                <rect id="矩形" fill-opacity="0.01" fill="#FFFFFF" x="0" y="0" width="170" height="55"></rect>
                                <path d="M20.686,33.933 L19.498,33.933 C19.318,34.734 19.129,35.535 18.949,36.246 C19.291,36.444 19.651,36.669 19.993,36.912 C20.335,36.102 20.569,35.112 20.686,33.933 Z M20.965,33.294 L21.361,33.384 C21.244,35.013 20.965,36.3 20.524,37.308 C20.947,37.632 21.307,37.965 21.55,38.262 L21.145,38.793 C20.929,38.523 20.605,38.208 20.227,37.893 C19.777,38.694 19.201,39.279 18.499,39.702 C18.409,39.54 18.229,39.297 18.085,39.162 C18.742,38.82 19.291,38.262 19.714,37.488 C19.417,37.263 19.102,37.047 18.787,36.849 L18.688,37.227 L18.13,36.939 C18.346,36.165 18.616,35.058 18.868,33.933 L18.013,33.933 L18.013,33.321 L18.994,33.321 C19.138,32.673 19.264,32.034 19.363,31.476 L20.002,31.548 C19.894,32.097 19.768,32.7 19.633,33.321 L20.848,33.321 L20.965,33.294 Z M26.23,35.076 L26.23,35.697 L24.088,35.697 L24.088,38.838 C24.088,39.243 23.998,39.441 23.71,39.549 C23.431,39.648 22.963,39.666 22.252,39.666 C22.216,39.486 22.099,39.189 22,39.018 C22.567,39.036 23.071,39.036 23.224,39.027 C23.377,39.018 23.422,38.973 23.422,38.838 L23.422,35.697 L21.316,35.697 L21.316,35.076 L23.422,35.076 L23.422,33.879 L23.692,33.879 C24.142,33.519 24.619,33.006 24.979,32.547 L21.613,32.547 L21.613,31.935 L25.465,31.935 L25.6,31.89 L26.041,32.214 C25.537,32.934 24.772,33.744 24.088,34.275 L24.088,35.076 L26.23,35.076 Z M28.489,36.588 L29.182,36.651 C29.074,36.93 28.975,37.326 28.975,37.56 C28.975,38.244 29.515,38.676 30.784,38.676 C31.504,38.676 32.35,38.613 32.98,38.469 L32.962,39.198 C32.404,39.297 31.54,39.369 30.811,39.369 C29.218,39.369 28.282,38.82 28.282,37.704 C28.282,37.326 28.39,36.912 28.489,36.588 Z M34.168,34.149 L34.303,34.797 C33.907,34.932 33.394,35.058 32.791,35.175 C33.052,35.742 33.34,36.345 33.592,36.813 L33.241,37.254 C32.791,37.173 32.071,37.074 31.504,37.002 L31.567,36.453 C31.999,36.507 32.422,36.552 32.701,36.579 C32.53,36.228 32.323,35.76 32.116,35.292 C30.964,35.445 29.506,35.463 28.129,35.373 L28.102,34.716 C29.461,34.842 30.784,34.833 31.846,34.698 L31.531,33.969 C31.459,33.816 31.396,33.654 31.333,33.51 C30.433,33.591 29.308,33.591 28.201,33.492 L28.156,32.835 C29.218,32.952 30.217,32.97 31.072,32.907 C31.027,32.808 30.991,32.718 30.955,32.637 C30.82,32.358 30.739,32.196 30.622,32.007 L31.432,31.836 C31.513,32.142 31.63,32.484 31.765,32.826 C32.386,32.727 33.016,32.592 33.538,32.403 L33.664,33.042 C33.205,33.186 32.62,33.321 32.008,33.42 L32.17,33.789 C32.242,33.978 32.368,34.257 32.521,34.59 C33.223,34.464 33.763,34.302 34.168,34.149 Z M43.942,34.284 L43.537,34.878 C43.06,34.473 42.097,33.924 41.503,33.654 L41.854,33.096 C42.502,33.384 43.519,33.96 43.942,34.284 Z M40.702,32.934 L40.72,33.6 C40.252,33.735 39.694,33.852 39.109,33.924 C38.668,35.184 37.876,36.732 37.165,37.695 L36.463,37.335 C37.21,36.471 37.966,35.049 38.371,34.005 C38.11,34.023 37.849,34.032 37.588,34.032 C37.255,34.032 36.886,34.023 36.553,34.005 L36.499,33.33 C36.832,33.375 37.21,33.393 37.597,33.393 C37.912,33.393 38.245,33.375 38.587,33.348 C38.722,32.853 38.848,32.286 38.866,31.809 L39.667,31.881 C39.577,32.205 39.46,32.745 39.316,33.258 C39.784,33.186 40.252,33.078 40.702,32.934 Z M41.17,37.911 C41.17,37.794 41.17,37.65 41.161,37.488 C40.882,37.407 40.576,37.362 40.261,37.362 C39.604,37.362 39.172,37.659 39.172,38.064 C39.172,38.478 39.505,38.757 40.198,38.757 C40.927,38.757 41.17,38.352 41.17,37.911 Z M41.044,34.635 L41.764,34.635 C41.737,35.004 41.746,35.265 41.755,35.598 C41.764,35.922 41.8,36.507 41.818,37.047 C42.583,37.326 43.204,37.767 43.663,38.163 L43.276,38.775 C42.898,38.433 42.421,38.037 41.845,37.758 C41.854,37.893 41.854,38.019 41.854,38.118 C41.854,38.829 41.386,39.414 40.288,39.414 C39.307,39.414 38.506,39.009 38.506,38.127 C38.506,37.308 39.28,36.777 40.288,36.777 C40.585,36.777 40.873,36.804 41.134,36.858 C41.107,36.129 41.062,35.256 41.044,34.635 Z M51.043,32.16 L51.889,32.448 C51.799,32.619 51.664,32.916 51.592,33.105 C51.304,33.897 50.845,34.887 50.242,35.76 C51.043,36.426 51.817,37.128 52.456,37.812 L51.889,38.442 C51.223,37.677 50.539,37.038 49.765,36.372 C48.928,37.398 47.812,38.469 46.246,39.279 L45.607,38.712 C47.182,37.965 48.298,36.975 49.18,35.886 C48.514,35.337 47.515,34.599 46.651,34.068 L47.128,33.501 C47.893,33.987 48.937,34.725 49.648,35.274 C50.224,34.437 50.593,33.591 50.863,32.826 C50.926,32.646 51.007,32.358 51.043,32.16 Z M57.937,33.816 C58.09,34.176 58.531,35.364 58.648,35.76 L57.982,35.994 C57.883,35.589 57.469,34.446 57.28,34.041 L57.937,33.816 Z M60.421,34.077 L61.195,34.32 C61.132,34.509 61.096,34.653 61.06,34.77 C60.817,35.76 60.43,36.723 59.782,37.533 C58.954,38.586 57.856,39.288 56.848,39.675 L56.254,39.063 C57.298,38.766 58.441,38.082 59.179,37.155 C59.818,36.372 60.286,35.229 60.421,34.077 Z M55.849,34.266 C56.029,34.653 56.497,35.832 56.668,36.3 L55.984,36.552 C55.849,36.084 55.363,34.842 55.183,34.527 L55.849,34.266 Z M68.503,36.804 L67.873,36.426 C68.548,35.814 69.205,34.824 69.475,34.284 C69.322,34.32 67.666,34.653 66.073,34.977 L66.073,37.65 C66.073,38.271 66.298,38.469 67.378,38.469 C68.422,38.469 69.286,38.379 70.186,38.208 L70.15,38.982 C69.349,39.09 68.449,39.162 67.324,39.162 C65.65,39.162 65.344,38.73 65.344,37.839 L65.344,35.121 C64.435,35.301 63.634,35.472 63.274,35.553 L63.13,34.797 C63.535,34.743 64.39,34.59 65.344,34.41 L65.344,32.871 C65.344,32.601 65.326,32.304 65.281,32.043 L66.136,32.043 C66.091,32.304 66.073,32.61 66.073,32.871 L66.073,34.275 C67.603,33.978 69.178,33.654 69.556,33.573 C69.754,33.528 69.925,33.474 70.033,33.411 L70.564,33.825 C70.501,33.915 70.402,34.068 70.339,34.185 C69.925,34.932 69.223,36.057 68.503,36.804 Z M72.508,35.985 L72.508,35.103 C72.778,35.121 73.255,35.148 73.759,35.148 L78.691,35.148 C79.141,35.148 79.465,35.121 79.663,35.103 L79.663,35.985 C79.483,35.976 79.105,35.94 78.7,35.94 L73.759,35.94 C73.264,35.94 72.787,35.958 72.508,35.985 Z M86.854,32.286 C87.079,32.61 87.484,33.258 87.691,33.681 L87.178,33.915 C86.953,33.438 86.656,32.907 86.359,32.502 L86.854,32.286 Z M88.033,31.854 C88.276,32.169 88.672,32.817 88.897,33.231 L88.384,33.465 C88.141,32.988 87.826,32.475 87.529,32.07 L88.033,31.854 Z M83.011,32.151 C83.542,32.448 84.577,33.141 84.964,33.42 L84.541,34.041 C84.109,33.708 83.128,33.06 82.606,32.754 L83.011,32.151 Z M81.661,38.586 C82.651,38.415 83.767,38.055 84.676,37.542 C86.17,36.687 87.358,35.508 88.087,34.239 L88.519,34.986 C87.736,36.192 86.494,37.353 85.054,38.199 C84.154,38.73 82.912,39.144 82.075,39.315 L81.661,38.586 Z M81.652,34.176 C82.183,34.464 83.236,35.112 83.632,35.391 L83.218,36.021 C82.768,35.697 81.796,35.067 81.247,34.788 L81.652,34.176 Z M94.738,37.785 L94.045,37.785 C94.072,37.443 94.081,36.867 94.081,36.399 C93.253,36.849 92.677,37.308 92.677,37.893 C92.677,38.595 93.37,38.694 94.288,38.694 C94.981,38.694 95.935,38.613 96.718,38.478 L96.7,39.207 C96.025,39.288 95.035,39.351 94.261,39.351 C92.983,39.351 91.957,39.081 91.957,37.992 C91.957,36.939 93.019,36.273 94.054,35.733 C93.964,35.364 93.64,35.184 93.253,35.184 C92.668,35.184 92.128,35.472 91.714,35.841 C91.462,36.084 91.21,36.417 90.904,36.777 L90.292,36.318 C91.426,35.22 92.011,34.302 92.344,33.6 L91.975,33.6 C91.597,33.6 90.994,33.582 90.508,33.546 L90.508,32.871 C90.985,32.925 91.606,32.961 92.011,32.961 C92.2,32.961 92.389,32.961 92.596,32.952 C92.722,32.556 92.803,32.151 92.821,31.845 L93.559,31.908 C93.496,32.16 93.415,32.529 93.289,32.934 C94.198,32.889 95.17,32.808 96.016,32.664 L96.007,33.33 C95.125,33.465 94.027,33.546 93.055,33.582 C92.857,34.041 92.578,34.536 92.254,34.95 C92.578,34.743 93.091,34.617 93.487,34.617 C94.063,34.617 94.531,34.896 94.666,35.427 C95.278,35.139 95.818,34.923 96.286,34.707 C96.556,34.59 96.772,34.482 97.024,34.356 L97.312,35.031 C97.087,35.094 96.763,35.22 96.529,35.31 C96.025,35.508 95.386,35.769 94.711,36.084 C94.72,36.597 94.729,37.353 94.738,37.785 Z M105.673,32.871 L106.258,33.231 C106.186,33.357 106.105,33.573 106.051,33.717 C105.826,34.509 105.367,35.508 104.737,36.39 C105.079,36.606 105.385,36.813 105.61,36.975 L105.115,37.623 C104.899,37.452 104.602,37.236 104.26,37.002 C103.45,37.929 102.316,38.811 100.732,39.396 L100.084,38.838 C101.65,38.361 102.82,37.497 103.639,36.597 C102.928,36.138 102.172,35.688 101.668,35.409 L102.127,34.878 C102.649,35.148 103.405,35.58 104.107,36.003 C104.656,35.238 105.097,34.311 105.268,33.6 L102.208,33.6 C101.632,34.401 100.831,35.283 99.823,35.967 L99.22,35.499 C100.768,34.545 101.704,33.195 102.109,32.376 C102.199,32.214 102.334,31.89 102.397,31.656 L103.207,31.917 C103.063,32.151 102.901,32.457 102.811,32.628 C102.757,32.736 102.694,32.844 102.622,32.961 L105.079,32.961 C105.322,32.961 105.52,32.934 105.673,32.871 Z M114.565,31.971 L115.159,32.511 C114.538,33.141 113.674,33.879 112.747,34.464 L112.747,38.316 C112.747,38.658 112.765,39.099 112.801,39.279 L111.919,39.279 C111.946,39.108 111.973,38.658 111.973,38.316 L111.973,34.914 C111.01,35.445 109.768,35.967 108.589,36.318 L108.175,35.616 C109.678,35.265 111.208,34.581 112.198,33.96 C113.116,33.393 114.061,32.61 114.565,31.971 Z M124.249,33.132 C124.573,33.132 124.843,32.862 124.843,32.538 C124.843,32.214 124.573,31.935 124.249,31.935 C123.916,31.935 123.655,32.214 123.655,32.538 C123.655,32.862 123.916,33.132 124.249,33.132 Z M118.48,32.835 L122.989,32.835 C123.079,32.835 123.178,32.835 123.286,32.826 C123.259,32.736 123.241,32.637 123.241,32.538 C123.241,31.98 123.691,31.521 124.249,31.521 C124.807,31.521 125.257,31.98 125.257,32.538 C125.257,33.096 124.807,33.546 124.249,33.546 C124.132,33.546 124.015,33.528 123.907,33.492 L123.889,33.591 C123.691,34.536 123.259,35.985 122.548,36.912 C121.72,37.965 120.649,38.802 119.002,39.315 L118.39,38.64 C120.136,38.208 121.144,37.443 121.9,36.48 C122.539,35.661 122.953,34.41 123.079,33.546 L118.471,33.546 C118.12,33.546 117.805,33.564 117.58,33.573 L117.58,32.781 C117.823,32.808 118.183,32.835 118.48,32.835 Z M127.579,32.007 L128.488,32.016 C128.443,32.304 128.416,32.619 128.398,32.907 C128.362,33.915 128.29,36.021 128.29,37.353 C128.29,38.334 128.92,38.676 129.748,38.676 C131.386,38.676 132.313,37.758 132.952,36.831 L133.447,37.452 C132.844,38.298 131.692,39.414 129.73,39.414 C128.452,39.414 127.57,38.874 127.57,37.425 C127.57,36.102 127.66,33.852 127.66,32.907 C127.66,32.583 127.633,32.268 127.579,32.007 Z M138.919,37.956 C138.919,37.803 138.91,37.596 138.91,37.353 C138.631,37.299 138.343,37.272 138.046,37.272 C137.2,37.272 136.741,37.596 136.741,38.001 C136.741,38.415 137.092,38.721 137.974,38.721 C138.487,38.721 138.919,38.568 138.919,37.956 Z M142.168,38.262 L141.763,38.892 C141.241,38.415 140.503,37.875 139.612,37.551 C139.621,37.776 139.63,37.974 139.63,38.109 C139.63,38.721 139.216,39.36 138.055,39.36 C136.777,39.36 136.066,38.901 136.066,38.037 C136.066,37.227 136.849,36.678 138.136,36.678 C138.397,36.678 138.64,36.696 138.883,36.732 C138.865,36.336 138.847,35.913 138.838,35.544 L138.343,35.544 C137.731,35.544 136.741,35.49 136.102,35.418 L136.102,34.734 C136.705,34.842 137.758,34.905 138.343,34.905 L138.82,34.905 L138.82,33.627 L138.379,33.627 C137.758,33.627 136.813,33.555 136.282,33.492 L136.282,32.826 C136.822,32.925 137.776,32.997 138.37,32.997 L138.829,32.997 L138.829,32.412 C138.829,32.268 138.82,32.007 138.802,31.881 L139.567,31.881 C139.54,32.043 139.531,32.214 139.522,32.475 C139.513,32.583 139.513,32.754 139.513,32.97 C140.287,32.943 141.016,32.871 141.799,32.754 L141.808,33.411 C141.106,33.483 140.341,33.555 139.504,33.6 L139.504,34.878 C140.359,34.842 141.178,34.761 141.979,34.644 L141.988,35.319 C141.151,35.427 140.359,35.49 139.513,35.526 C139.531,35.985 139.558,36.453 139.576,36.876 C140.755,37.2 141.664,37.857 142.168,38.262 Z M147.73,36.894 C148.252,36.894 148.594,36.471 148.513,35.625 C148.369,35.238 148.072,35.076 147.721,35.076 C147.262,35.076 146.821,35.436 146.821,36.012 C146.821,36.57 147.235,36.894 147.73,36.894 Z M149.107,33.672 L148.99,33.672 C148.99,34.176 148.999,34.725 149.008,35.13 C149.197,35.436 149.296,35.832 149.296,36.273 C149.296,37.479 148.711,38.82 146.641,39.441 L146.02,38.838 C147.19,38.568 148.018,38.082 148.387,37.29 C148.171,37.443 147.919,37.515 147.622,37.515 C146.866,37.515 146.146,36.984 146.146,36.021 C146.146,35.139 146.875,34.464 147.721,34.464 C147.937,34.464 148.135,34.5 148.315,34.563 C148.315,34.302 148.315,33.987 148.306,33.681 C146.956,33.69 145.444,33.753 144.328,33.834 L144.31,33.132 C145.3,33.114 146.974,33.06 148.297,33.042 C148.297,32.79 148.288,32.583 148.279,32.457 C148.27,32.268 148.243,32.007 148.225,31.899 L149.044,31.899 L148.999,32.457 C148.999,32.592 148.99,32.799 148.99,33.033 L149.125,33.033 C150.205,33.033 151.303,33.042 151.735,33.042 L151.726,33.717 C151.222,33.69 150.412,33.672 149.107,33.672 Z" id="好きなメッセージをタイプします" fill="#6A6A6A" fill-rule="nonzero"></path>
                                <path d="M74.6489258,6.78173828 L71.1958008,6.78173828 L71.1958008,17 L68.7719727,17 L68.7719727,6.78173828 L65.3686523,6.78173828 L65.3686523,4.9140625 L74.6489258,4.9140625 L74.6489258,6.78173828 Z M82.8833008,11.6875 L78.4008789,11.6875 L78.4008789,15.140625 L83.7299805,15.140625 L83.7299805,17 L75.9770508,17 L75.9770508,4.9140625 L83.7133789,4.9140625 L83.7133789,6.78173828 L78.4008789,6.78173828 L78.4008789,9.81982422 L82.8833008,9.81982422 L82.8833008,11.6875 Z M89.706543,9.19726562 L91.9726562,4.9140625 L94.7949219,4.9140625 L91.2089844,10.9072266 L95.0024414,17 L92.0722656,17 L89.7397461,12.6420898 L87.4072266,17 L84.5766602,17 L88.2539062,10.9072266 L84.6679688,4.9140625 L87.4736328,4.9140625 L89.706543,9.19726562 Z M104.672852,6.78173828 L101.219727,6.78173828 L101.219727,17 L98.7958984,17 L98.7958984,6.78173828 L95.3925781,6.78173828 L95.3925781,4.9140625 L104.672852,4.9140625 L104.672852,6.78173828 Z" id="TEXT" fill="#6A6A6A" fill-rule="nonzero"></path>
                            </g>
                        </g>
                    </g>
                </g>
            </g>
        </g>
    </g>
</svg>