<?xml version="1.0" encoding="UTF-8"?>
<svg width="146px" height="37px" viewBox="0 0 146 37" version="1.1" xmlns="http://www.w3.org/2000/svg" xmlns:xlink="http://www.w3.org/1999/xlink">
    <!-- Generator: Sketch 54.1 (76490) - https://sketchapp.com -->
    <title>Text</title>
    <desc>Created with Sketch.</desc>
    <g id="页面1" stroke="none" stroke-width="1" fill="none" fill-rule="evenodd">
        <g id="C-35&gt;Shake-to-Remix&gt;EN" transform="translate(-205.000000, -836.000000)" fill="#6A6A6A" fill-rule="nonzero">
            <g id="Content" transform="translate(12.000000, 76.000000)">
                <g id="06_Mosaic" transform="translate(181.000000, 562.000000)">
                    <g id="Text" transform="translate(10.000000, 194.000000)">
                        <path d="M7.395,33.95 C7.3416664,33.4366641 7.15666825,33.0650012 6.84,32.835 C6.52333175,32.6049989 6.1183358,32.49 5.625,32.49 C5.424999,32.49 5.2283343,32.5099998 5.035,32.55 C4.8416657,32.5900002 4.67000075,32.6566662 4.52,32.75 C4.36999925,32.8433338 4.25000045,32.9683325 4.16,33.125 C4.06999955,33.2816675 4.025,33.4766655 4.025,33.71 C4.025,33.9300011 4.08999935,34.1083327 4.22,34.245 C4.35000065,34.3816674 4.52333225,34.4933329 4.74,34.58 C4.95666775,34.6666671 5.2016653,34.7383331 5.475,34.795 C5.7483347,34.851667 6.02666525,34.913333 6.31,34.98 C6.59333475,35.046667 6.8716653,35.1249995 7.145,35.215 C7.4183347,35.3050005 7.66333225,35.4266659 7.88,35.58 C8.09666775,35.7333341 8.26999935,35.9266655 8.4,36.16 C8.53000065,36.3933345 8.595,36.6866649 8.595,37.04 C8.595,37.4200019 8.51000085,37.7449986 8.34,38.015 C8.16999915,38.2850014 7.951668,38.5049992 7.685,38.675 C7.418332,38.8450009 7.12000165,38.968333 6.79,39.045 C6.45999835,39.121667 6.1316683,39.16 5.805,39.16 C5.404998,39.16 5.02666845,39.1100005 4.67,39.01 C4.31333155,38.9099995 4.00000135,38.7583343 3.73,38.555 C3.45999865,38.3516657 3.24666745,38.0916682 3.09,37.775 C2.93333255,37.4583317 2.855,37.0833355 2.855,36.65 L3.755,36.65 C3.755,36.9500015 3.81333275,37.2083322 3.93,37.425 C4.04666725,37.6416677 4.19999905,37.8199993 4.39,37.96 C4.58000095,38.1000007 4.8016654,38.203333 5.055,38.27 C5.3083346,38.336667 5.568332,38.37 5.835,38.37 C6.0483344,38.37 6.26333225,38.3500002 6.48,38.31 C6.69666775,38.2699998 6.8916658,38.2016672 7.065,38.105 C7.2383342,38.0083329 7.3783328,37.8766675 7.485,37.71 C7.5916672,37.5433325 7.645,37.3300013 7.645,37.07 C7.645,36.8233321 7.58000065,36.6233341 7.45,36.47 C7.31999935,36.3166659 7.14666775,36.1916672 6.93,36.095 C6.71333225,35.9983328 6.4683347,35.9200003 6.195,35.86 C5.9216653,35.7999997 5.64333475,35.7383337 5.36,35.675 C5.07666525,35.6116664 4.7983347,35.5383338 4.525,35.455 C4.2516653,35.3716663 4.00666775,35.2616673 3.79,35.125 C3.57333225,34.9883327 3.40000065,34.8116677 3.27,34.595 C3.13999935,34.3783322 3.075,34.1066683 3.075,33.78 C3.075,33.4199982 3.1483326,33.1083347 3.295,32.845 C3.4416674,32.5816654 3.63666545,32.3650009 3.88,32.195 C4.12333455,32.0249991 4.39999845,31.8983338 4.71,31.815 C5.02000155,31.7316663 5.3383317,31.69 5.665,31.69 C6.0316685,31.69 6.3716651,31.7333329 6.685,31.82 C6.9983349,31.9066671 7.27333215,32.0433324 7.51,32.23 C7.74666785,32.4166676 7.93333265,32.6516653 8.07,32.935 C8.20666735,33.2183347 8.2816666,33.5566647 8.295,33.95 L7.395,33.95 Z M9.605,31.86 L10.455,31.86 L10.455,34.59 L10.475,34.59 C10.541667,34.4299992 10.6349994,34.2950005 10.755,34.185 C10.8750006,34.0749995 11.0099992,33.9850004 11.16,33.915 C11.3100008,33.8449997 11.4666658,33.7933335 11.63,33.76 C11.7933341,33.7266665 11.9516659,33.71 12.105,33.71 C12.4450017,33.71 12.7283322,33.7566662 12.955,33.85 C13.1816678,33.9433338 13.3649993,34.0733325 13.505,34.24 C13.6450007,34.4066675 13.7433331,34.6049989 13.8,34.835 C13.856667,35.0650012 13.885,35.3199986 13.885,35.6 L13.885,39 L13.035,39 L13.035,35.5 C13.035,35.1799984 12.9416676,34.9266676 12.755,34.74 C12.5683324,34.5533324 12.3116683,34.46 11.985,34.46 C11.7249987,34.46 11.500001,34.4999996 11.31,34.58 C11.1199991,34.6600004 10.9616673,34.7733326 10.835,34.92 C10.7083327,35.0666674 10.6133336,35.2383324 10.55,35.435 C10.4866664,35.6316676 10.455,35.8466655 10.455,36.08 L10.455,39 L9.605,39 L9.605,31.86 Z M19.745,38.98 C19.5983326,39.0666671 19.3950013,39.11 19.135,39.11 C18.9149989,39.11 18.7400006,39.0483339 18.61,38.925 C18.4799993,38.8016661 18.415,38.6000014 18.415,38.32 C18.1816655,38.6000014 17.9100016,38.8016661 17.6,38.925 C17.2899984,39.0483339 16.9550018,39.11 16.595,39.11 C16.3616655,39.11 16.140001,39.0833336 15.93,39.03 C15.7199989,38.9766664 15.5383341,38.8933339 15.385,38.78 C15.2316659,38.6666661 15.1100004,38.5183342 15.02,38.335 C14.9299995,38.1516658 14.885,37.9300013 14.885,37.67 C14.885,37.3766652 14.9349995,37.1366676 15.035,36.95 C15.1350005,36.7633324 15.2666659,36.6116672 15.43,36.495 C15.5933341,36.3783327 15.779999,36.2900003 15.99,36.23 C16.200001,36.1699997 16.4149989,36.1200002 16.635,36.08 C16.8683345,36.0333331 17.0899989,35.9983335 17.3,35.975 C17.510001,35.9516665 17.6949992,35.9183335 17.855,35.875 C18.0150008,35.8316665 18.1416662,35.7683337 18.235,35.685 C18.3283338,35.6016663 18.375,35.4800008 18.375,35.32 C18.375,35.1333324 18.3400003,34.9833339 18.27,34.87 C18.1999996,34.7566661 18.1100005,34.6700003 18,34.61 C17.8899994,34.5499997 17.7666673,34.5100001 17.63,34.49 C17.4933326,34.4699999 17.358334,34.46 17.225,34.46 C16.8649982,34.46 16.5650012,34.5283326 16.325,34.665 C16.0849988,34.8016674 15.9550001,35.0599981 15.935,35.44 L15.085,35.44 C15.0983334,35.1199984 15.1649994,34.8500011 15.285,34.63 C15.4050006,34.4099989 15.564999,34.2316674 15.765,34.095 C15.965001,33.9583327 16.193332,33.8600003 16.45,33.8 C16.7066679,33.7399997 16.9816652,33.71 17.275,33.71 C17.5083345,33.71 17.7399988,33.7266665 17.97,33.76 C18.2000011,33.7933335 18.4083324,33.8616662 18.595,33.965 C18.7816676,34.0683339 18.9316661,34.2133324 19.045,34.4 C19.1583339,34.5866676 19.215,34.8299985 19.215,35.13 L19.215,37.79 C19.215,37.990001 19.2266666,38.1366662 19.25,38.23 C19.2733334,38.3233338 19.351666,38.37 19.485,38.37 C19.5583337,38.37 19.6449995,38.3533335 19.745,38.32 L19.745,38.98 Z M18.365,36.33 C18.2583328,36.4100004 18.1183342,36.4683332 17.945,36.505 C17.7716658,36.5416668 17.590001,36.5716666 17.4,36.595 C17.2099991,36.6183335 17.0183343,36.6449999 16.825,36.675 C16.6316657,36.7050002 16.4583341,36.753333 16.305,36.82 C16.1516659,36.886667 16.0266672,36.9816661 15.93,37.105 C15.8333329,37.228334 15.785,37.3966656 15.785,37.61 C15.785,37.7500007 15.8133331,37.8683329 15.87,37.965 C15.926667,38.0616672 15.9999996,38.1399997 16.09,38.2 C16.1800005,38.2600003 16.2849994,38.3033332 16.405,38.33 C16.5250006,38.3566668 16.651666,38.37 16.785,38.37 C17.0650014,38.37 17.304999,38.3316671 17.505,38.255 C17.705001,38.1783329 17.8683327,38.0816672 17.995,37.965 C18.1216673,37.8483327 18.2149997,37.7216674 18.275,37.585 C18.3350003,37.4483326 18.365,37.3200006 18.365,37.2 L18.365,36.33 Z M20.585,31.86 L21.435,31.86 L21.435,36.09 L23.795,33.83 L24.935,33.83 L22.885,35.71 L25.085,39 L24.005,39 L22.235,36.3 L21.435,37.04 L21.435,39 L20.585,39 L20.585,31.86 Z M29.315,35.92 C29.3016666,35.719999 29.2566671,35.5300009 29.18,35.35 C29.1033329,35.1699991 29.0000006,35.0150007 28.87,34.885 C28.7399993,34.7549994 28.5866675,34.6516671 28.41,34.575 C28.2333324,34.498333 28.0383344,34.46 27.825,34.46 C27.6049989,34.46 27.4066675,34.498333 27.23,34.575 C27.0533324,34.6516671 26.9016673,34.756666 26.775,34.89 C26.6483327,35.023334 26.5483337,35.1783324 26.475,35.355 C26.4016663,35.5316676 26.3583334,35.719999 26.345,35.92 L29.315,35.92 Z M30.135,37.36 C30.0216661,37.9400029 29.7716686,38.3766652 29.385,38.67 C28.9983314,38.9633348 28.5116696,39.11 27.925,39.11 C27.5116646,39.11 27.1533349,39.043334 26.85,38.91 C26.5466652,38.776666 26.2916677,38.5900012 26.085,38.35 C25.8783323,38.1099988 25.7233339,37.823335 25.62,37.49 C25.5166662,37.156665 25.4583334,36.7933353 25.445,36.4 C25.445,36.0066647 25.5049994,35.6466683 25.625,35.32 C25.7450006,34.9933317 25.9133323,34.7100012 26.13,34.47 C26.3466678,34.2299988 26.6033319,34.043334 26.9,33.91 C27.1966682,33.776666 27.5216649,33.71 27.875,33.71 C28.3350023,33.71 28.7166652,33.8049991 29.02,33.995 C29.3233349,34.185001 29.5666658,34.4266652 29.75,34.72 C29.9333343,35.0133348 30.0599997,35.3333316 30.13,35.68 C30.2000004,36.0266684 30.2283334,36.3566651 30.215,36.67 L26.345,36.67 C26.3383333,36.8966678 26.3649997,37.1116657 26.425,37.315 C26.4850003,37.5183344 26.581666,37.6983326 26.715,37.855 C26.848334,38.0116675 27.0183323,38.1366662 27.225,38.23 C27.4316677,38.3233338 27.6749986,38.37 27.955,38.37 C28.3150018,38.37 28.6099989,38.2866675 28.84,38.12 C29.0700012,37.9533325 29.2216663,37.7000017 29.295,37.36 L30.135,37.36 Z M35.055,33.83 L36.085,33.83 L36.085,34.58 L35.055,34.58 L35.055,37.79 C35.055,37.8900005 35.0633332,37.9699997 35.08,38.03 C35.0966667,38.0900003 35.1283331,38.1366665 35.175,38.17 C35.2216669,38.2033335 35.2866662,38.2249999 35.37,38.235 C35.4533337,38.2450001 35.561666,38.25 35.695,38.25 L36.085,38.25 L36.085,39 L35.435,39 C35.2149989,39 35.0266675,38.9850002 34.87,38.955 C34.7133325,38.9249999 34.5866671,38.8700004 34.49,38.79 C34.3933328,38.7099996 34.3216669,38.5966674 34.275,38.45 C34.2283331,38.3033326 34.205,38.1100012 34.205,37.87 L34.205,34.58 L33.325,34.58 L33.325,33.83 L34.205,33.83 L34.205,32.28 L35.055,32.28 L35.055,33.83 Z M37.645,36.42 C37.645,36.7333349 37.6866662,37.0116655 37.77,37.255 C37.8533337,37.4983345 37.9683326,37.7016658 38.115,37.865 C38.2616674,38.0283342 38.4333324,38.1533329 38.63,38.24 C38.8266676,38.3266671 39.0349989,38.37 39.255,38.37 C39.4750011,38.37 39.6833324,38.3266671 39.88,38.24 C40.0766676,38.1533329 40.2483326,38.0283342 40.395,37.865 C40.5416674,37.7016658 40.6566663,37.4983345 40.74,37.255 C40.8233337,37.0116655 40.865,36.7333349 40.865,36.42 C40.865,36.1066651 40.8233337,35.8283346 40.74,35.585 C40.6566663,35.3416655 40.5416674,35.1366675 40.395,34.97 C40.2483326,34.8033325 40.0766676,34.6766671 39.88,34.59 C39.6833324,34.5033329 39.4750011,34.46 39.255,34.46 C39.0349989,34.46 38.8266676,34.5033329 38.63,34.59 C38.4333324,34.6766671 38.2616674,34.8033325 38.115,34.97 C37.9683326,35.1366675 37.8533337,35.3416655 37.77,35.585 C37.6866662,35.8283346 37.645,36.1066651 37.645,36.42 Z M36.745,36.42 C36.745,36.0399981 36.7983328,35.6850017 36.905,35.355 C37.0116672,35.0249984 37.1716656,34.7383346 37.385,34.495 C37.5983344,34.2516655 37.8616651,34.0600007 38.175,33.92 C38.4883349,33.7799993 38.8483313,33.71 39.255,33.71 C39.6683354,33.71 40.0299985,33.7799993 40.34,33.92 C40.6500015,34.0600007 40.9116656,34.2516655 41.125,34.495 C41.3383344,34.7383346 41.4983328,35.0249984 41.605,35.355 C41.7116672,35.6850017 41.765,36.0399981 41.765,36.42 C41.765,36.8000019 41.7116672,37.1533317 41.605,37.48 C41.4983328,37.8066683 41.3383344,38.0916655 41.125,38.335 C40.9116656,38.5783346 40.6500015,38.7683327 40.34,38.905 C40.0299985,39.0416673 39.6683354,39.11 39.255,39.11 C38.8483313,39.11 38.4883349,39.0416673 38.175,38.905 C37.8616651,38.7683327 37.5983344,38.5783346 37.385,38.335 C37.1716656,38.0916655 37.0116672,37.8066683 36.905,37.48 C36.7983328,37.1533317 36.745,36.8000019 36.745,36.42 Z M49.055,35.49 C48.988333,35.1633317 48.8483344,34.9100009 48.635,34.73 C48.4216656,34.5499991 48.1350018,34.46 47.775,34.46 C47.4683318,34.46 47.2116677,34.5166661 47.005,34.63 C46.7983323,34.7433339 46.6333339,34.8933324 46.51,35.08 C46.386666,35.2666676 46.2983336,35.4816655 46.245,35.725 C46.1916664,35.9683346 46.165,36.2199987 46.165,36.48 C46.165,36.7200012 46.193333,36.9533322 46.25,37.18 C46.3066669,37.4066678 46.3949994,37.6083325 46.515,37.785 C46.6350006,37.9616676 46.7916657,38.1033328 46.985,38.21 C47.1783343,38.3166672 47.408332,38.37 47.675,38.37 C48.0950021,38.37 48.4233321,38.2600011 48.66,38.04 C48.8966678,37.8199989 49.0416664,37.510002 49.095,37.11 L49.965,37.11 C49.8716662,37.7500032 49.6333352,38.2433316 49.25,38.59 C48.8666647,38.9366684 48.3450033,39.11 47.685,39.11 C47.2916647,39.11 46.9433348,39.0466673 46.64,38.92 C46.3366651,38.7933327 46.0833343,38.6133345 45.88,38.38 C45.6766656,38.1466655 45.5233338,37.868335 45.42,37.545 C45.3166661,37.221665 45.265,36.8666686 45.265,36.48 C45.265,36.0933314 45.3149995,35.7316684 45.415,35.395 C45.5150005,35.0583316 45.6666656,34.7650012 45.87,34.515 C46.0733344,34.2649988 46.3283318,34.0683341 46.635,33.925 C46.9416682,33.781666 47.2983313,33.71 47.705,33.71 C47.9983348,33.71 48.2733321,33.7449996 48.53,33.815 C48.7866679,33.8850003 49.0133323,33.9933326 49.21,34.14 C49.4066676,34.2866674 49.5683327,34.4716655 49.695,34.695 C49.8216673,34.9183345 49.9016665,35.1833318 49.935,35.49 L49.055,35.49 Z M50.885,33.83 L51.685,33.83 L51.685,34.92 L51.705,34.92 C51.9116677,34.4999979 52.1649985,34.190001 52.465,33.99 C52.7650015,33.789999 53.1449977,33.6966666 53.605,33.71 L53.605,34.61 C53.2649983,34.61 52.9750012,34.6566662 52.735,34.75 C52.4949988,34.8433338 52.3016674,34.9799991 52.155,35.16 C52.0083326,35.3400009 51.901667,35.5583321 51.835,35.815 C51.768333,36.071668 51.735,36.366665 51.735,36.7 L51.735,39 L50.885,39 L50.885,33.83 Z M57.655,35.92 C57.6416666,35.719999 57.5966671,35.5300009 57.52,35.35 C57.4433329,35.1699991 57.3400006,35.0150007 57.21,34.885 C57.0799993,34.7549994 56.9266675,34.6516671 56.75,34.575 C56.5733324,34.498333 56.3783344,34.46 56.165,34.46 C55.9449989,34.46 55.7466675,34.498333 55.57,34.575 C55.3933325,34.6516671 55.2416673,34.756666 55.115,34.89 C54.9883327,35.023334 54.8883337,35.1783324 54.815,35.355 C54.7416663,35.5316676 54.6983334,35.719999 54.685,35.92 L57.655,35.92 Z M58.475,37.36 C58.3616661,37.9400029 58.1116686,38.3766652 57.725,38.67 C57.3383314,38.9633348 56.8516696,39.11 56.265,39.11 C55.8516646,39.11 55.4933349,39.043334 55.19,38.91 C54.8866652,38.776666 54.6316677,38.5900012 54.425,38.35 C54.2183323,38.1099988 54.0633338,37.823335 53.96,37.49 C53.8566662,37.156665 53.7983334,36.7933353 53.785,36.4 C53.785,36.0066647 53.8449994,35.6466683 53.965,35.32 C54.0850006,34.9933317 54.2533323,34.7100012 54.47,34.47 C54.6866678,34.2299988 54.9433318,34.043334 55.24,33.91 C55.5366682,33.776666 55.8616649,33.71 56.215,33.71 C56.6750023,33.71 57.0566652,33.8049991 57.36,33.995 C57.6633349,34.185001 57.9066658,34.4266652 58.09,34.72 C58.2733342,35.0133348 58.3999997,35.3333316 58.47,35.68 C58.5400004,36.0266684 58.5683334,36.3566651 58.555,36.67 L54.685,36.67 C54.6783333,36.8966678 54.7049997,37.1116657 54.765,37.315 C54.8250003,37.5183344 54.921666,37.6983326 55.055,37.855 C55.188334,38.0116675 55.3583323,38.1366662 55.565,38.23 C55.7716677,38.3233338 56.0149986,38.37 56.295,38.37 C56.6550018,38.37 56.9499989,38.2866675 57.18,38.12 C57.4100012,37.9533325 57.5616663,37.7000017 57.635,37.36 L58.475,37.36 Z M64.015,38.98 C63.8683326,39.0666671 63.6650013,39.11 63.405,39.11 C63.1849989,39.11 63.0100006,39.0483339 62.88,38.925 C62.7499993,38.8016661 62.685,38.6000014 62.685,38.32 C62.4516655,38.6000014 62.1800016,38.8016661 61.87,38.925 C61.5599984,39.0483339 61.2250018,39.11 60.865,39.11 C60.6316655,39.11 60.410001,39.0833336 60.2,39.03 C59.9899989,38.9766664 59.8083341,38.8933339 59.655,38.78 C59.5016659,38.6666661 59.3800004,38.5183342 59.29,38.335 C59.1999995,38.1516658 59.155,37.9300013 59.155,37.67 C59.155,37.3766652 59.2049995,37.1366676 59.305,36.95 C59.4050005,36.7633324 59.5366658,36.6116672 59.7,36.495 C59.8633342,36.3783327 60.0499989,36.2900003 60.26,36.23 C60.470001,36.1699997 60.6849989,36.1200002 60.905,36.08 C61.1383345,36.0333331 61.3599989,35.9983335 61.57,35.975 C61.780001,35.9516665 61.9649992,35.9183335 62.125,35.875 C62.2850008,35.8316665 62.4116662,35.7683337 62.505,35.685 C62.5983338,35.6016663 62.645,35.4800008 62.645,35.32 C62.645,35.1333324 62.6100003,34.9833339 62.54,34.87 C62.4699996,34.7566661 62.3800005,34.6700003 62.27,34.61 C62.1599995,34.5499997 62.0366674,34.5100001 61.9,34.49 C61.7633326,34.4699999 61.628334,34.46 61.495,34.46 C61.1349982,34.46 60.8350012,34.5283326 60.595,34.665 C60.3549988,34.8016674 60.2250001,35.0599981 60.205,35.44 L59.355,35.44 C59.3683334,35.1199984 59.4349994,34.8500011 59.555,34.63 C59.6750006,34.4099989 59.834999,34.2316674 60.035,34.095 C60.235001,33.9583327 60.463332,33.8600003 60.72,33.8 C60.9766679,33.7399997 61.2516652,33.71 61.545,33.71 C61.7783345,33.71 62.0099989,33.7266665 62.24,33.76 C62.4700012,33.7933335 62.6783324,33.8616662 62.865,33.965 C63.0516676,34.0683339 63.2016661,34.2133324 63.315,34.4 C63.4283339,34.5866676 63.485,34.8299985 63.485,35.13 L63.485,37.79 C63.485,37.990001 63.4966665,38.1366662 63.52,38.23 C63.5433334,38.3233338 63.621666,38.37 63.755,38.37 C63.8283337,38.37 63.9149995,38.3533335 64.015,38.32 L64.015,38.98 Z M62.635,36.33 C62.5283328,36.4100004 62.3883342,36.4683332 62.215,36.505 C62.0416658,36.5416668 61.860001,36.5716666 61.67,36.595 C61.4799991,36.6183335 61.2883343,36.6449999 61.095,36.675 C60.9016657,36.7050002 60.7283341,36.753333 60.575,36.82 C60.4216659,36.886667 60.2966671,36.9816661 60.2,37.105 C60.1033329,37.228334 60.055,37.3966656 60.055,37.61 C60.055,37.7500007 60.0833331,37.8683329 60.14,37.965 C60.196667,38.0616672 60.2699996,38.1399997 60.36,38.2 C60.4500005,38.2600003 60.5549994,38.3033332 60.675,38.33 C60.7950006,38.3566668 60.921666,38.37 61.055,38.37 C61.3350014,38.37 61.574999,38.3316671 61.775,38.255 C61.975001,38.1783329 62.1383327,38.0816672 62.265,37.965 C62.3916673,37.8483327 62.4849997,37.7216674 62.545,37.585 C62.6050003,37.4483326 62.635,37.3200006 62.635,37.2 L62.635,36.33 Z M65.985,33.83 L67.015,33.83 L67.015,34.58 L65.985,34.58 L65.985,37.79 C65.985,37.8900005 65.9933332,37.9699997 66.01,38.03 C66.0266667,38.0900003 66.0583331,38.1366665 66.105,38.17 C66.1516669,38.2033335 66.2166663,38.2249999 66.3,38.235 C66.3833338,38.2450001 66.491666,38.25 66.625,38.25 L67.015,38.25 L67.015,39 L66.365,39 C66.1449989,39 65.9566674,38.9850002 65.8,38.955 C65.6433325,38.9249999 65.5166671,38.8700004 65.42,38.79 C65.3233328,38.7099996 65.2516669,38.5966674 65.205,38.45 C65.1583331,38.3033326 65.135,38.1100012 65.135,37.87 L65.135,34.58 L64.255,34.58 L64.255,33.83 L65.135,33.83 L65.135,32.28 L65.985,32.28 L65.985,33.83 Z M71.545,35.92 C71.5316666,35.719999 71.486667,35.5300009 71.41,35.35 C71.3333329,35.1699991 71.2300006,35.0150007 71.1,34.885 C70.9699993,34.7549994 70.8166676,34.6516671 70.64,34.575 C70.4633324,34.498333 70.2683344,34.46 70.055,34.46 C69.8349989,34.46 69.6366675,34.498333 69.46,34.575 C69.2833324,34.6516671 69.1316673,34.756666 69.005,34.89 C68.8783327,35.023334 68.7783337,35.1783324 68.705,35.355 C68.6316663,35.5316676 68.5883334,35.719999 68.575,35.92 L71.545,35.92 Z M72.365,37.36 C72.2516661,37.9400029 72.0016686,38.3766652 71.615,38.67 C71.2283314,38.9633348 70.7416696,39.11 70.155,39.11 C69.7416646,39.11 69.3833348,39.043334 69.08,38.91 C68.7766651,38.776666 68.5216677,38.5900012 68.315,38.35 C68.1083323,38.1099988 67.9533338,37.823335 67.85,37.49 C67.7466661,37.156665 67.6883334,36.7933353 67.675,36.4 C67.675,36.0066647 67.7349994,35.6466683 67.855,35.32 C67.9750006,34.9933317 68.1433322,34.7100012 68.36,34.47 C68.5766677,34.2299988 68.8333319,34.043334 69.13,33.91 C69.4266682,33.776666 69.7516649,33.71 70.105,33.71 C70.5650023,33.71 70.9466652,33.8049991 71.25,33.995 C71.5533348,34.185001 71.7966658,34.4266652 71.98,34.72 C72.1633343,35.0133348 72.2899996,35.3333316 72.36,35.68 C72.4300004,36.0266684 72.4583334,36.3566651 72.445,36.67 L68.575,36.67 C68.5683333,36.8966678 68.5949997,37.1116657 68.655,37.315 C68.7150003,37.5183344 68.811666,37.6983326 68.945,37.855 C69.078334,38.0116675 69.2483323,38.1366662 69.455,38.23 C69.6616677,38.3233338 69.9049986,38.37 70.185,38.37 C70.5450018,38.37 70.8399989,38.2866675 71.07,38.12 C71.3000011,37.9533325 71.4516663,37.7000017 71.525,37.36 L72.365,37.36 Z M76.105,33.83 L76.905,33.83 L76.905,34.59 L76.925,34.59 C77.3116686,34.0033304 77.8683297,33.71 78.595,33.71 C78.9150016,33.71 79.2049987,33.776666 79.465,33.91 C79.7250013,34.043334 79.9083328,34.2699984 80.015,34.59 C80.1883342,34.3099986 80.4166653,34.0933341 80.7,33.94 C80.9833348,33.7866659 81.2949983,33.71 81.635,33.71 C81.8950013,33.71 82.129999,33.7383331 82.34,33.795 C82.5500011,33.851667 82.7299993,33.9399994 82.88,34.06 C83.0300007,34.1800006 83.1466663,34.3349991 83.23,34.525 C83.3133337,34.715001 83.355,34.943332 83.355,35.21 L83.355,39 L82.505,39 L82.505,35.61 C82.505,35.4499992 82.4916668,35.3000007 82.465,35.16 C82.4383332,35.0199993 82.3883337,34.8983339 82.315,34.795 C82.2416663,34.6916662 82.1400007,34.6100003 82.01,34.55 C81.8799993,34.4899997 81.7116677,34.46 81.505,34.46 C81.0849979,34.46 80.7550012,34.5799988 80.515,34.82 C80.2749988,35.0600012 80.155,35.379998 80.155,35.78 L80.155,39 L79.305,39 L79.305,35.61 C79.305,35.4433325 79.2900002,35.2900007 79.26,35.15 C79.2299998,35.0099993 79.1783337,34.8883339 79.105,34.785 C79.0316663,34.6816661 78.933334,34.601667 78.81,34.545 C78.686666,34.4883331 78.5283343,34.46 78.335,34.46 C78.0883321,34.46 77.8766676,34.5099995 77.7,34.61 C77.5233324,34.7100005 77.3800006,34.8299993 77.27,34.97 C77.1599995,35.1100007 77.0800003,35.2549992 77.03,35.405 C76.9799997,35.5550008 76.955,35.6799995 76.955,35.78 L76.955,39 L76.105,39 L76.105,33.83 Z M85.255,36.42 C85.255,36.7333349 85.2966663,37.0116655 85.38,37.255 C85.4633338,37.4983345 85.5783326,37.7016658 85.725,37.865 C85.8716674,38.0283342 86.0433324,38.1533329 86.24,38.24 C86.4366677,38.3266671 86.6449989,38.37 86.865,38.37 C87.0850011,38.37 87.2933324,38.3266671 87.49,38.24 C87.6866677,38.1533329 87.8583326,38.0283342 88.005,37.865 C88.1516674,37.7016658 88.2666663,37.4983345 88.35,37.255 C88.4333338,37.0116655 88.475,36.7333349 88.475,36.42 C88.475,36.1066651 88.4333338,35.8283346 88.35,35.585 C88.2666663,35.3416655 88.1516674,35.1366675 88.005,34.97 C87.8583326,34.8033325 87.6866677,34.6766671 87.49,34.59 C87.2933324,34.5033329 87.0850011,34.46 86.865,34.46 C86.6449989,34.46 86.4366677,34.5033329 86.24,34.59 C86.0433324,34.6766671 85.8716674,34.8033325 85.725,34.97 C85.5783326,35.1366675 85.4633338,35.3416655 85.38,35.585 C85.2966663,35.8283346 85.255,36.1066651 85.255,36.42 Z M84.355,36.42 C84.355,36.0399981 84.4083328,35.6850017 84.515,35.355 C84.6216672,35.0249984 84.7816656,34.7383346 84.995,34.495 C85.2083344,34.2516655 85.4716651,34.0600007 85.785,33.92 C86.0983349,33.7799993 86.4583313,33.71 86.865,33.71 C87.2783354,33.71 87.6399984,33.7799993 87.95,33.92 C88.2600015,34.0600007 88.5216656,34.2516655 88.735,34.495 C88.9483344,34.7383346 89.1083328,35.0249984 89.215,35.355 C89.3216672,35.6850017 89.375,36.0399981 89.375,36.42 C89.375,36.8000019 89.3216672,37.1533317 89.215,37.48 C89.1083328,37.8066683 88.9483344,38.0916655 88.735,38.335 C88.5216656,38.5783346 88.2600015,38.7683327 87.95,38.905 C87.6399984,39.0416673 87.2783354,39.11 86.865,39.11 C86.4583313,39.11 86.0983349,39.0416673 85.785,38.905 C85.4716651,38.7683327 85.2083344,38.5783346 84.995,38.335 C84.7816656,38.0916655 84.6216672,37.8066683 84.515,37.48 C84.4083328,37.1533317 84.355,36.8000019 84.355,36.42 Z M90.895,37.37 C90.9016667,37.5566676 90.9449996,37.7149993 91.025,37.845 C91.1050004,37.9750006 91.2099994,38.078333 91.34,38.155 C91.4700007,38.231667 91.6166658,38.2866665 91.78,38.32 C91.9433341,38.3533335 92.1116658,38.37 92.285,38.37 C92.418334,38.37 92.5583326,38.3600001 92.705,38.34 C92.8516674,38.3199999 92.986666,38.2833336 93.11,38.23 C93.233334,38.1766664 93.3349996,38.0983339 93.415,37.995 C93.4950004,37.8916662 93.535,37.7600008 93.535,37.6 C93.535,37.3799989 93.4516675,37.2133339 93.285,37.1 C93.1183325,36.9866661 92.9100012,36.8950004 92.66,36.825 C92.4099987,36.7549997 92.1383348,36.6916669 91.845,36.635 C91.5516652,36.578333 91.2800012,36.4983339 91.03,36.395 C90.7799988,36.2916661 90.5716675,36.1466676 90.405,35.96 C90.2383325,35.7733324 90.155,35.513335 90.155,35.18 C90.155,34.9199987 90.2133328,34.6966676 90.33,34.51 C90.4466672,34.3233324 90.5966657,34.1716672 90.78,34.055 C90.9633343,33.9383328 91.1699988,33.851667 91.4,33.795 C91.6300011,33.7383331 91.8583322,33.71 92.085,33.71 C92.3783348,33.71 92.6483321,33.7349998 92.895,33.785 C93.1416679,33.8350003 93.359999,33.921666 93.55,34.045 C93.7400009,34.168334 93.8916661,34.3349989 94.005,34.545 C94.1183339,34.7550011 94.1849999,35.0166651 94.205,35.33 L93.355,35.33 C93.3416666,35.1633325 93.2983337,35.0250006 93.225,34.915 C93.1516663,34.8049994 93.0583339,34.716667 92.945,34.65 C92.8316661,34.583333 92.7066674,34.5350002 92.57,34.505 C92.4333326,34.4749999 92.2950007,34.46 92.155,34.46 C92.0283327,34.46 91.9000006,34.4699999 91.77,34.49 C91.6399993,34.5100001 91.5216672,34.5449998 91.415,34.595 C91.3083328,34.6450002 91.221667,34.7116663 91.155,34.795 C91.088333,34.8783337 91.055,34.986666 91.055,35.12 C91.055,35.2666674 91.1066661,35.3883328 91.21,35.485 C91.3133338,35.5816672 91.4449992,35.6616664 91.605,35.725 C91.7650008,35.7883336 91.944999,35.8416665 92.145,35.885 C92.345001,35.9283336 92.544999,35.9733331 92.745,36.02 C92.9583344,36.0666669 93.1666656,36.123333 93.37,36.19 C93.5733343,36.256667 93.7533325,36.3449995 93.91,36.455 C94.0666674,36.5650006 94.1933328,36.7033325 94.29,36.87 C94.3866671,37.0366675 94.435,37.2433321 94.435,37.49 C94.435,37.8033349 94.3700007,38.0633323 94.24,38.27 C94.1099994,38.4766677 93.9400011,38.6433327 93.73,38.77 C93.519999,38.8966673 93.2833347,38.9849998 93.02,39.035 C92.7566654,39.0850003 92.4950013,39.11 92.235,39.11 C91.9483319,39.11 91.6750013,39.0800003 91.415,39.02 C91.1549987,38.9599997 90.925001,38.8616674 90.725,38.725 C90.524999,38.5883326 90.3650006,38.4083344 90.245,38.185 C90.1249994,37.9616656 90.0583334,37.6900016 90.045,37.37 L90.895,37.37 Z M99.955,38.98 C99.8083326,39.0666671 99.6050013,39.11 99.345,39.11 C99.1249989,39.11 98.9500006,39.0483339 98.82,38.925 C98.6899993,38.8016661 98.625,38.6000014 98.625,38.32 C98.3916655,38.6000014 98.1200015,38.8016661 97.81,38.925 C97.4999984,39.0483339 97.1650018,39.11 96.805,39.11 C96.5716655,39.11 96.350001,39.0833336 96.14,39.03 C95.9299989,38.9766664 95.7483341,38.8933339 95.595,38.78 C95.4416659,38.6666661 95.3200004,38.5183342 95.23,38.335 C95.1399995,38.1516658 95.095,37.9300013 95.095,37.67 C95.095,37.3766652 95.1449995,37.1366676 95.245,36.95 C95.3450005,36.7633324 95.4766658,36.6116672 95.64,36.495 C95.8033341,36.3783327 95.9899989,36.2900003 96.2,36.23 C96.410001,36.1699997 96.6249989,36.1200002 96.845,36.08 C97.0783345,36.0333331 97.2999989,35.9983335 97.51,35.975 C97.720001,35.9516665 97.9049992,35.9183335 98.065,35.875 C98.2250008,35.8316665 98.3516662,35.7683337 98.445,35.685 C98.5383338,35.6016663 98.585,35.4800008 98.585,35.32 C98.585,35.1333324 98.5500003,34.9833339 98.48,34.87 C98.4099996,34.7566661 98.3200005,34.6700003 98.21,34.61 C98.0999994,34.5499997 97.9766673,34.5100001 97.84,34.49 C97.7033327,34.4699999 97.568334,34.46 97.435,34.46 C97.0749982,34.46 96.7750012,34.5283326 96.535,34.665 C96.2949988,34.8016674 96.1650001,35.0599981 96.145,35.44 L95.295,35.44 C95.3083334,35.1199984 95.3749994,34.8500011 95.495,34.63 C95.6150006,34.4099989 95.774999,34.2316674 95.975,34.095 C96.175001,33.9583327 96.403332,33.8600003 96.66,33.8 C96.9166679,33.7399997 97.1916652,33.71 97.485,33.71 C97.7183345,33.71 97.9499988,33.7266665 98.18,33.76 C98.4100011,33.7933335 98.6183324,33.8616662 98.805,33.965 C98.9916676,34.0683339 99.1416661,34.2133324 99.255,34.4 C99.3683339,34.5866676 99.425,34.8299985 99.425,35.13 L99.425,37.79 C99.425,37.990001 99.4366665,38.1366662 99.46,38.23 C99.4833334,38.3233338 99.561666,38.37 99.695,38.37 C99.7683337,38.37 99.8549995,38.3533335 99.955,38.32 L99.955,38.98 Z M98.575,36.33 C98.4683328,36.4100004 98.3283342,36.4683332 98.155,36.505 C97.9816658,36.5416668 97.800001,36.5716666 97.61,36.595 C97.4199991,36.6183335 97.2283343,36.6449999 97.035,36.675 C96.8416657,36.7050002 96.6683341,36.753333 96.515,36.82 C96.3616659,36.886667 96.2366672,36.9816661 96.14,37.105 C96.0433329,37.228334 95.995,37.3966656 95.995,37.61 C95.995,37.7500007 96.0233331,37.8683329 96.08,37.965 C96.136667,38.0616672 96.2099996,38.1399997 96.3,38.2 C96.3900005,38.2600003 96.4949994,38.3033332 96.615,38.33 C96.7350006,38.3566668 96.861666,38.37 96.995,38.37 C97.2750014,38.37 97.514999,38.3316671 97.715,38.255 C97.915001,38.1783329 98.0783327,38.0816672 98.205,37.965 C98.3316673,37.8483327 98.4249997,37.7216674 98.485,37.585 C98.5450003,37.4483326 98.575,37.3200006 98.575,37.2 L98.575,36.33 Z M101.645,32.9 L100.795,32.9 L100.795,31.86 L101.645,31.86 L101.645,32.9 Z M100.795,33.83 L101.645,33.83 L101.645,39 L100.795,39 L100.795,33.83 Z M106.475,35.49 C106.408333,35.1633317 106.268334,34.9100009 106.055,34.73 C105.841666,34.5499991 105.555002,34.46 105.195,34.46 C104.888332,34.46 104.631668,34.5166661 104.425,34.63 C104.218332,34.7433339 104.053334,34.8933324 103.93,35.08 C103.806666,35.2666676 103.718334,35.4816655 103.665,35.725 C103.611666,35.9683346 103.585,36.2199987 103.585,36.48 C103.585,36.7200012 103.613333,36.9533322 103.67,37.18 C103.726667,37.4066678 103.814999,37.6083325 103.935,37.785 C104.055001,37.9616676 104.211666,38.1033328 104.405,38.21 C104.598334,38.3166672 104.828332,38.37 105.095,38.37 C105.515002,38.37 105.843332,38.2600011 106.08,38.04 C106.316668,37.8199989 106.461666,37.510002 106.515,37.11 L107.385,37.11 C107.291666,37.7500032 107.053335,38.2433316 106.67,38.59 C106.286665,38.9366684 105.765003,39.11 105.105,39.11 C104.711665,39.11 104.363335,39.0466673 104.06,38.92 C103.756665,38.7933327 103.503334,38.6133345 103.3,38.38 C103.096666,38.1466655 102.943334,37.868335 102.84,37.545 C102.736666,37.221665 102.685,36.8666686 102.685,36.48 C102.685,36.0933314 102.735,35.7316684 102.835,35.395 C102.935001,35.0583316 103.086666,34.7650012 103.29,34.515 C103.493334,34.2649988 103.748332,34.0683341 104.055,33.925 C104.361668,33.781666 104.718331,33.71 105.125,33.71 C105.418335,33.71 105.693332,33.7449996 105.95,33.815 C106.206668,33.8850003 106.433332,33.9933326 106.63,34.14 C106.826668,34.2866674 106.988333,34.4716655 107.115,34.695 C107.241667,34.9183345 107.321667,35.1833318 107.355,35.49 L106.475,35.49 Z M111.145,33.83 L111.995,33.83 L111.995,34.53 L112.015,34.53 C112.155001,34.2433319 112.374999,34.0350007 112.675,33.905 C112.975002,33.7749994 113.304998,33.71 113.665,33.71 C114.065002,33.71 114.413332,33.7833326 114.71,33.93 C115.006668,34.0766674 115.253332,34.2749988 115.45,34.525 C115.646668,34.7750013 115.795,35.0633317 115.895,35.39 C115.995001,35.7166683 116.045,36.0633315 116.045,36.43 C116.045,36.7966685 115.996667,37.1433317 115.9,37.47 C115.803333,37.7966683 115.656668,38.0816655 115.46,38.325 C115.263332,38.5683346 115.016668,38.7599993 114.72,38.9 C114.423332,39.0400007 114.078335,39.11 113.685,39.11 C113.558333,39.11 113.416667,39.0966668 113.26,39.07 C113.103333,39.0433332 112.948334,39.0000003 112.795,38.94 C112.641666,38.8799997 112.496667,38.7983339 112.36,38.695 C112.223333,38.5916662 112.108334,38.4633341 112.015,38.31 L111.995,38.31 L111.995,40.97 L111.145,40.97 L111.145,33.83 Z M115.145,36.37 C115.145,36.1299988 115.113334,35.8950011 115.05,35.665 C114.986666,35.4349988 114.890001,35.2300009 114.76,35.05 C114.629999,34.8699991 114.463334,34.7266672 114.26,34.62 C114.056666,34.5133328 113.818335,34.46 113.545,34.46 C113.258332,34.46 113.015001,34.5166661 112.815,34.63 C112.614999,34.7433339 112.451667,34.8916658 112.325,35.075 C112.198333,35.2583343 112.106667,35.4666655 112.05,35.7 C111.993333,35.9333345 111.965,36.1699988 111.965,36.41 C111.965,36.6633346 111.995,36.9083322 112.055,37.145 C112.115,37.3816678 112.209999,37.5899991 112.34,37.77 C112.470001,37.9500009 112.638332,38.0949995 112.845,38.205 C113.051668,38.3150006 113.301665,38.37 113.595,38.37 C113.888335,38.37 114.133332,38.3133339 114.33,38.2 C114.526668,38.0866661 114.684999,37.9366676 114.805,37.75 C114.925001,37.5633324 115.011666,37.3500012 115.065,37.11 C115.118334,36.8699988 115.145,36.6233346 115.145,36.37 Z M121.625,38.98 C121.478333,39.0666671 121.275001,39.11 121.015,39.11 C120.794999,39.11 120.620001,39.0483339 120.49,38.925 C120.359999,38.8016661 120.295,38.6000014 120.295,38.32 C120.061666,38.6000014 119.790002,38.8016661 119.48,38.925 C119.169998,39.0483339 118.835002,39.11 118.475,39.11 C118.241666,39.11 118.020001,39.0833336 117.81,39.03 C117.599999,38.9766664 117.418334,38.8933339 117.265,38.78 C117.111666,38.6666661 116.99,38.5183342 116.9,38.335 C116.81,38.1516658 116.765,37.9300013 116.765,37.67 C116.765,37.3766652 116.814999,37.1366676 116.915,36.95 C117.015,36.7633324 117.146666,36.6116672 117.31,36.495 C117.473334,36.3783327 117.659999,36.2900003 117.87,36.23 C118.080001,36.1699997 118.294999,36.1200002 118.515,36.08 C118.748334,36.0333331 118.969999,35.9983335 119.18,35.975 C119.390001,35.9516665 119.574999,35.9183335 119.735,35.875 C119.895001,35.8316665 120.021666,35.7683337 120.115,35.685 C120.208334,35.6016663 120.255,35.4800008 120.255,35.32 C120.255,35.1333324 120.22,34.9833339 120.15,34.87 C120.08,34.7566661 119.990001,34.6700003 119.88,34.61 C119.769999,34.5499997 119.646667,34.5100001 119.51,34.49 C119.373333,34.4699999 119.238334,34.46 119.105,34.46 C118.744998,34.46 118.445001,34.5283326 118.205,34.665 C117.964999,34.8016674 117.835,35.0599981 117.815,35.44 L116.965,35.44 C116.978333,35.1199984 117.044999,34.8500011 117.165,34.63 C117.285001,34.4099989 117.444999,34.2316674 117.645,34.095 C117.845001,33.9583327 118.073332,33.8600003 118.33,33.8 C118.586668,33.7399997 118.861665,33.71 119.155,33.71 C119.388334,33.71 119.619999,33.7266665 119.85,33.76 C120.080001,33.7933335 120.288332,33.8616662 120.475,33.965 C120.661668,34.0683339 120.811666,34.2133324 120.925,34.4 C121.038334,34.5866676 121.095,34.8299985 121.095,35.13 L121.095,37.79 C121.095,37.990001 121.106667,38.1366662 121.13,38.23 C121.153333,38.3233338 121.231666,38.37 121.365,38.37 C121.438334,38.37 121.524999,38.3533335 121.625,38.32 L121.625,38.98 Z M120.245,36.33 C120.138333,36.4100004 119.998334,36.4683332 119.825,36.505 C119.651666,36.5416668 119.470001,36.5716666 119.28,36.595 C119.089999,36.6183335 118.898334,36.6449999 118.705,36.675 C118.511666,36.7050002 118.338334,36.753333 118.185,36.82 C118.031666,36.886667 117.906667,36.9816661 117.81,37.105 C117.713333,37.228334 117.665,37.3966656 117.665,37.61 C117.665,37.7500007 117.693333,37.8683329 117.75,37.965 C117.806667,38.0616672 117.88,38.1399997 117.97,38.2 C118.06,38.2600003 118.164999,38.3033332 118.285,38.33 C118.405001,38.3566668 118.531666,38.37 118.665,38.37 C118.945001,38.37 119.184999,38.3316671 119.385,38.255 C119.585001,38.1783329 119.748333,38.0816672 119.875,37.965 C120.001667,37.8483327 120.095,37.7216674 120.155,37.585 C120.215,37.4483326 120.245,37.3200006 120.245,37.2 L120.245,36.33 Z M123.595,33.83 L124.625,33.83 L124.625,34.58 L123.595,34.58 L123.595,37.79 C123.595,37.8900005 123.603333,37.9699997 123.62,38.03 C123.636667,38.0900003 123.668333,38.1366665 123.715,38.17 C123.761667,38.2033335 123.826666,38.2249999 123.91,38.235 C123.993334,38.2450001 124.101666,38.25 124.235,38.25 L124.625,38.25 L124.625,39 L123.975,39 C123.754999,39 123.566667,38.9850002 123.41,38.955 C123.253333,38.9249999 123.126667,38.8700004 123.03,38.79 C122.933333,38.7099996 122.861667,38.5966674 122.815,38.45 C122.768333,38.3033326 122.745,38.1100012 122.745,37.87 L122.745,34.58 L121.865,34.58 L121.865,33.83 L122.745,33.83 L122.745,32.28 L123.595,32.28 L123.595,33.83 Z M126.745,33.83 L127.775,33.83 L127.775,34.58 L126.745,34.58 L126.745,37.79 C126.745,37.8900005 126.753333,37.9699997 126.77,38.03 C126.786667,38.0900003 126.818333,38.1366665 126.865,38.17 C126.911667,38.2033335 126.976666,38.2249999 127.06,38.235 C127.143334,38.2450001 127.251666,38.25 127.385,38.25 L127.775,38.25 L127.775,39 L127.125,39 C126.904999,39 126.716667,38.9850002 126.56,38.955 C126.403333,38.9249999 126.276667,38.8700004 126.18,38.79 C126.083333,38.7099996 126.011667,38.5966674 125.965,38.45 C125.918333,38.3033326 125.895,38.1100012 125.895,37.87 L125.895,34.58 L125.015,34.58 L125.015,33.83 L125.895,33.83 L125.895,32.28 L126.745,32.28 L126.745,33.83 Z M132.305,35.92 C132.291667,35.719999 132.246667,35.5300009 132.17,35.35 C132.093333,35.1699991 131.990001,35.0150007 131.86,34.885 C131.729999,34.7549994 131.576668,34.6516671 131.4,34.575 C131.223332,34.498333 131.028334,34.46 130.815,34.46 C130.594999,34.46 130.396668,34.498333 130.22,34.575 C130.043332,34.6516671 129.891667,34.756666 129.765,34.89 C129.638333,35.023334 129.538334,35.1783324 129.465,35.355 C129.391666,35.5316676 129.348333,35.719999 129.335,35.92 L132.305,35.92 Z M133.125,37.36 C133.011666,37.9400029 132.761669,38.3766652 132.375,38.67 C131.988331,38.9633348 131.50167,39.11 130.915,39.11 C130.501665,39.11 130.143335,39.043334 129.84,38.91 C129.536665,38.776666 129.281668,38.5900012 129.075,38.35 C128.868332,38.1099988 128.713334,37.823335 128.61,37.49 C128.506666,37.156665 128.448333,36.7933353 128.435,36.4 C128.435,36.0066647 128.494999,35.6466683 128.615,35.32 C128.735001,34.9933317 128.903332,34.7100012 129.12,34.47 C129.336668,34.2299988 129.593332,34.043334 129.89,33.91 C130.186668,33.776666 130.511665,33.71 130.865,33.71 C131.325002,33.71 131.706665,33.8049991 132.01,33.995 C132.313335,34.185001 132.556666,34.4266652 132.74,34.72 C132.923334,35.0133348 133.05,35.3333316 133.12,35.68 C133.19,36.0266684 133.218333,36.3566651 133.205,36.67 L129.335,36.67 C129.328333,36.8966678 129.355,37.1116657 129.415,37.315 C129.475,37.5183344 129.571666,37.6983326 129.705,37.855 C129.838334,38.0116675 130.008332,38.1366662 130.215,38.23 C130.421668,38.3233338 130.664999,38.37 130.945,38.37 C131.305002,38.37 131.599999,38.2866675 131.83,38.12 C132.060001,37.9533325 132.211666,37.7000017 132.285,37.36 L133.125,37.36 Z M134.055,33.83 L134.855,33.83 L134.855,34.92 L134.875,34.92 C135.081668,34.4999979 135.334998,34.190001 135.635,33.99 C135.935001,33.789999 136.314998,33.6966666 136.775,33.71 L136.775,34.61 C136.434998,34.61 136.145001,34.6566662 135.905,34.75 C135.664999,34.8433338 135.471667,34.9799991 135.325,35.16 C135.178333,35.3400009 135.071667,35.5583321 135.005,35.815 C134.938333,36.071668 134.905,36.366665 134.905,36.7 L134.905,39 L134.055,39 L134.055,33.83 Z M137.595,33.83 L138.395,33.83 L138.395,34.65 L138.415,34.65 C138.768335,34.0233302 139.32833,33.71 140.095,33.71 C140.435002,33.71 140.718332,33.7566662 140.945,33.85 C141.171668,33.9433338 141.354999,34.0733325 141.495,34.24 C141.635001,34.4066675 141.733333,34.6049989 141.79,34.835 C141.846667,35.0650012 141.875,35.3199986 141.875,35.6 L141.875,39 L141.025,39 L141.025,35.5 C141.025,35.1799984 140.931668,34.9266676 140.745,34.74 C140.558332,34.5533324 140.301668,34.46 139.975,34.46 C139.714999,34.46 139.490001,34.4999996 139.3,34.58 C139.109999,34.6600004 138.951667,34.7733326 138.825,34.92 C138.698333,35.0666674 138.603334,35.2383324 138.54,35.435 C138.476666,35.6316676 138.445,35.8466655 138.445,36.08 L138.445,39 L137.595,39 L137.595,33.83 Z M143.675,37.37 C143.681667,37.5566676 143.725,37.7149993 143.805,37.845 C143.885,37.9750006 143.989999,38.078333 144.12,38.155 C144.250001,38.231667 144.396666,38.2866665 144.56,38.32 C144.723334,38.3533335 144.891666,38.37 145.065,38.37 C145.198334,38.37 145.338333,38.3600001 145.485,38.34 C145.631667,38.3199999 145.766666,38.2833336 145.89,38.23 C146.013334,38.1766664 146.115,38.0983339 146.195,37.995 C146.275,37.8916662 146.315,37.7600008 146.315,37.6 C146.315,37.3799989 146.231667,37.2133339 146.065,37.1 C145.898333,36.9866661 145.690001,36.8950004 145.44,36.825 C145.189999,36.7549997 144.918335,36.6916669 144.625,36.635 C144.331665,36.578333 144.060001,36.4983339 143.81,36.395 C143.559999,36.2916661 143.351667,36.1466676 143.185,35.96 C143.018332,35.7733324 142.935,35.513335 142.935,35.18 C142.935,34.9199987 142.993333,34.6966676 143.11,34.51 C143.226667,34.3233324 143.376666,34.1716672 143.56,34.055 C143.743334,33.9383328 143.949999,33.851667 144.18,33.795 C144.410001,33.7383331 144.638332,33.71 144.865,33.71 C145.158335,33.71 145.428332,33.7349998 145.675,33.785 C145.921668,33.8350003 146.139999,33.921666 146.33,34.045 C146.520001,34.168334 146.671666,34.3349989 146.785,34.545 C146.898334,34.7550011 146.965,35.0166651 146.985,35.33 L146.135,35.33 C146.121667,35.1633325 146.078334,35.0250006 146.005,34.915 C145.931666,34.8049994 145.838334,34.716667 145.725,34.65 C145.611666,34.583333 145.486667,34.5350002 145.35,34.505 C145.213333,34.4749999 145.075001,34.46 144.935,34.46 C144.808333,34.46 144.680001,34.4699999 144.55,34.49 C144.419999,34.5100001 144.301667,34.5449998 144.195,34.595 C144.088333,34.6450002 144.001667,34.7116663 143.935,34.795 C143.868333,34.8783337 143.835,34.986666 143.835,35.12 C143.835,35.2666674 143.886666,35.3883328 143.99,35.485 C144.093334,35.5816672 144.224999,35.6616664 144.385,35.725 C144.545001,35.7883336 144.724999,35.8416665 144.925,35.885 C145.125001,35.9283336 145.324999,35.9733331 145.525,36.02 C145.738334,36.0666669 145.946666,36.123333 146.15,36.19 C146.353334,36.256667 146.533333,36.3449995 146.69,36.455 C146.846667,36.5650006 146.973333,36.7033325 147.07,36.87 C147.166667,37.0366675 147.215,37.2433321 147.215,37.49 C147.215,37.8033349 147.150001,38.0633323 147.02,38.27 C146.889999,38.4766677 146.720001,38.6433327 146.51,38.77 C146.299999,38.8966673 146.063335,38.9849998 145.8,39.035 C145.536665,39.0850003 145.275001,39.11 145.015,39.11 C144.728332,39.11 144.455001,39.0800003 144.195,39.02 C143.934999,38.9599997 143.705001,38.8616674 143.505,38.725 C143.304999,38.5883326 143.145001,38.4083344 143.025,38.185 C142.904999,37.9616656 142.838333,37.6900016 142.825,37.37 L143.675,37.37 Z" id="Shaketocreatemosaicpatterns"></path>
                        <path d="M41.7055,4.862 L45.4625,4.862 L48.3015,13.209 L48.3355,13.209 L51.0215,4.862 L54.7785,4.862 L54.7785,17 L52.2795,17 L52.2795,8.398 L52.2455,8.398 L49.2705,17 L47.2135,17 L44.2385,8.483 L44.2045,8.483 L44.2045,17 L41.7055,17 L41.7055,4.862 Z M59.2665,10.982 C59.2665,11.4920025 59.3259994,11.9878309 59.445,12.4695 C59.5640006,12.9511691 59.753832,13.3846647 60.0145,13.77 C60.275168,14.1553353 60.6151646,14.4641655 61.0345,14.6965 C61.4538354,14.9288345 61.9638303,15.045 62.5645,15.045 C63.1651697,15.045 63.6751646,14.9288345 64.0945,14.6965 C64.5138354,14.4641655 64.853832,14.1553353 65.1145,13.77 C65.375168,13.3846647 65.5649994,12.9511691 65.684,12.4695 C65.8030006,11.9878309 65.8625,11.4920025 65.8625,10.982 C65.8625,10.4493307 65.8030006,9.93366916 65.684,9.435 C65.5649994,8.93633084 65.375168,8.49150195 65.1145,8.1005 C64.853832,7.70949804 64.5138354,7.39783449 64.0945,7.1655 C63.6751646,6.9331655 63.1651697,6.817 62.5645,6.817 C61.9638303,6.817 61.4538354,6.9331655 61.0345,7.1655 C60.6151646,7.39783449 60.275168,7.70949804 60.0145,8.1005 C59.753832,8.49150195 59.5640006,8.93633084 59.445,9.435 C59.3259994,9.93366916 59.2665,10.4493307 59.2665,10.982 Z M56.5975,10.982 C56.5975,10.0753288 56.7334986,9.23383722 57.0055,8.4575 C57.2775014,7.68116278 57.6684975,7.00400289 58.1785,6.426 C58.6885025,5.84799711 59.314663,5.39466831 60.057,5.066 C60.799337,4.73733169 61.635162,4.573 62.5645,4.573 C63.5051714,4.573 64.3438297,4.73733169 65.0805,5.066 C65.8171703,5.39466831 66.4404975,5.84799711 66.9505,6.426 C67.4605026,7.00400289 67.8514986,7.68116278 68.1235,8.4575 C68.3955014,9.23383722 68.5315,10.0753288 68.5315,10.982 C68.5315,11.8660044 68.3955014,12.6904962 68.1235,13.4555 C67.8514986,14.2205038 67.4605026,14.8863305 66.9505,15.453 C66.4404975,16.0196695 65.8171703,16.4644984 65.0805,16.7875 C64.3438297,17.1105016 63.5051714,17.272 62.5645,17.272 C61.635162,17.272 60.799337,17.1105016 60.057,16.7875 C59.314663,16.4644984 58.6885025,16.0196695 58.1785,15.453 C57.6684975,14.8863305 57.2775014,14.2205038 57.0055,13.4555 C56.7334986,12.6904962 56.5975,11.8660044 56.5975,10.982 Z M72.1695,12.971 C72.1695,13.379002 72.2431659,13.7246653 72.3905,14.008 C72.5378341,14.2913348 72.7333321,14.5208325 72.977,14.6965 C73.2206679,14.8721675 73.5068317,15.0024996 73.8355,15.0875 C74.1641683,15.1725004 74.5041649,15.215 74.8555,15.215 C75.0935012,15.215 75.3484986,15.1951669 75.6205,15.1555 C75.8925014,15.1158331 76.1474988,15.0393339 76.3855,14.926 C76.6235012,14.8126661 76.8218325,14.6568343 76.9805,14.4585 C77.1391675,14.2601657 77.2185,14.0080015 77.2185,13.702 C77.2185,13.3733317 77.1136677,13.107001 76.904,12.903 C76.6943323,12.698999 76.4195017,12.5290007 76.0795,12.393 C75.7394983,12.2569993 75.3541688,12.1380005 74.9235,12.036 C74.4928312,11.9339995 74.0565022,11.8206673 73.6145,11.696 C73.1611644,11.5826661 72.7191688,11.4438342 72.2885,11.2795 C71.8578312,11.1151658 71.4725017,10.902668 71.1325,10.642 C70.7924983,10.381332 70.5176677,10.055502 70.308,9.6645 C70.0983323,9.27349805 69.9935,8.80033611 69.9935,8.245 C69.9935,7.62166355 70.1266653,7.08050229 70.393,6.6215 C70.6593347,6.1624977 71.0078312,5.78000153 71.4385,5.474 C71.8691688,5.16799847 72.3564973,4.94133407 72.9005,4.794 C73.4445027,4.64666593 73.9884973,4.573 74.5325,4.573 C75.1671698,4.573 75.7763304,4.64383262 76.36,4.7855 C76.9436696,4.92716737 77.4621644,5.15666508 77.9155,5.474 C78.3688356,5.79133492 78.7286653,6.19649753 78.995,6.6895 C79.2613347,7.18250246 79.3945,7.78032982 79.3945,8.483 L76.8105,8.483 C76.7878332,8.12033152 76.711334,7.82000119 76.581,7.582 C76.450666,7.34399881 76.2778344,7.15700068 76.0625,7.021 C75.8471656,6.88499932 75.6006681,6.78866695 75.323,6.732 C75.0453319,6.67533305 74.7421683,6.647 74.4135,6.647 C74.1981656,6.647 73.9828344,6.66966644 73.7675,6.715 C73.5521656,6.76033356 73.3566675,6.8396661 73.181,6.953 C73.0053325,7.0663339 72.8608339,7.20799915 72.7475,7.378 C72.6341661,7.54800085 72.5775,7.76333203 72.5775,8.024 C72.5775,8.26200119 72.6228329,8.45466593 72.7135,8.602 C72.8041671,8.74933407 72.9826653,8.88533271 73.249,9.01 C73.5153347,9.13466729 73.8836643,9.25933271 74.354,9.384 C74.8243357,9.50866729 75.4391629,9.66733237 76.1985,9.86 C76.4251678,9.90533356 76.7396647,9.98749941 77.142,10.1065 C77.5443353,10.2255006 77.9438313,10.415332 78.3405,10.676 C78.7371687,10.936668 79.0799986,11.2851645 79.369,11.7215 C79.6580014,12.1578355 79.8025,12.7159966 79.8025,13.396 C79.8025,13.9513361 79.6948344,14.4669976 79.4795,14.943 C79.2641656,15.4190024 78.9440021,15.8298316 78.519,16.1755 C78.0939979,16.5211684 77.5670031,16.7903324 76.938,16.983 C76.3089969,17.1756676 75.5808375,17.272 74.7535,17.272 C74.08483,17.272 73.4360031,17.1898342 72.807,17.0255 C72.1779969,16.8611658 71.6226691,16.6033351 71.141,16.252 C70.6593309,15.9006649 70.2768347,15.4530027 69.9935,14.909 C69.7101652,14.3649973 69.5741666,13.7190037 69.5855,12.971 L72.1695,12.971 Z M84.4435,12.308 L87.5885,12.308 L86.0585,7.854 L86.0245,7.854 L84.4435,12.308 Z M84.6985,4.862 L87.4355,4.862 L91.9745,17 L89.2035,17 L88.2855,14.297 L83.7465,14.297 L82.7945,17 L80.1085,17 L84.6985,4.862 Z M93.0285,4.862 L95.6975,4.862 L95.6975,17 L93.0285,17 L93.0285,4.862 Z M106.1355,8.942 C106.090166,8.63599847 105.988167,8.35550127 105.8295,8.1005 C105.670833,7.84549872 105.472501,7.62166763 105.2345,7.429 C104.996499,7.23633237 104.727335,7.0861672 104.427,6.9785 C104.126665,6.87083279 103.812168,6.817 103.4835,6.817 C102.88283,6.817 102.372835,6.9331655 101.9535,7.1655 C101.534165,7.39783449 101.194168,7.70949804 100.9335,8.1005 C100.672832,8.49150196 100.483001,8.93633084 100.364,9.435 C100.244999,9.93366916 100.1855,10.4493307 100.1855,10.982 C100.1855,11.4920026 100.244999,11.9878309 100.364,12.4695 C100.483001,12.9511691 100.672832,13.3846647 100.9335,13.77 C101.194168,14.1553353 101.534165,14.4641655 101.9535,14.6965 C102.372835,14.9288345 102.88283,15.045 103.4835,15.045 C104.299504,15.045 104.936998,14.7956692 105.396,14.297 C105.855002,13.7983308 106.135499,13.1410041 106.2375,12.325 L108.8215,12.325 C108.7535,13.0843371 108.577835,13.7699969 108.2945,14.382 C108.011165,14.9940031 107.637169,15.5153312 107.1725,15.946 C106.707831,16.3766688 106.163836,16.7053322 105.5405,16.932 C104.917164,17.1586678 104.231504,17.272 103.4835,17.272 C102.554162,17.272 101.718337,17.1105016 100.976,16.7875 C100.233663,16.4644984 99.6075025,16.0196695 99.0975,15.453 C98.5874975,14.8863305 98.1965014,14.2205038 97.9245,13.4555 C97.6524986,12.6904962 97.5165,11.8660044 97.5165,10.982 C97.5165,10.0753288 97.6524986,9.23383722 97.9245,8.4575 C98.1965014,7.68116278 98.5874975,7.00400289 99.0975,6.426 C99.6075025,5.84799711 100.233663,5.39466831 100.976,5.066 C101.718337,4.73733169 102.554162,4.573 103.4835,4.573 C104.15217,4.573 104.783997,4.66933237 105.379,4.862 C105.974003,5.05466763 106.506664,5.33516482 106.977,5.7035 C107.447336,6.07183517 107.835498,6.52799728 108.1415,7.072 C108.447502,7.61600272 108.640166,8.23932982 108.7195,8.942 L106.1355,8.942 Z" id="MOSAIC"></path>
                    </g>
                </g>
            </g>
        </g>
    </g>
</svg>