<?xml version="1.0" encoding="UTF-8"?>
<svg width="94px" height="65px" viewBox="0 0 94 65" version="1.1" xmlns="http://www.w3.org/2000/svg" xmlns:xlink="http://www.w3.org/1999/xlink">
    <!-- Generator: Sketch 54.1 (76490) - https://sketchapp.com -->
    <title>Text</title>
    <desc>Created with Sketch.</desc>
    <g id="页面1" stroke="none" stroke-width="1" fill="none" fill-rule="evenodd">
        <g id="C-35&gt;Shake-to-Remix&gt;EN" transform="translate(-231.000000, -266.000000)" fill="#1B1B1B" fill-rule="nonzero">
            <g id="Content" transform="translate(12.000000, 76.000000)">
                <g id="02_MoMACollage" transform="translate(181.000000, 0.000000)">
                    <g id="Text" transform="translate(10.000000, 184.000000)">
                        <path d="M55.682,6.718 L58.555,6.718 L60.726,13.101 L60.752,13.101 L62.806,6.718 L65.679,6.718 L65.679,16 L63.768,16 L63.768,9.422 L63.742,9.422 L61.467,16 L59.894,16 L57.619,9.487 L57.593,9.487 L57.593,16 L55.682,16 L55.682,6.718 Z M68.916,12.646 C68.916,12.914668 68.9419997,13.1768321 68.994,13.4325 C69.0460003,13.6881679 69.1348327,13.9178323 69.2605,14.1215 C69.3861673,14.3251677 69.552999,14.4876661 69.761,14.609 C69.969001,14.7303339 70.2289984,14.791 70.541,14.791 C70.8530016,14.791 71.1151656,14.7303339 71.3275,14.609 C71.5398344,14.4876661 71.7088327,14.3251677 71.8345,14.1215 C71.9601673,13.9178323 72.0489997,13.6881679 72.101,13.4325 C72.1530003,13.1768321 72.179,12.914668 72.179,12.646 C72.179,12.377332 72.1530003,12.1130013 72.101,11.853 C72.0489997,11.5929987 71.9601673,11.3633343 71.8345,11.164 C71.7088327,10.9646657 71.5398344,10.8021673 71.3275,10.6765 C71.1151656,10.5508327 70.8530016,10.488 70.541,10.488 C70.2289984,10.488 69.969001,10.5508327 69.761,10.6765 C69.552999,10.8021673 69.3861673,10.9646657 69.2605,11.164 C69.1348327,11.3633343 69.0460003,11.5929987 68.994,11.853 C68.9419997,12.1130013 68.916,12.377332 68.916,12.646 Z M67.07,12.646 C67.07,12.108664 67.1523325,11.6211689 67.317,11.1835 C67.4816675,10.7458311 67.7156651,10.3731682 68.019,10.0655 C68.3223348,9.7578318 68.6863312,9.51950085 69.111,9.3505 C69.5356688,9.18149916 70.0123307,9.097 70.541,9.097 C71.0696693,9.097 71.5484979,9.18149916 71.9775,9.3505 C72.4065021,9.51950085 72.7726651,9.7578318 73.076,10.0655 C73.3793348,10.3731682 73.6133325,10.7458311 73.778,11.1835 C73.9426675,11.6211689 74.025,12.108664 74.025,12.646 C74.025,13.183336 73.9426675,13.6686645 73.778,14.102 C73.6133325,14.5353355 73.3793348,14.9058318 73.076,15.2135 C72.7726651,15.5211682 72.4065021,15.7573325 71.9775,15.922 C71.5484979,16.0866675 71.0696693,16.169 70.541,16.169 C70.0123307,16.169 69.5356688,16.0866675 69.111,15.922 C68.6863312,15.7573325 68.3223348,15.5211682 68.019,15.2135 C67.7156651,14.9058318 67.4816675,14.5353355 67.317,14.102 C67.1523325,13.6686645 67.07,13.183336 67.07,12.646 Z M75.416,6.718 L78.289,6.718 L80.46,13.101 L80.486,13.101 L82.54,6.718 L85.413,6.718 L85.413,16 L83.502,16 L83.502,9.422 L83.476,9.422 L81.201,16 L79.628,16 L77.353,9.487 L77.327,9.487 L77.327,16 L75.416,16 L75.416,6.718 Z M89.547,12.412 L91.952,12.412 L90.782,9.006 L90.756,9.006 L89.547,12.412 Z M89.742,6.718 L91.835,6.718 L95.306,16 L93.187,16 L92.485,13.933 L89.014,13.933 L88.286,16 L86.232,16 L89.742,6.718 Z M43.4905,26.942 C43.4451664,26.6359985 43.3431675,26.3555013 43.1845,26.1005 C43.0258325,25.8454987 42.8275012,25.6216676 42.5895,25.429 C42.3514988,25.2363324 42.0823348,25.0861672 41.782,24.9785 C41.4816652,24.8708328 41.1671683,24.817 40.8385,24.817 C40.2378303,24.817 39.7278354,24.9331655 39.3085,25.1655 C38.8891646,25.3978345 38.549168,25.709498 38.2885,26.1005 C38.027832,26.491502 37.8380006,26.9363308 37.719,27.435 C37.5999994,27.9336692 37.5405,28.4493307 37.5405,28.982 C37.5405,29.4920026 37.5999994,29.9878309 37.719,30.4695 C37.8380006,30.9511691 38.027832,31.3846647 38.2885,31.77 C38.549168,32.1553353 38.8891646,32.4641655 39.3085,32.6965 C39.7278354,32.9288345 40.2378303,33.045 40.8385,33.045 C41.6545041,33.045 42.2919977,32.7956692 42.751,32.297 C43.2100023,31.7983308 43.4904995,31.1410041 43.5925,30.325 L46.1765,30.325 C46.1084997,31.0843371 45.9328347,31.7699969 45.6495,32.382 C45.3661652,32.9940031 44.992169,33.5153312 44.5275,33.946 C44.062831,34.3766688 43.5188365,34.7053322 42.8955,34.932 C42.2721636,35.1586678 41.5865037,35.272 40.8385,35.272 C39.909162,35.272 39.073337,35.1105016 38.331,34.7875 C37.588663,34.4644984 36.9625025,34.0196695 36.4525,33.453 C35.9424974,32.8863305 35.5515014,32.2205038 35.2795,31.4555 C35.0074986,30.6904962 34.8715,29.8660044 34.8715,28.982 C34.8715,28.0753288 35.0074986,27.2338372 35.2795,26.4575 C35.5515014,25.6811628 35.9424974,25.0040029 36.4525,24.426 C36.9625025,23.8479971 37.588663,23.3946683 38.331,23.066 C39.073337,22.7373317 39.909162,22.573 40.8385,22.573 C41.50717,22.573 42.138997,22.6693324 42.734,22.862 C43.329003,23.0546676 43.8616643,23.3351648 44.332,23.7035 C44.8023357,24.0718352 45.1904985,24.5279973 45.4965,25.072 C45.8025015,25.6160027 45.9951663,26.2393298 46.0745,26.942 L43.4905,26.942 Z M50.1375,28.982 C50.1375,29.4920026 50.1969994,29.9878309 50.316,30.4695 C50.4350006,30.9511691 50.624832,31.3846647 50.8855,31.77 C51.146168,32.1553353 51.4861646,32.4641655 51.9055,32.6965 C52.3248354,32.9288345 52.8348303,33.045 53.4355,33.045 C54.0361697,33.045 54.5461646,32.9288345 54.9655,32.6965 C55.3848354,32.4641655 55.724832,32.1553353 55.9855,31.77 C56.246168,31.3846647 56.4359994,30.9511691 56.555,30.4695 C56.6740006,29.9878309 56.7335,29.4920026 56.7335,28.982 C56.7335,28.4493307 56.6740006,27.9336692 56.555,27.435 C56.4359994,26.9363308 56.246168,26.491502 55.9855,26.1005 C55.724832,25.709498 55.3848354,25.3978345 54.9655,25.1655 C54.5461646,24.9331655 54.0361697,24.817 53.4355,24.817 C52.8348303,24.817 52.3248354,24.9331655 51.9055,25.1655 C51.4861646,25.3978345 51.146168,25.709498 50.8855,26.1005 C50.624832,26.491502 50.4350006,26.9363308 50.316,27.435 C50.1969994,27.9336692 50.1375,28.4493307 50.1375,28.982 Z M47.4685,28.982 C47.4685,28.0753288 47.6044986,27.2338372 47.8765,26.4575 C48.1485014,25.6811628 48.5394974,25.0040029 49.0495,24.426 C49.5595025,23.8479971 50.185663,23.3946683 50.928,23.066 C51.670337,22.7373317 52.506162,22.573 53.4355,22.573 C54.3761714,22.573 55.2148296,22.7373317 55.9515,23.066 C56.6881704,23.3946683 57.3114975,23.8479971 57.8215,24.426 C58.3315025,25.0040029 58.7224986,25.6811628 58.9945,26.4575 C59.2665014,27.2338372 59.4025,28.0753288 59.4025,28.982 C59.4025,29.8660044 59.2665014,30.6904962 58.9945,31.4555 C58.7224986,32.2205038 58.3315025,32.8863305 57.8215,33.453 C57.3114975,34.0196695 56.6881704,34.4644984 55.9515,34.7875 C55.2148296,35.1105016 54.3761714,35.272 53.4355,35.272 C52.506162,35.272 51.670337,35.1105016 50.928,34.7875 C50.185663,34.4644984 49.5595025,34.0196695 49.0495,33.453 C48.5394974,32.8863305 48.1485014,32.2205038 47.8765,31.4555 C47.6044986,30.6904962 47.4685,29.8660044 47.4685,28.982 Z M61.2215,22.862 L63.8905,22.862 L63.8905,32.756 L69.8065,32.756 L69.8065,35 L61.2215,35 L61.2215,22.862 Z M71.3025,22.862 L73.9715,22.862 L73.9715,32.756 L79.8875,32.756 L79.8875,35 L71.3025,35 L71.3025,22.862 Z M84.4435,30.308 L87.5885,30.308 L86.0585,25.854 L86.0245,25.854 L84.4435,30.308 Z M84.6985,22.862 L87.4355,22.862 L91.9745,35 L89.2035,35 L88.2855,32.297 L83.7465,32.297 L82.7945,35 L80.1085,35 L84.6985,22.862 Z M101.8005,33.623 C101.324498,34.2350031 100.797503,34.6628321 100.2195,34.9065 C99.6414971,35.1501679 99.0578363,35.272 98.4685,35.272 C97.539162,35.272 96.703337,35.1105016 95.961,34.7875 C95.218663,34.4644984 94.5925025,34.0196695 94.0825,33.453 C93.5724975,32.8863305 93.1815014,32.2205038 92.9095,31.4555 C92.6374986,30.6904962 92.5015,29.8660044 92.5015,28.982 C92.5015,28.0753288 92.6374986,27.2338372 92.9095,26.4575 C93.1815014,25.6811628 93.5724975,25.0040029 94.0825,24.426 C94.5925025,23.8479971 95.218663,23.3946683 95.961,23.066 C96.703337,22.7373317 97.539162,22.573 98.4685,22.573 C99.0918364,22.573 99.6953304,22.6664991 100.279,22.8535 C100.86267,23.0405009 101.389664,23.3153315 101.86,23.678 C102.330336,24.0406685 102.718498,24.4883307 103.0245,25.021 C103.330502,25.5536693 103.5175,26.1656632 103.5855,26.857 L101.0355,26.857 C100.876833,26.1769966 100.570836,25.6670017 100.1175,25.327 C99.6641644,24.9869983 99.1145032,24.817 98.4685,24.817 C97.8678303,24.817 97.3578354,24.9331655 96.9385,25.1655 C96.5191646,25.3978345 96.179168,25.709498 95.9185,26.1005 C95.657832,26.491502 95.4680006,26.9363308 95.349,27.435 C95.2299994,27.9336692 95.1705,28.4493307 95.1705,28.982 C95.1705,29.4920026 95.2299994,29.9878309 95.349,30.4695 C95.4680006,30.9511691 95.657832,31.3846647 95.9185,31.77 C96.179168,32.1553353 96.5191646,32.4641655 96.9385,32.6965 C97.3578354,32.9288345 97.8678303,33.045 98.4685,33.045 C99.3525044,33.045 100.035331,32.8211689 100.517,32.3735 C100.998669,31.9258311 101.279166,31.2770042 101.3585,30.427 L98.6725,30.427 L98.6725,28.438 L103.7725,28.438 L103.7725,35 L102.0725,35 L101.8005,33.623 Z M105.9315,22.862 L115.0095,22.862 L115.0095,25.106 L108.6005,25.106 L108.6005,27.707 L114.4825,27.707 L114.4825,29.781 L108.6005,29.781 L108.6005,32.756 L115.1455,32.756 L115.1455,35 L105.9315,35 L105.9315,22.862 Z" id="MoMACOLLAGE"></path>
                        <path d="M33.86,51.01 C33.7533328,50.5033308 33.5183352,50.1233346 33.155,49.87 C32.7916649,49.6166654 32.3600025,49.49 31.86,49.49 C31.4333312,49.49 31.0683349,49.5699992 30.765,49.73 C30.4616652,49.8900008 30.2116677,50.1049986 30.015,50.375 C29.8183323,50.6450014 29.6733338,50.9533316 29.58,51.3 C29.4866662,51.6466684 29.44,52.0066648 29.44,52.38 C29.44,52.7866687 29.4866662,53.1716648 29.58,53.535 C29.6733338,53.8983352 29.8183323,54.2149986 30.015,54.485 C30.2116677,54.7550014 30.4633318,54.9699992 30.77,55.13 C31.0766682,55.2900008 31.4433312,55.37 31.87,55.37 C32.1833349,55.37 32.4616655,55.3183339 32.705,55.215 C32.9483346,55.1116661 33.1583325,54.9683342 33.335,54.785 C33.5116675,54.6016658 33.6499995,54.3833346 33.75,54.13 C33.8500005,53.8766654 33.9099999,53.6033348 33.93,53.31 L34.88,53.31 C34.7866662,54.2100045 34.4766693,54.9099975 33.95,55.41 C33.4233307,55.9100025 32.7033379,56.16 31.79,56.16 C31.2366639,56.16 30.7533354,56.0650009 30.34,55.875 C29.9266646,55.6849991 29.5833347,55.423335 29.31,55.09 C29.0366653,54.756665 28.8316674,54.3633356 28.695,53.91 C28.5583327,53.4566644 28.49,52.9700026 28.49,52.45 C28.49,51.9299974 28.5633326,51.441669 28.71,50.985 C28.8566674,50.528331 29.0716653,50.1300017 29.355,49.79 C29.6383348,49.4499983 29.9916646,49.1816677 30.415,48.985 C30.8383355,48.7883323 31.3233306,48.69 31.87,48.69 C32.2433352,48.69 32.596665,48.7399995 32.93,48.84 C33.263335,48.9400005 33.5599987,49.0866657 33.82,49.28 C34.0800013,49.4733343 34.2966658,49.7149986 34.47,50.005 C34.6433342,50.2950015 34.7566664,50.6299981 34.81,51.01 L33.86,51.01 Z M35.89,50.83 L36.69,50.83 L36.69,51.92 L36.71,51.92 C36.9166677,51.4999979 37.1699985,51.190001 37.47,50.99 C37.7700015,50.789999 38.1499977,50.6966666 38.61,50.71 L38.61,51.61 C38.2699983,51.61 37.9800012,51.6566662 37.74,51.75 C37.4999988,51.8433338 37.3066674,51.9799991 37.16,52.16 C37.0133326,52.3400009 36.906667,52.5583321 36.84,52.815 C36.773333,53.0716679 36.74,53.366665 36.74,53.7 L36.74,56 L35.89,56 L35.89,50.83 Z M42.66,52.92 C42.6466666,52.719999 42.6016671,52.5300009 42.525,52.35 C42.4483329,52.1699991 42.3450007,52.0150006 42.215,51.885 C42.0849993,51.7549993 41.9316676,51.6516671 41.755,51.575 C41.5783325,51.498333 41.3833344,51.46 41.17,51.46 C40.9499989,51.46 40.7516676,51.498333 40.575,51.575 C40.3983325,51.6516671 40.2466673,51.756666 40.12,51.89 C39.9933327,52.023334 39.8933337,52.1783324 39.82,52.355 C39.7466663,52.5316676 39.7033334,52.719999 39.69,52.92 L42.66,52.92 Z M43.48,54.36 C43.3666661,54.9400029 43.1166686,55.3766652 42.73,55.67 C42.3433314,55.9633348 41.8566696,56.11 41.27,56.11 C40.8566646,56.11 40.4983348,56.043334 40.195,55.91 C39.8916652,55.776666 39.6366677,55.5900012 39.43,55.35 C39.2233323,55.1099988 39.0683338,54.823335 38.965,54.49 C38.8616661,54.156665 38.8033334,53.7933353 38.79,53.4 C38.79,53.0066647 38.8499994,52.6466683 38.97,52.32 C39.0900006,51.9933317 39.2583323,51.7100012 39.475,51.47 C39.6916678,51.2299988 39.9483318,51.043334 40.245,50.91 C40.5416681,50.776666 40.8666649,50.71 41.22,50.71 C41.6800023,50.71 42.0616651,50.804999 42.365,50.995 C42.6683349,51.185001 42.9116657,51.4266652 43.095,51.72 C43.2783343,52.0133348 43.4049996,52.3333316 43.475,52.68 C43.5450003,53.0266684 43.5733334,53.3566651 43.56,53.67 L39.69,53.67 C39.6833333,53.8966678 39.7099997,54.1116656 39.77,54.315 C39.8300003,54.5183344 39.926666,54.6983326 40.06,54.855 C40.193334,55.0116675 40.3633323,55.1366662 40.57,55.23 C40.7766677,55.3233338 41.0199986,55.37 41.3,55.37 C41.6600018,55.37 41.9549989,55.2866675 42.185,55.12 C42.4150012,54.9533325 42.5666663,54.7000017 42.64,54.36 L43.48,54.36 Z M49.02,55.98 C48.8733326,56.0666671 48.6700013,56.11 48.41,56.11 C48.1899989,56.11 48.0150006,56.0483339 47.885,55.925 C47.7549993,55.8016661 47.69,55.6000014 47.69,55.32 C47.4566655,55.6000014 47.1850015,55.8016661 46.875,55.925 C46.5649984,56.0483339 46.2300018,56.11 45.87,56.11 C45.6366655,56.11 45.4150011,56.0833336 45.205,56.03 C44.9949989,55.9766664 44.8133341,55.8933339 44.66,55.78 C44.5066659,55.6666661 44.3850004,55.5183342 44.295,55.335 C44.2049995,55.1516657 44.16,54.9300013 44.16,54.67 C44.16,54.3766652 44.2099995,54.1366676 44.31,53.95 C44.4100005,53.7633324 44.5416658,53.6116672 44.705,53.495 C44.8683341,53.3783327 45.0549989,53.2900003 45.265,53.23 C45.4750011,53.1699997 45.6899989,53.1200002 45.91,53.08 C46.1433345,53.0333331 46.364999,52.9983334 46.575,52.975 C46.785001,52.9516665 46.9699992,52.9183335 47.13,52.875 C47.2900008,52.8316665 47.4166662,52.7683337 47.51,52.685 C47.6033338,52.6016663 47.65,52.4800008 47.65,52.32 C47.65,52.1333324 47.6150004,51.9833339 47.545,51.87 C47.4749997,51.7566661 47.3850006,51.6700003 47.275,51.61 C47.1649994,51.5499997 47.0416673,51.5100001 46.905,51.49 C46.7683326,51.4699999 46.633334,51.46 46.5,51.46 C46.1399982,51.46 45.8400012,51.5283327 45.6,51.665 C45.3599988,51.8016674 45.2300001,52.0599981 45.21,52.44 L44.36,52.44 C44.3733334,52.1199984 44.4399994,51.8500011 44.56,51.63 C44.6800006,51.4099989 44.839999,51.2316674 45.04,51.095 C45.240001,50.9583327 45.468332,50.8600003 45.725,50.8 C45.981668,50.7399997 46.2566652,50.71 46.55,50.71 C46.7833345,50.71 47.0149988,50.7266665 47.245,50.76 C47.4750011,50.7933335 47.6833324,50.8616661 47.87,50.965 C48.0566676,51.0683339 48.2066661,51.2133324 48.32,51.4 C48.4333339,51.5866676 48.49,51.8299985 48.49,52.13 L48.49,54.79 C48.49,54.990001 48.5016665,55.1366662 48.525,55.23 C48.5483334,55.3233338 48.626666,55.37 48.76,55.37 C48.8333337,55.37 48.9199995,55.3533335 49.02,55.32 L49.02,55.98 Z M47.64,53.33 C47.5333328,53.4100004 47.3933342,53.4683331 47.22,53.505 C47.0466658,53.5416668 46.8650009,53.5716666 46.675,53.595 C46.484999,53.6183335 46.2933343,53.6449998 46.1,53.675 C45.9066657,53.7050001 45.7333341,53.753333 45.58,53.82 C45.4266659,53.886667 45.3016672,53.9816661 45.205,54.105 C45.1083328,54.2283339 45.06,54.3966656 45.06,54.61 C45.06,54.7500007 45.088333,54.8683329 45.145,54.965 C45.2016669,55.0616671 45.2749995,55.1399997 45.365,55.2 C45.4550005,55.2600003 45.5599994,55.3033332 45.68,55.33 C45.8000006,55.3566668 45.926666,55.37 46.06,55.37 C46.3400014,55.37 46.579999,55.3316671 46.78,55.255 C46.980001,55.1783329 47.1433327,55.0816672 47.27,54.965 C47.3966673,54.8483327 47.4899997,54.7216674 47.55,54.585 C47.6100003,54.4483326 47.64,54.3200006 47.64,54.2 L47.64,53.33 Z M50.99,50.83 L52.02,50.83 L52.02,51.58 L50.99,51.58 L50.99,54.79 C50.99,54.8900005 50.9983332,54.9699997 51.015,55.03 C51.0316667,55.0900003 51.0633331,55.1366665 51.11,55.17 C51.1566669,55.2033335 51.2216662,55.2249999 51.305,55.235 C51.3883337,55.2450001 51.496666,55.25 51.63,55.25 L52.02,55.25 L52.02,56 L51.37,56 C51.1499989,56 50.9616674,55.9850001 50.805,55.955 C50.6483325,55.9249998 50.5216671,55.8700004 50.425,55.79 C50.3283328,55.7099996 50.2566669,55.5966674 50.21,55.45 C50.1633331,55.3033326 50.14,55.1100012 50.14,54.87 L50.14,51.58 L49.26,51.58 L49.26,50.83 L50.14,50.83 L50.14,49.28 L50.99,49.28 L50.99,50.83 Z M56.55,52.92 C56.5366666,52.719999 56.491667,52.5300009 56.415,52.35 C56.3383329,52.1699991 56.2350006,52.0150006 56.105,51.885 C55.9749993,51.7549993 55.8216675,51.6516671 55.645,51.575 C55.4683324,51.498333 55.2733344,51.46 55.06,51.46 C54.8399989,51.46 54.6416675,51.498333 54.465,51.575 C54.2883324,51.6516671 54.1366673,51.756666 54.01,51.89 C53.8833327,52.023334 53.7833337,52.1783324 53.71,52.355 C53.6366663,52.5316676 53.5933334,52.719999 53.58,52.92 L56.55,52.92 Z M57.37,54.36 C57.2566661,54.9400029 57.0066686,55.3766652 56.62,55.67 C56.2333314,55.9633348 55.7466696,56.11 55.16,56.11 C54.7466646,56.11 54.3883348,56.043334 54.085,55.91 C53.7816651,55.776666 53.5266677,55.5900012 53.32,55.35 C53.1133323,55.1099988 52.9583338,54.823335 52.855,54.49 C52.7516661,54.156665 52.6933334,53.7933353 52.68,53.4 C52.68,53.0066647 52.7399994,52.6466683 52.86,52.32 C52.9800006,51.9933317 53.1483322,51.7100012 53.365,51.47 C53.5816677,51.2299988 53.8383318,51.043334 54.135,50.91 C54.4316681,50.776666 54.7566649,50.71 55.11,50.71 C55.5700023,50.71 55.9516651,50.804999 56.255,50.995 C56.5583348,51.185001 56.8016657,51.4266652 56.985,51.72 C57.1683342,52.0133348 57.2949996,52.3333316 57.365,52.68 C57.4350003,53.0266684 57.4633334,53.3566651 57.45,53.67 L53.58,53.67 C53.5733333,53.8966678 53.5999997,54.1116656 53.66,54.315 C53.7200003,54.5183344 53.816666,54.6983326 53.95,54.855 C54.083334,55.0116675 54.2533323,55.1366662 54.46,55.23 C54.6666677,55.3233338 54.9099986,55.37 55.19,55.37 C55.5500018,55.37 55.8449988,55.2866675 56.075,55.12 C56.3050011,54.9533325 56.4566663,54.7000017 56.53,54.36 L57.37,54.36 Z M65.69,55.98 C65.5433326,56.0666671 65.3400013,56.11 65.08,56.11 C64.8599989,56.11 64.6850006,56.0483339 64.555,55.925 C64.4249993,55.8016661 64.36,55.6000014 64.36,55.32 C64.1266655,55.6000014 63.8550015,55.8016661 63.545,55.925 C63.2349984,56.0483339 62.9000018,56.11 62.54,56.11 C62.3066655,56.11 62.085001,56.0833336 61.875,56.03 C61.6649989,55.9766664 61.4833341,55.8933339 61.33,55.78 C61.1766659,55.6666661 61.0550004,55.5183342 60.965,55.335 C60.8749995,55.1516657 60.83,54.9300013 60.83,54.67 C60.83,54.3766652 60.8799995,54.1366676 60.98,53.95 C61.0800005,53.7633324 61.2116658,53.6116672 61.375,53.495 C61.5383341,53.3783327 61.7249989,53.2900003 61.935,53.23 C62.145001,53.1699997 62.3599989,53.1200002 62.58,53.08 C62.8133345,53.0333331 63.0349989,52.9983334 63.245,52.975 C63.455001,52.9516665 63.6399992,52.9183335 63.8,52.875 C63.9600008,52.8316665 64.0866662,52.7683337 64.18,52.685 C64.2733338,52.6016663 64.32,52.4800008 64.32,52.32 C64.32,52.1333324 64.2850003,51.9833339 64.215,51.87 C64.1449996,51.7566661 64.0550005,51.6700003 63.945,51.61 C63.8349994,51.5499997 63.7116673,51.5100001 63.575,51.49 C63.4383326,51.4699999 63.303334,51.46 63.17,51.46 C62.8099982,51.46 62.5100012,51.5283327 62.27,51.665 C62.0299988,51.8016674 61.9000001,52.0599981 61.88,52.44 L61.03,52.44 C61.0433334,52.1199984 61.1099994,51.8500011 61.23,51.63 C61.3500006,51.4099989 61.509999,51.2316674 61.71,51.095 C61.910001,50.9583327 62.138332,50.8600003 62.395,50.8 C62.6516679,50.7399997 62.9266652,50.71 63.22,50.71 C63.4533345,50.71 63.6849988,50.7266665 63.915,50.76 C64.1450011,50.7933335 64.3533324,50.8616661 64.54,50.965 C64.7266676,51.0683339 64.8766661,51.2133324 64.99,51.4 C65.1033339,51.5866676 65.16,51.8299985 65.16,52.13 L65.16,54.79 C65.16,54.990001 65.1716665,55.1366662 65.195,55.23 C65.2183334,55.3233338 65.296666,55.37 65.43,55.37 C65.5033337,55.37 65.5899995,55.3533335 65.69,55.32 L65.69,55.98 Z M64.31,53.33 C64.2033328,53.4100004 64.0633342,53.4683331 63.89,53.505 C63.7166658,53.5416668 63.5350009,53.5716666 63.345,53.595 C63.154999,53.6183335 62.9633343,53.6449998 62.77,53.675 C62.5766657,53.7050001 62.4033341,53.753333 62.25,53.82 C62.0966659,53.886667 61.9716671,53.9816661 61.875,54.105 C61.7783328,54.2283339 61.73,54.3966656 61.73,54.61 C61.73,54.7500007 61.758333,54.8683329 61.815,54.965 C61.8716669,55.0616671 61.9449995,55.1399997 62.035,55.2 C62.1250004,55.2600003 62.2299994,55.3033332 62.35,55.33 C62.4700006,55.3566668 62.596666,55.37 62.73,55.37 C63.0100014,55.37 63.249999,55.3316671 63.45,55.255 C63.650001,55.1783329 63.8133327,55.0816672 63.94,54.965 C64.0666673,54.8483327 64.1599997,54.7216674 64.22,54.585 C64.2800003,54.4483326 64.31,54.3200006 64.31,54.2 L64.31,53.33 Z M72.77,52.49 C72.703333,52.1633317 72.5633344,51.9100009 72.35,51.73 C72.1366656,51.5499991 71.8500018,51.46 71.49,51.46 C71.1833318,51.46 70.9266677,51.5166661 70.72,51.63 C70.5133323,51.7433339 70.3483339,51.8933324 70.225,52.08 C70.101666,52.2666676 70.0133336,52.4816655 69.96,52.725 C69.9066664,52.9683346 69.88,53.2199987 69.88,53.48 C69.88,53.7200012 69.908333,53.9533322 69.965,54.18 C70.0216669,54.4066678 70.1099994,54.6083324 70.23,54.785 C70.3500006,54.9616676 70.5066657,55.1033328 70.7,55.21 C70.8933343,55.3166672 71.123332,55.37 71.39,55.37 C71.8100021,55.37 72.1383321,55.2600011 72.375,55.04 C72.6116678,54.8199989 72.7566664,54.510002 72.81,54.11 L73.68,54.11 C73.5866662,54.7500032 73.3483352,55.2433316 72.965,55.59 C72.5816647,55.9366684 72.0600033,56.11 71.4,56.11 C71.0066647,56.11 70.6583348,56.0466673 70.355,55.92 C70.0516651,55.7933327 69.7983343,55.6133345 69.595,55.38 C69.3916656,55.1466655 69.2383338,54.8683349 69.135,54.545 C69.0316661,54.221665 68.98,53.8666686 68.98,53.48 C68.98,53.0933314 69.0299995,52.7316683 69.13,52.395 C69.2300005,52.0583316 69.3816656,51.7650012 69.585,51.515 C69.7883343,51.2649988 70.0433318,51.0683341 70.35,50.925 C70.6566682,50.781666 71.0133313,50.71 71.42,50.71 C71.7133348,50.71 71.988332,50.7449996 72.245,50.815 C72.5016679,50.8850003 72.7283323,50.9933326 72.925,51.14 C73.1216676,51.2866674 73.2833327,51.4716655 73.41,51.695 C73.5366673,51.9183345 73.6166665,52.1833318 73.65,52.49 L72.77,52.49 Z M75.25,53.42 C75.25,53.7333349 75.2916662,54.0116655 75.375,54.255 C75.4583338,54.4983345 75.5733326,54.7016658 75.72,54.865 C75.8666674,55.0283341 76.0383323,55.1533329 76.235,55.24 C76.4316677,55.3266671 76.6399989,55.37 76.86,55.37 C77.0800011,55.37 77.2883323,55.3266671 77.485,55.24 C77.6816677,55.1533329 77.8533326,55.0283341 78,54.865 C78.1466674,54.7016658 78.2616662,54.4983345 78.345,54.255 C78.4283338,54.0116655 78.47,53.7333349 78.47,53.42 C78.47,53.1066651 78.4283338,52.8283346 78.345,52.585 C78.2616662,52.3416655 78.1466674,52.1366675 78,51.97 C77.8533326,51.8033325 77.6816677,51.6766671 77.485,51.59 C77.2883323,51.5033329 77.0800011,51.46 76.86,51.46 C76.6399989,51.46 76.4316677,51.5033329 76.235,51.59 C76.0383323,51.6766671 75.8666674,51.8033325 75.72,51.97 C75.5733326,52.1366675 75.4583338,52.3416655 75.375,52.585 C75.2916662,52.8283346 75.25,53.1066651 75.25,53.42 Z M74.35,53.42 C74.35,53.0399981 74.4033328,52.6850017 74.51,52.355 C74.6166672,52.0249984 74.7766656,51.7383346 74.99,51.495 C75.2033344,51.2516655 75.4666651,51.0600007 75.78,50.92 C76.0933349,50.7799993 76.4533313,50.71 76.86,50.71 C77.2733354,50.71 77.6349984,50.7799993 77.945,50.92 C78.2550016,51.0600007 78.5166656,51.2516655 78.73,51.495 C78.9433344,51.7383346 79.1033328,52.0249984 79.21,52.355 C79.3166672,52.6850017 79.37,53.0399981 79.37,53.42 C79.37,53.8000019 79.3166672,54.1533317 79.21,54.48 C79.1033328,54.8066683 78.9433344,55.0916655 78.73,55.335 C78.5166656,55.5783346 78.2550016,55.7683326 77.945,55.905 C77.6349984,56.0416673 77.2733354,56.11 76.86,56.11 C76.4533313,56.11 76.0933349,56.0416673 75.78,55.905 C75.4666651,55.7683326 75.2033344,55.5783346 74.99,55.335 C74.7766656,55.0916655 74.6166672,54.8066683 74.51,54.48 C74.4033328,54.1533317 74.35,53.8000019 74.35,53.42 Z M80.42,48.86 L81.27,48.86 L81.27,56 L80.42,56 L80.42,48.86 Z M82.64,48.86 L83.49,48.86 L83.49,56 L82.64,56 L82.64,48.86 Z M89.39,55.98 C89.2433326,56.0666671 89.0400013,56.11 88.78,56.11 C88.5599989,56.11 88.3850006,56.0483339 88.255,55.925 C88.1249993,55.8016661 88.06,55.6000014 88.06,55.32 C87.8266655,55.6000014 87.5550015,55.8016661 87.245,55.925 C86.9349984,56.0483339 86.6000018,56.11 86.24,56.11 C86.0066655,56.11 85.785001,56.0833336 85.575,56.03 C85.3649989,55.9766664 85.1833341,55.8933339 85.03,55.78 C84.8766659,55.6666661 84.7550004,55.5183342 84.665,55.335 C84.5749995,55.1516657 84.53,54.9300013 84.53,54.67 C84.53,54.3766652 84.5799995,54.1366676 84.68,53.95 C84.7800005,53.7633324 84.9116658,53.6116672 85.075,53.495 C85.2383341,53.3783327 85.4249989,53.2900003 85.635,53.23 C85.845001,53.1699997 86.0599989,53.1200002 86.28,53.08 C86.5133345,53.0333331 86.7349989,52.9983334 86.945,52.975 C87.155001,52.9516665 87.3399992,52.9183335 87.5,52.875 C87.6600008,52.8316665 87.7866662,52.7683337 87.88,52.685 C87.9733338,52.6016663 88.02,52.4800008 88.02,52.32 C88.02,52.1333324 87.9850003,51.9833339 87.915,51.87 C87.8449996,51.7566661 87.7550005,51.6700003 87.645,51.61 C87.5349994,51.5499997 87.4116673,51.5100001 87.275,51.49 C87.1383326,51.4699999 87.003334,51.46 86.87,51.46 C86.5099982,51.46 86.2100012,51.5283327 85.97,51.665 C85.7299988,51.8016674 85.6000001,52.0599981 85.58,52.44 L84.73,52.44 C84.7433334,52.1199984 84.8099994,51.8500011 84.93,51.63 C85.0500006,51.4099989 85.209999,51.2316674 85.41,51.095 C85.610001,50.9583327 85.838332,50.8600003 86.095,50.8 C86.3516679,50.7399997 86.6266652,50.71 86.92,50.71 C87.1533345,50.71 87.3849988,50.7266665 87.615,50.76 C87.8450011,50.7933335 88.0533324,50.8616661 88.24,50.965 C88.4266676,51.0683339 88.5766661,51.2133324 88.69,51.4 C88.8033339,51.5866676 88.86,51.8299985 88.86,52.13 L88.86,54.79 C88.86,54.990001 88.8716665,55.1366662 88.895,55.23 C88.9183334,55.3233338 88.996666,55.37 89.13,55.37 C89.2033337,55.37 89.2899995,55.3533335 89.39,55.32 L89.39,55.98 Z M88.01,53.33 C87.9033328,53.4100004 87.7633342,53.4683331 87.59,53.505 C87.4166658,53.5416668 87.2350009,53.5716666 87.045,53.595 C86.854999,53.6183335 86.6633343,53.6449998 86.47,53.675 C86.2766657,53.7050001 86.1033341,53.753333 85.95,53.82 C85.7966659,53.886667 85.6716671,53.9816661 85.575,54.105 C85.4783328,54.2283339 85.43,54.3966656 85.43,54.61 C85.43,54.7500007 85.458333,54.8683329 85.515,54.965 C85.5716669,55.0616671 85.6449995,55.1399997 85.735,55.2 C85.8250004,55.2600003 85.9299994,55.3033332 86.05,55.33 C86.1700006,55.3566668 86.296666,55.37 86.43,55.37 C86.7100014,55.37 86.949999,55.3316671 87.15,55.255 C87.350001,55.1783329 87.5133327,55.0816672 87.64,54.965 C87.7666673,54.8483327 87.8599997,54.7216674 87.92,54.585 C87.9800003,54.4483326 88.01,54.3200006 88.01,54.2 L88.01,53.33 Z M94.64,55.56 C94.64,56.4066709 94.4466686,57.0399979 94.06,57.46 C93.6733314,57.8800021 93.0666708,58.09 92.24,58.09 C91.9999988,58.09 91.7550012,58.0633336 91.505,58.01 C91.2549987,57.9566664 91.0283343,57.8700006 90.825,57.75 C90.6216657,57.6299994 90.453334,57.4733343 90.32,57.28 C90.186666,57.0866657 90.1133334,56.8500014 90.1,56.57 L90.95,56.57 C90.9566667,56.7233341 91.0049996,56.8533328 91.095,56.96 C91.1850004,57.0666672 91.2949994,57.153333 91.425,57.22 C91.5550007,57.286667 91.6966659,57.3349999 91.85,57.365 C92.0033341,57.3950002 92.1499993,57.41 92.29,57.41 C92.5700014,57.41 92.8066657,57.3616672 93,57.265 C93.1933343,57.1683328 93.3533327,57.0350009 93.48,56.865 C93.6066673,56.6949992 93.6983331,56.4900012 93.755,56.25 C93.8116669,56.0099988 93.84,55.7466681 93.84,55.46 L93.84,55.12 L93.82,55.12 C93.6733326,55.4400016 93.4516681,55.6749992 93.155,55.825 C92.8583318,55.9750007 92.543335,56.05 92.21,56.05 C91.8233314,56.05 91.4866681,55.9800007 91.2,55.84 C90.9133319,55.6999993 90.6733343,55.5116679 90.48,55.275 C90.2866657,55.0383322 90.1416671,54.7616682 90.045,54.445 C89.9483328,54.1283318 89.9,53.7933351 89.9,53.44 C89.9,53.1333318 89.9399996,52.818335 90.02,52.495 C90.1000004,52.1716651 90.2333324,51.8783346 90.42,51.615 C90.6066676,51.3516653 90.8533318,51.1350008 91.16,50.965 C91.4666682,50.7949992 91.8433311,50.71 92.29,50.71 C92.6166683,50.71 92.9166653,50.781666 93.19,50.925 C93.4633347,51.0683341 93.6766659,51.2833319 93.83,51.57 L93.84,51.57 L93.84,50.83 L94.64,50.83 L94.64,55.56 Z M92.26,55.31 C92.5400014,55.31 92.7783323,55.2516672 92.975,55.135 C93.1716676,55.0183327 93.3299994,54.865001 93.45,54.675 C93.5700006,54.484999 93.6583331,54.2700012 93.715,54.03 C93.7716669,53.7899988 93.8,53.5500012 93.8,53.31 C93.8,53.0833322 93.7733336,52.8600011 93.72,52.64 C93.6666664,52.4199989 93.5816672,52.2216675 93.465,52.045 C93.3483327,51.8683324 93.1966676,51.7266672 93.01,51.62 C92.8233324,51.5133328 92.596668,51.46 92.33,51.46 C92.0566653,51.46 91.8233343,51.5116662 91.63,51.615 C91.4366657,51.7183339 91.2783339,51.8566658 91.155,52.03 C91.031666,52.2033342 90.941667,52.4033322 90.885,52.63 C90.828333,52.8566678 90.8,53.0933321 90.8,53.34 C90.8,53.5733345 90.8233331,53.8066655 90.87,54.04 C90.9166669,54.2733345 90.9966661,54.484999 91.11,54.675 C91.2233339,54.865001 91.3733324,55.0183327 91.56,55.135 C91.7466676,55.2516672 91.9799986,55.31 92.26,55.31 Z M99.51,52.92 C99.4966666,52.719999 99.451667,52.5300009 99.375,52.35 C99.298333,52.1699991 99.1950006,52.0150006 99.065,51.885 C98.9349993,51.7549993 98.7816675,51.6516671 98.605,51.575 C98.4283324,51.498333 98.2333344,51.46 98.02,51.46 C97.7999989,51.46 97.6016675,51.498333 97.425,51.575 C97.2483324,51.6516671 97.0966673,51.756666 96.97,51.89 C96.8433327,52.023334 96.7433337,52.1783324 96.67,52.355 C96.5966663,52.5316676 96.5533334,52.719999 96.54,52.92 L99.51,52.92 Z M100.33,54.36 C100.216666,54.9400029 99.9666686,55.3766652 99.58,55.67 C99.1933314,55.9633348 98.7066696,56.11 98.12,56.11 C97.7066646,56.11 97.3483348,56.043334 97.045,55.91 C96.7416651,55.776666 96.4866677,55.5900012 96.28,55.35 C96.0733323,55.1099988 95.9183338,54.823335 95.815,54.49 C95.7116661,54.156665 95.6533334,53.7933353 95.64,53.4 C95.64,53.0066647 95.6999994,52.6466683 95.82,52.32 C95.9400006,51.9933317 96.1083322,51.7100012 96.325,51.47 C96.5416677,51.2299988 96.7983318,51.043334 97.095,50.91 C97.3916681,50.776666 97.7166649,50.71 98.07,50.71 C98.5300023,50.71 98.9116652,50.804999 99.215,50.995 C99.5183349,51.185001 99.7616657,51.4266652 99.945,51.72 C100.128334,52.0133348 100.255,52.3333316 100.325,52.68 C100.395,53.0266684 100.423333,53.3566651 100.41,53.67 L96.54,53.67 C96.5333333,53.8966678 96.5599997,54.1116656 96.62,54.315 C96.6800003,54.5183344 96.776666,54.6983326 96.91,54.855 C97.043334,55.0116675 97.2133323,55.1366662 97.42,55.23 C97.6266677,55.3233338 97.8699986,55.37 98.15,55.37 C98.5100018,55.37 98.8049989,55.2866675 99.035,55.12 C99.2650011,54.9533325 99.4166663,54.7000017 99.49,54.36 L100.33,54.36 Z M109.19,56 L108.29,56 L107.24,51.89 L107.22,51.89 L106.18,56 L105.26,56 L103.6,50.83 L104.54,50.83 L105.71,55.06 L105.73,55.06 L106.77,50.83 L107.7,50.83 L108.78,55.06 L108.8,55.06 L109.96,50.83 L110.84,50.83 L109.19,56 Z M112.55,49.9 L111.7,49.9 L111.7,48.86 L112.55,48.86 L112.55,49.9 Z M111.7,50.83 L112.55,50.83 L112.55,56 L111.7,56 L111.7,50.83 Z M115.05,50.83 L116.08,50.83 L116.08,51.58 L115.05,51.58 L115.05,54.79 C115.05,54.8900005 115.058333,54.9699997 115.075,55.03 C115.091667,55.0900003 115.123333,55.1366665 115.17,55.17 C115.216667,55.2033335 115.281666,55.2249999 115.365,55.235 C115.448334,55.2450001 115.556666,55.25 115.69,55.25 L116.08,55.25 L116.08,56 L115.43,56 C115.209999,56 115.021667,55.9850001 114.865,55.955 C114.708333,55.9249998 114.581667,55.8700004 114.485,55.79 C114.388333,55.7099996 114.316667,55.5966674 114.27,55.45 C114.223333,55.3033326 114.2,55.1100012 114.2,54.87 L114.2,51.58 L113.32,51.58 L113.32,50.83 L114.2,50.83 L114.2,49.28 L115.05,49.28 L115.05,50.83 Z M117.02,48.86 L117.87,48.86 L117.87,51.59 L117.89,51.59 C117.956667,51.4299992 118.049999,51.2950005 118.17,51.185 C118.290001,51.0749994 118.424999,50.9850003 118.575,50.915 C118.725001,50.8449996 118.881666,50.7933335 119.045,50.76 C119.208334,50.7266665 119.366666,50.71 119.52,50.71 C119.860002,50.71 120.143332,50.7566662 120.37,50.85 C120.596668,50.9433338 120.779999,51.0733325 120.92,51.24 C121.060001,51.4066675 121.158333,51.6049989 121.215,51.835 C121.271667,52.0650012 121.3,52.3199986 121.3,52.6 L121.3,56 L120.45,56 L120.45,52.5 C120.45,52.1799984 120.356668,51.9266676 120.17,51.74 C119.983332,51.5533324 119.726668,51.46 119.4,51.46 C119.139999,51.46 118.915001,51.4999996 118.725,51.58 C118.534999,51.6600004 118.376667,51.7733326 118.25,51.92 C118.123333,52.0666674 118.028334,52.2383324 117.965,52.435 C117.901666,52.6316676 117.87,52.8466655 117.87,53.08 L117.87,56 L117.02,56 L117.02,48.86 Z M43.66,63.01 C43.5533328,62.5033308 43.3183351,62.1233346 42.955,61.87 C42.5916649,61.6166654 42.1600025,61.49 41.66,61.49 C41.2333312,61.49 40.8683348,61.5699992 40.565,61.73 C40.2616651,61.8900008 40.0116676,62.1049986 39.815,62.375 C39.6183323,62.6450014 39.4733338,62.9533316 39.38,63.3 C39.2866662,63.6466684 39.24,64.0066648 39.24,64.38 C39.24,64.7866687 39.2866662,65.1716648 39.38,65.535 C39.4733338,65.8983352 39.6183323,66.2149986 39.815,66.485 C40.0116676,66.7550014 40.2633318,66.9699992 40.57,67.13 C40.8766682,67.2900008 41.2433312,67.37 41.67,67.37 C41.9833349,67.37 42.2616654,67.3183339 42.505,67.215 C42.7483345,67.1116662 42.9583325,66.9683342 43.135,66.785 C43.3116675,66.6016657 43.4499995,66.3833346 43.55,66.13 C43.6500005,65.8766654 43.7099999,65.6033348 43.73,65.31 L44.68,65.31 C44.5866662,66.2100045 44.2766693,66.9099975 43.75,67.41 C43.2233307,67.9100025 42.5033379,68.16 41.59,68.16 C41.0366639,68.16 40.5533354,68.0650009 40.14,67.875 C39.7266646,67.6849991 39.3833347,67.423335 39.11,67.09 C38.8366653,66.756665 38.6316674,66.3633356 38.495,65.91 C38.3583326,65.4566644 38.29,64.9700026 38.29,64.45 C38.29,63.9299974 38.3633326,63.441669 38.51,62.985 C38.6566674,62.528331 38.8716652,62.1300017 39.155,61.79 C39.4383347,61.4499983 39.7916646,61.1816677 40.215,60.985 C40.6383354,60.7883323 41.1233306,60.69 41.67,60.69 C42.0433352,60.69 42.396665,60.7399995 42.73,60.84 C43.063335,60.9400005 43.3599987,61.0866657 43.62,61.28 C43.8800013,61.4733343 44.0966658,61.7149986 44.27,62.005 C44.4433342,62.2950015 44.5566664,62.6299981 44.61,63.01 L43.66,63.01 Z M45.69,62.83 L46.49,62.83 L46.49,63.92 L46.51,63.92 C46.7166677,63.4999979 46.9699985,63.190001 47.27,62.99 C47.5700015,62.789999 47.9499977,62.6966666 48.41,62.71 L48.41,63.61 C48.0699983,63.61 47.7800012,63.6566662 47.54,63.75 C47.2999988,63.8433338 47.1066674,63.9799991 46.96,64.16 C46.8133326,64.3400009 46.706667,64.5583321 46.64,64.815 C46.573333,65.071668 46.54,65.366665 46.54,65.7 L46.54,68 L45.69,68 L45.69,62.83 Z M49.49,65.42 C49.49,65.7333349 49.5316663,66.0116655 49.615,66.255 C49.6983337,66.4983345 49.8133326,66.7016658 49.96,66.865 C50.1066674,67.0283342 50.2783323,67.1533329 50.475,67.24 C50.6716676,67.3266671 50.8799989,67.37 51.1,67.37 C51.3200011,67.37 51.5283323,67.3266671 51.725,67.24 C51.9216676,67.1533329 52.0933326,67.0283342 52.24,66.865 C52.3866674,66.7016658 52.5016662,66.4983345 52.585,66.255 C52.6683337,66.0116655 52.71,65.7333349 52.71,65.42 C52.71,65.1066651 52.6683337,64.8283345 52.585,64.585 C52.5016662,64.3416654 52.3866674,64.1366675 52.24,63.97 C52.0933326,63.8033325 51.9216676,63.6766671 51.725,63.59 C51.5283323,63.5033329 51.3200011,63.46 51.1,63.46 C50.8799989,63.46 50.6716676,63.5033329 50.475,63.59 C50.2783323,63.6766671 50.1066674,63.8033325 49.96,63.97 C49.8133326,64.1366675 49.6983337,64.3416654 49.615,64.585 C49.5316663,64.8283345 49.49,65.1066651 49.49,65.42 Z M48.59,65.42 C48.59,65.0399981 48.6433328,64.6850017 48.75,64.355 C48.8566672,64.0249984 49.0166656,63.7383345 49.23,63.495 C49.4433344,63.2516654 49.7066651,63.0600007 50.02,62.92 C50.3333349,62.7799993 50.6933313,62.71 51.1,62.71 C51.5133354,62.71 51.8749984,62.7799993 52.185,62.92 C52.4950015,63.0600007 52.7566656,63.2516654 52.97,63.495 C53.1833344,63.7383345 53.3433328,64.0249984 53.45,64.355 C53.5566672,64.6850017 53.61,65.0399981 53.61,65.42 C53.61,65.8000019 53.5566672,66.1533317 53.45,66.48 C53.3433328,66.8066683 53.1833344,67.0916654 52.97,67.335 C52.7566656,67.5783345 52.4950015,67.7683327 52.185,67.905 C51.8749984,68.0416673 51.5133354,68.11 51.1,68.11 C50.6933313,68.11 50.3333349,68.0416673 50.02,67.905 C49.7066651,67.7683327 49.4433344,67.5783345 49.23,67.335 C49.0166656,67.0916654 48.8566672,66.8066683 48.75,66.48 C48.6433328,66.1533317 48.59,65.8000019 48.59,65.42 Z M54.64,62.83 L55.49,62.83 L55.49,63.53 L55.51,63.53 C55.6500007,63.2433319 55.8699985,63.0350007 56.17,62.905 C56.4700015,62.7749994 56.7999982,62.71 57.16,62.71 C57.560002,62.71 57.9083318,62.7833326 58.205,62.93 C58.5016682,63.0766674 58.7483323,63.2749988 58.945,63.525 C59.1416677,63.7750013 59.2899995,64.0633317 59.39,64.39 C59.4900005,64.7166683 59.54,65.0633315 59.54,65.43 C59.54,65.7966685 59.4916671,66.1433317 59.395,66.47 C59.2983328,66.7966683 59.1516677,67.0816655 58.955,67.325 C58.7583323,67.5683346 58.5116681,67.7599993 58.215,67.9 C57.9183319,68.0400007 57.5733353,68.11 57.18,68.11 C57.0533327,68.11 56.9116674,68.0966668 56.755,68.07 C56.5983325,68.0433332 56.4433341,68.0000003 56.29,67.94 C56.1366659,67.8799997 55.9916674,67.7983339 55.855,67.695 C55.7183326,67.5916662 55.6033338,67.4633341 55.51,67.31 L55.49,67.31 L55.49,69.97 L54.64,69.97 L54.64,62.83 Z M58.64,65.37 C58.64,65.1299988 58.6083337,64.8950011 58.545,64.665 C58.4816663,64.4349988 58.3850006,64.2300009 58.255,64.05 C58.1249993,63.8699991 57.9583344,63.7266672 57.755,63.62 C57.5516656,63.5133328 57.3133347,63.46 57.04,63.46 C56.7533319,63.46 56.510001,63.5166661 56.31,63.63 C56.109999,63.7433339 55.9466673,63.8916658 55.82,64.075 C55.6933327,64.2583342 55.6016669,64.4666655 55.545,64.7 C55.4883331,64.9333345 55.46,65.1699988 55.46,65.41 C55.46,65.6633346 55.4899997,65.9083322 55.55,66.145 C55.6100003,66.3816678 55.7049993,66.5899991 55.835,66.77 C55.9650006,66.9500009 56.1333323,67.0949995 56.34,67.205 C56.5466677,67.3150006 56.7966652,67.37 57.09,67.37 C57.3833348,67.37 57.6283323,67.3133339 57.825,67.2 C58.0216676,67.0866661 58.1799994,66.9366676 58.3,66.75 C58.4200006,66.5633324 58.5066664,66.3500012 58.56,66.11 C58.6133336,65.8699988 58.64,65.6233346 58.64,65.37 Z M60.57,62.83 L61.42,62.83 L61.42,63.53 L61.44,63.53 C61.5800007,63.2433319 61.7999985,63.0350007 62.1,62.905 C62.4000015,62.7749994 62.7299982,62.71 63.09,62.71 C63.490002,62.71 63.8383318,62.7833326 64.135,62.93 C64.4316682,63.0766674 64.6783324,63.2749988 64.875,63.525 C65.0716677,63.7750013 65.2199995,64.0633317 65.32,64.39 C65.4200005,64.7166683 65.47,65.0633315 65.47,65.43 C65.47,65.7966685 65.4216671,66.1433317 65.325,66.47 C65.2283328,66.7966683 65.0816676,67.0816655 64.885,67.325 C64.6883324,67.5683346 64.4416681,67.7599993 64.145,67.9 C63.8483318,68.0400007 63.5033353,68.11 63.11,68.11 C62.9833327,68.11 62.8416675,68.0966668 62.685,68.07 C62.5283326,68.0433332 62.3733341,68.0000003 62.22,67.94 C62.0666659,67.8799997 61.9216673,67.7983339 61.785,67.695 C61.6483327,67.5916662 61.5333338,67.4633341 61.44,67.31 L61.42,67.31 L61.42,69.97 L60.57,69.97 L60.57,62.83 Z M64.57,65.37 C64.57,65.1299988 64.5383336,64.8950011 64.475,64.665 C64.4116663,64.4349988 64.3150007,64.2300009 64.185,64.05 C64.0549994,63.8699991 63.8883343,63.7266672 63.685,63.62 C63.4816656,63.5133328 63.2433347,63.46 62.97,63.46 C62.6833319,63.46 62.440001,63.5166661 62.24,63.63 C62.039999,63.7433339 61.8766673,63.8916658 61.75,64.075 C61.6233327,64.2583342 61.531667,64.4666655 61.475,64.7 C61.4183331,64.9333345 61.39,65.1699988 61.39,65.41 C61.39,65.6633346 61.4199997,65.9083322 61.48,66.145 C61.5400003,66.3816678 61.6349994,66.5899991 61.765,66.77 C61.8950007,66.9500009 62.0633323,67.0949995 62.27,67.205 C62.4766677,67.3150006 62.7266652,67.37 63.02,67.37 C63.3133348,67.37 63.5583324,67.3133339 63.755,67.2 C63.9516676,67.0866661 64.1099994,66.9366676 64.23,66.75 C64.3500006,66.5633324 64.4366664,66.3500012 64.49,66.11 C64.5433336,65.8699988 64.57,65.6233346 64.57,65.37 Z M70.06,64.92 C70.0466666,64.719999 70.001667,64.5300009 69.925,64.35 C69.8483329,64.1699991 69.7450006,64.0150006 69.615,63.885 C69.4849993,63.7549993 69.3316675,63.6516671 69.155,63.575 C68.9783325,63.4983329 68.7833344,63.46 68.57,63.46 C68.3499989,63.46 68.1516675,63.4983329 67.975,63.575 C67.7983324,63.6516671 67.6466673,63.756666 67.52,63.89 C67.3933327,64.023334 67.2933337,64.1783324 67.22,64.355 C67.1466663,64.5316676 67.1033334,64.719999 67.09,64.92 L70.06,64.92 Z M70.88,66.36 C70.7666661,66.9400029 70.5166686,67.3766652 70.13,67.67 C69.7433314,67.9633348 69.2566696,68.11 68.67,68.11 C68.2566646,68.11 67.8983348,68.043334 67.595,67.91 C67.2916652,67.776666 67.0366677,67.5900012 66.83,67.35 C66.6233323,67.1099988 66.4683338,66.823335 66.365,66.49 C66.2616661,66.156665 66.2033334,65.7933353 66.19,65.4 C66.19,65.0066647 66.2499994,64.6466683 66.37,64.32 C66.4900006,63.9933317 66.6583323,63.7100012 66.875,63.47 C67.0916677,63.2299988 67.3483318,63.043334 67.645,62.91 C67.9416681,62.776666 68.2666649,62.71 68.62,62.71 C69.0800023,62.71 69.4616652,62.804999 69.765,62.995 C70.0683348,63.185001 70.3116658,63.4266652 70.495,63.72 C70.6783343,64.0133348 70.8049996,64.3333316 70.875,64.68 C70.9450004,65.0266684 70.9733334,65.3566651 70.96,65.67 L67.09,65.67 C67.0833333,65.8966678 67.1099997,66.1116656 67.17,66.315 C67.2300003,66.5183344 67.326666,66.6983326 67.46,66.855 C67.593334,67.0116675 67.7633323,67.1366662 67.97,67.23 C68.1766677,67.3233338 68.4199986,67.37 68.7,67.37 C69.0600018,67.37 69.3549988,67.2866675 69.585,67.12 C69.8150012,66.9533325 69.9666663,66.7000017 70.04,66.36 L70.88,66.36 Z M72.46,65.46 C72.46,65.7000012 72.4916664,65.9349988 72.555,66.165 C72.6183337,66.3950011 72.7149993,66.5999991 72.845,66.78 C72.9750006,66.9600009 73.1416657,67.1033328 73.345,67.21 C73.5483344,67.3166672 73.7866653,67.37 74.06,67.37 C74.3466681,67.37 74.589999,67.3133339 74.79,67.2 C74.990001,67.0866661 75.1533327,66.9383342 75.28,66.755 C75.4066673,66.5716657 75.498333,66.3633345 75.555,66.13 C75.611667,65.8966655 75.64,65.6600012 75.64,65.42 C75.64,65.1666654 75.6100003,64.9216679 75.55,64.685 C75.4899997,64.4483321 75.3950007,64.2400009 75.265,64.06 C75.1349994,63.8799991 74.9666677,63.7350006 74.76,63.625 C74.5533323,63.5149994 74.3033348,63.46 74.01,63.46 C73.7233319,63.46 73.480001,63.5166661 73.28,63.63 C73.079999,63.7433339 72.9200006,63.8933324 72.8,64.08 C72.6799994,64.2666676 72.5933336,64.4799988 72.54,64.72 C72.4866664,64.9600012 72.46,65.2066654 72.46,65.46 Z M76.46,68 L75.61,68 L75.61,67.3 L75.59,67.3 C75.4499993,67.5866681 75.2300015,67.7933327 74.93,67.92 C74.6299985,68.0466673 74.3000018,68.11 73.94,68.11 C73.539998,68.11 73.1916681,68.0366674 72.895,67.89 C72.5983318,67.7433326 72.3516676,67.5466679 72.155,67.3 C71.9583324,67.0533321 71.8100005,66.7666683 71.71,66.44 C71.6099995,66.1133317 71.56,65.7666685 71.56,65.4 C71.56,65.0333315 71.6083329,64.6866683 71.705,64.36 C71.8016672,64.0333317 71.9483324,63.7483345 72.145,63.505 C72.3416676,63.2616654 72.5883319,63.0683341 72.885,62.925 C73.1816682,62.781666 73.5266647,62.71 73.92,62.71 C74.053334,62.71 74.1966659,62.7233332 74.35,62.75 C74.5033341,62.7766668 74.6566659,62.8216664 74.81,62.885 C74.9633341,62.9483336 75.1083327,63.0316661 75.245,63.135 C75.3816674,63.2383339 75.4966662,63.3666659 75.59,63.52 L75.61,63.52 L75.61,60.86 L76.46,60.86 L76.46,68 Z M81.45,61.9 L80.6,61.9 L80.6,60.86 L81.45,60.86 L81.45,61.9 Z M80.6,62.83 L81.45,62.83 L81.45,68 L80.6,68 L80.6,62.83 Z M82.77,62.83 L83.57,62.83 L83.57,63.59 L83.59,63.59 C83.9766686,63.0033304 84.5333297,62.71 85.26,62.71 C85.5800016,62.71 85.8699987,62.776666 86.13,62.91 C86.3900013,63.043334 86.5733328,63.2699984 86.68,63.59 C86.8533342,63.3099986 87.0816653,63.0933341 87.365,62.94 C87.6483347,62.7866659 87.9599983,62.71 88.3,62.71 C88.5600013,62.71 88.7949989,62.7383331 89.005,62.795 C89.215001,62.8516669 89.3949992,62.9399994 89.545,63.06 C89.6950007,63.1800006 89.8116663,63.3349991 89.895,63.525 C89.9783337,63.715001 90.02,63.943332 90.02,64.21 L90.02,68 L89.17,68 L89.17,64.61 C89.17,64.4499992 89.1566668,64.3000007 89.13,64.16 C89.1033332,64.0199993 89.0533337,63.8983339 88.98,63.795 C88.9066663,63.6916662 88.8050006,63.6100003 88.675,63.55 C88.5449993,63.4899997 88.3766677,63.46 88.17,63.46 C87.7499979,63.46 87.4200012,63.5799988 87.18,63.82 C86.9399988,64.0600012 86.82,64.379998 86.82,64.78 L86.82,68 L85.97,68 L85.97,64.61 C85.97,64.4433325 85.9550002,64.2900007 85.925,64.15 C85.8949998,64.0099993 85.8433337,63.8883339 85.77,63.785 C85.6966663,63.6816661 85.5983339,63.6016669 85.475,63.545 C85.351666,63.4883331 85.1933343,63.46 85,63.46 C84.7533321,63.46 84.5416675,63.5099995 84.365,63.61 C84.1883324,63.7100005 84.0450005,63.8299993 83.935,63.97 C83.8249994,64.1100007 83.7450002,64.2549992 83.695,64.405 C83.6449997,64.5550008 83.62,64.6799995 83.62,64.78 L83.62,68 L82.77,68 L82.77,62.83 Z M95.88,67.98 C95.7333326,68.0666671 95.5300013,68.11 95.27,68.11 C95.0499989,68.11 94.8750007,68.0483339 94.745,67.925 C94.6149994,67.801666 94.55,67.6000014 94.55,67.32 C94.3166655,67.6000014 94.0450015,67.801666 93.735,67.925 C93.4249985,68.0483339 93.0900018,68.11 92.73,68.11 C92.4966655,68.11 92.2750011,68.0833336 92.065,68.03 C91.854999,67.9766664 91.6733341,67.8933339 91.52,67.78 C91.3666659,67.6666661 91.2450004,67.5183342 91.155,67.335 C91.0649996,67.1516658 91.02,66.9300013 91.02,66.67 C91.02,66.3766652 91.0699995,66.1366676 91.17,65.95 C91.2700005,65.7633324 91.4016659,65.6116672 91.565,65.495 C91.7283341,65.3783327 91.914999,65.2900003 92.125,65.23 C92.3350011,65.1699997 92.5499989,65.1200002 92.77,65.08 C93.0033345,65.0333331 93.224999,64.9983335 93.435,64.975 C93.6450011,64.9516665 93.8299992,64.9183335 93.99,64.875 C94.1500008,64.8316665 94.2766662,64.7683337 94.37,64.685 C94.4633338,64.6016662 94.51,64.4800008 94.51,64.32 C94.51,64.1333324 94.4750003,63.9833339 94.405,63.87 C94.3349997,63.7566661 94.2450005,63.6700003 94.135,63.61 C94.0249994,63.5499997 93.9016673,63.5100001 93.765,63.49 C93.6283327,63.4699999 93.493334,63.46 93.36,63.46 C92.9999982,63.46 92.7000012,63.5283326 92.46,63.665 C92.2199988,63.8016674 92.0900001,64.0599981 92.07,64.44 L91.22,64.44 C91.2333334,64.1199984 91.2999994,63.8500011 91.42,63.63 C91.5400006,63.4099989 91.699999,63.2316674 91.9,63.095 C92.100001,62.9583327 92.3283321,62.8600003 92.585,62.8 C92.8416679,62.7399997 93.1166652,62.71 93.41,62.71 C93.6433345,62.71 93.8749988,62.7266665 94.105,62.76 C94.3350012,62.7933335 94.5433324,62.8616661 94.73,62.965 C94.9166676,63.0683339 95.0666661,63.2133324 95.18,63.4 C95.2933339,63.5866676 95.35,63.8299985 95.35,64.13 L95.35,66.79 C95.35,66.990001 95.3616665,67.1366662 95.385,67.23 C95.4083335,67.3233338 95.486666,67.37 95.62,67.37 C95.6933337,67.37 95.7799995,67.3533335 95.88,67.32 L95.88,67.98 Z M94.5,65.33 C94.3933328,65.4100004 94.2533342,65.4683332 94.08,65.505 C93.9066658,65.5416668 93.725001,65.5716666 93.535,65.595 C93.3449991,65.6183334 93.1533343,65.6449999 92.96,65.675 C92.7666657,65.7050002 92.5933341,65.753333 92.44,65.82 C92.2866659,65.886667 92.1616671,65.9816661 92.065,66.105 C91.9683328,66.228334 91.92,66.3966656 91.92,66.61 C91.92,66.7500007 91.9483331,66.8683329 92.005,66.965 C92.061667,67.0616672 92.1349996,67.1399997 92.225,67.2 C92.3150005,67.2600003 92.4199994,67.3033332 92.54,67.33 C92.6600006,67.3566668 92.786666,67.37 92.92,67.37 C93.2000014,67.37 93.439999,67.331667 93.64,67.255 C93.840001,67.1783329 94.0033327,67.0816672 94.13,66.965 C94.2566673,66.8483327 94.3499997,66.7216674 94.41,66.585 C94.4700003,66.4483326 94.5,66.3200006 94.5,66.2 L94.5,65.33 Z M101.13,67.56 C101.13,68.4066709 100.936669,69.0399979 100.55,69.46 C100.163331,69.8800021 99.5566708,70.09 98.73,70.09 C98.4899988,70.09 98.2450013,70.0633336 97.995,70.01 C97.7449988,69.9566664 97.5183344,69.8700006 97.315,69.75 C97.1116656,69.6299994 96.943334,69.4733343 96.81,69.28 C96.676666,69.0866657 96.6033334,68.8500014 96.59,68.57 L97.44,68.57 C97.4466667,68.7233341 97.4949996,68.8533328 97.585,68.96 C97.6750004,69.0666672 97.7849994,69.153333 97.915,69.22 C98.0450007,69.286667 98.1866659,69.3349999 98.34,69.365 C98.4933341,69.3950002 98.6399993,69.41 98.78,69.41 C99.0600014,69.41 99.2966657,69.3616672 99.49,69.265 C99.6833343,69.1683328 99.8433327,69.0350009 99.97,68.865 C100.096667,68.6949992 100.188333,68.4900012 100.245,68.25 C100.301667,68.0099988 100.33,67.7466681 100.33,67.46 L100.33,67.12 L100.31,67.12 C100.163333,67.4400016 99.9416681,67.6749992 99.645,67.825 C99.3483318,67.9750007 99.033335,68.05 98.7,68.05 C98.3133314,68.05 97.9766681,67.9800007 97.69,67.84 C97.4033319,67.6999993 97.1633343,67.5116678 96.97,67.275 C96.7766657,67.0383322 96.6316671,66.7616682 96.535,66.445 C96.4383328,66.1283318 96.39,65.7933351 96.39,65.44 C96.39,65.1333318 96.4299996,64.818335 96.51,64.495 C96.5900004,64.1716651 96.7233324,63.8783346 96.91,63.615 C97.0966676,63.3516654 97.3433318,63.1350008 97.65,62.965 C97.9566682,62.7949991 98.3333311,62.71 98.78,62.71 C99.1066683,62.71 99.4066653,62.781666 99.68,62.925 C99.9533347,63.0683341 100.166666,63.2833319 100.32,63.57 L100.33,63.57 L100.33,62.83 L101.13,62.83 L101.13,67.56 Z M98.75,67.31 C99.0300014,67.31 99.2683324,67.2516672 99.465,67.135 C99.6616676,67.0183327 99.8199994,66.8650009 99.94,66.675 C100.060001,66.484999 100.148333,66.2700012 100.205,66.03 C100.261667,65.7899988 100.29,65.5500012 100.29,65.31 C100.29,65.0833322 100.263334,64.8600011 100.21,64.64 C100.156666,64.4199989 100.071667,64.2216676 99.955,64.045 C99.8383328,63.8683324 99.6866676,63.7266672 99.5,63.62 C99.3133324,63.5133328 99.086668,63.46 98.82,63.46 C98.5466653,63.46 98.3133343,63.5116661 98.12,63.615 C97.9266657,63.7183339 97.7683339,63.8566658 97.645,64.03 C97.521666,64.2033342 97.431667,64.4033322 97.375,64.63 C97.3183331,64.8566678 97.29,65.0933321 97.29,65.34 C97.29,65.5733345 97.3133331,65.8066655 97.36,66.04 C97.4066669,66.2733345 97.4866661,66.484999 97.6,66.675 C97.7133339,66.8650009 97.8633324,67.0183327 98.05,67.135 C98.2366676,67.2516672 98.4699986,67.31 98.75,67.31 Z M106,64.92 C105.986667,64.719999 105.941667,64.5300009 105.865,64.35 C105.788333,64.1699991 105.685001,64.0150006 105.555,63.885 C105.424999,63.7549993 105.271668,63.6516671 105.095,63.575 C104.918332,63.4983329 104.723334,63.46 104.51,63.46 C104.289999,63.46 104.091668,63.4983329 103.915,63.575 C103.738332,63.6516671 103.586667,63.756666 103.46,63.89 C103.333333,64.023334 103.233334,64.1783324 103.16,64.355 C103.086666,64.5316676 103.043333,64.719999 103.03,64.92 L106,64.92 Z M106.82,66.36 C106.706666,66.9400029 106.456669,67.3766652 106.07,67.67 C105.683331,67.9633348 105.19667,68.11 104.61,68.11 C104.196665,68.11 103.838335,68.043334 103.535,67.91 C103.231665,67.776666 102.976668,67.5900012 102.77,67.35 C102.563332,67.1099988 102.408334,66.823335 102.305,66.49 C102.201666,66.156665 102.143333,65.7933353 102.13,65.4 C102.13,65.0066647 102.189999,64.6466683 102.31,64.32 C102.430001,63.9933317 102.598332,63.7100012 102.815,63.47 C103.031668,63.2299988 103.288332,63.043334 103.585,62.91 C103.881668,62.776666 104.206665,62.71 104.56,62.71 C105.020002,62.71 105.401665,62.804999 105.705,62.995 C106.008335,63.185001 106.251666,63.4266652 106.435,63.72 C106.618334,64.0133348 106.745,64.3333316 106.815,64.68 C106.885,65.0266684 106.913333,65.3566651 106.9,65.67 L103.03,65.67 C103.023333,65.8966678 103.05,66.1116656 103.11,66.315 C103.17,66.5183344 103.266666,66.6983326 103.4,66.855 C103.533334,67.0116675 103.703332,67.1366662 103.91,67.23 C104.116668,67.3233338 104.359999,67.37 104.64,67.37 C105.000002,67.37 105.294999,67.2866675 105.525,67.12 C105.755001,66.9533325 105.906666,66.7000017 105.98,66.36 L106.82,66.36 Z M108.3,66.37 C108.306667,66.5566676 108.35,66.7149993 108.43,66.845 C108.51,66.9750006 108.614999,67.078333 108.745,67.155 C108.875001,67.231667 109.021666,67.2866665 109.185,67.32 C109.348334,67.3533335 109.516666,67.37 109.69,67.37 C109.823334,67.37 109.963333,67.3600001 110.11,67.34 C110.256667,67.3199999 110.391666,67.2833336 110.515,67.23 C110.638334,67.1766664 110.74,67.0983339 110.82,66.995 C110.9,66.8916661 110.94,66.7600008 110.94,66.6 C110.94,66.3799989 110.856667,66.2133339 110.69,66.1 C110.523332,65.9866661 110.315001,65.8950004 110.065,65.825 C109.814999,65.7549997 109.543335,65.6916669 109.25,65.635 C108.956665,65.578333 108.685001,65.4983338 108.435,65.395 C108.184999,65.2916661 107.976667,65.1466676 107.81,64.96 C107.643333,64.7733324 107.56,64.513335 107.56,64.18 C107.56,63.9199987 107.618333,63.6966676 107.735,63.51 C107.851667,63.3233324 108.001666,63.1716672 108.185,63.055 C108.368334,62.9383328 108.574999,62.8516669 108.805,62.795 C109.035001,62.7383331 109.263332,62.71 109.49,62.71 C109.783335,62.71 110.053332,62.7349998 110.3,62.785 C110.546668,62.8350003 110.764999,62.921666 110.955,63.045 C111.145001,63.1683339 111.296666,63.3349989 111.41,63.545 C111.523334,63.7550011 111.59,64.0166651 111.61,64.33 L110.76,64.33 C110.746667,64.1633325 110.703334,64.0250006 110.63,63.915 C110.556666,63.8049994 110.463334,63.716667 110.35,63.65 C110.236666,63.583333 110.111667,63.5350002 109.975,63.505 C109.838333,63.4749999 109.700001,63.46 109.56,63.46 C109.433333,63.46 109.305001,63.4699999 109.175,63.49 C109.044999,63.5100001 108.926667,63.5449998 108.82,63.595 C108.713333,63.6450002 108.626667,63.7116663 108.56,63.795 C108.493333,63.8783337 108.46,63.986666 108.46,64.12 C108.46,64.2666674 108.511666,64.3883328 108.615,64.485 C108.718334,64.5816672 108.849999,64.6616664 109.01,64.725 C109.170001,64.7883336 109.349999,64.8416664 109.55,64.885 C109.750001,64.9283335 109.949999,64.9733331 110.15,65.02 C110.363334,65.0666669 110.571666,65.123333 110.775,65.19 C110.978334,65.256667 111.158333,65.3449995 111.315,65.455 C111.471667,65.5650006 111.598333,65.7033325 111.695,65.87 C111.791667,66.0366675 111.84,66.2433321 111.84,66.49 C111.84,66.8033349 111.775001,67.0633323 111.645,67.27 C111.514999,67.4766677 111.345001,67.6433327 111.135,67.77 C110.924999,67.8966673 110.688335,67.9849998 110.425,68.035 C110.161665,68.0850003 109.900001,68.11 109.64,68.11 C109.353332,68.11 109.080001,68.0800003 108.82,68.02 C108.559999,67.9599997 108.330001,67.8616674 108.13,67.725 C107.929999,67.5883326 107.770001,67.4083344 107.65,67.185 C107.529999,66.9616655 107.463333,66.6900016 107.45,66.37 L108.3,66.37 Z" id="CreateacollagewithCroppedimages"></path>
                    </g>
                </g>
            </g>
        </g>
    </g>
</svg>