<?xml version="1.0" encoding="UTF-8"?>
<svg width="85px" height="37px" viewBox="0 0 85 37" version="1.1" xmlns="http://www.w3.org/2000/svg" xmlns:xlink="http://www.w3.org/1999/xlink">
    <!-- Generator: Sketch 54.1 (76490) - https://sketchapp.com -->
    <title>Text</title>
    <desc>Created with Sketch.</desc>
    <g id="页面1" stroke="none" stroke-width="1" fill="none" fill-rule="evenodd">
        <g id="C-35&gt;Shake-to-Remix&gt;EN" transform="translate(-55.000000, -1117.000000)" fill="#1B1B1B" fill-rule="nonzero">
            <g id="Content" transform="translate(12.000000, 76.000000)">
                <g id="07_NoRemix" transform="translate(0.000000, 843.000000)">
                    <g id="Text" transform="translate(10.000000, 194.000000)">
                        <path d="M42.03,33.95 C41.9766664,33.4366641 41.7916683,33.0650012 41.475,32.835 C41.1583318,32.6049989 40.7533358,32.49 40.26,32.49 C40.059999,32.49 39.8633343,32.5099998 39.67,32.55 C39.4766657,32.5900002 39.3050008,32.6566662 39.155,32.75 C39.0049993,32.8433338 38.8850005,32.9683325 38.795,33.125 C38.7049996,33.2816675 38.66,33.4766655 38.66,33.71 C38.66,33.9300011 38.7249994,34.1083327 38.855,34.245 C38.9850007,34.3816674 39.1583323,34.4933329 39.375,34.58 C39.5916678,34.6666671 39.8366653,34.7383331 40.11,34.795 C40.3833347,34.851667 40.6616653,34.913333 40.945,34.98 C41.2283348,35.046667 41.5066653,35.1249995 41.78,35.215 C42.0533347,35.3050005 42.2983323,35.4266659 42.515,35.58 C42.7316678,35.7333341 42.9049994,35.9266655 43.035,36.16 C43.1650007,36.3933345 43.23,36.6866649 43.23,37.04 C43.23,37.4200019 43.1450009,37.7449986 42.975,38.015 C42.8049992,38.2850014 42.586668,38.5049992 42.32,38.675 C42.053332,38.8450008 41.7550017,38.968333 41.425,39.045 C41.0949984,39.121667 40.7666683,39.16 40.44,39.16 C40.039998,39.16 39.6616685,39.1100005 39.305,39.01 C38.9483316,38.9099995 38.6350014,38.7583343 38.365,38.555 C38.0949987,38.3516657 37.8816675,38.0916682 37.725,37.775 C37.5683326,37.4583317 37.49,37.0833355 37.49,36.65 L38.39,36.65 C38.39,36.9500015 38.4483328,37.2083322 38.565,37.425 C38.6816673,37.6416677 38.8349991,37.8199993 39.025,37.96 C39.215001,38.1000007 39.4366654,38.203333 39.69,38.27 C39.9433346,38.336667 40.203332,38.37 40.47,38.37 C40.6833344,38.37 40.8983323,38.3500002 41.115,38.31 C41.3316678,38.2699998 41.5266658,38.2016671 41.7,38.105 C41.8733342,38.0083329 42.0133328,37.8766675 42.12,37.71 C42.2266672,37.5433325 42.28,37.3300013 42.28,37.07 C42.28,36.8233321 42.2150007,36.6233341 42.085,36.47 C41.9549994,36.3166659 41.7816678,36.1916672 41.565,36.095 C41.3483322,35.9983328 41.1033347,35.9200003 40.83,35.86 C40.5566653,35.7999997 40.2783348,35.7383337 39.995,35.675 C39.7116653,35.6116664 39.4333347,35.5383337 39.16,35.455 C38.8866653,35.3716663 38.6416678,35.2616673 38.425,35.125 C38.2083323,34.9883326 38.0350007,34.8116677 37.905,34.595 C37.7749994,34.3783322 37.71,34.1066683 37.71,33.78 C37.71,33.4199982 37.7833326,33.1083347 37.93,32.845 C38.0766674,32.5816654 38.2716655,32.3650009 38.515,32.195 C38.7583346,32.0249991 39.0349985,31.8983337 39.345,31.815 C39.6550016,31.7316662 39.9733317,31.69 40.3,31.69 C40.6666685,31.69 41.0066651,31.7333329 41.32,31.82 C41.6333349,31.9066671 41.9083322,32.0433324 42.145,32.23 C42.3816679,32.4166676 42.5683327,32.6516653 42.705,32.935 C42.8416674,33.2183347 42.9166666,33.5566647 42.93,33.95 L42.03,33.95 Z M44.29,31.86 L45.14,31.86 L45.14,36.09 L47.5,33.83 L48.64,33.83 L46.59,35.71 L48.79,39 L47.71,39 L45.94,36.3 L45.14,37.04 L45.14,39 L44.29,39 L44.29,31.86 Z M50.33,32.9 L49.48,32.9 L49.48,31.86 L50.33,31.86 L50.33,32.9 Z M49.48,33.83 L50.33,33.83 L50.33,39 L49.48,39 L49.48,33.83 Z M51.68,33.83 L52.53,33.83 L52.53,34.53 L52.55,34.53 C52.6900007,34.2433319 52.9099985,34.0350007 53.21,33.905 C53.5100015,33.7749994 53.8399982,33.71 54.2,33.71 C54.600002,33.71 54.9483319,33.7833326 55.245,33.93 C55.5416682,34.0766674 55.7883324,34.2749988 55.985,34.525 C56.1816677,34.7750013 56.3299995,35.0633317 56.43,35.39 C56.5300005,35.7166683 56.58,36.0633315 56.58,36.43 C56.58,36.7966685 56.5316672,37.1433317 56.435,37.47 C56.3383329,37.7966683 56.1916677,38.0816655 55.995,38.325 C55.7983324,38.5683346 55.5516681,38.7599993 55.255,38.9 C54.9583319,39.0400007 54.6133353,39.11 54.22,39.11 C54.0933327,39.11 53.9516675,39.0966668 53.795,39.07 C53.6383326,39.0433332 53.4833341,39.0000003 53.33,38.94 C53.1766659,38.8799997 53.0316674,38.7983338 52.895,38.695 C52.7583326,38.5916662 52.6433338,38.4633341 52.55,38.31 L52.53,38.31 L52.53,40.97 L51.68,40.97 L51.68,33.83 Z M55.68,36.37 C55.68,36.1299988 55.6483337,35.8950011 55.585,35.665 C55.5216664,35.4349988 55.4250007,35.2300009 55.295,35.05 C55.1649994,34.8699991 54.9983344,34.7266672 54.795,34.62 C54.5916657,34.5133328 54.3533347,34.46 54.08,34.46 C53.7933319,34.46 53.550001,34.5166661 53.35,34.63 C53.149999,34.7433339 52.9866673,34.8916658 52.86,35.075 C52.7333327,35.2583342 52.641667,35.4666655 52.585,35.7 C52.5283331,35.9333345 52.5,36.1699988 52.5,36.41 C52.5,36.6633346 52.5299997,36.9083321 52.59,37.145 C52.6500003,37.3816678 52.7449994,37.5899991 52.875,37.77 C53.0050007,37.9500009 53.1733323,38.0949995 53.38,38.205 C53.5866677,38.3150006 53.8366652,38.37 54.13,38.37 C54.4233348,38.37 54.6683324,38.3133339 54.865,38.2 C55.0616677,38.0866661 55.2199994,37.9366676 55.34,37.75 C55.4600006,37.5633324 55.5466664,37.3500012 55.6,37.11 C55.6533336,36.8699988 55.68,36.6233346 55.68,36.37 Z M61.54,33.83 L62.57,33.83 L62.57,34.58 L61.54,34.58 L61.54,37.79 C61.54,37.8900005 61.5483333,37.9699997 61.565,38.03 C61.5816668,38.0900003 61.6133331,38.1366665 61.66,38.17 C61.7066669,38.2033335 61.7716663,38.2249999 61.855,38.235 C61.9383337,38.2450001 62.046666,38.25 62.18,38.25 L62.57,38.25 L62.57,39 L61.92,39 C61.6999989,39 61.5116675,38.9850002 61.355,38.955 C61.1983326,38.9249998 61.0716672,38.8700004 60.975,38.79 C60.8783329,38.7099996 60.8066669,38.5966674 60.76,38.45 C60.7133331,38.3033326 60.69,38.1100012 60.69,37.87 L60.69,34.58 L59.81,34.58 L59.81,33.83 L60.69,33.83 L60.69,32.28 L61.54,32.28 L61.54,33.83 Z M64.13,36.42 C64.13,36.7333349 64.1716663,37.0116655 64.255,37.255 C64.3383338,37.4983345 64.4533326,37.7016658 64.6,37.865 C64.7466674,38.0283341 64.9183324,38.1533329 65.115,38.24 C65.3116677,38.3266671 65.5199989,38.37 65.74,38.37 C65.9600011,38.37 66.1683324,38.3266671 66.365,38.24 C66.5616677,38.1533329 66.7333326,38.0283341 66.88,37.865 C67.0266674,37.7016658 67.1416663,37.4983345 67.225,37.255 C67.3083338,37.0116655 67.35,36.7333349 67.35,36.42 C67.35,36.1066651 67.3083338,35.8283346 67.225,35.585 C67.1416663,35.3416655 67.0266674,35.1366675 66.88,34.97 C66.7333326,34.8033325 66.5616677,34.6766671 66.365,34.59 C66.1683324,34.5033329 65.9600011,34.46 65.74,34.46 C65.5199989,34.46 65.3116677,34.5033329 65.115,34.59 C64.9183324,34.6766671 64.7466674,34.8033325 64.6,34.97 C64.4533326,35.1366675 64.3383338,35.3416655 64.255,35.585 C64.1716663,35.8283346 64.13,36.1066651 64.13,36.42 Z M63.23,36.42 C63.23,36.0399981 63.2833328,35.6850017 63.39,35.355 C63.4966672,35.0249983 63.6566656,34.7383345 63.87,34.495 C64.0833344,34.2516654 64.3466651,34.0600007 64.66,33.92 C64.9733349,33.7799993 65.3333313,33.71 65.74,33.71 C66.1533354,33.71 66.5149985,33.7799993 66.825,33.92 C67.1350016,34.0600007 67.3966656,34.2516654 67.61,34.495 C67.8233344,34.7383345 67.9833328,35.0249983 68.09,35.355 C68.1966672,35.6850017 68.25,36.0399981 68.25,36.42 C68.25,36.8000019 68.1966672,37.1533317 68.09,37.48 C67.9833328,37.8066683 67.8233344,38.0916655 67.61,38.335 C67.3966656,38.5783346 67.1350016,38.7683326 66.825,38.905 C66.5149985,39.0416673 66.1533354,39.11 65.74,39.11 C65.3333313,39.11 64.9733349,39.0416673 64.66,38.905 C64.3466651,38.7683326 64.0833344,38.5783346 63.87,38.335 C63.6566656,38.0916655 63.4966672,37.8066683 63.39,37.48 C63.2833328,37.1533317 63.23,36.8000019 63.23,36.42 Z M72.03,33.83 L72.83,33.83 L72.83,34.65 L72.85,34.65 C73.2033351,34.0233302 73.7633295,33.71 74.53,33.71 C74.8700017,33.71 75.1533322,33.7566662 75.38,33.85 C75.6066678,33.9433338 75.7899993,34.0733325 75.93,34.24 C76.0700007,34.4066675 76.1683331,34.6049989 76.225,34.835 C76.281667,35.0650012 76.31,35.3199986 76.31,35.6 L76.31,39 L75.46,39 L75.46,35.5 C75.46,35.1799984 75.3666676,34.9266676 75.18,34.74 C74.9933324,34.5533324 74.7366683,34.46 74.41,34.46 C74.1499987,34.46 73.9250009,34.4999996 73.735,34.58 C73.5449991,34.6600004 73.3866673,34.7733326 73.26,34.92 C73.1333327,35.0666674 73.0383336,35.2383324 72.975,35.435 C72.9116663,35.6316676 72.88,35.8466655 72.88,36.08 L72.88,39 L72.03,39 L72.03,33.83 Z M81.18,35.92 C81.1666666,35.719999 81.121667,35.5300009 81.045,35.35 C80.968333,35.1699991 80.8650006,35.0150006 80.735,34.885 C80.6049993,34.7549993 80.4516676,34.6516671 80.275,34.575 C80.0983325,34.4983329 79.9033344,34.46 79.69,34.46 C79.4699989,34.46 79.2716675,34.4983329 79.095,34.575 C78.9183325,34.6516671 78.7666673,34.756666 78.64,34.89 C78.5133327,35.023334 78.4133337,35.1783324 78.34,35.355 C78.2666663,35.5316676 78.2233334,35.719999 78.21,35.92 L81.18,35.92 Z M82,37.36 C81.8866661,37.9400029 81.6366686,38.3766652 81.25,38.67 C80.8633314,38.9633348 80.3766696,39.11 79.79,39.11 C79.3766646,39.11 79.0183349,39.043334 78.715,38.91 C78.4116652,38.776666 78.1566677,38.5900012 77.95,38.35 C77.7433323,38.1099988 77.5883338,37.823335 77.485,37.49 C77.3816662,37.156665 77.3233334,36.7933353 77.31,36.4 C77.31,36.0066647 77.3699994,35.6466683 77.49,35.32 C77.6100006,34.9933317 77.7783323,34.7100012 77.995,34.47 C78.2116678,34.2299988 78.4683318,34.043334 78.765,33.91 C79.0616682,33.776666 79.3866649,33.71 79.74,33.71 C80.2000023,33.71 80.5816652,33.804999 80.885,33.995 C81.1883349,34.185001 81.4316658,34.4266652 81.615,34.72 C81.7983343,35.0133348 81.9249997,35.3333316 81.995,35.68 C82.0650004,36.0266684 82.0933334,36.3566651 82.08,36.67 L78.21,36.67 C78.2033333,36.8966678 78.2299997,37.1116656 78.29,37.315 C78.3500003,37.5183344 78.446666,37.6983326 78.58,37.855 C78.713334,38.0116675 78.8833323,38.1366662 79.09,38.23 C79.2966677,38.3233338 79.5399986,38.37 79.82,38.37 C80.1800018,38.37 80.4749988,38.2866675 80.705,38.12 C80.9350012,37.9533325 81.0866663,37.7000017 81.16,37.36 L82,37.36 Z M84.35,36.28 L82.55,33.83 L83.64,33.83 L84.88,35.64 L86.17,33.83 L87.19,33.83 L85.41,36.21 L87.41,39 L86.32,39 L84.88,36.86 L83.44,39 L82.41,39 L84.35,36.28 Z M89.32,33.83 L90.35,33.83 L90.35,34.58 L89.32,34.58 L89.32,37.79 C89.32,37.8900005 89.3283332,37.9699997 89.345,38.03 C89.3616668,38.0900003 89.3933331,38.1366665 89.44,38.17 C89.4866669,38.2033335 89.5516663,38.2249999 89.635,38.235 C89.7183337,38.2450001 89.826666,38.25 89.96,38.25 L90.35,38.25 L90.35,39 L89.7,39 C89.4799989,39 89.2916675,38.9850002 89.135,38.955 C88.9783326,38.9249998 88.8516671,38.8700004 88.755,38.79 C88.6583328,38.7099996 88.5866669,38.5966674 88.54,38.45 C88.4933331,38.3033326 88.47,38.1100012 88.47,37.87 L88.47,34.58 L87.59,34.58 L87.59,33.83 L88.47,33.83 L88.47,32.28 L89.32,32.28 L89.32,33.83 Z M94.59,37.37 C94.5966667,37.5566676 94.6399996,37.7149993 94.72,37.845 C94.8000004,37.9750006 94.9049994,38.078333 95.035,38.155 C95.1650007,38.231667 95.3116658,38.2866665 95.475,38.32 C95.6383342,38.3533335 95.8066658,38.37 95.98,38.37 C96.113334,38.37 96.2533326,38.3600001 96.4,38.34 C96.5466674,38.3199999 96.681666,38.2833336 96.805,38.23 C96.9283339,38.1766664 97.0299996,38.0983339 97.11,37.995 C97.1900004,37.8916661 97.23,37.7600008 97.23,37.6 C97.23,37.3799989 97.1466675,37.2133339 96.98,37.1 C96.8133325,36.9866661 96.6050013,36.8950003 96.355,36.825 C96.1049988,36.7549997 95.8333348,36.6916669 95.54,36.635 C95.2466652,36.578333 94.9750013,36.4983339 94.725,36.395 C94.4749988,36.2916661 94.2666675,36.1466676 94.1,35.96 C93.9333325,35.7733324 93.85,35.513335 93.85,35.18 C93.85,34.9199987 93.9083327,34.6966676 94.025,34.51 C94.1416673,34.3233324 94.2916658,34.1716672 94.475,34.055 C94.6583342,33.9383328 94.8649989,33.851667 95.095,33.795 C95.3250012,33.7383331 95.5533322,33.71 95.78,33.71 C96.0733348,33.71 96.3433321,33.7349998 96.59,33.785 C96.8366679,33.8350003 97.054999,33.921666 97.245,34.045 C97.4350009,34.1683339 97.5866661,34.3349989 97.7,34.545 C97.8133339,34.755001 97.8799999,35.0166651 97.9,35.33 L97.05,35.33 C97.0366666,35.1633325 96.9933337,35.0250006 96.92,34.915 C96.8466663,34.8049994 96.7533339,34.716667 96.64,34.65 C96.5266661,34.583333 96.4016673,34.5350002 96.265,34.505 C96.1283327,34.4749999 95.9900007,34.46 95.85,34.46 C95.7233327,34.46 95.5950007,34.4699999 95.465,34.49 C95.3349994,34.5100001 95.2166672,34.5449998 95.11,34.595 C95.0033328,34.6450002 94.916667,34.7116663 94.85,34.795 C94.783333,34.8783337 94.75,34.986666 94.75,35.12 C94.75,35.2666674 94.8016662,35.3883328 94.905,35.485 C95.0083338,35.5816672 95.1399992,35.6616663 95.3,35.725 C95.4600008,35.7883336 95.639999,35.8416664 95.84,35.885 C96.040001,35.9283335 96.239999,35.9733331 96.44,36.02 C96.6533344,36.0666669 96.8616657,36.123333 97.065,36.19 C97.2683344,36.256667 97.4483326,36.3449995 97.605,36.455 C97.7616675,36.5650006 97.8883329,36.7033325 97.985,36.87 C98.0816672,37.0366675 98.13,37.2433321 98.13,37.49 C98.13,37.8033349 98.0650007,38.0633323 97.935,38.27 C97.8049994,38.4766677 97.6350011,38.6433327 97.425,38.77 C97.214999,38.8966673 96.9783347,38.9849998 96.715,39.035 C96.4516654,39.0850003 96.1900013,39.11 95.93,39.11 C95.6433319,39.11 95.3700013,39.0800003 95.11,39.02 C94.8499987,38.9599997 94.620001,38.8616674 94.42,38.725 C94.219999,38.5883326 94.0600006,38.4083344 93.94,38.185 C93.8199994,37.9616655 93.7533334,37.6900016 93.74,37.37 L94.59,37.37 Z M100.25,33.83 L101.28,33.83 L101.28,34.58 L100.25,34.58 L100.25,37.79 C100.25,37.8900005 100.258333,37.9699997 100.275,38.03 C100.291667,38.0900003 100.323333,38.1366665 100.37,38.17 C100.416667,38.2033335 100.481666,38.2249999 100.565,38.235 C100.648334,38.2450001 100.756666,38.25 100.89,38.25 L101.28,38.25 L101.28,39 L100.63,39 C100.409999,39 100.221667,38.9850002 100.065,38.955 C99.9083326,38.9249998 99.7816672,38.8700004 99.685,38.79 C99.5883329,38.7099996 99.5166669,38.5966674 99.47,38.45 C99.4233331,38.3033326 99.4,38.1100012 99.4,37.87 L99.4,34.58 L98.52,34.58 L98.52,33.83 L99.4,33.83 L99.4,32.28 L100.25,32.28 L100.25,33.83 Z M105.81,35.92 C105.796667,35.719999 105.751667,35.5300009 105.675,35.35 C105.598333,35.1699991 105.495001,35.0150006 105.365,34.885 C105.234999,34.7549993 105.081668,34.6516671 104.905,34.575 C104.728332,34.4983329 104.533334,34.46 104.32,34.46 C104.099999,34.46 103.901668,34.4983329 103.725,34.575 C103.548332,34.6516671 103.396667,34.756666 103.27,34.89 C103.143333,35.023334 103.043334,35.1783324 102.97,35.355 C102.896666,35.5316676 102.853333,35.719999 102.84,35.92 L105.81,35.92 Z M106.63,37.36 C106.516666,37.9400029 106.266669,38.3766652 105.88,38.67 C105.493331,38.9633348 105.00667,39.11 104.42,39.11 C104.006665,39.11 103.648335,39.043334 103.345,38.91 C103.041665,38.776666 102.786668,38.5900012 102.58,38.35 C102.373332,38.1099988 102.218334,37.823335 102.115,37.49 C102.011666,37.156665 101.953333,36.7933353 101.94,36.4 C101.94,36.0066647 101.999999,35.6466683 102.12,35.32 C102.240001,34.9933317 102.408332,34.7100012 102.625,34.47 C102.841668,34.2299988 103.098332,34.043334 103.395,33.91 C103.691668,33.776666 104.016665,33.71 104.37,33.71 C104.830002,33.71 105.211665,33.804999 105.515,33.995 C105.818335,34.185001 106.061666,34.4266652 106.245,34.72 C106.428334,35.0133348 106.555,35.3333316 106.625,35.68 C106.695,36.0266684 106.723333,36.3566651 106.71,36.67 L102.84,36.67 C102.833333,36.8966678 102.86,37.1116656 102.92,37.315 C102.98,37.5183344 103.076666,37.6983326 103.21,37.855 C103.343334,38.0116675 103.513332,38.1366662 103.72,38.23 C103.926668,38.3233338 104.169999,38.37 104.45,38.37 C104.810002,38.37 105.104999,38.2866675 105.335,38.12 C105.565001,37.9533325 105.716666,37.7000017 105.79,37.36 L106.63,37.36 Z M107.62,33.83 L108.47,33.83 L108.47,34.53 L108.49,34.53 C108.630001,34.2433319 108.849999,34.0350007 109.15,33.905 C109.450002,33.7749994 109.779998,33.71 110.14,33.71 C110.540002,33.71 110.888332,33.7833326 111.185,33.93 C111.481668,34.0766674 111.728332,34.2749988 111.925,34.525 C112.121668,34.7750013 112.27,35.0633317 112.37,35.39 C112.47,35.7166683 112.52,36.0633315 112.52,36.43 C112.52,36.7966685 112.471667,37.1433317 112.375,37.47 C112.278333,37.7966683 112.131668,38.0816655 111.935,38.325 C111.738332,38.5683346 111.491668,38.7599993 111.195,38.9 C110.898332,39.0400007 110.553335,39.11 110.16,39.11 C110.033333,39.11 109.891667,39.0966668 109.735,39.07 C109.578333,39.0433332 109.423334,39.0000003 109.27,38.94 C109.116666,38.8799997 108.971667,38.7983338 108.835,38.695 C108.698333,38.5916662 108.583334,38.4633341 108.49,38.31 L108.47,38.31 L108.47,40.97 L107.62,40.97 L107.62,33.83 Z M111.62,36.37 C111.62,36.1299988 111.588334,35.8950011 111.525,35.665 C111.461666,35.4349988 111.365001,35.2300009 111.235,35.05 C111.104999,34.8699991 110.938334,34.7266672 110.735,34.62 C110.531666,34.5133328 110.293335,34.46 110.02,34.46 C109.733332,34.46 109.490001,34.5166661 109.29,34.63 C109.089999,34.7433339 108.926667,34.8916658 108.8,35.075 C108.673333,35.2583342 108.581667,35.4666655 108.525,35.7 C108.468333,35.9333345 108.44,36.1699988 108.44,36.41 C108.44,36.6633346 108.47,36.9083321 108.53,37.145 C108.59,37.3816678 108.684999,37.5899991 108.815,37.77 C108.945001,37.9500009 109.113332,38.0949995 109.32,38.205 C109.526668,38.3150006 109.776665,38.37 110.07,38.37 C110.363335,38.37 110.608332,38.3133339 110.805,38.2 C111.001668,38.0866661 111.159999,37.9366676 111.28,37.75 C111.400001,37.5633324 111.486666,37.3500012 111.54,37.11 C111.593334,36.8699988 111.62,36.6233346 111.62,36.37 Z" id="Skiptonextstep"></path>
                        <path d="M33.367,4.862 L36.019,4.862 L41.085,13.005 L41.119,13.005 L41.119,4.862 L43.618,4.862 L43.618,17 L40.949,17 L35.9,8.874 L35.866,8.874 L35.866,17 L33.367,17 L33.367,4.862 Z M48.106,10.982 C48.106,11.4920025 48.1654994,11.9878309 48.2845,12.4695 C48.4035006,12.9511691 48.593332,13.3846647 48.854,13.77 C49.114668,14.1553353 49.4546646,14.4641655 49.874,14.6965 C50.2933354,14.9288345 50.8033303,15.045 51.404,15.045 C52.0046697,15.045 52.5146646,14.9288345 52.934,14.6965 C53.3533354,14.4641655 53.693332,14.1553353 53.954,13.77 C54.214668,13.3846647 54.4044994,12.9511691 54.5235,12.4695 C54.6425006,11.9878309 54.702,11.4920025 54.702,10.982 C54.702,10.4493307 54.6425006,9.93366916 54.5235,9.435 C54.4044994,8.93633084 54.214668,8.49150195 53.954,8.1005 C53.693332,7.70949804 53.3533354,7.39783449 52.934,7.1655 C52.5146646,6.9331655 52.0046697,6.817 51.404,6.817 C50.8033303,6.817 50.2933354,6.9331655 49.874,7.1655 C49.4546646,7.39783449 49.114668,7.70949804 48.854,8.1005 C48.593332,8.49150195 48.4035006,8.93633084 48.2845,9.435 C48.1654994,9.93366916 48.106,10.4493307 48.106,10.982 Z M45.437,10.982 C45.437,10.0753288 45.5729986,9.23383722 45.845,8.4575 C46.1170014,7.68116278 46.5079975,7.00400289 47.018,6.426 C47.5280025,5.84799711 48.154163,5.39466831 48.8965,5.066 C49.638837,4.73733169 50.474662,4.573 51.404,4.573 C52.3446714,4.573 53.1833297,4.73733169 53.92,5.066 C54.6566703,5.39466831 55.2799975,5.84799711 55.79,6.426 C56.3000026,7.00400289 56.6909986,7.68116278 56.963,8.4575 C57.2350014,9.23383722 57.371,10.0753288 57.371,10.982 C57.371,11.8660044 57.2350014,12.6904962 56.963,13.4555 C56.6909986,14.2205038 56.3000026,14.8863305 55.79,15.453 C55.2799975,16.0196695 54.6566703,16.4644984 53.92,16.7875 C53.1833297,17.1105016 52.3446714,17.272 51.404,17.272 C50.474662,17.272 49.638837,17.1105016 48.8965,16.7875 C48.154163,16.4644984 47.5280025,16.0196695 47.018,15.453 C46.5079975,14.8863305 46.1170014,14.2205038 45.845,13.4555 C45.5729986,12.6904962 45.437,11.8660044 45.437,10.982 Z M66.585,10.353 L69.509,10.353 C70.1210031,10.353 70.5799985,10.2170014 70.886,9.945 C71.1920015,9.67299864 71.345,9.23100306 71.345,8.619 C71.345,8.02966372 71.1920015,7.60183467 70.886,7.3355 C70.5799985,7.06916533 70.1210031,6.936 69.509,6.936 L66.585,6.936 L66.585,10.353 Z M63.916,4.862 L70.461,4.862 C71.0050027,4.862 71.4951645,4.94983245 71.9315,5.1255 C72.3678355,5.30116754 72.7418318,5.54199847 73.0535,5.848 C73.3651682,6.15400153 73.6031658,6.50816465 73.7675,6.9105 C73.9318342,7.31283534 74.014,7.74633101 74.014,8.211 C74.014,8.92500357 73.8638348,9.54266406 73.5635,10.064 C73.2631652,10.5853359 72.7730034,10.9819986 72.093,11.254 L72.093,11.288 C72.4216683,11.3786671 72.6936656,11.5174991 72.909,11.7045 C73.1243344,11.8915009 73.2999993,12.1124987 73.436,12.3675 C73.5720007,12.6225013 73.6711664,12.9029985 73.7335,13.209 C73.7958336,13.5150015 73.8383332,13.8209985 73.861,14.127 C73.8723334,14.3196676 73.8836666,14.546332 73.895,14.807 C73.9063334,15.067668 73.9261665,15.3339986 73.9545,15.606 C73.9828335,15.8780014 74.0281664,16.1358321 74.0905,16.3795 C74.1528336,16.6231679 74.2463327,16.8299991 74.371,17 L71.702,17 C71.5546659,16.6146647 71.4640002,16.1556693 71.43,15.623 C71.3959998,15.0903307 71.3450003,14.5803358 71.277,14.093 C71.1863329,13.4583302 70.9936681,12.9936681 70.699,12.699 C70.4043319,12.4043319 69.92267,12.257 69.254,12.257 L66.585,12.257 L66.585,17 L63.916,17 L63.916,4.862 Z M76.19,4.862 L85.268,4.862 L85.268,7.106 L78.859,7.106 L78.859,9.707 L84.741,9.707 L84.741,11.781 L78.859,11.781 L78.859,14.756 L85.404,14.756 L85.404,17 L76.19,17 L76.19,4.862 Z M87.206,4.862 L90.963,4.862 L93.802,13.209 L93.836,13.209 L96.522,4.862 L100.279,4.862 L100.279,17 L97.78,17 L97.78,8.398 L97.746,8.398 L94.771,17 L92.714,17 L89.739,8.483 L89.705,8.483 L89.705,17 L87.206,17 L87.206,4.862 Z M102.625,4.862 L105.294,4.862 L105.294,17 L102.625,17 L102.625,4.862 Z M110.615,10.642 L106.705,4.862 L109.799,4.862 L112.179,8.738 L114.644,4.862 L117.568,4.862 L113.675,10.659 L117.908,17 L114.729,17 L112.077,12.801 L109.374,17 L106.382,17 L110.615,10.642 Z" id="NOREMIX"></path>
                    </g>
                </g>
            </g>
        </g>
    </g>
</svg>