<?xml version="1.0" encoding="UTF-8"?>
<svg width="170px" height="55px" viewBox="0 0 170 55" version="1.1" xmlns="http://www.w3.org/2000/svg" xmlns:xlink="http://www.w3.org/1999/xlink">
    <!-- Generator: Sketch 54.1 (76490) - https://sketchapp.com -->
    <title>Text_Text_Pressed_EN_IOS</title>
    <desc>Created with Sketch.</desc>
    <g id="页面1" stroke="none" stroke-width="1" fill="none" fill-rule="evenodd">
        <g id="Text_Text_Pressed_EN_IOS" fill-rule="nonzero">
            <rect id="矩形" fill-opacity="0.01" fill="#FFFFFF" x="0" y="0" width="170" height="55"></rect>
            <g id="Text_Text_Pressed" transform="translate(42.000000, 4.000000)" fill="#6A6A6A">
                <path d="M2.65,28.66 L0.27,28.66 L0.27,27.86 L5.98,27.86 L5.98,28.66 L3.6,28.66 L3.6,35 L2.65,35 L2.65,28.66 Z M7.55,35.69 C7.4499995,35.9433346 7.35166715,36.1566658 7.255,36.33 C7.15833285,36.5033342 7.05166725,36.6449995 6.935,36.755 C6.81833275,36.8650005 6.68833405,36.9449998 6.545,36.995 C6.40166595,37.0450003 6.2366676,37.07 6.05,37.07 C5.9499995,37.07 5.8500005,37.0633334 5.75,37.05 C5.6499995,37.0366666 5.5533338,37.0133335 5.46,36.98 L5.46,36.2 C5.5333337,36.2333335 5.61833285,36.2616666 5.715,36.285 C5.81166715,36.3083334 5.893333,36.32 5.96,36.32 C6.1333342,36.32 6.27833275,36.2783338 6.395,36.195 C6.51166725,36.1116662 6.5999997,35.9933341 6.66,35.84 L7.01,34.97 L4.96,29.83 L5.92,29.83 L7.43,34.06 L7.45,34.06 L8.9,29.83 L9.8,29.83 L7.55,35.69 Z M10.55,29.83 L11.4,29.83 L11.4,30.53 L11.42,30.53 C11.5600007,30.2433319 11.7799985,30.0350007 12.08,29.905 C12.3800015,29.7749994 12.7099982,29.71 13.07,29.71 C13.470002,29.71 13.8183318,29.7833326 14.115,29.93 C14.4116681,30.0766674 14.6583323,30.2749988 14.855,30.525 C15.0516676,30.7750013 15.1999995,31.0633317 15.3,31.39 C15.4000005,31.7166683 15.45,32.0633315 15.45,32.43 C15.45,32.7966685 15.4016671,33.1433317 15.305,33.47 C15.2083328,33.7966683 15.0616676,34.0816655 14.865,34.325 C14.6683323,34.5683346 14.4216681,34.7599993 14.125,34.9 C13.8283318,35.0400007 13.4833353,35.11 13.09,35.11 C12.9633327,35.11 12.8216674,35.0966668 12.665,35.07 C12.5083325,35.0433332 12.3533341,35.0000003 12.2,34.94 C12.0466659,34.8799997 11.9016673,34.7983338 11.765,34.695 C11.6283326,34.5916662 11.5133338,34.4633341 11.42,34.31 L11.4,34.31 L11.4,36.97 L10.55,36.97 L10.55,29.83 Z M14.55,32.37 C14.55,32.1299988 14.5183336,31.8950011 14.455,31.665 C14.3916663,31.4349988 14.2950006,31.2300009 14.165,31.05 C14.0349993,30.8699991 13.8683343,30.7266672 13.665,30.62 C13.4616656,30.5133328 13.2233347,30.46 12.95,30.46 C12.6633319,30.46 12.420001,30.5166661 12.22,30.63 C12.019999,30.7433339 11.8566673,30.8916658 11.73,31.075 C11.6033327,31.2583342 11.5116669,31.4666655 11.455,31.7 C11.398333,31.9333345 11.37,32.1699988 11.37,32.41 C11.37,32.6633346 11.3999997,32.9083321 11.46,33.145 C11.5200003,33.3816678 11.6149993,33.5899991 11.745,33.77 C11.8750006,33.9500009 12.0433323,34.0949995 12.25,34.205 C12.4566677,34.3150006 12.7066652,34.37 13,34.37 C13.2933348,34.37 13.5383323,34.3133339 13.735,34.2 C13.9316676,34.0866661 14.0899994,33.9366676 14.21,33.75 C14.3300006,33.5633324 14.4166664,33.3500012 14.47,33.11 C14.5233336,32.8699988 14.55,32.6233346 14.55,32.37 Z M20.04,31.92 C20.0266666,31.719999 19.981667,31.5300009 19.905,31.35 C19.8283329,31.1699991 19.7250006,31.0150006 19.595,30.885 C19.4649993,30.7549993 19.3116675,30.6516671 19.135,30.575 C18.9583324,30.4983329 18.7633344,30.46 18.55,30.46 C18.3299989,30.46 18.1316675,30.4983329 17.955,30.575 C17.7783324,30.6516671 17.6266673,30.756666 17.5,30.89 C17.3733327,31.023334 17.2733337,31.1783324 17.2,31.355 C17.1266663,31.5316676 17.0833334,31.719999 17.07,31.92 L20.04,31.92 Z M20.86,33.36 C20.7466661,33.9400029 20.4966686,34.3766652 20.11,34.67 C19.7233314,34.9633348 19.2366696,35.11 18.65,35.11 C18.2366646,35.11 17.8783348,35.043334 17.575,34.91 C17.2716651,34.776666 17.0166677,34.5900012 16.81,34.35 C16.6033323,34.1099988 16.4483338,33.823335 16.345,33.49 C16.2416661,33.156665 16.1833334,32.7933353 16.17,32.4 C16.17,32.0066647 16.2299994,31.6466683 16.35,31.32 C16.4700006,30.9933317 16.6383322,30.7100012 16.855,30.47 C17.0716677,30.2299988 17.3283318,30.043334 17.625,29.91 C17.9216681,29.776666 18.2466649,29.71 18.6,29.71 C19.0600023,29.71 19.4416651,29.804999 19.745,29.995 C20.0483348,30.185001 20.2916657,30.4266652 20.475,30.72 C20.6583342,31.0133348 20.7849996,31.3333316 20.855,31.68 C20.9250003,32.0266684 20.9533334,32.3566651 20.94,32.67 L17.07,32.67 C17.0633333,32.8966678 17.0899997,33.1116656 17.15,33.315 C17.2100003,33.5183344 17.306666,33.6983326 17.44,33.855 C17.573334,34.0116675 17.7433323,34.1366662 17.95,34.23 C18.1566677,34.3233338 18.3999986,34.37 18.68,34.37 C19.0400018,34.37 19.3349988,34.2866675 19.565,34.12 C19.7950011,33.9533325 19.9466663,33.7000017 20.02,33.36 L20.86,33.36 Z M26.63,35.69 C26.5299995,35.9433346 26.4316671,36.1566658 26.335,36.33 C26.2383328,36.5033342 26.1316672,36.6449995 26.015,36.755 C25.8983327,36.8650005 25.768334,36.9449998 25.625,36.995 C25.4816659,37.0450003 25.3166676,37.07 25.13,37.07 C25.0299995,37.07 24.9300005,37.0633334 24.83,37.05 C24.7299995,37.0366666 24.6333338,37.0133335 24.54,36.98 L24.54,36.2 C24.6133337,36.2333335 24.6983328,36.2616666 24.795,36.285 C24.8916671,36.3083334 24.973333,36.32 25.04,36.32 C25.2133342,36.32 25.3583327,36.2783338 25.475,36.195 C25.5916672,36.1116662 25.6799997,35.9933341 25.74,35.84 L26.09,34.97 L24.04,29.83 L25,29.83 L26.51,34.06 L26.53,34.06 L27.98,29.83 L28.88,29.83 L26.63,35.69 Z M30.22,32.42 C30.22,32.7333349 30.2616662,33.0116655 30.345,33.255 C30.4283337,33.4983345 30.5433326,33.7016658 30.69,33.865 C30.8366674,34.0283341 31.0083323,34.1533329 31.205,34.24 C31.4016676,34.3266671 31.6099989,34.37 31.83,34.37 C32.0500011,34.37 32.2583323,34.3266671 32.455,34.24 C32.6516676,34.1533329 32.8233326,34.0283341 32.97,33.865 C33.1166674,33.7016658 33.2316662,33.4983345 33.315,33.255 C33.3983337,33.0116655 33.44,32.7333349 33.44,32.42 C33.44,32.1066651 33.3983337,31.8283346 33.315,31.585 C33.2316662,31.3416655 33.1166674,31.1366675 32.97,30.97 C32.8233326,30.8033325 32.6516676,30.6766671 32.455,30.59 C32.2583323,30.5033329 32.0500011,30.46 31.83,30.46 C31.6099989,30.46 31.4016676,30.5033329 31.205,30.59 C31.0083323,30.6766671 30.8366674,30.8033325 30.69,30.97 C30.5433326,31.1366675 30.4283337,31.3416655 30.345,31.585 C30.2616662,31.8283346 30.22,32.1066651 30.22,32.42 Z M29.32,32.42 C29.32,32.0399981 29.3733328,31.6850017 29.48,31.355 C29.5866672,31.0249983 29.7466656,30.7383345 29.96,30.495 C30.1733344,30.2516654 30.4366651,30.0600007 30.75,29.92 C31.0633349,29.7799993 31.4233313,29.71 31.83,29.71 C32.2433354,29.71 32.6049984,29.7799993 32.915,29.92 C33.2250016,30.0600007 33.4866656,30.2516654 33.7,30.495 C33.9133344,30.7383345 34.0733328,31.0249983 34.18,31.355 C34.2866672,31.6850017 34.34,32.0399981 34.34,32.42 C34.34,32.8000019 34.2866672,33.1533317 34.18,33.48 C34.0733328,33.8066683 33.9133344,34.0916655 33.7,34.335 C33.4866656,34.5783346 33.2250016,34.7683326 32.915,34.905 C32.6049984,35.0416673 32.2433354,35.11 31.83,35.11 C31.4233313,35.11 31.0633349,35.0416673 30.75,34.905 C30.4366651,34.7683326 30.1733344,34.5783346 29.96,34.335 C29.7466656,34.0916655 29.5866672,33.8066683 29.48,33.48 C29.3733328,33.1533317 29.32,32.8000019 29.32,32.42 Z M39.62,35 L38.82,35 L38.82,34.18 L38.8,34.18 C38.6199991,34.5000016 38.3900014,34.7349993 38.11,34.885 C37.8299986,35.0350008 37.5000019,35.11 37.12,35.11 C36.7799983,35.11 36.4966678,35.0650004 36.27,34.975 C36.0433322,34.8849996 35.8600007,34.7566675 35.72,34.59 C35.5799993,34.4233325 35.4816669,34.2250011 35.425,33.995 C35.368333,33.7649988 35.34,33.5100014 35.34,33.23 L35.34,29.83 L36.19,29.83 L36.19,33.33 C36.19,33.6500016 36.2833324,33.9033324 36.47,34.09 C36.6566676,34.2766676 36.9133317,34.37 37.24,34.37 C37.5000013,34.37 37.724999,34.3300004 37.915,34.25 C38.1050009,34.1699996 38.2633327,34.0566674 38.39,33.91 C38.5166673,33.7633326 38.6116664,33.5916676 38.675,33.395 C38.7383336,33.1983324 38.77,32.9833345 38.77,32.75 L38.77,29.83 L39.62,29.83 L39.62,35 Z M40.87,29.83 L41.67,29.83 L41.67,30.92 L41.69,30.92 C41.8966677,30.4999979 42.1499985,30.190001 42.45,29.99 C42.7500015,29.789999 43.1299977,29.6966666 43.59,29.71 L43.59,30.61 C43.2499983,30.61 42.9600012,30.6566662 42.72,30.75 C42.4799988,30.8433338 42.2866674,30.9799991 42.14,31.16 C41.9933326,31.3400009 41.886667,31.558332 41.82,31.815 C41.753333,32.0716679 41.72,32.366665 41.72,32.7 L41.72,35 L40.87,35 L40.87,29.83 Z M47.01,29.83 L47.81,29.83 L47.81,30.59 L47.83,30.59 C48.2166686,30.0033304 48.7733297,29.71 49.5,29.71 C49.8200016,29.71 50.1099987,29.776666 50.37,29.91 C50.6300013,30.043334 50.8133328,30.2699984 50.92,30.59 C51.0933342,30.3099986 51.3216653,30.0933341 51.605,29.94 C51.8883347,29.7866659 52.1999983,29.71 52.54,29.71 C52.8000013,29.71 53.034999,29.7383331 53.245,29.795 C53.455001,29.851667 53.6349992,29.9399994 53.785,30.06 C53.9350008,30.1800006 54.0516662,30.3349991 54.135,30.525 C54.2183337,30.7150009 54.26,30.943332 54.26,31.21 L54.26,35 L53.41,35 L53.41,31.61 C53.41,31.4499992 53.3966668,31.3000007 53.37,31.16 C53.3433332,31.0199993 53.2933337,30.8983339 53.22,30.795 C53.1466663,30.6916662 53.0450006,30.6100003 52.915,30.55 C52.7849993,30.4899997 52.6166677,30.46 52.41,30.46 C51.9899979,30.46 51.6600012,30.5799988 51.42,30.82 C51.1799988,31.0600012 51.06,31.379998 51.06,31.78 L51.06,35 L50.21,35 L50.21,31.61 C50.21,31.4433325 50.1950001,31.2900007 50.165,31.15 C50.1349998,31.0099993 50.0833337,30.8883339 50.01,30.785 C49.9366663,30.6816661 49.8383339,30.601667 49.715,30.545 C49.5916661,30.4883331 49.4333343,30.46 49.24,30.46 C48.9933321,30.46 48.7816675,30.5099995 48.605,30.61 C48.4283324,30.7100005 48.2850005,30.8299993 48.175,30.97 C48.0649995,31.1100007 47.9850002,31.2549992 47.935,31.405 C47.8849997,31.5550007 47.86,31.6799995 47.86,31.78 L47.86,35 L47.01,35 L47.01,29.83 Z M59.13,31.92 C59.1166666,31.719999 59.071667,31.5300009 58.995,31.35 C58.9183329,31.1699991 58.8150006,31.0150006 58.685,30.885 C58.5549993,30.7549993 58.4016675,30.6516671 58.225,30.575 C58.0483325,30.4983329 57.8533344,30.46 57.64,30.46 C57.4199989,30.46 57.2216676,30.4983329 57.045,30.575 C56.8683324,30.6516671 56.7166673,30.756666 56.59,30.89 C56.4633327,31.023334 56.3633337,31.1783324 56.29,31.355 C56.2166663,31.5316676 56.1733334,31.719999 56.16,31.92 L59.13,31.92 Z M59.95,33.36 C59.8366661,33.9400029 59.5866686,34.3766652 59.2,34.67 C58.8133314,34.9633348 58.3266696,35.11 57.74,35.11 C57.3266646,35.11 56.9683349,35.043334 56.665,34.91 C56.3616652,34.776666 56.1066677,34.5900012 55.9,34.35 C55.6933323,34.1099988 55.5383339,33.823335 55.435,33.49 C55.3316662,33.156665 55.2733334,32.7933353 55.26,32.4 C55.26,32.0066647 55.3199994,31.6466683 55.44,31.32 C55.5600006,30.9933317 55.7283323,30.7100012 55.945,30.47 C56.1616677,30.2299988 56.4183319,30.043334 56.715,29.91 C57.0116682,29.776666 57.3366649,29.71 57.69,29.71 C58.1500023,29.71 58.5316652,29.804999 58.835,29.995 C59.1383349,30.185001 59.3816658,30.4266652 59.565,30.72 C59.7483343,31.0133348 59.8749996,31.3333316 59.945,31.68 C60.0150004,32.0266684 60.0433334,32.3566651 60.03,32.67 L56.16,32.67 C56.1533333,32.8966678 56.1799997,33.1116656 56.24,33.315 C56.3000003,33.5183344 56.396666,33.6983326 56.53,33.855 C56.663334,34.0116675 56.8333323,34.1366662 57.04,34.23 C57.2466677,34.3233338 57.4899986,34.37 57.77,34.37 C58.1300018,34.37 58.4249989,34.2866675 58.655,34.12 C58.8850012,33.9533325 59.0366663,33.7000017 59.11,33.36 L59.95,33.36 Z M61.43,33.37 C61.4366667,33.5566676 61.4799996,33.7149993 61.56,33.845 C61.6400004,33.9750006 61.7449993,34.078333 61.875,34.155 C62.0050006,34.231667 62.1516659,34.2866665 62.315,34.32 C62.4783341,34.3533335 62.6466658,34.37 62.82,34.37 C62.953334,34.37 63.0933326,34.3600001 63.24,34.34 C63.3866674,34.3199999 63.521666,34.2833336 63.645,34.23 C63.7683339,34.1766664 63.8699996,34.0983339 63.95,33.995 C64.0300004,33.8916661 64.07,33.7600008 64.07,33.6 C64.07,33.3799989 63.9866675,33.2133339 63.82,33.1 C63.6533325,32.9866661 63.4450012,32.8950003 63.195,32.825 C62.9449987,32.7549997 62.6733348,32.6916669 62.38,32.635 C62.0866652,32.578333 61.8150012,32.4983339 61.565,32.395 C61.3149988,32.2916661 61.1066675,32.1466676 60.94,31.96 C60.7733325,31.7733324 60.69,31.513335 60.69,31.18 C60.69,30.9199987 60.7483328,30.6966676 60.865,30.51 C60.9816673,30.3233324 61.1316657,30.1716672 61.315,30.055 C61.4983342,29.9383328 61.7049988,29.851667 61.935,29.795 C62.1650011,29.7383331 62.3933322,29.71 62.62,29.71 C62.9133348,29.71 63.1833321,29.7349998 63.43,29.785 C63.6766679,29.8350003 63.894999,29.921666 64.085,30.045 C64.2750009,30.1683339 64.4266661,30.3349989 64.54,30.545 C64.6533339,30.755001 64.7199999,31.0166651 64.74,31.33 L63.89,31.33 C63.8766666,31.1633325 63.8333337,31.0250006 63.76,30.915 C63.6866663,30.8049994 63.5933339,30.716667 63.48,30.65 C63.3666661,30.583333 63.2416673,30.5350002 63.105,30.505 C62.9683327,30.4749999 62.8300007,30.46 62.69,30.46 C62.5633327,30.46 62.4350006,30.4699999 62.305,30.49 C62.1749993,30.5100001 62.0566672,30.5449998 61.95,30.595 C61.8433328,30.6450002 61.756667,30.7116663 61.69,30.795 C61.623333,30.8783337 61.59,30.986666 61.59,31.12 C61.59,31.2666674 61.6416661,31.3883328 61.745,31.485 C61.8483338,31.5816672 61.9799992,31.6616663 62.14,31.725 C62.3000008,31.7883336 62.479999,31.8416664 62.68,31.885 C62.880001,31.9283335 63.079999,31.9733331 63.28,32.02 C63.4933344,32.0666669 63.7016656,32.123333 63.905,32.19 C64.1083343,32.256667 64.2883325,32.3449995 64.445,32.455 C64.6016674,32.5650006 64.7283328,32.7033325 64.825,32.87 C64.9216671,33.0366675 64.97,33.2433321 64.97,33.49 C64.97,33.8033349 64.9050007,34.0633323 64.775,34.27 C64.6449994,34.4766677 64.4750011,34.6433327 64.265,34.77 C64.0549989,34.8966673 63.8183346,34.9849998 63.555,35.035 C63.2916654,35.0850003 63.0300013,35.11 62.77,35.11 C62.4833319,35.11 62.2100013,35.0800003 61.95,35.02 C61.6899987,34.9599997 61.460001,34.8616674 61.26,34.725 C61.059999,34.5883326 60.9000006,34.4083344 60.78,34.185 C60.6599994,33.9616655 60.5933334,33.6900016 60.58,33.37 L61.43,33.37 Z M66.43,33.37 C66.4366667,33.5566676 66.4799996,33.7149993 66.56,33.845 C66.6400004,33.9750006 66.7449994,34.078333 66.875,34.155 C67.0050006,34.231667 67.1516659,34.2866665 67.315,34.32 C67.4783341,34.3533335 67.6466658,34.37 67.82,34.37 C67.953334,34.37 68.0933326,34.3600001 68.24,34.34 C68.3866674,34.3199999 68.521666,34.2833336 68.645,34.23 C68.7683339,34.1766664 68.8699996,34.0983339 68.95,33.995 C69.0300004,33.8916661 69.07,33.7600008 69.07,33.6 C69.07,33.3799989 68.9866675,33.2133339 68.82,33.1 C68.6533325,32.9866661 68.4450012,32.8950003 68.195,32.825 C67.9449987,32.7549997 67.6733348,32.6916669 67.38,32.635 C67.0866652,32.578333 66.8150012,32.4983339 66.565,32.395 C66.3149988,32.2916661 66.1066675,32.1466676 65.94,31.96 C65.7733325,31.7733324 65.69,31.513335 65.69,31.18 C65.69,30.9199987 65.7483327,30.6966676 65.865,30.51 C65.9816672,30.3233324 66.1316657,30.1716672 66.315,30.055 C66.4983342,29.9383328 66.7049988,29.851667 66.935,29.795 C67.1650012,29.7383331 67.3933322,29.71 67.62,29.71 C67.9133348,29.71 68.1833321,29.7349998 68.43,29.785 C68.6766679,29.8350003 68.894999,29.921666 69.085,30.045 C69.2750009,30.1683339 69.4266661,30.3349989 69.54,30.545 C69.6533339,30.755001 69.7199999,31.0166651 69.74,31.33 L68.89,31.33 C68.8766666,31.1633325 68.8333337,31.0250006 68.76,30.915 C68.6866663,30.8049994 68.5933339,30.716667 68.48,30.65 C68.3666661,30.583333 68.2416674,30.5350002 68.105,30.505 C67.9683326,30.4749999 67.8300007,30.46 67.69,30.46 C67.5633327,30.46 67.4350007,30.4699999 67.305,30.49 C67.1749994,30.5100001 67.0566672,30.5449998 66.95,30.595 C66.8433328,30.6450002 66.756667,30.7116663 66.69,30.795 C66.623333,30.8783337 66.59,30.986666 66.59,31.12 C66.59,31.2666674 66.6416661,31.3883328 66.745,31.485 C66.8483338,31.5816672 66.9799992,31.6616663 67.14,31.725 C67.3000008,31.7883336 67.479999,31.8416664 67.68,31.885 C67.880001,31.9283335 68.079999,31.9733331 68.28,32.02 C68.4933344,32.0666669 68.7016656,32.123333 68.905,32.19 C69.1083343,32.256667 69.2883325,32.3449995 69.445,32.455 C69.6016674,32.5650006 69.7283328,32.7033325 69.825,32.87 C69.9216671,33.0366675 69.97,33.2433321 69.97,33.49 C69.97,33.8033349 69.9050007,34.0633323 69.775,34.27 C69.6449993,34.4766677 69.4750011,34.6433327 69.265,34.77 C69.0549989,34.8966673 68.8183346,34.9849998 68.555,35.035 C68.2916653,35.0850003 68.0300013,35.11 67.77,35.11 C67.4833319,35.11 67.2100013,35.0800003 66.95,35.02 C66.6899987,34.9599997 66.460001,34.8616674 66.26,34.725 C66.059999,34.5883326 65.9000006,34.4083344 65.78,34.185 C65.6599994,33.9616655 65.5933334,33.6900016 65.58,33.37 L66.43,33.37 Z M75.49,34.98 C75.3433326,35.0666671 75.1400013,35.11 74.88,35.11 C74.6599989,35.11 74.4850006,35.0483339 74.355,34.925 C74.2249993,34.8016661 74.16,34.6000014 74.16,34.32 C73.9266655,34.6000014 73.6550015,34.8016661 73.345,34.925 C73.0349984,35.0483339 72.7000018,35.11 72.34,35.11 C72.1066655,35.11 71.885001,35.0833336 71.675,35.03 C71.4649989,34.9766664 71.2833341,34.8933339 71.13,34.78 C70.9766659,34.6666661 70.8550004,34.5183342 70.765,34.335 C70.6749995,34.1516657 70.63,33.9300013 70.63,33.67 C70.63,33.3766652 70.6799995,33.1366676 70.78,32.95 C70.8800005,32.7633324 71.0116658,32.6116672 71.175,32.495 C71.3383341,32.3783327 71.5249989,32.2900003 71.735,32.23 C71.945001,32.1699997 72.1599989,32.1200002 72.38,32.08 C72.6133345,32.0333331 72.8349989,31.9983334 73.045,31.975 C73.255001,31.9516665 73.4399992,31.9183335 73.6,31.875 C73.7600008,31.8316665 73.8866662,31.7683337 73.98,31.685 C74.0733338,31.6016663 74.12,31.4800008 74.12,31.32 C74.12,31.1333324 74.0850003,30.9833339 74.015,30.87 C73.9449996,30.7566661 73.8550005,30.6700003 73.745,30.61 C73.6349994,30.5499997 73.5116673,30.5100001 73.375,30.49 C73.2383326,30.4699999 73.103334,30.46 72.97,30.46 C72.6099982,30.46 72.3100012,30.5283326 72.07,30.665 C71.8299988,30.8016674 71.7000001,31.0599981 71.68,31.44 L70.83,31.44 C70.8433334,31.1199984 70.9099994,30.8500011 71.03,30.63 C71.1500006,30.4099989 71.309999,30.2316674 71.51,30.095 C71.710001,29.9583327 71.938332,29.8600003 72.195,29.8 C72.4516679,29.7399997 72.7266652,29.71 73.02,29.71 C73.2533345,29.71 73.4849988,29.7266665 73.715,29.76 C73.9450011,29.7933335 74.1533324,29.8616661 74.34,29.965 C74.5266676,30.0683339 74.6766661,30.2133324 74.79,30.4 C74.9033339,30.5866676 74.96,30.8299985 74.96,31.13 L74.96,33.79 C74.96,33.990001 74.9716665,34.1366662 74.995,34.23 C75.0183334,34.3233338 75.096666,34.37 75.23,34.37 C75.3033337,34.37 75.3899995,34.3533335 75.49,34.32 L75.49,34.98 Z M74.11,32.33 C74.0033328,32.4100004 73.8633342,32.4683331 73.69,32.505 C73.5166658,32.5416668 73.335001,32.5716666 73.145,32.595 C72.9549991,32.6183335 72.7633343,32.6449998 72.57,32.675 C72.3766657,32.7050002 72.2033341,32.753333 72.05,32.82 C71.8966659,32.886667 71.7716672,32.9816661 71.675,33.105 C71.5783329,33.2283339 71.53,33.3966656 71.53,33.61 C71.53,33.7500007 71.5583331,33.8683329 71.615,33.965 C71.671667,34.0616671 71.7449996,34.1399997 71.835,34.2 C71.9250005,34.2600003 72.0299994,34.3033332 72.15,34.33 C72.2700006,34.3566668 72.396666,34.37 72.53,34.37 C72.8100014,34.37 73.049999,34.3316671 73.25,34.255 C73.450001,34.1783329 73.6133327,34.0816672 73.74,33.965 C73.8666673,33.8483327 73.9599997,33.7216674 74.02,33.585 C74.0800003,33.4483326 74.11,33.3200006 74.11,33.2 L74.11,32.33 Z M80.74,34.56 C80.74,35.4066709 80.5466686,36.0399979 80.16,36.46 C79.7733314,36.8800021 79.1666708,37.09 78.34,37.09 C78.0999988,37.09 77.8550013,37.0633336 77.605,37.01 C77.3549987,36.9566664 77.1283343,36.8700006 76.925,36.75 C76.7216656,36.6299994 76.553334,36.4733343 76.42,36.28 C76.286666,36.0866657 76.2133334,35.8500014 76.2,35.57 L77.05,35.57 C77.0566667,35.7233341 77.1049995,35.8533328 77.195,35.96 C77.2850004,36.0666672 77.3949993,36.153333 77.525,36.22 C77.6550006,36.286667 77.7966659,36.3349999 77.95,36.365 C78.1033341,36.3950002 78.2499993,36.41 78.39,36.41 C78.6700014,36.41 78.9066657,36.3616672 79.1,36.265 C79.2933343,36.1683328 79.4533327,36.0350009 79.58,35.865 C79.7066673,35.6949992 79.798333,35.4900012 79.855,35.25 C79.9116669,35.0099988 79.94,34.7466681 79.94,34.46 L79.94,34.12 L79.92,34.12 C79.7733326,34.4400016 79.5516681,34.6749992 79.255,34.825 C78.9583318,34.9750007 78.643335,35.05 78.31,35.05 C77.9233314,35.05 77.5866681,34.9800007 77.3,34.84 C77.0133319,34.6999993 76.7733343,34.5116679 76.58,34.275 C76.3866657,34.0383322 76.2416671,33.7616682 76.145,33.445 C76.0483328,33.1283318 76,32.7933351 76,32.44 C76,32.1333318 76.0399996,31.818335 76.12,31.495 C76.2000004,31.1716651 76.3333324,30.8783346 76.52,30.615 C76.7066676,30.3516653 76.9533318,30.1350008 77.26,29.965 C77.5666682,29.7949992 77.9433311,29.71 78.39,29.71 C78.7166683,29.71 79.0166653,29.7816659 79.29,29.925 C79.5633347,30.068334 79.7766659,30.2833319 79.93,30.57 L79.94,30.57 L79.94,29.83 L80.74,29.83 L80.74,34.56 Z M78.36,34.31 C78.6400014,34.31 78.8783324,34.2516672 79.075,34.135 C79.2716676,34.0183327 79.4299994,33.8650009 79.55,33.675 C79.6700006,33.484999 79.7583331,33.2700012 79.815,33.03 C79.871667,32.7899988 79.9,32.5500012 79.9,32.31 C79.9,32.0833322 79.8733336,31.8600011 79.82,31.64 C79.7666664,31.4199989 79.6816673,31.2216675 79.565,31.045 C79.4483327,30.8683324 79.2966676,30.7266672 79.11,30.62 C78.9233324,30.5133328 78.696668,30.46 78.43,30.46 C78.1566653,30.46 77.9233343,30.5116661 77.73,30.615 C77.5366657,30.7183339 77.3783339,30.8566658 77.255,31.03 C77.1316661,31.2033342 77.041667,31.4033322 76.985,31.63 C76.9283331,31.8566678 76.9,32.0933321 76.9,32.34 C76.9,32.5733345 76.9233331,32.8066655 76.97,33.04 C77.0166669,33.2733345 77.0966661,33.484999 77.21,33.675 C77.3233339,33.8650009 77.4733324,34.0183327 77.66,34.135 C77.8466676,34.2516672 78.0799986,34.31 78.36,34.31 Z M85.61,31.92 C85.5966666,31.719999 85.551667,31.5300009 85.475,31.35 C85.3983329,31.1699991 85.2950006,31.0150006 85.165,30.885 C85.0349993,30.7549993 84.8816676,30.6516671 84.705,30.575 C84.5283324,30.4983329 84.3333344,30.46 84.12,30.46 C83.8999989,30.46 83.7016675,30.4983329 83.525,30.575 C83.3483324,30.6516671 83.1966673,30.756666 83.07,30.89 C82.9433327,31.023334 82.8433337,31.1783324 82.77,31.355 C82.6966663,31.5316676 82.6533334,31.719999 82.64,31.92 L85.61,31.92 Z M86.43,33.36 C86.3166661,33.9400029 86.0666686,34.3766652 85.68,34.67 C85.2933314,34.9633348 84.8066696,35.11 84.22,35.11 C83.8066646,35.11 83.4483348,35.043334 83.145,34.91 C82.8416651,34.776666 82.5866677,34.5900012 82.38,34.35 C82.1733323,34.1099988 82.0183338,33.823335 81.915,33.49 C81.8116661,33.156665 81.7533334,32.7933353 81.74,32.4 C81.74,32.0066647 81.7999994,31.6466683 81.92,31.32 C82.0400006,30.9933317 82.2083322,30.7100012 82.425,30.47 C82.6416677,30.2299988 82.8983319,30.043334 83.195,29.91 C83.4916682,29.776666 83.8166649,29.71 84.17,29.71 C84.6300023,29.71 85.0116651,29.804999 85.315,29.995 C85.6183348,30.185001 85.8616658,30.4266652 86.045,30.72 C86.2283343,31.0133348 86.3549996,31.3333316 86.425,31.68 C86.4950003,32.0266684 86.5233334,32.3566651 86.51,32.67 L82.64,32.67 C82.6333333,32.8966678 82.6599997,33.1116656 82.72,33.315 C82.7800003,33.5183344 82.876666,33.6983326 83.01,33.855 C83.143334,34.0116675 83.3133323,34.1366662 83.52,34.23 C83.7266677,34.3233338 83.9699986,34.37 84.25,34.37 C84.6100018,34.37 84.9049988,34.2866675 85.135,34.12 C85.3650011,33.9533325 85.5166663,33.7000017 85.59,33.36 L86.43,33.36 Z" id="Typeyourmessage"></path>
                <path d="M25.2945,3.106 L21.6565,3.106 L21.6565,0.862 L31.6015,0.862 L31.6015,3.106 L27.9635,3.106 L27.9635,13 L25.2945,13 L25.2945,3.106 Z M32.9955,0.862 L42.0735,0.862 L42.0735,3.106 L35.6645,3.106 L35.6645,5.707 L41.5465,5.707 L41.5465,7.781 L35.6645,7.781 L35.6645,10.756 L42.2095,10.756 L42.2095,13 L32.9955,13 L32.9955,0.862 Z M46.9865,6.642 L43.0765,0.862 L46.1705,0.862 L48.5505,4.738 L51.0155,0.862 L53.9395,0.862 L50.0465,6.659 L54.2795,13 L51.1005,13 L48.4485,8.801 L45.7455,13 L42.7535,13 L46.9865,6.642 Z M58.0365,3.106 L54.3985,3.106 L54.3985,0.862 L64.3435,0.862 L64.3435,3.106 L60.7055,3.106 L60.7055,13 L58.0365,13 L58.0365,3.106 Z" id="TEXT"></path>
            </g>
        </g>
    </g>
</svg>