<?xml version="1.0" encoding="UTF-8"?>
<svg width="142px" height="38px" viewBox="0 0 142 38" version="1.1" xmlns="http://www.w3.org/2000/svg" xmlns:xlink="http://www.w3.org/1999/xlink">
    <!-- Generator: Sketch 54.1 (76490) - https://sketchapp.com -->
    <title>Text</title>
    <desc>Created with Sketch.</desc>
    <g id="页面1" stroke="none" stroke-width="1" fill="none" fill-rule="evenodd">
        <g id="C-35&gt;Shake-to-Remix&gt;EN" transform="translate(-26.000000, -555.000000)" fill="#6A6A6A" fill-rule="nonzero">
            <g id="Content" transform="translate(12.000000, 76.000000)">
                <g id="03_AutoDesigner" transform="translate(0.000000, 281.000000)">
                    <g id="Text" transform="translate(9.500000, 194.000000)">
                        <path d="M9.28,33.95 C9.2266664,33.4366641 9.04166825,33.0650012 8.725,32.835 C8.40833175,32.6049989 8.0033358,32.49 7.51,32.49 C7.309999,32.49 7.1133343,32.5099998 6.92,32.55 C6.7266657,32.5900002 6.55500075,32.6566662 6.405,32.75 C6.25499925,32.8433338 6.13500045,32.9683325 6.045,33.125 C5.95499955,33.2816675 5.91,33.4766655 5.91,33.71 C5.91,33.9300011 5.97499935,34.1083327 6.105,34.245 C6.23500065,34.3816674 6.40833225,34.4933329 6.625,34.58 C6.84166775,34.6666671 7.0866653,34.7383331 7.36,34.795 C7.6333347,34.851667 7.91166525,34.913333 8.195,34.98 C8.47833475,35.046667 8.7566653,35.1249995 9.03,35.215 C9.3033347,35.3050005 9.54833225,35.4266659 9.765,35.58 C9.98166775,35.7333341 10.1549993,35.9266655 10.285,36.16 C10.4150006,36.3933345 10.48,36.6866649 10.48,37.04 C10.48,37.4200019 10.3950008,37.7449986 10.225,38.015 C10.0549991,38.2850014 9.836668,38.5049992 9.57,38.675 C9.303332,38.8450009 9.00500165,38.968333 8.675,39.045 C8.34499835,39.121667 8.0166683,39.16 7.69,39.16 C7.289998,39.16 6.91166845,39.1100005 6.555,39.01 C6.19833155,38.9099995 5.88500135,38.7583343 5.615,38.555 C5.34499865,38.3516657 5.13166745,38.0916682 4.975,37.775 C4.81833255,37.4583317 4.74,37.0833355 4.74,36.65 L5.64,36.65 C5.64,36.9500015 5.69833275,37.2083322 5.815,37.425 C5.93166725,37.6416677 6.08499905,37.8199993 6.275,37.96 C6.46500095,38.1000007 6.6866654,38.203333 6.94,38.27 C7.1933346,38.336667 7.453332,38.37 7.72,38.37 C7.9333344,38.37 8.14833225,38.3500002 8.365,38.31 C8.58166775,38.2699998 8.7766658,38.2016672 8.95,38.105 C9.1233342,38.0083329 9.2633328,37.8766675 9.37,37.71 C9.4766672,37.5433325 9.53,37.3300013 9.53,37.07 C9.53,36.8233321 9.46500065,36.6233341 9.335,36.47 C9.20499935,36.3166659 9.03166775,36.1916672 8.815,36.095 C8.59833225,35.9983328 8.3533347,35.9200003 8.08,35.86 C7.8066653,35.7999997 7.52833475,35.7383337 7.245,35.675 C6.96166525,35.6116664 6.6833347,35.5383338 6.41,35.455 C6.1366653,35.3716663 5.89166775,35.2616673 5.675,35.125 C5.45833225,34.9883327 5.28500065,34.8116677 5.155,34.595 C5.02499935,34.3783322 4.96,34.1066683 4.96,33.78 C4.96,33.4199982 5.0333326,33.1083347 5.18,32.845 C5.3266674,32.5816654 5.52166545,32.3650009 5.765,32.195 C6.00833455,32.0249991 6.28499845,31.8983338 6.595,31.815 C6.90500155,31.7316663 7.2233317,31.69 7.55,31.69 C7.9166685,31.69 8.2566651,31.7333329 8.57,31.82 C8.8833349,31.9066671 9.15833215,32.0433324 9.395,32.23 C9.63166785,32.4166676 9.81833265,32.6516653 9.955,32.935 C10.0916673,33.2183347 10.1666666,33.5566647 10.18,33.95 L9.28,33.95 Z M11.49,31.86 L12.34,31.86 L12.34,34.59 L12.36,34.59 C12.426667,34.4299992 12.5199994,34.2950005 12.64,34.185 C12.7600006,34.0749995 12.8949992,33.9850004 13.045,33.915 C13.1950007,33.8449997 13.3516658,33.7933335 13.515,33.76 C13.6783341,33.7266665 13.8366659,33.71 13.99,33.71 C14.3300017,33.71 14.6133322,33.7566662 14.84,33.85 C15.0666678,33.9433338 15.2499993,34.0733325 15.39,34.24 C15.5300007,34.4066675 15.628333,34.6049989 15.685,34.835 C15.7416669,35.0650012 15.77,35.3199986 15.77,35.6 L15.77,39 L14.92,39 L14.92,35.5 C14.92,35.1799984 14.8266676,34.9266676 14.64,34.74 C14.4533324,34.5533324 14.1966683,34.46 13.87,34.46 C13.6099987,34.46 13.3850009,34.4999996 13.195,34.58 C13.004999,34.6600004 12.8466673,34.7733326 12.72,34.92 C12.5933327,35.0666674 12.4983336,35.2383324 12.435,35.435 C12.3716663,35.6316676 12.34,35.8466655 12.34,36.08 L12.34,39 L11.49,39 L11.49,31.86 Z M21.63,38.98 C21.4833326,39.0666671 21.2800013,39.11 21.02,39.11 C20.7999989,39.11 20.6250006,39.0483339 20.495,38.925 C20.3649993,38.8016661 20.3,38.6000014 20.3,38.32 C20.0666655,38.6000014 19.7950015,38.8016661 19.485,38.925 C19.1749984,39.0483339 18.8400018,39.11 18.48,39.11 C18.2466655,39.11 18.025001,39.0833336 17.815,39.03 C17.6049989,38.9766664 17.4233341,38.8933339 17.27,38.78 C17.1166659,38.6666661 16.9950004,38.5183342 16.905,38.335 C16.8149995,38.1516658 16.77,37.9300013 16.77,37.67 C16.77,37.3766652 16.8199995,37.1366676 16.92,36.95 C17.0200005,36.7633324 17.1516658,36.6116672 17.315,36.495 C17.4783341,36.3783327 17.6649989,36.2900003 17.875,36.23 C18.085001,36.1699997 18.2999989,36.1200002 18.52,36.08 C18.7533345,36.0333331 18.9749989,35.9983335 19.185,35.975 C19.395001,35.9516665 19.5799992,35.9183335 19.74,35.875 C19.9000008,35.8316665 20.0266662,35.7683337 20.12,35.685 C20.2133338,35.6016663 20.26,35.4800008 20.26,35.32 C20.26,35.1333324 20.2250003,34.9833339 20.155,34.87 C20.0849996,34.7566661 19.9950005,34.6700003 19.885,34.61 C19.7749994,34.5499997 19.6516673,34.5100001 19.515,34.49 C19.3783326,34.4699999 19.243334,34.46 19.11,34.46 C18.7499982,34.46 18.4500012,34.5283326 18.21,34.665 C17.9699988,34.8016674 17.8400001,35.0599981 17.82,35.44 L16.97,35.44 C16.9833334,35.1199984 17.0499994,34.8500011 17.17,34.63 C17.2900006,34.4099989 17.449999,34.2316674 17.65,34.095 C17.850001,33.9583327 18.078332,33.8600003 18.335,33.8 C18.5916679,33.7399997 18.8666652,33.71 19.16,33.71 C19.3933345,33.71 19.6249988,33.7266665 19.855,33.76 C20.0850011,33.7933335 20.2933324,33.8616662 20.48,33.965 C20.6666676,34.0683339 20.8166661,34.2133324 20.93,34.4 C21.0433339,34.5866676 21.1,34.8299985 21.1,35.13 L21.1,37.79 C21.1,37.990001 21.1116665,38.1366662 21.135,38.23 C21.1583334,38.3233338 21.236666,38.37 21.37,38.37 C21.4433337,38.37 21.5299995,38.3533335 21.63,38.32 L21.63,38.98 Z M20.25,36.33 C20.1433328,36.4100004 20.0033342,36.4683332 19.83,36.505 C19.6566658,36.5416668 19.4750009,36.5716666 19.285,36.595 C19.094999,36.6183335 18.9033343,36.6449999 18.71,36.675 C18.5166657,36.7050002 18.3433341,36.753333 18.19,36.82 C18.0366659,36.886667 17.9116671,36.9816661 17.815,37.105 C17.7183328,37.228334 17.67,37.3966656 17.67,37.61 C17.67,37.7500007 17.698333,37.8683329 17.755,37.965 C17.8116669,38.0616672 17.8849995,38.1399997 17.975,38.2 C18.0650004,38.2600003 18.1699994,38.3033332 18.29,38.33 C18.4100006,38.3566668 18.536666,38.37 18.67,38.37 C18.9500014,38.37 19.189999,38.3316671 19.39,38.255 C19.590001,38.1783329 19.7533327,38.0816672 19.88,37.965 C20.0066673,37.8483327 20.0999997,37.7216674 20.16,37.585 C20.2200003,37.4483326 20.25,37.3200006 20.25,37.2 L20.25,36.33 Z M22.47,31.86 L23.32,31.86 L23.32,36.09 L25.68,33.83 L26.82,33.83 L24.77,35.71 L26.97,39 L25.89,39 L24.12,36.3 L23.32,37.04 L23.32,39 L22.47,39 L22.47,31.86 Z M31.2,35.92 C31.1866666,35.719999 31.141667,35.5300009 31.065,35.35 C30.9883329,35.1699991 30.8850006,35.0150007 30.755,34.885 C30.6249993,34.7549994 30.4716675,34.6516671 30.295,34.575 C30.1183324,34.498333 29.9233344,34.46 29.71,34.46 C29.4899989,34.46 29.2916675,34.498333 29.115,34.575 C28.9383324,34.6516671 28.7866673,34.756666 28.66,34.89 C28.5333327,35.023334 28.4333337,35.1783324 28.36,35.355 C28.2866663,35.5316676 28.2433334,35.719999 28.23,35.92 L31.2,35.92 Z M32.02,37.36 C31.9066661,37.9400029 31.6566686,38.3766652 31.27,38.67 C30.8833314,38.9633348 30.3966696,39.11 29.81,39.11 C29.3966646,39.11 29.0383348,39.043334 28.735,38.91 C28.4316651,38.776666 28.1766677,38.5900012 27.97,38.35 C27.7633323,38.1099988 27.6083338,37.823335 27.505,37.49 C27.4016661,37.156665 27.3433334,36.7933353 27.33,36.4 C27.33,36.0066647 27.3899994,35.6466683 27.51,35.32 C27.6300006,34.9933317 27.7983322,34.7100012 28.015,34.47 C28.2316677,34.2299988 28.4883318,34.043334 28.785,33.91 C29.0816681,33.776666 29.4066649,33.71 29.76,33.71 C30.2200023,33.71 30.6016651,33.8049991 30.905,33.995 C31.2083348,34.185001 31.4516657,34.4266652 31.635,34.72 C31.8183342,35.0133348 31.9449996,35.3333316 32.015,35.68 C32.0850003,36.0266684 32.1133334,36.3566651 32.1,36.67 L28.23,36.67 C28.2233333,36.8966678 28.2499997,37.1116657 28.31,37.315 C28.3700003,37.5183344 28.466666,37.6983326 28.6,37.855 C28.733334,38.0116675 28.9033323,38.1366662 29.11,38.23 C29.3166677,38.3233338 29.5599986,38.37 29.84,38.37 C30.2000018,38.37 30.4949988,38.2866675 30.725,38.12 C30.9550011,37.9533325 31.1066663,37.7000017 31.18,37.36 L32.02,37.36 Z M36.94,33.83 L37.97,33.83 L37.97,34.58 L36.94,34.58 L36.94,37.79 C36.94,37.8900005 36.9483332,37.9699997 36.965,38.03 C36.9816667,38.0900003 37.0133331,38.1366665 37.06,38.17 C37.1066669,38.2033335 37.1716662,38.2249999 37.255,38.235 C37.3383337,38.2450001 37.446666,38.25 37.58,38.25 L37.97,38.25 L37.97,39 L37.32,39 C37.0999989,39 36.9116674,38.9850002 36.755,38.955 C36.5983325,38.9249999 36.4716671,38.8700004 36.375,38.79 C36.2783328,38.7099996 36.2066669,38.5966674 36.16,38.45 C36.1133331,38.3033326 36.09,38.1100012 36.09,37.87 L36.09,34.58 L35.21,34.58 L35.21,33.83 L36.09,33.83 L36.09,32.28 L36.94,32.28 L36.94,33.83 Z M39.53,36.42 C39.53,36.7333349 39.5716662,37.0116655 39.655,37.255 C39.7383337,37.4983345 39.8533326,37.7016658 40,37.865 C40.1466674,38.0283342 40.3183323,38.1533329 40.515,38.24 C40.7116676,38.3266671 40.9199989,38.37 41.14,38.37 C41.3600011,38.37 41.5683323,38.3266671 41.765,38.24 C41.9616676,38.1533329 42.1333326,38.0283342 42.28,37.865 C42.4266674,37.7016658 42.5416662,37.4983345 42.625,37.255 C42.7083337,37.0116655 42.75,36.7333349 42.75,36.42 C42.75,36.1066651 42.7083337,35.8283346 42.625,35.585 C42.5416662,35.3416655 42.4266674,35.1366675 42.28,34.97 C42.1333326,34.8033325 41.9616676,34.6766671 41.765,34.59 C41.5683323,34.5033329 41.3600011,34.46 41.14,34.46 C40.9199989,34.46 40.7116676,34.5033329 40.515,34.59 C40.3183323,34.6766671 40.1466674,34.8033325 40,34.97 C39.8533326,35.1366675 39.7383337,35.3416655 39.655,35.585 C39.5716662,35.8283346 39.53,36.1066651 39.53,36.42 Z M38.63,36.42 C38.63,36.0399981 38.6833328,35.6850017 38.79,35.355 C38.8966672,35.0249984 39.0566656,34.7383346 39.27,34.495 C39.4833344,34.2516655 39.7466651,34.0600007 40.06,33.92 C40.3733349,33.7799993 40.7333313,33.71 41.14,33.71 C41.5533354,33.71 41.9149984,33.7799993 42.225,33.92 C42.5350015,34.0600007 42.7966656,34.2516655 43.01,34.495 C43.2233344,34.7383346 43.3833328,35.0249984 43.49,35.355 C43.5966672,35.6850017 43.65,36.0399981 43.65,36.42 C43.65,36.8000019 43.5966672,37.1533317 43.49,37.48 C43.3833328,37.8066683 43.2233344,38.0916655 43.01,38.335 C42.7966656,38.5783346 42.5350015,38.7683327 42.225,38.905 C41.9149984,39.0416673 41.5533354,39.11 41.14,39.11 C40.7333313,39.11 40.3733349,39.0416673 40.06,38.905 C39.7466651,38.7683327 39.4833344,38.5783346 39.27,38.335 C39.0566656,38.0916655 38.8966672,37.8066683 38.79,37.48 C38.6833328,37.1533317 38.63,36.8000019 38.63,36.42 Z M50.94,35.49 C50.873333,35.1633317 50.7333344,34.9100009 50.52,34.73 C50.3066656,34.5499991 50.0200018,34.46 49.66,34.46 C49.3533318,34.46 49.0966677,34.5166661 48.89,34.63 C48.6833323,34.7433339 48.5183339,34.8933324 48.395,35.08 C48.271666,35.2666676 48.1833336,35.4816655 48.13,35.725 C48.0766664,35.9683346 48.05,36.2199987 48.05,36.48 C48.05,36.7200012 48.078333,36.9533322 48.135,37.18 C48.1916669,37.4066678 48.2799994,37.6083325 48.4,37.785 C48.5200006,37.9616676 48.6766657,38.1033328 48.87,38.21 C49.0633343,38.3166672 49.293332,38.37 49.56,38.37 C49.9800021,38.37 50.3083321,38.2600011 50.545,38.04 C50.7816678,37.8199989 50.9266664,37.510002 50.98,37.11 L51.85,37.11 C51.7566662,37.7500032 51.5183352,38.2433316 51.135,38.59 C50.7516647,38.9366684 50.2300033,39.11 49.57,39.11 C49.1766647,39.11 48.8283348,39.0466673 48.525,38.92 C48.2216651,38.7933327 47.9683343,38.6133345 47.765,38.38 C47.5616656,38.1466655 47.4083338,37.868335 47.305,37.545 C47.2016661,37.221665 47.15,36.8666686 47.15,36.48 C47.15,36.0933314 47.1999995,35.7316684 47.3,35.395 C47.4000005,35.0583316 47.5516656,34.7650012 47.755,34.515 C47.9583343,34.2649988 48.2133318,34.0683341 48.52,33.925 C48.8266682,33.781666 49.1833313,33.71 49.59,33.71 C49.8833348,33.71 50.158332,33.7449996 50.415,33.815 C50.6716679,33.8850003 50.8983323,33.9933326 51.095,34.14 C51.2916676,34.2866674 51.4533327,34.4716655 51.58,34.695 C51.7066673,34.9183345 51.7866665,35.1833318 51.82,35.49 L50.94,35.49 Z M52.77,33.83 L53.57,33.83 L53.57,34.92 L53.59,34.92 C53.7966677,34.4999979 54.0499985,34.190001 54.35,33.99 C54.6500015,33.789999 55.0299977,33.6966666 55.49,33.71 L55.49,34.61 C55.1499983,34.61 54.8600012,34.6566662 54.62,34.75 C54.3799988,34.8433338 54.1866674,34.9799991 54.04,35.16 C53.8933326,35.3400009 53.786667,35.5583321 53.72,35.815 C53.653333,36.071668 53.62,36.366665 53.62,36.7 L53.62,39 L52.77,39 L52.77,33.83 Z M59.54,35.92 C59.5266666,35.719999 59.481667,35.5300009 59.405,35.35 C59.3283329,35.1699991 59.2250006,35.0150007 59.095,34.885 C58.9649993,34.7549994 58.8116675,34.6516671 58.635,34.575 C58.4583324,34.498333 58.2633344,34.46 58.05,34.46 C57.8299989,34.46 57.6316675,34.498333 57.455,34.575 C57.2783324,34.6516671 57.1266673,34.756666 57,34.89 C56.8733327,35.023334 56.7733337,35.1783324 56.7,35.355 C56.6266663,35.5316676 56.5833334,35.719999 56.57,35.92 L59.54,35.92 Z M60.36,37.36 C60.2466661,37.9400029 59.9966686,38.3766652 59.61,38.67 C59.2233314,38.9633348 58.7366696,39.11 58.15,39.11 C57.7366646,39.11 57.3783348,39.043334 57.075,38.91 C56.7716651,38.776666 56.5166677,38.5900012 56.31,38.35 C56.1033323,38.1099988 55.9483338,37.823335 55.845,37.49 C55.7416661,37.156665 55.6833334,36.7933353 55.67,36.4 C55.67,36.0066647 55.7299994,35.6466683 55.85,35.32 C55.9700006,34.9933317 56.1383322,34.7100012 56.355,34.47 C56.5716677,34.2299988 56.8283318,34.043334 57.125,33.91 C57.4216681,33.776666 57.7466649,33.71 58.1,33.71 C58.5600023,33.71 58.9416651,33.8049991 59.245,33.995 C59.5483348,34.185001 59.7916657,34.4266652 59.975,34.72 C60.1583342,35.0133348 60.2849996,35.3333316 60.355,35.68 C60.4250003,36.0266684 60.4533334,36.3566651 60.44,36.67 L56.57,36.67 C56.5633333,36.8966678 56.5899997,37.1116657 56.65,37.315 C56.7100003,37.5183344 56.806666,37.6983326 56.94,37.855 C57.073334,38.0116675 57.2433323,38.1366662 57.45,38.23 C57.6566677,38.3233338 57.8999986,38.37 58.18,38.37 C58.5400018,38.37 58.8349988,38.2866675 59.065,38.12 C59.2950011,37.9533325 59.4466663,37.7000017 59.52,37.36 L60.36,37.36 Z M65.9,38.98 C65.7533326,39.0666671 65.5500013,39.11 65.29,39.11 C65.0699989,39.11 64.8950006,39.0483339 64.765,38.925 C64.6349993,38.8016661 64.57,38.6000014 64.57,38.32 C64.3366655,38.6000014 64.0650015,38.8016661 63.755,38.925 C63.4449984,39.0483339 63.1100018,39.11 62.75,39.11 C62.5166655,39.11 62.295001,39.0833336 62.085,39.03 C61.8749989,38.9766664 61.6933341,38.8933339 61.54,38.78 C61.3866659,38.6666661 61.2650004,38.5183342 61.175,38.335 C61.0849995,38.1516658 61.04,37.9300013 61.04,37.67 C61.04,37.3766652 61.0899995,37.1366676 61.19,36.95 C61.2900005,36.7633324 61.4216658,36.6116672 61.585,36.495 C61.7483341,36.3783327 61.9349989,36.2900003 62.145,36.23 C62.355001,36.1699997 62.5699989,36.1200002 62.79,36.08 C63.0233345,36.0333331 63.2449989,35.9983335 63.455,35.975 C63.665001,35.9516665 63.8499992,35.9183335 64.01,35.875 C64.1700008,35.8316665 64.2966662,35.7683337 64.39,35.685 C64.4833338,35.6016663 64.53,35.4800008 64.53,35.32 C64.53,35.1333324 64.4950003,34.9833339 64.425,34.87 C64.3549996,34.7566661 64.2650005,34.6700003 64.155,34.61 C64.0449994,34.5499997 63.9216673,34.5100001 63.785,34.49 C63.6483326,34.4699999 63.513334,34.46 63.38,34.46 C63.0199982,34.46 62.7200012,34.5283326 62.48,34.665 C62.2399988,34.8016674 62.1100001,35.0599981 62.09,35.44 L61.24,35.44 C61.2533334,35.1199984 61.3199994,34.8500011 61.44,34.63 C61.5600006,34.4099989 61.719999,34.2316674 61.92,34.095 C62.120001,33.9583327 62.348332,33.8600003 62.605,33.8 C62.8616679,33.7399997 63.1366652,33.71 63.43,33.71 C63.6633345,33.71 63.8949988,33.7266665 64.125,33.76 C64.3550011,33.7933335 64.5633324,33.8616662 64.75,33.965 C64.9366676,34.0683339 65.0866661,34.2133324 65.2,34.4 C65.3133339,34.5866676 65.37,34.8299985 65.37,35.13 L65.37,37.79 C65.37,37.990001 65.3816665,38.1366662 65.405,38.23 C65.4283334,38.3233338 65.506666,38.37 65.64,38.37 C65.7133337,38.37 65.7999995,38.3533335 65.9,38.32 L65.9,38.98 Z M64.52,36.33 C64.4133328,36.4100004 64.2733342,36.4683332 64.1,36.505 C63.9266658,36.5416668 63.7450009,36.5716666 63.555,36.595 C63.364999,36.6183335 63.1733343,36.6449999 62.98,36.675 C62.7866657,36.7050002 62.6133341,36.753333 62.46,36.82 C62.3066659,36.886667 62.1816671,36.9816661 62.085,37.105 C61.9883328,37.228334 61.94,37.3966656 61.94,37.61 C61.94,37.7500007 61.968333,37.8683329 62.025,37.965 C62.0816669,38.0616672 62.1549995,38.1399997 62.245,38.2 C62.3350004,38.2600003 62.4399994,38.3033332 62.56,38.33 C62.6800006,38.3566668 62.806666,38.37 62.94,38.37 C63.2200014,38.37 63.459999,38.3316671 63.66,38.255 C63.860001,38.1783329 64.0233327,38.0816672 64.15,37.965 C64.2766673,37.8483327 64.3699997,37.7216674 64.43,37.585 C64.4900003,37.4483326 64.52,37.3200006 64.52,37.2 L64.52,36.33 Z M67.87,33.83 L68.9,33.83 L68.9,34.58 L67.87,34.58 L67.87,37.79 C67.87,37.8900005 67.8783332,37.9699997 67.895,38.03 C67.9116667,38.0900003 67.9433331,38.1366665 67.99,38.17 C68.0366669,38.2033335 68.1016662,38.2249999 68.185,38.235 C68.2683337,38.2450001 68.376666,38.25 68.51,38.25 L68.9,38.25 L68.9,39 L68.25,39 C68.0299989,39 67.8416674,38.9850002 67.685,38.955 C67.5283325,38.9249999 67.4016671,38.8700004 67.305,38.79 C67.2083328,38.7099996 67.1366669,38.5966674 67.09,38.45 C67.0433331,38.3033326 67.02,38.1100012 67.02,37.87 L67.02,34.58 L66.14,34.58 L66.14,33.83 L67.02,33.83 L67.02,32.28 L67.87,32.28 L67.87,33.83 Z M73.43,35.92 C73.4166666,35.719999 73.371667,35.5300009 73.295,35.35 C73.2183329,35.1699991 73.1150006,35.0150007 72.985,34.885 C72.8549993,34.7549994 72.7016675,34.6516671 72.525,34.575 C72.3483324,34.498333 72.1533344,34.46 71.94,34.46 C71.7199989,34.46 71.5216675,34.498333 71.345,34.575 C71.1683324,34.6516671 71.0166673,34.756666 70.89,34.89 C70.7633327,35.023334 70.6633337,35.1783324 70.59,35.355 C70.5166663,35.5316676 70.4733334,35.719999 70.46,35.92 L73.43,35.92 Z M74.25,37.36 C74.1366661,37.9400029 73.8866686,38.3766652 73.5,38.67 C73.1133314,38.9633348 72.6266696,39.11 72.04,39.11 C71.6266646,39.11 71.2683348,39.043334 70.965,38.91 C70.6616651,38.776666 70.4066677,38.5900012 70.2,38.35 C69.9933323,38.1099988 69.8383338,37.823335 69.735,37.49 C69.6316661,37.156665 69.5733334,36.7933353 69.56,36.4 C69.56,36.0066647 69.6199994,35.6466683 69.74,35.32 C69.8600006,34.9933317 70.0283322,34.7100012 70.245,34.47 C70.4616677,34.2299988 70.7183318,34.043334 71.015,33.91 C71.3116681,33.776666 71.6366649,33.71 71.99,33.71 C72.4500023,33.71 72.8316651,33.8049991 73.135,33.995 C73.4383348,34.185001 73.6816657,34.4266652 73.865,34.72 C74.0483342,35.0133348 74.1749996,35.3333316 74.245,35.68 C74.3150003,36.0266684 74.3433334,36.3566651 74.33,36.67 L70.46,36.67 C70.4533333,36.8966678 70.4799997,37.1116657 70.54,37.315 C70.6000003,37.5183344 70.696666,37.6983326 70.83,37.855 C70.963334,38.0116675 71.1333323,38.1366662 71.34,38.23 C71.5466677,38.3233338 71.7899986,38.37 72.07,38.37 C72.4300018,38.37 72.7249988,38.2866675 72.955,38.12 C73.1850011,37.9533325 73.3366663,37.7000017 73.41,37.36 L74.25,37.36 Z M77.96,33.83 L78.76,33.83 L78.76,34.92 L78.78,34.92 C78.9866677,34.4999979 79.2399985,34.190001 79.54,33.99 C79.8400015,33.789999 80.2199977,33.6966666 80.68,33.71 L80.68,34.61 C80.3399983,34.61 80.0500012,34.6566662 79.81,34.75 C79.5699988,34.8433338 79.3766674,34.9799991 79.23,35.16 C79.0833326,35.3400009 78.976667,35.5583321 78.91,35.815 C78.843333,36.071668 78.81,36.366665 78.81,36.7 L78.81,39 L77.96,39 L77.96,33.83 Z M85.9,38.98 C85.7533326,39.0666671 85.5500013,39.11 85.29,39.11 C85.0699989,39.11 84.8950006,39.0483339 84.765,38.925 C84.6349993,38.8016661 84.57,38.6000014 84.57,38.32 C84.3366655,38.6000014 84.0650015,38.8016661 83.755,38.925 C83.4449984,39.0483339 83.1100018,39.11 82.75,39.11 C82.5166655,39.11 82.295001,39.0833336 82.085,39.03 C81.8749989,38.9766664 81.6933341,38.8933339 81.54,38.78 C81.3866659,38.6666661 81.2650004,38.5183342 81.175,38.335 C81.0849995,38.1516658 81.04,37.9300013 81.04,37.67 C81.04,37.3766652 81.0899995,37.1366676 81.19,36.95 C81.2900005,36.7633324 81.4216658,36.6116672 81.585,36.495 C81.7483341,36.3783327 81.9349989,36.2900003 82.145,36.23 C82.355001,36.1699997 82.5699989,36.1200002 82.79,36.08 C83.0233345,36.0333331 83.2449989,35.9983335 83.455,35.975 C83.665001,35.9516665 83.8499992,35.9183335 84.01,35.875 C84.1700008,35.8316665 84.2966662,35.7683337 84.39,35.685 C84.4833338,35.6016663 84.53,35.4800008 84.53,35.32 C84.53,35.1333324 84.4950003,34.9833339 84.425,34.87 C84.3549996,34.7566661 84.2650005,34.6700003 84.155,34.61 C84.0449994,34.5499997 83.9216673,34.5100001 83.785,34.49 C83.6483326,34.4699999 83.513334,34.46 83.38,34.46 C83.0199982,34.46 82.7200012,34.5283326 82.48,34.665 C82.2399988,34.8016674 82.1100001,35.0599981 82.09,35.44 L81.24,35.44 C81.2533334,35.1199984 81.3199994,34.8500011 81.44,34.63 C81.5600006,34.4099989 81.719999,34.2316674 81.92,34.095 C82.120001,33.9583327 82.348332,33.8600003 82.605,33.8 C82.8616679,33.7399997 83.1366652,33.71 83.43,33.71 C83.6633345,33.71 83.8949988,33.7266665 84.125,33.76 C84.3550011,33.7933335 84.5633324,33.8616662 84.75,33.965 C84.9366676,34.0683339 85.0866661,34.2133324 85.2,34.4 C85.3133339,34.5866676 85.37,34.8299985 85.37,35.13 L85.37,37.79 C85.37,37.990001 85.3816665,38.1366662 85.405,38.23 C85.4283334,38.3233338 85.506666,38.37 85.64,38.37 C85.7133337,38.37 85.7999995,38.3533335 85.9,38.32 L85.9,38.98 Z M84.52,36.33 C84.4133328,36.4100004 84.2733342,36.4683332 84.1,36.505 C83.9266658,36.5416668 83.745001,36.5716666 83.555,36.595 C83.3649991,36.6183335 83.1733343,36.6449999 82.98,36.675 C82.7866657,36.7050002 82.6133341,36.753333 82.46,36.82 C82.3066659,36.886667 82.1816672,36.9816661 82.085,37.105 C81.9883329,37.228334 81.94,37.3966656 81.94,37.61 C81.94,37.7500007 81.9683331,37.8683329 82.025,37.965 C82.081667,38.0616672 82.1549996,38.1399997 82.245,38.2 C82.3350005,38.2600003 82.4399994,38.3033332 82.56,38.33 C82.6800006,38.3566668 82.806666,38.37 82.94,38.37 C83.2200014,38.37 83.459999,38.3316671 83.66,38.255 C83.860001,38.1783329 84.0233327,38.0816672 84.15,37.965 C84.2766673,37.8483327 84.3699997,37.7216674 84.43,37.585 C84.4900003,37.4483326 84.52,37.3200006 84.52,37.2 L84.52,36.33 Z M86.69,33.83 L87.49,33.83 L87.49,34.65 L87.51,34.65 C87.8633351,34.0233302 88.4233295,33.71 89.19,33.71 C89.5300017,33.71 89.8133322,33.7566662 90.04,33.85 C90.2666678,33.9433338 90.4499993,34.0733325 90.59,34.24 C90.7300007,34.4066675 90.828333,34.6049989 90.885,34.835 C90.9416669,35.0650012 90.97,35.3199986 90.97,35.6 L90.97,39 L90.12,39 L90.12,35.5 C90.12,35.1799984 90.0266676,34.9266676 89.84,34.74 C89.6533324,34.5533324 89.3966683,34.46 89.07,34.46 C88.8099987,34.46 88.5850009,34.4999996 88.395,34.58 C88.204999,34.6600004 88.0466673,34.7733326 87.92,34.92 C87.7933327,35.0666674 87.6983336,35.2383324 87.635,35.435 C87.5716663,35.6316676 87.54,35.8466655 87.54,36.08 L87.54,39 L86.69,39 L86.69,33.83 Z M92.87,36.46 C92.87,36.7000012 92.9016663,36.9349988 92.965,37.165 C93.0283336,37.3950011 93.1249993,37.5999991 93.255,37.78 C93.3850006,37.9600009 93.5516656,38.1033328 93.755,38.21 C93.9583343,38.3166672 94.1966653,38.37 94.47,38.37 C94.7566681,38.37 94.999999,38.3133339 95.2,38.2 C95.400001,38.0866661 95.5633327,37.9383342 95.69,37.755 C95.8166673,37.5716658 95.908333,37.3633345 95.965,37.13 C96.0216669,36.8966655 96.05,36.6600012 96.05,36.42 C96.05,36.1666654 96.0200003,35.9216679 95.96,35.685 C95.8999997,35.4483321 95.8050006,35.2400009 95.675,35.06 C95.5449993,34.8799991 95.3766677,34.7350006 95.17,34.625 C94.9633323,34.5149995 94.7133348,34.46 94.42,34.46 C94.1333319,34.46 93.890001,34.5166661 93.69,34.63 C93.489999,34.7433339 93.3300006,34.8933324 93.21,35.08 C93.0899994,35.2666676 93.0033336,35.4799988 92.95,35.72 C92.8966664,35.9600012 92.87,36.2066654 92.87,36.46 Z M96.87,39 L96.02,39 L96.02,38.3 L96,38.3 C95.8599993,38.5866681 95.6400015,38.7933327 95.34,38.92 C95.0399985,39.0466673 94.7100018,39.11 94.35,39.11 C93.949998,39.11 93.6016681,39.0366674 93.305,38.89 C93.0083318,38.7433326 92.7616676,38.5466679 92.565,38.3 C92.3683324,38.0533321 92.2200005,37.7666683 92.12,37.44 C92.0199995,37.1133317 91.97,36.7666685 91.97,36.4 C91.97,36.0333315 92.0183329,35.6866683 92.115,35.36 C92.2116672,35.0333317 92.3583323,34.7483346 92.555,34.505 C92.7516676,34.2616655 92.9983318,34.0683341 93.295,33.925 C93.5916682,33.781666 93.9366647,33.71 94.33,33.71 C94.463334,33.71 94.6066659,33.7233332 94.76,33.75 C94.9133341,33.7766668 95.0666659,33.8216664 95.22,33.885 C95.3733341,33.9483337 95.5183327,34.0316662 95.655,34.135 C95.7916673,34.2383339 95.9066662,34.3666659 96,34.52 L96.02,34.52 L96.02,31.86 L96.87,31.86 L96.87,39 Z M98.8,36.42 C98.8,36.7333349 98.8416663,37.0116655 98.925,37.255 C99.0083337,37.4983345 99.1233326,37.7016658 99.27,37.865 C99.4166674,38.0283342 99.5883324,38.1533329 99.785,38.24 C99.9816676,38.3266671 100.189999,38.37 100.41,38.37 C100.630001,38.37 100.838332,38.3266671 101.035,38.24 C101.231668,38.1533329 101.403333,38.0283342 101.55,37.865 C101.696667,37.7016658 101.811666,37.4983345 101.895,37.255 C101.978334,37.0116655 102.02,36.7333349 102.02,36.42 C102.02,36.1066651 101.978334,35.8283346 101.895,35.585 C101.811666,35.3416655 101.696667,35.1366675 101.55,34.97 C101.403333,34.8033325 101.231668,34.6766671 101.035,34.59 C100.838332,34.5033329 100.630001,34.46 100.41,34.46 C100.189999,34.46 99.9816676,34.5033329 99.785,34.59 C99.5883324,34.6766671 99.4166674,34.8033325 99.27,34.97 C99.1233326,35.1366675 99.0083337,35.3416655 98.925,35.585 C98.8416663,35.8283346 98.8,36.1066651 98.8,36.42 Z M97.9,36.42 C97.9,36.0399981 97.9533328,35.6850017 98.06,35.355 C98.1666672,35.0249984 98.3266656,34.7383346 98.54,34.495 C98.7533344,34.2516655 99.0166651,34.0600007 99.33,33.92 C99.6433349,33.7799993 100.003331,33.71 100.41,33.71 C100.823335,33.71 101.184998,33.7799993 101.495,33.92 C101.805002,34.0600007 102.066666,34.2516655 102.28,34.495 C102.493334,34.7383346 102.653333,35.0249984 102.76,35.355 C102.866667,35.6850017 102.92,36.0399981 102.92,36.42 C102.92,36.8000019 102.866667,37.1533317 102.76,37.48 C102.653333,37.8066683 102.493334,38.0916655 102.28,38.335 C102.066666,38.5783346 101.805002,38.7683327 101.495,38.905 C101.184998,39.0416673 100.823335,39.11 100.41,39.11 C100.003331,39.11 99.6433349,39.0416673 99.33,38.905 C99.0166651,38.7683327 98.7533344,38.5783346 98.54,38.335 C98.3266656,38.0916655 98.1666672,37.8066683 98.06,37.48 C97.9533328,37.1533317 97.9,36.8000019 97.9,36.42 Z M103.92,33.83 L104.72,33.83 L104.72,34.59 L104.74,34.59 C105.126669,34.0033304 105.68333,33.71 106.41,33.71 C106.730002,33.71 107.019999,33.776666 107.28,33.91 C107.540001,34.043334 107.723333,34.2699984 107.83,34.59 C108.003334,34.3099986 108.231665,34.0933341 108.515,33.94 C108.798335,33.7866659 109.109998,33.71 109.45,33.71 C109.710001,33.71 109.944999,33.7383331 110.155,33.795 C110.365001,33.851667 110.544999,33.9399994 110.695,34.06 C110.845001,34.1800006 110.961666,34.3349991 111.045,34.525 C111.128334,34.715001 111.17,34.943332 111.17,35.21 L111.17,39 L110.32,39 L110.32,35.61 C110.32,35.4499992 110.306667,35.3000007 110.28,35.16 C110.253333,35.0199993 110.203334,34.8983339 110.13,34.795 C110.056666,34.6916662 109.955001,34.6100003 109.825,34.55 C109.694999,34.4899997 109.526668,34.46 109.32,34.46 C108.899998,34.46 108.570001,34.5799988 108.33,34.82 C108.089999,35.0600012 107.97,35.379998 107.97,35.78 L107.97,39 L107.12,39 L107.12,35.61 C107.12,35.4433325 107.105,35.2900007 107.075,35.15 C107.045,35.0099993 106.993334,34.8883339 106.92,34.785 C106.846666,34.6816661 106.748334,34.601667 106.625,34.545 C106.501666,34.4883331 106.343334,34.46 106.15,34.46 C105.903332,34.46 105.691668,34.5099995 105.515,34.61 C105.338332,34.7100005 105.195001,34.8299993 105.085,34.97 C104.974999,35.1100007 104.895,35.2549992 104.845,35.405 C104.795,35.5550008 104.77,35.6799995 104.77,35.78 L104.77,39 L103.92,39 L103.92,33.83 Z M115.28,31.86 L116.13,31.86 L116.13,39 L115.28,39 L115.28,31.86 Z M122.03,38.98 C121.883333,39.0666671 121.680001,39.11 121.42,39.11 C121.199999,39.11 121.025001,39.0483339 120.895,38.925 C120.764999,38.8016661 120.7,38.6000014 120.7,38.32 C120.466666,38.6000014 120.195002,38.8016661 119.885,38.925 C119.574998,39.0483339 119.240002,39.11 118.88,39.11 C118.646665,39.11 118.425001,39.0833336 118.215,39.03 C118.004999,38.9766664 117.823334,38.8933339 117.67,38.78 C117.516666,38.6666661 117.395,38.5183342 117.305,38.335 C117.215,38.1516658 117.17,37.9300013 117.17,37.67 C117.17,37.3766652 117.22,37.1366676 117.32,36.95 C117.420001,36.7633324 117.551666,36.6116672 117.715,36.495 C117.878334,36.3783327 118.064999,36.2900003 118.275,36.23 C118.485001,36.1699997 118.699999,36.1200002 118.92,36.08 C119.153334,36.0333331 119.374999,35.9983335 119.585,35.975 C119.795001,35.9516665 119.979999,35.9183335 120.14,35.875 C120.300001,35.8316665 120.426666,35.7683337 120.52,35.685 C120.613334,35.6016663 120.66,35.4800008 120.66,35.32 C120.66,35.1333324 120.625,34.9833339 120.555,34.87 C120.485,34.7566661 120.395001,34.6700003 120.285,34.61 C120.174999,34.5499997 120.051667,34.5100001 119.915,34.49 C119.778333,34.4699999 119.643334,34.46 119.51,34.46 C119.149998,34.46 118.850001,34.5283326 118.61,34.665 C118.369999,34.8016674 118.24,35.0599981 118.22,35.44 L117.37,35.44 C117.383333,35.1199984 117.449999,34.8500011 117.57,34.63 C117.690001,34.4099989 117.849999,34.2316674 118.05,34.095 C118.250001,33.9583327 118.478332,33.8600003 118.735,33.8 C118.991668,33.7399997 119.266665,33.71 119.56,33.71 C119.793335,33.71 120.024999,33.7266665 120.255,33.76 C120.485001,33.7933335 120.693332,33.8616662 120.88,33.965 C121.066668,34.0683339 121.216666,34.2133324 121.33,34.4 C121.443334,34.5866676 121.5,34.8299985 121.5,35.13 L121.5,37.79 C121.5,37.990001 121.511667,38.1366662 121.535,38.23 C121.558333,38.3233338 121.636666,38.37 121.77,38.37 C121.843334,38.37 121.93,38.3533335 122.03,38.32 L122.03,38.98 Z M120.65,36.33 C120.543333,36.4100004 120.403334,36.4683332 120.23,36.505 C120.056666,36.5416668 119.875001,36.5716666 119.685,36.595 C119.494999,36.6183335 119.303334,36.6449999 119.11,36.675 C118.916666,36.7050002 118.743334,36.753333 118.59,36.82 C118.436666,36.886667 118.311667,36.9816661 118.215,37.105 C118.118333,37.228334 118.07,37.3966656 118.07,37.61 C118.07,37.7500007 118.098333,37.8683329 118.155,37.965 C118.211667,38.0616672 118.285,38.1399997 118.375,38.2 C118.465,38.2600003 118.569999,38.3033332 118.69,38.33 C118.810001,38.3566668 118.936666,38.37 119.07,38.37 C119.350001,38.37 119.589999,38.3316671 119.79,38.255 C119.990001,38.1783329 120.153333,38.0816672 120.28,37.965 C120.406667,37.8483327 120.5,37.7216674 120.56,37.585 C120.62,37.4483326 120.65,37.3200006 120.65,37.2 L120.65,36.33 Z M124.85,39.69 C124.749999,39.9433346 124.651667,40.1566658 124.555,40.33 C124.458333,40.5033342 124.351667,40.6449995 124.235,40.755 C124.118333,40.8650006 123.988334,40.9449998 123.845,40.995 C123.701666,41.0450003 123.536668,41.07 123.35,41.07 C123.249999,41.07 123.15,41.0633334 123.05,41.05 C122.949999,41.0366666 122.853334,41.0133335 122.76,40.98 L122.76,40.2 C122.833334,40.2333335 122.918333,40.2616666 123.015,40.285 C123.111667,40.3083335 123.193333,40.32 123.26,40.32 C123.433334,40.32 123.578333,40.2783338 123.695,40.195 C123.811667,40.1116662 123.9,39.9933341 123.96,39.84 L124.31,38.97 L122.26,33.83 L123.22,33.83 L124.73,38.06 L124.75,38.06 L126.2,33.83 L127.1,33.83 L124.85,39.69 Z M128.44,36.42 C128.44,36.7333349 128.481666,37.0116655 128.565,37.255 C128.648334,37.4983345 128.763333,37.7016658 128.91,37.865 C129.056667,38.0283342 129.228332,38.1533329 129.425,38.24 C129.621668,38.3266671 129.829999,38.37 130.05,38.37 C130.270001,38.37 130.478332,38.3266671 130.675,38.24 C130.871668,38.1533329 131.043333,38.0283342 131.19,37.865 C131.336667,37.7016658 131.451666,37.4983345 131.535,37.255 C131.618334,37.0116655 131.66,36.7333349 131.66,36.42 C131.66,36.1066651 131.618334,35.8283346 131.535,35.585 C131.451666,35.3416655 131.336667,35.1366675 131.19,34.97 C131.043333,34.8033325 130.871668,34.6766671 130.675,34.59 C130.478332,34.5033329 130.270001,34.46 130.05,34.46 C129.829999,34.46 129.621668,34.5033329 129.425,34.59 C129.228332,34.6766671 129.056667,34.8033325 128.91,34.97 C128.763333,35.1366675 128.648334,35.3416655 128.565,35.585 C128.481666,35.8283346 128.44,36.1066651 128.44,36.42 Z M127.54,36.42 C127.54,36.0399981 127.593333,35.6850017 127.7,35.355 C127.806667,35.0249984 127.966666,34.7383346 128.18,34.495 C128.393334,34.2516655 128.656665,34.0600007 128.97,33.92 C129.283335,33.7799993 129.643331,33.71 130.05,33.71 C130.463335,33.71 130.824998,33.7799993 131.135,33.92 C131.445002,34.0600007 131.706666,34.2516655 131.92,34.495 C132.133334,34.7383346 132.293333,35.0249984 132.4,35.355 C132.506667,35.6850017 132.56,36.0399981 132.56,36.42 C132.56,36.8000019 132.506667,37.1533317 132.4,37.48 C132.293333,37.8066683 132.133334,38.0916655 131.92,38.335 C131.706666,38.5783346 131.445002,38.7683327 131.135,38.905 C130.824998,39.0416673 130.463335,39.11 130.05,39.11 C129.643331,39.11 129.283335,39.0416673 128.97,38.905 C128.656665,38.7683327 128.393334,38.5783346 128.18,38.335 C127.966666,38.0916655 127.806667,37.8066683 127.7,37.48 C127.593333,37.1533317 127.54,36.8000019 127.54,36.42 Z M137.84,39 L137.04,39 L137.04,38.18 L137.02,38.18 C136.839999,38.5000016 136.610001,38.7349993 136.33,38.885 C136.049999,39.0350008 135.720002,39.11 135.34,39.11 C134.999998,39.11 134.716668,39.0650004 134.49,38.975 C134.263332,38.8849996 134.080001,38.7566675 133.94,38.59 C133.799999,38.4233325 133.701667,38.2250011 133.645,37.995 C133.588333,37.7649988 133.56,37.5100014 133.56,37.23 L133.56,33.83 L134.41,33.83 L134.41,37.33 C134.41,37.6500016 134.503332,37.9033324 134.69,38.09 C134.876668,38.2766676 135.133332,38.37 135.46,38.37 C135.720001,38.37 135.944999,38.3300004 136.135,38.25 C136.325001,38.1699996 136.483333,38.0566674 136.61,37.91 C136.736667,37.7633326 136.831666,37.5916677 136.895,37.395 C136.958334,37.1983324 136.99,36.9833345 136.99,36.75 L136.99,33.83 L137.84,33.83 L137.84,39 Z M140.3,33.83 L141.33,33.83 L141.33,34.58 L140.3,34.58 L140.3,37.79 C140.3,37.8900005 140.308333,37.9699997 140.325,38.03 C140.341667,38.0900003 140.373333,38.1366665 140.42,38.17 C140.466667,38.2033335 140.531666,38.2249999 140.615,38.235 C140.698334,38.2450001 140.806666,38.25 140.94,38.25 L141.33,38.25 L141.33,39 L140.68,39 C140.459999,39 140.271667,38.9850002 140.115,38.955 C139.958333,38.9249999 139.831667,38.8700004 139.735,38.79 C139.638333,38.7099996 139.566667,38.5966674 139.52,38.45 C139.473333,38.3033326 139.45,38.1100012 139.45,37.87 L139.45,34.58 L138.57,34.58 L138.57,33.83 L139.45,33.83 L139.45,32.28 L140.3,32.28 L140.3,33.83 Z M142.79,37.37 C142.796667,37.5566676 142.84,37.7149993 142.92,37.845 C143,37.9750006 143.104999,38.078333 143.235,38.155 C143.365001,38.231667 143.511666,38.2866665 143.675,38.32 C143.838334,38.3533335 144.006666,38.37 144.18,38.37 C144.313334,38.37 144.453333,38.3600001 144.6,38.34 C144.746667,38.3199999 144.881666,38.2833336 145.005,38.23 C145.128334,38.1766664 145.23,38.0983339 145.31,37.995 C145.39,37.8916662 145.43,37.7600008 145.43,37.6 C145.43,37.3799989 145.346667,37.2133339 145.18,37.1 C145.013332,36.9866661 144.805001,36.8950004 144.555,36.825 C144.304999,36.7549997 144.033335,36.6916669 143.74,36.635 C143.446665,36.578333 143.175001,36.4983339 142.925,36.395 C142.674999,36.2916661 142.466667,36.1466676 142.3,35.96 C142.133332,35.7733324 142.05,35.513335 142.05,35.18 C142.05,34.9199987 142.108333,34.6966676 142.225,34.51 C142.341667,34.3233324 142.491666,34.1716672 142.675,34.055 C142.858334,33.9383328 143.064999,33.851667 143.295,33.795 C143.525001,33.7383331 143.753332,33.71 143.98,33.71 C144.273335,33.71 144.543332,33.7349998 144.79,33.785 C145.036668,33.8350003 145.254999,33.921666 145.445,34.045 C145.635001,34.168334 145.786666,34.3349989 145.9,34.545 C146.013334,34.7550011 146.08,35.0166651 146.1,35.33 L145.25,35.33 C145.236667,35.1633325 145.193334,35.0250006 145.12,34.915 C145.046666,34.8049994 144.953334,34.716667 144.84,34.65 C144.726666,34.583333 144.601667,34.5350002 144.465,34.505 C144.328333,34.4749999 144.190001,34.46 144.05,34.46 C143.923333,34.46 143.795001,34.4699999 143.665,34.49 C143.534999,34.5100001 143.416667,34.5449998 143.31,34.595 C143.203333,34.6450002 143.116667,34.7116663 143.05,34.795 C142.983333,34.8783337 142.95,34.986666 142.95,35.12 C142.95,35.2666674 143.001666,35.3883328 143.105,35.485 C143.208334,35.5816672 143.339999,35.6616664 143.5,35.725 C143.660001,35.7883336 143.839999,35.8416665 144.04,35.885 C144.240001,35.9283336 144.439999,35.9733331 144.64,36.02 C144.853334,36.0666669 145.061666,36.123333 145.265,36.19 C145.468334,36.256667 145.648333,36.3449995 145.805,36.455 C145.961667,36.5650006 146.088333,36.7033325 146.185,36.87 C146.281667,37.0366675 146.33,37.2433321 146.33,37.49 C146.33,37.8033349 146.265001,38.0633323 146.135,38.27 C146.004999,38.4766677 145.835001,38.6433327 145.625,38.77 C145.414999,38.8966673 145.178335,38.9849998 144.915,39.035 C144.651665,39.0850003 144.390001,39.11 144.13,39.11 C143.843332,39.11 143.570001,39.0800003 143.31,39.02 C143.049999,38.9599997 142.820001,38.8616674 142.62,38.725 C142.419999,38.5883326 142.260001,38.4083344 142.14,38.185 C142.019999,37.9616656 141.953333,37.6900016 141.94,37.37 L142.79,37.37 Z" id="Shaketocreaterandomlayouts"></path>
                        <path d="M9.217,12.308 L12.362,12.308 L10.832,7.854 L10.798,7.854 L9.217,12.308 Z M9.472,4.862 L12.209,4.862 L16.748,17 L13.977,17 L13.059,14.297 L8.52,14.297 L7.568,17 L4.882,17 L9.472,4.862 Z M28.104,12.41 C28.104,14.0533416 27.6450046,15.274496 26.727,16.0735 C25.8089954,16.872504 24.5396748,17.272 22.919,17.272 C21.2756584,17.272 20.0035045,16.8753373 19.1025,16.082 C18.2014955,15.2886627 17.751,14.0646749 17.751,12.41 L17.751,4.862 L20.42,4.862 L20.42,12.41 C20.42,12.7386683 20.448333,13.0616651 20.505,13.379 C20.5616669,13.6963349 20.6806658,13.9768321 20.862,14.2205 C21.0433342,14.4641679 21.2954984,14.6624992 21.6185,14.8155 C21.9415016,14.9685008 22.3749973,15.045 22.919,15.045 C23.8710048,15.045 24.5283315,14.8325021 24.891,14.4075 C25.2536685,13.9824979 25.435,13.3166712 25.435,12.41 L25.435,4.862 L28.104,4.862 L28.104,12.41 Z M33.085,7.106 L29.447,7.106 L29.447,4.862 L39.392,4.862 L39.392,7.106 L35.754,7.106 L35.754,17 L33.085,17 L33.085,7.106 Z M42.928,10.982 C42.928,11.4920025 42.9874994,11.9878309 43.1065,12.4695 C43.2255006,12.9511691 43.415332,13.3846647 43.676,13.77 C43.936668,14.1553353 44.2766646,14.4641655 44.696,14.6965 C45.1153354,14.9288345 45.6253303,15.045 46.226,15.045 C46.8266697,15.045 47.3366646,14.9288345 47.756,14.6965 C48.1753354,14.4641655 48.515332,14.1553353 48.776,13.77 C49.036668,13.3846647 49.2264994,12.9511691 49.3455,12.4695 C49.4645006,11.9878309 49.524,11.4920025 49.524,10.982 C49.524,10.4493307 49.4645006,9.93366916 49.3455,9.435 C49.2264994,8.93633084 49.036668,8.49150195 48.776,8.1005 C48.515332,7.70949804 48.1753354,7.39783449 47.756,7.1655 C47.3366646,6.9331655 46.8266697,6.817 46.226,6.817 C45.6253303,6.817 45.1153354,6.9331655 44.696,7.1655 C44.2766646,7.39783449 43.936668,7.70949804 43.676,8.1005 C43.415332,8.49150195 43.2255006,8.93633084 43.1065,9.435 C42.9874994,9.93366916 42.928,10.4493307 42.928,10.982 Z M40.259,10.982 C40.259,10.0753288 40.3949986,9.23383722 40.667,8.4575 C40.9390014,7.68116278 41.3299974,7.00400289 41.84,6.426 C42.3500025,5.84799711 42.976163,5.39466831 43.7185,5.066 C44.460837,4.73733169 45.296662,4.573 46.226,4.573 C47.1666714,4.573 48.0053296,4.73733169 48.742,5.066 C49.4786704,5.39466831 50.1019974,5.84799711 50.612,6.426 C51.1220025,7.00400289 51.5129986,7.68116278 51.785,8.4575 C52.0570014,9.23383722 52.193,10.0753288 52.193,10.982 C52.193,11.8660044 52.0570014,12.6904962 51.785,13.4555 C51.5129986,14.2205038 51.1220025,14.8863305 50.612,15.453 C50.1019974,16.0196695 49.4786704,16.4644984 48.742,16.7875 C48.0053296,17.1105016 47.1666714,17.272 46.226,17.272 C45.296662,17.272 44.460837,17.1105016 43.7185,16.7875 C42.976163,16.4644984 42.3500025,16.0196695 41.84,15.453 C41.3299974,14.8863305 40.9390014,14.2205038 40.667,13.4555 C40.3949986,12.6904962 40.259,11.8660044 40.259,10.982 Z M61.407,14.756 L63.787,14.756 C64.1723353,14.756 64.5463315,14.6936673 64.909,14.569 C65.2716685,14.4443327 65.5946653,14.2375014 65.878,13.9485 C66.1613348,13.6594986 66.3879992,13.282669 66.558,12.818 C66.7280009,12.353331 66.813,11.78667 66.813,11.118 C66.813,10.5059969 66.7535006,9.95350246 66.6345,9.4605 C66.5154994,8.96749753 66.3200014,8.54533509 66.048,8.194 C65.7759986,7.84266491 65.4161689,7.57350093 64.9685,7.3865 C64.5208311,7.19949906 63.9683366,7.106 63.311,7.106 L61.407,7.106 L61.407,14.756 Z M58.738,4.862 L63.974,4.862 C64.7560039,4.862 65.4841633,4.98666542 66.1585,5.236 C66.8328367,5.48533458 67.4164975,5.85933084 67.9095,6.358 C68.4025025,6.85666916 68.7878319,7.47999626 69.0655,8.228 C69.3431681,8.97600374 69.482,9.85432829 69.482,10.863 C69.482,11.7470044 69.3686678,12.5629963 69.142,13.311 C68.9153322,14.0590037 68.5725023,14.7049973 68.1135,15.249 C67.6544977,15.7930027 67.0821701,16.2208318 66.3965,16.5325 C65.7108299,16.8441682 64.903338,17 63.974,17 L58.738,17 L58.738,4.862 Z M71.335,4.862 L80.413,4.862 L80.413,7.106 L74.004,7.106 L74.004,9.707 L79.886,9.707 L79.886,11.781 L74.004,11.781 L74.004,14.756 L80.549,14.756 L80.549,17 L71.335,17 L71.335,4.862 Z M84.17,12.971 C84.17,13.379002 84.2436659,13.7246653 84.391,14.008 C84.5383341,14.2913348 84.7338321,14.5208325 84.9775,14.6965 C85.2211679,14.8721675 85.5073317,15.0024996 85.836,15.0875 C86.1646683,15.1725004 86.5046649,15.215 86.856,15.215 C87.0940012,15.215 87.3489986,15.1951669 87.621,15.1555 C87.8930014,15.1158331 88.1479988,15.0393339 88.386,14.926 C88.6240012,14.8126661 88.8223325,14.6568343 88.981,14.4585 C89.1396675,14.2601657 89.219,14.0080015 89.219,13.702 C89.219,13.3733317 89.1141677,13.107001 88.9045,12.903 C88.6948323,12.698999 88.4200017,12.5290007 88.08,12.393 C87.7399983,12.2569993 87.3546688,12.1380005 86.924,12.036 C86.4933312,11.9339995 86.0570022,11.8206673 85.615,11.696 C85.1616644,11.5826661 84.7196688,11.4438342 84.289,11.2795 C83.8583312,11.1151658 83.4730017,10.902668 83.133,10.642 C82.7929983,10.381332 82.5181677,10.055502 82.3085,9.6645 C82.0988323,9.27349805 81.994,8.80033611 81.994,8.245 C81.994,7.62166355 82.1271653,7.08050229 82.3935,6.6215 C82.6598347,6.1624977 83.0083312,5.78000153 83.439,5.474 C83.8696688,5.16799847 84.3569973,4.94133407 84.901,4.794 C85.4450027,4.64666593 85.9889973,4.573 86.533,4.573 C87.1676698,4.573 87.7768304,4.64383262 88.3605,4.7855 C88.9441696,4.92716737 89.4626644,5.15666508 89.916,5.474 C90.3693356,5.79133492 90.7291653,6.19649753 90.9955,6.6895 C91.2618347,7.18250246 91.395,7.78032982 91.395,8.483 L88.811,8.483 C88.7883332,8.12033152 88.711834,7.82000119 88.5815,7.582 C88.451166,7.34399881 88.2783344,7.15700068 88.063,7.021 C87.8476656,6.88499932 87.6011681,6.78866695 87.3235,6.732 C87.0458319,6.67533305 86.7426683,6.647 86.414,6.647 C86.1986656,6.647 85.9833344,6.66966644 85.768,6.715 C85.5526656,6.76033356 85.3571675,6.8396661 85.1815,6.953 C85.0058325,7.0663339 84.8613339,7.20799915 84.748,7.378 C84.6346661,7.54800085 84.578,7.76333203 84.578,8.024 C84.578,8.26200119 84.6233329,8.45466593 84.714,8.602 C84.8046671,8.74933407 84.9831653,8.88533271 85.2495,9.01 C85.5158347,9.13466729 85.8841643,9.25933271 86.3545,9.384 C86.8248357,9.50866729 87.4396629,9.66733237 88.199,9.86 C88.4256678,9.90533356 88.7401647,9.98749941 89.1425,10.1065 C89.5448353,10.2255006 89.9443314,10.415332 90.341,10.676 C90.7376687,10.936668 91.0804986,11.2851645 91.3695,11.7215 C91.6585014,12.1578355 91.803,12.7159966 91.803,13.396 C91.803,13.9513361 91.6953344,14.4669976 91.48,14.943 C91.2646656,15.4190024 90.9445021,15.8298316 90.5195,16.1755 C90.0944979,16.5211684 89.5675031,16.7903324 88.9385,16.983 C88.3094969,17.1756676 87.5813375,17.272 86.754,17.272 C86.08533,17.272 85.4365031,17.1898342 84.8075,17.0255 C84.1784969,16.8611658 83.6231691,16.6033351 83.1415,16.252 C82.6598309,15.9006649 82.2773348,15.4530027 81.994,14.909 C81.7106653,14.3649973 81.5746666,13.7190037 81.586,12.971 L84.17,12.971 Z M93.384,4.862 L96.053,4.862 L96.053,17 L93.384,17 L93.384,4.862 Z M107.171,15.623 C106.694998,16.2350031 106.168003,16.6628321 105.59,16.9065 C105.011997,17.1501679 104.428336,17.272 103.839,17.272 C102.909662,17.272 102.073837,17.1105016 101.3315,16.7875 C100.589163,16.4644984 99.9630025,16.0196695 99.453,15.453 C98.9429975,14.8863305 98.5520014,14.2205038 98.28,13.4555 C98.0079986,12.6904962 97.872,11.8660044 97.872,10.982 C97.872,10.0753288 98.0079986,9.23383722 98.28,8.4575 C98.5520014,7.68116278 98.9429975,7.00400289 99.453,6.426 C99.9630025,5.84799711 100.589163,5.39466831 101.3315,5.066 C102.073837,4.73733169 102.909662,4.573 103.839,4.573 C104.462336,4.573 105.06583,4.66649907 105.6495,4.8535 C106.23317,5.04050093 106.760164,5.31533152 107.2305,5.678 C107.700836,6.04066848 108.088998,6.48833067 108.395,7.021 C108.701002,7.55366933 108.888,8.16566321 108.956,8.857 L106.406,8.857 C106.247333,8.1769966 105.941336,7.6670017 105.488,7.327 C105.034664,6.9869983 104.485003,6.817 103.839,6.817 C103.23833,6.817 102.728335,6.9331655 102.309,7.1655 C101.889665,7.39783449 101.549668,7.70949804 101.289,8.1005 C101.028332,8.49150196 100.838501,8.93633084 100.7195,9.435 C100.600499,9.93366916 100.541,10.4493307 100.541,10.982 C100.541,11.4920026 100.600499,11.9878309 100.7195,12.4695 C100.838501,12.9511691 101.028332,13.3846647 101.289,13.77 C101.549668,14.1553353 101.889665,14.4641655 102.309,14.6965 C102.728335,14.9288345 103.23833,15.045 103.839,15.045 C104.723004,15.045 105.405831,14.8211689 105.8875,14.3735 C106.369169,13.9258311 106.649666,13.2770043 106.729,12.427 L104.043,12.427 L104.043,10.438 L109.143,10.438 L109.143,17 L107.443,17 L107.171,15.623 Z M111.302,4.862 L113.954,4.862 L119.02,13.005 L119.054,13.005 L119.054,4.862 L121.553,4.862 L121.553,17 L118.884,17 L113.835,8.874 L113.801,8.874 L113.801,17 L111.302,17 L111.302,4.862 Z M123.899,4.862 L132.977,4.862 L132.977,7.106 L126.568,7.106 L126.568,9.707 L132.45,9.707 L132.45,11.781 L126.568,11.781 L126.568,14.756 L133.113,14.756 L133.113,17 L123.899,17 L123.899,4.862 Z M137.584,10.353 L140.508,10.353 C141.120003,10.353 141.578998,10.2170014 141.885,9.945 C142.191002,9.67299864 142.344,9.23100306 142.344,8.619 C142.344,8.02966372 142.191002,7.60183467 141.885,7.3355 C141.578998,7.06916534 141.120003,6.936 140.508,6.936 L137.584,6.936 L137.584,10.353 Z M134.915,4.862 L141.46,4.862 C142.004003,4.862 142.494164,4.94983245 142.9305,5.1255 C143.366836,5.30116754 143.740832,5.54199847 144.0525,5.848 C144.364168,6.15400153 144.602166,6.50816465 144.7665,6.9105 C144.930834,7.31283534 145.013,7.74633101 145.013,8.211 C145.013,8.92500357 144.862835,9.54266406 144.5625,10.064 C144.262165,10.5853359 143.772003,10.9819986 143.092,11.254 L143.092,11.288 C143.420668,11.3786671 143.692666,11.5174991 143.908,11.7045 C144.123334,11.8915009 144.298999,12.1124987 144.435,12.3675 C144.571001,12.6225013 144.670166,12.9029985 144.7325,13.209 C144.794834,13.5150015 144.837333,13.8209985 144.86,14.127 C144.871333,14.3196676 144.882667,14.546332 144.894,14.807 C144.905333,15.067668 144.925167,15.3339986 144.9535,15.606 C144.981833,15.8780014 145.027166,16.1358321 145.0895,16.3795 C145.151834,16.6231679 145.245333,16.8299991 145.37,17 L142.701,17 C142.553666,16.6146647 142.463,16.1556693 142.429,15.623 C142.395,15.0903307 142.344,14.5803358 142.276,14.093 C142.185333,13.4583302 141.992668,12.9936681 141.698,12.699 C141.403332,12.4043319 140.92167,12.257 140.253,12.257 L137.584,12.257 L137.584,17 L134.915,17 L134.915,4.862 Z" id="AUTODESIGNER"></path>
                    </g>
                </g>
            </g>
        </g>
    </g>
</svg>