<?xml version="1.0" encoding="UTF-8"?>
<svg width="153px" height="51px" viewBox="0 0 153 51" version="1.1" xmlns="http://www.w3.org/2000/svg" xmlns:xlink="http://www.w3.org/1999/xlink">
    <!-- Generator: Sketch 54.1 (76490) - https://sketchapp.com -->
    <title>Text</title>
    <desc>Created with Sketch.</desc>
    <g id="Make" stroke="none" stroke-width="1" fill="none" fill-rule="evenodd">
        <g id="C-37&gt;Shake-to-Remix" transform="translate(-202.000000, -266.000000)" fill="#6A6A6A" fill-rule="nonzero">
            <g id="Content" transform="translate(12.000000, 76.000000)">
                <g id="02_MoMACollage" transform="translate(181.000000, 0.000000)">
                    <g id="Text" transform="translate(9.000000, 184.000000)">
                        <path d="M56.682,6.718 L59.555,6.718 L61.726,13.101 L61.752,13.101 L63.806,6.718 L66.679,6.718 L66.679,16 L64.768,16 L64.768,9.422 L64.742,9.422 L62.467,16 L60.894,16 L58.619,9.487 L58.593,9.487 L58.593,16 L56.682,16 L56.682,6.718 Z M69.916,12.646 C69.916,12.914668 69.9419997,13.1768321 69.994,13.4325 C70.0460003,13.6881679 70.1348327,13.9178323 70.2605,14.1215 C70.3861673,14.3251677 70.552999,14.4876661 70.761,14.609 C70.969001,14.7303339 71.2289984,14.791 71.541,14.791 C71.8530016,14.791 72.1151656,14.7303339 72.3275,14.609 C72.5398344,14.4876661 72.7088327,14.3251677 72.8345,14.1215 C72.9601673,13.9178323 73.0489997,13.6881679 73.101,13.4325 C73.1530003,13.1768321 73.179,12.914668 73.179,12.646 C73.179,12.377332 73.1530003,12.1130013 73.101,11.853 C73.0489997,11.5929987 72.9601673,11.3633343 72.8345,11.164 C72.7088327,10.9646657 72.5398344,10.8021673 72.3275,10.6765 C72.1151656,10.5508327 71.8530016,10.488 71.541,10.488 C71.2289984,10.488 70.969001,10.5508327 70.761,10.6765 C70.552999,10.8021673 70.3861673,10.9646657 70.2605,11.164 C70.1348327,11.3633343 70.0460003,11.5929987 69.994,11.853 C69.9419997,12.1130013 69.916,12.377332 69.916,12.646 Z M68.07,12.646 C68.07,12.108664 68.1523325,11.6211689 68.317,11.1835 C68.4816675,10.7458311 68.7156652,10.3731682 69.019,10.0655 C69.3223349,9.7578318 69.6863312,9.51950085 70.111,9.3505 C70.5356688,9.18149916 71.0123307,9.097 71.541,9.097 C72.0696693,9.097 72.5484979,9.18149916 72.9775,9.3505 C73.4065021,9.51950085 73.7726651,9.7578318 74.076,10.0655 C74.3793348,10.3731682 74.6133325,10.7458311 74.778,11.1835 C74.9426675,11.6211689 75.025,12.108664 75.025,12.646 C75.025,13.183336 74.9426675,13.6686645 74.778,14.102 C74.6133325,14.5353355 74.3793348,14.9058318 74.076,15.2135 C73.7726651,15.5211682 73.4065021,15.7573325 72.9775,15.922 C72.5484979,16.0866675 72.0696693,16.169 71.541,16.169 C71.0123307,16.169 70.5356688,16.0866675 70.111,15.922 C69.6863312,15.7573325 69.3223349,15.5211682 69.019,15.2135 C68.7156652,14.9058318 68.4816675,14.5353355 68.317,14.102 C68.1523325,13.6686645 68.07,13.183336 68.07,12.646 Z M76.416,6.718 L79.289,6.718 L81.46,13.101 L81.486,13.101 L83.54,6.718 L86.413,6.718 L86.413,16 L84.502,16 L84.502,9.422 L84.476,9.422 L82.201,16 L80.628,16 L78.353,9.487 L78.327,9.487 L78.327,16 L76.416,16 L76.416,6.718 Z M90.547,12.412 L92.952,12.412 L91.782,9.006 L91.756,9.006 L90.547,12.412 Z M90.742,6.718 L92.835,6.718 L96.306,16 L94.187,16 L93.485,13.933 L90.014,13.933 L89.286,16 L87.232,16 L90.742,6.718 Z M44.4905,26.942 C44.4451664,26.6359985 44.3431675,26.3555013 44.1845,26.1005 C44.0258325,25.8454987 43.8275012,25.6216676 43.5895,25.429 C43.3514988,25.2363324 43.0823348,25.0861672 42.782,24.9785 C42.4816652,24.8708328 42.1671683,24.817 41.8385,24.817 C41.2378303,24.817 40.7278354,24.9331655 40.3085,25.1655 C39.8891646,25.3978345 39.549168,25.709498 39.2885,26.1005 C39.027832,26.491502 38.8380006,26.9363308 38.719,27.435 C38.5999994,27.9336692 38.5405,28.4493307 38.5405,28.982 C38.5405,29.4920026 38.5999994,29.9878309 38.719,30.4695 C38.8380006,30.9511691 39.027832,31.3846647 39.2885,31.77 C39.549168,32.1553353 39.8891646,32.4641655 40.3085,32.6965 C40.7278354,32.9288345 41.2378303,33.045 41.8385,33.045 C42.6545041,33.045 43.2919977,32.7956692 43.751,32.297 C44.2100023,31.7983308 44.4904995,31.1410041 44.5925,30.325 L47.1765,30.325 C47.1084997,31.0843371 46.9328347,31.7699969 46.6495,32.382 C46.3661652,32.9940031 45.992169,33.5153312 45.5275,33.946 C45.062831,34.3766688 44.5188364,34.7053322 43.8955,34.932 C43.2721635,35.1586678 42.5865037,35.272 41.8385,35.272 C40.909162,35.272 40.073337,35.1105016 39.331,34.7875 C38.588663,34.4644984 37.9625025,34.0196695 37.4525,33.453 C36.9424974,32.8863305 36.5515014,32.2205038 36.2795,31.4555 C36.0074986,30.6904962 35.8715,29.8660044 35.8715,28.982 C35.8715,28.0753288 36.0074986,27.2338372 36.2795,26.4575 C36.5515014,25.6811628 36.9424974,25.0040029 37.4525,24.426 C37.9625025,23.8479971 38.588663,23.3946683 39.331,23.066 C40.073337,22.7373317 40.909162,22.573 41.8385,22.573 C42.50717,22.573 43.138997,22.6693324 43.734,22.862 C44.329003,23.0546676 44.8616643,23.3351648 45.332,23.7035 C45.8023357,24.0718352 46.1904985,24.5279973 46.4965,25.072 C46.8025015,25.6160027 46.9951663,26.2393298 47.0745,26.942 L44.4905,26.942 Z M51.1375,28.982 C51.1375,29.4920026 51.1969994,29.9878309 51.316,30.4695 C51.4350006,30.9511691 51.624832,31.3846647 51.8855,31.77 C52.146168,32.1553353 52.4861646,32.4641655 52.9055,32.6965 C53.3248354,32.9288345 53.8348303,33.045 54.4355,33.045 C55.0361697,33.045 55.5461646,32.9288345 55.9655,32.6965 C56.3848354,32.4641655 56.724832,32.1553353 56.9855,31.77 C57.246168,31.3846647 57.4359994,30.9511691 57.555,30.4695 C57.6740006,29.9878309 57.7335,29.4920026 57.7335,28.982 C57.7335,28.4493307 57.6740006,27.9336692 57.555,27.435 C57.4359994,26.9363308 57.246168,26.491502 56.9855,26.1005 C56.724832,25.709498 56.3848354,25.3978345 55.9655,25.1655 C55.5461646,24.9331655 55.0361697,24.817 54.4355,24.817 C53.8348303,24.817 53.3248354,24.9331655 52.9055,25.1655 C52.4861646,25.3978345 52.146168,25.709498 51.8855,26.1005 C51.624832,26.491502 51.4350006,26.9363308 51.316,27.435 C51.1969994,27.9336692 51.1375,28.4493307 51.1375,28.982 Z M48.4685,28.982 C48.4685,28.0753288 48.6044986,27.2338372 48.8765,26.4575 C49.1485014,25.6811628 49.5394974,25.0040029 50.0495,24.426 C50.5595025,23.8479971 51.185663,23.3946683 51.928,23.066 C52.670337,22.7373317 53.506162,22.573 54.4355,22.573 C55.3761714,22.573 56.2148296,22.7373317 56.9515,23.066 C57.6881704,23.3946683 58.3114975,23.8479971 58.8215,24.426 C59.3315026,25.0040029 59.7224986,25.6811628 59.9945,26.4575 C60.2665014,27.2338372 60.4025,28.0753288 60.4025,28.982 C60.4025,29.8660044 60.2665014,30.6904962 59.9945,31.4555 C59.7224986,32.2205038 59.3315026,32.8863305 58.8215,33.453 C58.3114975,34.0196695 57.6881704,34.4644984 56.9515,34.7875 C56.2148296,35.1105016 55.3761714,35.272 54.4355,35.272 C53.506162,35.272 52.670337,35.1105016 51.928,34.7875 C51.185663,34.4644984 50.5595025,34.0196695 50.0495,33.453 C49.5394974,32.8863305 49.1485014,32.2205038 48.8765,31.4555 C48.6044986,30.6904962 48.4685,29.8660044 48.4685,28.982 Z M62.2215,22.862 L64.8905,22.862 L64.8905,32.756 L70.8065,32.756 L70.8065,35 L62.2215,35 L62.2215,22.862 Z M72.3025,22.862 L74.9715,22.862 L74.9715,32.756 L80.8875,32.756 L80.8875,35 L72.3025,35 L72.3025,22.862 Z M85.4435,30.308 L88.5885,30.308 L87.0585,25.854 L87.0245,25.854 L85.4435,30.308 Z M85.6985,22.862 L88.4355,22.862 L92.9745,35 L90.2035,35 L89.2855,32.297 L84.7465,32.297 L83.7945,35 L81.1085,35 L85.6985,22.862 Z M102.8005,33.623 C102.324498,34.2350031 101.797503,34.6628321 101.2195,34.9065 C100.641497,35.1501679 100.057836,35.272 99.4685,35.272 C98.539162,35.272 97.703337,35.1105016 96.961,34.7875 C96.218663,34.4644984 95.5925026,34.0196695 95.0825,33.453 C94.5724975,32.8863305 94.1815014,32.2205038 93.9095,31.4555 C93.6374986,30.6904962 93.5015,29.8660044 93.5015,28.982 C93.5015,28.0753288 93.6374986,27.2338372 93.9095,26.4575 C94.1815014,25.6811628 94.5724975,25.0040029 95.0825,24.426 C95.5925026,23.8479971 96.218663,23.3946683 96.961,23.066 C97.703337,22.7373317 98.539162,22.573 99.4685,22.573 C100.091836,22.573 100.69533,22.6664991 101.279,22.8535 C101.86267,23.0405009 102.389664,23.3153315 102.86,23.678 C103.330336,24.0406685 103.718498,24.4883307 104.0245,25.021 C104.330502,25.5536693 104.5175,26.1656632 104.5855,26.857 L102.0355,26.857 C101.876833,26.1769966 101.570836,25.6670017 101.1175,25.327 C100.664164,24.9869983 100.114503,24.817 99.4685,24.817 C98.8678303,24.817 98.3578354,24.9331655 97.9385,25.1655 C97.5191646,25.3978345 97.179168,25.709498 96.9185,26.1005 C96.657832,26.491502 96.4680006,26.9363308 96.349,27.435 C96.2299994,27.9336692 96.1705,28.4493307 96.1705,28.982 C96.1705,29.4920026 96.2299994,29.9878309 96.349,30.4695 C96.4680006,30.9511691 96.657832,31.3846647 96.9185,31.77 C97.179168,32.1553353 97.5191646,32.4641655 97.9385,32.6965 C98.3578354,32.9288345 98.8678303,33.045 99.4685,33.045 C100.352504,33.045 101.035331,32.8211689 101.517,32.3735 C101.998669,31.9258311 102.279166,31.2770043 102.3585,30.427 L99.6725,30.427 L99.6725,28.438 L104.7725,28.438 L104.7725,35 L103.0725,35 L102.8005,33.623 Z M106.9315,22.862 L116.0095,22.862 L116.0095,25.106 L109.6005,25.106 L109.6005,27.707 L115.4825,27.707 L115.4825,29.781 L109.6005,29.781 L109.6005,32.756 L116.1455,32.756 L116.1455,35 L106.9315,35 L106.9315,22.862 Z" id="MoMACOLLAGE"></path>
                        <path d="M7.335,48.971 L7.929,49.511 C7.308,50.141 6.444,50.879 5.517,51.464 L5.517,55.316 C5.517,55.658 5.535,56.099 5.571,56.279 L4.689,56.279 C4.716,56.108 4.743,55.658 4.743,55.316 L4.743,51.914 C3.78,52.445 2.538,52.967 1.359,53.318 L0.945,52.616 C2.448,52.265 3.978,51.581 4.968,50.96 C5.886,50.393 6.831,49.61 7.335,48.971 Z M15.633,49.16 L16.479,49.448 C16.389,49.619 16.254,49.916 16.182,50.105 C15.894,50.897 15.435,51.887 14.832,52.76 C15.633,53.426 16.407,54.128 17.046,54.812 L16.479,55.442 C15.813,54.677 15.129,54.038 14.355,53.372 C13.518,54.398 12.402,55.469 10.836,56.279 L10.197,55.712 C11.772,54.965 12.888,53.975 13.77,52.886 C13.104,52.337 12.105,51.599 11.241,51.068 L11.718,50.501 C12.483,50.987 13.527,51.725 14.238,52.274 C14.814,51.437 15.183,50.591 15.453,49.826 C15.516,49.646 15.597,49.358 15.633,49.16 Z M19.098,52.985 L19.098,52.103 C19.368,52.121 19.845,52.148 20.349,52.148 L25.281,52.148 C25.731,52.148 26.055,52.121 26.253,52.103 L26.253,52.985 C26.073,52.976 25.695,52.94 25.29,52.94 L20.349,52.94 C19.854,52.94 19.377,52.958 19.098,52.985 Z M33.444,49.286 C33.669,49.61 34.074,50.258 34.281,50.681 L33.768,50.915 C33.543,50.438 33.246,49.907 32.949,49.502 L33.444,49.286 Z M34.623,48.854 C34.866,49.169 35.262,49.817 35.487,50.231 L34.974,50.465 C34.731,49.988 34.416,49.475 34.119,49.07 L34.623,48.854 Z M29.601,49.151 C30.132,49.448 31.167,50.141 31.554,50.42 L31.131,51.041 C30.699,50.708 29.718,50.06 29.196,49.754 L29.601,49.151 Z M28.251,55.586 C29.241,55.415 30.357,55.055 31.266,54.542 C32.76,53.687 33.948,52.508 34.677,51.239 L35.109,51.986 C34.326,53.192 33.084,54.353 31.644,55.199 C30.744,55.73 29.502,56.144 28.665,56.315 L28.251,55.586 Z M28.242,51.176 C28.773,51.464 29.826,52.112 30.222,52.391 L29.808,53.021 C29.358,52.697 28.386,52.067 27.837,51.788 L28.242,51.176 Z M41.328,54.785 L40.635,54.785 C40.662,54.443 40.671,53.867 40.671,53.399 C39.843,53.849 39.267,54.308 39.267,54.893 C39.267,55.595 39.96,55.694 40.878,55.694 C41.571,55.694 42.525,55.613 43.308,55.478 L43.29,56.207 C42.615,56.288 41.625,56.351 40.851,56.351 C39.573,56.351 38.547,56.081 38.547,54.992 C38.547,53.939 39.609,53.273 40.644,52.733 C40.554,52.364 40.23,52.184 39.843,52.184 C39.258,52.184 38.718,52.472 38.304,52.841 C38.052,53.084 37.8,53.417 37.494,53.777 L36.882,53.318 C38.016,52.22 38.601,51.302 38.934,50.6 L38.565,50.6 C38.187,50.6 37.584,50.582 37.098,50.546 L37.098,49.871 C37.575,49.925 38.196,49.961 38.601,49.961 C38.79,49.961 38.979,49.961 39.186,49.952 C39.312,49.556 39.393,49.151 39.411,48.845 L40.149,48.908 C40.086,49.16 40.005,49.529 39.879,49.934 C40.788,49.889 41.76,49.808 42.606,49.664 L42.597,50.33 C41.715,50.465 40.617,50.546 39.645,50.582 C39.447,51.041 39.168,51.536 38.844,51.95 C39.168,51.743 39.681,51.617 40.077,51.617 C40.653,51.617 41.121,51.896 41.256,52.427 C41.868,52.139 42.408,51.923 42.876,51.707 C43.146,51.59 43.362,51.482 43.614,51.356 L43.902,52.031 C43.677,52.094 43.353,52.22 43.119,52.31 C42.615,52.508 41.976,52.769 41.301,53.084 C41.31,53.597 41.319,54.353 41.328,54.785 Z M47.313,54.353 L48.114,54.353 C48.348,54.353 48.393,54.119 48.411,53.066 C48.564,53.192 48.834,53.309 49.014,53.354 C48.942,54.596 48.78,54.983 48.168,54.983 L47.223,54.983 C46.557,54.983 46.377,54.767 46.377,53.966 L46.377,51.752 L45.414,51.959 L45.297,51.347 L46.377,51.113 L46.377,48.719 L47.034,48.719 L47.034,50.978 L49.059,50.546 L49.185,51.149 L47.034,51.608 L47.034,53.975 C47.034,54.299 47.07,54.353 47.313,54.353 Z M48.618,49.259 L53.433,49.259 C53.433,49.259 53.424,49.538 53.424,49.628 C53.307,54.218 53.217,55.73 52.857,56.189 C52.668,56.468 52.47,56.549 52.164,56.585 C51.876,56.621 51.372,56.612 50.904,56.585 C50.895,56.387 50.805,56.099 50.688,55.901 C51.21,55.946 51.687,55.946 51.894,55.946 C52.047,55.955 52.146,55.919 52.245,55.793 C52.515,55.46 52.641,53.966 52.749,49.898 L50.859,49.898 C50.796,52.697 50.589,55.343 48.276,56.72 C48.177,56.549 47.952,56.315 47.79,56.189 C50.004,54.956 50.148,52.499 50.184,49.898 L48.618,49.898 L48.618,49.259 Z M56.277,48.899 L57.069,48.926 C56.88,49.583 56.709,50.78 56.655,51.401 C57.006,50.483 57.942,49.376 59.067,49.376 C60.255,49.376 61.11,50.564 61.11,52.436 C61.11,54.911 59.553,56 57.339,56.405 L56.916,55.757 C58.851,55.46 60.363,54.686 60.363,52.445 C60.363,51.041 59.895,50.033 58.95,50.033 C57.843,50.033 56.817,51.644 56.709,52.814 C56.664,53.156 56.664,53.462 56.727,53.903 L56.025,53.957 C55.98,53.624 55.935,53.12 55.935,52.544 C55.935,51.698 56.097,50.384 56.205,49.664 C56.241,49.385 56.268,49.115 56.277,48.899 Z M66.546,50.852 L66.546,49.655 L64.791,49.655 L64.791,50.852 L66.546,50.852 Z M64.791,53.309 L64.791,54.668 C65.34,54.596 65.943,54.506 66.546,54.416 L66.546,53.309 L64.791,53.309 Z M66.546,52.697 L66.546,51.446 L64.791,51.446 L64.791,52.697 L66.546,52.697 Z M67.824,49.655 L67.194,49.655 L67.194,56.666 L66.546,56.666 L66.546,55.037 C65.412,55.226 64.26,55.397 63.405,55.541 L63.288,54.866 C63.54,54.839 63.837,54.803 64.161,54.758 L64.161,49.655 L63.459,49.655 L63.459,49.034 L67.824,49.034 L67.824,49.655 Z M70.938,49.673 L71.37,49.799 C71.136,51.725 70.632,53.219 69.912,54.362 C70.407,55.082 71.019,55.658 71.766,56.036 C71.613,56.162 71.397,56.414 71.289,56.585 C70.578,56.18 69.984,55.631 69.498,54.956 C68.967,55.631 68.346,56.162 67.662,56.558 C67.563,56.387 67.365,56.144 67.221,56.018 C67.932,55.649 68.571,55.091 69.111,54.353 C68.49,53.291 68.067,51.986 67.77,50.51 L68.409,50.393 C68.643,51.635 69.003,52.769 69.516,53.723 C70.038,52.805 70.425,51.68 70.632,50.357 L67.599,50.357 L67.599,49.7 L70.812,49.7 L70.938,49.673 Z M74.277,48.899 L75.069,48.926 C74.88,49.583 74.709,50.78 74.655,51.401 C75.006,50.483 75.942,49.376 77.067,49.376 C78.255,49.376 79.11,50.564 79.11,52.436 C79.11,54.911 77.553,56 75.339,56.405 L74.916,55.757 C76.851,55.46 78.363,54.686 78.363,52.445 C78.363,51.041 77.895,50.033 76.95,50.033 C75.843,50.033 74.817,51.644 74.709,52.814 C74.664,53.156 74.664,53.462 74.727,53.903 L74.025,53.957 C73.98,53.624 73.935,53.12 73.935,52.544 C73.935,51.698 74.097,50.384 74.205,49.664 C74.241,49.385 74.268,49.115 74.277,48.899 Z M88.641,56.081 L87.831,56.081 C87.84,55.982 87.84,55.793 87.849,55.577 L83.448,55.577 C83.079,55.577 82.674,55.595 82.431,55.613 L82.431,54.803 C82.665,54.821 83.052,54.848 83.43,54.848 L87.849,54.848 L87.849,50.6 L83.538,50.6 C83.205,50.6 82.764,50.618 82.548,50.627 L82.548,49.826 C82.845,49.862 83.241,49.88 83.529,49.88 L87.966,49.88 C88.182,49.88 88.452,49.871 88.632,49.862 C88.623,50.069 88.605,50.348 88.605,50.564 L88.605,55.208 C88.605,55.532 88.632,55.937 88.641,56.081 Z M97.389,51.347 L97.902,51.671 C97.857,51.752 97.803,51.869 97.785,51.932 C97.542,52.823 97.137,53.759 96.471,54.488 C95.526,55.523 94.392,56.054 93.249,56.369 L92.691,55.73 C93.969,55.469 95.094,54.884 95.859,54.083 C96.408,53.507 96.768,52.742 96.93,52.094 L92.151,52.094 C91.935,52.094 91.593,52.103 91.278,52.121 L91.278,51.365 C91.602,51.401 91.908,51.419 92.151,51.419 L96.894,51.419 C97.101,51.419 97.29,51.401 97.389,51.347 Z M92.079,50.042 L92.079,49.295 C92.313,49.331 92.601,49.34 92.889,49.34 L96.426,49.34 C96.714,49.34 97.029,49.331 97.245,49.295 L97.245,50.042 C97.029,50.024 96.723,50.015 96.417,50.015 L92.889,50.015 C92.61,50.015 92.322,50.024 92.079,50.042 Z M99.918,52.985 L99.918,52.103 C100.188,52.121 100.665,52.148 101.169,52.148 L106.101,52.148 C106.551,52.148 106.875,52.121 107.073,52.103 L107.073,52.985 C106.893,52.976 106.515,52.94 106.11,52.94 L101.169,52.94 C100.674,52.94 100.197,52.958 99.918,52.985 Z M114.264,49.286 C114.489,49.61 114.894,50.258 115.101,50.681 L114.588,50.915 C114.363,50.438 114.066,49.907 113.769,49.502 L114.264,49.286 Z M115.443,48.854 C115.686,49.169 116.082,49.817 116.307,50.231 L115.794,50.465 C115.551,49.988 115.236,49.475 114.939,49.07 L115.443,48.854 Z M110.421,49.151 C110.952,49.448 111.987,50.141 112.374,50.42 L111.951,51.041 C111.519,50.708 110.538,50.06 110.016,49.754 L110.421,49.151 Z M109.071,55.586 C110.061,55.415 111.177,55.055 112.086,54.542 C113.58,53.687 114.768,52.508 115.497,51.239 L115.929,51.986 C115.146,53.192 113.904,54.353 112.464,55.199 C111.564,55.73 110.322,56.144 109.485,56.315 L109.071,55.586 Z M109.062,51.176 C109.593,51.464 110.646,52.112 111.042,52.391 L110.628,53.021 C110.178,52.697 109.206,52.067 108.657,51.788 L109.062,51.176 Z M122.931,55.217 L123.813,55.217 C124.011,55.217 124.335,55.208 124.524,55.19 L124.524,55.919 C124.362,55.91 124.029,55.901 123.84,55.901 L118.908,55.901 C118.629,55.901 118.422,55.91 118.161,55.928 L118.161,55.181 C118.377,55.199 118.629,55.217 118.908,55.217 L122.166,55.217 C122.301,54.461 122.562,52.706 122.589,52.193 L119.727,52.193 C119.466,52.193 119.232,52.211 119.007,52.22 L119.007,51.464 C119.223,51.491 119.493,51.518 119.718,51.518 L122.454,51.518 C122.598,51.518 122.823,51.491 122.904,51.455 L123.453,51.716 C123.426,51.806 123.399,51.923 123.39,51.995 C123.318,52.607 123.057,54.389 122.931,55.217 Z M127.989,49.007 L128.898,49.016 C128.853,49.304 128.826,49.619 128.808,49.907 C128.772,50.915 128.7,53.021 128.7,54.353 C128.7,55.334 129.33,55.676 130.158,55.676 C131.796,55.676 132.723,54.758 133.362,53.831 L133.857,54.452 C133.254,55.298 132.102,56.414 130.14,56.414 C128.862,56.414 127.98,55.874 127.98,54.425 C127.98,53.102 128.07,50.852 128.07,49.907 C128.07,49.583 128.043,49.268 127.989,49.007 Z M139.329,54.956 C139.329,54.803 139.32,54.596 139.32,54.353 C139.041,54.299 138.753,54.272 138.456,54.272 C137.61,54.272 137.151,54.596 137.151,55.001 C137.151,55.415 137.502,55.721 138.384,55.721 C138.897,55.721 139.329,55.568 139.329,54.956 Z M142.578,55.262 L142.173,55.892 C141.651,55.415 140.913,54.875 140.022,54.551 C140.031,54.776 140.04,54.974 140.04,55.109 C140.04,55.721 139.626,56.36 138.465,56.36 C137.187,56.36 136.476,55.901 136.476,55.037 C136.476,54.227 137.259,53.678 138.546,53.678 C138.807,53.678 139.05,53.696 139.293,53.732 C139.275,53.336 139.257,52.913 139.248,52.544 L138.753,52.544 C138.141,52.544 137.151,52.49 136.512,52.418 L136.512,51.734 C137.115,51.842 138.168,51.905 138.753,51.905 L139.23,51.905 L139.23,50.627 L138.789,50.627 C138.168,50.627 137.223,50.555 136.692,50.492 L136.692,49.826 C137.232,49.925 138.186,49.997 138.78,49.997 L139.239,49.997 L139.239,49.412 C139.239,49.268 139.23,49.007 139.212,48.881 L139.977,48.881 C139.95,49.043 139.941,49.214 139.932,49.475 C139.923,49.583 139.923,49.754 139.923,49.97 C140.697,49.943 141.426,49.871 142.209,49.754 L142.218,50.411 C141.516,50.483 140.751,50.555 139.914,50.6 L139.914,51.878 C140.769,51.842 141.588,51.761 142.389,51.644 L142.398,52.319 C141.561,52.427 140.769,52.49 139.923,52.526 C139.941,52.985 139.968,53.453 139.986,53.876 C141.165,54.2 142.074,54.857 142.578,55.262 Z M148.14,53.894 C148.662,53.894 149.004,53.471 148.923,52.625 C148.779,52.238 148.482,52.076 148.131,52.076 C147.672,52.076 147.231,52.436 147.231,53.012 C147.231,53.57 147.645,53.894 148.14,53.894 Z M149.517,50.672 L149.4,50.672 C149.4,51.176 149.409,51.725 149.418,52.13 C149.607,52.436 149.706,52.832 149.706,53.273 C149.706,54.479 149.121,55.82 147.051,56.441 L146.43,55.838 C147.6,55.568 148.428,55.082 148.797,54.29 C148.581,54.443 148.329,54.515 148.032,54.515 C147.276,54.515 146.556,53.984 146.556,53.021 C146.556,52.139 147.285,51.464 148.131,51.464 C148.347,51.464 148.545,51.5 148.725,51.563 C148.725,51.302 148.725,50.987 148.716,50.681 C147.366,50.69 145.854,50.753 144.738,50.834 L144.72,50.132 C145.71,50.114 147.384,50.06 148.707,50.042 C148.707,49.79 148.698,49.583 148.689,49.457 C148.68,49.268 148.653,49.007 148.635,48.899 L149.454,48.899 L149.409,49.457 C149.409,49.592 149.4,49.799 149.4,50.033 L149.535,50.033 C150.615,50.033 151.713,50.042 152.145,50.042 L152.136,50.717 C151.632,50.69 150.822,50.672 149.517,50.672 Z" id="イメージを切り取りコラージュします"></path>
                    </g>
                </g>
            </g>
        </g>
    </g>
</svg>