<svg xmlns="http://www.w3.org/2000/svg" width="40" height="40" viewBox="0 0 40 40">
    <g fill="none" fill-rule="evenodd">
        <circle cx="20" cy="20" r="19.5" fill="#FFF" stroke="#DADADA"/>
        <g fill-rule="nonzero">
            <path fill="#F00" d="M10.98 16.841l-1.205 3.927h2.394L10.98 16.84zm-1.997 6.32l-.81 2.395H5.78l3.996-11.987h2.394l3.995 11.987h-2.393l-.793-2.394H8.983z"/>
            <path fill="#3CB5AC" d="M19.105 23.162h1.998c.671 0 1.205-.569 1.205-1.189 0-.671-.465-1.205-1.205-1.205h-1.998v2.394zm1.998-4.805c.671 0 1.188-.448 1.188-1.189 0-.74-.517-1.205-1.188-1.205h-1.998v2.394h1.998zm0-4.788c2.015 0 3.6 1.619 3.6 3.582 0 .896-.31 1.74-.914 2.411.62.69.913 1.516.913 2.411 0 2.084-1.74 3.583-3.616 3.583H16.71V13.569h4.392z"/>
            <path fill="#1B1B1B" d="M30.932 17.444c0-.913-.723-1.602-1.601-1.602-.913 0-1.602.792-1.602 1.602v4.237a1.61 1.61 0 0 0 1.602 1.601c.895 0 1.55-.637 1.601-1.601h2.394a3.998 3.998 0 0 1-3.995 3.995c-2.188 0-3.996-1.808-3.996-3.995v-4.237a3.998 3.998 0 0 1 3.996-3.996 3.977 3.977 0 0 1 3.995 3.996h-2.394z"/>
        </g>
    </g>
</svg>
