<?xml version="1.0" encoding="UTF-8"?>
<svg width="89px" height="49px" viewBox="0 0 89 49" version="1.1" xmlns="http://www.w3.org/2000/svg" xmlns:xlink="http://www.w3.org/1999/xlink">
    <!-- Generator: Sketch 54.1 (76490) - https://sketchapp.com -->
    <title>Text</title>
    <desc>Created with Sketch.</desc>
    <g id="Make" stroke="none" stroke-width="1" fill="none" fill-rule="evenodd">
        <g id="C-37&gt;Shake-to-Remix" transform="translate(-234.000000, -836.000000)" fill="#1B1B1B" fill-rule="nonzero">
            <g id="Content" transform="translate(12.000000, 76.000000)">
                <g id="06_Mosaic" transform="translate(181.000000, 562.000000)">
                    <g id="Text" transform="translate(40.000000, 194.000000)">
                        <path d="M7.299,32.088 C7.83,32.385 8.865,33.069 9.252,33.357 L8.829,33.969 C8.397,33.645 7.425,32.997 6.894,32.691 L7.299,32.088 Z M5.949,38.514 C6.939,38.343 8.055,37.992 8.964,37.47 C10.458,36.615 11.646,35.445 12.375,34.176 L12.807,34.914 C12.024,36.129 10.782,37.29 9.351,38.136 C8.442,38.658 7.2,39.081 6.363,39.252 L5.949,38.514 Z M5.94,34.113 C6.48,34.401 7.524,35.04 7.92,35.328 L7.506,35.958 C7.065,35.634 6.084,35.004 5.544,34.725 L5.94,34.113 Z M18.432,38.352 L20.61,38.352 C20.826,38.352 21.033,38.334 21.213,38.307 L21.213,39.063 C21.033,39.045 20.754,39.036 20.61,39.036 L15.633,39.036 C15.435,39.036 15.201,39.045 14.985,39.063 L14.985,38.307 C15.192,38.334 15.435,38.352 15.633,38.352 L17.703,38.352 L17.703,35.04 L16.047,35.04 C15.903,35.04 15.615,35.049 15.426,35.067 L15.426,34.347 C15.615,34.374 15.903,34.383 16.047,34.383 L20.187,34.383 C20.412,34.383 20.637,34.365 20.826,34.347 L20.826,35.067 C20.628,35.049 20.394,35.04 20.187,35.04 L18.432,35.04 L18.432,38.352 Z M29.745,31.971 L30.339,32.511 C29.718,33.141 28.854,33.879 27.927,34.464 L27.927,38.316 C27.927,38.658 27.945,39.099 27.981,39.279 L27.099,39.279 C27.126,39.108 27.153,38.658 27.153,38.316 L27.153,34.914 C26.19,35.445 24.948,35.967 23.769,36.318 L23.355,35.616 C24.858,35.265 26.388,34.581 27.378,33.96 C28.296,33.393 29.241,32.61 29.745,31.971 Z M38.655,33.015 L39.258,33.375 C39.186,33.501 39.096,33.708 39.042,33.852 C38.799,34.752 38.25,35.976 37.449,36.948 C36.63,37.947 35.559,38.775 33.867,39.396 L33.219,38.811 C34.866,38.325 35.991,37.506 36.81,36.552 C37.512,35.724 38.061,34.563 38.241,33.744 L35.199,33.744 C34.659,34.5 33.903,35.301 32.922,35.958 L32.301,35.49 C33.858,34.563 34.74,33.258 35.127,32.448 C35.226,32.295 35.352,31.971 35.406,31.737 L36.243,32.016 C36.09,32.25 35.928,32.547 35.838,32.718 C35.775,32.844 35.703,32.97 35.622,33.096 L38.07,33.096 C38.313,33.096 38.511,33.069 38.655,33.015 Z M44.73,36.894 C45.252,36.894 45.594,36.471 45.513,35.625 C45.369,35.238 45.072,35.076 44.721,35.076 C44.262,35.076 43.821,35.436 43.821,36.012 C43.821,36.57 44.235,36.894 44.73,36.894 Z M46.107,33.672 L45.99,33.672 C45.99,34.176 45.999,34.725 46.008,35.13 C46.197,35.436 46.296,35.832 46.296,36.273 C46.296,37.479 45.711,38.82 43.641,39.441 L43.02,38.838 C44.19,38.568 45.018,38.082 45.387,37.29 C45.171,37.443 44.919,37.515 44.622,37.515 C43.866,37.515 43.146,36.984 43.146,36.021 C43.146,35.139 43.875,34.464 44.721,34.464 C44.937,34.464 45.135,34.5 45.315,34.563 C45.315,34.302 45.315,33.987 45.306,33.681 C43.956,33.69 42.444,33.753 41.328,33.834 L41.31,33.132 C42.3,33.114 43.974,33.06 45.297,33.042 C45.297,32.79 45.288,32.583 45.279,32.457 C45.27,32.268 45.243,32.007 45.225,31.899 L46.044,31.899 L45.999,32.457 C45.999,32.592 45.99,32.799 45.99,33.033 L46.125,33.033 C47.205,33.033 48.303,33.042 48.735,33.042 L48.726,33.717 C48.222,33.69 47.412,33.672 46.107,33.672 Z M53.901,38.703 C54.153,38.703 54.396,38.685 54.612,38.649 C54.531,37.947 54.108,37.461 53.433,37.461 C53.028,37.461 52.722,37.704 52.722,38.01 C52.722,38.451 53.235,38.703 53.901,38.703 Z M55.737,32.232 L56.151,32.754 C55.989,32.862 55.791,32.997 55.656,33.096 C55.215,33.429 54.018,34.482 53.334,35.058 C53.739,34.923 54.144,34.869 54.54,34.869 C56.025,34.869 57.096,35.769 57.096,36.975 C57.096,38.415 55.899,39.351 54.018,39.351 C52.803,39.351 52.056,38.811 52.056,38.073 C52.056,37.461 52.605,36.903 53.433,36.903 C54.549,36.903 55.152,37.65 55.269,38.478 C55.971,38.208 56.376,37.695 56.376,36.966 C56.376,36.093 55.494,35.454 54.369,35.454 C52.902,35.454 52.092,36.075 50.958,37.227 L50.436,36.696 C51.174,36.084 52.317,35.13 52.839,34.698 C53.334,34.284 54.441,33.348 54.882,32.952 C54.414,32.97 52.659,33.051 52.2,33.078 C51.993,33.087 51.786,33.096 51.597,33.132 L51.579,32.385 C51.777,32.412 52.029,32.412 52.209,32.412 C52.668,32.412 54.783,32.349 55.251,32.304 C55.512,32.277 55.638,32.259 55.737,32.232 Z M63.243,35.328 L63.243,34.653 C63.711,34.608 64.296,34.581 64.872,34.581 C65.385,34.581 65.934,34.599 66.411,34.653 L66.393,35.337 C65.943,35.283 65.412,35.229 64.89,35.229 C64.332,35.229 63.792,35.265 63.243,35.328 Z M63.819,32.988 L63.819,33.699 C63.234,33.834 62.595,33.933 61.974,34.005 C61.893,34.392 61.794,34.806 61.695,35.184 C61.371,36.462 60.768,38.298 60.3,39.27 L59.508,39.009 C60.039,38.091 60.669,36.282 61.002,35.022 C61.083,34.725 61.155,34.401 61.227,34.077 C60.939,34.095 60.669,34.104 60.417,34.104 C60.021,34.104 59.697,34.086 59.382,34.068 L59.355,33.366 C59.778,33.42 60.102,33.429 60.426,33.429 C60.723,33.429 61.038,33.411 61.38,33.393 C61.443,33.069 61.488,32.79 61.515,32.61 C61.542,32.358 61.56,32.061 61.542,31.872 L62.415,31.944 C62.352,32.142 62.289,32.475 62.253,32.655 L62.118,33.312 C62.694,33.24 63.279,33.132 63.819,32.988 Z M62.793,36.759 L63.468,36.822 C63.387,37.119 63.342,37.398 63.342,37.623 C63.342,38.046 63.54,38.451 64.809,38.451 C65.385,38.451 66.006,38.379 66.546,38.28 L66.519,39.009 C66.042,39.072 65.448,39.126 64.8,39.126 C63.396,39.126 62.658,38.694 62.658,37.812 C62.658,37.47 62.712,37.137 62.793,36.759 Z M75.249,33.24 L74.781,33.42 C74.61,33.015 74.376,32.475 74.178,32.133 L74.628,31.98 C74.808,32.313 75.096,32.871 75.249,33.24 Z M73.125,32.718 L73.818,32.502 C74.043,33.582 74.574,35.04 75.717,36.183 L75.186,36.741 C74.781,36.246 74.421,35.706 74.088,35.076 C74.277,37.326 73.341,39.549 71.028,39.549 C69.597,39.549 68.715,38.622 68.715,37.191 C68.715,35.661 69.588,34.23 70.317,33.474 C69.867,33.546 69.201,33.654 68.85,33.726 C68.697,33.753 68.535,33.789 68.355,33.825 L68.247,33.069 C68.382,33.069 68.562,33.06 68.724,33.042 C69.498,32.979 71.064,32.727 71.586,32.529 L71.802,33.177 C71.685,33.222 71.46,33.276 71.334,33.339 C70.767,33.762 69.417,35.445 69.417,37.092 C69.417,38.316 70.191,38.802 71.055,38.802 C72.909,38.802 73.962,36.651 73.341,33.366 C73.269,33.159 73.197,32.943 73.125,32.718 Z M75.105,31.8 L75.546,31.629 C75.744,31.962 76.014,32.511 76.185,32.889 L75.717,33.06 C75.546,32.655 75.312,32.133 75.105,31.8 Z M78.021,32.187 L78.831,32.25 C78.777,32.403 78.696,32.691 78.66,32.853 C78.489,33.672 78.228,35.265 78.228,36.264 C78.228,36.696 78.246,37.056 78.3,37.488 C78.453,37.083 78.651,36.561 78.795,36.21 L79.182,36.498 C78.957,37.128 78.633,38.073 78.552,38.496 C78.525,38.622 78.507,38.793 78.507,38.892 L78.534,39.207 L77.886,39.252 C77.706,38.622 77.562,37.596 77.562,36.39 C77.562,35.076 77.85,33.546 77.958,32.817 C77.985,32.61 78.021,32.376 78.021,32.187 Z M80.217,36.507 L80.865,36.57 C80.784,36.894 80.748,37.146 80.748,37.389 C80.748,37.794 81.018,38.19 82.242,38.19 C83.043,38.19 83.727,38.118 84.447,37.956 L84.456,38.712 C83.907,38.82 83.16,38.892 82.233,38.892 C80.739,38.892 80.073,38.397 80.073,37.56 C80.073,37.236 80.136,36.885 80.217,36.507 Z M80.523,33.672 L80.514,32.934 C81.486,33.096 83.286,33.06 84.177,32.934 L84.177,33.672 C83.223,33.771 81.495,33.771 80.523,33.672 Z M7.524,48.886 L4.473,48.886 L4.473,50.695 C4.473,51.145 4.788,51.415 5.616,51.415 C6.471,51.415 7.209,51.379 7.983,51.289 L7.938,52.045 C7.236,52.099 6.372,52.135 5.508,52.135 C4.149,52.135 3.726,51.658 3.726,50.92 L3.726,48.886 L1.98,48.886 C1.746,48.886 1.377,48.904 1.125,48.922 L1.125,48.166 C1.368,48.184 1.737,48.211 1.98,48.211 L3.726,48.211 L3.726,46.303 L2.529,46.303 C2.223,46.303 1.962,46.312 1.719,46.33 L1.719,45.61 C1.962,45.628 2.223,45.646 2.529,45.646 L6.813,45.646 C7.101,45.646 7.353,45.628 7.551,45.61 L7.551,46.33 C7.335,46.321 7.128,46.303 6.813,46.303 L4.473,46.303 L4.473,48.211 L7.506,48.211 C7.695,48.211 8.046,48.193 8.253,48.175 L8.253,48.913 C8.046,48.886 7.722,48.886 7.524,48.886 Z M16.785,46.384 L16.344,46.537 C16.209,46.15 16.002,45.61 15.831,45.268 L16.263,45.133 C16.425,45.457 16.668,46.015 16.785,46.384 Z M15.408,47.023 L16.389,47.023 C16.794,47.023 17.091,46.996 17.217,46.969 L17.217,47.734 C17.118,47.725 16.794,47.707 16.398,47.707 L15.408,47.707 L15.408,48.022 C15.408,50.416 14.886,51.649 12.834,52.576 L12.231,52 C13.869,51.379 14.679,50.605 14.679,48.085 L14.679,47.707 L12.123,47.707 L12.123,49.165 C12.123,49.498 12.15,49.894 12.159,49.975 L11.358,49.975 C11.367,49.894 11.403,49.507 11.403,49.165 L11.403,47.707 L10.431,47.707 C10.035,47.707 9.63,47.734 9.531,47.734 L9.531,46.96 C9.612,46.978 10.053,47.023 10.431,47.023 L11.403,47.023 L11.403,45.871 C11.403,45.574 11.376,45.295 11.358,45.214 L12.159,45.214 C12.15,45.295 12.123,45.556 12.123,45.862 L12.123,47.023 L14.679,47.023 L14.679,45.898 C14.679,45.547 14.652,45.25 14.643,45.16 L15.453,45.16 C15.444,45.25 15.408,45.547 15.408,45.898 L15.408,47.023 Z M16.722,44.998 L17.154,44.863 C17.325,45.187 17.568,45.736 17.694,46.105 L17.253,46.249 C17.109,45.853 16.902,45.331 16.722,44.998 Z M25.245,44.971 L25.839,45.511 C25.218,46.141 24.354,46.879 23.427,47.464 L23.427,51.316 C23.427,51.658 23.445,52.099 23.481,52.279 L22.599,52.279 C22.626,52.108 22.653,51.658 22.653,51.316 L22.653,47.914 C21.69,48.445 20.448,48.967 19.269,49.318 L18.855,48.616 C20.358,48.265 21.888,47.581 22.878,46.96 C23.796,46.393 24.741,45.61 25.245,44.971 Z M34.155,46.015 L34.758,46.375 C34.686,46.501 34.596,46.708 34.542,46.852 C34.299,47.752 33.75,48.976 32.949,49.948 C32.13,50.947 31.059,51.775 29.367,52.396 L28.719,51.811 C30.366,51.325 31.491,50.506 32.31,49.552 C33.012,48.724 33.561,47.563 33.741,46.744 L30.699,46.744 C30.159,47.5 29.403,48.301 28.422,48.958 L27.801,48.49 C29.358,47.563 30.24,46.258 30.627,45.448 C30.726,45.295 30.852,44.971 30.906,44.737 L31.743,45.016 C31.59,45.25 31.428,45.547 31.338,45.718 C31.275,45.844 31.203,45.97 31.122,46.096 L33.57,46.096 C33.813,46.096 34.011,46.069 34.155,46.015 Z M37.521,45.187 L38.331,45.25 C38.277,45.403 38.196,45.691 38.16,45.853 C37.989,46.672 37.728,48.265 37.728,49.264 C37.728,49.696 37.746,50.056 37.8,50.488 C37.953,50.083 38.151,49.561 38.295,49.21 L38.682,49.498 C38.457,50.128 38.133,51.073 38.052,51.496 C38.025,51.622 38.007,51.793 38.007,51.892 L38.034,52.207 L37.386,52.252 C37.206,51.622 37.062,50.596 37.062,49.39 C37.062,48.076 37.35,46.546 37.458,45.817 C37.485,45.61 37.521,45.376 37.521,45.187 Z M39.717,49.507 L40.365,49.57 C40.284,49.894 40.248,50.146 40.248,50.389 C40.248,50.794 40.518,51.19 41.742,51.19 C42.543,51.19 43.227,51.118 43.947,50.956 L43.956,51.712 C43.407,51.82 42.66,51.892 41.733,51.892 C40.239,51.892 39.573,51.397 39.573,50.56 C39.573,50.236 39.636,49.885 39.717,49.507 Z M40.023,46.672 L40.014,45.934 C40.986,46.096 42.786,46.06 43.677,45.934 L43.677,46.672 C42.723,46.771 40.995,46.771 40.023,46.672 Z M47.844,44.656 L48.546,44.854 C47.898,46.366 46.854,47.707 45.72,48.553 C45.603,48.409 45.315,48.157 45.153,48.031 C46.287,47.275 47.286,46.033 47.844,44.656 Z M46.611,47.851 L52.2,47.851 C52.2,47.851 52.191,48.085 52.182,48.175 C52.056,50.938 51.921,51.973 51.615,52.315 C51.426,52.54 51.237,52.594 50.922,52.63 C50.625,52.657 50.067,52.639 49.509,52.612 C49.491,52.414 49.41,52.144 49.284,51.946 C49.869,52 50.427,52.009 50.634,52.009 C50.823,52.009 50.931,51.991 51.012,51.892 C51.246,51.667 51.372,50.767 51.48,48.499 L49.158,48.499 C48.924,50.272 48.348,51.901 46.062,52.729 C45.972,52.558 45.783,52.288 45.63,52.144 C47.745,51.442 48.24,50.011 48.447,48.499 L46.611,48.499 L46.611,47.851 Z M50.319,44.89 L50.949,44.638 C51.534,45.844 52.686,47.194 53.658,47.878 C53.487,48.022 53.235,48.283 53.109,48.472 C52.119,47.671 50.985,46.222 50.319,44.89 Z M56.772,49.813 L57.582,49.813 L57.582,48.76 L56.772,48.76 L56.772,49.813 Z M55.476,48.76 L55.476,49.111 C55.476,49.327 55.476,49.57 55.458,49.813 L56.286,49.813 L56.286,48.76 L55.476,48.76 Z M56.826,45.799 L55.845,45.799 C55.71,46.132 55.557,46.447 55.395,46.735 L56.43,46.735 C56.565,46.465 56.718,46.114 56.826,45.799 Z M56.772,47.266 L56.772,48.256 L57.582,48.256 L57.582,47.266 L56.772,47.266 Z M55.476,47.266 L55.476,48.256 L56.286,48.256 L56.286,47.266 L55.476,47.266 Z M61.677,45.493 L60.237,45.493 C60.048,46.555 59.616,47.419 58.509,47.923 C58.437,47.779 58.275,47.581 58.149,47.473 L58.149,51.955 C58.149,52.279 58.077,52.468 57.843,52.567 C57.618,52.666 57.258,52.675 56.637,52.675 C56.61,52.522 56.511,52.261 56.421,52.108 C56.889,52.126 57.294,52.126 57.411,52.117 C57.537,52.108 57.582,52.072 57.582,51.955 L57.582,50.335 L55.422,50.335 C55.341,51.172 55.152,52.054 54.729,52.702 C54.639,52.603 54.387,52.459 54.252,52.396 C54.855,51.451 54.918,50.119 54.918,49.111 L54.918,47.482 C54.855,47.563 54.792,47.644 54.729,47.716 C54.63,47.608 54.369,47.401 54.225,47.311 C54.864,46.627 55.359,45.565 55.629,44.467 L56.25,44.602 C56.187,44.827 56.115,45.052 56.043,45.268 L57.096,45.268 L57.195,45.241 L57.591,45.493 C57.438,45.889 57.231,46.348 57.024,46.735 L58.149,46.735 L58.149,47.464 C59.094,47.05 59.454,46.339 59.625,45.493 L58.41,45.493 L58.41,44.926 L62.298,44.926 C62.298,44.926 62.298,45.097 62.289,45.178 C62.217,46.663 62.145,47.239 61.947,47.455 C61.83,47.599 61.695,47.662 61.461,47.68 C61.272,47.698 60.903,47.689 60.534,47.671 C60.516,47.5 60.462,47.266 60.381,47.113 C60.732,47.149 61.065,47.149 61.191,47.149 C61.308,47.158 61.38,47.149 61.443,47.068 C61.542,46.951 61.623,46.537 61.677,45.493 Z M62.541,50.38 L62.541,50.956 L60.831,50.956 L60.831,52.639 L60.192,52.639 L60.192,50.956 L58.302,50.956 L58.302,50.38 L60.192,50.38 L60.192,49.273 L59.193,49.273 C59.058,49.606 58.896,49.912 58.725,50.155 C58.617,50.074 58.356,49.948 58.203,49.876 C58.599,49.363 58.869,48.625 59.031,47.86 L59.598,47.977 C59.544,48.22 59.481,48.463 59.409,48.697 L60.192,48.697 L60.192,47.779 L60.831,47.779 L60.831,48.697 L62.388,48.697 L62.388,49.273 L60.831,49.273 L60.831,50.38 L62.541,50.38 Z M65.079,45.007 L65.988,45.016 C65.943,45.304 65.916,45.619 65.898,45.907 C65.862,46.915 65.79,49.021 65.79,50.353 C65.79,51.334 66.42,51.676 67.248,51.676 C68.886,51.676 69.813,50.758 70.452,49.831 L70.947,50.452 C70.344,51.298 69.192,52.414 67.23,52.414 C65.952,52.414 65.07,51.874 65.07,50.425 C65.07,49.102 65.16,46.852 65.16,45.907 C65.16,45.583 65.133,45.268 65.079,45.007 Z M76.419,50.956 C76.419,50.803 76.41,50.596 76.41,50.353 C76.131,50.299 75.843,50.272 75.546,50.272 C74.7,50.272 74.241,50.596 74.241,51.001 C74.241,51.415 74.592,51.721 75.474,51.721 C75.987,51.721 76.419,51.568 76.419,50.956 Z M79.668,51.262 L79.263,51.892 C78.741,51.415 78.003,50.875 77.112,50.551 C77.121,50.776 77.13,50.974 77.13,51.109 C77.13,51.721 76.716,52.36 75.555,52.36 C74.277,52.36 73.566,51.901 73.566,51.037 C73.566,50.227 74.349,49.678 75.636,49.678 C75.897,49.678 76.14,49.696 76.383,49.732 C76.365,49.336 76.347,48.913 76.338,48.544 L75.843,48.544 C75.231,48.544 74.241,48.49 73.602,48.418 L73.602,47.734 C74.205,47.842 75.258,47.905 75.843,47.905 L76.32,47.905 L76.32,46.627 L75.879,46.627 C75.258,46.627 74.313,46.555 73.782,46.492 L73.782,45.826 C74.322,45.925 75.276,45.997 75.87,45.997 L76.329,45.997 L76.329,45.412 C76.329,45.268 76.32,45.007 76.302,44.881 L77.067,44.881 C77.04,45.043 77.031,45.214 77.022,45.475 C77.013,45.583 77.013,45.754 77.013,45.97 C77.787,45.943 78.516,45.871 79.299,45.754 L79.308,46.411 C78.606,46.483 77.841,46.555 77.004,46.6 L77.004,47.878 C77.859,47.842 78.678,47.761 79.479,47.644 L79.488,48.319 C78.651,48.427 77.859,48.49 77.013,48.526 C77.031,48.985 77.058,49.453 77.076,49.876 C78.255,50.2 79.164,50.857 79.668,51.262 Z M85.23,49.894 C85.752,49.894 86.094,49.471 86.013,48.625 C85.869,48.238 85.572,48.076 85.221,48.076 C84.762,48.076 84.321,48.436 84.321,49.012 C84.321,49.57 84.735,49.894 85.23,49.894 Z M86.607,46.672 L86.49,46.672 C86.49,47.176 86.499,47.725 86.508,48.13 C86.697,48.436 86.796,48.832 86.796,49.273 C86.796,50.479 86.211,51.82 84.141,52.441 L83.52,51.838 C84.69,51.568 85.518,51.082 85.887,50.29 C85.671,50.443 85.419,50.515 85.122,50.515 C84.366,50.515 83.646,49.984 83.646,49.021 C83.646,48.139 84.375,47.464 85.221,47.464 C85.437,47.464 85.635,47.5 85.815,47.563 C85.815,47.302 85.815,46.987 85.806,46.681 C84.456,46.69 82.944,46.753 81.828,46.834 L81.81,46.132 C82.8,46.114 84.474,46.06 85.797,46.042 C85.797,45.79 85.788,45.583 85.779,45.457 C85.77,45.268 85.743,45.007 85.725,44.899 L86.544,44.899 L86.499,45.457 C86.499,45.592 86.49,45.799 86.49,46.033 L86.625,46.033 C87.705,46.033 88.803,46.042 89.235,46.042 L89.226,46.717 C88.722,46.69 87.912,46.672 86.607,46.672 Z" id="シェイクするたびにモザイクに分解します"></path>
                        <path d="M12.2055,4.862 L15.9625,4.862 L18.8015,13.209 L18.8355,13.209 L21.5215,4.862 L25.2785,4.862 L25.2785,17 L22.7795,17 L22.7795,8.398 L22.7455,8.398 L19.7705,17 L17.7135,17 L14.7385,8.483 L14.7045,8.483 L14.7045,17 L12.2055,17 L12.2055,4.862 Z M29.7665,10.982 C29.7665,11.4920025 29.8259994,11.9878309 29.945,12.4695 C30.0640006,12.9511691 30.253832,13.3846647 30.5145,13.77 C30.775168,14.1553353 31.1151646,14.4641655 31.5345,14.6965 C31.9538354,14.9288345 32.4638303,15.045 33.0645,15.045 C33.6651697,15.045 34.1751646,14.9288345 34.5945,14.6965 C35.0138354,14.4641655 35.353832,14.1553353 35.6145,13.77 C35.875168,13.3846647 36.0649994,12.9511691 36.184,12.4695 C36.3030006,11.9878309 36.3625,11.4920025 36.3625,10.982 C36.3625,10.4493307 36.3030006,9.93366916 36.184,9.435 C36.0649994,8.93633084 35.875168,8.49150195 35.6145,8.1005 C35.353832,7.70949804 35.0138354,7.39783449 34.5945,7.1655 C34.1751646,6.9331655 33.6651697,6.817 33.0645,6.817 C32.4638303,6.817 31.9538354,6.9331655 31.5345,7.1655 C31.1151646,7.39783449 30.775168,7.70949804 30.5145,8.1005 C30.253832,8.49150195 30.0640006,8.93633084 29.945,9.435 C29.8259994,9.93366916 29.7665,10.4493307 29.7665,10.982 Z M27.0975,10.982 C27.0975,10.0753288 27.2334986,9.23383722 27.5055,8.4575 C27.7775014,7.68116278 28.1684975,7.00400289 28.6785,6.426 C29.1885026,5.84799711 29.814663,5.39466831 30.557,5.066 C31.299337,4.73733169 32.135162,4.573 33.0645,4.573 C34.0051714,4.573 34.8438297,4.73733169 35.5805,5.066 C36.3171703,5.39466831 36.9404974,5.84799711 37.4505,6.426 C37.9605026,7.00400289 38.3514986,7.68116278 38.6235,8.4575 C38.8955014,9.23383722 39.0315,10.0753288 39.0315,10.982 C39.0315,11.8660044 38.8955014,12.6904962 38.6235,13.4555 C38.3514986,14.2205038 37.9605026,14.8863305 37.4505,15.453 C36.9404974,16.0196695 36.3171703,16.4644984 35.5805,16.7875 C34.8438297,17.1105016 34.0051714,17.272 33.0645,17.272 C32.135162,17.272 31.299337,17.1105016 30.557,16.7875 C29.814663,16.4644984 29.1885026,16.0196695 28.6785,15.453 C28.1684975,14.8863305 27.7775014,14.2205038 27.5055,13.4555 C27.2334986,12.6904962 27.0975,11.8660044 27.0975,10.982 Z M42.6695,12.971 C42.6695,13.379002 42.7431659,13.7246652 42.8905,14.008 C43.0378341,14.2913347 43.2333321,14.5208325 43.477,14.6965 C43.7206679,14.8721675 44.0068317,15.0024996 44.3355,15.0875 C44.6641683,15.1725004 45.0041649,15.215 45.3555,15.215 C45.5935012,15.215 45.8484986,15.1951669 46.1205,15.1555 C46.3925014,15.1158331 46.6474988,15.0393339 46.8855,14.926 C47.1235012,14.8126661 47.3218325,14.6568343 47.4805,14.4585 C47.6391675,14.2601657 47.7185,14.0080015 47.7185,13.702 C47.7185,13.3733317 47.6136677,13.107001 47.404,12.903 C47.1943323,12.698999 46.9195017,12.5290007 46.5795,12.393 C46.2394983,12.2569993 45.8541688,12.1380005 45.4235,12.036 C44.9928312,11.9339995 44.5565022,11.8206673 44.1145,11.696 C43.6611644,11.5826661 43.2191688,11.4438342 42.7885,11.2795 C42.3578312,11.1151658 41.9725017,10.902668 41.6325,10.642 C41.2924983,10.381332 41.0176677,10.055502 40.808,9.6645 C40.5983323,9.27349805 40.4935,8.80033611 40.4935,8.245 C40.4935,7.62166355 40.6266653,7.08050229 40.893,6.6215 C41.1593347,6.1624977 41.5078312,5.78000153 41.9385,5.474 C42.3691688,5.16799847 42.8564973,4.94133407 43.4005,4.794 C43.9445027,4.64666593 44.4884973,4.573 45.0325,4.573 C45.6671698,4.573 46.2763304,4.64383262 46.86,4.7855 C47.4436696,4.92716737 47.9621644,5.15666508 48.4155,5.474 C48.8688356,5.79133492 49.2286653,6.19649753 49.495,6.6895 C49.7613347,7.18250246 49.8945,7.78032982 49.8945,8.483 L47.3105,8.483 C47.2878332,8.12033152 47.211334,7.82000119 47.081,7.582 C46.950666,7.34399881 46.7778344,7.15700068 46.5625,7.021 C46.3471656,6.88499932 46.1006681,6.78866695 45.823,6.732 C45.5453319,6.67533305 45.2421683,6.647 44.9135,6.647 C44.6981656,6.647 44.4828344,6.66966644 44.2675,6.715 C44.0521656,6.76033356 43.8566675,6.8396661 43.681,6.953 C43.5053325,7.0663339 43.3608339,7.20799915 43.2475,7.378 C43.1341661,7.54800085 43.0775,7.76333203 43.0775,8.024 C43.0775,8.26200119 43.1228329,8.45466593 43.2135,8.602 C43.3041671,8.74933407 43.4826653,8.88533271 43.749,9.01 C44.0153347,9.13466729 44.3836643,9.25933271 44.854,9.384 C45.3243357,9.50866729 45.9391629,9.66733237 46.6985,9.86 C46.9251678,9.90533356 47.2396647,9.9874994 47.642,10.1065 C48.0443353,10.2255006 48.4438314,10.415332 48.8405,10.676 C49.2371687,10.936668 49.5799986,11.2851645 49.869,11.7215 C50.1580014,12.1578355 50.3025,12.7159966 50.3025,13.396 C50.3025,13.9513361 50.1948344,14.4669976 49.9795,14.943 C49.7641656,15.4190024 49.4440021,15.8298316 49.019,16.1755 C48.5939979,16.5211684 48.0670031,16.7903324 47.438,16.983 C46.8089969,17.1756676 46.0808375,17.272 45.2535,17.272 C44.58483,17.272 43.9360031,17.1898342 43.307,17.0255 C42.6779969,16.8611658 42.1226691,16.6033351 41.641,16.252 C41.1593309,15.9006649 40.7768347,15.4530027 40.4935,14.909 C40.2101653,14.3649973 40.0741666,13.7190037 40.0855,12.971 L42.6695,12.971 Z M54.9435,12.308 L58.0885,12.308 L56.5585,7.854 L56.5245,7.854 L54.9435,12.308 Z M55.1985,4.862 L57.9355,4.862 L62.4745,17 L59.7035,17 L58.7855,14.297 L54.2465,14.297 L53.2945,17 L50.6085,17 L55.1985,4.862 Z M63.5285,4.862 L66.1975,4.862 L66.1975,17 L63.5285,17 L63.5285,4.862 Z M76.6355,8.942 C76.5901664,8.63599847 76.4881675,8.35550127 76.3295,8.1005 C76.1708325,7.84549872 75.9725012,7.62166763 75.7345,7.429 C75.4964988,7.23633237 75.2273348,7.0861672 74.927,6.9785 C74.6266652,6.87083279 74.3121683,6.817 73.9835,6.817 C73.3828303,6.817 72.8728354,6.9331655 72.4535,7.1655 C72.0341646,7.39783449 71.694168,7.70949804 71.4335,8.1005 C71.172832,8.49150195 70.9830006,8.93633084 70.864,9.435 C70.7449994,9.93366916 70.6855,10.4493307 70.6855,10.982 C70.6855,11.4920025 70.7449994,11.9878309 70.864,12.4695 C70.9830006,12.9511691 71.172832,13.3846647 71.4335,13.77 C71.694168,14.1553353 72.0341646,14.4641655 72.4535,14.6965 C72.8728354,14.9288345 73.3828303,15.045 73.9835,15.045 C74.7995041,15.045 75.4369977,14.7956692 75.896,14.297 C76.3550023,13.7983308 76.6354995,13.1410041 76.7375,12.325 L79.3215,12.325 C79.2534997,13.0843371 79.0778348,13.7699969 78.7945,14.382 C78.5111653,14.9940031 78.137169,15.5153312 77.6725,15.946 C77.207831,16.3766688 76.6638365,16.7053322 76.0405,16.932 C75.4171635,17.1586678 74.7315037,17.272 73.9835,17.272 C73.054162,17.272 72.218337,17.1105016 71.476,16.7875 C70.733663,16.4644984 70.1075026,16.0196695 69.5975,15.453 C69.0874975,14.8863305 68.6965014,14.2205038 68.4245,13.4555 C68.1524986,12.6904962 68.0165,11.8660044 68.0165,10.982 C68.0165,10.0753288 68.1524986,9.23383722 68.4245,8.4575 C68.6965014,7.68116278 69.0874975,7.00400289 69.5975,6.426 C70.1075026,5.84799711 70.733663,5.39466831 71.476,5.066 C72.218337,4.73733169 73.054162,4.573 73.9835,4.573 C74.65217,4.573 75.283997,4.66933237 75.879,4.862 C76.474003,5.05466763 77.0066643,5.33516482 77.477,5.7035 C77.9473357,6.07183517 78.3354985,6.52799728 78.6415,7.072 C78.9475015,7.61600272 79.1401663,8.23932982 79.2195,8.942 L76.6355,8.942 Z" id="MOSAIC"></path>
                    </g>
                </g>
            </g>
        </g>
    </g>
</svg>