<?xml version="1.0" encoding="UTF-8"?>
<svg width="149px" height="65px" viewBox="0 0 149 65" version="1.1" xmlns="http://www.w3.org/2000/svg" xmlns:xlink="http://www.w3.org/1999/xlink">
    <!-- Generator: Sketch 54.1 (76490) - https://sketchapp.com -->
    <title>Text</title>
    <desc>Created with Sketch.</desc>
    <g id="Make" stroke="none" stroke-width="1" fill="none" fill-rule="evenodd">
        <g id="C-37&gt;Shake-to-Remix" transform="translate(-23.000000, -265.000000)" fill="#6A6A6A" fill-rule="nonzero">
            <g id="Content" transform="translate(12.000000, 76.000000)">
                <g id="01_MoMAEarlyModernStyle">
                    <g id="Text" transform="translate(9.500000, 184.000000)">
                        <path d="M56.182,5.718 L59.055,5.718 L61.226,12.101 L61.252,12.101 L63.306,5.718 L66.179,5.718 L66.179,15 L64.268,15 L64.268,8.422 L64.242,8.422 L61.967,15 L60.394,15 L58.119,8.487 L58.093,8.487 L58.093,15 L56.182,15 L56.182,5.718 Z M69.416,11.646 C69.416,11.914668 69.4419997,12.1768321 69.494,12.4325 C69.5460003,12.6881679 69.6348327,12.9178323 69.7605,13.1215 C69.8861673,13.3251677 70.052999,13.4876661 70.261,13.609 C70.469001,13.7303339 70.7289984,13.791 71.041,13.791 C71.3530016,13.791 71.6151656,13.7303339 71.8275,13.609 C72.0398344,13.4876661 72.2088327,13.3251677 72.3345,13.1215 C72.4601673,12.9178323 72.5489997,12.6881679 72.601,12.4325 C72.6530003,12.1768321 72.679,11.914668 72.679,11.646 C72.679,11.377332 72.6530003,11.1130013 72.601,10.853 C72.5489997,10.5929987 72.4601673,10.3633343 72.3345,10.164 C72.2088327,9.96466567 72.0398344,9.80216729 71.8275,9.6765 C71.6151656,9.5508327 71.3530016,9.488 71.041,9.488 C70.7289984,9.488 70.469001,9.5508327 70.261,9.6765 C70.052999,9.80216729 69.8861673,9.96466567 69.7605,10.164 C69.6348327,10.3633343 69.5460003,10.5929987 69.494,10.853 C69.4419997,11.1130013 69.416,11.377332 69.416,11.646 Z M67.57,11.646 C67.57,11.108664 67.6523325,10.6211689 67.817,10.1835 C67.9816675,9.74583115 68.2156652,9.37316821 68.519,9.0655 C68.8223349,8.7578318 69.1863312,8.51950085 69.611,8.3505 C70.0356688,8.18149916 70.5123307,8.097 71.041,8.097 C71.5696693,8.097 72.0484979,8.18149916 72.4775,8.3505 C72.9065021,8.51950085 73.2726652,8.7578318 73.576,9.0655 C73.8793349,9.37316821 74.1133325,9.74583115 74.278,10.1835 C74.4426675,10.6211689 74.525,11.108664 74.525,11.646 C74.525,12.183336 74.4426675,12.6686645 74.278,13.102 C74.1133325,13.5353355 73.8793349,13.9058318 73.576,14.2135 C73.2726652,14.5211682 72.9065021,14.7573325 72.4775,14.922 C72.0484979,15.0866675 71.5696693,15.169 71.041,15.169 C70.5123307,15.169 70.0356688,15.0866675 69.611,14.922 C69.1863312,14.7573325 68.8223349,14.5211682 68.519,14.2135 C68.2156652,13.9058318 67.9816675,13.5353355 67.817,13.102 C67.6523325,12.6686645 67.57,12.183336 67.57,11.646 Z M75.916,5.718 L78.789,5.718 L80.96,12.101 L80.986,12.101 L83.04,5.718 L85.913,5.718 L85.913,15 L84.002,15 L84.002,8.422 L83.976,8.422 L81.701,15 L80.128,15 L77.853,8.487 L77.827,8.487 L77.827,15 L75.916,15 L75.916,5.718 Z M90.047,11.412 L92.452,11.412 L91.282,8.006 L91.256,8.006 L90.047,11.412 Z M90.242,5.718 L92.335,5.718 L95.806,15 L93.687,15 L92.985,12.933 L89.514,12.933 L88.786,15 L86.732,15 L90.242,5.718 Z M1.8745,24.718 L8.8165,24.718 L8.8165,26.434 L3.9155,26.434 L3.9155,28.423 L8.4135,28.423 L8.4135,30.009 L3.9155,30.009 L3.9155,32.284 L8.9205,32.284 L8.9205,34 L1.8745,34 L1.8745,24.718 Z M12.6385,30.412 L15.0435,30.412 L13.8735,27.006 L13.8475,27.006 L12.6385,30.412 Z M12.8335,24.718 L14.9265,24.718 L18.3975,34 L16.2785,34 L15.5765,31.933 L12.1055,31.933 L11.3775,34 L9.3235,34 L12.8335,24.718 Z M21.2445,28.917 L23.4805,28.917 C23.9485023,28.917 24.2994988,28.813001 24.5335,28.605 C24.7675012,28.396999 24.8845,28.0590023 24.8845,27.591 C24.8845,27.1403311 24.7675012,26.8131677 24.5335,26.6095 C24.2994988,26.4058323 23.9485023,26.304 23.4805,26.304 L21.2445,26.304 L21.2445,28.917 Z M19.2035,24.718 L24.2085,24.718 C24.6245021,24.718 24.9993317,24.785166 25.333,24.9195 C25.6666683,25.053834 25.9526655,25.2379988 26.191,25.472 C26.4293345,25.7060012 26.6113327,25.9768318 26.737,26.2845 C26.8626673,26.5921682 26.9255,26.9236649 26.9255,27.279 C26.9255,27.8250027 26.8106678,28.2973313 26.581,28.696 C26.3513322,29.0946687 25.9765026,29.397999 25.4565,29.606 L25.4565,29.632 C25.7078346,29.7013337 25.9158325,29.8074993 26.0805,29.9505 C26.2451675,30.0935007 26.3794995,30.262499 26.4835,30.4575 C26.5875005,30.652501 26.6633331,30.8669988 26.711,31.101 C26.7586669,31.3350012 26.7911666,31.5689988 26.8085,31.803 C26.8171667,31.9503341 26.8258333,32.1236657 26.8345,32.323 C26.8431667,32.5223343 26.8583332,32.725999 26.88,32.934 C26.9016668,33.142001 26.9363331,33.3391657 26.984,33.5255 C27.0316669,33.7118343 27.1031662,33.8699994 27.1985,34 L25.1575,34 C25.0448328,33.7053319 24.9755001,33.3543354 24.9495,32.947 C24.9234999,32.5396646 24.8845003,32.1496685 24.8325,31.777 C24.7631663,31.2916642 24.6158345,30.9363345 24.3905,30.711 C24.1651655,30.4856655 23.7968359,30.373 23.2855,30.373 L21.2445,30.373 L21.2445,34 L19.2035,34 L19.2035,24.718 Z M28.5895,24.718 L30.6305,24.718 L30.6305,32.284 L35.1545,32.284 L35.1545,34 L28.5895,34 L28.5895,24.718 Z M37.2605,30.386 L33.8545,24.718 L36.1425,24.718 L38.3135,28.384 L40.4715,24.718 L42.7465,24.718 L39.3015,30.438 L39.3015,34 L37.2605,34 L37.2605,30.386 Z M47.1405,24.718 L50.0135,24.718 L52.1845,31.101 L52.2105,31.101 L54.2645,24.718 L57.1375,24.718 L57.1375,34 L55.2265,34 L55.2265,27.422 L55.2005,27.422 L52.9255,34 L51.3525,34 L49.0775,27.487 L49.0515,27.487 L49.0515,34 L47.1405,34 L47.1405,24.718 Z M60.5695,29.398 C60.5695,29.788002 60.6149995,30.1671648 60.706,30.5355 C60.7970005,30.9038352 60.9421657,31.2353319 61.1415,31.53 C61.3408343,31.8246681 61.6008317,32.0608324 61.9215,32.2385 C62.2421683,32.4161676 62.6321644,32.505 63.0915,32.505 C63.5508356,32.505 63.9408317,32.4161676 64.2615,32.2385 C64.5821683,32.0608324 64.8421657,31.8246681 65.0415,31.53 C65.2408343,31.2353319 65.3859995,30.9038352 65.477,30.5355 C65.5680005,30.1671648 65.6135,29.788002 65.6135,29.398 C65.6135,28.9906646 65.5680005,28.5963352 65.477,28.215 C65.3859995,27.8336648 65.2408343,27.4935015 65.0415,27.1945 C64.8421657,26.8954985 64.5821683,26.6571676 64.2615,26.4795 C63.9408317,26.3018324 63.5508356,26.213 63.0915,26.213 C62.6321644,26.213 62.2421683,26.3018324 61.9215,26.4795 C61.6008317,26.6571676 61.3408343,26.8954985 61.1415,27.1945 C60.9421657,27.4935015 60.7970005,27.8336648 60.706,28.215 C60.6149995,28.5963352 60.5695,28.9906646 60.5695,29.398 Z M58.5285,29.398 C58.5285,28.7046632 58.632499,28.0611696 58.8405,27.4675 C59.048501,26.8738304 59.347498,26.3560022 59.7375,25.914 C60.1275019,25.4719978 60.6063305,25.1253346 61.174,24.874 C61.7416695,24.6226654 62.3808298,24.497 63.0915,24.497 C63.8108369,24.497 64.4521639,24.6226654 65.0155,24.874 C65.5788362,25.1253346 66.055498,25.4719978 66.4455,25.914 C66.8355019,26.3560022 67.134499,26.8738304 67.3425,27.4675 C67.550501,28.0611696 67.6545,28.7046632 67.6545,29.398 C67.6545,30.0740034 67.550501,30.7044971 67.3425,31.2895 C67.134499,31.8745029 66.8355019,32.3836645 66.4455,32.817 C66.055498,33.2503355 65.5788362,33.5904988 65.0155,33.8375 C64.4521639,34.0845012 63.8108369,34.208 63.0915,34.208 C62.3808298,34.208 61.7416695,34.0845012 61.174,33.8375 C60.6063305,33.5904988 60.1275019,33.2503355 59.7375,32.817 C59.347498,32.3836645 59.048501,31.8745029 58.8405,31.2895 C58.632499,30.7044971 58.5285,30.0740034 58.5285,29.398 Z M71.0865,32.284 L72.9065,32.284 C73.2011681,32.284 73.4871653,32.2363338 73.7645,32.141 C74.0418347,32.0456662 74.2888322,31.8875011 74.5055,31.6665 C74.7221677,31.4454989 74.8954993,31.1573351 75.0255,30.802 C75.1555006,30.4466649 75.2205,30.0133359 75.2205,29.502 C75.2205,29.0339977 75.1750005,28.6115019 75.084,28.2345 C74.9929995,27.8574981 74.843501,27.534668 74.6355,27.266 C74.427499,26.997332 74.152335,26.7915007 73.81,26.6485 C73.467665,26.5054993 73.0451692,26.434 72.5425,26.434 L71.0865,26.434 L71.0865,32.284 Z M69.0455,24.718 L73.0495,24.718 C73.647503,24.718 74.2043308,24.8133324 74.72,25.004 C75.2356692,25.1946676 75.6819981,25.4806648 76.059,25.862 C76.4360019,26.2433352 76.7306656,26.7199971 76.943,27.292 C77.1553344,27.8640029 77.2615,28.5356628 77.2615,29.307 C77.2615,29.9830034 77.1748342,30.6069971 77.0015,31.179 C76.8281658,31.7510029 76.5660018,32.2449979 76.215,32.661 C75.8639982,33.0770021 75.426336,33.4041655 74.902,33.6425 C74.377664,33.8808345 73.7601702,34 73.0495,34 L69.0455,34 L69.0455,24.718 Z M78.6785,24.718 L85.6205,24.718 L85.6205,26.434 L80.7195,26.434 L80.7195,28.423 L85.2175,28.423 L85.2175,30.009 L80.7195,30.009 L80.7195,32.284 L85.7245,32.284 L85.7245,34 L78.6785,34 L78.6785,24.718 Z M89.1435,28.917 L91.3795,28.917 C91.8475023,28.917 92.1984988,28.813001 92.4325,28.605 C92.6665012,28.396999 92.7835,28.0590023 92.7835,27.591 C92.7835,27.1403311 92.6665012,26.8131677 92.4325,26.6095 C92.1984988,26.4058323 91.8475023,26.304 91.3795,26.304 L89.1435,26.304 L89.1435,28.917 Z M87.1025,24.718 L92.1075,24.718 C92.5235021,24.718 92.8983317,24.785166 93.232,24.9195 C93.5656683,25.053834 93.8516655,25.2379988 94.09,25.472 C94.3283345,25.7060012 94.5103327,25.9768318 94.636,26.2845 C94.7616673,26.5921682 94.8245,26.9236649 94.8245,27.279 C94.8245,27.8250027 94.7096678,28.2973313 94.48,28.696 C94.2503322,29.0946687 93.8755026,29.397999 93.3555,29.606 L93.3555,29.632 C93.6068346,29.7013337 93.8148325,29.8074993 93.9795,29.9505 C94.1441675,30.0935007 94.2784995,30.262499 94.3825,30.4575 C94.4865005,30.652501 94.5623331,30.8669988 94.61,31.101 C94.6576669,31.3350012 94.6901666,31.5689988 94.7075,31.803 C94.7161667,31.9503341 94.7248333,32.1236657 94.7335,32.323 C94.7421667,32.5223343 94.7573332,32.725999 94.779,32.934 C94.8006668,33.142001 94.8353331,33.3391657 94.883,33.5255 C94.9306669,33.7118343 95.0021662,33.8699994 95.0975,34 L93.0565,34 C92.9438328,33.7053319 92.8745001,33.3543354 92.8485,32.947 C92.8224999,32.5396646 92.7835003,32.1496685 92.7315,31.777 C92.6621663,31.2916642 92.5148345,30.9363345 92.2895,30.711 C92.0641655,30.4856655 91.6958359,30.373 91.1845,30.373 L89.1435,30.373 L89.1435,34 L87.1025,34 L87.1025,24.718 Z M96.4885,24.718 L98.5165,24.718 L102.3905,30.945 L102.4165,30.945 L102.4165,24.718 L104.3275,24.718 L104.3275,34 L102.2865,34 L98.4255,27.786 L98.3995,27.786 L98.3995,34 L96.4885,34 L96.4885,24.718 Z M111.1265,30.919 C111.1265,31.2310016 111.182833,31.4953323 111.2955,31.712 C111.408167,31.9286678 111.557666,32.104166 111.744,32.2385 C111.930334,32.372834 112.149165,32.4724997 112.4005,32.5375 C112.651835,32.6025003 112.911832,32.635 113.1805,32.635 C113.362501,32.635 113.557499,32.6198335 113.7655,32.5895 C113.973501,32.5591665 114.168499,32.5006671 114.3505,32.414 C114.532501,32.3273329 114.684166,32.2081674 114.8055,32.0565 C114.926834,31.9048326 114.9875,31.7120012 114.9875,31.478 C114.9875,31.2266654 114.907334,31.0230008 114.747,30.867 C114.586666,30.7109992 114.376501,30.5810005 114.1165,30.477 C113.856499,30.3729995 113.561835,30.2820004 113.2325,30.204 C112.903165,30.1259996 112.569502,30.0393338 112.2315,29.944 C111.884832,29.8573329 111.546835,29.7511673 111.2175,29.6255 C110.888165,29.4998327 110.593501,29.3373343 110.3335,29.138 C110.073499,28.9386657 109.863334,28.6895015 109.703,28.3905 C109.542666,28.0914985 109.4625,27.7296688 109.4625,27.305 C109.4625,26.828331 109.564332,26.4145018 109.768,26.0635 C109.971668,25.7124982 110.238165,25.4200012 110.5675,25.186 C110.896835,24.9519988 111.269498,24.7786672 111.6855,24.666 C112.101502,24.5533328 112.517498,24.497 112.9335,24.497 C113.418836,24.497 113.884664,24.5511661 114.331,24.6595 C114.777336,24.7678339 115.173832,24.9433321 115.5205,25.186 C115.867168,25.4286679 116.142332,25.7384981 116.346,26.1155 C116.549668,26.4925019 116.6515,26.949664 116.6515,27.487 L114.6755,27.487 C114.658167,27.2096653 114.599667,26.9800009 114.5,26.798 C114.400333,26.6159991 114.268167,26.4730005 114.1035,26.369 C113.938833,26.2649995 113.750334,26.1913336 113.538,26.148 C113.325666,26.1046664 113.093835,26.083 112.8425,26.083 C112.677833,26.083 112.513167,26.1003332 112.3485,26.135 C112.183833,26.1696668 112.034334,26.2303329 111.9,26.317 C111.765666,26.4036671 111.655167,26.5119994 111.5685,26.642 C111.481833,26.7720007 111.4385,26.9366657 111.4385,27.136 C111.4385,27.3180009 111.473166,27.4653328 111.5425,27.578 C111.611834,27.6906672 111.748332,27.7946662 111.952,27.89 C112.155668,27.9853338 112.437332,28.0806662 112.797,28.176 C113.156668,28.2713338 113.62683,28.3926659 114.2075,28.54 C114.380834,28.5746668 114.621332,28.6374995 114.929,28.7285 C115.236668,28.8195005 115.542165,28.9646657 115.8455,29.164 C116.148835,29.3633343 116.410999,29.6298317 116.632,29.9635 C116.853001,30.2971683 116.9635,30.7239974 116.9635,31.244 C116.9635,31.6686688 116.881167,32.0629982 116.7165,32.427 C116.551833,32.7910018 116.307002,33.1051653 115.982,33.3695 C115.656998,33.6338347 115.254002,33.8396659 114.773,33.987 C114.291998,34.1343341 113.73517,34.208 113.1025,34.208 C112.591164,34.208 112.095002,34.1451673 111.614,34.0195 C111.132998,33.8938327 110.708335,33.696668 110.34,33.428 C109.971665,33.159332 109.679168,32.8170021 109.4625,32.401 C109.245832,31.9849979 109.141833,31.4910029 109.1505,30.919 L111.1265,30.919 Z M120.2265,26.434 L117.4445,26.434 L117.4445,24.718 L125.0495,24.718 L125.0495,26.434 L122.2675,26.434 L122.2675,34 L120.2265,34 L120.2265,26.434 Z M128.5205,30.386 L125.1145,24.718 L127.4025,24.718 L129.5735,28.384 L131.7315,24.718 L134.0065,24.718 L130.5615,30.438 L130.5615,34 L128.5205,34 L128.5205,30.386 Z M134.7865,24.718 L136.8275,24.718 L136.8275,32.284 L141.3515,32.284 L141.3515,34 L134.7865,34 L134.7865,24.718 Z M142.4955,24.718 L149.4375,24.718 L149.4375,26.434 L144.5365,26.434 L144.5365,28.423 L149.0345,28.423 L149.0345,30.009 L144.5365,30.009 L144.5365,32.284 L149.5415,32.284 L149.5415,34 L142.4955,34 L142.4955,24.718 Z" id="MoMAEARLYMODERNSTYLE"></path>
                        <path d="M17.302,56 L17.302,55.316 L18.769,55.316 L18.769,50.393 L17.599,50.393 L17.599,49.871 C18.184,49.763 18.607,49.61 18.967,49.403 L19.597,49.403 L19.597,55.316 L20.92,55.316 L20.92,56 L17.302,56 Z M23.854,52.886 C24.295,52.886 24.79,52.634 25.231,52.004 C25.141,50.645 24.637,49.925 23.791,49.925 C23.161,49.925 22.675,50.519 22.675,51.419 C22.675,52.31 23.071,52.886 23.854,52.886 Z M22.027,55.442 L22.477,54.929 C22.756,55.244 23.161,55.433 23.584,55.433 C24.439,55.433 25.177,54.731 25.24,52.679 C24.844,53.174 24.277,53.498 23.719,53.498 C22.621,53.498 21.901,52.787 21.901,51.419 C21.901,50.141 22.765,49.277 23.791,49.277 C25.06,49.277 26.005,50.321 26.005,52.418 C26.005,55.091 24.853,56.117 23.611,56.117 C22.9,56.117 22.396,55.829 22.027,55.442 Z M31.315,53.228 L33.007,53.228 L33.007,51.347 L31.315,51.347 L31.315,53.228 Z M33.673,54.254 L33.007,54.254 L33.007,53.858 L31.315,53.858 L31.315,54.299 L30.658,54.299 L30.658,51.347 L28.984,51.347 L28.984,55.379 L34.762,55.379 L34.762,56.027 L28.984,56.027 L28.984,56.684 L28.3,56.684 L28.3,51.347 L26.959,51.347 L26.959,50.708 L28.3,50.708 L28.3,48.71 L28.984,48.71 L28.984,50.708 L30.658,50.708 L30.658,48.521 L31.315,48.521 L31.315,50.708 L33.007,50.708 L33.007,48.629 L33.673,48.629 L33.673,50.708 L35.068,50.708 L35.068,51.347 L33.673,51.347 L33.673,54.254 Z M36.436,53.579 L37.039,53.687 C36.895,54.542 36.643,55.415 36.319,55.982 C36.211,55.901 35.923,55.766 35.77,55.712 C36.103,55.163 36.301,54.362 36.436,53.579 Z M38.542,53.723 L39.073,53.525 C39.379,54.074 39.685,54.794 39.802,55.262 L39.244,55.478 C39.127,55.001 38.83,54.272 38.542,53.723 Z M38.299,51.536 L38.803,51.302 C39.235,51.878 39.703,52.643 39.883,53.147 L39.343,53.426 C39.28,53.255 39.19,53.057 39.082,52.841 L38.173,52.904 L38.173,56.684 L37.543,56.684 L37.543,52.94 C36.931,52.976 36.364,53.003 35.896,53.021 L35.824,52.418 L36.445,52.4 C36.652,52.166 36.877,51.905 37.093,51.626 C36.805,51.248 36.31,50.789 35.878,50.447 L36.202,49.997 C36.283,50.06 36.364,50.123 36.454,50.195 C36.814,49.682 37.201,48.989 37.435,48.476 L38.047,48.737 C37.687,49.331 37.237,50.033 36.85,50.537 C37.084,50.744 37.3,50.96 37.453,51.149 C37.885,50.573 38.29,49.97 38.587,49.475 L39.172,49.763 C38.587,50.591 37.822,51.608 37.129,52.364 C37.651,52.346 38.209,52.319 38.785,52.292 C38.632,52.022 38.461,51.761 38.299,51.536 Z M41.296,56.018 L43.006,56.018 C43.456,56.018 43.528,55.793 43.573,54.623 C43.735,54.74 44.014,54.839 44.194,54.893 C44.113,56.261 43.906,56.639 43.042,56.639 L41.242,56.639 C40.324,56.639 40.045,56.432 40.045,55.595 L40.045,51.752 L42.997,51.752 L42.997,49.592 L39.793,49.592 L39.793,48.962 L43.663,48.962 L43.663,52.904 L42.997,52.904 L42.997,52.382 L40.711,52.382 L40.711,55.595 C40.711,55.946 40.801,56.018 41.296,56.018 Z M47.614,48.917 L48.451,49.007 C48.415,49.169 48.379,49.358 48.343,49.529 C48.298,49.79 48.217,50.312 48.118,50.789 C48.532,50.762 48.901,50.735 49.117,50.735 C49.909,50.735 50.566,51.041 50.566,52.247 C50.566,53.309 50.413,54.713 50.044,55.46 C49.765,56.054 49.324,56.207 48.739,56.207 C48.406,56.207 47.974,56.135 47.695,56.072 L47.578,55.316 C47.947,55.433 48.424,55.514 48.667,55.514 C49,55.514 49.261,55.442 49.45,55.055 C49.729,54.452 49.864,53.3 49.864,52.328 C49.864,51.518 49.495,51.374 48.928,51.374 C48.712,51.374 48.361,51.401 47.974,51.437 C47.65,52.715 47.047,54.713 46.102,56.225 L45.364,55.928 C46.273,54.713 46.939,52.697 47.236,51.509 C46.777,51.554 46.345,51.599 46.111,51.626 C45.904,51.653 45.544,51.698 45.31,51.734 L45.238,50.951 C45.517,50.969 45.751,50.96 46.03,50.951 C46.327,50.942 46.849,50.897 47.389,50.852 C47.515,50.213 47.614,49.52 47.614,48.917 Z M50.854,50.24 L51.52,49.952 C52.078,50.672 52.843,52.31 53.149,53.138 L52.447,53.471 C52.186,52.553 51.484,50.987 50.854,50.24 Z M56.344,49.655 L56.533,48.971 C57.298,49.214 59.188,49.583 59.98,49.655 L59.809,50.357 C58.963,50.24 57.028,49.844 56.344,49.655 Z M56.335,50.591 C56.218,51.203 56.065,52.499 55.984,53.075 C56.839,52.328 57.802,52.004 58.864,52.004 C60.232,52.004 61.141,52.823 61.141,53.867 C61.141,55.469 59.728,56.549 56.416,56.27 L56.2,55.532 C59.008,55.874 60.385,55.064 60.385,53.849 C60.385,53.138 59.728,52.643 58.819,52.643 C57.631,52.643 56.695,53.075 56.065,53.822 C55.939,53.975 55.858,54.128 55.795,54.272 L55.12,54.11 C55.3,53.3 55.516,51.428 55.57,50.492 L56.335,50.591 Z M62.896,56 L62.896,55.514 C64.966,53.705 65.92,52.391 65.92,51.257 C65.92,50.501 65.524,49.952 64.705,49.952 C64.165,49.952 63.697,50.285 63.337,50.717 L62.86,50.249 C63.4,49.664 63.967,49.277 64.804,49.277 C65.983,49.277 66.721,50.051 66.721,51.23 C66.721,52.544 65.686,53.885 64.138,55.352 C64.48,55.325 64.885,55.289 65.218,55.289 L67.045,55.289 L67.045,56 L62.896,56 Z M69.997,56.117 C68.737,56.117 67.936,54.974 67.936,52.679 C67.936,50.384 68.737,49.277 69.997,49.277 C71.248,49.277 72.049,50.393 72.049,52.679 C72.049,54.974 71.248,56.117 69.997,56.117 Z M69.997,55.46 C70.744,55.46 71.248,54.623 71.248,52.679 C71.248,50.753 70.744,49.943 69.997,49.943 C69.241,49.943 68.737,50.753 68.737,52.679 C68.737,54.623 69.241,55.46 69.997,55.46 Z M77.305,53.228 L78.997,53.228 L78.997,51.347 L77.305,51.347 L77.305,53.228 Z M79.663,54.254 L78.997,54.254 L78.997,53.858 L77.305,53.858 L77.305,54.299 L76.648,54.299 L76.648,51.347 L74.974,51.347 L74.974,55.379 L80.752,55.379 L80.752,56.027 L74.974,56.027 L74.974,56.684 L74.29,56.684 L74.29,51.347 L72.949,51.347 L72.949,50.708 L74.29,50.708 L74.29,48.71 L74.974,48.71 L74.974,50.708 L76.648,50.708 L76.648,48.521 L77.305,48.521 L77.305,50.708 L78.997,50.708 L78.997,48.629 L79.663,48.629 L79.663,50.708 L81.058,50.708 L81.058,51.347 L79.663,51.347 L79.663,54.254 Z M82.426,53.579 L83.029,53.687 C82.885,54.542 82.633,55.415 82.309,55.982 C82.201,55.901 81.913,55.766 81.76,55.712 C82.093,55.163 82.291,54.362 82.426,53.579 Z M84.532,53.723 L85.063,53.525 C85.369,54.074 85.675,54.794 85.792,55.262 L85.234,55.478 C85.117,55.001 84.82,54.272 84.532,53.723 Z M84.289,51.536 L84.793,51.302 C85.225,51.878 85.693,52.643 85.873,53.147 L85.333,53.426 C85.27,53.255 85.18,53.057 85.072,52.841 L84.163,52.904 L84.163,56.684 L83.533,56.684 L83.533,52.94 C82.921,52.976 82.354,53.003 81.886,53.021 L81.814,52.418 L82.435,52.4 C82.642,52.166 82.867,51.905 83.083,51.626 C82.795,51.248 82.3,50.789 81.868,50.447 L82.192,49.997 C82.273,50.06 82.354,50.123 82.444,50.195 C82.804,49.682 83.191,48.989 83.425,48.476 L84.037,48.737 C83.677,49.331 83.227,50.033 82.84,50.537 C83.074,50.744 83.29,50.96 83.443,51.149 C83.875,50.573 84.28,49.97 84.577,49.475 L85.162,49.763 C84.577,50.591 83.812,51.608 83.119,52.364 C83.641,52.346 84.199,52.319 84.775,52.292 C84.622,52.022 84.451,51.761 84.289,51.536 Z M87.286,56.018 L88.996,56.018 C89.446,56.018 89.518,55.793 89.563,54.623 C89.725,54.74 90.004,54.839 90.184,54.893 C90.103,56.261 89.896,56.639 89.032,56.639 L87.232,56.639 C86.314,56.639 86.035,56.432 86.035,55.595 L86.035,51.752 L88.987,51.752 L88.987,49.592 L85.783,49.592 L85.783,48.962 L89.653,48.962 L89.653,52.904 L88.987,52.904 L88.987,52.382 L86.701,52.382 L86.701,55.595 C86.701,55.946 86.791,56.018 87.286,56.018 Z M92.101,49.187 L92.911,49.25 C92.857,49.403 92.776,49.691 92.74,49.853 C92.569,50.672 92.308,52.265 92.308,53.264 C92.308,53.696 92.326,54.056 92.38,54.488 C92.533,54.083 92.731,53.561 92.875,53.21 L93.262,53.498 C93.037,54.128 92.713,55.073 92.632,55.496 C92.605,55.622 92.587,55.793 92.587,55.892 L92.614,56.207 L91.966,56.252 C91.786,55.622 91.642,54.596 91.642,53.39 C91.642,52.076 91.93,50.546 92.038,49.817 C92.065,49.61 92.101,49.376 92.101,49.187 Z M94.297,53.507 L94.945,53.57 C94.864,53.894 94.828,54.146 94.828,54.389 C94.828,54.794 95.098,55.19 96.322,55.19 C97.123,55.19 97.807,55.118 98.527,54.956 L98.536,55.712 C97.987,55.82 97.24,55.892 96.313,55.892 C94.819,55.892 94.153,55.397 94.153,54.56 C94.153,54.236 94.216,53.885 94.297,53.507 Z M94.603,50.672 L94.594,49.934 C95.566,50.096 97.366,50.06 98.257,49.934 L98.257,50.672 C97.303,50.771 95.575,50.771 94.603,50.672 Z M104.35,55.757 L107.995,55.757 L107.995,56.405 L100.021,56.405 L100.021,55.757 L103.666,55.757 L103.666,53.471 L100.993,53.471 L100.993,52.823 L103.666,52.823 L103.666,50.861 L101.551,50.861 C101.263,51.428 100.948,51.923 100.606,52.328 C100.48,52.22 100.183,52.022 100.003,51.932 C100.741,51.14 101.317,49.898 101.668,48.62 L102.343,48.764 C102.199,49.259 102.037,49.745 101.839,50.204 L103.666,50.204 L103.666,48.476 L104.35,48.476 L104.35,50.204 L107.572,50.204 L107.572,50.861 L104.35,50.861 L104.35,52.823 L107.239,52.823 L107.239,53.471 L104.35,53.471 L104.35,55.757 Z M112.999,54.956 C112.999,54.803 112.99,54.596 112.99,54.353 C112.711,54.299 112.423,54.272 112.126,54.272 C111.28,54.272 110.821,54.596 110.821,55.001 C110.821,55.415 111.172,55.721 112.054,55.721 C112.567,55.721 112.999,55.568 112.999,54.956 Z M116.248,55.262 L115.843,55.892 C115.321,55.415 114.583,54.875 113.692,54.551 C113.701,54.776 113.71,54.974 113.71,55.109 C113.71,55.721 113.296,56.36 112.135,56.36 C110.857,56.36 110.146,55.901 110.146,55.037 C110.146,54.227 110.929,53.678 112.216,53.678 C112.477,53.678 112.72,53.696 112.963,53.732 C112.945,53.336 112.927,52.913 112.918,52.544 L112.423,52.544 C111.811,52.544 110.821,52.49 110.182,52.418 L110.182,51.734 C110.785,51.842 111.838,51.905 112.423,51.905 L112.9,51.905 L112.9,50.627 L112.459,50.627 C111.838,50.627 110.893,50.555 110.362,50.492 L110.362,49.826 C110.902,49.925 111.856,49.997 112.45,49.997 L112.909,49.997 L112.909,49.412 C112.909,49.268 112.9,49.007 112.882,48.881 L113.647,48.881 C113.62,49.043 113.611,49.214 113.602,49.475 C113.593,49.583 113.593,49.754 113.593,49.97 C114.367,49.943 115.096,49.871 115.879,49.754 L115.888,50.411 C115.186,50.483 114.421,50.555 113.584,50.6 L113.584,51.878 C114.439,51.842 115.258,51.761 116.059,51.644 L116.068,52.319 C115.231,52.427 114.439,52.49 113.593,52.526 C113.611,52.985 113.638,53.453 113.656,53.876 C114.835,54.2 115.744,54.857 116.248,55.262 Z M126.094,54.506 L126.211,55.28 C125.743,55.757 125.185,56.027 124.573,56.027 C123.988,56.027 123.583,55.631 123.583,54.893 C123.583,53.903 123.916,52.436 123.916,51.572 C123.916,51.059 123.655,50.843 123.205,50.843 C122.485,50.843 121.405,51.68 120.586,52.562 C120.568,52.94 120.559,53.291 120.559,53.606 C120.559,54.416 120.559,54.956 120.595,55.757 C120.604,55.91 120.622,56.135 120.64,56.297 L119.857,56.297 C119.866,56.171 119.884,55.91 119.884,55.766 C119.893,54.911 119.893,54.47 119.911,53.48 C119.911,53.39 119.92,53.273 119.92,53.138 C119.488,53.795 118.903,54.65 118.471,55.244 L118.021,54.623 C118.516,54.002 119.542,52.616 119.992,51.914 C120.01,51.626 120.028,51.338 120.046,51.059 C119.641,51.104 118.867,51.212 118.309,51.284 L118.237,50.537 C118.435,50.546 118.606,50.546 118.822,50.528 C119.11,50.51 119.632,50.456 120.091,50.384 C120.118,49.961 120.136,49.646 120.136,49.547 C120.136,49.34 120.145,49.106 120.1,48.881 L120.955,48.908 C120.91,49.124 120.838,49.628 120.775,50.249 L120.82,50.231 L121.081,50.546 C120.973,50.708 120.82,50.951 120.685,51.167 C120.667,51.329 120.658,51.5 120.64,51.671 C121.333,51.032 122.476,50.177 123.367,50.177 C124.204,50.177 124.627,50.645 124.627,51.374 C124.627,52.265 124.294,53.804 124.294,54.704 C124.294,55.01 124.438,55.244 124.753,55.244 C125.203,55.244 125.68,54.956 126.094,54.506 Z M131.323,52.328 L131.323,51.653 C131.791,51.608 132.376,51.581 132.952,51.581 C133.465,51.581 134.014,51.599 134.491,51.653 L134.473,52.337 C134.023,52.283 133.492,52.229 132.97,52.229 C132.412,52.229 131.872,52.265 131.323,52.328 Z M131.899,49.988 L131.899,50.699 C131.314,50.834 130.675,50.933 130.054,51.005 C129.973,51.392 129.874,51.806 129.775,52.184 C129.451,53.462 128.848,55.298 128.38,56.27 L127.588,56.009 C128.119,55.091 128.749,53.282 129.082,52.022 C129.163,51.725 129.235,51.401 129.307,51.077 C129.019,51.095 128.749,51.104 128.497,51.104 C128.101,51.104 127.777,51.086 127.462,51.068 L127.435,50.366 C127.858,50.42 128.182,50.429 128.506,50.429 C128.803,50.429 129.118,50.411 129.46,50.393 C129.523,50.069 129.568,49.79 129.595,49.61 C129.622,49.358 129.64,49.061 129.622,48.872 L130.495,48.944 C130.432,49.142 130.369,49.475 130.333,49.655 L130.198,50.312 C130.774,50.24 131.359,50.132 131.899,49.988 Z M130.873,53.759 L131.548,53.822 C131.467,54.119 131.422,54.398 131.422,54.623 C131.422,55.046 131.62,55.451 132.889,55.451 C133.465,55.451 134.086,55.379 134.626,55.28 L134.599,56.009 C134.122,56.072 133.528,56.126 132.88,56.126 C131.476,56.126 130.738,55.694 130.738,54.812 C130.738,54.47 130.792,54.137 130.873,53.759 Z M20.722,65.778 L21.253,66.192 C20.686,66.651 19.948,67.137 19.345,67.488 C19.948,68.226 20.758,68.766 21.766,69.072 C21.613,69.198 21.424,69.477 21.334,69.657 C19.417,69.009 18.265,67.56 17.635,65.526 C17.266,65.895 16.807,66.255 16.303,66.579 L16.303,68.613 C17.014,68.442 17.779,68.253 18.526,68.064 L18.598,68.658 C17.185,69.036 15.655,69.414 14.584,69.684 L14.368,69.072 C14.728,68.991 15.16,68.892 15.628,68.775 L15.628,66.984 C15.025,67.308 14.395,67.587 13.819,67.776 C13.711,67.605 13.522,67.371 13.387,67.227 C14.557,66.894 15.916,66.228 16.798,65.481 L13.684,65.481 L13.684,64.896 L17.239,64.896 L17.239,64.086 L14.422,64.086 L14.422,63.528 L17.239,63.528 L17.239,62.799 L14.017,62.799 L14.017,62.214 L17.239,62.214 L17.239,61.467 L17.905,61.467 L17.905,62.214 L21.181,62.214 L21.181,62.799 L17.905,62.799 L17.905,63.528 L20.839,63.528 L20.839,64.086 L17.905,64.086 L17.905,64.896 L21.487,64.896 L21.487,65.481 L18.265,65.481 C18.454,66.057 18.697,66.588 19.021,67.056 C19.597,66.687 20.29,66.183 20.722,65.778 Z M25.69,66.741 L25.771,67.335 C24.646,67.668 23.449,68.019 22.576,68.28 L22.396,67.641 C22.792,67.542 23.278,67.416 23.809,67.263 L23.809,65.085 L22.675,65.085 L22.675,64.464 L23.809,64.464 L23.809,62.547 L22.567,62.547 L22.567,61.935 L25.636,61.935 L25.636,62.547 L24.448,62.547 L24.448,64.464 L25.555,64.464 L25.555,65.085 L24.448,65.085 L24.448,67.092 L25.69,66.741 Z M26.68,65.301 L26.68,66.219 L29.596,66.219 L29.596,65.301 L26.68,65.301 Z M26.68,63.861 L26.68,64.761 L29.596,64.761 L29.596,63.861 L26.68,63.861 Z M26.68,62.43 L26.68,63.33 L29.596,63.33 L29.596,62.43 L26.68,62.43 Z M29.29,69.045 L29.992,69.045 C30.199,69.045 30.235,68.91 30.262,67.983 C30.388,68.1 30.658,68.199 30.82,68.244 C30.775,69.342 30.604,69.621 30.064,69.621 L29.191,69.621 C28.552,69.621 28.39,69.432 28.39,68.784 L28.39,66.786 L27.508,66.786 C27.328,68.217 26.842,69.198 25.096,69.738 C25.033,69.585 24.853,69.315 24.718,69.189 C26.302,68.757 26.707,67.947 26.851,66.786 L26.05,66.786 L26.05,61.863 L30.253,61.863 L30.253,66.786 L29.029,66.786 L29.029,68.784 C29.029,69.009 29.065,69.045 29.29,69.045 Z M34.375,65.4 L34.456,66.012 C34.096,66.12 33.727,66.228 33.376,66.336 L33.376,68.883 C33.376,69.261 33.277,69.441 33.043,69.549 C32.818,69.657 32.44,69.675 31.828,69.666 C31.801,69.495 31.702,69.234 31.612,69.054 C32.044,69.063 32.431,69.063 32.539,69.054 C32.674,69.054 32.719,69.009 32.719,68.883 L32.719,66.534 L31.639,66.849 L31.45,66.192 C31.81,66.111 32.242,66.003 32.719,65.868 L32.719,63.906 L31.567,63.906 L31.567,63.276 L32.719,63.276 L32.719,61.476 L33.376,61.476 L33.376,63.276 L34.375,63.276 L34.375,63.906 L33.376,63.906 L33.376,65.688 C33.7,65.598 34.042,65.499 34.375,65.4 Z M38.38,65.463 L35.608,65.463 C35.914,66.246 36.364,66.957 36.931,67.533 C37.552,66.975 38.056,66.282 38.38,65.463 Z M38.803,64.815 L39.244,65.004 C38.866,66.237 38.227,67.218 37.417,67.965 C38.065,68.496 38.839,68.883 39.739,69.126 C39.595,69.261 39.406,69.522 39.307,69.702 C38.371,69.414 37.57,68.982 36.904,68.397 C36.139,68.982 35.266,69.396 34.348,69.684 C34.276,69.504 34.114,69.225 33.988,69.081 C34.861,68.847 35.698,68.469 36.427,67.938 C35.797,67.263 35.302,66.435 34.951,65.472 L34.978,65.463 L34.681,65.463 L34.681,64.842 L36.607,64.842 L36.607,63.501 L34.501,63.501 L34.501,62.88 L36.607,62.88 L36.607,61.467 L37.264,61.467 L37.264,62.88 L39.415,62.88 L39.415,63.501 L37.264,63.501 L37.264,64.842 L38.695,64.842 L38.803,64.815 Z M43.069,62.457 L42.691,63.006 C42.322,62.691 41.566,62.268 40.945,62.025 L41.305,61.53 C41.926,61.755 42.691,62.133 43.069,62.457 Z M42.601,64.806 L42.241,65.373 C41.863,65.085 41.089,64.707 40.468,64.491 L40.819,63.978 C41.422,64.176 42.205,64.518 42.601,64.806 Z M42.394,66.255 L42.898,66.687 C42.448,67.632 41.854,68.739 41.35,69.576 L40.783,69.144 C41.242,68.442 41.908,67.281 42.394,66.255 Z M48.766,69.351 L48.145,69.702 C48.055,69.477 47.929,69.216 47.767,68.937 C46.03,69.072 44.221,69.189 42.979,69.27 L42.88,68.604 L43.627,68.568 C44.005,67.803 44.437,66.714 44.707,65.859 L42.871,65.859 L42.871,65.22 L45.373,65.22 L45.373,63.573 L43.321,63.573 L43.321,62.943 L45.373,62.943 L45.373,61.476 L46.057,61.476 L46.057,62.943 L48.19,62.943 L48.19,63.573 L46.057,63.573 L46.057,65.22 L48.613,65.22 L48.613,65.859 L45.499,65.859 C45.166,66.714 44.743,67.74 44.347,68.523 C45.274,68.478 46.345,68.415 47.407,68.343 C47.119,67.902 46.795,67.452 46.48,67.065 L47.047,66.768 C47.722,67.56 48.46,68.64 48.766,69.351 Z M55.678,64.329 C55.885,64.626 56.227,65.184 56.416,65.58 L55.957,65.796 C55.75,65.364 55.489,64.896 55.219,64.527 L55.678,64.329 Z M56.659,63.951 C56.875,64.248 57.226,64.797 57.442,65.193 L56.974,65.409 C56.758,64.977 56.497,64.536 56.209,64.158 L56.659,63.951 Z M49.837,63.078 C50.179,63.069 50.458,63.051 50.629,63.033 C51.214,62.979 52.897,62.817 54.535,62.673 C55.507,62.592 56.344,62.547 56.938,62.52 L56.938,63.24 C56.425,63.24 55.651,63.249 55.192,63.384 C53.923,63.789 53.158,65.148 53.158,66.201 C53.158,67.938 54.778,68.487 56.227,68.541 L55.966,69.297 C54.319,69.225 52.438,68.343 52.438,66.354 C52.438,64.968 53.275,63.834 54.094,63.348 C53.311,63.438 50.881,63.672 49.918,63.87 L49.837,63.078 Z M65.245,61.971 L65.839,62.511 C65.218,63.141 64.354,63.879 63.427,64.464 L63.427,68.316 C63.427,68.658 63.445,69.099 63.481,69.279 L62.599,69.279 C62.626,69.108 62.653,68.658 62.653,68.316 L62.653,64.914 C61.69,65.445 60.448,65.967 59.269,66.318 L58.855,65.616 C60.358,65.265 61.888,64.581 62.878,63.96 C63.796,63.393 64.741,62.61 65.245,61.971 Z M73.543,62.16 L74.389,62.448 C74.299,62.619 74.164,62.916 74.092,63.105 C73.804,63.897 73.345,64.887 72.742,65.76 C73.543,66.426 74.317,67.128 74.956,67.812 L74.389,68.442 C73.723,67.677 73.039,67.038 72.265,66.372 C71.428,67.398 70.312,68.469 68.746,69.279 L68.107,68.712 C69.682,67.965 70.798,66.975 71.68,65.886 C71.014,65.337 70.015,64.599 69.151,64.068 L69.628,63.501 C70.393,63.987 71.437,64.725 72.148,65.274 C72.724,64.437 73.093,63.591 73.363,62.826 C73.426,62.646 73.507,62.358 73.543,62.16 Z M77.008,65.985 L77.008,65.103 C77.278,65.121 77.755,65.148 78.259,65.148 L83.191,65.148 C83.641,65.148 83.965,65.121 84.163,65.103 L84.163,65.985 C83.983,65.976 83.605,65.94 83.2,65.94 L78.259,65.94 C77.764,65.94 77.287,65.958 77.008,65.985 Z M91.354,62.286 C91.579,62.61 91.984,63.258 92.191,63.681 L91.678,63.915 C91.453,63.438 91.156,62.907 90.859,62.502 L91.354,62.286 Z M92.533,61.854 C92.776,62.169 93.172,62.817 93.397,63.231 L92.884,63.465 C92.641,62.988 92.326,62.475 92.029,62.07 L92.533,61.854 Z M87.511,62.151 C88.042,62.448 89.077,63.141 89.464,63.42 L89.041,64.041 C88.609,63.708 87.628,63.06 87.106,62.754 L87.511,62.151 Z M86.161,68.586 C87.151,68.415 88.267,68.055 89.176,67.542 C90.67,66.687 91.858,65.508 92.587,64.239 L93.019,64.986 C92.236,66.192 90.994,67.353 89.554,68.199 C88.654,68.73 87.412,69.144 86.575,69.315 L86.161,68.586 Z M86.152,64.176 C86.683,64.464 87.736,65.112 88.132,65.391 L87.718,66.021 C87.268,65.697 86.296,65.067 85.747,64.788 L86.152,64.176 Z M99.238,67.785 L98.545,67.785 C98.572,67.443 98.581,66.867 98.581,66.399 C97.753,66.849 97.177,67.308 97.177,67.893 C97.177,68.595 97.87,68.694 98.788,68.694 C99.481,68.694 100.435,68.613 101.218,68.478 L101.2,69.207 C100.525,69.288 99.535,69.351 98.761,69.351 C97.483,69.351 96.457,69.081 96.457,67.992 C96.457,66.939 97.519,66.273 98.554,65.733 C98.464,65.364 98.14,65.184 97.753,65.184 C97.168,65.184 96.628,65.472 96.214,65.841 C95.962,66.084 95.71,66.417 95.404,66.777 L94.792,66.318 C95.926,65.22 96.511,64.302 96.844,63.6 L96.475,63.6 C96.097,63.6 95.494,63.582 95.008,63.546 L95.008,62.871 C95.485,62.925 96.106,62.961 96.511,62.961 C96.7,62.961 96.889,62.961 97.096,62.952 C97.222,62.556 97.303,62.151 97.321,61.845 L98.059,61.908 C97.996,62.16 97.915,62.529 97.789,62.934 C98.698,62.889 99.67,62.808 100.516,62.664 L100.507,63.33 C99.625,63.465 98.527,63.546 97.555,63.582 C97.357,64.041 97.078,64.536 96.754,64.95 C97.078,64.743 97.591,64.617 97.987,64.617 C98.563,64.617 99.031,64.896 99.166,65.427 C99.778,65.139 100.318,64.923 100.786,64.707 C101.056,64.59 101.272,64.482 101.524,64.356 L101.812,65.031 C101.587,65.094 101.263,65.22 101.029,65.31 C100.525,65.508 99.886,65.769 99.211,66.084 C99.22,66.597 99.229,67.353 99.238,67.785 Z M105.925,65.391 L106.006,66.003 L105.025,66.327 L105.025,68.856 C105.025,69.225 104.944,69.396 104.719,69.504 C104.512,69.612 104.17,69.639 103.594,69.63 C103.576,69.468 103.495,69.198 103.405,69.009 C103.792,69.018 104.143,69.018 104.242,69.018 C104.359,69.018 104.404,68.982 104.404,68.847 L104.404,66.534 C104.035,66.651 103.684,66.768 103.369,66.867 L103.198,66.219 C103.531,66.138 103.945,66.012 104.404,65.868 L104.404,63.897 L103.315,63.897 L103.315,63.276 L104.404,63.276 L104.404,61.476 L105.025,61.476 L105.025,63.276 L105.979,63.276 L105.979,63.897 L105.025,63.897 L105.025,65.679 L105.925,65.391 Z M108.499,65.535 L107.149,65.535 L107.149,66.768 L108.499,66.768 L108.499,65.535 Z M110.479,66.768 L110.479,65.535 L109.102,65.535 L109.102,66.768 L110.479,66.768 Z M109.102,68.622 L110.479,68.622 L110.479,67.353 L109.102,67.353 L109.102,68.622 Z M107.149,67.353 L107.149,68.622 L108.499,68.622 L108.499,67.353 L107.149,67.353 Z M106.537,69.684 L106.537,64.932 L111.127,64.932 L111.127,69.639 L110.479,69.639 L110.479,69.216 L107.149,69.216 L107.149,69.684 L106.537,69.684 Z M110.272,62.754 L111.442,62.754 L111.442,63.366 L110.272,63.366 L110.272,64.536 L109.624,64.536 L109.624,63.366 L108.031,63.366 L108.031,64.536 L107.383,64.536 L107.383,63.366 L106.141,63.366 L106.141,62.754 L107.383,62.754 L107.383,61.476 L108.031,61.476 L108.031,62.754 L109.624,62.754 L109.624,61.476 L110.272,61.476 L110.272,62.754 Z M113.809,66.588 L114.502,66.651 C114.394,66.93 114.295,67.326 114.295,67.56 C114.295,68.244 114.835,68.676 116.104,68.676 C116.824,68.676 117.67,68.613 118.3,68.469 L118.282,69.198 C117.724,69.297 116.86,69.369 116.131,69.369 C114.538,69.369 113.602,68.82 113.602,67.704 C113.602,67.326 113.71,66.912 113.809,66.588 Z M119.488,64.149 L119.623,64.797 C119.227,64.932 118.714,65.058 118.111,65.175 C118.372,65.742 118.66,66.345 118.912,66.813 L118.561,67.254 C118.111,67.173 117.391,67.074 116.824,67.002 L116.887,66.453 C117.319,66.507 117.742,66.552 118.021,66.579 C117.85,66.228 117.643,65.76 117.436,65.292 C116.284,65.445 114.826,65.463 113.449,65.373 L113.422,64.716 C114.781,64.842 116.104,64.833 117.166,64.698 L116.851,63.969 C116.779,63.816 116.716,63.654 116.653,63.51 C115.753,63.591 114.628,63.591 113.521,63.492 L113.476,62.835 C114.538,62.952 115.537,62.97 116.392,62.907 C116.347,62.808 116.311,62.718 116.275,62.637 C116.14,62.358 116.059,62.196 115.942,62.007 L116.752,61.836 C116.833,62.142 116.95,62.484 117.085,62.826 C117.706,62.727 118.336,62.592 118.858,62.403 L118.984,63.042 C118.525,63.186 117.94,63.321 117.328,63.42 L117.49,63.789 C117.562,63.978 117.688,64.257 117.841,64.59 C118.543,64.464 119.083,64.302 119.488,64.149 Z M125.419,67.956 C125.419,67.803 125.41,67.596 125.41,67.353 C125.131,67.299 124.843,67.272 124.546,67.272 C123.7,67.272 123.241,67.596 123.241,68.001 C123.241,68.415 123.592,68.721 124.474,68.721 C124.987,68.721 125.419,68.568 125.419,67.956 Z M128.668,68.262 L128.263,68.892 C127.741,68.415 127.003,67.875 126.112,67.551 C126.121,67.776 126.13,67.974 126.13,68.109 C126.13,68.721 125.716,69.36 124.555,69.36 C123.277,69.36 122.566,68.901 122.566,68.037 C122.566,67.227 123.349,66.678 124.636,66.678 C124.897,66.678 125.14,66.696 125.383,66.732 C125.365,66.336 125.347,65.913 125.338,65.544 L124.843,65.544 C124.231,65.544 123.241,65.49 122.602,65.418 L122.602,64.734 C123.205,64.842 124.258,64.905 124.843,64.905 L125.32,64.905 L125.32,63.627 L124.879,63.627 C124.258,63.627 123.313,63.555 122.782,63.492 L122.782,62.826 C123.322,62.925 124.276,62.997 124.87,62.997 L125.329,62.997 L125.329,62.412 C125.329,62.268 125.32,62.007 125.302,61.881 L126.067,61.881 C126.04,62.043 126.031,62.214 126.022,62.475 C126.013,62.583 126.013,62.754 126.013,62.97 C126.787,62.943 127.516,62.871 128.299,62.754 L128.308,63.411 C127.606,63.483 126.841,63.555 126.004,63.6 L126.004,64.878 C126.859,64.842 127.678,64.761 128.479,64.644 L128.488,65.319 C127.651,65.427 126.859,65.49 126.013,65.526 C126.031,65.985 126.058,66.453 126.076,66.876 C127.255,67.2 128.164,67.857 128.668,68.262 Z M134.23,66.894 C134.752,66.894 135.094,66.471 135.013,65.625 C134.869,65.238 134.572,65.076 134.221,65.076 C133.762,65.076 133.321,65.436 133.321,66.012 C133.321,66.57 133.735,66.894 134.23,66.894 Z M135.607,63.672 L135.49,63.672 C135.49,64.176 135.499,64.725 135.508,65.13 C135.697,65.436 135.796,65.832 135.796,66.273 C135.796,67.479 135.211,68.82 133.141,69.441 L132.52,68.838 C133.69,68.568 134.518,68.082 134.887,67.29 C134.671,67.443 134.419,67.515 134.122,67.515 C133.366,67.515 132.646,66.984 132.646,66.021 C132.646,65.139 133.375,64.464 134.221,64.464 C134.437,64.464 134.635,64.5 134.815,64.563 C134.815,64.302 134.815,63.987 134.806,63.681 C133.456,63.69 131.944,63.753 130.828,63.834 L130.81,63.132 C131.8,63.114 133.474,63.06 134.797,63.042 C134.797,62.79 134.788,62.583 134.779,62.457 C134.77,62.268 134.743,62.007 134.725,61.899 L135.544,61.899 L135.499,62.457 C135.499,62.592 135.49,62.799 135.49,63.033 L135.625,63.033 C136.705,63.033 137.803,63.042 138.235,63.042 L138.226,63.717 C137.722,63.69 136.912,63.672 135.607,63.672 Z" id="19世紀から20世紀に生まれた表現技法でイメージを描きます"></path>
                    </g>
                </g>
            </g>
        </g>
    </g>
</svg>