<?xml version="1.0" encoding="UTF-8"?>
<svg width="170px" height="100px" viewBox="0 0 170 100" version="1.1" xmlns="http://www.w3.org/2000/svg" xmlns:xlink="http://www.w3.org/1999/xlink">
    <!-- Generator: Sketch 54.1 (76490) - https://sketchapp.com -->
    <title>Text_Text_Normal</title>
    <desc>Created with Sketch.</desc>
    <g id="页面1" stroke="none" stroke-width="1" fill="none" fill-rule="evenodd">
        <g id="C-01&gt;Make-Graphic&gt;EN" transform="translate(-193.000000, -234.000000)">
            <g id="Content" transform="translate(12.000000, 64.000000)">
                <g id="02_TEXT" transform="translate(181.000000, 0.000000)">
                    <g id="Text_Text_Normal" transform="translate(0.000000, 170.000000)">
                        <rect id="bg" fill="#FFFFFF" x="0" y="0" width="170" height="100"></rect>
                        <path d="M44.65,56.66 L42.27,56.66 L42.27,55.86 L47.98,55.86 L47.98,56.66 L45.6,56.66 L45.6,63 L44.65,63 L44.65,56.66 Z M49.55,63.69 C49.4499995,63.9433346 49.3516671,64.1566658 49.255,64.33 C49.1583328,64.5033342 49.0516672,64.6449995 48.935,64.755 C48.8183327,64.8650006 48.688334,64.9449998 48.545,64.995 C48.4016659,65.0450003 48.2366676,65.07 48.05,65.07 C47.9499995,65.07 47.8500005,65.0633334 47.75,65.05 C47.6499995,65.0366666 47.5533338,65.0133335 47.46,64.98 L47.46,64.2 C47.5333337,64.2333335 47.6183328,64.2616666 47.715,64.285 C47.8116671,64.3083335 47.893333,64.32 47.96,64.32 C48.1333342,64.32 48.2783327,64.2783338 48.395,64.195 C48.5116672,64.1116663 48.5999997,63.9933341 48.66,63.84 L49.01,62.97 L46.96,57.83 L47.92,57.83 L49.43,62.06 L49.45,62.06 L50.9,57.83 L51.8,57.83 L49.55,63.69 Z M52.55,57.83 L53.4,57.83 L53.4,58.53 L53.42,58.53 C53.5600007,58.2433319 53.7799985,58.0350007 54.08,57.905 C54.3800015,57.7749994 54.7099982,57.71 55.07,57.71 C55.470002,57.71 55.8183318,57.7833326 56.115,57.93 C56.4116681,58.0766674 56.6583323,58.2749988 56.855,58.525 C57.0516676,58.7750013 57.1999995,59.0633317 57.3,59.39 C57.4000005,59.7166683 57.45,60.0633315 57.45,60.43 C57.45,60.7966685 57.4016671,61.1433317 57.305,61.47 C57.2083328,61.7966683 57.0616676,62.0816655 56.865,62.325 C56.6683323,62.5683346 56.4216681,62.7599993 56.125,62.9 C55.8283318,63.0400007 55.4833353,63.11 55.09,63.11 C54.9633327,63.11 54.8216674,63.0966668 54.665,63.07 C54.5083325,63.0433332 54.3533341,63.0000003 54.2,62.94 C54.0466659,62.8799997 53.9016673,62.7983339 53.765,62.695 C53.6283326,62.5916662 53.5133338,62.4633341 53.42,62.31 L53.4,62.31 L53.4,64.97 L52.55,64.97 L52.55,57.83 Z M56.55,60.37 C56.55,60.1299988 56.5183336,59.8950012 56.455,59.665 C56.3916663,59.4349989 56.2950006,59.2300009 56.165,59.05 C56.0349993,58.8699991 55.8683343,58.7266672 55.665,58.62 C55.4616656,58.5133328 55.2233347,58.46 54.95,58.46 C54.6633319,58.46 54.420001,58.5166661 54.22,58.63 C54.019999,58.7433339 53.8566673,58.8916658 53.73,59.075 C53.6033327,59.2583343 53.5116669,59.4666655 53.455,59.7 C53.398333,59.9333345 53.37,60.1699988 53.37,60.41 C53.37,60.6633346 53.3999997,60.9083322 53.46,61.145 C53.5200003,61.3816679 53.6149993,61.5899991 53.745,61.77 C53.8750006,61.9500009 54.0433323,62.0949995 54.25,62.205 C54.4566677,62.3150006 54.7066652,62.37 55,62.37 C55.2933348,62.37 55.5383323,62.3133339 55.735,62.2 C55.9316676,62.0866661 56.0899994,61.9366676 56.21,61.75 C56.3300006,61.5633324 56.4166664,61.3500012 56.47,61.11 C56.5233336,60.8699988 56.55,60.6233346 56.55,60.37 Z M62.04,59.92 C62.0266666,59.719999 61.981667,59.5300009 61.905,59.35 C61.8283329,59.1699991 61.7250006,59.0150007 61.595,58.885 C61.4649993,58.7549994 61.3116675,58.6516671 61.135,58.575 C60.9583324,58.498333 60.7633344,58.46 60.55,58.46 C60.3299989,58.46 60.1316675,58.498333 59.955,58.575 C59.7783324,58.6516671 59.6266673,58.756666 59.5,58.89 C59.3733327,59.023334 59.2733337,59.1783325 59.2,59.355 C59.1266663,59.5316676 59.0833334,59.719999 59.07,59.92 L62.04,59.92 Z M62.86,61.36 C62.7466661,61.9400029 62.4966686,62.3766652 62.11,62.67 C61.7233314,62.9633348 61.2366696,63.11 60.65,63.11 C60.2366646,63.11 59.8783348,63.043334 59.575,62.91 C59.2716651,62.776666 59.0166677,62.5900012 58.81,62.35 C58.6033323,62.1099988 58.4483338,61.823335 58.345,61.49 C58.2416661,61.156665 58.1833334,60.7933353 58.17,60.4 C58.17,60.0066647 58.2299994,59.6466683 58.35,59.32 C58.4700006,58.9933317 58.6383322,58.7100012 58.855,58.47 C59.0716677,58.2299988 59.3283318,58.043334 59.625,57.91 C59.9216681,57.776666 60.2466649,57.71 60.6,57.71 C61.0600023,57.71 61.4416651,57.8049991 61.745,57.995 C62.0483348,58.185001 62.2916657,58.4266652 62.475,58.72 C62.6583342,59.0133348 62.7849996,59.3333316 62.855,59.68 C62.9250003,60.0266684 62.9533334,60.3566651 62.94,60.67 L59.07,60.67 C59.0633333,60.8966678 59.0899997,61.1116657 59.15,61.315 C59.2100003,61.5183344 59.306666,61.6983326 59.44,61.855 C59.573334,62.0116675 59.7433323,62.1366662 59.95,62.23 C60.1566677,62.3233338 60.3999986,62.37 60.68,62.37 C61.0400018,62.37 61.3349988,62.2866675 61.565,62.12 C61.7950011,61.9533325 61.9466663,61.7000017 62.02,61.36 L62.86,61.36 Z M68.63,63.69 C68.5299995,63.9433346 68.4316671,64.1566658 68.335,64.33 C68.2383328,64.5033342 68.1316672,64.6449995 68.015,64.755 C67.8983327,64.8650006 67.768334,64.9449998 67.625,64.995 C67.4816659,65.0450003 67.3166676,65.07 67.13,65.07 C67.0299995,65.07 66.9300005,65.0633334 66.83,65.05 C66.7299995,65.0366666 66.6333338,65.0133335 66.54,64.98 L66.54,64.2 C66.6133337,64.2333335 66.6983328,64.2616666 66.795,64.285 C66.8916671,64.3083335 66.973333,64.32 67.04,64.32 C67.2133342,64.32 67.3583327,64.2783338 67.475,64.195 C67.5916672,64.1116663 67.6799997,63.9933341 67.74,63.84 L68.09,62.97 L66.04,57.83 L67,57.83 L68.51,62.06 L68.53,62.06 L69.98,57.83 L70.88,57.83 L68.63,63.69 Z M72.22,60.42 C72.22,60.7333349 72.2616662,61.0116655 72.345,61.255 C72.4283337,61.4983346 72.5433326,61.7016659 72.69,61.865 C72.8366674,62.0283342 73.0083323,62.1533329 73.205,62.24 C73.4016676,62.3266671 73.6099989,62.37 73.83,62.37 C74.0500011,62.37 74.2583323,62.3266671 74.455,62.24 C74.6516676,62.1533329 74.8233326,62.0283342 74.97,61.865 C75.1166674,61.7016659 75.2316662,61.4983346 75.315,61.255 C75.3983337,61.0116655 75.44,60.7333349 75.44,60.42 C75.44,60.1066651 75.3983337,59.8283346 75.315,59.585 C75.2316662,59.3416655 75.1166674,59.1366675 74.97,58.97 C74.8233326,58.8033325 74.6516676,58.6766671 74.455,58.59 C74.2583323,58.5033329 74.0500011,58.46 73.83,58.46 C73.6099989,58.46 73.4016676,58.5033329 73.205,58.59 C73.0083323,58.6766671 72.8366674,58.8033325 72.69,58.97 C72.5433326,59.1366675 72.4283337,59.3416655 72.345,59.585 C72.2616662,59.8283346 72.22,60.1066651 72.22,60.42 Z M71.32,60.42 C71.32,60.0399981 71.3733328,59.6850017 71.48,59.355 C71.5866672,59.0249984 71.7466656,58.7383346 71.96,58.495 C72.1733344,58.2516655 72.4366651,58.0600007 72.75,57.92 C73.0633349,57.7799993 73.4233313,57.71 73.83,57.71 C74.2433354,57.71 74.6049984,57.7799993 74.915,57.92 C75.2250015,58.0600007 75.4866656,58.2516655 75.7,58.495 C75.9133344,58.7383346 76.0733328,59.0249984 76.18,59.355 C76.2866672,59.6850017 76.34,60.0399981 76.34,60.42 C76.34,60.8000019 76.2866672,61.1533317 76.18,61.48 C76.0733328,61.8066683 75.9133344,62.0916655 75.7,62.335 C75.4866656,62.5783346 75.2250015,62.7683327 74.915,62.905 C74.6049984,63.0416674 74.2433354,63.11 73.83,63.11 C73.4233313,63.11 73.0633349,63.0416674 72.75,62.905 C72.4366651,62.7683327 72.1733344,62.5783346 71.96,62.335 C71.7466656,62.0916655 71.5866672,61.8066683 71.48,61.48 C71.3733328,61.1533317 71.32,60.8000019 71.32,60.42 Z M81.62,63 L80.82,63 L80.82,62.18 L80.8,62.18 C80.6199991,62.5000016 80.3900014,62.7349993 80.11,62.885 C79.8299986,63.0350008 79.5000019,63.11 79.12,63.11 C78.7799983,63.11 78.4966678,63.0650005 78.27,62.975 C78.0433322,62.8849996 77.8600007,62.7566675 77.72,62.59 C77.5799993,62.4233325 77.4816669,62.2250012 77.425,61.995 C77.368333,61.7649989 77.34,61.5100014 77.34,61.23 L77.34,57.83 L78.19,57.83 L78.19,61.33 C78.19,61.6500016 78.2833324,61.9033324 78.47,62.09 C78.6566676,62.2766676 78.9133317,62.37 79.24,62.37 C79.5000013,62.37 79.724999,62.3300004 79.915,62.25 C80.1050009,62.1699996 80.2633327,62.0566674 80.39,61.91 C80.5166673,61.7633326 80.6116663,61.5916677 80.675,61.395 C80.7383336,61.1983324 80.77,60.9833345 80.77,60.75 L80.77,57.83 L81.62,57.83 L81.62,63 Z M82.87,57.83 L83.67,57.83 L83.67,58.92 L83.69,58.92 C83.8966677,58.4999979 84.1499985,58.190001 84.45,57.99 C84.7500015,57.789999 85.1299977,57.6966666 85.59,57.71 L85.59,58.61 C85.2499983,58.61 84.9600012,58.6566662 84.72,58.75 C84.4799988,58.8433338 84.2866674,58.9799991 84.14,59.16 C83.9933326,59.3400009 83.886667,59.5583321 83.82,59.815 C83.753333,60.071668 83.72,60.366665 83.72,60.7 L83.72,63 L82.87,63 L82.87,57.83 Z M89.01,57.83 L89.81,57.83 L89.81,58.59 L89.83,58.59 C90.2166686,58.0033304 90.7733297,57.71 91.5,57.71 C91.8200016,57.71 92.1099987,57.776666 92.37,57.91 C92.6300013,58.043334 92.8133328,58.2699984 92.92,58.59 C93.0933342,58.3099986 93.3216652,58.0933341 93.605,57.94 C93.8883347,57.7866659 94.1999983,57.71 94.54,57.71 C94.8000013,57.71 95.0349989,57.7383331 95.245,57.795 C95.455001,57.851667 95.6349992,57.9399994 95.785,58.06 C95.9350007,58.1800006 96.0516662,58.3349991 96.135,58.525 C96.2183337,58.715001 96.26,58.943332 96.26,59.21 L96.26,63 L95.41,63 L95.41,59.61 C95.41,59.4499992 95.3966668,59.3000007 95.37,59.16 C95.3433332,59.0199993 95.2933337,58.8983339 95.22,58.795 C95.1466663,58.6916662 95.0450006,58.6100003 94.915,58.55 C94.7849993,58.4899997 94.6166677,58.46 94.41,58.46 C93.9899979,58.46 93.6600012,58.5799988 93.42,58.82 C93.1799988,59.0600012 93.06,59.379998 93.06,59.78 L93.06,63 L92.21,63 L92.21,59.61 C92.21,59.4433325 92.1950001,59.2900007 92.165,59.15 C92.1349998,59.0099993 92.0833337,58.8883339 92.01,58.785 C91.9366663,58.6816662 91.8383339,58.601667 91.715,58.545 C91.591666,58.4883331 91.4333343,58.46 91.24,58.46 C90.9933321,58.46 90.7816675,58.5099995 90.605,58.61 C90.4283324,58.7100005 90.2850005,58.8299993 90.175,58.97 C90.0649994,59.1100007 89.9850002,59.2549993 89.935,59.405 C89.8849997,59.5550008 89.86,59.6799995 89.86,59.78 L89.86,63 L89.01,63 L89.01,57.83 Z M101.13,59.92 C101.116667,59.719999 101.071667,59.5300009 100.995,59.35 C100.918333,59.1699991 100.815001,59.0150007 100.685,58.885 C100.554999,58.7549994 100.401668,58.6516671 100.225,58.575 C100.048332,58.498333 99.8533344,58.46 99.64,58.46 C99.4199989,58.46 99.2216675,58.498333 99.045,58.575 C98.8683324,58.6516671 98.7166673,58.756666 98.59,58.89 C98.4633327,59.023334 98.3633337,59.1783325 98.29,59.355 C98.2166663,59.5316676 98.1733334,59.719999 98.16,59.92 L101.13,59.92 Z M101.95,61.36 C101.836666,61.9400029 101.586669,62.3766652 101.2,62.67 C100.813331,62.9633348 100.32667,63.11 99.74,63.11 C99.3266646,63.11 98.9683348,63.043334 98.665,62.91 C98.3616651,62.776666 98.1066677,62.5900012 97.9,62.35 C97.6933323,62.1099988 97.5383338,61.823335 97.435,61.49 C97.3316661,61.156665 97.2733334,60.7933353 97.26,60.4 C97.26,60.0066647 97.3199994,59.6466683 97.44,59.32 C97.5600006,58.9933317 97.7283322,58.7100012 97.945,58.47 C98.1616677,58.2299988 98.4183318,58.043334 98.715,57.91 C99.0116681,57.776666 99.3366649,57.71 99.69,57.71 C100.150002,57.71 100.531665,57.8049991 100.835,57.995 C101.138335,58.185001 101.381666,58.4266652 101.565,58.72 C101.748334,59.0133348 101.875,59.3333316 101.945,59.68 C102.015,60.0266684 102.043333,60.3566651 102.03,60.67 L98.16,60.67 C98.1533333,60.8966678 98.1799997,61.1116657 98.24,61.315 C98.3000003,61.5183344 98.396666,61.6983326 98.53,61.855 C98.663334,62.0116675 98.8333323,62.1366662 99.04,62.23 C99.2466677,62.3233338 99.4899986,62.37 99.77,62.37 C100.130002,62.37 100.424999,62.2866675 100.655,62.12 C100.885001,61.9533325 101.036666,61.7000017 101.11,61.36 L101.95,61.36 Z M103.43,61.37 C103.436667,61.5566676 103.48,61.7149994 103.56,61.845 C103.64,61.9750007 103.744999,62.078333 103.875,62.155 C104.005001,62.2316671 104.151666,62.2866665 104.315,62.32 C104.478334,62.3533335 104.646666,62.37 104.82,62.37 C104.953334,62.37 105.093333,62.3600001 105.24,62.34 C105.386667,62.3199999 105.521666,62.2833336 105.645,62.23 C105.768334,62.1766664 105.87,62.0983339 105.95,61.995 C106.03,61.8916662 106.07,61.7600008 106.07,61.6 C106.07,61.3799989 105.986667,61.2133339 105.82,61.1 C105.653332,60.9866661 105.445001,60.8950004 105.195,60.825 C104.944999,60.7549997 104.673335,60.691667 104.38,60.635 C104.086665,60.5783331 103.815001,60.4983339 103.565,60.395 C103.314999,60.2916662 103.106667,60.1466676 102.94,59.96 C102.773332,59.7733324 102.69,59.513335 102.69,59.18 C102.69,58.9199987 102.748333,58.6966676 102.865,58.51 C102.981667,58.3233324 103.131666,58.1716673 103.315,58.055 C103.498334,57.9383328 103.704999,57.851667 103.935,57.795 C104.165001,57.7383331 104.393332,57.71 104.62,57.71 C104.913335,57.71 105.183332,57.7349998 105.43,57.785 C105.676668,57.8350003 105.894999,57.9216661 106.085,58.045 C106.275001,58.168334 106.426666,58.334999 106.54,58.545 C106.653334,58.7550011 106.72,59.0166651 106.74,59.33 L105.89,59.33 C105.876667,59.1633325 105.833334,59.0250006 105.76,58.915 C105.686666,58.8049995 105.593334,58.716667 105.48,58.65 C105.366666,58.583333 105.241667,58.5350002 105.105,58.505 C104.968333,58.4749999 104.830001,58.46 104.69,58.46 C104.563333,58.46 104.435001,58.4699999 104.305,58.49 C104.174999,58.5100001 104.056667,58.5449998 103.95,58.595 C103.843333,58.6450003 103.756667,58.7116663 103.69,58.795 C103.623333,58.8783338 103.59,58.986666 103.59,59.12 C103.59,59.2666674 103.641666,59.3883329 103.745,59.485 C103.848334,59.5816672 103.979999,59.6616664 104.14,59.725 C104.300001,59.7883337 104.479999,59.8416665 104.68,59.885 C104.880001,59.9283336 105.079999,59.9733331 105.28,60.02 C105.493334,60.0666669 105.701666,60.123333 105.905,60.19 C106.108334,60.256667 106.288333,60.3449995 106.445,60.455 C106.601667,60.5650006 106.728333,60.7033325 106.825,60.87 C106.921667,61.0366675 106.97,61.2433321 106.97,61.49 C106.97,61.8033349 106.905001,62.0633323 106.775,62.27 C106.644999,62.4766677 106.475001,62.6433327 106.265,62.77 C106.054999,62.8966673 105.818335,62.9849998 105.555,63.035 C105.291665,63.0850003 105.030001,63.11 104.77,63.11 C104.483332,63.11 104.210001,63.0800003 103.95,63.02 C103.689999,62.9599997 103.460001,62.8616674 103.26,62.725 C103.059999,62.5883327 102.900001,62.4083345 102.78,62.185 C102.659999,61.9616656 102.593333,61.6900016 102.58,61.37 L103.43,61.37 Z M108.43,61.37 C108.436667,61.5566676 108.48,61.7149994 108.56,61.845 C108.64,61.9750007 108.744999,62.078333 108.875,62.155 C109.005001,62.2316671 109.151666,62.2866665 109.315,62.32 C109.478334,62.3533335 109.646666,62.37 109.82,62.37 C109.953334,62.37 110.093333,62.3600001 110.24,62.34 C110.386667,62.3199999 110.521666,62.2833336 110.645,62.23 C110.768334,62.1766664 110.87,62.0983339 110.95,61.995 C111.03,61.8916662 111.07,61.7600008 111.07,61.6 C111.07,61.3799989 110.986667,61.2133339 110.82,61.1 C110.653332,60.9866661 110.445001,60.8950004 110.195,60.825 C109.944999,60.7549997 109.673335,60.691667 109.38,60.635 C109.086665,60.5783331 108.815001,60.4983339 108.565,60.395 C108.314999,60.2916662 108.106667,60.1466676 107.94,59.96 C107.773332,59.7733324 107.69,59.513335 107.69,59.18 C107.69,58.9199987 107.748333,58.6966676 107.865,58.51 C107.981667,58.3233324 108.131666,58.1716673 108.315,58.055 C108.498334,57.9383328 108.704999,57.851667 108.935,57.795 C109.165001,57.7383331 109.393332,57.71 109.62,57.71 C109.913335,57.71 110.183332,57.7349998 110.43,57.785 C110.676668,57.8350003 110.894999,57.9216661 111.085,58.045 C111.275001,58.168334 111.426666,58.334999 111.54,58.545 C111.653334,58.7550011 111.72,59.0166651 111.74,59.33 L110.89,59.33 C110.876667,59.1633325 110.833334,59.0250006 110.76,58.915 C110.686666,58.8049995 110.593334,58.716667 110.48,58.65 C110.366666,58.583333 110.241667,58.5350002 110.105,58.505 C109.968333,58.4749999 109.830001,58.46 109.69,58.46 C109.563333,58.46 109.435001,58.4699999 109.305,58.49 C109.174999,58.5100001 109.056667,58.5449998 108.95,58.595 C108.843333,58.6450003 108.756667,58.7116663 108.69,58.795 C108.623333,58.8783338 108.59,58.986666 108.59,59.12 C108.59,59.2666674 108.641666,59.3883329 108.745,59.485 C108.848334,59.5816672 108.979999,59.6616664 109.14,59.725 C109.300001,59.7883337 109.479999,59.8416665 109.68,59.885 C109.880001,59.9283336 110.079999,59.9733331 110.28,60.02 C110.493334,60.0666669 110.701666,60.123333 110.905,60.19 C111.108334,60.256667 111.288333,60.3449995 111.445,60.455 C111.601667,60.5650006 111.728333,60.7033325 111.825,60.87 C111.921667,61.0366675 111.97,61.2433321 111.97,61.49 C111.97,61.8033349 111.905001,62.0633323 111.775,62.27 C111.644999,62.4766677 111.475001,62.6433327 111.265,62.77 C111.054999,62.8966673 110.818335,62.9849998 110.555,63.035 C110.291665,63.0850003 110.030001,63.11 109.77,63.11 C109.483332,63.11 109.210001,63.0800003 108.95,63.02 C108.689999,62.9599997 108.460001,62.8616674 108.26,62.725 C108.059999,62.5883327 107.900001,62.4083345 107.78,62.185 C107.659999,61.9616656 107.593333,61.6900016 107.58,61.37 L108.43,61.37 Z M117.49,62.98 C117.343333,63.0666671 117.140001,63.11 116.88,63.11 C116.659999,63.11 116.485001,63.048334 116.355,62.925 C116.224999,62.8016661 116.16,62.6000014 116.16,62.32 C115.926665,62.6000014 115.655002,62.8016661 115.345,62.925 C115.034998,63.048334 114.700002,63.11 114.34,63.11 C114.106665,63.11 113.885001,63.0833336 113.675,63.03 C113.464999,62.9766664 113.283334,62.8933339 113.13,62.78 C112.976666,62.6666661 112.855,62.5183343 112.765,62.335 C112.675,62.1516658 112.63,61.9300013 112.63,61.67 C112.63,61.3766652 112.679999,61.1366676 112.78,60.95 C112.88,60.7633324 113.011666,60.6116673 113.175,60.495 C113.338334,60.3783328 113.524999,60.2900003 113.735,60.23 C113.945001,60.1699997 114.159999,60.1200002 114.38,60.08 C114.613334,60.0333331 114.834999,59.9983335 115.045,59.975 C115.255001,59.9516666 115.439999,59.9183336 115.6,59.875 C115.760001,59.8316665 115.886666,59.7683338 115.98,59.685 C116.073334,59.6016663 116.12,59.4800008 116.12,59.32 C116.12,59.1333324 116.085,58.9833339 116.015,58.87 C115.945,58.7566661 115.855001,58.6700003 115.745,58.61 C115.634999,58.5499997 115.511667,58.5100001 115.375,58.49 C115.238333,58.4699999 115.103334,58.46 114.97,58.46 C114.609998,58.46 114.310001,58.5283327 114.07,58.665 C113.829999,58.8016674 113.7,59.0599981 113.68,59.44 L112.83,59.44 C112.843333,59.1199984 112.909999,58.8500011 113.03,58.63 C113.150001,58.4099989 113.309999,58.2316674 113.51,58.095 C113.710001,57.9583327 113.938332,57.8600003 114.195,57.8 C114.451668,57.7399997 114.726665,57.71 115.02,57.71 C115.253334,57.71 115.484999,57.7266665 115.715,57.76 C115.945001,57.7933335 116.153332,57.8616662 116.34,57.965 C116.526668,58.0683339 116.676666,58.2133324 116.79,58.4 C116.903334,58.5866676 116.96,58.8299985 116.96,59.13 L116.96,61.79 C116.96,61.990001 116.971667,62.1366662 116.995,62.23 C117.018333,62.3233338 117.096666,62.37 117.23,62.37 C117.303334,62.37 117.389999,62.3533335 117.49,62.32 L117.49,62.98 Z M116.11,60.33 C116.003333,60.4100004 115.863334,60.4683332 115.69,60.505 C115.516666,60.5416669 115.335001,60.5716666 115.145,60.595 C114.954999,60.6183335 114.763334,60.6449999 114.57,60.675 C114.376666,60.7050002 114.203334,60.753333 114.05,60.82 C113.896666,60.886667 113.771667,60.9816661 113.675,61.105 C113.578333,61.228334 113.53,61.3966656 113.53,61.61 C113.53,61.7500007 113.558333,61.8683329 113.615,61.965 C113.671667,62.0616672 113.745,62.1399997 113.835,62.2 C113.925,62.2600003 114.029999,62.3033332 114.15,62.33 C114.270001,62.3566668 114.396666,62.37 114.53,62.37 C114.810001,62.37 115.049999,62.3316671 115.25,62.255 C115.450001,62.178333 115.613333,62.0816673 115.74,61.965 C115.866667,61.8483328 115.96,61.7216674 116.02,61.585 C116.08,61.4483327 116.11,61.3200006 116.11,61.2 L116.11,60.33 Z M122.74,62.56 C122.74,63.4066709 122.546669,64.0399979 122.16,64.46 C121.773331,64.8800021 121.166671,65.09 120.34,65.09 C120.099999,65.09 119.855001,65.0633336 119.605,65.01 C119.354999,64.9566664 119.128334,64.8700006 118.925,64.75 C118.721666,64.6299994 118.553334,64.4733343 118.42,64.28 C118.286666,64.0866657 118.213333,63.8500014 118.2,63.57 L119.05,63.57 C119.056667,63.7233341 119.105,63.8533328 119.195,63.96 C119.285,64.0666672 119.394999,64.153333 119.525,64.22 C119.655001,64.286667 119.796666,64.3349999 119.95,64.365 C120.103334,64.3950002 120.249999,64.41 120.39,64.41 C120.670001,64.41 120.906666,64.3616672 121.1,64.265 C121.293334,64.1683329 121.453333,64.0350009 121.58,63.865 C121.706667,63.6949992 121.798333,63.4900012 121.855,63.25 C121.911667,63.0099988 121.94,62.7466681 121.94,62.46 L121.94,62.12 L121.92,62.12 C121.773333,62.4400016 121.551668,62.6749993 121.255,62.825 C120.958332,62.9750008 120.643335,63.05 120.31,63.05 C119.923331,63.05 119.586668,62.9800007 119.3,62.84 C119.013332,62.6999993 118.773334,62.5116679 118.58,62.275 C118.386666,62.0383322 118.241667,61.7616683 118.145,61.445 C118.048333,61.1283318 118,60.7933351 118,60.44 C118,60.1333318 118.04,59.818335 118.12,59.495 C118.2,59.1716651 118.333332,58.8783347 118.52,58.615 C118.706668,58.3516654 118.953332,58.1350009 119.26,57.965 C119.566668,57.7949992 119.943331,57.71 120.39,57.71 C120.716668,57.71 121.016665,57.781666 121.29,57.925 C121.563335,58.0683341 121.776666,58.2833319 121.93,58.57 L121.94,58.57 L121.94,57.83 L122.74,57.83 L122.74,62.56 Z M120.36,62.31 C120.640001,62.31 120.878332,62.2516673 121.075,62.135 C121.271668,62.0183328 121.429999,61.865001 121.55,61.675 C121.670001,61.4849991 121.758333,61.2700012 121.815,61.03 C121.871667,60.7899988 121.9,60.5500012 121.9,60.31 C121.9,60.0833322 121.873334,59.8600011 121.82,59.64 C121.766666,59.4199989 121.681667,59.2216676 121.565,59.045 C121.448333,58.8683325 121.296668,58.7266672 121.11,58.62 C120.923332,58.5133328 120.696668,58.46 120.43,58.46 C120.156665,58.46 119.923334,58.5116662 119.73,58.615 C119.536666,58.7183339 119.378334,58.8566658 119.255,59.03 C119.131666,59.2033342 119.041667,59.4033322 118.985,59.63 C118.928333,59.8566678 118.9,60.0933321 118.9,60.34 C118.9,60.5733345 118.923333,60.8066655 118.97,61.04 C119.016667,61.2733345 119.096666,61.4849991 119.21,61.675 C119.323334,61.865001 119.473332,62.0183328 119.66,62.135 C119.846668,62.2516673 120.079999,62.31 120.36,62.31 Z M127.61,59.92 C127.596667,59.719999 127.551667,59.5300009 127.475,59.35 C127.398333,59.1699991 127.295001,59.0150007 127.165,58.885 C127.034999,58.7549994 126.881668,58.6516671 126.705,58.575 C126.528332,58.498333 126.333334,58.46 126.12,58.46 C125.899999,58.46 125.701668,58.498333 125.525,58.575 C125.348332,58.6516671 125.196667,58.756666 125.07,58.89 C124.943333,59.023334 124.843334,59.1783325 124.77,59.355 C124.696666,59.5316676 124.653333,59.719999 124.64,59.92 L127.61,59.92 Z M128.43,61.36 C128.316666,61.9400029 128.066669,62.3766652 127.68,62.67 C127.293331,62.9633348 126.80667,63.11 126.22,63.11 C125.806665,63.11 125.448335,63.043334 125.145,62.91 C124.841665,62.776666 124.586668,62.5900012 124.38,62.35 C124.173332,62.1099988 124.018334,61.823335 123.915,61.49 C123.811666,61.156665 123.753333,60.7933353 123.74,60.4 C123.74,60.0066647 123.799999,59.6466683 123.92,59.32 C124.040001,58.9933317 124.208332,58.7100012 124.425,58.47 C124.641668,58.2299988 124.898332,58.043334 125.195,57.91 C125.491668,57.776666 125.816665,57.71 126.17,57.71 C126.630002,57.71 127.011665,57.8049991 127.315,57.995 C127.618335,58.185001 127.861666,58.4266652 128.045,58.72 C128.228334,59.0133348 128.355,59.3333316 128.425,59.68 C128.495,60.0266684 128.523333,60.3566651 128.51,60.67 L124.64,60.67 C124.633333,60.8966678 124.66,61.1116657 124.72,61.315 C124.78,61.5183344 124.876666,61.6983326 125.01,61.855 C125.143334,62.0116675 125.313332,62.1366662 125.52,62.23 C125.726668,62.3233338 125.969999,62.37 126.25,62.37 C126.610002,62.37 126.904999,62.2866675 127.135,62.12 C127.365001,61.9533325 127.516666,61.7000017 127.59,61.36 L128.43,61.36 Z" id="Typeyourmessage" fill="#1B1B1B" fill-rule="nonzero"></path>
                        <path d="M67.2945,31.106 L63.6565,31.106 L63.6565,28.862 L73.6015,28.862 L73.6015,31.106 L69.9635,31.106 L69.9635,41 L67.2945,41 L67.2945,31.106 Z M74.9955,28.862 L84.0735,28.862 L84.0735,31.106 L77.6645,31.106 L77.6645,33.707 L83.5465,33.707 L83.5465,35.781 L77.6645,35.781 L77.6645,38.756 L84.2095,38.756 L84.2095,41 L74.9955,41 L74.9955,28.862 Z M88.9865,34.642 L85.0765,28.862 L88.1705,28.862 L90.5505,32.738 L93.0155,28.862 L95.9395,28.862 L92.0465,34.659 L96.2795,41 L93.1005,41 L90.4485,36.801 L87.7455,41 L84.7535,41 L88.9865,34.642 Z M100.0365,31.106 L96.3985,31.106 L96.3985,28.862 L106.3435,28.862 L106.3435,31.106 L102.7055,31.106 L102.7055,41 L100.0365,41 L100.0365,31.106 Z" id="TEXT" fill="#1B1B1B" fill-rule="nonzero"></path>
                    </g>
                </g>
            </g>
        </g>
    </g>
</svg>