<?xml version="1.0" encoding="UTF-8"?>
<svg width="170px" height="55px" viewBox="0 0 170 55" version="1.1" xmlns="http://www.w3.org/2000/svg" xmlns:xlink="http://www.w3.org/1999/xlink">
    <!-- Generator: Sketch 55.2 (78181) - https://sketchapp.com -->
    <title>Text_Text_Normal</title>
    <desc>Created with Sketch.</desc>
    <g id="Make" stroke="none" stroke-width="1" fill="none" fill-rule="evenodd">
        <g id="C-01&gt;Make-Graphic&gt;Forbid&gt;EN备份" transform="translate(-193.000000, -258.000000)">
            <g id="Content" transform="translate(12.000000, 64.000000)">
                <g id="02_TEXT" transform="translate(181.000000, 0.000000)">
                    <g id="Text_Text_Normal" transform="translate(0.000000, 194.000000)">
                        <g>
                            <rect id="矩形" fill-opacity="0.01" fill="#FFFFFF" x="0" y="0" width="170" height="55"></rect>
                            <path d="M47.6899414,32.6474609 L45.3461914,32.6474609 L45.3461914,39 L44.3842773,39 L44.3842773,32.6474609 L42.0698242,32.6474609 L42.0698242,31.890625 L47.6899414,31.890625 L47.6899414,32.6474609 Z M49.8334961,37.0419922 L50.0043945,37.7060547 L50.0336914,37.7060547 L51.3325195,33.7167969 L52.4018555,33.7167969 L50.1801758,39.8105469 C50.0467116,40.1653664 49.85547,40.4746081 49.6064453,40.7382812 C49.3574206,41.0019544 49.0213237,41.1337891 48.5981445,41.1337891 C48.5200191,41.1337891 48.4207363,41.1248373 48.300293,41.1069336 C48.1798497,41.0890299 48.0870771,41.0719402 48.0219727,41.0556641 L48.1196289,40.2988281 C48.1000976,40.2955729 48.1578769,40.2988281 48.2929688,40.3085938 C48.4280606,40.3183594 48.5135089,40.3232422 48.5493164,40.3232422 C48.7543956,40.3232422 48.9220371,40.2320973 49.0522461,40.0498047 C49.1824551,39.8675121 49.2915035,39.6656912 49.3793945,39.4443359 L49.6088867,38.8925781 L47.6459961,33.7167969 L48.7202148,33.7167969 L49.8334961,37.0419922 Z M57.7485352,36.5585938 C57.7485352,37.3203163 57.5662453,37.9347307 57.2016602,38.4018555 C56.837075,38.8689802 56.3341503,39.1025391 55.6928711,39.1025391 C55.3673486,39.1025391 55.081707,39.0480149 54.8359375,38.9389648 C54.590168,38.8299148 54.381023,38.6663422 54.2084961,38.4482422 L54.2084961,41.03125 L53.246582,41.03125 L53.246582,33.7167969 L53.9838867,33.7167969 L54.1352539,34.4003906 C54.3077808,34.1464831 54.5226224,33.9528001 54.7797852,33.8193359 C55.0369479,33.6858717 55.3364241,33.6191406 55.6782227,33.6191406 C56.3325228,33.6191406 56.841144,33.8787409 57.2041016,34.3979492 C57.5670591,34.9171575 57.7485352,35.6031858 57.7485352,36.4560547 L57.7485352,36.5585938 Z M56.7866211,36.4560547 C56.7866211,35.8570934 56.668621,35.364748 56.4326172,34.9790039 C56.1966134,34.5932598 55.8491234,34.4003906 55.3901367,34.4003906 C55.1134426,34.4003906 54.8774424,34.4630528 54.6821289,34.5883789 C54.4868154,34.7137051 54.3289394,34.8854156 54.2084961,35.1035156 L54.2084961,37.6572266 C54.3289394,37.8753266 54.4868154,38.0454095 54.6821289,38.1674805 C54.8774424,38.2895514 55.1166978,38.3505859 55.3999023,38.3505859 C55.8556338,38.3505859 56.2006824,38.1837582 56.4350586,37.8500977 C56.6694348,37.5164371 56.7866211,37.0859401 56.7866211,36.5585938 L56.7866211,36.4560547 Z M61.1176758,39.1025391 C60.3592084,39.1025391 59.7675802,38.8600285 59.3427734,38.375 C58.9179666,37.8899715 58.7055664,37.2519571 58.7055664,36.4609375 L58.7055664,36.2460938 C58.7055664,35.4876264 58.924477,34.8601913 59.3623047,34.3637695 C59.8001324,33.8673478 60.334795,33.6191406 60.9663086,33.6191406 C61.6726923,33.6191406 62.2024722,33.838865 62.5556641,34.2783203 C62.9088559,34.7177756 63.0854492,35.3020797 63.0854492,36.03125 L63.0854492,36.5390625 L59.706543,36.5390625 L59.6918945,36.5634766 C59.6918945,37.0940782 59.8090809,37.5245752 60.043457,37.8549805 C60.2778332,38.1853858 60.6359025,38.3505859 61.1176758,38.3505859 C61.4431982,38.3505859 61.7288399,38.3041997 61.9746094,38.2114258 C62.2203788,38.1186519 62.4311515,37.9908862 62.6069336,37.828125 L62.9829102,38.453125 C62.7941071,38.6354176 62.5450862,38.7892246 62.2358398,38.9145508 C61.9265935,39.0398769 61.5538759,39.1025391 61.1176758,39.1025391 Z M60.9663086,34.3759766 C60.6310205,34.3759766 60.3535167,34.5053698 60.1337891,34.7641602 C59.9140614,35.0229505 59.7797854,35.3541646 59.730957,35.7578125 L59.7407227,35.7822266 L62.1235352,35.7822266 L62.1235352,35.7041016 C62.1235352,35.3199851 62.0291351,35.0026054 61.840332,34.7519531 C61.651529,34.5013008 61.3601908,34.3759766 60.9663086,34.3759766 Z M68.2661133,37.0419922 L68.4370117,37.7060547 L68.4663086,37.7060547 L69.7651367,33.7167969 L70.8344727,33.7167969 L68.612793,39.8105469 C68.4793288,40.1653664 68.2880872,40.4746081 68.0390625,40.7382812 C67.7900378,41.0019544 67.4539409,41.1337891 67.0307617,41.1337891 C66.9526363,41.1337891 66.8533535,41.1248373 66.7329102,41.1069336 C66.6124668,41.0890299 66.5196943,41.0719402 66.4545898,41.0556641 L66.5522461,40.2988281 C66.5327147,40.2955729 66.5904941,40.2988281 66.7255859,40.3085938 C66.8606778,40.3183594 66.9461261,40.3232422 66.9819336,40.3232422 C67.1870127,40.3232422 67.3546543,40.2320973 67.4848633,40.0498047 C67.6150723,39.8675121 67.7241207,39.6656912 67.8120117,39.4443359 L68.0415039,38.8925781 L66.0786133,33.7167969 L67.152832,33.7167969 L68.2661133,37.0419922 Z M71.3813477,36.3095703 C71.3813477,35.5283164 71.5929341,34.8846054 72.0161133,34.378418 C72.4392925,33.8722305 73.013831,33.6191406 73.7397461,33.6191406 C74.4721716,33.6191406 75.0507791,33.8714167 75.4755859,34.3759766 C75.9003927,34.8805364 76.112793,35.5250612 76.112793,36.3095703 L76.112793,36.4169922 C76.112793,37.2047565 75.9012065,37.8492813 75.4780273,38.3505859 C75.0548481,38.8518905 74.478682,39.1025391 73.7495117,39.1025391 C73.0203414,39.1025391 72.4433615,38.8510767 72.0185547,38.3481445 C71.5937479,37.8452123 71.3813477,37.2015013 71.3813477,36.4169922 L71.3813477,36.3095703 Z M72.3432617,36.4169922 C72.3432617,36.9768908 72.4612618,37.4391258 72.6972656,37.8037109 C72.9332694,38.1682961 73.2840146,38.3505859 73.7495117,38.3505859 C74.2084984,38.3505859 74.5568022,38.1682961 74.7944336,37.8037109 C75.032065,37.4391258 75.1508789,36.9768908 75.1508789,36.4169922 L75.1508789,36.3095703 C75.1508789,35.7561821 75.0312512,35.2955748 74.7919922,34.9277344 C74.5527332,34.559894 74.201988,34.3759766 73.7397461,34.3759766 C73.2807594,34.3759766 72.9332694,34.559894 72.6972656,34.9277344 C72.4612618,35.2955748 72.3432617,35.7561821 72.3432617,36.3095703 L72.3432617,36.4169922 Z M80.644043,38.21875 C80.4780265,38.5019545 80.2648125,38.7200513 80.0043945,38.8730469 C79.7439766,39.0260424 79.4428728,39.1025391 79.1010742,39.1025391 C78.5248995,39.1025391 78.0756852,38.9186216 77.753418,38.5507812 C77.4311507,38.1829409 77.2700195,37.6100299 77.2700195,36.8320312 L77.2700195,33.7167969 L78.2319336,33.7167969 L78.2319336,36.8417969 C78.2319336,37.4049507 78.3149406,37.7923167 78.480957,38.0039062 C78.6469735,38.2154958 78.90576,38.3212891 79.2573242,38.3212891 C79.5991228,38.3212891 79.8815093,38.2521166 80.1044922,38.1137695 C80.3274751,37.9754225 80.4959304,37.7792981 80.6098633,37.5253906 L80.6098633,33.7167969 L81.5717773,33.7167969 L81.5717773,39 L80.7075195,39 L80.644043,38.21875 Z M85.4731445,34.5664062 L84.9799805,34.5371094 C84.7260729,34.5371094 84.5120451,34.5973301 84.3378906,34.7177734 C84.1637361,34.8382167 84.0294601,35.0074859 83.9350586,35.2255859 L83.9350586,39 L82.9731445,39 L82.9731445,33.7167969 L83.8325195,33.7167969 L83.925293,34.4882812 C84.0750333,34.2148424 84.2597645,34.0016284 84.4794922,33.8486328 C84.6992198,33.6956373 84.9523098,33.6191406 85.2387695,33.6191406 C85.3103845,33.6191406 85.3787432,33.6248372 85.4438477,33.6362305 C85.5089521,33.6476238 85.5626625,33.6598307 85.6049805,33.6728516 L85.4731445,34.5664062 Z M89.8188477,33.7167969 L89.887207,34.4101562 C90.0597339,34.159504 90.2786445,33.9650072 90.5439453,33.8266602 C90.8092461,33.6883131 91.117674,33.6191406 91.4692383,33.6191406 C91.8208025,33.6191406 92.1227201,33.70052 92.375,33.8632812 C92.6272799,34.0260425 92.8168939,34.2701807 92.9438477,34.5957031 C93.1131193,34.2929672 93.3336575,34.0545256 93.6054688,33.8803711 C93.87728,33.7062166 94.1954734,33.6191406 94.5600586,33.6191406 C95.0971707,33.6191406 95.5219711,33.8038719 95.8344727,34.1733398 C96.1469742,34.5428078 96.3032227,35.0986291 96.3032227,35.8408203 L96.3032227,39 L95.3413086,39 L95.3413086,35.8310547 C95.3413086,35.3102187 95.2517913,34.9415701 95.0727539,34.7250977 C94.8937166,34.5086252 94.6267921,34.4003906 94.2719727,34.4003906 C93.943195,34.4003906 93.6770844,34.5143218 93.4736328,34.7421875 C93.2701813,34.9700532 93.1505536,35.2581363 93.1147461,35.6064453 L93.1147461,39 L92.1479492,39 L92.1479492,35.8310547 C92.1479492,35.3362605 92.0559905,34.9741222 91.8720703,34.7446289 C91.6881501,34.5151356 91.4236671,34.4003906 91.0786133,34.4003906 C90.7856431,34.4003906 90.5447601,34.4606114 90.355957,34.5810547 C90.167154,34.701498 90.0222987,34.8707671 89.9213867,35.0888672 L89.9213867,39 L88.9594727,39 L88.9594727,33.7167969 L89.8188477,33.7167969 Z M99.887207,39.1025391 C99.1287397,39.1025391 98.5371115,38.8600285 98.1123047,38.375 C97.6874979,37.8899715 97.4750977,37.2519571 97.4750977,36.4609375 L97.4750977,36.2460938 C97.4750977,35.4876264 97.6940082,34.8601913 98.1318359,34.3637695 C98.5696636,33.8673478 99.1043263,33.6191406 99.7358398,33.6191406 C100.442224,33.6191406 100.972003,33.838865 101.325195,34.2783203 C101.678387,34.7177756 101.85498,35.3020797 101.85498,36.03125 L101.85498,36.5390625 L98.4760742,36.5390625 L98.4614258,36.5634766 C98.4614258,37.0940782 98.5786121,37.5245752 98.8129883,37.8549805 C99.0473645,38.1853858 99.4054338,38.3505859 99.887207,38.3505859 C100.212729,38.3505859 100.498371,38.3041997 100.744141,38.2114258 C100.98991,38.1186519 101.200683,37.9908862 101.376465,37.828125 L101.752441,38.453125 C101.563638,38.6354176 101.314617,38.7892246 101.005371,38.9145508 C100.696125,39.0398769 100.323407,39.1025391 99.887207,39.1025391 Z M99.7358398,34.3759766 C99.4005517,34.3759766 99.123048,34.5053698 98.9033203,34.7641602 C98.6835927,35.0229505 98.5493167,35.3541646 98.5004883,35.7578125 L98.5102539,35.7822266 L100.893066,35.7822266 L100.893066,35.7041016 C100.893066,35.3199851 100.798666,35.0026054 100.609863,34.7519531 C100.42106,34.5013008 100.129722,34.3759766 99.7358398,34.3759766 Z M106.005371,37.5791016 C106.005371,37.367512 105.924805,37.1949876 105.763672,37.0615234 C105.602538,36.9280592 105.297366,36.8108729 104.848145,36.7099609 C104.226397,36.5764967 103.7487,36.3893241 103.415039,36.1484375 C103.081379,35.9075509 102.914551,35.5852885 102.914551,35.1816406 C102.914551,34.751951 103.097654,34.3841161 103.463867,34.078125 C103.83008,33.7721339 104.304522,33.6191406 104.887207,33.6191406 C105.486168,33.6191406 105.97119,33.7818994 106.342285,34.1074219 C106.713381,34.4329443 106.890788,34.8121723 106.874512,35.2451172 L106.864746,35.2744141 L105.946777,35.2744141 C105.946777,35.0465483 105.846681,34.8398447 105.646484,34.6542969 C105.446288,34.4687491 105.193198,34.3759766 104.887207,34.3759766 C104.548664,34.3759766 104.295574,34.4524732 104.12793,34.6054688 C103.960286,34.7584643 103.876465,34.9407542 103.876465,35.1523438 C103.876465,35.3606781 103.948893,35.5218093 104.09375,35.6357422 C104.238607,35.749675 104.53727,35.8538407 104.989746,35.9482422 C105.637536,36.0849616 106.129067,36.2786446 106.464355,36.5292969 C106.799644,36.7799492 106.967285,37.1070943 106.967285,37.5107422 C106.967285,37.9794945 106.777671,38.3619777 106.398438,38.6582031 C106.019204,38.9544286 105.523603,39.1025391 104.911621,39.1025391 C104.23779,39.1025391 103.707196,38.9316423 103.319824,38.5898438 C102.932452,38.2480452 102.748535,37.8492861 102.768066,37.3935547 L102.777832,37.3642578 L103.695801,37.3642578 C103.712077,37.7060564 103.839029,37.9558911 104.07666,38.1137695 C104.314292,38.2716479 104.592609,38.3505859 104.911621,38.3505859 C105.25342,38.3505859 105.521158,38.2781583 105.714844,38.1333008 C105.90853,37.9884433 106.005371,37.8037121 106.005371,37.5791016 Z M111.234863,37.5791016 C111.234863,37.367512 111.154298,37.1949876 110.993164,37.0615234 C110.83203,36.9280592 110.526858,36.8108729 110.077637,36.7099609 C109.455889,36.5764967 108.978192,36.3893241 108.644531,36.1484375 C108.310871,35.9075509 108.144043,35.5852885 108.144043,35.1816406 C108.144043,34.751951 108.327147,34.3841161 108.693359,34.078125 C109.059572,33.7721339 109.534014,33.6191406 110.116699,33.6191406 C110.715661,33.6191406 111.200682,33.7818994 111.571777,34.1074219 C111.942873,34.4329443 112.12028,34.8121723 112.104004,35.2451172 L112.094238,35.2744141 L111.17627,35.2744141 C111.17627,35.0465483 111.076173,34.8398447 110.875977,34.6542969 C110.67578,34.4687491 110.42269,34.3759766 110.116699,34.3759766 C109.778156,34.3759766 109.525066,34.4524732 109.357422,34.6054688 C109.189778,34.7584643 109.105957,34.9407542 109.105957,35.1523438 C109.105957,35.3606781 109.178385,35.5218093 109.323242,35.6357422 C109.4681,35.749675 109.766762,35.8538407 110.219238,35.9482422 C110.867028,36.0849616 111.35856,36.2786446 111.693848,36.5292969 C112.029136,36.7799492 112.196777,37.1070943 112.196777,37.5107422 C112.196777,37.9794945 112.007163,38.3619777 111.62793,38.6582031 C111.248696,38.9544286 110.753096,39.1025391 110.141113,39.1025391 C109.467282,39.1025391 108.936688,38.9316423 108.549316,38.5898438 C108.161945,38.2480452 107.978027,37.8492861 107.997559,37.3935547 L108.007324,37.3642578 L108.925293,37.3642578 C108.941569,37.7060564 109.068521,37.9558911 109.306152,38.1137695 C109.543784,38.2716479 109.822101,38.3505859 110.141113,38.3505859 C110.482912,38.3505859 110.75065,38.2781583 110.944336,38.1333008 C111.138022,37.9884433 111.234863,37.8037121 111.234863,37.5791016 Z M116.640137,39 C116.607584,38.840494 116.582357,38.6997076 116.564453,38.5776367 C116.546549,38.4555658 116.53597,38.3326829 116.532715,38.2089844 C116.353677,38.4628919 116.120119,38.6752921 115.832031,38.8461914 C115.543944,39.0170907 115.233888,39.1025391 114.901855,39.1025391 C114.351723,39.1025391 113.932619,38.9617527 113.644531,38.6801758 C113.356444,38.3985989 113.212402,38.0104191 113.212402,37.515625 C113.212402,37.0110652 113.416665,36.6163751 113.825195,36.331543 C114.233726,36.0467108 114.78792,35.9042969 115.487793,35.9042969 L116.532715,35.9042969 L116.532715,35.3818359 C116.532715,35.0725896 116.438315,34.8276376 116.249512,34.6469727 C116.060709,34.4663077 115.793784,34.3759766 115.44873,34.3759766 C115.136229,34.3759766 114.883953,34.4541008 114.691895,34.6103516 C114.499836,34.7666023 114.403809,34.953775 114.403809,35.171875 L113.490723,35.1816406 L113.480957,35.1523438 C113.45817,34.7682272 113.638019,34.4166683 114.020508,34.0976562 C114.402997,33.7786442 114.89697,33.6191406 115.502441,33.6191406 C116.101403,33.6191406 116.583169,33.7713201 116.947754,34.0756836 C117.312339,34.3800471 117.494629,34.818682 117.494629,35.3916016 L117.494629,37.9355469 C117.494629,38.1243499 117.504394,38.3066397 117.523926,38.4824219 C117.543457,38.658204 117.579264,38.8307283 117.631348,39 L116.640137,39 Z M115.043457,38.296875 C115.391766,38.296875 115.705891,38.2073577 115.98584,38.0283203 C116.265789,37.849283 116.448079,37.6442069 116.532715,37.4130859 L116.532715,36.5537109 L115.453613,36.5537109 C115.066242,36.5537109 114.756186,36.6513662 114.523438,36.8466797 C114.290689,37.0419932 114.174316,37.2714831 114.174316,37.5351562 C114.174316,37.7695324 114.247558,37.9550774 114.394043,38.0917969 C114.540528,38.2285163 114.756997,38.296875 115.043457,38.296875 Z M118.720215,36.4560547 C118.720215,35.6064411 118.901691,34.9212266 119.264648,34.4003906 C119.627606,33.8795547 120.1346,33.6191406 120.785645,33.6191406 C121.120933,33.6191406 121.415526,33.6866855 121.669434,33.8217773 C121.923341,33.9568692 122.136555,34.1513659 122.309082,34.4052734 L122.42627,33.7167969 L123.192871,33.7167969 L123.192871,39.0292969 C123.192871,39.7063836 122.995933,40.2263979 122.602051,40.5893555 C122.208169,40.952313 121.64014,41.1337891 120.897949,41.1337891 C120.644042,41.1337891 120.369793,41.0987959 120.075195,41.0288086 C119.780597,40.9588213 119.520997,40.8636074 119.296387,40.7431641 L119.442871,39.9960938 C119.628419,40.0937505 119.852212,40.1726885 120.114258,40.2329102 C120.376303,40.2931318 120.634276,40.3232422 120.888184,40.3232422 C121.356936,40.3232422 121.697916,40.2166352 121.911133,40.003418 C122.12435,39.7902008 122.230957,39.465497 122.230957,39.0292969 L122.230957,38.4287109 C122.05843,38.6500662 121.851726,38.8177078 121.61084,38.9316406 C121.369953,39.0455735 121.091636,39.1025391 120.775879,39.1025391 C120.131344,39.1025391 119.627606,38.8689802 119.264648,38.4018555 C118.901691,37.9347307 118.720215,37.3203163 118.720215,36.5585938 L118.720215,36.4560547 Z M119.682129,36.5585938 C119.682129,37.0891954 119.791177,37.5156234 120.009277,37.8378906 C120.227377,38.1601579 120.564288,38.3212891 121.02002,38.3212891 C121.309735,38.3212891 121.552245,38.2553718 121.747559,38.1235352 C121.942872,37.9916986 122.104003,37.8053397 122.230957,37.5644531 L122.230957,35.1328125 C122.107258,34.908202 121.946127,34.7299811 121.747559,34.5981445 C121.54899,34.4663079 121.309734,34.4003906 121.029785,34.4003906 C120.570798,34.4003906 120.231446,34.5908184 120.011719,34.9716797 C119.791991,35.352541 119.682129,35.8473277 119.682129,36.4560547 L119.682129,36.5585938 Z M126.762207,39.1025391 C126.00374,39.1025391 125.412111,38.8600285 124.987305,38.375 C124.562498,37.8899715 124.350098,37.2519571 124.350098,36.4609375 L124.350098,36.2460938 C124.350098,35.4876264 124.569008,34.8601913 125.006836,34.3637695 C125.444664,33.8673478 125.979326,33.6191406 126.61084,33.6191406 C127.317224,33.6191406 127.847003,33.838865 128.200195,34.2783203 C128.553387,34.7177756 128.72998,35.3020797 128.72998,36.03125 L128.72998,36.5390625 L125.351074,36.5390625 L125.336426,36.5634766 C125.336426,37.0940782 125.453612,37.5245752 125.687988,37.8549805 C125.922364,38.1853858 126.280434,38.3505859 126.762207,38.3505859 C127.087729,38.3505859 127.373371,38.3041997 127.619141,38.2114258 C127.86491,38.1186519 128.075683,37.9908862 128.251465,37.828125 L128.627441,38.453125 C128.438638,38.6354176 128.189617,38.7892246 127.880371,38.9145508 C127.571125,39.0398769 127.198407,39.1025391 126.762207,39.1025391 Z M126.61084,34.3759766 C126.275552,34.3759766 125.998048,34.5053698 125.77832,34.7641602 C125.558593,35.0229505 125.424317,35.3541646 125.375488,35.7578125 L125.385254,35.7822266 L127.768066,35.7822266 L127.768066,35.7041016 C127.768066,35.3199851 127.673666,35.0026054 127.484863,34.7519531 C127.29606,34.5013008 127.004722,34.3759766 126.61084,34.3759766 Z" id="Typeyourmessage" fill="#1B1B1B" fill-rule="nonzero"></path>
                            <path d="M74.6489258,6.78173828 L71.1958008,6.78173828 L71.1958008,17 L68.7719727,17 L68.7719727,6.78173828 L65.3686523,6.78173828 L65.3686523,4.9140625 L74.6489258,4.9140625 L74.6489258,6.78173828 Z M82.8833008,11.6875 L78.4008789,11.6875 L78.4008789,15.140625 L83.7299805,15.140625 L83.7299805,17 L75.9770508,17 L75.9770508,4.9140625 L83.7133789,4.9140625 L83.7133789,6.78173828 L78.4008789,6.78173828 L78.4008789,9.81982422 L82.8833008,9.81982422 L82.8833008,11.6875 Z M89.706543,9.19726562 L91.9726562,4.9140625 L94.7949219,4.9140625 L91.2089844,10.9072266 L95.0024414,17 L92.0722656,17 L89.7397461,12.6420898 L87.4072266,17 L84.5766602,17 L88.2539062,10.9072266 L84.6679688,4.9140625 L87.4736328,4.9140625 L89.706543,9.19726562 Z M104.672852,6.78173828 L101.219727,6.78173828 L101.219727,17 L98.7958984,17 L98.7958984,6.78173828 L95.3925781,6.78173828 L95.3925781,4.9140625 L104.672852,4.9140625 L104.672852,6.78173828 Z" id="TEXT" fill="#1B1B1B" fill-rule="nonzero"></path>
                        </g>
                    </g>
                </g>
            </g>
        </g>
    </g>
</svg>