<?xml version="1.0" encoding="UTF-8"?>
<svg width="90px" height="36px" viewBox="0 0 90 36" version="1.1" xmlns="http://www.w3.org/2000/svg" xmlns:xlink="http://www.w3.org/1999/xlink">
    <!-- Generator: Sketch 54.1 (76490) - https://sketchapp.com -->
    <title>Text</title>
    <desc>Created with Sketch.</desc>
    <g id="Make" stroke="none" stroke-width="1" fill="none" fill-rule="evenodd">
        <g id="C-37&gt;Shake-to-Remix" transform="translate(-52.000000, -1117.000000)" fill="#6A6A6A" fill-rule="nonzero">
            <g id="Content" transform="translate(12.000000, 76.000000)">
                <g id="07_NoRemix" transform="translate(0.000000, 843.000000)">
                    <g id="Text" transform="translate(40.000000, 194.000000)">
                        <path d="M2.376,32.295 C2.592,32.322 2.817,32.331 3.087,32.322 C3.474,32.322 5.31,32.25 5.823,32.187 C6.03,32.169 6.201,32.133 6.309,32.097 L6.768,32.619 C6.642,32.691 6.417,32.844 6.291,32.952 C5.625,33.501 4.338,34.572 3.627,35.139 C4.977,34.995 6.579,34.869 7.857,34.869 L7.857,35.544 C6.984,35.499 6.129,35.508 5.598,35.589 C4.734,35.706 3.888,36.444 3.888,37.272 C3.888,38.163 4.608,38.469 5.418,38.577 C5.94,38.649 6.381,38.64 6.696,38.613 L6.552,39.342 C4.374,39.432 3.186,38.748 3.186,37.38 C3.186,36.624 3.762,35.976 4.221,35.706 C3.267,35.787 2.079,35.931 1.017,36.102 L0.954,35.418 C1.431,35.373 2.034,35.292 2.484,35.238 C3.456,34.572 4.86,33.339 5.427,32.835 C5.031,32.862 3.483,32.943 3.096,32.979 C2.871,32.997 2.601,33.015 2.412,33.033 L2.376,32.295 Z M11.439,37.74 C11.835,37.74 12.33,37.146 12.789,35.643 C13.014,34.905 13.185,34.059 13.284,33.24 C11.574,33.456 10.53,34.923 10.53,36.12 C10.53,37.245 11.052,37.74 11.439,37.74 Z M13.788,39.234 L13.374,38.559 C13.653,38.541 13.923,38.496 14.139,38.451 C15.282,38.199 16.398,37.353 16.398,35.814 C16.398,34.464 15.543,33.357 14.031,33.231 C13.914,34.059 13.743,34.959 13.5,35.796 C12.951,37.623 12.24,38.568 11.412,38.568 C10.62,38.568 9.819,37.65 9.819,36.183 C9.819,34.248 11.547,32.556 13.725,32.556 C15.813,32.556 17.145,34.032 17.145,35.832 C17.145,37.704 15.912,38.955 13.788,39.234 Z M22.509,37.956 C22.509,37.803 22.5,37.596 22.5,37.353 C22.221,37.299 21.933,37.272 21.636,37.272 C20.79,37.272 20.331,37.596 20.331,38.001 C20.331,38.415 20.682,38.721 21.564,38.721 C22.077,38.721 22.509,38.568 22.509,37.956 Z M25.758,38.262 L25.353,38.892 C24.831,38.415 24.093,37.875 23.202,37.551 C23.211,37.776 23.22,37.974 23.22,38.109 C23.22,38.721 22.806,39.36 21.645,39.36 C20.367,39.36 19.656,38.901 19.656,38.037 C19.656,37.227 20.439,36.678 21.726,36.678 C21.987,36.678 22.23,36.696 22.473,36.732 C22.455,36.336 22.437,35.913 22.428,35.544 L21.933,35.544 C21.321,35.544 20.331,35.49 19.692,35.418 L19.692,34.734 C20.295,34.842 21.348,34.905 21.933,34.905 L22.41,34.905 L22.41,33.627 L21.969,33.627 C21.348,33.627 20.403,33.555 19.872,33.492 L19.872,32.826 C20.412,32.925 21.366,32.997 21.96,32.997 L22.419,32.997 L22.419,32.412 C22.419,32.268 22.41,32.007 22.392,31.881 L23.157,31.881 C23.13,32.043 23.121,32.214 23.112,32.475 C23.103,32.583 23.103,32.754 23.103,32.97 C23.877,32.943 24.606,32.871 25.389,32.754 L25.398,33.411 C24.696,33.483 23.931,33.555 23.094,33.6 L23.094,34.878 C23.949,34.842 24.768,34.761 25.569,34.644 L25.578,35.319 C24.741,35.427 23.949,35.49 23.103,35.526 C23.121,35.985 23.148,36.453 23.166,36.876 C24.345,37.2 25.254,37.857 25.758,38.262 Z M31.509,37.956 C31.509,37.803 31.5,37.596 31.5,37.353 C31.221,37.299 30.933,37.272 30.636,37.272 C29.79,37.272 29.331,37.596 29.331,38.001 C29.331,38.415 29.682,38.721 30.564,38.721 C31.077,38.721 31.509,38.568 31.509,37.956 Z M34.758,38.262 L34.353,38.892 C33.831,38.415 33.093,37.875 32.202,37.551 C32.211,37.776 32.22,37.974 32.22,38.109 C32.22,38.721 31.806,39.36 30.645,39.36 C29.367,39.36 28.656,38.901 28.656,38.037 C28.656,37.227 29.439,36.678 30.726,36.678 C30.987,36.678 31.23,36.696 31.473,36.732 C31.455,36.336 31.437,35.913 31.428,35.544 L30.933,35.544 C30.321,35.544 29.331,35.49 28.692,35.418 L28.692,34.734 C29.295,34.842 30.348,34.905 30.933,34.905 L31.41,34.905 L31.41,33.627 L30.969,33.627 C30.348,33.627 29.403,33.555 28.872,33.492 L28.872,32.826 C29.412,32.925 30.366,32.997 30.96,32.997 L31.419,32.997 L31.419,32.412 C31.419,32.268 31.41,32.007 31.392,31.881 L32.157,31.881 C32.13,32.043 32.121,32.214 32.112,32.475 C32.103,32.583 32.103,32.754 32.103,32.97 C32.877,32.943 33.606,32.871 34.389,32.754 L34.398,33.411 C33.696,33.483 32.931,33.555 32.094,33.6 L32.094,34.878 C32.949,34.842 33.768,34.761 34.569,34.644 L34.578,35.319 C33.741,35.427 32.949,35.49 32.103,35.526 C32.121,35.985 32.148,36.453 32.166,36.876 C33.345,37.2 34.254,37.857 34.758,38.262 Z M38.781,33.393 L38.277,33.924 C37.944,33.528 37.233,32.952 36.657,32.547 L37.134,32.07 C37.701,32.448 38.43,32.997 38.781,33.393 Z M38.466,35.742 L38.826,36.318 C38.16,37.038 37.413,37.821 36.801,38.397 L36.369,37.848 C36.891,37.362 37.701,36.534 38.466,35.742 Z M41.832,33.744 L41.832,34.878 C41.823,35.661 42.255,38.037 44.685,39.09 C44.568,39.243 44.361,39.522 44.253,39.684 C42.381,38.82 41.607,36.966 41.481,36.129 C41.328,36.975 40.509,38.775 38.358,39.684 C38.277,39.54 38.07,39.261 37.944,39.144 C40.671,38.064 41.139,35.715 41.139,34.878 L41.139,33.744 L40.041,33.744 C39.753,34.446 39.411,35.076 39.042,35.571 C38.907,35.463 38.583,35.274 38.403,35.193 C39.159,34.311 39.708,32.925 40.014,31.494 L40.716,31.62 C40.59,32.124 40.455,32.61 40.293,33.078 L43.92,33.078 L44.055,33.042 L44.541,33.312 C44.298,34.176 43.884,35.094 43.551,35.688 C43.407,35.625 43.155,35.481 42.993,35.418 C43.218,35.004 43.506,34.338 43.686,33.744 L41.832,33.744 Z M46.611,32.187 L47.421,32.25 C47.367,32.403 47.286,32.691 47.25,32.853 C47.079,33.672 46.818,35.265 46.818,36.264 C46.818,36.696 46.836,37.056 46.89,37.488 C47.043,37.083 47.241,36.561 47.385,36.21 L47.772,36.498 C47.547,37.128 47.223,38.073 47.142,38.496 C47.115,38.622 47.097,38.793 47.097,38.892 L47.124,39.207 L46.476,39.252 C46.296,38.622 46.152,37.596 46.152,36.39 C46.152,35.076 46.44,33.546 46.548,32.817 C46.575,32.61 46.611,32.376 46.611,32.187 Z M48.807,36.507 L49.455,36.57 C49.374,36.894 49.338,37.146 49.338,37.389 C49.338,37.794 49.608,38.19 50.832,38.19 C51.633,38.19 52.317,38.118 53.037,37.956 L53.046,38.712 C52.497,38.82 51.75,38.892 50.823,38.892 C49.329,38.892 48.663,38.397 48.663,37.56 C48.663,37.236 48.726,36.885 48.807,36.507 Z M49.113,33.672 L49.104,32.934 C50.076,33.096 51.876,33.06 52.767,32.934 L52.767,33.672 C51.813,33.771 50.085,33.771 49.113,33.672 Z M59.643,34.383 L59.643,33.447 L58.077,33.447 L58.077,34.383 L59.643,34.383 Z M59.643,35.895 L59.643,34.95 L58.077,34.95 L58.077,35.895 L59.643,35.895 Z M59.643,37.425 L59.643,36.453 L58.077,36.453 L58.077,37.425 L59.643,37.425 Z M57.429,38.01 L57.429,34.077 C57.177,34.374 56.907,34.653 56.637,34.887 C56.529,34.752 56.277,34.5 56.124,34.374 C56.997,33.699 57.771,32.628 58.221,31.494 L58.878,31.674 C58.707,32.088 58.509,32.493 58.275,32.871 L59.706,32.871 C59.904,32.457 60.093,31.944 60.21,31.557 L60.921,31.71 C60.75,32.088 60.561,32.511 60.372,32.871 L62.28,32.871 L62.28,33.447 L60.282,33.447 L60.282,34.383 L62.055,34.383 L62.055,34.95 L60.282,34.95 L60.282,35.895 L62.037,35.895 L62.037,36.453 L60.282,36.453 L60.282,37.425 L62.433,37.425 L62.433,38.01 L57.429,38.01 Z M56.493,33.159 L55.953,33.573 C55.683,33.123 55.08,32.502 54.531,32.07 L55.044,31.692 C55.593,32.106 56.214,32.718 56.493,33.159 Z M56.223,34.995 L56.223,37.884 C56.646,38.55 57.438,38.856 58.491,38.892 C59.481,38.937 61.551,38.91 62.631,38.838 C62.55,38.991 62.442,39.297 62.415,39.495 C61.407,39.54 59.508,39.558 58.5,39.513 C57.321,39.468 56.511,39.153 55.953,38.451 C55.557,38.838 55.143,39.216 54.702,39.603 L54.351,38.964 C54.729,38.685 55.188,38.307 55.593,37.929 L55.593,35.625 L54.45,35.625 L54.45,34.995 L56.223,34.995 Z M65.394,37.578 C65.709,37.173 66.042,36.363 66.348,35.67 C65.07,35.778 64.341,36.543 64.341,37.299 C64.341,37.677 64.593,37.893 64.854,37.893 C65.061,37.893 65.205,37.821 65.394,37.578 Z M71.496,36.786 L71.172,37.542 C70.902,37.308 70.587,37.065 70.245,36.84 C69.876,38.001 69.192,38.847 67.896,39.495 L67.302,39 C68.715,38.406 69.345,37.452 69.633,36.48 C68.886,36.075 68.022,35.76 67.095,35.679 C66.753,36.462 66.312,37.506 65.97,38.001 C65.655,38.451 65.304,38.622 64.845,38.622 C64.188,38.622 63.684,38.145 63.684,37.398 C63.684,36.084 64.899,35.076 66.645,35.031 C66.969,34.329 67.293,33.564 67.572,33.006 C67.221,33.033 66.141,33.078 65.727,33.105 C65.529,33.114 65.277,33.132 65.07,33.168 L65.034,32.412 C65.259,32.439 65.52,32.448 65.709,32.448 C66.177,32.448 67.347,32.385 67.725,32.358 C67.887,32.34 68.04,32.304 68.157,32.259 L68.616,32.628 C68.526,32.727 68.445,32.808 68.382,32.925 C68.13,33.321 67.752,34.23 67.374,35.067 C68.265,35.157 69.084,35.436 69.795,35.778 C69.831,35.553 69.849,35.328 69.867,35.112 C69.885,34.869 69.894,34.581 69.876,34.293 L70.614,34.374 C70.578,35.013 70.524,35.58 70.425,36.102 C70.848,36.336 71.208,36.579 71.496,36.786 Z M76.509,37.956 C76.509,37.803 76.5,37.596 76.5,37.353 C76.221,37.299 75.933,37.272 75.636,37.272 C74.79,37.272 74.331,37.596 74.331,38.001 C74.331,38.415 74.682,38.721 75.564,38.721 C76.077,38.721 76.509,38.568 76.509,37.956 Z M79.758,38.262 L79.353,38.892 C78.831,38.415 78.093,37.875 77.202,37.551 C77.211,37.776 77.22,37.974 77.22,38.109 C77.22,38.721 76.806,39.36 75.645,39.36 C74.367,39.36 73.656,38.901 73.656,38.037 C73.656,37.227 74.439,36.678 75.726,36.678 C75.987,36.678 76.23,36.696 76.473,36.732 C76.455,36.336 76.437,35.913 76.428,35.544 L75.933,35.544 C75.321,35.544 74.331,35.49 73.692,35.418 L73.692,34.734 C74.295,34.842 75.348,34.905 75.933,34.905 L76.41,34.905 L76.41,33.627 L75.969,33.627 C75.348,33.627 74.403,33.555 73.872,33.492 L73.872,32.826 C74.412,32.925 75.366,32.997 75.96,32.997 L76.419,32.997 L76.419,32.412 C76.419,32.268 76.41,32.007 76.392,31.881 L77.157,31.881 C77.13,32.043 77.121,32.214 77.112,32.475 C77.103,32.583 77.103,32.754 77.103,32.97 C77.877,32.943 78.606,32.871 79.389,32.754 L79.398,33.411 C78.696,33.483 77.931,33.555 77.094,33.6 L77.094,34.878 C77.949,34.842 78.768,34.761 79.569,34.644 L79.578,35.319 C78.741,35.427 77.949,35.49 77.103,35.526 C77.121,35.985 77.148,36.453 77.166,36.876 C78.345,37.2 79.254,37.857 79.758,38.262 Z M85.32,36.894 C85.842,36.894 86.184,36.471 86.103,35.625 C85.959,35.238 85.662,35.076 85.311,35.076 C84.852,35.076 84.411,35.436 84.411,36.012 C84.411,36.57 84.825,36.894 85.32,36.894 Z M86.697,33.672 L86.58,33.672 C86.58,34.176 86.589,34.725 86.598,35.13 C86.787,35.436 86.886,35.832 86.886,36.273 C86.886,37.479 86.301,38.82 84.231,39.441 L83.61,38.838 C84.78,38.568 85.608,38.082 85.977,37.29 C85.761,37.443 85.509,37.515 85.212,37.515 C84.456,37.515 83.736,36.984 83.736,36.021 C83.736,35.139 84.465,34.464 85.311,34.464 C85.527,34.464 85.725,34.5 85.905,34.563 C85.905,34.302 85.905,33.987 85.896,33.681 C84.546,33.69 83.034,33.753 81.918,33.834 L81.9,33.132 C82.89,33.114 84.564,33.06 85.887,33.042 C85.887,32.79 85.878,32.583 85.869,32.457 C85.86,32.268 85.833,32.007 85.815,31.899 L86.634,31.899 L86.589,32.457 C86.589,32.592 86.58,32.799 86.58,33.033 L86.715,33.033 C87.795,33.033 88.893,33.042 89.325,33.042 L89.316,33.717 C88.812,33.69 88.002,33.672 86.697,33.672 Z" id="そのまま次に進みます"></path>
                        <path d="M3.367,4.862 L6.019,4.862 L11.085,13.005 L11.119,13.005 L11.119,4.862 L13.618,4.862 L13.618,17 L10.949,17 L5.9,8.874 L5.866,8.874 L5.866,17 L3.367,17 L3.367,4.862 Z M18.106,10.982 C18.106,11.4920025 18.1654994,11.9878309 18.2845,12.4695 C18.4035006,12.9511691 18.593332,13.3846647 18.854,13.77 C19.114668,14.1553353 19.4546646,14.4641655 19.874,14.6965 C20.2933354,14.9288345 20.8033303,15.045 21.404,15.045 C22.0046697,15.045 22.5146646,14.9288345 22.934,14.6965 C23.3533354,14.4641655 23.693332,14.1553353 23.954,13.77 C24.214668,13.3846647 24.4044994,12.9511691 24.5235,12.4695 C24.6425006,11.9878309 24.702,11.4920025 24.702,10.982 C24.702,10.4493307 24.6425006,9.93366916 24.5235,9.435 C24.4044994,8.93633084 24.214668,8.49150195 23.954,8.1005 C23.693332,7.70949804 23.3533354,7.39783449 22.934,7.1655 C22.5146646,6.9331655 22.0046697,6.817 21.404,6.817 C20.8033303,6.817 20.2933354,6.9331655 19.874,7.1655 C19.4546646,7.39783449 19.114668,7.70949804 18.854,8.1005 C18.593332,8.49150195 18.4035006,8.93633084 18.2845,9.435 C18.1654994,9.93366916 18.106,10.4493307 18.106,10.982 Z M15.437,10.982 C15.437,10.0753288 15.5729986,9.23383722 15.845,8.4575 C16.1170014,7.68116278 16.5079975,7.00400289 17.018,6.426 C17.5280026,5.84799711 18.154163,5.39466831 18.8965,5.066 C19.638837,4.73733169 20.474662,4.573 21.404,4.573 C22.3446714,4.573 23.1833297,4.73733169 23.92,5.066 C24.6566704,5.39466831 25.2799975,5.84799711 25.79,6.426 C26.3000026,7.00400289 26.6909986,7.68116278 26.963,8.4575 C27.2350014,9.23383722 27.371,10.0753288 27.371,10.982 C27.371,11.8660044 27.2350014,12.6904962 26.963,13.4555 C26.6909986,14.2205038 26.3000026,14.8863305 25.79,15.453 C25.2799975,16.0196695 24.6566704,16.4644984 23.92,16.7875 C23.1833297,17.1105016 22.3446714,17.272 21.404,17.272 C20.474662,17.272 19.638837,17.1105016 18.8965,16.7875 C18.154163,16.4644984 17.5280026,16.0196695 17.018,15.453 C16.5079975,14.8863305 16.1170014,14.2205038 15.845,13.4555 C15.5729986,12.6904962 15.437,11.8660044 15.437,10.982 Z M36.585,10.353 L39.509,10.353 C40.1210031,10.353 40.5799985,10.2170014 40.886,9.945 C41.1920015,9.67299864 41.345,9.23100306 41.345,8.619 C41.345,8.02966372 41.1920015,7.60183467 40.886,7.3355 C40.5799985,7.06916534 40.1210031,6.936 39.509,6.936 L36.585,6.936 L36.585,10.353 Z M33.916,4.862 L40.461,4.862 C41.0050027,4.862 41.4951645,4.94983245 41.9315,5.1255 C42.3678355,5.30116754 42.7418318,5.54199847 43.0535,5.848 C43.3651682,6.15400153 43.6031658,6.50816465 43.7675,6.9105 C43.9318342,7.31283534 44.014,7.74633101 44.014,8.211 C44.014,8.92500357 43.8638348,9.54266406 43.5635,10.064 C43.2631652,10.5853359 42.7730034,10.9819986 42.093,11.254 L42.093,11.288 C42.4216683,11.3786671 42.6936656,11.5174991 42.909,11.7045 C43.1243344,11.8915009 43.2999993,12.1124987 43.436,12.3675 C43.5720007,12.6225013 43.6711664,12.9029985 43.7335,13.209 C43.7958336,13.5150015 43.8383332,13.8209985 43.861,14.127 C43.8723334,14.3196676 43.8836666,14.546332 43.895,14.807 C43.9063334,15.067668 43.9261665,15.3339986 43.9545,15.606 C43.9828335,15.8780014 44.0281664,16.1358321 44.0905,16.3795 C44.1528336,16.6231679 44.2463327,16.8299991 44.371,17 L41.702,17 C41.5546659,16.6146647 41.4640002,16.1556693 41.43,15.623 C41.3959998,15.0903307 41.3450003,14.5803358 41.277,14.093 C41.1863329,13.4583302 40.9936681,12.9936681 40.699,12.699 C40.4043319,12.4043319 39.92267,12.257 39.254,12.257 L36.585,12.257 L36.585,17 L33.916,17 L33.916,4.862 Z M46.19,4.862 L55.268,4.862 L55.268,7.106 L48.859,7.106 L48.859,9.707 L54.741,9.707 L54.741,11.781 L48.859,11.781 L48.859,14.756 L55.404,14.756 L55.404,17 L46.19,17 L46.19,4.862 Z M57.206,4.862 L60.963,4.862 L63.802,13.209 L63.836,13.209 L66.522,4.862 L70.279,4.862 L70.279,17 L67.78,17 L67.78,8.398 L67.746,8.398 L64.771,17 L62.714,17 L59.739,8.483 L59.705,8.483 L59.705,17 L57.206,17 L57.206,4.862 Z M72.625,4.862 L75.294,4.862 L75.294,17 L72.625,17 L72.625,4.862 Z M80.615,10.642 L76.705,4.862 L79.799,4.862 L82.179,8.738 L84.644,4.862 L87.568,4.862 L83.675,10.659 L87.908,17 L84.729,17 L82.077,12.801 L79.374,17 L76.382,17 L80.615,10.642 Z" id="NOREMIX"></path>
                    </g>
                </g>
            </g>
        </g>
    </g>
</svg>