<?xml version="1.0" encoding="UTF-8"?>
<svg width="50px" height="50px" viewBox="0 0 50 50" version="1.1" xmlns="http://www.w3.org/2000/svg" xmlns:xlink="http://www.w3.org/1999/xlink">
    <!-- Generator: Sketch 54.1 (76490) - https://sketchapp.com -->
    <title>Btn/Brush_Pressed</title>
    <desc>Created with Sketch.</desc>
    <g id="Make" stroke="none" stroke-width="1" fill="none" fill-rule="evenodd">
        <g id="C-21&gt;Brush-Selection" transform="translate(-163.000000, -601.000000)">
            <g id="popup">
                <g id="Btn/Brush" transform="translate(145.000000, 454.000000)">
                    <g id="Btn/Brush_Pressed" transform="translate(18.000000, 147.000000)">
                        <circle id="Oval" stroke="#DADADA" fill="#FFFFFF" cx="25" cy="25" r="24.5"></circle>
                        <path d="M12,28.631655 C14.7315033,28.631655 19.650974,23.9809506 20.7861632,22.9280289 C21.9213523,21.8751072 24.8910183,23.7584496 26.3839259,22.9280289 C27.8768336,22.0976083 31.0757221,17.1715228 31.9846731,15.9854756 C32.8936242,14.7994285 35.7073958,11.9441476 37.1911127,13.4081223 C38.6748296,14.8720969 35.8678312,17.978427 35.1162823,18.765213 C34.3647335,19.5519989 28.8712605,23.2489663 28.40435,25.0846331 C27.9374396,26.9202998 28.5374943,29.2960654 28.1587819,30.1435886 C27.7800695,30.9911117 21.4122326,35.8723391 20.0024978,36.6656246 C18.9301541,36.3344453 16.9435994,34.5017677 14.0428337,31.1675919 L14.6168251,30.1435886 L13.0509551,30.1435886 C12.6988273,29.6583019 12.3485089,29.154324 12,28.631655 Z M18.5623519,26.8139256 L23.5754449,32.2436626 L26.7031899,29.7722268 L21.7861632,24.1588876 L18.5623519,26.8139256 Z" id="Path-24" fill="#6A6A6A"></path>
                    </g>
                </g>
            </g>
        </g>
    </g>
</svg>