<svg xmlns="http://www.w3.org/2000/svg" width="50" height="50" viewBox="0 0 50 50">
    <g fill="none" fill-rule="evenodd">
        <circle cx="25" cy="25" r="24.5" fill="#FFF" stroke="#DADADA"/>
        <path fill="#1B1B1B" d="M12 28.632c2.732 0 7.651-4.651 8.786-5.704 1.135-1.053 4.105.83 5.598 0 1.493-.83 4.692-5.756 5.6-6.943.91-1.186 3.723-4.04 5.207-2.577 1.484 1.464-1.323 4.57-2.075 5.357-.751.787-6.245 4.484-6.712 6.32-.467 1.835.133 4.211-.245 5.059-.379.847-6.747 5.728-8.157 6.522-1.072-.332-3.058-2.164-5.96-5.498l.575-1.024H13.05c-.352-.486-.702-.99-1.051-1.512zm6.562-1.818l5.013 5.43 3.128-2.472-4.917-5.613-3.224 2.655z"/>
    </g>
</svg>
