<svg xmlns="http://www.w3.org/2000/svg" width="24" height="24" viewBox="0 0 24 24">
    <g fill="none" fill-rule="evenodd">
        <path fill="#D8D8D8" d="M0 0h24v24H0z" opacity=".01"/>
        <path fill="#1B1B1B" d="M10.253 13.063L20.457 2.7a1 1 0 0 1 1.402-.023l1.405 1.336a1 1 0 0 1 .026 1.424L12.718 16.24c-.086 2.778-2.84 5.095-6.113 5.095-2.218 0-4.42-1.291-6.605-3.874 1.679.054 2.945-.048 3.799-.307 1.28-.388 2.585-3.525 4.339-4.038a4.337 4.337 0 0 1 2.115-.053zm.958.412l1.08 1.253 1.84-1.619-1.156-1.227-1.764 1.593z"/>
    </g>
</svg>
