<?xml version="1.0" encoding="UTF-8"?>
<svg width="100px" height="69px" viewBox="0 0 100 69" version="1.1" xmlns="http://www.w3.org/2000/svg" xmlns:xlink="http://www.w3.org/1999/xlink">
    <!-- Generator: Sketch 55.2 (78181) - https://sketchapp.com -->
    <title>02_Tips复制</title>
    <desc>Created with Sketch.</desc>
    <g id="Make" stroke="none" stroke-width="1" fill="none" fill-rule="evenodd">
        <g id="C-41&gt;Glitch-Effect&gt;Stop" transform="translate(-16.000000, -517.000000)">
            <g id="Content" transform="translate(0.000000, 22.000000)">
                <g id="02_Tips复制" transform="translate(16.000000, 495.000000)">
                    <path d="M99.5,48.5 L99.5,0.5 L0.5,0.5 L0.5,48.5 L10.25,48.5 L25,68.1666667 L39.75,48.5 L40,48.5 L99.5,48.5 Z" id="bg" stroke="#DADADA" fill-opacity="0.8" fill="#FFFFFF"></path>
                    <path d="M23.52,27.26 C23.52,27.7400024 23.6066658,28.146665 23.78,28.48 C23.9533342,28.813335 24.1833319,29.0833323 24.47,29.29 C24.7566681,29.4966677 25.0933314,29.6499995 25.48,29.75 C25.8666686,29.8500005 26.2666646,29.9 26.68,29.9 C26.9600014,29.9 27.2599984,29.8766669 27.58,29.83 C27.9000016,29.7833331 28.1999986,29.693334 28.48,29.56 C28.7600014,29.426666 28.9933324,29.2433345 29.18,29.01 C29.3666676,28.7766655 29.46,28.4800018 29.46,28.12 C29.46,27.7333314 29.3366679,27.4200012 29.09,27.18 C28.8433321,26.9399988 28.520002,26.7400008 28.12,26.58 C27.719998,26.4199992 27.2666692,26.2800006 26.76,26.16 C26.2533308,26.0399994 25.7400026,25.9066674 25.22,25.76 C24.686664,25.626666 24.1666692,25.4633343 23.66,25.27 C23.1533308,25.0766657 22.700002,24.8266682 22.3,24.52 C21.899998,24.2133318 21.5766679,23.8300023 21.33,23.37 C21.0833321,22.9099977 20.96,22.3533366 20.96,21.7 C20.96,20.966663 21.1166651,20.3300027 21.43,19.79 C21.7433349,19.2499973 22.1533308,18.8000018 22.66,18.44 C23.1666692,18.0799982 23.7399968,17.8133342 24.38,17.64 C25.0200032,17.4666658 25.6599968,17.38 26.3,17.38 C27.0466704,17.38 27.7633299,17.4633325 28.45,17.63 C29.1366701,17.7966675 29.746664,18.0666648 30.28,18.44 C30.813336,18.8133352 31.2366651,19.2899971 31.55,19.87 C31.8633349,20.4500029 32.02,21.1533292 32.02,21.98 L28.98,21.98 C28.9533332,21.5533312 28.8633341,21.2000014 28.71,20.92 C28.5566659,20.6399986 28.3533346,20.4200008 28.1,20.26 C27.8466654,20.0999992 27.5566683,19.986667 27.23,19.92 C26.9033317,19.853333 26.5466686,19.82 26.16,19.82 C25.9066654,19.82 25.6533346,19.8466664 25.4,19.9 C25.1466654,19.9533336 24.9166677,20.046666 24.71,20.18 C24.5033323,20.313334 24.333334,20.479999 24.2,20.68 C24.066666,20.88 24,21.1333318 24,21.44 C24,21.7200014 24.0533328,21.9466658 24.16,22.12 C24.2666672,22.2933342 24.4766651,22.4533326 24.79,22.6 C25.1033349,22.7466674 25.5366639,22.8933326 26.09,23.04 C26.6433361,23.1866674 27.3666622,23.3733322 28.26,23.6 C28.526668,23.6533336 28.8966643,23.7499993 29.37,23.89 C29.8433357,24.0300007 30.313331,24.2533318 30.78,24.56 C31.246669,24.8666682 31.6499983,25.2766641 31.99,25.79 C32.3300017,26.3033359 32.5,26.959996 32.5,27.76 C32.5,28.4133366 32.3733346,29.0199972 32.12,29.58 C31.8666654,30.1400028 31.4900025,30.6233313 30.99,31.03 C30.4899975,31.4366687 29.8700037,31.7533322 29.13,31.98 C28.3899963,32.2066678 27.5333382,32.32 26.56,32.32 C25.7733294,32.32 25.0100037,32.2233343 24.27,32.03 C23.5299963,31.8366657 22.8766695,31.5333354 22.31,31.12 C21.7433305,30.7066646 21.293335,30.1800032 20.96,29.54 C20.626665,28.8999968 20.4666666,28.1400044 20.48,27.26 L23.52,27.26 Z M37.52,20.36 L33.24,20.36 L33.24,17.72 L44.94,17.72 L44.94,20.36 L40.66,20.36 L40.66,32 L37.52,32 L37.52,20.36 Z M49.1,24.92 C49.1,25.52 49.1699993,26.1033305 49.31,26.67 C49.4500007,27.2366695 49.6733318,27.7466644 49.98,28.2 C50.2866682,28.6533356 50.6866642,29.0166653 51.18,29.29 C51.6733358,29.5633347 52.2733298,29.7 52.98,29.7 C53.6866702,29.7 54.2866642,29.5633347 54.78,29.29 C55.2733358,29.0166653 55.6733318,28.6533356 55.98,28.2 C56.2866682,27.7466644 56.5099993,27.2366695 56.65,26.67 C56.7900007,26.1033305 56.86,25.52 56.86,24.92 C56.86,24.2933302 56.7900007,23.6866696 56.65,23.1 C56.5099993,22.5133304 56.2866682,21.9900023 55.98,21.53 C55.6733318,21.0699977 55.2733358,20.7033347 54.78,20.43 C54.2866642,20.1566653 53.6866702,20.02 52.98,20.02 C52.2733298,20.02 51.6733358,20.1566653 51.18,20.43 C50.6866642,20.7033347 50.2866682,21.0699977 49.98,21.53 C49.6733318,21.9900023 49.4500007,22.5133304 49.31,23.1 C49.1699993,23.6866696 49.1,24.2933302 49.1,24.92 Z M45.96,24.92 C45.96,23.853328 46.1199984,22.8633379 46.44,21.95 C46.7600016,21.0366621 47.219997,20.2400034 47.82,19.56 C48.420003,18.88 49.1566623,18.3466686 50.03,17.96 C50.9033377,17.5733314 51.8866612,17.38 52.98,17.38 C54.0866722,17.38 55.073329,17.5733314 55.94,17.96 C56.806671,18.3466686 57.539997,18.88 58.14,19.56 C58.740003,20.2400034 59.1999984,21.0366621 59.52,21.95 C59.8400016,22.8633379 60,23.853328 60,24.92 C60,25.9600052 59.8400016,26.9299955 59.52,27.83 C59.1999984,28.7300045 58.740003,29.51333 58.14,30.18 C57.539997,30.84667 56.806671,31.3699981 55.94,31.75 C55.073329,32.1300019 54.0866722,32.32 52.98,32.32 C51.8866612,32.32 50.9033377,32.1300019 50.03,31.75 C49.1566623,31.3699981 48.420003,30.84667 47.82,30.18 C47.219997,29.51333 46.7600016,28.7300045 46.44,27.83 C46.1199984,26.9299955 45.96,25.9600052 45.96,24.92 Z M65.28,24.44 L67.72,24.44 C68.0800018,24.44 68.426665,24.4133336 68.76,24.36 C69.093335,24.3066664 69.3866654,24.2033341 69.64,24.05 C69.8933346,23.8966659 70.0966659,23.6800014 70.25,23.4 C70.4033341,23.1199986 70.48,22.7533356 70.48,22.3 C70.48,21.8466644 70.4033341,21.4800014 70.25,21.2 C70.0966659,20.9199986 69.8933346,20.7033341 69.64,20.55 C69.3866654,20.3966659 69.093335,20.2933336 68.76,20.24 C68.426665,20.1866664 68.0800018,20.16 67.72,20.16 L65.28,20.16 L65.28,24.44 Z M62.14,17.72 L68.58,17.72 C69.4733378,17.72 70.2333302,17.8499987 70.86,18.11 C71.4866698,18.3700013 71.9966647,18.7133312 72.39,19.14 C72.7833353,19.5666688 73.0699991,20.0533306 73.25,20.6 C73.4300009,21.1466694 73.52,21.7133304 73.52,22.3 C73.52,22.8733362 73.4300009,23.4366639 73.25,23.99 C73.0699991,24.5433361 72.7833353,25.0333312 72.39,25.46 C71.9966647,25.8866688 71.4866698,26.2299987 70.86,26.49 C70.2333302,26.7500013 69.4733378,26.88 68.58,26.88 L65.28,26.88 L65.28,32 L62.14,32 L62.14,17.72 Z M75.32,28.92 L78.46,28.92 L78.46,32 L75.32,32 L75.32,28.92 Z M78.36,21.56 L77.58,27.72 L76.16,27.72 L75.4,21.56 L75.4,17.72 L78.36,17.72 L78.36,21.56 Z" id="STOP!" fill="#1B1B1B" fill-rule="nonzero"></path>
                </g>
            </g>
        </g>
    </g>
</svg>