<svg xmlns="http://www.w3.org/2000/svg" width="72" height="72" viewBox="0 0 72 72">
    <g fill="none" fill-rule="evenodd">
        <circle cx="36" cy="36" r="35.5" fill="#FFF" stroke="#DADADA"/>
        <g fill-rule="nonzero">
            <path fill="#F00" d="M19.765 30.314l-2.17 7.068h4.309l-2.139-7.068zm-3.596 11.377L14.712 46h-4.309l7.192-21.576h4.309L29.096 46h-4.309l-1.426-4.309h-7.192z"/>
            <path fill="#3CB5AC" d="M34.389 41.691h3.596c1.209 0 2.17-1.023 2.17-2.139 0-1.209-.837-2.17-2.17-2.17h-3.596v4.309zm3.596-8.649c1.209 0 2.139-.806 2.139-2.139 0-1.333-.93-2.17-2.139-2.17h-3.596v4.309h3.596zm0-8.618a6.45 6.45 0 0 1 6.479 6.448c0 1.612-.558 3.131-1.643 4.34 1.116 1.24 1.643 2.728 1.643 4.34 0 3.751-3.131 6.448-6.51 6.448H30.08V24.424h7.905z"/>
            <path fill="#1B1B1B" d="M55.678 31.399a2.858 2.858 0 0 0-2.883-2.883c-1.643 0-2.883 1.426-2.883 2.883v7.626a2.898 2.898 0 0 0 2.883 2.883c1.612 0 2.79-1.147 2.883-2.883h4.309c0 3.937-3.193 7.192-7.192 7.192-3.937 0-7.192-3.255-7.192-7.192v-7.626c0-3.999 3.255-7.192 7.192-7.192a7.158 7.158 0 0 1 7.192 7.192h-4.309z"/>
        </g>
    </g>
</svg>
